#N canvas 796 26 608 774 10;
#X obj -44 -46 loadbang;
#X obj -44 17 gemwin;
#X obj 178 343 gemhead;
#X obj 178 410 circle;
#X msg -44 -18 reset \, FSAA 8 \, dimen 800 400 \, create \, 1;
#X msg 20 -44 destroy;
#X obj 178 373 translateXYZ -5 0 0;
#X obj 229 -16 metro 2000;
#X obj 229 9 tgl 15 0 empty empty empty 17 7 0 10 -262144 -1 -1 1 1
;
#X obj 229 30 sel 1;
#X obj 229 80 line;
#X obj 100 282 dac~;
#X obj 100 177 *~ 0;
#X msg 13 20 \; pd dsp 1;
#X floatatom 157 104 5 0 0 0 - - -;
#X obj -44 283 gemhead;
#X obj -44 350 text2d;
#X obj 13 337 loadbang;
#X obj 315 542 separator;
#X obj 340 407 f;
#X obj 366 407 + 1;
#X obj 315 567 translateXYZ 0 0 0;
#X obj 315 594 square 0.02;
#X obj 313 358 repeat 100;
#X obj 393 407 % 100;
#X obj 344 514 expr ($f1/100)*4-2.0;
#X obj -45 168 gemhead;
#X obj -45 235 text2d;
#X obj 12 222 loadbang;
#X obj -46 85 table y 100;
#X obj 160 313 tabwrite~ y;
#X obj 313 386 t a b;
#X obj 180 255 gemhead;
#X obj 180 286 t b;
#X obj 366 463 tabread y;
#X obj 366 485 * 2;
#X obj 176 151 adc~;
#X obj 369 160 f;
#X obj 400 160 + 1;
#X obj 243 259 tabwrite;
#X msg 281 229 set \$1-y;
#X obj 369 88 r start;
#X obj 369 112 t b f;
#X obj 369 185 t f f;
#X obj 243 231 / 50;
#X obj 243 136 k_spec;
#X obj 214 452 GEMglLineWidth 1;
#X obj 214 429 gemhead;
#X obj 214 535 s gemhead;
#X obj -39 394 gemhead;
#X obj -39 461 text2d;
#X obj 18 448 loadbang;
#X msg 18 472 text Spectrum;
#X obj 100 223 *~ 1;
#X obj 177 205 *~ 1;
#X obj 144 35 tgl 30 0 empty empty empty 17 7 0 10 -258113 -1 -1 1
1;
#X obj 198 181 invert;
#X obj 236 292 unsig~ 1;
#X obj 236 339 + 0.1;
#X obj 236 316 * 3;
#N canvas 644 277 300 277 child 1;
#X obj 49 10 s_line 0;
#X obj 47 34 s_line 1;
#X obj 45 59 s_line 2;
#X obj 46 83 s_line 3;
#X obj 44 107 s_line 4;
#X obj 45 131 s_line 5;
#X obj 45 155 s_line 6;
#X obj 46 179 s_line 7;
#X obj 47 201 s_line 8;
#X obj 48 225 s_line 9;
#X obj 116 9 s_line 10;
#X obj 117 33 s_line 11;
#X obj 117 57 s_line 12;
#X obj 118 81 s_line 13;
#X obj 116 105 s_line 14;
#X obj 117 129 s_line 15;
#X obj 117 153 s_line 16;
#X obj 118 177 s_line 17;
#X obj 119 199 s_line 18;
#X obj 120 223 s_line 19;
#X restore -47 64 pd child;
#X obj 144 10 loadbang;
#X msg 229 54 0.8 \, 0 1000;
#X obj 369 137 repeat 50;
#X obj 426 160 % 50;
#X obj 336 69 expr int($f1* 2.56);
#X obj 100 148 osc~ 300;
#X obj 214 478 translateXYZ 0 0 1;
#X obj 214 507 rotateXYZ 23 -24 0;
#X obj 340 435 t f f;
#X obj 313 312 gemhead;
#X obj 313 334 translateXYZ 5 0 0;
#X obj 36 79 random 20;
#X obj 36 103 expr $f1*20+200;
#X floatatom 36 128 5 0 0 0 - - -;
#X obj 229 108 expr pow($f1 \, 2.0);
#X obj 95 556 mtof;
#X floatatom 95 577 5 0 0 0 - - -;
#X obj -32 521 gemhead;
#X obj -32 588 text2d;
#X obj 110 486 fiddle~ 1024 1 20 3;
#X obj 95 512 unpack;
#X floatatom 95 534 0 0 0 0 - - -;
#X floatatom 163 559 0 0 0 0 - - -;
#X obj -33 621 gemhead;
#X obj -33 688 text2d;
#X msg 35 624 justify left base \, text Amplitude= \$1;
#X msg 25 599 justify left base \, text Pitch= \$1;
#X obj -33 651 translateXYZ -7 2.5 0;
#X obj -32 551 translateXYZ -7 3 0;
#X obj -39 424 translateXYZ 0 -2 0;
#X obj -44 313 translateXYZ 5 -2 0;
#X obj -45 198 translateXYZ -5 -2 0;
#X msg 17 690 15;
#X obj 17 669 loadbang;
#X msg 12 246 text ADSR Envelope;
#X msg 13 361 text Wave Form;
#X connect 0 0 4 0;
#X connect 0 0 13 0;
#X connect 2 0 6 0;
#X connect 4 0 1 0;
#X connect 5 0 1 0;
#X connect 6 0 3 0;
#X connect 7 0 8 0;
#X connect 8 0 9 0;
#X connect 9 0 62 0;
#X connect 9 0 72 0;
#X connect 10 0 75 0;
#X connect 12 0 53 0;
#X connect 14 0 12 1;
#X connect 15 0 91 0;
#X connect 17 0 96 0;
#X connect 18 0 21 0;
#X connect 19 0 20 0;
#X connect 19 0 69 0;
#X connect 20 0 24 0;
#X connect 21 0 22 0;
#X connect 23 0 31 0;
#X connect 24 0 19 1;
#X connect 25 0 21 1;
#X connect 26 0 92 0;
#X connect 28 0 95 0;
#X connect 31 0 18 0;
#X connect 31 1 19 0;
#X connect 32 0 33 0;
#X connect 33 0 30 0;
#X connect 34 0 35 0;
#X connect 35 0 21 2;
#X connect 36 0 54 0;
#X connect 36 1 54 0;
#X connect 37 0 38 0;
#X connect 37 0 43 0;
#X connect 38 0 64 0;
#X connect 40 0 39 0;
#X connect 41 0 42 0;
#X connect 42 0 63 0;
#X connect 42 1 40 0;
#X connect 43 0 65 0;
#X connect 43 1 39 1;
#X connect 44 0 39 0;
#X connect 45 0 44 0;
#X connect 46 0 67 0;
#X connect 47 0 46 0;
#X connect 49 0 90 0;
#X connect 51 0 52 0;
#X connect 52 0 50 0;
#X connect 53 0 11 0;
#X connect 53 0 11 1;
#X connect 53 0 30 0;
#X connect 53 0 57 0;
#X connect 53 0 45 0;
#X connect 53 0 80 0;
#X connect 54 0 30 0;
#X connect 54 0 57 0;
#X connect 54 0 45 0;
#X connect 54 0 80 0;
#X connect 55 0 56 0;
#X connect 55 0 53 1;
#X connect 55 0 7 0;
#X connect 56 0 54 1;
#X connect 57 0 59 0;
#X connect 58 0 3 1;
#X connect 59 0 58 0;
#X connect 61 0 55 0;
#X connect 62 0 10 0;
#X connect 63 0 37 0;
#X connect 64 0 37 1;
#X connect 65 0 45 1;
#X connect 66 0 12 0;
#X connect 67 0 68 0;
#X connect 68 0 48 0;
#X connect 69 0 25 0;
#X connect 69 1 34 0;
#X connect 70 0 71 0;
#X connect 71 0 23 0;
#X connect 72 0 73 0;
#X connect 73 0 74 0;
#X connect 74 0 66 0;
#X connect 75 0 14 0;
#X connect 76 0 77 0;
#X connect 77 0 87 0;
#X connect 78 0 89 0;
#X connect 80 2 81 0;
#X connect 80 3 83 0;
#X connect 81 0 82 0;
#X connect 82 0 76 0;
#X connect 83 0 86 0;
#X connect 84 0 88 0;
#X connect 86 0 85 0;
#X connect 87 0 79 0;
#X connect 88 0 85 0;
#X connect 89 0 79 0;
#X connect 90 0 50 0;
#X connect 91 0 16 0;
#X connect 92 0 27 0;
#X connect 93 0 85 1;
#X connect 93 0 79 1;
#X connect 94 0 93 0;
#X connect 95 0 27 0;
#X connect 96 0 16 0;
