#N canvas 616 99 557 568 10;
#X obj -3 119 table pos_x 100;
#X obj -3 144 table pos_y 100;
#X obj 152 209 bng 30 250 50 0 empty empty empty 17 7 0 10 -258113
-1 -1;
#X obj 149 299 bng 30 250 50 0 empty empty empty 17 7 0 10 -258113
-1 -1;
#X obj 149 384 bng 30 250 50 0 empty empty empty 17 7 0 10 -258113
-1 -1;
#X obj 154 118 bng 30 250 50 0 empty empty empty 17 7 0 10 -258113
-1 -1;
#N canvas 0 22 388 405 circle 0;
#X obj 168 75 inlet;
#X obj 169 141 f;
#X obj 196 142 + 1;
#X obj 225 142 % 96;
#X obj 169 105 repeat 96;
#X obj 169 167 t f f f;
#X obj 181 320 tabwrite pos_x;
#X obj 182 350 tabwrite pos_y;
#X obj 142 202 expr ($f1/96)*2*3.1415926;
#X obj 142 226 t f f;
#X obj 169 250 expr sin($f1)*3;
#X obj 142 273 expr cos($f1)*3;
#X connect 0 0 4 0;
#X connect 1 0 2 0;
#X connect 1 0 5 0;
#X connect 2 0 3 0;
#X connect 3 0 1 1;
#X connect 4 0 1 0;
#X connect 5 0 8 0;
#X connect 5 1 7 1;
#X connect 5 2 6 1;
#X connect 8 0 9 0;
#X connect 9 0 11 0;
#X connect 9 1 10 0;
#X connect 10 0 6 0;
#X connect 11 0 7 0;
#X restore 152 251 pd circle;
#N canvas 0 22 644 496 square 0;
#X obj 221 -125 f;
#X obj 248 -124 + 1;
#X obj 277 -124 % 96;
#X obj 221 -161 repeat 96;
#X obj 221 -99 t f f f f f;
#X obj 284 -74 expr if($f1>=0 && $f1<24 \, 1 \, 0);
#X obj 236 10 expr if($f1>=72 && $f1<96 \, 4 \, 0);
#X obj 252 -18 expr if($f1>=48 && $f1<72 \, 3 \, 0);
#X obj 268 -45 expr if($f1>=24 && $f1<48 \, 2 \, 0);
#X obj 236 35 expr $f1+$f2+$f3+$f4;
#X obj 152 69 gate 4 3 2 1;
#N canvas 167 250 450 300 pos-1 0;
#X obj 136 44 inlet;
#X obj 129 195 tabwrite pos_x;
#X obj 229 197 tabwrite pos_y;
#X obj 136 76 t f b f f;
#X msg 229 164 3;
#X obj 129 142 k_range 0 23 -3 3;
#X connect 0 0 3 0;
#X connect 3 0 5 0;
#X connect 3 1 4 0;
#X connect 3 2 1 1;
#X connect 3 3 2 1;
#X connect 4 0 2 0;
#X connect 5 0 1 0;
#X restore 152 98 pd pos-1;
#N canvas 232 330 450 300 pos-2 0;
#X obj 136 44 inlet;
#X obj 129 195 tabwrite pos_x;
#X obj 229 197 tabwrite pos_y;
#X obj 136 75 t f b f f;
#X msg 129 157 3;
#X obj 229 164 k_range 24 47 3 -3;
#X connect 0 0 3 0;
#X connect 3 0 5 0;
#X connect 3 1 4 0;
#X connect 3 2 1 1;
#X connect 3 3 2 1;
#X connect 4 0 1 0;
#X connect 5 0 2 0;
#X restore 175 127 pd pos-2;
#N canvas 167 250 450 300 pos-3 0;
#X obj 136 44 inlet;
#X obj 129 195 tabwrite pos_x;
#X obj 229 197 tabwrite pos_y;
#X obj 136 76 t f b f f;
#X msg 229 164 -3;
#X obj 129 142 k_range 48 71 3 -3;
#X connect 0 0 3 0;
#X connect 3 0 5 0;
#X connect 3 1 4 0;
#X connect 3 2 1 1;
#X connect 3 3 2 1;
#X connect 4 0 2 0;
#X connect 5 0 1 0;
#X restore 198 150 pd pos-3;
#N canvas 232 330 450 300 pos-2 0;
#X obj 136 44 inlet;
#X obj 129 195 tabwrite pos_x;
#X obj 229 197 tabwrite pos_y;
#X obj 136 75 t f b f f;
#X obj 229 164 k_range 72 95 -3 3;
#X msg 129 157 -3;
#X connect 0 0 3 0;
#X connect 3 0 4 0;
#X connect 3 1 5 0;
#X connect 3 2 1 1;
#X connect 3 3 2 1;
#X connect 4 0 2 0;
#X connect 5 0 1 0;
#X restore 221 177 pd pos-2;
#X obj 218 -189 inlet;
#X connect 0 0 1 0;
#X connect 0 0 4 0;
#X connect 1 0 2 0;
#X connect 2 0 0 1;
#X connect 3 0 0 0;
#X connect 4 0 10 1;
#X connect 4 1 6 0;
#X connect 4 2 7 0;
#X connect 4 3 8 0;
#X connect 4 4 5 0;
#X connect 5 0 9 3;
#X connect 6 0 9 0;
#X connect 7 0 9 1;
#X connect 8 0 9 2;
#X connect 9 0 10 0;
#X connect 10 0 11 0;
#X connect 10 1 12 0;
#X connect 10 2 13 0;
#X connect 10 3 14 0;
#X connect 15 0 3 0;
#X restore 149 336 pd square;
#N canvas 0 22 528 426 triangle 0;
#X obj 180 43 inlet;
#X obj 182 104 f;
#X obj 209 105 + 1;
#X obj 238 105 % 96;
#X obj 182 68 repeat 96;
#X obj 182 130 t f f f f f;
#N canvas 167 250 450 300 pos-1 0;
#X obj 129 49 inlet;
#X obj 128 228 tabwrite pos_x;
#X obj 228 230 tabwrite pos_y;
#X obj 250 142 k_range 0 32 -3 3;
#X obj 129 81 t f f f f;
#X obj 129 142 k_range 0 32 -3 0;
#X connect 0 0 4 0;
#X connect 3 0 2 0;
#X connect 4 0 5 0;
#X connect 4 1 3 0;
#X connect 4 2 1 1;
#X connect 4 3 2 1;
#X connect 5 0 1 0;
#X restore 125 320 pd pos-1;
#X obj 197 263 expr $f1+$f2+$f3;
#X obj 245 155 expr if($f1>=0 && $f1<32 \, 1 \, 0);
#X obj 229 183 expr if($f1>=32 && $f1<64 \, 2 \, 0);
#X obj 213 211 expr if($f1>=64 && $f1<96 \, 3 \, 0);
#X obj 125 291 gate 3 2 1;
#N canvas 167 250 450 300 pos-2 0;
#X obj 129 49 inlet;
#X obj 128 228 tabwrite pos_x;
#X obj 228 230 tabwrite pos_y;
#X obj 129 81 t f f f f;
#X obj 128 141 k_range 32 64 0 3;
#X obj 250 142 k_range 32 64 3 -3;
#X connect 0 0 3 0;
#X connect 3 0 4 0;
#X connect 3 1 5 0;
#X connect 3 2 1 1;
#X connect 3 3 2 1;
#X connect 4 0 1 0;
#X connect 5 0 2 0;
#X restore 153 347 pd pos-2;
#N canvas 167 250 450 300 pos-3 0;
#X obj 129 49 inlet;
#X obj 128 228 tabwrite pos_x;
#X obj 228 230 tabwrite pos_y;
#X obj 128 141 k_range 64 96 3 -3;
#X obj 129 81 t f b f f;
#X msg 223 190 -3;
#X connect 0 0 4 0;
#X connect 3 0 1 0;
#X connect 4 0 3 0;
#X connect 4 1 5 0;
#X connect 4 2 1 1;
#X connect 4 3 2 1;
#X connect 5 0 2 0;
#X restore 182 370 pd pos-3;
#X connect 0 0 4 0;
#X connect 1 0 2 0;
#X connect 1 0 5 0;
#X connect 2 0 3 0;
#X connect 3 0 1 1;
#X connect 4 0 1 0;
#X connect 5 0 11 1;
#X connect 5 2 10 0;
#X connect 5 3 9 0;
#X connect 5 4 8 0;
#X connect 7 0 11 0;
#X connect 8 0 7 2;
#X connect 9 0 7 1;
#X connect 10 0 7 0;
#X connect 11 0 6 0;
#X connect 11 1 12 0;
#X connect 11 2 13 0;
#X restore 154 160 pd triangle;
#N canvas 0 22 404 362 noise 0;
#X obj 157 15 inlet;
#X obj 157 114 f;
#X obj 184 115 + 1;
#X obj 213 115 % 96;
#X obj 157 78 repeat 96;
#X obj 175 242 tabwrite pos_x;
#X obj 143 272 tabwrite pos_y;
#X obj 157 141 t b b f f;
#X obj 175 167 randomF 6;
#X obj 175 190 - 3;
#X obj 143 218 randomF 6;
#X obj 143 241 - 3;
#X connect 0 0 4 0;
#X connect 1 0 2 0;
#X connect 1 0 7 0;
#X connect 2 0 3 0;
#X connect 3 0 1 1;
#X connect 4 0 1 0;
#X connect 7 0 10 0;
#X connect 7 1 8 0;
#X connect 7 2 6 1;
#X connect 7 3 5 1;
#X connect 8 0 9 0;
#X connect 9 0 5 0;
#X connect 10 0 11 0;
#X connect 11 0 6 0;
#X restore 149 424 pd noise;
#X obj -5 183 table pos_x-1 100;
#X obj -5 210 table pos_y-1 100;
#X obj 241 284 k_vol;
#X msg 122 159 1;
#X obj 122 182 s signal;
#X obj 119 274 s signal;
#X msg 119 251 2;
#X obj 119 360 s signal;
#X msg 119 336 3;
#X obj 121 447 s signal;
#X msg 121 423 4;
#X obj 242 14 r signal;
#X obj 242 37 sel 1 2 3 4;
#X obj 242 147 unpack f f f f f;
#X obj 242 201 line;
#X msg 242 176 \$1 1000;
#X floatatom 242 225 5 0 0 0 - - -;
#X obj 293 201 line;
#X msg 293 176 \$1 1000;
#X floatatom 293 225 5 0 0 0 - - -;
#X obj 345 201 line;
#X msg 345 176 \$1 1000;
#X floatatom 345 225 5 0 0 0 - - -;
#X obj 382 223 line;
#X msg 382 198 \$1 1000;
#X floatatom 382 247 5 0 0 0 - - -;
#X msg 242 125 1 0 0 0;
#X msg 257 101 0 1 0 0;
#X msg 273 80 0 0 1 0;
#X msg 289 58 0 0 0 1;
#X obj 361 23 loadbang;
#X msg 361 47 \; pd dsp 1;
#X obj 241 384 k_fft;
#X obj 241 546 dac~;
#N canvas 0 22 484 371 pos 0;
#X obj 118 42 tgl 15 0 empty empty empty 17 7 0 10 -262144 -1 -1 1
1;
#X obj 118 118 f;
#X obj 145 119 + 1;
#X obj 174 119 % 96;
#X obj 118 90 repeat 96;
#X obj 118 144 t f f;
#X obj 118 175 t f f f;
#X obj 118 64 metro 30;
#X obj 117 287 tabwrite pos_x-1;
#X obj 118 238 tabread pos_x-1;
#X obj 137 202 tabread pos_x;
#X obj 280 182 t f f f;
#X obj 299 209 tabread pos_y;
#X obj 280 245 tabread pos_y-1;
#X obj 280 293 tabwrite pos_y-1;
#X obj 118 262 expr (($f2-$f1)*0.05)+$f1;
#X obj 280 269 expr (($f2-$f1)*0.05)+$f1;
#X obj 118 18 loadbang;
#X connect 0 0 7 0;
#X connect 1 0 2 0;
#X connect 1 0 5 0;
#X connect 2 0 3 0;
#X connect 3 0 1 1;
#X connect 4 0 1 0;
#X connect 5 0 6 0;
#X connect 5 1 11 0;
#X connect 6 0 9 0;
#X connect 6 1 10 0;
#X connect 6 2 8 1;
#X connect 7 0 4 0;
#X connect 9 0 15 0;
#X connect 10 0 15 1;
#X connect 11 0 13 0;
#X connect 11 1 12 0;
#X connect 11 2 14 1;
#X connect 12 0 16 1;
#X connect 13 0 16 0;
#X connect 15 0 8 0;
#X connect 16 0 14 0;
#X connect 17 0 0 0;
#X restore -7 262 pd pos;
#N canvas 0 22 343 528 shape 0;
#X obj 19 122 gemhead;
#X obj 19 186 t a b;
#X obj 46 211 f;
#X obj 73 212 + 1;
#X obj 102 212 % 96;
#X obj 19 159 repeat 96;
#X obj 19 290 separator;
#X obj 19 321 t a a;
#X obj 19 412 translateXYZ;
#X obj 19 347 separator;
#X obj 46 373 separator;
#X obj 46 242 t f f f;
#X obj 97 451 curve 2;
#N canvas 196 200 450 300 pos-pack 0;
#X obj 180 56 inlet;
#X obj 180 266 outlet;
#X obj 268 269 outlet;
#X obj 181 95 t f f;
#X obj 178 117 t f f;
#X obj 177 192 pack f f 0;
#X obj 294 94 + 1;
#X obj 293 118 % 96;
#X obj 292 144 t f f;
#X obj 291 219 pack f f 0;
#X obj 177 164 tabread pos_x-1;
#X obj 291 191 tabread pos_x-1;
#X obj 198 143 tabread pos_y-1;
#X obj 311 170 tabread pos_y-1;
#X connect 0 0 3 0;
#X connect 3 0 4 0;
#X connect 3 1 6 0;
#X connect 4 0 10 0;
#X connect 4 1 12 0;
#X connect 5 0 1 0;
#X connect 6 0 7 0;
#X connect 7 0 8 0;
#X connect 8 0 11 0;
#X connect 8 1 13 0;
#X connect 9 0 2 0;
#X connect 10 0 5 0;
#X connect 11 0 9 0;
#X connect 12 0 5 1;
#X connect 13 0 9 1;
#X restore 116 424 pd pos-pack;
#X obj 19 451 circle 0.05;
#X obj 91 295 tabread pos_y-1;
#X obj 71 316 tabread pos_x-1;
#X connect 0 0 5 0;
#X connect 1 0 6 0;
#X connect 1 1 2 0;
#X connect 2 0 3 0;
#X connect 2 0 11 0;
#X connect 3 0 4 0;
#X connect 4 0 2 1;
#X connect 5 0 1 0;
#X connect 6 0 7 0;
#X connect 7 0 9 0;
#X connect 7 1 10 0;
#X connect 8 0 14 0;
#X connect 9 0 8 0;
#X connect 10 0 12 0;
#X connect 11 0 16 0;
#X connect 11 1 15 0;
#X connect 11 2 13 0;
#X connect 13 0 12 1;
#X connect 13 1 12 2;
#X connect 15 0 8 2;
#X connect 16 0 8 1;
#X restore -6 236 pd shape;
#X obj 241 254 k_wave 440 0 0 0 0 0;
#X obj 4 515 gemwin;
#X obj 4 407 tgl 30 0 empty empty empty 17 7 0 10 -258113 -1 -1 1 1
;
#X msg 22 493 reset \, create \, 1;
#X obj 4 449 sel 0 1;
#X msg 4 470 destroy;
#X obj 241 523 *~ 0.05;
#X connect 2 0 6 0;
#X connect 2 0 16 0;
#X connect 3 0 7 0;
#X connect 3 0 18 0;
#X connect 4 0 9 0;
#X connect 4 0 20 0;
#X connect 5 0 8 0;
#X connect 5 0 13 0;
#X connect 12 0 42 0;
#X connect 13 0 14 0;
#X connect 16 0 15 0;
#X connect 18 0 17 0;
#X connect 20 0 19 0;
#X connect 21 0 22 0;
#X connect 22 0 36 0;
#X connect 22 1 37 0;
#X connect 22 2 38 0;
#X connect 22 3 39 0;
#X connect 23 0 25 0;
#X connect 23 1 28 0;
#X connect 23 2 31 0;
#X connect 23 3 34 0;
#X connect 24 0 26 0;
#X connect 25 0 24 0;
#X connect 26 0 46 2;
#X connect 27 0 29 0;
#X connect 28 0 27 0;
#X connect 29 0 46 4;
#X connect 30 0 32 0;
#X connect 31 0 30 0;
#X connect 32 0 46 3;
#X connect 33 0 35 0;
#X connect 34 0 33 0;
#X connect 35 0 46 5;
#X connect 36 0 23 0;
#X connect 37 0 23 0;
#X connect 38 0 23 0;
#X connect 39 0 23 0;
#X connect 40 0 41 0;
#X connect 42 0 52 0;
#X connect 46 0 12 0;
#X connect 48 0 50 0;
#X connect 49 0 47 0;
#X connect 50 0 51 0;
#X connect 50 1 49 0;
#X connect 51 0 47 0;
#X connect 52 0 43 0;
#X connect 52 0 43 1;
