#N canvas 118 22 1187 750 10;
#X obj -356 110 gemhead;
#X obj -356 143 translateXYZ;
#X obj -356 173 color 1 0 0;
#X obj 536 290 gemmouse 1 1;
#X obj 536 374 pack f f;
#X obj 536 399 s mouse;
#X obj -294 107 unpack f f;
#X obj 597 372 s mouseleft;
#X obj 76 121 r mouse;
#X obj 29 168 list;
#X obj 29 95 r mouseleft;
#X obj 29 118 t b f;
#X obj 29 195 gate 2;
#X obj 63 168 + 1;
#X obj 76 143 list append 0;
#X obj 10 39 invert;
#X msg 32 -36 destroy;
#X obj 32 -59 sel 0 1;
#X obj 32 -80 tgl 15 0 empty empty empty 17 7 0 10 -262144 -1 -1 1
1;
#N canvas 488 73 763 563 class 0;
#X obj -105 37 distance_n;
#X obj -550 -120 r mouse;
#X obj -132 -47 list;
#X obj -132 -120 r mouseleft;
#X obj -132 -97 t b f;
#X obj -132 -20 gate 2;
#X obj -98 -47 + 1;
#X floatatom -105 60 5 0 0 0 - - -;
#X obj -132 8 t a a;
#X obj -63 90 unpack f f;
#X obj -132 114 unpack f f;
#X obj -132 140 expr $f1-$f2;
#X obj -75 160 expr $f1-$f2;
#X obj -105 197 v dx;
#X obj -48 209 v dy;
#X obj -132 165 t f f;
#X obj -75 183 t f f;
#X obj -132 285 v ca;
#X obj -75 303 v sa;
#X obj -105 89 v d;
#X obj -132 233 expr $f1/d;
#X obj -75 260 expr $f1/d;
#X floatatom -132 259 5 0 0 0 - - -;
#X floatatom -75 281 5 0 0 0 - - -;
#X text -134 301 cosine;
#X text -78 324 sine;
#X obj -349 11 unpack f f;
#X obj -75 5 t a a a;
#X obj -215 14 unpack f f;
#X obj -349 42 expr (-$f3+$f1)*ca + (-$f4+$f2)*sa;
#X obj -310 130 v mx;
#X floatatom -349 66 5 0 0 0 - - -;
#X obj -330 189 expr if ($f1<=0 \, 1 \, 0);
#X obj -279 231 v c-mx;
#X obj -298 306 v c-mx;
#X obj -349 256 expr if ($f1>=d \, 2 \, 0);
#X obj -270 163 v c-mx;
#X msg -270 138 3;
#X obj -349 107 t b f f;
#X obj -349 154 t f f b;
#X obj -565 99 v c-mx;
#X floatatom -565 124 5 0 0 0 - - -;
#X obj -330 209 moses 0.1;
#X obj -565 147 sel 1 2 3;
#X obj -40 118 v x1;
#X obj 0 118 v y1;
#X obj -204 141 v x2;
#X obj -164 141 v y2;
#X obj -548 175 t b b;
#X obj -565 201 t b b;
#X obj -565 229 v x1;
#X obj -525 200 v x2;
#X obj -349 281 moses 0.1;
#X obj -489 200 v y2;
#X obj -529 229 v y1;
#X obj -494 247 t b b;
#X obj -494 275 v x1;
#X obj -458 275 v y1;
#X obj -494 300 expr $f1+(mx*ca);
#X obj -458 324 expr $f1+(mx*sa);
#X obj -565 322 v resultx;
#X obj -529 348 v resulty;
#X obj -550 -27 expr $f1-(resultx);
#X obj -493 -3 expr $f1-(resulty);
#X obj -550 -55 unpack f f;
#X obj -550 29 expr sqrt($f1*$f1+$f2*$f2);
#X floatatom -550 53 5 0 0 0 - - -;
#X obj -550 75 outlet dis;
#X obj -550 -96 t b a a a;
#X obj -653 29 v resultx;
#X obj -617 55 v resulty;
#X obj -653 3 t b b;
#X obj -653 83 pack f f 0;
#X obj -653 112 outlet point;
#X connect 0 0 7 0;
#X connect 1 0 68 0;
#X connect 2 0 5 1;
#X connect 3 0 4 0;
#X connect 4 0 2 0;
#X connect 4 1 6 0;
#X connect 5 0 8 0;
#X connect 5 1 27 0;
#X connect 6 0 5 0;
#X connect 7 0 19 0;
#X connect 8 0 10 0;
#X connect 8 1 0 0;
#X connect 9 0 11 1;
#X connect 9 0 44 0;
#X connect 9 1 12 1;
#X connect 9 1 45 0;
#X connect 10 0 11 0;
#X connect 10 0 46 0;
#X connect 10 1 12 0;
#X connect 10 1 47 0;
#X connect 11 0 15 0;
#X connect 12 0 16 0;
#X connect 15 0 20 0;
#X connect 15 1 13 0;
#X connect 16 0 21 0;
#X connect 16 1 14 0;
#X connect 20 0 22 0;
#X connect 21 0 23 0;
#X connect 22 0 17 0;
#X connect 23 0 18 0;
#X connect 26 0 29 0;
#X connect 26 1 29 1;
#X connect 27 0 28 0;
#X connect 27 1 9 0;
#X connect 27 2 0 1;
#X connect 28 0 29 2;
#X connect 28 1 29 3;
#X connect 29 0 31 0;
#X connect 31 0 38 0;
#X connect 32 0 42 0;
#X connect 35 0 52 0;
#X connect 37 0 36 0;
#X connect 38 0 40 0;
#X connect 38 1 39 0;
#X connect 38 2 30 0;
#X connect 39 0 35 0;
#X connect 39 1 32 0;
#X connect 39 2 37 0;
#X connect 40 0 41 0;
#X connect 41 0 43 0;
#X connect 42 1 33 0;
#X connect 43 0 49 0;
#X connect 43 1 48 0;
#X connect 43 2 55 0;
#X connect 48 0 51 0;
#X connect 48 1 53 0;
#X connect 49 0 50 0;
#X connect 49 1 54 0;
#X connect 50 0 60 0;
#X connect 51 0 60 0;
#X connect 52 1 34 0;
#X connect 53 0 61 0;
#X connect 54 0 61 0;
#X connect 55 0 56 0;
#X connect 55 1 57 0;
#X connect 56 0 58 0;
#X connect 57 0 59 0;
#X connect 58 0 60 0;
#X connect 59 0 61 0;
#X connect 62 0 65 0;
#X connect 63 0 65 1;
#X connect 64 0 62 0;
#X connect 64 1 63 0;
#X connect 65 0 66 0;
#X connect 66 0 67 0;
#X connect 68 0 71 0;
#X connect 68 1 64 0;
#X connect 68 2 26 0;
#X connect 68 3 2 1;
#X connect 69 0 72 0;
#X connect 70 0 72 1;
#X connect 71 0 69 0;
#X connect 71 1 70 0;
#X connect 72 0 73 0;
#X restore -129 388 pd class Line;
#X obj -168 289 gemhead;
#X obj -168 445 curve 2;
#X obj -55 335 r mouse;
#X obj -222 389 loadbang;
#X msg -222 413 draw point;
#X obj -115 417 gemhead;
#X obj -115 566 text2d;
#X obj -115 503 translateXYZ;
#X obj -49 548 loadbang;
#X msg -49 570 13;
#X obj -168 314 color 1 0 0;
#X obj -92 436 r mouse;
#X obj -92 460 unpack f f;
#X obj -92 481 + 0.1;
#X obj 133 316 gemhead;
#X obj 133 349 translateXYZ;
#X obj 133 379 color 1 0 0;
#X obj 133 408 circle 0.05;
#X obj 198 307 unpack f f;
#X obj 198 283 r mouse;
#X obj 166 138 r mouseleft;
#X obj 166 162 invert;
#N canvas 54 51 843 749 line 0;
#X obj 84 382 GEMglEnd;
#X obj 84 261 GEMglVertex3f -1 0 0;
#X obj 84 351 GEMglVertex3f 0 -1 0;
#X obj 220 134 GLdefine GL_SMOOTH;
#X obj 220 97 loadbang;
#X obj 84 194 GEMglBegin;
#X obj 84 405 GEMglShadeModel;
#X obj 234 206 GLdefine GL_FLAT;
#X obj 220 176 GLdefine GL_LINEs;
#X obj 84 152 GEMglShadeModel;
#X obj 84 240 GEMglColor4f 1 0 0 1;
#X obj 220 72 bng 15 250 50 0 empty empty empty 17 7 0 10 -262144 -1
-1;
#X obj 324 241 inlet;
#X obj 324 266 unpack f f f;
#X obj 415 241 inlet;
#X obj 415 266 unpack f f f;
#X obj 84 314 GEMglColor4f 0 1 0 0;
#X obj 355 394 translateXYZ;
#X obj 445 395 translateXYZ;
#X obj 332 418 colorRGB 1 0 0;
#X obj 438 420 colorRGB 0 1 0;
#X obj 84 65 inlet;
#X obj 539 304 distance_n;
#X floatatom 539 328 5 0 0 0 - - -;
#X obj 598 377 distance_n;
#X floatatom 598 403 5 0 0 0 - - -;
#X obj 645 303 inlet;
#X floatatom 563 475 5 0 0 0 - - -;
#X obj 563 451 expr ($f2-$f1)/$f2;
#X obj 602 526 expr 1-$f1;
#X obj 571 568 pack f f 0;
#X obj 569 498 t f f;
#X obj 575 595 outlet;
#X obj 340 586 outlet pitch;
#X obj 84 93 gemhead 1;
#X obj 463 587 outlet;
#X obj 209 478 expr ($f1+$f2)/2;
#X obj 256 509 expr ($f1+$f2)/2;
#X obj 209 544 pack f f;
#X obj 205 575 s LineCenter;
#X obj 58 498 k_angle;
#X floatatom 97 580 5 0 0 0 - - -;
#X floatatom 49 583 5 0 0 0 - - -;
#X obj 99 712 s LineAngle;
#X obj 49 605 < 0;
#X obj 95 644 *;
#X obj 48 633 sel 0 1;
#X msg 45 657 1;
#X msg 64 687 -1;
#X obj 328 449 circle 0.1;
#X obj 428 447 circle 0.1;
#X obj 85 122 GEMglLineWidth 4;
#X obj 355 336 gemhead 100;
#X obj 434 337 gemhead 100;
#X connect 0 0 6 0;
#X connect 1 0 16 0;
#X connect 2 0 0 0;
#X connect 3 0 9 1;
#X connect 4 0 3 0;
#X connect 4 0 8 0;
#X connect 4 0 7 0;
#X connect 5 0 10 0;
#X connect 7 0 6 1;
#X connect 8 0 5 1;
#X connect 9 0 5 0;
#X connect 10 0 1 0;
#X connect 11 0 4 0;
#X connect 12 0 13 0;
#X connect 12 0 22 0;
#X connect 12 0 24 1;
#X connect 12 0 40 0;
#X connect 13 0 1 1;
#X connect 13 0 17 1;
#X connect 13 0 36 0;
#X connect 13 1 1 2;
#X connect 13 1 17 2;
#X connect 13 1 37 0;
#X connect 13 2 1 3;
#X connect 13 2 17 3;
#X connect 14 0 15 0;
#X connect 14 0 22 1;
#X connect 14 0 40 1;
#X connect 15 0 2 1;
#X connect 15 0 18 1;
#X connect 15 0 36 1;
#X connect 15 1 2 2;
#X connect 15 1 18 2;
#X connect 15 1 37 1;
#X connect 15 2 2 3;
#X connect 15 2 18 3;
#X connect 16 0 2 0;
#X connect 17 0 19 0;
#X connect 18 0 20 0;
#X connect 19 0 49 0;
#X connect 20 0 50 0;
#X connect 21 0 34 0;
#X connect 21 0 52 0;
#X connect 21 0 53 0;
#X connect 22 0 23 0;
#X connect 23 0 28 1;
#X connect 23 0 33 0;
#X connect 24 0 25 0;
#X connect 25 0 28 0;
#X connect 26 0 24 0;
#X connect 27 0 31 0;
#X connect 27 0 35 0;
#X connect 28 0 27 0;
#X connect 29 0 30 1;
#X connect 30 0 32 0;
#X connect 31 0 30 0;
#X connect 31 1 29 0;
#X connect 34 0 51 0;
#X connect 36 0 38 0;
#X connect 37 0 38 1;
#X connect 38 0 39 0;
#X connect 40 0 42 0;
#X connect 40 1 41 0;
#X connect 41 0 45 0;
#X connect 42 0 44 0;
#X connect 44 0 46 0;
#X connect 45 0 43 0;
#X connect 46 0 47 0;
#X connect 46 1 48 0;
#X connect 47 0 45 1;
#X connect 48 0 45 1;
#X connect 51 0 9 0;
#X connect 52 0 17 0;
#X connect 53 0 18 0;
#X restore 16 225 pd line;
#X obj 115 484 gemhead;
#X obj 115 517 translateXYZ;
#X obj 182 451 unpack f f;
#X obj 115 547 color 1 1 1;
#X obj 197 561 loadbang;
#X msg 197 584 draw line;
#X obj 166 185 s gem-tgl;
#X obj 133 284 r gem-tgl;
#X obj -356 82 r gem-tgl;
#X obj -168 263 r gem-tgl;
#X obj 115 437 r gem-tgl;
#X obj 17 475 s LineTgaPos;
#X obj 73 239 r LineTgaPos;
#X obj 182 428 r LineTgaPos;
#X obj 55 271 s TgaColor;
#X obj -105 287 r TgaColor;
#X obj 211 380 r TgaColor;
#X obj -276 173 r TgaColor;
#X obj 16 304 s LineLength;
#X obj -140 169 translateXYZ;
#X obj -78 115 unpack f f;
#X obj -140 90 r gem-tgl;
#X obj -140 228 text2d;
#X obj -140 199 color 1 1 1;
#X obj -56 194 loadbang;
#X msg -56 216 13;
#X obj -161 -58 r LineLength;
#X msg -161 56 justify left \, text fre=\$1;
#X floatatom -161 -12 5 0 0 0 - - -;
#X obj -161 30 mtof;
#X obj 81 194 s RedPos;
#X obj -294 83 r LineTgaPos;
#X obj -243 140 r RedPos;
#X obj -78 136 + 0.1;
#X obj -21 135 - 0.1;
#X obj 81 215 s GreenPos;
#X obj -78 91 r GreenPos;
#X obj -140 118 gemhead 20;
#X floatatom -360 231 5 0 0 0 - - -;
#X obj -313 344 *~ 0;
#X obj -313 380 dac~;
#X obj -313 299 *~;
#X obj -305 544 pack f f;
#X obj -301 474 expr if($f1>1 \, 1 \, $f1);
#X obj -301 448 / 4;
#X obj -301 499 expr int($f1*100)/100.0;
#X obj -55 357 list append 0;
#X floatatom -26 253 5 0 0 0 - - -;
#N canvas 0 22 450 278 (subpatch) 0;
#X array amp 200 float 3;
#A 0 0 0 0 0 0 0 0 0 0 0 0 0 0 0 0 0 0 0 0 0 0 0 0 0 0 0 0 0 0 0 0
0 0 0 0 0 0 0 0 0 0 0 0 0 0 0 0 0 0 0 0 0 0 0 0 0 0 0 0 0 0 0 0 0 0
0 0 0 0 0 0 0 0 0 0 0 0 0 0 0 0 0 0 0 0 0 0 0 0 0 0 0 0 0 0 0 0 0 0
0 0 0 0 0 0 0 0 0 0 0 0 0 0 0 0 0 0 0 0 0 0 0 0 0 0 0 0 0 0 0 0 0 0
0 0 0 0 0 0 0 0 0 0 0 0 0 0 0 0 0 0 0 0 0 0 0 0 0 0 0 0 0 0 0 0 0 0
0 0 0 0 0 0 0 0 0 0 0 0 0 0 0 0 0 0 0 0 0 0 0 0 0 0 0 0 0 0 0 0 0;
#X coords 0 1 200 -1 200 140 1;
#X restore -390 -71 graph;
#X obj -415 383 t b;
#X obj -415 413 tabwrite~ amp;
#X floatatom -6 390 5 0 0 0 - - -;
#X floatatom -277 341 5 0 0 0 - - -;
#X obj 252 72 gemhead;
#X obj 289 236 GEMglEnd;
#X obj 340 205 GEMglBegin;
#X obj 289 205 t a a a;
#X obj 308 457 GEMglVertex3f 0 0 0;
#X obj 308 293 t a b;
#X obj 335 316 f;
#X obj 366 316 + 1;
#X obj 395 150 loadbang;
#X obj 450 383 tabread amp;
#X obj 404 245 r LineLength;
#X floatatom 404 264 5 0 0 0 - - -;
#X obj 404 284 / 2;
#X obj 339 415 k_range 0 1 0 1;
#X obj 445 314 t f f;
#X obj 438 343 * -1;
#X obj -161 10 expr if($f1>110 \, 110 \, int($f1));
#X obj 289 146 translateXYZ;
#X obj 353 51 r LineCenter;
#X obj 353 73 unpack f f;
#X obj -271 518 expr int($f1*100)/100.0;
#X obj 317 21 r LineAngle;
#X obj 289 173 rotateXYZ 0 0 0;
#X obj -270 229 phasor~ 1;
#X obj -270 257 expr~ if($v1<$f2 \, 1 \, 0);
#X msg -300 588 justify left \, text db=\$1 | time=\$2 ms;
#X obj 252 43 r gem-tgl;
#X obj -258 291 r gem-tgl;
#X obj -313 321 *~ 0;
#X obj 603 175 r mouse;
#X obj 581 95 r mouseleft;
#X obj 603 197 list append 0;
#X obj 452 33 gemhead;
#X obj 463 -19 r gem-tgl;
#X obj 460 4 invert;
#X obj 453 110 curve 2;
#X obj 581 153 onebang;
#X obj 581 224 list;
#X obj 581 123 sel 1 0;
#X obj 536 317 expr ($f1*14.16)-7.08;
#X obj -356 202 circle 0.1;
#X obj 250 490 expr if($f1<1 \, 0.1 \, $f1/20);
#X obj 115 576 circle 0.2;
#X obj 554 344 expr ($f1*-8)+4;
#X obj 455 82 color 1 1 0;
#X obj 396 316 % 200;
#X obj 308 260 repeat 200;
#X obj 342 389 / 200;
#X obj 342 362 t f f f;
#X obj 475 489 expr if($f1<10 \, $f1*0.1 \, 1);
#X obj 454 538 k_event 0 10;
#X obj 518 560 k_event 10 190;
#X msg 543 526 1;
#X floatatom 384 552 5 0 0 0 - - -;
#X obj 431 597 expr if($f1>190 \, (200-$f1)*0.1 \, 1);
#X obj 455 434 * 0;
#X obj 458 57 GEMglLineWidth 2;
#X obj -415 356 metro 30;
#X obj -413 330 tgl 15 0 empty empty empty 17 7 0 10 -262144 -1 -1
1 1;
#X obj -416 299 loadbang;
#X obj 51 17 gemwin 20;
#X obj 352 -56 loadbang;
#X msg 351 -29 \; pd dsp 1;
#X obj -178 345 GEMglPointSize 4;
#X obj 453 406 * 3;
#X msg 395 175 3;
#X obj 258 113 GEMglLineWidth 1;
#X msg 51 -12 dimen 708 400 \, FSAA 4 \, color 0 0 0 \, create \, 1
;
#X obj -161 -35 expr (($f1*15)/156)*50+30;
#X obj -360 253 noise~;
#X obj -360 273 bp~ 1 5;
#X connect 0 0 1 0;
#X connect 1 0 2 0;
#X connect 2 0 136 0;
#X connect 3 0 135 0;
#X connect 3 1 139 0;
#X connect 3 2 7 0;
#X connect 4 0 5 0;
#X connect 6 0 1 1;
#X connect 6 1 1 2;
#X connect 8 0 14 0;
#X connect 9 0 12 1;
#X connect 10 0 11 0;
#X connect 10 0 15 0;
#X connect 11 0 9 0;
#X connect 11 1 13 0;
#X connect 12 0 42 1;
#X connect 12 0 73 0;
#X connect 12 1 42 2;
#X connect 12 1 78 0;
#X connect 13 0 12 0;
#X connect 14 0 9 1;
#X connect 15 0 42 0;
#X connect 16 0 156 0;
#X connect 17 0 16 0;
#X connect 17 1 163 0;
#X connect 18 0 17 0;
#X connect 19 0 21 2;
#X connect 19 0 54 0;
#X connect 19 1 87 0;
#X connect 19 1 94 0;
#X connect 19 1 137 0;
#X connect 20 0 30 0;
#X connect 22 0 89 0;
#X connect 23 0 24 0;
#X connect 24 0 21 0;
#X connect 25 0 27 0;
#X connect 27 0 26 0;
#X connect 28 0 29 0;
#X connect 29 0 26 1;
#X connect 30 0 159 0;
#X connect 31 0 32 0;
#X connect 32 0 33 0;
#X connect 32 1 27 2;
#X connect 33 0 27 1;
#X connect 34 0 35 0;
#X connect 35 0 36 0;
#X connect 36 0 37 0;
#X connect 38 0 35 1;
#X connect 38 1 35 2;
#X connect 39 0 38 0;
#X connect 40 0 41 0;
#X connect 41 0 49 0;
#X connect 42 0 61 0;
#X connect 42 1 90 0;
#X connect 42 2 57 0;
#X connect 43 0 44 0;
#X connect 44 0 46 0;
#X connect 45 0 44 1;
#X connect 45 1 44 2;
#X connect 46 0 138 0;
#X connect 47 0 48 0;
#X connect 48 0 138 0;
#X connect 50 0 34 0;
#X connect 51 0 0 0;
#X connect 52 0 20 0;
#X connect 53 0 43 0;
#X connect 55 0 42 3;
#X connect 56 0 45 0;
#X connect 58 0 30 1;
#X connect 59 0 36 1;
#X connect 60 0 2 1;
#X connect 62 0 66 0;
#X connect 63 0 76 0;
#X connect 63 1 77 0;
#X connect 64 0 80 0;
#X connect 66 0 65 0;
#X connect 67 0 68 0;
#X connect 68 0 65 1;
#X connect 69 0 164 0;
#X connect 70 0 65 0;
#X connect 71 0 112 0;
#X connect 72 0 70 0;
#X connect 72 0 81 0;
#X connect 74 0 6 0;
#X connect 76 0 62 1;
#X connect 77 0 62 2;
#X connect 79 0 63 0;
#X connect 80 0 62 0;
#X connect 81 0 166 1;
#X connect 82 0 83 0;
#X connect 82 0 83 1;
#X connect 82 0 93 0;
#X connect 84 0 124 0;
#X connect 85 0 121 0;
#X connect 86 0 88 0;
#X connect 87 0 86 0;
#X connect 88 0 85 0;
#X connect 88 0 95 0;
#X connect 89 0 21 1;
#X connect 90 0 116 0;
#X connect 90 0 120 1;
#X connect 92 0 93 0;
#X connect 95 0 82 1;
#X connect 96 0 162 0;
#X connect 99 0 97 0;
#X connect 99 1 142 0;
#X connect 99 2 98 0;
#X connect 101 0 100 0;
#X connect 101 1 102 0;
#X connect 102 0 103 0;
#X connect 102 0 144 0;
#X connect 103 0 141 0;
#X connect 104 0 161 0;
#X connect 105 0 160 0;
#X connect 106 0 107 0;
#X connect 107 0 108 0;
#X connect 108 0 110 0;
#X connect 109 0 100 1;
#X connect 110 0 111 0;
#X connect 110 1 109 4;
#X connect 111 0 109 3;
#X connect 112 0 72 0;
#X connect 113 0 118 0;
#X connect 114 0 115 0;
#X connect 115 0 113 1;
#X connect 115 1 113 2;
#X connect 116 0 85 1;
#X connect 117 0 118 3;
#X connect 118 0 99 0;
#X connect 119 0 120 0;
#X connect 120 0 84 1;
#X connect 121 0 26 0;
#X connect 122 0 96 0;
#X connect 123 0 124 1;
#X connect 124 0 82 0;
#X connect 125 0 127 0;
#X connect 126 0 134 0;
#X connect 127 0 133 1;
#X connect 127 0 131 2;
#X connect 128 0 152 0;
#X connect 129 0 130 0;
#X connect 130 0 128 0;
#X connect 132 0 133 0;
#X connect 133 0 131 1;
#X connect 134 0 132 0;
#X connect 134 1 132 1;
#X connect 135 0 4 0;
#X connect 137 0 37 1;
#X connect 139 0 4 1;
#X connect 140 0 131 0;
#X connect 141 0 102 1;
#X connect 142 0 101 0;
#X connect 143 0 109 0;
#X connect 144 0 143 0;
#X connect 144 1 105 0;
#X connect 144 2 146 0;
#X connect 145 0 149 0;
#X connect 146 0 145 0;
#X connect 146 1 147 0;
#X connect 147 0 148 0;
#X connect 147 1 150 0;
#X connect 148 0 149 0;
#X connect 149 0 151 1;
#X connect 150 0 149 0;
#X connect 151 0 100 2;
#X connect 152 0 140 0;
#X connect 153 0 92 0;
#X connect 154 0 153 0;
#X connect 155 0 154 0;
#X connect 157 0 158 0;
#X connect 159 0 21 0;
#X connect 160 0 151 0;
#X connect 161 0 98 1;
#X connect 162 0 113 0;
#X connect 163 0 156 0;
#X connect 164 0 71 0;
#X connect 165 0 166 0;
#X connect 166 0 84 0;
