#N canvas 511 27 614 755 10;
#X obj 200 713 gemwin;
#X obj 203 8 gemmouse 1 1;
#X obj 221 75 spigot;
#X msg 365 46 \; x const 0 \; y const 0;
#X obj 204 39 spigot;
#X obj 275 128 + 1;
#X msg 263 100 0;
#X obj 248 128 f 0;
#X obj 221 101 t f b;
#X obj 204 183 tabwrite x;
#X obj 240 208 tabwrite y;
#X obj 248 150 t f f f;
#X obj 302 61 sel 1 0;
#X obj 348 160 v \$0-array-size;
#X obj 321 132 t b b;
#X obj 321 237 arraysize x;
#X msg 348 183 \; x resize \$1 \; y resize \$1;
#X obj 302 86 t b b b;
#X msg 369 103 \; x resize 1000 \; y resize 1000;
#X floatatom 321 260 5 0 0 0 - - -;
#N canvas 0 22 450 300 (subpatch) 0;
#X array x 47 float 3;
#A 0 0.494 0.502 0.52 0.54 0.572 0.586 0.598 0.608 0.616 0.63 0.636
0.658 0.672 0.686 0.696 0.708 0.726 0.738 0.758 0.764 0.77 0.774 0.776
0.78 0.782 0.784 0.788 0.79 0.79 0.792 0.796 0.796 0.798 0.798 0.798
0.8 0.802 0.802 0.802 0.802 0.802 0.802 0.802 0.802 0.806 0.808 0.812
;
#X coords 0 1 47 -1 100 50 1;
#X restore -93 517 graph;
#N canvas 0 22 450 300 (subpatch) 0;
#X array y 47 float 3;
#A 0 0.202 0.214 0.236 0.254 0.29 0.308 0.322 0.334 0.344 0.36 0.368
0.396 0.414 0.43 0.442 0.454 0.476 0.49 0.52 0.53 0.54 0.544 0.548
0.558 0.572 0.588 0.602 0.614 0.622 0.626 0.63 0.632 0.636 0.638 0.642
0.644 0.648 0.648 0.65 0.662 0.666 0.674 0.682 0.686 0.686 0.686 0.686
;
#X coords 0 1 47 -1 100 50 1;
#X restore -94 586 graph;
#X obj 78 135 repeat 0;
#X obj 78 162 t a b;
#X obj 78 91 t a b;
#X obj 123 79 arraysize x;
#X obj 105 186 f;
#X obj 132 186 + 1;
#X obj 160 186 % 100;
#X obj 105 210 t f f;
#X obj 105 234 tabread x;
#X obj 132 257 tabread y;
#X obj 105 279 expr $f1*8-4;
#X obj 132 301 expr $f1*-8+4;
#X obj 78 325 separator;
#X floatatom 123 103 5 0 0 0 - - -;
#X msg 154 667 destroy;
#X obj 78 349 translateXYZ 0 0 0;
#X obj -97 121 t a b;
#X obj -70 145 f;
#X obj -43 145 + 1;
#X obj -70 279 t f f;
#X obj -70 303 tabread x;
#X obj -43 326 tabread y;
#X obj -70 348 expr $f1*8-4;
#X obj -43 370 expr $f1*-8+4;
#X obj -97 394 separator;
#X obj -97 418 translateXYZ 0 0 0;
#X obj -97 54 gemhead 100;
#X obj 78 56 gemhead 200;
#X obj -97 446 color 1 0 0;
#X obj -70 166 t f b;
#X obj -43 186 arraysize x;
#X obj 228 261 tgl 15 0 empty empty empty 17 7 0 10 -262144 -1 -1 1
1;
#X obj 228 313 f;
#X obj 258 313 + 1;
#X msg 252 260 0;
#X obj 275 37 t f f f;
#X obj 228 234 invert;
#X obj 228 376 t f f;
#X obj 228 402 tabread x;
#X obj 330 417 tabread y;
#X obj 228 472 mtof;
#X floatatom 228 497 5 0 0 0 - - -;
#X obj 330 510 line~;
#X obj 228 519 osc~ 440;
#X obj 228 609 *~;
#X obj 228 634 dac~;
#X obj 72 514 expr $f1*8-4;
#X obj 99 536 expr $f1*-8+4;
#X obj 309 335 arraysize x;
#X obj 228 334 t f b;
#X obj 94 458 line;
#X obj 146 458 line;
#X obj 228 285 metro 300;
#X msg 94 436 \$1 250;
#X msg 146 436 \$1 250;
#X msg 330 488 \$1 250;
#X obj -97 478 circle 0.05;
#X obj 78 378 circle 0.015;
#X obj -97 94 repeat 16;
#X obj -15 145 % 16;
#X obj -70 210 expr int($f1*($f2/16));
#X obj 228 355 expr int($f1*($f2/16));
#X obj 287 312 % 16;
#X obj 330 467 expr 1-($f1);
#X obj 228 445 expr int(($f1)*30)+50;
#X obj 154 643 sel 0 1;
#X obj 154 605 tgl 30 0 empty empty empty 17 7 0 10 -262144 -1 -1 1
1;
#X obj 154 582 loadbang;
#X obj 228 540 *~ 0;
#X obj 297 624 line;
#X floatatom 163 496 5 0 0 0 - - -;
#X floatatom 113 483 5 0 0 0 - - -;
#X obj 37 607 alpha;
#X obj 37 560 translateXYZ 0 0 0;
#X obj 37 486 gemhead 200;
#X obj 13 670 loadbang;
#X msg 13 692 1;
#X obj 37 583 colorRGB 1 1 0 0.7;
#X obj 297 647 * 0.2;
#X msg 297 542 \$1 1000;
#X obj 298 565 line~;
#X obj 228 569 *~;
#X msg 297 602 \$1 15000;
#X msg 417 354 \; x const 0 \; y const 0;
#X obj 417 330 loadbang;
#X msg 200 688 reset \, FSAA 8 \, color 0.1 0.3 0.8 \, create \, 1
;
#X obj 37 632 circle 0.15;
#X connect 1 0 4 0;
#X connect 1 1 2 0;
#X connect 1 2 57 0;
#X connect 2 0 8 0;
#X connect 4 0 9 0;
#X connect 5 0 7 1;
#X connect 6 0 7 1;
#X connect 7 0 5 0;
#X connect 7 0 11 0;
#X connect 8 0 10 0;
#X connect 8 1 7 0;
#X connect 11 0 9 1;
#X connect 11 1 10 1;
#X connect 11 2 13 0;
#X connect 12 0 17 0;
#X connect 12 1 14 0;
#X connect 13 0 16 0;
#X connect 14 0 15 0;
#X connect 14 1 13 0;
#X connect 15 0 19 0;
#X connect 17 0 6 0;
#X connect 17 0 56 0;
#X connect 17 1 3 0;
#X connect 17 2 18 0;
#X connect 22 0 23 0;
#X connect 23 0 34 0;
#X connect 23 1 26 0;
#X connect 24 0 22 0;
#X connect 24 1 25 0;
#X connect 25 0 35 0;
#X connect 26 0 27 0;
#X connect 26 0 29 0;
#X connect 27 0 28 0;
#X connect 28 0 26 1;
#X connect 29 0 30 0;
#X connect 29 1 31 0;
#X connect 30 0 32 0;
#X connect 31 0 33 0;
#X connect 32 0 37 1;
#X connect 33 0 37 2;
#X connect 34 0 37 0;
#X connect 35 0 22 1;
#X connect 35 0 28 1;
#X connect 36 0 0 0;
#X connect 37 0 79 0;
#X connect 38 0 46 0;
#X connect 38 1 39 0;
#X connect 39 0 40 0;
#X connect 39 0 51 0;
#X connect 40 0 81 0;
#X connect 41 0 42 0;
#X connect 41 1 43 0;
#X connect 42 0 44 0;
#X connect 43 0 45 0;
#X connect 44 0 47 1;
#X connect 45 0 47 2;
#X connect 46 0 47 0;
#X connect 47 0 50 0;
#X connect 48 0 80 0;
#X connect 49 0 24 0;
#X connect 50 0 78 0;
#X connect 51 0 82 0;
#X connect 51 1 52 0;
#X connect 52 0 82 1;
#X connect 53 0 74 0;
#X connect 53 0 101 0;
#X connect 54 0 55 0;
#X connect 54 0 71 0;
#X connect 55 0 84 0;
#X connect 56 0 54 1;
#X connect 57 0 2 1;
#X connect 57 0 4 1;
#X connect 57 1 12 0;
#X connect 57 2 58 0;
#X connect 58 0 53 0;
#X connect 59 0 60 0;
#X connect 59 1 61 0;
#X connect 60 0 75 0;
#X connect 60 0 86 0;
#X connect 61 0 76 0;
#X connect 61 0 85 0;
#X connect 62 0 63 0;
#X connect 63 0 65 0;
#X connect 64 0 66 1;
#X connect 65 0 90 0;
#X connect 66 0 67 0;
#X connect 66 0 67 1;
#X connect 68 0 95 1;
#X connect 69 0 95 2;
#X connect 70 0 83 1;
#X connect 71 0 83 0;
#X connect 71 1 70 0;
#X connect 72 0 68 0;
#X connect 72 0 93 0;
#X connect 73 0 69 0;
#X connect 73 0 92 0;
#X connect 74 0 54 0;
#X connect 75 0 72 0;
#X connect 76 0 73 0;
#X connect 77 0 64 0;
#X connect 80 0 38 0;
#X connect 81 0 39 1;
#X connect 82 0 41 0;
#X connect 83 0 59 0;
#X connect 84 0 54 1;
#X connect 85 0 77 0;
#X connect 86 0 62 0;
#X connect 87 0 36 0;
#X connect 87 1 107 0;
#X connect 88 0 87 0;
#X connect 88 0 104 0;
#X connect 89 0 88 0;
#X connect 90 0 103 0;
#X connect 91 0 100 0;
#X connect 94 0 108 0;
#X connect 95 0 99 0;
#X connect 96 0 95 0;
#X connect 97 0 98 0;
#X connect 98 0 94 1;
#X connect 99 0 94 0;
#X connect 100 0 90 1;
#X connect 101 0 102 0;
#X connect 102 0 103 1;
#X connect 103 0 66 0;
#X connect 104 0 91 0;
#X connect 106 0 105 0;
#X connect 107 0 0 0;
