#N canvas 544 238 889 413 10;
#X msg 109 109 create \, 1;
#X obj 109 134 gemwin;
#X obj 190 109 gemhead;
#X obj 190 246 circle 0.2;
#X msg 269 80 1 \, 0 1000;
#X obj 269 106 line;
#X obj 267 214 osc~ 440;
#X obj 267 243 *~ 0;
#X obj 267 274 dac~;
#X obj 190 179 translateXYZ 0 5 0;
#X obj 269 130 k_range 1 0 5 -5;
#X obj 379 113 gemhead;
#X obj 379 250 circle 0.2;
#X msg 458 46 1 \, 0 1000;
#X obj 458 72 line;
#X obj 456 218 osc~ 440;
#X obj 456 247 *~ 0;
#X obj 456 278 dac~;
#X obj 379 183 translateXYZ 0 5 0;
#X obj 458 134 k_range 1 0 5 -5;
#X obj 458 105 outcirc;
#X obj 579 113 gemhead;
#X obj 579 250 circle 0.2;
#X obj 658 72 line;
#X obj 656 218 osc~ 440;
#X obj 656 247 *~ 0;
#X obj 656 278 dac~;
#X obj 579 183 translateXYZ 0 5 0;
#X obj 658 105 inelastic;
#X obj 658 134 k_range 1 0 5 -3.5;
#X msg 658 46 1 \, 0 1000;
#X obj 579 89 tgl 15 0 empty empty empty 17 7 0 10 -262144 -1 -1 0
1;
#X obj 379 87 tgl 15 0 empty empty empty 17 7 0 10 -262144 -1 -1 0
1;
#X obj 190 85 tgl 15 0 empty empty empty 17 7 0 10 -262144 -1 -1 0
1;
#X connect 0 0 1 0;
#X connect 2 0 9 0;
#X connect 4 0 5 0;
#X connect 5 0 7 1;
#X connect 5 0 10 0;
#X connect 6 0 7 0;
#X connect 7 0 8 0;
#X connect 7 0 8 1;
#X connect 9 0 3 0;
#X connect 10 0 9 2;
#X connect 11 0 18 0;
#X connect 13 0 14 0;
#X connect 14 0 20 0;
#X connect 15 0 16 0;
#X connect 16 0 17 0;
#X connect 16 0 17 1;
#X connect 18 0 12 0;
#X connect 19 0 18 2;
#X connect 20 0 19 0;
#X connect 20 0 16 1;
#X connect 21 0 27 0;
#X connect 23 0 28 0;
#X connect 24 0 25 0;
#X connect 25 0 26 0;
#X connect 25 0 26 1;
#X connect 27 0 22 0;
#X connect 28 0 25 1;
#X connect 28 0 29 0;
#X connect 29 0 27 2;
#X connect 30 0 23 0;
#X connect 31 0 21 0;
#X connect 32 0 11 0;
#X connect 33 0 2 0;
