#N canvas 811 324 460 401 10;
#X obj 65 42 gemwin;
#X msg 65 12 create \, 1;
#X msg 182 137 0;
#X obj 182 168 v angle;
#X msg 166 195 0.05;
#X obj 166 220 v speed;
#X obj 135 88 bng 15 250 50 0 empty empty empty 17 7 0 10 -262144 -1
-1;
#X obj 135 62 loadbang;
#X obj 322 56 gemhead;
#N canvas 716 388 450 300 speed 0;
#X obj 129 136 v angle;
#X obj 148 113 v speed;
#X obj 129 58 inlet;
#X obj 129 87 t b b b;
#X obj 129 164 +;
#X obj 129 189 v angle;
#X connect 0 0 4 0;
#X connect 1 0 4 1;
#X connect 2 0 3 0;
#X connect 3 0 0 0;
#X connect 3 1 1 0;
#X connect 4 0 5 0;
#X restore 349 107 pd speed;
#N canvas 655 305 424 409 wave 0;
#X obj 133 -12 inlet;
#X obj 327 184 v sinval;
#X obj 276 255 v cosval;
#X obj 327 115 randomF;
#X obj 366 83 v angle;
#X obj 276 183 randomF;
#X obj 327 141 expr sin($f1);
#X floatatom 327 163 5 0 0 0 - - -;
#X floatatom 276 229 5 0 0 0 - - -;
#X obj 276 207 expr cos($f1);
#X obj 97 140 tabwrite b1y;
#X obj 39 192 tabwrite b2y;
#X obj 97 110 v sinval;
#X obj 39 165 v cosval;
#X obj 133 17 t b b f b b b;
#X connect 0 0 14 0;
#X connect 3 0 6 0;
#X connect 4 0 3 1;
#X connect 4 0 5 1;
#X connect 5 0 9 0;
#X connect 6 0 7 0;
#X connect 7 0 1 0;
#X connect 8 0 2 0;
#X connect 9 0 8 0;
#X connect 12 0 10 0;
#X connect 13 0 11 0;
#X connect 14 0 13 0;
#X connect 14 1 12 0;
#X connect 14 2 10 1;
#X connect 14 2 11 1;
#X connect 14 3 5 0;
#X connect 14 4 3 0;
#X connect 14 5 4 0;
#X restore 325 279 pd wave;
#X msg 150 248 300;
#X obj 150 270 v range;
#X obj 24 64 table b1x 300;
#X obj 24 85 table b1y 300;
#X obj 24 106 table b2x 300;
#X obj 24 127 table b2y 300;
#N canvas 550 406 450 300 random 0;
#X obj 100 18 inlet;
#X obj 100 47 repeat 300;
#X obj 100 82 f;
#X obj 126 82 + 1;
#X obj 155 82 % 300;
#X obj 100 108 t b b f;
#X obj 100 135 random 500;
#X obj 119 157 random 500;
#X obj 119 190 tabwrite b1x;
#X obj 100 232 tabwrite b2x;
#X connect 0 0 1 0;
#X connect 1 0 2 0;
#X connect 2 0 3 0;
#X connect 2 0 5 0;
#X connect 3 0 4 0;
#X connect 4 0 2 1;
#X connect 5 0 6 0;
#X connect 5 1 7 0;
#X connect 5 2 8 1;
#X connect 5 2 9 1;
#X connect 6 0 9 0;
#X connect 7 0 8 0;
#X restore 135 293 pd random b1x&b2x;
#X obj 322 83 t a b;
#X obj 322 137 repeat 300;
#X obj 322 162 t a b;
#X obj 349 185 f;
#X obj 375 185 + 1;
#X obj 404 185 % 300;
#N canvas 291 302 507 464 bezierVertex 0;
#X obj 233 -21 bng 15 250 50 0 empty empty empty 17 7 0 10 -262144
-1 -1;
#X obj 146 64 GEMglBegin;
#X obj 146 281 GEMglEnd;
#X obj 233 0 GLdefine GL_SMOOTH;
#X obj 146 31 GEMglShadeModel;
#X obj 146 172 GEMglVertex3f 0 0 0;
#X obj 146 209 GEMglVertex3f 0 0 0;
#X obj 146 244 GEMglVertex3f 0 0 0;
#X obj 146 -33 inlet;
#X obj 146 -7 t a b b b;
#X obj 262 20 v id;
#X obj 262 45 t f f;
#X obj 262 73 tabread b1x;
#X obj 289 96 tabread b1y;
#X obj 280 155 v id;
#X obj 280 180 t f f;
#X obj 280 208 tabread b2x;
#X obj 307 231 tabread b2y;
#X obj 274 257 v id;
#X obj 274 310 v width;
#X obj 274 282 t f b;
#X connect 0 0 3 0;
#X connect 1 0 5 0;
#X connect 3 0 4 1;
#X connect 4 0 1 0;
#X connect 5 0 6 0;
#X connect 6 0 7 0;
#X connect 7 0 2 0;
#X connect 8 0 9 0;
#X connect 9 0 4 0;
#X connect 9 1 18 0;
#X connect 9 2 14 0;
#X connect 9 3 10 0;
#X connect 10 0 11 0;
#X connect 11 0 12 0;
#X connect 11 1 13 0;
#X connect 12 0 5 1;
#X connect 13 0 5 2;
#X connect 14 0 15 0;
#X connect 15 0 16 0;
#X connect 15 1 17 0;
#X connect 16 0 6 1;
#X connect 17 0 6 2;
#X connect 18 0 20 0;
#X connect 20 0 19 0;
#X restore 279 305 pd bezierVertex;
#X obj 135 112 t b b b b b;
#X msg 235 140 500;
#X obj 235 168 v width;
#X connect 1 0 0 0;
#X connect 2 0 3 0;
#X connect 4 0 5 0;
#X connect 6 0 25 0;
#X connect 7 0 6 0;
#X connect 8 0 18 0;
#X connect 11 0 12 0;
#X connect 18 0 19 0;
#X connect 18 1 9 0;
#X connect 19 0 20 0;
#X connect 20 1 21 0;
#X connect 21 0 22 0;
#X connect 22 0 23 0;
#X connect 23 0 21 1;
#X connect 25 0 17 0;
#X connect 25 1 11 0;
#X connect 25 2 4 0;
#X connect 25 3 2 0;
#X connect 25 4 26 0;
#X connect 26 0 27 0;
