#N canvas 635 172 654 458 10;
#X obj 175 59 GEMglEnd;
#X obj 226 28 GEMglBegin;
#X obj 175 28 t a a a;
#X obj 194 280 GEMglVertex3f 0 0 0;
#X obj 194 116 t a b;
#X obj 221 139 f;
#X obj 252 139 + 1;
#X obj 221 169 t f f;
#X obj 345 -72 init \$1;
#X obj 313 24 f 0;
#X obj 175 -38 t a b b;
#X obj 345 -99 once;
#X obj 350 48 t f f;
#X obj 268 160 tabread \$1-y;
#X obj 283 -27 loadbang;
#X obj 175 -5 colorRGB 1 1 1;
#X obj 400 169 sel 1;
#X msg 427 247 \; \$1-y const 0;
#X obj 427 221 init \$1;
#X obj 400 195 t b b;
#X obj 372 304 s start;
#X obj 372 278 init \$1;
#X msg 283 -3 3;
#X obj 175 -126 r gemhead;
#X obj 175 -95 separator;
#X obj 342 24 - 0.1;
#X obj 345 -44 * -0.1;
#X obj 268 185 * 0.5;
#X obj 476 167 table \$1-y 50;
#X obj 194 83 repeat 50;
#X obj 282 139 % 50;
#X obj 225 224 expr ($f1/50)*2-1.0;
#X obj 377 96 + 1;
#X obj 350 121 expr if($f1<-1.9 \, 1 \, 0);
#X obj 377 73 expr if($f1<-1.9 \, 0 \, $f1);
#X connect 2 0 0 0;
#X connect 2 1 29 0;
#X connect 2 2 1 0;
#X connect 4 0 3 0;
#X connect 4 1 5 0;
#X connect 5 0 6 0;
#X connect 5 0 7 0;
#X connect 6 0 30 0;
#X connect 7 0 31 0;
#X connect 7 1 13 0;
#X connect 8 0 26 0;
#X connect 9 0 25 0;
#X connect 10 0 15 0;
#X connect 10 1 9 0;
#X connect 10 2 11 0;
#X connect 11 0 8 0;
#X connect 12 0 33 0;
#X connect 12 1 34 0;
#X connect 13 0 27 0;
#X connect 14 0 22 0;
#X connect 15 0 2 0;
#X connect 16 0 19 0;
#X connect 18 0 17 0;
#X connect 19 0 21 0;
#X connect 19 1 18 0;
#X connect 21 0 20 0;
#X connect 22 0 1 1;
#X connect 23 0 24 0;
#X connect 24 0 10 0;
#X connect 25 0 12 0;
#X connect 26 0 9 1;
#X connect 27 0 3 2;
#X connect 29 0 4 0;
#X connect 30 0 5 1;
#X connect 31 0 3 1;
#X connect 32 0 3 3;
#X connect 33 0 16 0;
#X connect 34 0 9 1;
#X connect 34 0 32 0;
