#N canvas 940 180 561 435 10;
#X declare -path /Users/aluan/AVLab/av1;
#X obj 40 93 gemmouse 1 1;
#X obj 40 177 pack f f;
#X obj 40 202 s mouse;
#X msg 21 13 destroy;
#X obj 21 -10 sel 0 1;
#X obj 21 -31 tgl 15 0 empty empty empty 17 7 0 10 -262144 -1 -1 1
1;
#X obj 58 147 expr ($f1*-8)+4;
#X obj 40 66 gemwin 20;
#X obj 214 125 loadbang;
#X msg 214 150 \; pd dsp 1;
#X obj -110 246 catch~ all;
#X obj -110 349 dac~;
#X obj 340 13 r mouse;
#X obj 340 35 list append 0;
#X obj 300 156 gemhead;
#X obj 300 231 curve 2;
#X obj 319 -7 onebang;
#X obj 319 83 list;
#X obj 319 -29 sel 1 0;
#X obj 300 205 color 1 1 0;
#X obj 300 180 GEMglLineWidth 2;
#X obj 340 61 t a a;
#X obj 214 185 r mouseleft;
#X obj 214 209 invert;
#X obj 214 232 s gem-tgl;
#X obj 104 174 p2l 0;
#N canvas 914 414 450 300 gui 0;
#X obj 124 38 hid;
#X obj 124 -8 loadbang;
#X obj 124 65 route key;
#X obj 124 92 s hid;
#X msg 124 13 open keyboard 0 \, 1;
#X connect 0 0 2 0;
#X connect 1 0 4 0;
#X connect 2 0 3 0;
#X connect 4 0 0 0;
#X restore 160 86 pd gui;
#X obj -79 157 f;
#X obj -53 157 + 1;
#X obj -64 -30 r hid;
#X obj -64 -6 route key_44;
#X obj -64 19 sel 1;
#X msg -64 42 0;
#X obj -124 221 s mouseleft;
#X obj -124 181 pack f f;
#X obj -79 113 sel 1;
#X obj -106 89 t f f;
#X msg -124 201 \$2 \$1;
#X msg 300 127 0;
#X obj -27 157 % 10;
#X obj 104 193 p2l 1;
#X obj 104 212 p2l 2;
#X obj 105 232 p2l 3;
#X obj 105 251 p2l 4;
#X obj 145 175 p2l 5;
#X obj 145 194 p2l 6;
#X obj 145 213 p2l 7;
#X obj 146 233 p2l 8;
#X obj 146 252 p2l 9;
#X obj 40 120 expr ($f1*8)-4;
#X obj 82 -12 declare -path /Users/aluan/AVLab/av1;
#X obj 21 -56 loadbang;
#X msg 40 37 dimen 500 500 \, border 1 \, offset 100 100 \, FSAA 4
\, color 0.55 0.55 0.55 \, create \, 1;
#X obj -110 276 st-pureverb /key;
#X connect 0 0 49 0;
#X connect 0 1 6 0;
#X connect 0 2 36 0;
#X connect 0 2 18 0;
#X connect 0 2 14 0;
#X connect 1 0 2 0;
#X connect 3 0 7 0;
#X connect 4 0 3 0;
#X connect 4 1 52 0;
#X connect 5 0 4 0;
#X connect 6 0 1 1;
#X connect 8 0 9 0;
#X connect 8 0 38 0;
#X connect 10 0 53 0;
#X connect 10 0 53 1;
#X connect 12 0 13 0;
#X connect 13 0 21 0;
#X connect 14 0 20 0;
#X connect 16 0 17 0;
#X connect 17 0 15 1;
#X connect 18 0 16 0;
#X connect 18 1 16 1;
#X connect 19 0 15 0;
#X connect 20 0 19 0;
#X connect 21 0 17 1;
#X connect 21 1 15 2;
#X connect 22 0 23 0;
#X connect 23 0 24 0;
#X connect 27 0 28 0;
#X connect 27 0 34 1;
#X connect 28 0 39 0;
#X connect 29 0 30 0;
#X connect 30 0 31 0;
#X connect 31 0 32 0;
#X connect 32 0 27 1;
#X connect 34 0 37 0;
#X connect 35 0 27 0;
#X connect 36 0 34 0;
#X connect 36 1 35 0;
#X connect 37 0 33 0;
#X connect 38 0 14 0;
#X connect 39 0 27 1;
#X connect 49 0 1 0;
#X connect 51 0 5 0;
#X connect 52 0 7 0;
#X connect 53 0 11 0;
#X connect 53 1 11 1;
