#N canvas 454 245 918 459 10;
#X obj -337 102 r mouse;
#X obj -358 205 list;
#X obj -358 43 r mouseleft;
#X obj -358 232 gate 2;
#X obj -324 205 + 1;
#X obj -337 124 list append 0;
#N canvas 484 147 904 568 class 0;
#X obj -105 37 distance_n;
#X obj -592 -120 r mouse;
#X obj -132 -47 list;
#X obj -132 -146 r mouseleft;
#X obj -132 -97 t b f;
#X obj -132 -20 gate 2;
#X obj -98 -47 + 1;
#X floatatom -105 60 5 0 0 0 - - -;
#X obj -132 8 t a a;
#X obj -63 90 unpack f f;
#X obj -132 114 unpack f f;
#X obj -132 140 expr $f1-$f2;
#X obj -75 160 expr $f1-$f2;
#X obj -132 165 t f f;
#X obj -75 183 t f f;
#X floatatom -132 259 5 0 0 0 - - -;
#X floatatom -75 281 5 0 0 0 - - -;
#X text -134 301 cosine;
#X text -78 324 sine;
#X obj -391 11 unpack f f;
#X obj -75 5 t a a a;
#X obj -306 13 unpack f f;
#X floatatom -391 66 5 0 0 0 - - -;
#X obj -372 189 expr if ($f1<=0 \, 1 \, 0);
#X msg -312 138 3;
#X obj -391 91 t b f f;
#X obj -391 154 t f f b;
#X floatatom -607 124 5 0 0 0 - - -;
#X obj -372 209 moses 0.1;
#X obj -607 147 sel 1 2 3;
#X obj -590 175 t b b;
#X obj -607 201 t b b;
#X obj -391 281 moses 0.1;
#X obj -536 247 t b b;
#X obj -592 -55 unpack f f;
#X obj -592 29 expr sqrt($f1*$f1+$f2*$f2);
#X floatatom -592 53 5 0 0 0 - - -;
#X obj -592 -96 t b a a a;
#X obj -743 -7 t b b;
#X obj -743 73 pack f f 0;
#X obj -592 75 s \$0-dis;
#X obj -743 102 s \$0-LineTgaPos;
#X obj -132 -122 route \$1;
#X obj 12 118 v \$0-y1;
#X obj -40 118 v \$0-x1;
#X obj -75 303 v \$0-sa;
#X obj -132 285 v \$0-ca;
#X obj -268 140 v \$0-x2;
#X obj -237 161 v \$0-y2;
#X obj -48 209 v \$0-dy;
#X obj -105 204 v \$0-dx;
#X obj -105 89 v \$0-d;
#X obj -340 306 v \$0-c-mx;
#X obj -321 231 v \$0-c-mx;
#X obj -312 163 v \$0-c-mx;
#X obj -352 114 v \$0-mx;
#X obj -518 374 v \$0-resulty;
#X obj -660 363 v \$0-resultx;
#X obj -514 200 v \$0-y2;
#X obj -567 200 v \$0-x2;
#X obj -571 229 v \$0-y1;
#X obj -623 229 v \$0-x1;
#X obj -707 45 v \$0-resulty;
#X obj -743 19 v \$0-resultx;
#X obj -607 99 v \$0-c-mx;
#X obj -481 275 v \$0-y1;
#X obj -536 275 v \$0-x1;
#X obj -132 233 expr $f1/$f2;
#X obj -75 260 expr $f1/$f2;
#X obj -391 42 expr (-$f3+$f1)*$f5 + (-$f4+$f2)*$f6;
#X obj -391 256 expr if ($f1>=$f2 \, 2 \, 0);
#X floatatom -717 323 5 0 0 0 - - -;
#X floatatom -568 377 5 0 0 0 - - -;
#X obj -592 -27 expr $f1-($f2);
#X obj -535 -3 expr $f1-($f2);
#X obj -536 300 expr $f1+($f2*$f3);
#X obj -481 324 expr $f1+($f2*$f3);
#X connect 0 0 7 0;
#X connect 1 0 37 0;
#X connect 2 0 5 1;
#X connect 3 0 42 0;
#X connect 4 0 2 0;
#X connect 4 1 6 0;
#X connect 5 0 8 0;
#X connect 5 1 20 0;
#X connect 6 0 5 0;
#X connect 7 0 51 0;
#X connect 7 0 67 1;
#X connect 7 0 68 1;
#X connect 7 0 70 1;
#X connect 8 0 10 0;
#X connect 8 1 0 0;
#X connect 9 0 11 1;
#X connect 9 0 44 0;
#X connect 9 1 12 1;
#X connect 9 1 43 0;
#X connect 10 0 11 0;
#X connect 10 0 47 0;
#X connect 10 1 12 0;
#X connect 10 1 48 0;
#X connect 11 0 13 0;
#X connect 12 0 14 0;
#X connect 13 0 67 0;
#X connect 13 1 50 0;
#X connect 14 0 68 0;
#X connect 14 1 49 0;
#X connect 15 0 46 0;
#X connect 15 0 69 4;
#X connect 15 0 75 2;
#X connect 16 0 45 0;
#X connect 16 0 69 5;
#X connect 16 0 76 2;
#X connect 19 0 69 0;
#X connect 19 1 69 1;
#X connect 20 0 21 0;
#X connect 20 1 9 0;
#X connect 20 2 0 1;
#X connect 21 0 69 2;
#X connect 21 1 69 3;
#X connect 22 0 25 0;
#X connect 23 0 28 0;
#X connect 24 0 54 0;
#X connect 25 0 64 0;
#X connect 25 1 26 0;
#X connect 25 2 55 0;
#X connect 25 2 75 1;
#X connect 25 2 76 1;
#X connect 26 0 70 0;
#X connect 26 1 23 0;
#X connect 26 2 24 0;
#X connect 27 0 29 0;
#X connect 28 1 53 0;
#X connect 29 0 31 0;
#X connect 29 1 30 0;
#X connect 29 2 33 0;
#X connect 30 0 59 0;
#X connect 30 1 58 0;
#X connect 31 0 61 0;
#X connect 31 1 60 0;
#X connect 32 1 52 0;
#X connect 33 0 66 0;
#X connect 33 1 65 0;
#X connect 34 0 73 0;
#X connect 34 1 74 0;
#X connect 35 0 36 0;
#X connect 36 0 40 0;
#X connect 37 0 38 0;
#X connect 37 1 34 0;
#X connect 37 2 19 0;
#X connect 37 3 2 1;
#X connect 38 0 63 0;
#X connect 38 1 62 0;
#X connect 39 0 41 0;
#X connect 42 0 4 0;
#X connect 58 0 56 0;
#X connect 58 0 72 0;
#X connect 59 0 57 0;
#X connect 60 0 56 0;
#X connect 60 0 71 0;
#X connect 60 0 72 0;
#X connect 61 0 57 0;
#X connect 61 0 71 0;
#X connect 62 0 39 1;
#X connect 63 0 39 0;
#X connect 64 0 27 0;
#X connect 65 0 76 0;
#X connect 66 0 75 0;
#X connect 67 0 15 0;
#X connect 68 0 16 0;
#X connect 69 0 22 0;
#X connect 70 0 32 0;
#X connect 71 0 73 1;
#X connect 72 0 74 1;
#X connect 73 0 35 0;
#X connect 74 0 35 1;
#X connect 75 0 57 0;
#X connect 75 0 71 0;
#X connect 76 0 56 0;
#X connect 76 0 72 0;
#X restore -444 51 pd class Line;
#N canvas 567 48 843 749 line 0;
#X obj 84 382 GEMglEnd;
#X obj 84 261 GEMglVertex3f -1 0 0;
#X obj 84 351 GEMglVertex3f 0 -1 0;
#X obj 220 134 GLdefine GL_SMOOTH;
#X obj 220 97 loadbang;
#X obj 84 194 GEMglBegin;
#X obj 84 405 GEMglShadeModel;
#X obj 234 206 GLdefine GL_FLAT;
#X obj 220 176 GLdefine GL_LINEs;
#X obj 84 152 GEMglShadeModel;
#X obj 84 240 GEMglColor4f 1 0 0 1;
#X obj 220 72 bng 15 250 50 0 empty empty empty 17 7 0 10 -262144 -1
-1;
#X obj 324 241 inlet;
#X obj 324 266 unpack f f f;
#X obj 415 241 inlet;
#X obj 415 266 unpack f f f;
#X obj 84 314 GEMglColor4f 0 1 0 0;
#X obj 355 394 translateXYZ;
#X obj 445 395 translateXYZ;
#X obj 332 418 colorRGB 1 0 0;
#X obj 438 420 colorRGB 0 1 0;
#X obj 84 65 inlet;
#X obj 539 304 distance_n;
#X floatatom 539 328 5 0 0 0 - - -;
#X obj 598 377 distance_n;
#X floatatom 598 403 5 0 0 0 - - -;
#X obj 598 347 inlet;
#X floatatom 563 475 5 0 0 0 - - -;
#X obj 563 451 expr ($f2-$f1)/$f2;
#X obj 591 530 expr 1-$f1;
#X obj 563 556 pack f f 0;
#X obj 340 586 outlet pitch;
#X obj 84 93 gemhead 1;
#X obj 209 478 expr ($f1+$f2)/2;
#X obj 256 509 expr ($f1+$f2)/2;
#X obj 209 544 pack f f;
#X obj 58 498 k_angle;
#X floatatom 97 580 5 0 0 0 - - -;
#X floatatom 49 583 5 0 0 0 - - -;
#X obj 49 605 < 0;
#X obj 95 644 *;
#X obj 48 633 sel 0 1;
#X msg 45 657 1;
#X msg 64 687 -1;
#X obj 328 449 circle 0.1;
#X obj 428 447 circle 0.1;
#X obj 84 122 GEMglLineWidth 4;
#X obj 355 336 gemhead 100;
#X obj 434 337 gemhead 100;
#X obj 563 582 s \$0-TgaColor;
#X obj 653 582 s \$0-p2pLength;
#X obj 563 502 t f f f;
#X obj 99 712 s \$0-LineAngle;
#X obj 209 572 s \$0-LineCenter;
#X connect 0 0 6 0;
#X connect 1 0 16 0;
#X connect 2 0 0 0;
#X connect 3 0 9 1;
#X connect 4 0 3 0;
#X connect 4 0 8 0;
#X connect 4 0 7 0;
#X connect 5 0 10 0;
#X connect 7 0 6 1;
#X connect 8 0 5 1;
#X connect 9 0 5 0;
#X connect 10 0 1 0;
#X connect 11 0 4 0;
#X connect 12 0 13 0;
#X connect 12 0 22 0;
#X connect 12 0 24 1;
#X connect 12 0 36 0;
#X connect 13 0 1 1;
#X connect 13 0 17 1;
#X connect 13 0 33 0;
#X connect 13 1 1 2;
#X connect 13 1 17 2;
#X connect 13 1 34 0;
#X connect 13 2 1 3;
#X connect 13 2 17 3;
#X connect 14 0 15 0;
#X connect 14 0 22 1;
#X connect 14 0 36 1;
#X connect 15 0 2 1;
#X connect 15 0 18 1;
#X connect 15 0 33 1;
#X connect 15 1 2 2;
#X connect 15 1 18 2;
#X connect 15 1 34 1;
#X connect 15 2 2 3;
#X connect 15 2 18 3;
#X connect 16 0 2 0;
#X connect 17 0 19 0;
#X connect 18 0 20 0;
#X connect 19 0 44 0;
#X connect 20 0 45 0;
#X connect 21 0 32 0;
#X connect 21 0 47 0;
#X connect 21 0 48 0;
#X connect 22 0 23 0;
#X connect 23 0 28 1;
#X connect 23 0 31 0;
#X connect 24 0 25 0;
#X connect 25 0 28 0;
#X connect 26 0 24 0;
#X connect 27 0 51 0;
#X connect 28 0 27 0;
#X connect 29 0 30 1;
#X connect 30 0 49 0;
#X connect 32 0 46 0;
#X connect 33 0 35 0;
#X connect 34 0 35 1;
#X connect 35 0 53 0;
#X connect 36 0 38 0;
#X connect 36 1 37 0;
#X connect 37 0 40 0;
#X connect 38 0 39 0;
#X connect 39 0 41 0;
#X connect 40 0 52 0;
#X connect 41 0 42 0;
#X connect 41 1 43 0;
#X connect 42 0 40 1;
#X connect 43 0 40 1;
#X connect 46 0 9 0;
#X connect 47 0 17 0;
#X connect 48 0 18 0;
#X connect 51 0 30 0;
#X connect 51 1 29 0;
#X connect 51 2 50 0;
#X restore -350 344 pd line;
#N canvas 0 22 450 278 (subpatch) 0;
#X array \$0-amp 200 float 3;
#A 0 0.173406 0.166836 0.162321 0.155227 0.15001 0.143174 0.140559
0.137861 0.137573 0.137663 0.139651 0.143267 0.145501 0.146885 0.144142
0.138516 0.130377 0.126121 0.122173 0.122084 0.120182 0.116849 0.115658
0.112727 0.111401 0.105412 0.098862 0.0903247 0.0866607 0.0834567 0.0822564
0.0784076 0.0748593 0.0705566 0.0625568 0.0552531 0.0506136 0.0473875
0.0446817 0.0407286 0.0351607 0.0286475 0.0265086 0.0226509 0.0172552
0.00878232 0.000751268 -0.00191438 -0.000477533 -0.00356361 -0.0107304
-0.0127001 -0.0113602 -0.0120732 -0.00981402 -0.00286468 0.0056249
0.0095494 0.0171356 0.0225833 0.0232271 0.025094 0.0315627 0.0381125
0.0487848 0.0580235 0.0635834 0.0676856 0.0738518 0.0831942 0.0878413
0.0965395 0.0999708 0.0984076 0.0950121 0.0882811 0.0856983 0.0846989
0.0877166 0.0886841 0.0898477 0.0916286 0.0934941 0.0927998 0.0956413
0.0953696 0.092599 0.0882112 0.0860138 0.0823048 0.0763574 0.074473
0.0754999 0.0734983 0.0683989 0.0587048 0.0504276 0.0456142 0.0388472
0.0311423 0.0260469 0.0205983 0.0132164 0.00584624 -0.00301216 -0.0112849
-0.0237325 -0.0305098 -0.033012 -0.0345623 -0.0325032 -0.0294844 -0.0287921
-0.0260892 -0.0208072 -0.013175 -0.00124888 0.0143629 0.0268055 0.0430635
0.0585504 0.070362 0.0766492 0.0792829 0.0810283 0.0808776 0.0775619
0.0738004 0.0745526 0.0722211 0.0709973 0.0736293 0.0768496 0.0803343
0.0852508 0.0937725 0.100684 0.108693 0.12073 0.132185 0.147311 0.160316
0.173692 0.18264 0.187384 0.191923 0.196104 0.199303 0.203037 0.204285
0.200365 0.196881 0.188758 0.177967 0.169925 0.161695 0.150736 0.135921
0.125952 0.118873 0.113649 0.106719 0.100047 0.0938083 0.0864091 0.0803151
0.0699487 0.060292 0.053678 0.047796 0.0405161 0.0346658 0.033492 0.0351173
0.0394154 0.0427187 0.0442631 0.0440648 0.0450031 0.0446143 0.041808
0.0352829 0.030534 0.0279602 0.021269 0.0168296 0.0170284 0.0217794
0.0241048 0.0257279 0.0251834 0.0275581 0.0280731 0.031596 0.0321485
0.0346435 0.0415574 0.0512422 0.0646538 0.0754536;
#X coords 0 1 200 -1 200 50 1 0 0;
#X restore -444 -19 graph;
#X obj -153 -19 gemhead;
#X obj -153 139 GEMglEnd;
#X obj -102 108 GEMglBegin;
#X obj -153 108 t a a a;
#X obj -134 360 GEMglVertex3f 0 0 0;
#X obj -134 196 t a b;
#X obj -107 219 f;
#X obj -76 219 + 1;
#X obj -45 53 loadbang;
#X floatatom -3 173 5 0 0 0 - - -;
#X obj -3 193 / 2;
#X obj -107 299 k_range 0 1 0 1;
#X obj -4 217 t f f;
#X obj -4 246 * -1;
#X obj -153 49 translateXYZ;
#X obj -66 -25 unpack f f;
#X obj -153 76 rotateXYZ 0 0 0;
#X obj -46 219 % 200;
#X obj -134 163 repeat 200;
#X obj -107 273 / 200;
#X obj -107 246 t f f f;
#X obj 69 229 expr if($f1<10 \, $f1*0.1 \, 1);
#X obj 69 204 k_event 0 10;
#X obj 138 250 k_event 10 190;
#X msg 138 275 1;
#X floatatom 69 331 5 0 0 0 - - -;
#X obj 219 275 expr if($f1>190 \, (200-$f1)*0.1 \, 1);
#X obj 8 331 * 0;
#X obj 8 309 * 3;
#X msg -45 78 3;
#X obj -153 2 GEMglLineWidth 1;
#X obj 8 286 tabread \$0-amp;
#N canvas 398 430 674 339 text 1;
#X obj -502 93 gemhead;
#X obj -502 242 text2d;
#X obj -502 179 translateXYZ;
#X obj -436 224 loadbang;
#X obj -687 181 pack f f;
#X obj -687 110 expr if($f1>1 \, 1 \, $f1);
#X obj -687 84 / 4;
#X obj -687 135 expr int($f1*100)/100.0;
#X obj -642 155 expr int($f1*100)/100.0;
#X msg -687 208 justify left \, text db=\$1 | time=\$2 ms;
#X obj -687 58 r \$0-dis;
#X obj -642 86 r \$0-p2pLength;
#X obj -736 181 s \$0-db;
#X obj -257 242 translateXYZ;
#X obj -170 185 unpack f f;
#X obj -257 301 text2d;
#X obj -257 272 color 1 1 1;
#X obj -173 267 loadbang;
#X msg -173 289 13;
#X floatatom -278 61 5 0 0 0 - - -;
#X obj -278 103 mtof;
#X obj -170 206 + 0.1;
#X obj -113 205 - 0.1;
#X obj -257 191 gemhead 20;
#X obj -333 161 s \$0-fre;
#X obj -278 15 r \$0-LineLength;
#X obj -502 65 r \$0-gem-tgl;
#X obj -257 163 r \$0-gem-tgl;
#X obj -170 161 r \$0-GreenPos;
#X obj -455 109 unpack f f;
#X obj -455 130 + 0.1;
#X obj -455 85 r \$0-GreenPos;
#X msg -436 246 10;
#X obj -398 129 - 0.4;
#X obj -278 83 expr if($f1>80 \, 80 \, int($f1));
#X obj -278 38 expr ($f1*3)+50;
#X msg -278 129 justify left \, text freq=\$1;
#X connect 0 0 2 0;
#X connect 2 0 1 0;
#X connect 3 0 32 0;
#X connect 4 0 9 0;
#X connect 5 0 7 0;
#X connect 6 0 5 0;
#X connect 7 0 4 0;
#X connect 7 0 12 0;
#X connect 8 0 4 1;
#X connect 9 0 1 0;
#X connect 10 0 6 0;
#X connect 11 0 8 0;
#X connect 13 0 16 0;
#X connect 14 0 21 0;
#X connect 14 1 22 0;
#X connect 16 0 15 0;
#X connect 17 0 18 0;
#X connect 18 0 15 1;
#X connect 19 0 34 0;
#X connect 20 0 36 0;
#X connect 20 0 24 0;
#X connect 21 0 13 1;
#X connect 22 0 13 2;
#X connect 23 0 13 0;
#X connect 25 0 35 0;
#X connect 26 0 0 0;
#X connect 27 0 23 0;
#X connect 28 0 14 0;
#X connect 29 0 30 0;
#X connect 29 1 33 0;
#X connect 30 0 2 1;
#X connect 31 0 29 0;
#X connect 32 0 1 1;
#X connect 33 0 2 2;
#X connect 34 0 20 0;
#X connect 35 0 19 0;
#X connect 36 0 15 0;
#X restore -445 98 pd text;
#N canvas 709 211 254 353 sound 0;
#X floatatom -301 13 5 0 0 0 - - -;
#X obj -348 172 *~ 0;
#X obj -348 127 *~;
#X floatatom -297 170 5 0 0 0 - - -;
#X obj -333 66 phasor~ 1;
#X obj -333 94 expr~ if($v1<$f2 \, 1 \, 0);
#X obj -348 149 *~ 0;
#X obj -385 233 tabwrite~ \$0-amp;
#X obj -348 208 throw~ all;
#X obj -271 66 r \$0-p2pLength;
#X obj -301 -22 r \$0-fre;
#X obj -297 145 r \$0-db;
#X obj -238 164 gemhead;
#X obj -238 186 t b;
#X obj -293 119 r \$0-gem-tgl;
#X obj -348 13 noise~;
#X obj -348 37 bp~ 5 1;
#X connect 0 0 16 1;
#X connect 1 0 7 0;
#X connect 1 0 8 0;
#X connect 2 0 6 0;
#X connect 3 0 1 1;
#X connect 4 0 5 0;
#X connect 5 0 2 1;
#X connect 6 0 1 0;
#X connect 9 0 5 1;
#X connect 10 0 0 0;
#X connect 11 0 3 0;
#X connect 12 0 13 0;
#X connect 13 0 7 0;
#X connect 14 0 6 1;
#X connect 14 0 12 0;
#X connect 15 0 16 0;
#X connect 16 0 2 0;
#X restore -445 122 pd sound;
#X obj -264 314 r \$0-LineTgaPos;
#N canvas 631 249 450 300 line 0;
#X obj -654 51 gemhead;
#X obj -654 207 curve 2;
#X obj -635 134 r mouse;
#X obj -708 151 loadbang;
#X msg -708 175 draw point;
#X obj -654 76 color 1 0 0;
#X obj -635 156 list append 0;
#X obj -591 49 r \$0-TgaColor;
#X obj -615 179 r \$0-LineTgaPos;
#X obj -654 26 r \$0-gem-tgl;
#X obj -654 107 GEMglPointSize 2;
#X connect 0 0 5 0;
#X connect 2 0 6 0;
#X connect 3 0 4 0;
#X connect 4 0 1 0;
#X connect 5 0 10 0;
#X connect 6 0 1 1;
#X connect 7 0 5 1;
#X connect 8 0 1 2;
#X connect 9 0 0 0;
#X connect 10 0 1 0;
#X restore -445 146 pd line;
#X obj -313 233 t a a;
#X obj -358 268 t a a;
#X obj -3 154 r \$0-LineLength;
#X obj -350 379 s \$0-LineLength;
#X obj -66 24 r \$0-LineAngle;
#X obj -153 -48 r \$0-gem-tgl;
#X obj -358 155 t b f;
#X obj -350 314 r \$0-gem-tgl;
#X obj 115 125 s \$0-gem-tgl;
#X obj 115 103 tgl 15 0 empty empty empty 17 7 0 10 -262144 -1 -1 1
1;
#X obj 115 58 loadbang;
#X msg 115 80 0;
#X obj 93 -16 r hid;
#X obj 93 8 route key_44;
#X obj 93 33 sel 1;
#X msg 182 53 1;
#X obj -358 69 route \$1;
#X obj 182 -15 r mouseleft;
#X obj 182 7 route \$1;
#X obj -66 -47 r \$0-LineCenter;
#N canvas 28 339 743 329 point 0;
#X obj -316 121 gemhead;
#X obj -316 176 translateXYZ;
#X obj -316 221 color 1 0 0;
#X obj -293 64 unpack f f;
#X obj -316 250 circle 0.1;
#X obj -150 157 gemhead;
#X obj -150 190 translateXYZ;
#X obj -83 124 unpack f f;
#X obj -150 220 color 1 1 1;
#X obj -70 190 loadbang;
#X msg -70 213 draw line;
#X obj -150 249 circle 0.2;
#X obj 24 122 gemhead;
#X obj 24 155 translateXYZ;
#X obj 24 195 color 1 0 0;
#X obj 24 259 circle 0.05;
#X obj 47 58 unpack f f;
#X obj 47 34 r mouse;
#X obj 87 238 expr if($f1<1 \, 0.1 \, $f1/20);
#X obj 87 214 r \$0-dis;
#X obj -253 198 r \$0-TgaColor;
#X obj 87 176 r \$0-TgaColor;
#X obj -293 40 r \$0-LineTgaPos;
#X obj -83 101 r \$0-LineTgaPos;
#X obj -316 93 r \$0-gem-tgl;
#X obj -150 110 r \$0-gem-tgl;
#X obj 24 90 r \$0-gem-tgl;
#X connect 0 0 1 0;
#X connect 1 0 2 0;
#X connect 2 0 4 0;
#X connect 3 0 1 1;
#X connect 3 1 1 2;
#X connect 5 0 6 0;
#X connect 6 0 8 0;
#X connect 7 0 6 1;
#X connect 7 1 6 2;
#X connect 8 0 11 0;
#X connect 9 0 10 0;
#X connect 10 0 11 0;
#X connect 12 0 13 0;
#X connect 13 0 14 0;
#X connect 14 0 15 0;
#X connect 16 0 13 1;
#X connect 16 1 13 2;
#X connect 17 0 16 0;
#X connect 18 0 15 1;
#X connect 19 0 18 0;
#X connect 20 0 2 1;
#X connect 21 0 14 1;
#X connect 22 0 3 0;
#X connect 23 0 7 0;
#X connect 24 0 0 0;
#X connect 25 0 5 0;
#X connect 26 0 12 0;
#X restore -445 75 pd point;
#X obj -286 256 s \$0-GreenPos;
#X obj -331 291 s \$0-RedPos;
#X obj 182 31 sel 0 1;
#X msg 214 52 0;
#X connect 0 0 5 0;
#X connect 1 0 3 1;
#X connect 2 0 61 0;
#X connect 3 0 46 0;
#X connect 3 1 45 0;
#X connect 4 0 3 0;
#X connect 5 0 1 1;
#X connect 7 0 48 0;
#X connect 9 0 39 0;
#X connect 12 0 10 0;
#X connect 12 1 27 0;
#X connect 12 2 11 0;
#X connect 14 0 13 0;
#X connect 14 1 15 0;
#X connect 15 0 16 0;
#X connect 15 0 29 0;
#X connect 16 0 26 0;
#X connect 17 0 38 0;
#X connect 18 0 19 0;
#X connect 19 0 21 0;
#X connect 20 0 13 1;
#X connect 21 0 22 0;
#X connect 21 1 20 4;
#X connect 22 0 20 3;
#X connect 23 0 25 0;
#X connect 24 0 23 1;
#X connect 24 1 23 2;
#X connect 25 0 12 0;
#X connect 26 0 15 1;
#X connect 27 0 14 0;
#X connect 28 0 20 0;
#X connect 29 0 28 0;
#X connect 29 1 40 0;
#X connect 29 2 31 0;
#X connect 30 0 34 0;
#X connect 31 0 30 0;
#X connect 31 1 32 0;
#X connect 32 0 33 0;
#X connect 32 1 35 0;
#X connect 33 0 34 0;
#X connect 34 0 36 1;
#X connect 35 0 34 0;
#X connect 36 0 13 2;
#X connect 37 0 36 0;
#X connect 38 0 11 1;
#X connect 39 0 23 0;
#X connect 40 0 37 0;
#X connect 43 0 7 3;
#X connect 45 0 7 2;
#X connect 45 1 66 0;
#X connect 46 0 7 1;
#X connect 46 1 67 0;
#X connect 47 0 18 0;
#X connect 49 0 25 3;
#X connect 50 0 9 0;
#X connect 51 0 1 0;
#X connect 51 1 4 0;
#X connect 52 0 7 0;
#X connect 54 0 53 0;
#X connect 55 0 56 0;
#X connect 56 0 54 0;
#X connect 57 0 58 0;
#X connect 58 0 59 0;
#X connect 59 0 56 0;
#X connect 60 0 54 0;
#X connect 61 0 51 0;
#X connect 62 0 63 0;
#X connect 63 0 68 0;
#X connect 64 0 24 0;
#X connect 68 0 60 0;
#X connect 68 1 69 0;
#X connect 69 0 54 0;
