#N canvas 879 199 229 358 10;
#X obj 42 35 tgl 30 0 empty empty empty 17 7 0 10 -258113 -1 -1 1 1
;
#X obj 42 12 loadbang;
#N canvas 728 215 445 440 gemwin 0;
#X msg 13 153 destroy;
#X obj 13 120 sel 0 1;
#X obj 13 94 inlet;
#X obj 34 215 gemwin 30;
#X obj 127 248 s radio;
#X msg 127 220 500 500;
#X msg 35 179 reset \, FSAA 8 \, color 0.2 0.2 0.2 \, border 0 \, offset
100 100 \, dimen 500 500 \, create \, 1;
#X connect 0 0 3 0;
#X connect 1 0 0 0;
#X connect 1 1 6 0;
#X connect 1 1 5 0;
#X connect 2 0 1 0;
#X connect 5 0 4 0;
#X connect 6 0 3 0;
#X restore 42 72 pd gemwin;
#X obj -38 160 catch~ circleL;
#X obj -9 190 catch~ circleR;
#X obj -38 329 dac~;
#X obj -38 220 *~;
#X obj -9 222 *~;
#X obj -23 135 line~;
#N canvas 921 286 591 450 texture 0;
#X obj -547 366 pix_texture;
#X obj -547 120 alpha;
#X obj -547 314 glsl_program;
#X obj -456 233 pack 0 0;
#X obj -435 199 t b f;
#X obj -435 151 change;
#X obj -456 122 change;
#X msg -456 259 link \$1 \$2;
#X floatatom -435 177 2 0 0 0 ID - -;
#X floatatom -456 145 2 0 0 0 ID - -;
#X obj -547 187 glsl_vertex;
#X obj -547 278 glsl_fragment;
#X obj -547 69 gemframebuffer;
#X obj -547 94 translateXYZ 0 0 -4;
#X obj -614 80 loadbang;
#X obj -614 129 t b b;
#X obj -614 106 bng 15 250 50 0 empty empty empty 17 7 0 10 -262144
-1 -1;
#X obj -475 7 loadbang;
#X obj -547 393 rectangle 8 4;
#X obj -547 35 gemhead 30;
#X msg -475 34 format RGBA \, color 0 0 0 0 \, dimen 500 500;
#X obj -382 111 s totex;
#X obj -308 129 c-circle 0;
#X obj -307 157 c-circle 1;
#X obj -307 183 c-circle 2;
#X obj -306 211 c-circle 3;
#X obj -306 241 c-circle 4;
#X obj -306 268 c-circle 5;
#X obj -305 296 c-circle 6;
#X obj -305 322 c-circle 7;
#X obj -304 350 c-circle 8;
#X obj -304 380 c-circle 9;
#X obj -231 124 c-circle 10;
#X obj -230 152 c-circle 11;
#X obj -230 178 c-circle 12;
#X obj -229 206 c-circle 13;
#X obj -229 236 c-circle 14;
#X obj -229 263 c-circle 15;
#X obj -228 291 c-circle 16;
#X obj -227 345 c-circle 18;
#X obj -227 375 c-circle 19;
#X obj -228 317 c-circle 17;
#X msg -587 153 open circle.vert;
#X msg -614 208 open circle.frag;
#X connect 0 0 18 0;
#X connect 1 0 10 0;
#X connect 2 0 0 0;
#X connect 3 0 7 0;
#X connect 4 0 3 0;
#X connect 4 1 3 1;
#X connect 5 0 8 0;
#X connect 6 0 9 0;
#X connect 7 0 2 0;
#X connect 8 0 4 0;
#X connect 9 0 3 0;
#X connect 10 0 11 0;
#X connect 10 1 6 0;
#X connect 11 0 2 0;
#X connect 11 1 5 0;
#X connect 12 0 13 0;
#X connect 12 1 21 0;
#X connect 13 0 1 0;
#X connect 14 0 16 0;
#X connect 15 0 43 0;
#X connect 15 1 42 0;
#X connect 16 0 15 0;
#X connect 17 0 20 0;
#X connect 19 0 12 0;
#X connect 20 0 12 0;
#X connect 42 0 10 0;
#X connect 43 0 11 0;
#X restore 39 134 pd texture;
#X msg -23 111 \$1 3000;
#N canvas 357 259 506 331 gui 0;
#X obj 157 61 gemmouse 1 1;
#X floatatom 47 138 5 0 0 0 - - -;
#X obj 100 175 expr $f1*-8+4;
#X floatatom 100 204 5 0 0 0 - - -;
#X obj 100 235 v posY;
#X obj 47 175 v posX;
#N canvas 771 42 553 679 add-circle 0;
#X obj 149 119 tgl 15 0 empty empty empty 17 7 0 10 -262144 -1 -1 0
1;
#X obj 149 142 sel 1 0;
#X obj 328 449 f;
#X obj 359 447 + 1;
#X floatatom 328 479 5 0 0 0 - - -;
#X text 384 476 id;
#X obj 328 631 s addCircle;
#X obj 329 328 distance2d;
#X floatatom 329 364 5 0 0 0 - - -;
#X obj 149 207 v posX;
#X obj 197 239 v posY;
#X obj 149 177 t b b;
#X obj 149 278 pack f f;
#X obj 328 212 v posX;
#X obj 376 244 v posY;
#X obj 329 283 pack f f;
#X obj 328 175 t b b;
#X obj 329 401 t b f;
#X obj 328 600 pack f f f f;
#X text 391 361 radius;
#X text 425 278 end(x \, y);
#X obj 149 310 s stratPos;
#X obj 366 531 r stratPos;
#X obj 366 562 unpack f f;
#X obj 444 324 r stratPos;
#X obj 147 89 inlet;
#X obj 397 397 r tgl-circle;
#X obj 389 447 % 20;
#X connect 0 0 1 0;
#X connect 1 0 11 0;
#X connect 1 1 16 0;
#X connect 2 0 3 0;
#X connect 2 0 4 0;
#X connect 3 0 27 0;
#X connect 4 0 18 0;
#X connect 7 0 8 0;
#X connect 8 0 17 0;
#X connect 9 0 12 0;
#X connect 10 0 12 1;
#X connect 11 0 9 0;
#X connect 11 1 10 0;
#X connect 12 0 21 0;
#X connect 13 0 15 0;
#X connect 14 0 15 1;
#X connect 15 0 7 0;
#X connect 16 0 13 0;
#X connect 16 1 14 0;
#X connect 17 0 2 0;
#X connect 17 1 18 3;
#X connect 18 0 6 0;
#X connect 22 0 23 0;
#X connect 23 0 18 1;
#X connect 23 1 18 2;
#X connect 24 0 7 1;
#X connect 25 0 0 0;
#X connect 26 0 2 1;
#X connect 27 0 2 1;
#X restore 191 156 pd add-circle;
#X obj 191 88 t f f;
#X obj 358 66 gemkeyboard;
#X floatatom 358 95 5 0 0 0 - - -;
#X obj 358 183 s tgl-circle;
#X obj 358 123 sel 49;
#X msg 358 153 0;
#N canvas 166 82 507 675 point-circle 0;
#X obj 128 245 gemhead;
#X obj 128 387 translateXYZ;
#X obj 128 425 circle 0.1;
#X obj 37 427 loadbang;
#X obj 304 431 distance2d;
#X obj 304 365 v posX;
#X obj 381 363 v posY;
#X obj 304 397 pack f f;
#X floatatom 304 465 5 0 0 0 - - -;
#X obj 128 278 t a b;
#X obj 304 325 t b b;
#X obj 304 277 spigot;
#X obj 401 399 r stratPos;
#X obj 218 199 r stratPos;
#X obj 217 230 unpack f f;
#X obj 370 251 tgl 15 0 empty empty empty 17 7 0 10 -262144 -1 -1 0
1;
#X obj 370 214 inlet;
#X obj 128 317 colorRGB 1 1 1 1;
#X msg 36 457 draw point;
#X obj 128 350 GEMglPointSize 2;
#X connect 0 0 9 0;
#X connect 1 0 2 0;
#X connect 3 0 18 0;
#X connect 4 0 8 0;
#X connect 5 0 7 0;
#X connect 6 0 7 1;
#X connect 7 0 4 0;
#X connect 8 0 2 1;
#X connect 9 0 17 0;
#X connect 9 1 11 0;
#X connect 10 0 5 0;
#X connect 10 1 6 0;
#X connect 11 0 10 0;
#X connect 12 0 4 1;
#X connect 13 0 14 0;
#X connect 14 0 1 1;
#X connect 14 1 1 2;
#X connect 15 0 11 1;
#X connect 15 0 0 0;
#X connect 16 0 15 0;
#X connect 17 0 19 0;
#X connect 18 0 2 0;
#X connect 19 0 1 0;
#X restore 238 119 pd point-circle;
#X obj 46 104 expr $f1*8-4;
#X connect 0 0 14 0;
#X connect 0 1 2 0;
#X connect 0 2 7 0;
#X connect 1 0 5 0;
#X connect 2 0 3 0;
#X connect 3 0 4 0;
#X connect 7 0 6 0;
#X connect 7 1 13 0;
#X connect 8 0 9 0;
#X connect 9 0 11 0;
#X connect 11 0 12 0;
#X connect 12 0 10 0;
#X connect 14 0 1 0;
#X restore 42 93 pd gui;
#X obj -38 249 st-pureverb /key;
#X connect 0 0 2 0;
#X connect 0 0 10 0;
#X connect 1 0 0 0;
#X connect 3 0 6 0;
#X connect 4 0 7 0;
#X connect 6 0 12 0;
#X connect 7 0 12 1;
#X connect 8 0 6 1;
#X connect 8 0 7 1;
#X connect 10 0 8 0;
#X connect 12 0 5 0;
#X connect 12 1 5 1;
