#N canvas 346 23 996 753 10;
#X obj 335 5 r addCircle;
#X obj 335 36 route \$1;
#X floatatom 288 178 5 0 0 0 - - -;
#X floatatom 103 473 5 0 0 0 - - -;
#X obj 37 138 gemhead;
#X obj 35 719 circle 0.1;
#X obj 35 589 colorRGB 1 1 1 0.3;
#X obj 35 659 alpha;
#X obj 335 141 unpack f f f;
#X obj 37 57 r tgl-circle;
#X obj 37 100 tgl 15 0 empty empty empty 17 7 0 10 -262144 -1 -1 1
1;
#X msg 354 97 1;
#X obj 37 214 t a b;
#X obj 408 215 f;
#X obj 408 250 / 100;
#X obj 468 215 fmod 100;
#X obj 438 215 + 1;
#X obj 35 690 pix_texture;
#X obj 62 611 loadbang;
#X obj 62 635 tgl 15 0 empty empty empty 17 7 0 10 -262144 -1 -1 1
1;
#X obj 325 251 * 1.25;
#X floatatom 453 187 5 0 0 0 - - -;
#X obj 453 160 expr abs(10-($f1/4)*10)+1;
#X obj 67 16 loadbang;
#X msg 67 36 0;
#X obj 58 313 f;
#X obj 87 313 + 0.01;
#X obj 136 313 fmod 360;
#X obj 199 312 f;
#X floatatom 228 390 5 0 0 0 - - -;
#X obj 391 106 s \$0-reset;
#X obj 152 241 r \$0-reset;
#X msg 152 264 0;
#X floatatom 58 337 5 0 0 0 - - -;
#X obj 228 343 moses 5;
#X obj 37 169 depth;
#X obj 58 361 expr ($f1/360)*2*3.1415926;
#X obj 54 403 expr cos($f1)*$f2;
#X obj 87 435 expr sin($f1)*$f2;
#X obj 322 356 r \$0-reset;
#X obj 322 390 randomF 4;
#X obj 322 416 + 1;
#X obj 33 508 translateXYZ 0 0 0;
#X obj 49 479 +;
#X floatatom 49 460 5 0 0 0 - - -;
#X obj 49 435 t b f;
#X obj 210 426 f;
#X floatatom 239 504 5 0 0 0 - - -;
#X obj 239 426 + 0.01;
#X obj 239 457 moses 5;
#X msg 284 483 2.3454;
#X msg 322 443 set \$1;
#X obj 661 301 random 5;
#X obj 661 326 sel 0 1 2 3 4;
#X msg 661 350 0;
#X msg 676 376 4;
#X msg 691 400 7;
#X msg 706 427 11;
#X msg 721 456 12;
#X obj 666 492 +;
#X floatatom 799 331 5 0 0 0 - - -;
#X floatatom 798 383 5 0 0 0 - - -;
#X obj 798 405 * 12;
#X obj 666 516 mtof;
#X obj 798 456 t b f;
#X obj 666 545 osc~;
#X obj 865 413 / 4;
#X obj 865 436 moses 1;
#X obj 865 488 + 0.1;
#X msg 905 460 0.9;
#X obj 666 574 *~ 0;
#X obj 791 612 expr 1-$f1;
#X floatatom 764 532 5 0 0 0 - - -;
#X obj 764 561 t f f;
#X obj 791 670 line~;
#X obj 704 659 *~;
#X obj 666 657 *~;
#X obj 746 647 line~;
#X obj 666 690 throw~ circleL;
#X obj 704 717 throw~ circleR;
#X obj 798 431 + 36;
#X obj 765 290 unpack f f f f;
#X obj 706 546 line~;
#X msg 706 514 \$1 50;
#X obj 666 601 *~;
#X obj 798 357 expr int(($f1+4)/8*5);
#X msg 827 551 0;
#X msg 402 387 1 0 0.466;
#X msg 416 410 1 0.7 0.07;
#X msg 431 429 0.66 0.91 0.13;
#X msg 445 450 0.01 0.85 0.89;
#X obj 402 359 sel 0 1 2 3 4 5;
#X obj 402 333 random 6;
#X msg 460 474 0.38 0.26 1;
#X msg 474 383 0.46 1 0.49;
#X obj 66 560 unpack f f f;
#X obj 765 207 / 180;
#X obj 765 233 v \$0-x;
#X obj 765 153 - 180;
#X obj 765 176 abs;
#X obj 765 257 pack f f f f;
#X obj 58 382 t f f f;
#X obj 818 181 f;
#X obj 848 181 + 1;
#X obj 878 181 % 10;
#X obj 818 206 sel 0;
#X obj 38 268 t a b b b b;
#X obj 827 528 r tgl-circle;
#X obj 666 630 *~ 0.3;
#X msg 746 615 \$1 200;
#X msg 791 638 \$1 200;
#X floatatom 721 241 5 0 0 0 - - -;
#X msg 273 369 5;
#X obj 228 312 + 0.005;
#X obj 127 681 r totex;
#X obj 518 590 osc~ 1000;
#X obj 574 647 line~;
#X obj 518 655 *~;
#X msg 574 622 0.1 \, 0 300;
#X obj 335 72 t a b b;
#X obj 518 559 t f b;
#X obj 518 528 k_range 0 4 100 300;
#X connect 0 0 1 0;
#X connect 1 0 119 0;
#X connect 2 0 45 0;
#X connect 3 0 42 2;
#X connect 4 0 35 0;
#X connect 6 0 7 0;
#X connect 7 0 17 0;
#X connect 8 0 2 0;
#X connect 8 1 3 0;
#X connect 8 1 100 1;
#X connect 8 2 20 0;
#X connect 8 2 22 0;
#X connect 8 2 100 2;
#X connect 9 0 10 0;
#X connect 10 0 4 0;
#X connect 11 0 10 0;
#X connect 12 0 106 0;
#X connect 12 1 13 0;
#X connect 13 0 14 0;
#X connect 13 0 16 0;
#X connect 14 0 6 4;
#X connect 14 0 100 3;
#X connect 15 0 13 1;
#X connect 16 0 15 0;
#X connect 17 0 5 0;
#X connect 18 0 19 0;
#X connect 19 0 7 1;
#X connect 20 0 5 1;
#X connect 20 0 121 0;
#X connect 21 0 16 1;
#X connect 22 0 21 0;
#X connect 23 0 24 0;
#X connect 24 0 10 0;
#X connect 25 0 26 0;
#X connect 25 0 33 0;
#X connect 26 0 27 0;
#X connect 27 0 25 1;
#X connect 28 0 26 1;
#X connect 28 0 113 0;
#X connect 29 0 28 1;
#X connect 31 0 32 0;
#X connect 32 0 26 1;
#X connect 32 0 28 1;
#X connect 32 0 25 1;
#X connect 32 0 46 1;
#X connect 33 0 36 0;
#X connect 33 0 98 0;
#X connect 34 0 29 0;
#X connect 34 1 112 0;
#X connect 35 0 12 0;
#X connect 36 0 101 0;
#X connect 37 0 44 0;
#X connect 38 0 42 3;
#X connect 39 0 40 0;
#X connect 40 0 41 0;
#X connect 41 0 49 1;
#X connect 41 0 51 0;
#X connect 42 0 6 0;
#X connect 43 0 42 1;
#X connect 44 0 43 0;
#X connect 45 0 44 0;
#X connect 45 1 43 1;
#X connect 46 0 48 0;
#X connect 47 0 46 1;
#X connect 47 0 38 1;
#X connect 47 0 37 1;
#X connect 48 0 49 0;
#X connect 49 0 47 0;
#X connect 49 1 50 0;
#X connect 50 0 47 0;
#X connect 51 0 50 0;
#X connect 52 0 53 0;
#X connect 53 0 54 0;
#X connect 53 1 55 0;
#X connect 53 2 56 0;
#X connect 53 3 57 0;
#X connect 53 4 58 0;
#X connect 54 0 59 0;
#X connect 55 0 59 0;
#X connect 56 0 59 0;
#X connect 57 0 59 0;
#X connect 58 0 59 0;
#X connect 59 0 63 0;
#X connect 60 0 85 0;
#X connect 61 0 62 0;
#X connect 62 0 80 0;
#X connect 63 0 65 0;
#X connect 64 0 52 0;
#X connect 64 1 59 1;
#X connect 65 0 70 0;
#X connect 66 0 67 0;
#X connect 67 0 68 0;
#X connect 67 1 69 0;
#X connect 68 0 70 1;
#X connect 69 0 68 0;
#X connect 70 0 84 0;
#X connect 71 0 110 0;
#X connect 72 0 73 0;
#X connect 73 0 109 0;
#X connect 73 1 71 0;
#X connect 74 0 75 1;
#X connect 75 0 79 0;
#X connect 76 0 78 0;
#X connect 77 0 76 1;
#X connect 80 0 64 0;
#X connect 81 0 72 0;
#X connect 81 1 60 0;
#X connect 81 2 66 0;
#X connect 81 3 83 0;
#X connect 82 0 84 1;
#X connect 83 0 82 0;
#X connect 84 0 108 0;
#X connect 85 0 61 0;
#X connect 86 0 109 0;
#X connect 86 0 110 0;
#X connect 87 0 95 0;
#X connect 88 0 95 0;
#X connect 89 0 95 0;
#X connect 90 0 95 0;
#X connect 91 0 87 0;
#X connect 91 1 88 0;
#X connect 91 2 89 0;
#X connect 91 3 90 0;
#X connect 91 4 93 0;
#X connect 91 5 94 0;
#X connect 92 0 91 0;
#X connect 93 0 95 0;
#X connect 94 0 95 0;
#X connect 95 0 6 1;
#X connect 95 1 6 2;
#X connect 95 2 6 3;
#X connect 96 0 97 0;
#X connect 96 0 111 0;
#X connect 97 0 100 0;
#X connect 98 0 99 0;
#X connect 99 0 96 0;
#X connect 100 0 81 0;
#X connect 101 0 37 0;
#X connect 101 1 38 0;
#X connect 102 0 103 0;
#X connect 102 0 105 0;
#X connect 103 0 104 0;
#X connect 104 0 102 1;
#X connect 105 0 97 0;
#X connect 106 0 42 0;
#X connect 106 1 25 0;
#X connect 106 2 28 0;
#X connect 106 3 46 0;
#X connect 106 4 102 0;
#X connect 107 0 86 0;
#X connect 108 0 76 0;
#X connect 108 0 75 0;
#X connect 109 0 77 0;
#X connect 110 0 74 0;
#X connect 112 0 29 0;
#X connect 113 0 34 0;
#X connect 114 0 17 1;
#X connect 115 0 117 0;
#X connect 116 0 117 1;
#X connect 117 0 78 0;
#X connect 117 0 79 0;
#X connect 118 0 116 0;
#X connect 119 0 8 0;
#X connect 119 1 11 0;
#X connect 119 1 92 0;
#X connect 119 2 30 0;
#X connect 120 0 115 0;
#X connect 120 1 118 0;
#X connect 121 0 120 0;
