#N canvas 342 249 1020 690 10;
#X obj 345 31 metro 200;
#X obj 345 9 tgl 15 0 empty empty empty 17 7 0 10 -262144 -1 -1 1 1
;
#X obj 345 60 f;
#X obj 371 60 + 1;
#X obj 400 60 % 12;
#X floatatom 144 248 5 0 0 0 - - -;
#X obj 144 274 t f f;
#X obj 189 299 + 12;
#X obj 40 -19 catch~ all;
#X obj 40 113 dac~;
#X obj 479 408 t f f;
#X obj 514 435 expr 24-$f1;
#X obj 479 460 pack f f;
#X obj 479 433 + 108;
#X obj 363 407 t f f;
#X obj 363 461 pack f f;
#X obj 363 432 + 96;
#X obj 398 434 expr 36-$f1;
#X obj 144 324 pack f f;
#X obj 250 406 t f f;
#X obj 250 458 pack f f;
#X obj 134 401 t f f;
#X obj 134 455 pack f f;
#X obj 18 400 t f f;
#X obj 18 454 pack f f;
#X obj 250 431 + 84;
#X obj 134 426 + 72;
#X obj 18 425 + 60;
#X obj 285 433 expr 48-$f1;
#X obj 169 428 expr 60-$f1;
#X obj 53 428 expr 72-$f1;
#X floatatom 18 246 5 0 0 0 - - -;
#X obj 18 272 t f f;
#X obj 63 297 + 12;
#X obj 18 322 pack f f;
#X obj 18 220 + 0;
#X floatatom 386 254 5 0 0 0 - - -;
#X obj 386 280 t f f;
#X obj 431 305 + 12;
#X obj 386 330 pack f f;
#X floatatom 260 252 5 0 0 0 - - -;
#X obj 260 278 t f f;
#X obj 305 303 + 12;
#X obj 260 328 pack f f;
#X obj 492 225 + 48;
#X floatatom 492 252 5 0 0 0 - - -;
#X obj 492 278 t f f;
#X obj 537 303 + 12;
#X obj 492 328 pack f f;
#X obj 144 221 + 12;
#X obj 260 225 + 24;
#X obj 386 227 + 36;
#X obj 237 139 t f f f f f f f f f f;
#X obj 440 82 print;
#X msg 372 114 ----------\$1----------;
#X obj 40 12 *~ 0.3;
#X obj 405 551 gemwin;
#X msg 405 528 destroy \, reset \, FSAA 8 \, create \, 1;
#X obj 689 154 f;
#X obj 714 154 + 1;
#X obj 612 343 colorRGB 1 0 0 1;
#X obj 689 224 t f f f;
#X obj 612 194 separator;
#X obj 612 274 translateXYZ 0 0 0;
#X obj 612 156 t a b;
#X obj 612 406 cylinder 1 50;
#X obj 612 128 repeat 12;
#X obj 742 154 % 12;
#X obj 345 86 t f f f;
#X obj 773 229 expr $f1/12;
#N canvas 641 338 733 469 hsv 0;
#X obj 140 82 route 0;
#X msg 140 54 \$2 \$3 \$1;
#X obj 184 109 unpack 0 0 0;
#X text 203 69 svh;
#X obj 140 26 inlet hsv;
#X obj 134 664 outlet rgb;
#X obj 354 147 * 6;
#X obj 333 194 % 6;
#X obj 303 171 t f f;
#X msg 303 147 0;
#X text 359 194 i;
#X obj 303 217 -;
#X obj 184 215 *;
#X obj 184 176 - 1;
#X obj 184 196 * -1;
#X obj 216 328 *;
#X obj 216 289 - 1;
#X obj 216 309 * -1;
#X obj 216 267 *;
#X obj 303 238 t f f;
#X obj 333 260 - 1;
#X obj 333 281 * -1;
#X obj 255 354 *;
#X obj 255 315 - 1;
#X obj 255 335 * -1;
#X obj 255 293 *;
#X obj 184 149 t f f f;
#X obj 191 409 pack 0 0 0 0;
#N canvas 388 287 646 315 select 0;
#X obj 290 37 inlet;
#X obj 16 247 outlet;
#X obj 92 104 t b l;
#X obj 125 128 unpack 0 0 0 0;
#X obj 89 43 inlet p q t v;
#X obj 92 128 i;
#X obj 92 151 select 0 1 2 3 4 5;
#X obj 16 223 pack 0 0 0;
#X obj 16 203 f;
#X obj 96 223 pack 0 0 0;
#X obj 96 203 f;
#X obj 176 223 pack 0 0 0;
#X obj 176 203 f;
#X obj 256 223 pack 0 0 0;
#X obj 256 203 f;
#X obj 336 223 pack 0 0 0;
#X obj 336 203 f;
#X obj 416 223 pack 0 0 0;
#X obj 416 203 f;
#X connect 0 0 5 1;
#X connect 2 0 5 0;
#X connect 2 1 3 0;
#X connect 3 0 7 2;
#X connect 3 0 9 2;
#X connect 3 0 12 1;
#X connect 3 0 14 1;
#X connect 3 0 15 1;
#X connect 3 0 17 1;
#X connect 3 1 10 1;
#X connect 3 1 13 1;
#X connect 3 1 17 2;
#X connect 3 2 7 1;
#X connect 3 2 11 2;
#X connect 3 2 16 1;
#X connect 3 3 8 1;
#X connect 3 3 9 1;
#X connect 3 3 11 1;
#X connect 3 3 13 2;
#X connect 3 3 15 2;
#X connect 3 3 18 1;
#X connect 4 0 2 0;
#X connect 5 0 6 0;
#X connect 6 0 8 0;
#X connect 6 1 10 0;
#X connect 6 2 12 0;
#X connect 6 3 14 0;
#X connect 6 4 16 0;
#X connect 6 5 18 0;
#X connect 7 0 1 0;
#X connect 8 0 7 0;
#X connect 9 0 1 0;
#X connect 10 0 9 0;
#X connect 11 0 1 0;
#X connect 12 0 11 0;
#X connect 13 0 1 0;
#X connect 14 0 13 0;
#X connect 15 0 1 0;
#X connect 16 0 15 0;
#X connect 17 0 1 0;
#X connect 18 0 17 0;
#X restore 196 454 pd select;
#X msg 140 476 \$1 \$1 \$1;
#X obj 79 435 clip 0 1;
#X obj 184 129 clip 0 1;
#X obj 223 171 clip 0 1;
#X obj 303 107 clip 0 1;
#X obj 303 127 select 1;
#X msg 92 355 \$1;
#X obj 142 371 abs;
#X obj 181 350 abs;
#X obj 224 384 abs;
#X obj 255 539 unpack f f f;
#X obj 252 570 * 255;
#X obj 300 569 * 255;
#X obj 367 570 * 255;
#X obj 296 623 pack f f f;
#X obj 257 597 int;
#X obj 305 596 int;
#X obj 357 601 int;
#X obj 517 444 loadbang;
#X msg 587 533 1;
#X obj 515 501 sel 8bit int integer;
#X obj 212 489 zexy/demultiplex 0 1;
#X obj 517 473 iemlib/dollarg;
#X obj 484 413 bng 15 250 50 0 empty empty empty 17 7 0 10 -262144
-1 -1;
#X connect 0 0 35 0;
#X connect 0 1 2 0;
#X connect 1 0 0 0;
#X connect 2 0 31 0;
#X connect 2 1 32 0;
#X connect 2 2 33 0;
#X connect 4 0 1 0;
#X connect 6 0 8 0;
#X connect 7 0 11 1;
#X connect 7 0 28 1;
#X connect 8 0 11 0;
#X connect 8 1 7 0;
#X connect 9 0 8 0;
#X connect 11 0 19 0;
#X connect 12 0 36 0;
#X connect 13 0 14 0;
#X connect 14 0 12 0;
#X connect 15 0 37 0;
#X connect 16 0 17 0;
#X connect 17 0 15 0;
#X connect 18 0 16 0;
#X connect 19 0 18 1;
#X connect 19 1 20 0;
#X connect 20 0 21 0;
#X connect 21 0 25 1;
#X connect 22 0 38 0;
#X connect 23 0 24 0;
#X connect 24 0 22 0;
#X connect 25 0 23 0;
#X connect 26 0 13 0;
#X connect 26 1 18 0;
#X connect 26 2 25 0;
#X connect 27 0 28 0;
#X connect 28 0 50 0;
#X connect 29 0 50 0;
#X connect 30 0 29 0;
#X connect 31 0 26 0;
#X connect 32 0 12 1;
#X connect 32 0 27 3;
#X connect 32 0 15 1;
#X connect 32 0 22 1;
#X connect 33 0 34 0;
#X connect 34 0 9 0;
#X connect 34 1 6 0;
#X connect 35 0 30 0;
#X connect 36 0 27 0;
#X connect 37 0 27 1;
#X connect 38 0 27 2;
#X connect 39 0 40 0;
#X connect 39 1 41 0;
#X connect 39 2 42 0;
#X connect 40 0 44 0;
#X connect 41 0 45 0;
#X connect 42 0 46 0;
#X connect 43 0 5 0;
#X connect 44 0 43 0;
#X connect 45 0 43 1;
#X connect 46 0 43 2;
#X connect 47 0 51 0;
#X connect 48 0 50 1;
#X connect 49 0 48 0;
#X connect 49 1 48 0;
#X connect 49 2 48 0;
#X connect 50 0 5 0;
#X connect 50 1 39 0;
#X connect 51 0 49 0;
#X connect 52 0 47 0;
#X restore 773 285 pd hsv;
#X msg 773 259 \$1 1 1;
#X obj 773 307 unpack f f f;
#X floatatom 845 176 5 0 0 0 - - -;
#X obj 773 204 expr ($f1+$f2)%12;
#X obj 689 253 expr $f1-10;
#X obj 743 346 k_range 0 12 1 4;
#X obj 612 377 scaleXYZ 4 4 0.5;
#X obj 440 27 r print;
#X obj 440 59 spigot;
#X obj 372 138 s print;
#X obj 489 58 tgl 15 0 empty empty empty 17 7 0 10 -262144 -1 -1 0
1;
#X obj 40 40 st-FFTreverb /key;
#X msg 126 11 0 0.3 \, 1 0.3 \, 2 0.6 \, 3 0.49;
#X obj 126 -12 loadbang;
#X floatatom 396 -11 5 0 0 0 - - -;
#X obj 18 348 oscosc;
#X obj 142 352 oscosc;
#X obj 256 353 oscosc;
#X obj 380 357 oscosc;
#X obj 489 354 oscosc;
#X obj 18 482 oscosc;
#X obj 134 479 oscosc;
#X obj 250 485 oscosc;
#X obj 332 487 oscosc;
#X obj 480 485 oscosc;
#X obj 450 -7 s dur;
#X obj 396 -53 loadbang;
#X obj 612 300 t a a;
#X obj 613 320 separator;
#X obj 716 417 spigot;
#X obj 716 479 translateXYZ 0 0 0;
#X obj 716 441 separator;
#X obj 689 182 t f f f;
#X obj 305 63 bng 15 250 50 0 empty empty empty 17 7 0 10 -262144 -1
-1;
#X obj 820 430 expr ($f1+$f2)%12-10;
#X obj 937 394 expr 12-$f1;
#X obj 748 382 == 11;
#X obj 457 -33 + 50;
#X obj 773 543 / 12;
#X obj 641 43 gemhead 100;
#X obj 711 572 sphere 0.1 50;
#X obj 715 539 alpha;
#X msg 637 501 auto 1;
#X msg 662 473 1;
#X obj 637 438 loadbang;
#X obj 714 509 color 0.2 0.5 0.8 0.5;
#X msg 396 -26 200;
#N canvas 430 136 341 285 mouseControl 0;
#X obj 167 -16 gemmouse 1 1;
#X obj 167 66 expr ($f1*8)-4;
#X obj 236 46 s mouseRight;
#X obj 194 140 v x;
#X obj 232 139 v y;
#X obj 184 91 expr ($f1*-8)+4;
#X obj 167 188 s mousePos;
#X obj 167 162 pack f f;
#X obj 167 116 t f f;
#X obj 205 117 t f f;
#X obj 201 26 s mouseLeft;
#X obj 218 5 s mouseMiddle;
#X connect 0 0 1 0;
#X connect 0 1 5 0;
#X connect 0 2 10 0;
#X connect 0 3 11 0;
#X connect 0 4 2 0;
#X connect 1 0 8 0;
#X connect 5 0 9 0;
#X connect 7 0 6 0;
#X connect 8 0 7 0;
#X connect 8 1 3 0;
#X connect 9 0 7 1;
#X connect 9 1 4 0;
#X restore 519 68 pd mouseControl;
#N canvas 382 101 930 575 control 0;
#X obj -100 138 square;
#X obj -69 31 r mousePos;
#X obj -7 127 tgl 15 0 empty empty empty 17 7 0 10 -262144 -1 -1 0
1;
#X obj -40 149 spigot;
#X obj 8 65 unpack f f;
#X obj 12 170 r mouseLeft;
#X obj -7 170 tgl 15 0 empty empty empty 17 7 0 10 -262144 -1 -1 0
1;
#X obj -40 192 spigot;
#X floatatom 12 445 5 0 0 0 - - -;
#X obj 12 468 outlet;
#X obj -66 410 loadbang;
#X msg -65 429 0;
#X obj -369 160 translateXYZ 3 -3 0;
#X obj -474 296 alpha;
#X obj -100 68 gemhead -1;
#X obj -166 322 rectangle 0.05 0.2;
#X obj -165 271 translateXYZ -3 -3 0;
#X obj 12 394 split -2.99 2.99;
#X obj 12 421 k_range -3 3 0 1;
#X obj -528 76 translateXYZ -3 -3 0;
#X obj -201 -29 k_framebuffer;
#X obj -265 100 pix_texture;
#X obj -269 -3 gemhead -1;
#X obj -269 130 rectangle 4 4;
#X obj -279 33 translateXYZ 0 0 2.99;
#X obj -266 62 scale 0.27;
#X obj -525 -46 t a a a a;
#X obj -526 -23 separator;
#X obj -507 -2 separator;
#X obj -486 17 separator;
#X obj -467 38 separator;
#X obj -266 81 alpha;
#X obj -474 239 translateXYZ 0 -3 0;
#X obj -474 320 rectangle 3 0.1;
#X obj -528 134 rectangle 0.04 0.1;
#X obj -528 108 color 0 0 0;
#X obj -369 214 rectangle 0.04 0.1;
#X obj -369 188 color 0 0 0;
#X obj -165 296 color 1 1 1;
#X obj -598 37 separator;
#X obj -629 273 text2d;
#X obj -562 373 int;
#X obj -564 347 k_range 0 1 10 300;
#X floatatom -564 400 5 0 0 0 - - -;
#X msg -609 241 text Tempo:\$1;
#X obj -624 165 translateXYZ 0 -2.5 0;
#X obj -560 270 loadbang;
#X obj -666 126 colorRGB 1 1 1 1;
#X obj -474 269 colorRGB 0 0 0 0.6;
#X obj -100 104 k_btn 0 -3.15 3 0.5;
#X msg -561 293 35;
#X connect 1 0 4 0;
#X connect 1 0 49 1;
#X connect 2 0 3 1;
#X connect 3 0 7 0;
#X connect 4 0 3 0;
#X connect 5 0 6 0;
#X connect 6 0 7 1;
#X connect 7 0 16 1;
#X connect 7 0 17 0;
#X connect 8 0 9 0;
#X connect 8 0 42 0;
#X connect 10 0 11 0;
#X connect 11 0 8 0;
#X connect 12 0 37 0;
#X connect 13 0 33 0;
#X connect 14 0 49 0;
#X connect 16 0 38 0;
#X connect 17 0 18 0;
#X connect 18 0 8 0;
#X connect 19 0 35 0;
#X connect 20 0 26 0;
#X connect 20 1 21 1;
#X connect 21 0 23 0;
#X connect 22 0 24 0;
#X connect 24 0 25 0;
#X connect 25 0 31 0;
#X connect 26 0 27 0;
#X connect 26 0 39 0;
#X connect 26 1 28 0;
#X connect 26 2 29 0;
#X connect 26 3 30 0;
#X connect 27 0 19 0;
#X connect 28 0 16 0;
#X connect 29 0 12 0;
#X connect 30 0 32 0;
#X connect 31 0 21 0;
#X connect 32 0 48 0;
#X connect 35 0 34 0;
#X connect 37 0 36 0;
#X connect 38 0 15 0;
#X connect 39 0 47 0;
#X connect 41 0 43 0;
#X connect 42 0 41 0;
#X connect 43 0 44 0;
#X connect 44 0 40 0;
#X connect 45 0 40 0;
#X connect 46 0 50 0;
#X connect 47 0 45 0;
#X connect 48 0 13 0;
#X connect 49 1 2 0;
#X connect 50 0 40 1;
#X restore 532 -39 pd control 1;
#X obj 534 11 int;
#X obj 532 -15 k_range 0 1 10 300;
#X obj 638 80 translateXYZ 0 0 0;
#X connect 0 0 2 0;
#X connect 1 0 0 0;
#X connect 2 0 3 0;
#X connect 2 0 68 0;
#X connect 3 0 4 0;
#X connect 4 0 2 1;
#X connect 5 0 6 0;
#X connect 6 0 18 0;
#X connect 6 1 7 0;
#X connect 7 0 18 1;
#X connect 8 0 55 0;
#X connect 10 0 13 0;
#X connect 10 1 11 0;
#X connect 11 0 12 1;
#X connect 12 0 95 0;
#X connect 13 0 12 0;
#X connect 14 0 16 0;
#X connect 14 1 17 0;
#X connect 15 0 94 0;
#X connect 16 0 15 0;
#X connect 17 0 15 1;
#X connect 18 0 87 0;
#X connect 19 0 25 0;
#X connect 19 1 28 0;
#X connect 20 0 93 0;
#X connect 21 0 26 0;
#X connect 21 1 29 0;
#X connect 22 0 92 0;
#X connect 23 0 27 0;
#X connect 23 1 30 0;
#X connect 24 0 91 0;
#X connect 25 0 20 0;
#X connect 26 0 22 0;
#X connect 27 0 24 0;
#X connect 28 0 20 1;
#X connect 29 0 22 1;
#X connect 30 0 24 1;
#X connect 31 0 32 0;
#X connect 32 0 34 0;
#X connect 32 1 33 0;
#X connect 33 0 34 1;
#X connect 34 0 86 0;
#X connect 35 0 31 0;
#X connect 36 0 37 0;
#X connect 37 0 39 0;
#X connect 37 1 38 0;
#X connect 38 0 39 1;
#X connect 39 0 89 0;
#X connect 40 0 41 0;
#X connect 41 0 43 0;
#X connect 41 1 42 0;
#X connect 42 0 43 1;
#X connect 43 0 88 0;
#X connect 44 0 45 0;
#X connect 45 0 46 0;
#X connect 46 0 48 0;
#X connect 46 1 47 0;
#X connect 47 0 48 1;
#X connect 48 0 90 0;
#X connect 49 0 5 0;
#X connect 50 0 40 0;
#X connect 51 0 36 0;
#X connect 52 0 35 0;
#X connect 52 1 49 0;
#X connect 52 2 50 0;
#X connect 52 3 51 0;
#X connect 52 4 44 0;
#X connect 52 5 23 0;
#X connect 52 6 21 0;
#X connect 52 7 19 0;
#X connect 52 8 14 0;
#X connect 52 9 10 0;
#X connect 54 0 80 0;
#X connect 55 0 82 0;
#X connect 55 0 82 1;
#X connect 57 0 56 0;
#X connect 58 0 59 0;
#X connect 58 0 103 0;
#X connect 59 0 67 0;
#X connect 60 0 77 0;
#X connect 61 0 75 0;
#X connect 61 1 76 0;
#X connect 61 2 107 0;
#X connect 62 0 63 0;
#X connect 63 0 98 0;
#X connect 64 0 62 0;
#X connect 64 1 58 0;
#X connect 66 0 64 0;
#X connect 67 0 58 1;
#X connect 68 0 52 0;
#X connect 68 1 54 0;
#X connect 68 2 73 0;
#X connect 69 0 71 0;
#X connect 70 0 72 0;
#X connect 71 0 70 0;
#X connect 72 0 60 1;
#X connect 72 1 60 2;
#X connect 72 2 60 3;
#X connect 73 0 74 1;
#X connect 73 0 106 0;
#X connect 74 0 69 0;
#X connect 75 0 63 3;
#X connect 76 0 77 1;
#X connect 76 0 77 2;
#X connect 77 0 65 0;
#X connect 78 0 79 0;
#X connect 79 0 53 0;
#X connect 81 0 79 1;
#X connect 82 0 9 0;
#X connect 82 1 9 1;
#X connect 83 0 82 2;
#X connect 84 0 83 0;
#X connect 85 0 0 1;
#X connect 85 0 108 0;
#X connect 97 0 117 0;
#X connect 98 0 99 0;
#X connect 98 1 100 0;
#X connect 99 0 60 0;
#X connect 100 0 102 0;
#X connect 101 0 116 0;
#X connect 102 0 101 0;
#X connect 103 0 61 0;
#X connect 103 1 105 0;
#X connect 103 2 74 0;
#X connect 104 0 2 0;
#X connect 105 0 101 3;
#X connect 106 0 105 1;
#X connect 106 0 109 0;
#X connect 107 0 100 1;
#X connect 108 0 96 0;
#X connect 109 0 111 1;
#X connect 110 0 122 0;
#X connect 112 0 111 0;
#X connect 113 0 112 0;
#X connect 114 0 112 1;
#X connect 115 0 113 0;
#X connect 115 0 114 0;
#X connect 116 0 112 0;
#X connect 117 0 85 0;
#X connect 119 0 121 0;
#X connect 120 0 85 0;
#X connect 121 0 120 0;
#X connect 122 0 66 0;
