#N canvas 0 22 450 300 10;
#X obj 58 19 inlet;
#X obj 114 83 unpack f f;
#X obj 114 118 mtof;
#X obj 157 115 / 127;
#X floatatom 157 140 5 0 0 0 - - -, f 5;
#X obj 117 178 osc~;
#X obj 114 266 throw~ all;
#X obj 58 44 t a a;
#X obj 117 205 *~;
#X obj 157 192 line~;
#X obj 54 90 s print;
#X obj 266 107 t f b;
#X obj 266 140 pack f f;
#X obj 317 107 list;
#X obj 345 76 r dur;
#X msg 266 168 \$1 0 \, 0 \$2;
#X obj 112 230 *~ 0.8;
#X connect 0 0 7 0;
#X connect 1 0 2 0;
#X connect 1 1 3 0;
#X connect 2 0 5 0;
#X connect 3 0 4 0;
#X connect 4 0 11 0;
#X connect 5 0 8 0;
#X connect 7 0 10 0;
#X connect 7 1 1 0;
#X connect 8 0 16 0;
#X connect 9 0 8 1;
#X connect 11 0 12 0;
#X connect 11 1 13 0;
#X connect 12 0 15 0;
#X connect 13 0 12 1;
#X connect 14 0 13 1;
#X connect 15 0 9 0;
#X connect 16 0 6 0;
