#N canvas 414 28 876 712 10;
#X obj -102 98 gemwin;
#X msg -115 48 destroy;
#X obj -98 512 color 0 0 0;
#X obj -98 542 rectangle 0.03 3;
#X obj -98 179 gemhead 5;
#X obj -98 302 rectangle 2 4;
#X obj -98 212 translateXYZ -2 0 0;
#X obj -98 331 gemhead 5;
#X obj -98 453 rectangle 2 4;
#X obj -98 364 translateXYZ 2 0 0;
#X obj 49 223 incirc;
#X obj 49 200 line;
#X obj -98 272 alpha;
#X obj -98 421 alpha;
#X obj 49 133 t b b;
#X msg 49 178 1 \, 0 500;
#X obj 49 155 del 100;
#X msg 100 153 1;
#X obj 49 114 bng 15 250 50 0 empty empty empty 17 7 0 10 -262144 -1
-1;
#X obj 65 398 incirc;
#X obj 65 375 line;
#X obj 65 308 t b b;
#X msg 65 353 1 \, 0 500;
#X obj 65 330 del 100;
#X msg 116 328 1;
#X obj 65 289 bng 15 250 50 0 empty empty empty 17 7 0 10 -262144 -1
-1;
#X obj -98 246 colorRGB 0.71 0.88 0.38 0;
#X obj -98 398 colorRGB 0.71 0.88 0.38 0;
#X obj 337 278 t a a a;
#X obj 390 277 GEMglBegin;
#X obj 468 218 loadbang;
#X obj -98 478 gemhead 100;
#X obj 337 309 GEMglEnd;
#X obj 356 336 repeat 300;
#X obj 243 212 table vol 300;
#X obj 334 122 t b;
#X obj 334 94 gemhead;
#X obj 286 156 tabwrite~ vol;
#X obj 356 362 t a b;
#X obj 383 386 f;
#X obj 410 386 + 1;
#X obj 436 386 % 300;
#X obj 383 433 tabread vol;
#X obj 356 548 GEMglVertex3f;
#X obj 404 517 k_range 0 300 3 -3;
#X obj 383 409 t f f f;
#X obj 459 411 k_event 0 20;
#X obj 528 433 k_event 20 280;
#X obj 609 456 k_event 280 300;
#X obj 459 456 / 20;
#X obj 383 473 * 0;
#X msg 528 458 1;
#X obj 609 482 expr (300-$f1)/20;
#X msg 468 245 3;
#X obj 382 495 * 0.5;
#X msg -102 69 reset \, FSAA 8 \, color 0.9 0.9 0.9 \, create \, 1
;
#X obj 70 423 gemmouse 1 1;
#X obj 70 452 expr ($f1*8)-4;
#X obj 87 476 expr ($f1*-8)+4;
#X obj 131 653 s mouseLeft;
#X obj 49 92 r click_left;
#X obj 65 268 r click_right;
#X obj 393 35 r click_right;
#X obj 286 107 *~;
#X msg 393 62 1 \, 0 300;
#X obj 393 83 line~;
#X obj 393 110 *~;
#X obj 286 33 noise~;
#X obj 286 60 lop~ 250;
#X obj 214 154 dac~;
#X obj 167 -12 r click_left;
#X obj 167 34 line~;
#X obj 167 61 *~;
#X obj 214 94 *~;
#X obj 286 83 *~ 3;
#X obj 523 70 tagcircle 0;
#X obj 337 247 color 1 1 0;
#X obj 214 54 osc~ 2000;
#X msg 167 13 1 \, 0 100;
#X obj 153 551 t f f;
#X obj 180 577 sel 1;
#X obj 180 601 f;
#X obj 209 601 + 1;
#X obj 131 629 pack f f;
#X obj 238 449 gemkeyboard;
#X floatatom 238 472 5 0 0 0 - - -;
#X obj 238 496 sel 49;
#X obj 238 518 s allClose;
#X obj 70 543 v PosX;
#X obj 87 569 v PosY;
#X msg 195 551 0;
#X obj 524 94 tagcircle 1;
#X obj 523 120 tagcircle 2;
#X obj 524 144 tagcircle 3;
#X obj 523 169 tagcircle 4;
#X obj 523 193 tagcircle 5;
#X obj 524 217 tagcircle 6;
#X obj 523 243 tagcircle 7;
#X obj 524 267 tagcircle 8;
#X obj 523 292 tagcircle 9;
#X obj 337 214 GEMglLineWidth 2;
#X obj 337 188 gemhead 99;
#X obj 152 528 spigot;
#X obj 185 507 tgl 15 0 empty empty empty 17 7 0 10 -262144 -1 -1 0
1;
#X floatatom 138 371 5 0 0 0 - - -;
#X obj 138 395 expr if($f1 > 3 || $f1<-3 \, 0 \, 1);
#X obj 238 600 % 20;
#X obj 600 70 tagcircle 10;
#X obj 601 94 tagcircle 11;
#X obj 600 120 tagcircle 12;
#X obj 601 144 tagcircle 13;
#X obj 600 169 tagcircle 14;
#X obj 600 193 tagcircle 15;
#X obj 601 217 tagcircle 16;
#X obj 600 243 tagcircle 17;
#X obj 601 267 tagcircle 18;
#X obj 600 292 tagcircle 19;
#X connect 1 0 0 0;
#X connect 2 0 3 0;
#X connect 4 0 6 0;
#X connect 6 0 26 0;
#X connect 7 0 9 0;
#X connect 9 0 27 0;
#X connect 10 0 26 4;
#X connect 11 0 10 0;
#X connect 12 0 5 0;
#X connect 13 0 8 0;
#X connect 14 0 16 0;
#X connect 14 1 17 0;
#X connect 15 0 11 0;
#X connect 16 0 15 0;
#X connect 17 0 11 0;
#X connect 18 0 14 0;
#X connect 19 0 27 4;
#X connect 20 0 19 0;
#X connect 21 0 23 0;
#X connect 21 1 24 0;
#X connect 22 0 20 0;
#X connect 23 0 22 0;
#X connect 24 0 20 0;
#X connect 25 0 21 0;
#X connect 26 0 12 0;
#X connect 27 0 13 0;
#X connect 28 0 32 0;
#X connect 28 1 33 0;
#X connect 28 2 29 0;
#X connect 30 0 53 0;
#X connect 31 0 2 0;
#X connect 33 0 38 0;
#X connect 35 0 37 0;
#X connect 36 0 35 0;
#X connect 38 0 43 0;
#X connect 38 1 39 0;
#X connect 39 0 40 0;
#X connect 39 0 45 0;
#X connect 40 0 41 0;
#X connect 41 0 39 1;
#X connect 42 0 50 0;
#X connect 44 0 43 2;
#X connect 45 0 42 0;
#X connect 45 1 44 0;
#X connect 45 2 46 0;
#X connect 46 0 49 0;
#X connect 46 1 47 0;
#X connect 47 0 51 0;
#X connect 47 1 48 0;
#X connect 48 0 52 0;
#X connect 49 0 50 1;
#X connect 50 0 54 0;
#X connect 51 0 50 1;
#X connect 52 0 50 1;
#X connect 53 0 29 1;
#X connect 54 0 43 1;
#X connect 55 0 0 0;
#X connect 56 0 57 0;
#X connect 56 1 58 0;
#X connect 56 2 102 0;
#X connect 57 0 88 0;
#X connect 58 0 89 0;
#X connect 58 0 104 0;
#X connect 60 0 18 0;
#X connect 61 0 25 0;
#X connect 62 0 64 0;
#X connect 63 0 37 0;
#X connect 63 0 69 1;
#X connect 64 0 65 0;
#X connect 65 0 66 0;
#X connect 65 0 66 1;
#X connect 66 0 63 1;
#X connect 67 0 68 0;
#X connect 68 0 74 0;
#X connect 70 0 78 0;
#X connect 71 0 72 0;
#X connect 71 0 72 1;
#X connect 72 0 73 1;
#X connect 73 0 69 0;
#X connect 73 0 37 0;
#X connect 74 0 63 0;
#X connect 76 0 28 0;
#X connect 77 0 73 0;
#X connect 78 0 71 0;
#X connect 79 0 83 0;
#X connect 79 1 80 0;
#X connect 80 0 81 0;
#X connect 81 0 82 0;
#X connect 81 0 83 1;
#X connect 82 0 106 0;
#X connect 83 0 59 0;
#X connect 84 0 85 0;
#X connect 85 0 86 0;
#X connect 86 0 87 0;
#X connect 86 0 90 0;
#X connect 90 0 81 1;
#X connect 100 0 76 0;
#X connect 101 0 100 0;
#X connect 102 0 79 0;
#X connect 103 0 102 1;
#X connect 104 0 105 0;
#X connect 105 0 103 0;
#X connect 106 0 81 1;
