#N canvas 551 89 819 596 10;
#X obj 110 -87 gemhead;
#X obj 159 217 translateXYZ;
#X obj 159 250 color 0 0 0;
#X obj 159 302 circle 0.1;
#X obj 373 115 unpack f f;
#X obj 371 68 spigot;
#X obj 451 -54 r mouseLeft;
#X obj 123 365 gemhead;
#X obj 251 218 gemhead;
#X obj 251 316 translateXYZ;
#X obj 251 349 color 0 0 0;
#X obj 123 471 curve 2;
#X obj 142 403 list append 0;
#X obj 196 378 t b f;
#X obj 196 436 pack 0 0 0;
#X obj 123 432 color 0 0 0;
#X obj 54 395 loadbang;
#X msg 54 421 draw point;
#X obj 251 401 circle 0.03;
#X floatatom 153 36 5 0 0 0 - - -;
#X obj 153 61 /;
#X floatatom 153 84 5 0 0 0 - - -;
#X obj 153 107 expr 2*abs(0.5-abs($f1-0.5))*$f2;
#X obj 153 -16 spigot;
#X obj 186 -37 invert;
#X obj 180 9 + 0.05;
#X obj 479 235 change;
#X obj 479 257 tgl 15 0 empty empty empty 17 7 0 10 -262144 -1 -1 1
1;
#X obj 479 277 sel 1;
#X obj 446 194 > 0;
#X obj 446 219 + 1;
#X obj 446 307 gate 2;
#X obj 446 345 s click_left;
#X obj 479 374 s click_right;
#X obj 54 -142 loadbang;
#X msg 54 -121 0;
#X msg 451 -27 \$2 \$1;
#X obj 451 2 route \$1;
#X obj -22 -142 r allClose;
#X obj 451 46 sel 1;
#X msg 451 68 1;
#X obj 349 -62 v PosX;
#X obj 388 -43 v PosY;
#X obj 110 -57 t a b b b;
#X obj 360 16 pack f f;
#X obj 480 208 expr if($f1>0.98 || $f1<0.02 \, 1 \, 0);
#X obj 247 -68 abs;
#X obj 247 -49 * 2;
#X obj 247 -25 t f f f;
#X obj 225 8 fmod 5;
#X obj 153 9 f 0;
#X obj 220 -96 t f f;
#X obj 198 -74 abs;
#X connect 0 0 43 0;
#X connect 1 0 2 0;
#X connect 2 0 3 0;
#X connect 4 0 9 1;
#X connect 4 0 22 1;
#X connect 4 0 1 1;
#X connect 4 0 29 0;
#X connect 4 0 51 0;
#X connect 4 1 1 2;
#X connect 4 1 9 2;
#X connect 4 1 13 0;
#X connect 5 0 4 0;
#X connect 5 0 12 0;
#X connect 6 0 36 0;
#X connect 7 0 15 0;
#X connect 8 0 9 0;
#X connect 9 0 10 0;
#X connect 10 0 18 0;
#X connect 12 0 11 1;
#X connect 13 0 14 0;
#X connect 13 1 14 1;
#X connect 14 0 11 2;
#X connect 15 0 11 0;
#X connect 16 0 17 0;
#X connect 17 0 11 0;
#X connect 19 0 20 0;
#X connect 20 0 21 0;
#X connect 21 0 22 0;
#X connect 21 0 45 0;
#X connect 22 0 1 1;
#X connect 23 0 50 0;
#X connect 24 0 23 1;
#X connect 25 0 49 0;
#X connect 26 0 27 0;
#X connect 27 0 28 0;
#X connect 28 0 31 1;
#X connect 29 0 30 0;
#X connect 30 0 31 0;
#X connect 31 0 32 0;
#X connect 31 1 33 0;
#X connect 34 0 35 0;
#X connect 35 0 0 0;
#X connect 35 0 7 0;
#X connect 35 0 8 0;
#X connect 36 0 37 0;
#X connect 37 0 5 1;
#X connect 37 0 24 0;
#X connect 37 0 39 0;
#X connect 38 0 35 0;
#X connect 39 0 40 0;
#X connect 40 0 0 0;
#X connect 40 0 8 0;
#X connect 40 0 7 0;
#X connect 41 0 44 0;
#X connect 42 0 44 1;
#X connect 43 0 1 0;
#X connect 43 1 23 0;
#X connect 43 2 41 0;
#X connect 43 3 42 0;
#X connect 44 0 5 0;
#X connect 45 0 26 0;
#X connect 46 0 47 0;
#X connect 47 0 48 0;
#X connect 48 1 20 1;
#X connect 48 2 49 1;
#X connect 49 0 50 1;
#X connect 50 0 19 0;
#X connect 50 0 25 0;
#X connect 51 0 52 0;
#X connect 51 1 46 0;
#X connect 52 0 50 1;
