#N canvas 745 148 579 554 10;
#X declare -path /Users/aluan/AVLab/av2;
#X msg 6 42 destroy;
#X obj 29 188 alpha;
#X obj 29 244 rectangle 8 4;
#X obj 29 214 pix_texture;
#X obj 29 128 gemhead 1;
#X obj 257 143 gemmouse 1 1;
#X obj 274 216 expr $f1*-8+4;
#X obj 297 258 sel 0 1;
#X obj 257 320 v x;
#X obj 277 343 v y;
#X obj 297 372 v x1;
#X obj 333 371 v y1;
#X obj 179 353 f;
#X obj 237 400 pack f f f f f;
#X obj 179 287 sel 0;
#X obj 237 426 s drawrect;
#X obj 104 420 s allclose;
#X obj 103 330 gemkeyboard;
#X floatatom 104 350 5 0 0 0 - - -;
#X obj 104 373 sel 49;
#X msg 104 395 0;
#X obj 291 167 s mouseleft;
#N canvas 348 229 431 460 red-rect 0;
#X obj 149 79 gemhead;
#X obj 149 248 translateXYZ;
#X obj 149 373 rectangle 1 1;
#X obj 30 296 loadbang;
#X obj 149 57 tgl 15 0 empty empty empty 17 7 0 10 -262144 -1 -1 0
1;
#X obj 149 322 scaleXYZ 1 1 0;
#X obj 149 177 color 1 0 0;
#X msg 30 323 draw line \, width 2;
#X obj 319 159 v x;
#X obj 347 159 v y;
#X obj 202 156 v x1;
#X obj 238 156 v y1;
#X obj 149 110 t a b b b b;
#X obj 176 277 expr abs($f1-$f2)/2;
#X obj 203 297 expr abs($f1-$f2)/2;
#X obj 172 218 expr ($f1+$f2)/2;
#X obj 195 199 expr ($f1+$f2)/2;
#X obj 319 128 sel 1;
#X obj 149 7 r mouseleft;
#X obj 149 29 t f f;
#X connect 0 0 12 0;
#X connect 1 0 5 0;
#X connect 3 0 7 0;
#X connect 4 0 0 0;
#X connect 5 0 2 0;
#X connect 6 0 1 0;
#X connect 7 0 2 0;
#X connect 8 0 13 1;
#X connect 8 0 15 1;
#X connect 9 0 14 1;
#X connect 9 0 16 1;
#X connect 10 0 13 0;
#X connect 10 0 15 0;
#X connect 11 0 14 0;
#X connect 11 0 16 0;
#X connect 12 0 6 0;
#X connect 12 1 10 0;
#X connect 12 2 11 0;
#X connect 13 0 5 1;
#X connect 14 0 5 2;
#X connect 15 0 1 1;
#X connect 16 0 1 2;
#X connect 17 0 8 0;
#X connect 17 0 9 0;
#X connect 18 0 19 0;
#X connect 19 0 4 0;
#X connect 19 1 17 0;
#X restore 29 270 pd red-rect;
#X obj 179 215 r mouseleft;
#X obj 204 353 + 1;
#X obj 179 240 t f f;
#X obj 342 145 s mouseright;
#X obj 230 353 % 3;
#X obj 29 97 gemwin 30;
#N canvas 631 342 450 300 scan 0;
#X obj 74 132 alpha;
#X obj 74 160 pix_texture;
#X obj 75 17 gemhead 500;
#X obj 74 40 t a b;
#X obj 155 -12 f;
#X obj 74 72 translateXYZ;
#X obj 233 73 s scanPos;
#X obj 155 35 - 4;
#X obj 211 -13 % 80;
#X obj 155 13 / 10;
#X obj 73 101 pix_image av2/scan.png;
#X obj 74 198 rectangle 0.05 4;
#X floatatom 233 40 5 0 0 0 - - -;
#X obj 183 -12 + 2;
#X connect 0 0 1 0;
#X connect 1 0 11 0;
#X connect 2 0 3 0;
#X connect 3 0 5 0;
#X connect 3 1 4 0;
#X connect 4 0 9 0;
#X connect 4 0 13 0;
#X connect 5 0 10 0;
#X connect 7 0 5 1;
#X connect 7 0 12 0;
#X connect 8 0 4 1;
#X connect 9 0 7 0;
#X connect 10 0 0 0;
#X connect 12 0 6 0;
#X connect 13 0 8 0;
#X restore 28 363 pd scan;
#X obj 21 391 catch~ all;
#X obj 257 192 expr $f1*8-4;
#X obj 29 20 loadbang;
#X obj 90 25 declare -path /Users/aluan/AVLab/av2;
#X msg 29 57 reset \, border 0 \, offset 100 100 \, color 0.3 0.3 0.3
\, dimen 500 500 \, create \, 1;
#X obj 29 155 pix_image point.png;
#X obj 168 115 loadbang;
#X msg 168 140 \; pd dsp 1;
#X obj 21 441 st-pureverb /key;
#X obj 21 515 dac~;
#X obj 360 258 gemkeyboard;
#X floatatom 360 281 5 0 0 0 - - -;
#X obj 179 320 f;
#X msg 359 324 0;
#X msg 382 344 1;
#X msg 404 324 2;
#X obj 360 302 sel 18 19 20 21;
#X msg 442 334 3;
#X obj 208 456 loadbang;
#X msg 208 478 1 0.3;
#X obj -36 211 rect 0;
#X obj -34 281 rect 3;
#X obj -35 258 rect 2;
#X obj -35 234 rect 1;
#X connect 0 0 28 0;
#X connect 1 0 3 0;
#X connect 3 0 2 0;
#X connect 4 0 35 0;
#X connect 5 0 31 0;
#X connect 5 1 6 0;
#X connect 5 2 21 0;
#X connect 5 4 26 0;
#X connect 6 0 9 0;
#X connect 6 0 11 0;
#X connect 7 0 10 0;
#X connect 7 0 11 0;
#X connect 7 1 9 0;
#X connect 7 1 8 0;
#X connect 8 0 13 1;
#X connect 9 0 13 2;
#X connect 10 0 13 3;
#X connect 11 0 13 4;
#X connect 12 0 24 0;
#X connect 13 0 15 0;
#X connect 14 0 42 0;
#X connect 17 0 18 0;
#X connect 18 0 19 0;
#X connect 19 0 20 0;
#X connect 20 0 16 0;
#X connect 20 0 12 1;
#X connect 20 0 42 1;
#X connect 23 0 25 0;
#X connect 24 0 27 0;
#X connect 25 0 14 0;
#X connect 25 1 7 0;
#X connect 27 0 12 1;
#X connect 30 0 38 0;
#X connect 30 0 38 1;
#X connect 31 0 8 0;
#X connect 31 0 10 0;
#X connect 32 0 34 0;
#X connect 34 0 28 0;
#X connect 35 0 1 0;
#X connect 36 0 37 0;
#X connect 38 0 39 0;
#X connect 38 1 39 1;
#X connect 40 0 41 0;
#X connect 41 0 46 0;
#X connect 42 0 13 0;
#X connect 43 0 42 1;
#X connect 44 0 42 1;
#X connect 45 0 42 1;
#X connect 46 0 43 0;
#X connect 46 1 44 0;
#X connect 46 2 45 0;
#X connect 46 3 47 0;
#X connect 47 0 42 1;
#X connect 48 0 49 0;
#X connect 49 0 38 2;
