#N canvas 0 27 1410 776 10;
#X obj 19 -61 r drawrect;
#X obj 19 -34 route \$1;
#X obj 46 21 unpack f f f f;
#X obj 223 253 expr ($f1+$f2)/2;
#X obj -54 599 rectangle 1 1;
#X obj -120 527 loadbang;
#X msg -120 554 draw line;
#X obj -29 45 r allclose;
#X obj -29 70 tgl 15 0 empty empty empty 17 7 0 10 -262144 -1 -1 1
1;
#X msg 19 14 1;
#X obj 233 364 expr abs($f1-$f2)/2;
#X obj -102 -25 loadbang;
#X msg -102 27 0;
#X obj -54 545 separator;
#X obj -54 573 colorRGB 1 1 1 1;
#X obj -29 122 t a a;
#X obj -29 176 t a b;
#X obj 41 240 f;
#X obj 67 240 + 1;
#X obj -29 234 separator;
#X obj 149 478 tgl 15 0 empty empty empty 17 7 0 10 -262144 -1 -1 0
1;
#X obj 80 318 pack f 1;
#X obj -12 354 pack f f;
#X obj -12 314 v x;
#X obj 33 314 v y;
#X floatatom -12 336 5 0 0 0 - - -;
#X floatatom 33 334 5 0 0 0 - - -;
#X obj -20 440 k_btn 0 0 0.5 1;
#X msg 92 371 1;
#X msg 149 371 0;
#X obj -20 391 spigot;
#X floatatom 56 140 5 0 0 0 - - -;
#X obj 56 114 expr if($f1<0 \, int(8-abs($f1)) \, int($f1)+8 );
#X floatatom 108 173 5 0 0 0 - - -;
#X obj 108 147 expr if($f1<0 \, int(8-abs($f1)) \, int($f1)+8 );
#X obj 58 182 min;
#X obj 108 197 max;
#X msg 67 414 0.5 \$1;
#N canvas 494 297 358 337 color 0;
#X msg 93 77 249 236 49;
#X msg 110 101 0 161 75;
#X msg 127 123 38 169 224;
#X obj 97 157 unpack f f f;
#X obj 97 185 / 255;
#X obj 131 208 / 255;
#X obj 166 182 / 255;
#X obj 94 243 colorRGB 1 1 1 1;
#X obj 48 208 inlet;
#X obj 94 297 outlet;
#X obj 94 270 alpha;
#X obj 93 29 init \$1;
#X obj 95 9 bng 15 250 50 0 empty empty empty 17 7 0 10 -262144 -1
-1;
#X obj 222 121 inlet;
#X obj 222 154 sel 1 0 2;
#X msg 256 179 1;
#X msg 239 199 0.1;
#X msg 222 177 0.6;
#X obj 93 53 sel 0 1 2 3;
#X msg 177 82 255 125 0;
#X connect 0 0 3 0;
#X connect 1 0 3 0;
#X connect 2 0 3 0;
#X connect 3 0 4 0;
#X connect 3 1 5 0;
#X connect 3 2 6 0;
#X connect 4 0 7 1;
#X connect 5 0 7 2;
#X connect 6 0 7 3;
#X connect 7 0 10 0;
#X connect 8 0 7 0;
#X connect 10 0 9 0;
#X connect 11 0 18 0;
#X connect 12 0 11 0;
#X connect 13 0 14 0;
#X connect 14 0 17 0;
#X connect 14 1 16 0;
#X connect 14 2 15 0;
#X connect 15 0 7 4;
#X connect 16 0 7 4;
#X connect 17 0 7 4;
#X connect 18 0 0 0;
#X connect 18 1 1 0;
#X connect 18 2 2 0;
#X connect 18 3 19 0;
#X connect 19 0 3 0;
#X restore 7 519 pd color;
#X obj 7 545 rectangle 1 1;
#X obj 7 494 separator;
#X obj -20 465 t a a;
#N canvas 0 22 450 278 (subpatch) 0;
#X array \$0-color 16 float 3;
#A 0 0 0 0 0 1 0 0 0 1 0 0 0 0 0 0 0;
#X coords 0 1 15 -1 40 15 2 0 0;
#X restore 629 357 graph;
#X obj 208 635 tabwrite \$0-color;
#X obj 100 442 tabread \$0-color;
#X obj 209 441 r mouseright;
#X obj 149 496 spigot;
#X obj 209 467 tgl 15 0 empty empty empty 17 7 0 10 -262144 -1 -1 0
1;
#X obj 149 521 sel 1;
#X obj 41 262 t b b f f f f f;
#X obj 143 262 v \$0-id;
#X obj 208 515 v \$0-id;
#X obj 208 564 tabread \$0-color;
#X obj -29 92 gemhead 50;
#X obj -29 150 repeat 16;
#X obj 95 240 % 16;
#X obj 80 291 k_range 0 15 -7.5 7.5;
#X floatatom 307 606 5 0 0 0 - - -;
#X obj 208 610 % 2;
#X obj 208 589 + 1;
#X obj 208 493 onebang;
#X obj 264 471 sel 0;
#X obj 208 539 t f f;
#X msg -101 81 set \$1;
#X obj -102 1 t b b;
#X obj -101 58 f \$1;
#X obj 493 100 r scanPos;
#X obj 493 122 expr if($f1<0 \, int(8-abs($f1)) \, int($f1)+8 );
#X floatatom 493 149 5 0 0 0 - - -;
#X obj 571 269 tabread \$0-color;
#X obj 493 171 change;
#X obj 538 317 spigot;
#X obj 538 345 t b f;
#X msg 538 375 2;
#X obj 425 434 tabwrite \$0-color;
#X obj 425 377 t b f;
#X msg 425 407 1;
#X obj 425 284 tabread \$0-color;
#X floatatom 425 307 5 0 0 0 - - -;
#X obj 425 330 sel 2;
#X obj 425 260 t f f;
#X obj 463 260 v \$0-id2;
#X obj 425 352 v \$0-id2;
#X obj 390 491 gemhead;
#X obj 187 72 s \$0-textL;
#X obj 444 487 r \$0-textL;
#X obj 390 535 translateXYZ 0 0 0;
#X obj 390 606 text2d;
#X floatatom 309 -26 5 0 0 0 - - -;
#X floatatom 382 -19 5 0 0 0 - - -;
#X obj 331 26 min;
#X obj 331 51 s \$0-textD;
#X obj 464 508 r \$0-textD;
#X obj 451 603 loadbang;
#X floatatom 187 53 5 0 0 0 - - -;
#X msg 449 626 12;
#X obj 493 205 t f f f f;
#X obj 773 296 tabread \$0-color;
#X floatatom 773 319 5 0 0 0 - - -;
#X obj -252 213 f;
#X obj -222 212 + 1;
#X obj -252 157 t b b;
#X obj -252 132 bng 15 250 50 0 empty empty empty 17 7 0 10 -262144
-1 -1;
#X obj -252 289 t b f;
#X obj -252 340 tabwrite \$0-color;
#X msg -252 313 1;
#X obj 19 -9 t b b a;
#X msg -161 250 \; \$1-color const 0;
#X obj -161 219 f \$0;
#X obj 773 342 sel 1;
#X obj 716 498 throw~ all;
#X obj 773 397 line;
#X msg 773 367 1 0 \, 0 500;
#X obj 773 420 insine;
#X obj 773 448 *~ 0.25;
#X obj -154 178 bng 15 250 50 0 empty empty empty 17 7 0 10 -262144
-1 -1;
#X obj -252 180 repeat 16;
#X obj -252 263 split 0 16;
#X obj 92 345 split 0 16;
#X obj -191 213 % 16;
#X obj 832 537 perk-bassdrum /key;
#X obj 894 348 perk-hihat /key;
#X obj 644 538 perk-snare /key;
#X obj 882 219 init \$1;
#X obj 882 248 + 1;
#X obj 879 198 bng 15 250 50 0 empty empty empty 17 7 0 10 -262144
-1 -1;
#X msg 1035 553 0 0.6 \, 1 0.6 \, 3 0.6;
#X obj 1035 530 loadbang;
#X obj 98 513 init \$1;
#X msg 445 577 text Freq \$1;
#X obj 96 570 + 1;
#X obj 97 542 t b f;
#X msg 125 568 0;
#X obj 106 492 bng 15 250 50 0 empty empty empty 17 7 0 10 -262144
-1 -1;
#X msg 486 630 justify left top;
#X floatatom 267 69 5 0 0 0 - - -;
#X obj 293 517 expr int($f1*100)/100;
#X floatatom 190 -44 5 0 0 0 - - -;
#X obj 189 27 k_range 4 11 -4 3;
#X floatatom 546 459 5 0 0 0 - - -;
#X floatatom 571 248 5 0 0 0 - - -;
#X obj 572 290 > 0;
#X obj 585 321 tgl 15 0 empty empty empty 17 7 0 10 -262144 -1 -1 0
1;
#X floatatom 522 279 5 0 0 0 - - -;
#X obj 538 404 tabwrite \$0-color;
#X obj 386 125 - 1;
#X floatatom 426 236 5 0 0 0 - - -;
#X floatatom 386 155 5 0 0 0 - - -;
#X floatatom 420 199 5 0 0 0 - - -;
#X obj 384 177 moses 4;
#X msg 350 209 11;
#X obj 72 598 gate 4;
#X obj 882 274 gate 4;
#X msg 72 624 text 1:Bassdrum_v:\$1;
#X msg 88 647 text 2:Hithat_v:\$1;
#X msg 113 670 text 3:Snare_v:\$1;
#X obj 970 185 perk-bell /key;
#X msg 225 671 text 4:Bell_v:\$1;
#X obj 716 461 *~ 0;
#X obj 547 482 k_range 0 3 0.2 0.6;
#X connect 0 0 1 0;
#X connect 1 0 106 0;
#X connect 2 0 32 0;
#X connect 2 1 3 0;
#X connect 2 1 10 0;
#X connect 2 1 88 0;
#X connect 2 2 34 0;
#X connect 2 3 3 1;
#X connect 2 3 10 1;
#X connect 2 3 89 0;
#X connect 3 0 21 1;
#X connect 5 0 6 0;
#X connect 6 0 4 0;
#X connect 7 0 8 0;
#X connect 7 0 115 0;
#X connect 8 0 53 0;
#X connect 8 0 83 0;
#X connect 9 0 8 0;
#X connect 10 0 37 0;
#X connect 10 0 139 0;
#X connect 11 0 64 0;
#X connect 12 0 8 0;
#X connect 13 0 14 0;
#X connect 14 0 4 0;
#X connect 15 0 54 0;
#X connect 16 0 19 0;
#X connect 16 1 17 0;
#X connect 17 0 18 0;
#X connect 17 0 49 0;
#X connect 18 0 55 0;
#X connect 19 0 30 0;
#X connect 20 0 46 0;
#X connect 21 0 27 2;
#X connect 22 0 27 1;
#X connect 23 0 25 0;
#X connect 24 0 26 0;
#X connect 25 0 22 0;
#X connect 26 0 22 1;
#X connect 27 0 41 0;
#X connect 27 1 20 0;
#X connect 28 0 30 1;
#X connect 29 0 30 1;
#X connect 30 0 27 0;
#X connect 31 0 36 0;
#X connect 31 0 35 0;
#X connect 32 0 31 0;
#X connect 33 0 36 1;
#X connect 33 0 35 1;
#X connect 34 0 33 0;
#X connect 35 0 117 1;
#X connect 35 0 118 1;
#X connect 35 0 137 0;
#X connect 35 0 138 0;
#X connect 36 0 117 2;
#X connect 36 0 118 2;
#X connect 37 0 27 3;
#X connect 38 0 39 0;
#X connect 40 0 38 0;
#X connect 41 0 13 0;
#X connect 41 1 40 0;
#X connect 44 0 38 1;
#X connect 45 0 47 0;
#X connect 46 0 48 0;
#X connect 47 0 46 1;
#X connect 47 0 61 0;
#X connect 48 0 60 0;
#X connect 49 0 23 0;
#X connect 49 1 24 0;
#X connect 49 2 56 0;
#X connect 49 3 118 0;
#X connect 49 4 44 0;
#X connect 49 6 50 0;
#X connect 51 0 62 0;
#X connect 52 0 59 0;
#X connect 53 0 15 0;
#X connect 54 0 16 0;
#X connect 55 0 17 1;
#X connect 56 0 21 0;
#X connect 57 0 43 1;
#X connect 58 0 43 0;
#X connect 59 0 58 0;
#X connect 60 0 51 0;
#X connect 61 0 60 1;
#X connect 62 0 52 0;
#X connect 62 1 57 0;
#X connect 63 0 53 0;
#X connect 64 0 12 0;
#X connect 64 1 65 0;
#X connect 65 0 63 0;
#X connect 66 0 67 0;
#X connect 67 0 68 0;
#X connect 68 0 70 0;
#X connect 69 0 141 0;
#X connect 70 0 96 0;
#X connect 71 0 72 0;
#X connect 72 0 73 0;
#X connect 72 1 144 1;
#X connect 73 0 144 0;
#X connect 75 0 76 0;
#X connect 75 1 74 1;
#X connect 76 0 74 0;
#X connect 77 0 78 0;
#X connect 78 0 79 0;
#X connect 79 0 82 0;
#X connect 80 0 77 0;
#X connect 80 1 81 0;
#X connect 82 0 75 0;
#X connect 83 0 86 0;
#X connect 85 0 86 1;
#X connect 86 0 87 0;
#X connect 88 0 90 0;
#X connect 89 0 90 1;
#X connect 90 0 91 0;
#X connect 92 0 86 2;
#X connect 93 0 95 0;
#X connect 93 0 134 0;
#X connect 94 0 84 0;
#X connect 95 0 87 1;
#X connect 96 0 145 0;
#X connect 96 1 143 0;
#X connect 96 2 140 0;
#X connect 96 3 97 0;
#X connect 97 0 98 0;
#X connect 98 0 109 0;
#X connect 99 0 100 0;
#X connect 99 0 117 0;
#X connect 100 0 119 0;
#X connect 101 0 116 0;
#X connect 101 1 108 0;
#X connect 102 0 101 0;
#X connect 103 0 105 0;
#X connect 103 1 104 1;
#X connect 105 0 104 0;
#X connect 106 0 102 0;
#X connect 106 1 9 0;
#X connect 106 2 2 0;
#X connect 108 0 107 0;
#X connect 109 0 152 1;
#X connect 111 0 113 0;
#X connect 112 0 111 0;
#X connect 113 0 114 0;
#X connect 115 0 108 0;
#X connect 116 0 99 0;
#X connect 117 0 103 0;
#X connect 118 0 28 0;
#X connect 118 1 29 0;
#X connect 119 0 99 1;
#X connect 120 0 158 0;
#X connect 121 0 158 0;
#X connect 122 0 158 0;
#X connect 123 0 124 0;
#X connect 124 0 152 0;
#X connect 125 0 123 0;
#X connect 126 0 120 1;
#X connect 127 0 126 0;
#X connect 128 0 131 0;
#X connect 130 0 151 0;
#X connect 131 0 132 0;
#X connect 131 1 130 0;
#X connect 132 0 151 1;
#X connect 133 0 128 0;
#X connect 134 0 87 0;
#X connect 135 0 138 0;
#X connect 136 0 151 1;
#X connect 138 0 94 0;
#X connect 139 0 159 0;
#X connect 140 0 69 0;
#X connect 141 0 142 0;
#X connect 142 0 71 1;
#X connect 143 0 71 0;
#X connect 145 0 147 0;
#X connect 146 0 80 0;
#X connect 147 0 149 0;
#X connect 148 0 146 0;
#X connect 149 0 150 0;
#X connect 149 1 148 0;
#X connect 150 0 146 0;
#X connect 151 0 153 0;
#X connect 151 1 154 0;
#X connect 151 2 155 0;
#X connect 151 3 157 0;
#X connect 152 0 120 0;
#X connect 152 1 121 0;
#X connect 152 2 122 0;
#X connect 152 3 156 0;
#X connect 153 0 87 0;
#X connect 154 0 87 0;
#X connect 155 0 87 0;
#X connect 156 0 158 0;
#X connect 157 0 87 0;
#X connect 158 0 110 0;
#X connect 159 0 136 0;
#X connect 159 0 158 1;
