#N canvas 794 442 503 265 10;
#X declare -path /Users/aluan/AVLab/av16;
#X obj 14 -26 s-rect 0;
#X obj 143 25 tgl 30 0 empty empty empty 17 7 0 10 -262144 -1 -1 1
1;
#X obj 143 86 sel 0 1;
#X obj 143 62 t f f;
#X msg 143 113 destroy;
#X obj 143 164 gemwin;
#N canvas 583 130 793 601 gemwin 0;
#X obj -23 -172 gemmouse 1 1;
#X obj -23 -137 expr $f1*8-4;
#X obj -6 -113 expr $f1*-8+4;
#X floatatom -23 -84 5 0 0 0 - - -;
#X floatatom 31 -83 5 0 0 0 - - -;
#X obj 106 -108 sel 0 1;
#X obj -4 40 v x;
#X obj 49 43 v y;
#X obj -23 63 v x1;
#X obj 31 65 v y1;
#X obj 134 -47 f;
#X obj 161 -47 + 1;
#X obj -22 112 pack f f f f f;
#X obj 134 -72 sel 0;
#X obj 177 -132 sel 1;
#X msg 177 -107 0;
#X obj 5 201 s drawrect;
#X obj 239 -14 s allclose;
#X obj 113 205 translateXYZ;
#X obj 111 39 tgl 15 0 empty empty empty 17 7 0 10 -262144 -1 -1 0
1;
#X obj 113 257 scaleXYZ 1 1 0;
#X obj 106 -136 t f f f;
#X obj -23 -61 t f f f;
#X obj 31 -60 t f f f;
#X obj 16 -33 s redx;
#X obj 71 -34 s redy;
#X obj 236 134 v x;
#X obj 264 134 v y;
#X obj 163 138 v x1;
#X obj 199 138 v y1;
#X obj 110 92 t a b b b b;
#X obj 212 252 expr abs($f1-$f2)/2;
#X obj 258 274 expr abs($f1-$f2)/2;
#X obj 189 217 expr ($f1+$f2)/2;
#X obj 216 193 expr ($f1+$f2)/2;
#X obj 106 -163 t f f;
#X obj 236 101 sel 1;
#X obj -22 170 stdout;
#X obj -22 139 t a a;
#X msg -85 130 close;
#X obj 135 -8 % 20;
#X obj 238 -104 gemkeyboard;
#X floatatom 239 -84 5 0 0 0 - - -;
#X obj 239 -61 sel 49;
#X msg 239 -39 0;
#X obj 111 60 gemhead 19;
#X obj 114 184 alpha;
#X obj 325 -48 loadbang;
#X msg 325 -25 \; pd dsp 1;
#X obj 371 180 vj_ruler;
#X obj 371 106 gemhead 20;
#X obj 459 96 r redx;
#X obj 504 97 r redy;
#X obj 459 129 pack f f;
#X obj 386 53 pack f f;
#X msg 385 76 \$2 \$1;
#X obj 113 308 rectangle 1 1;
#X obj 114 161 color 1 1 1 0.2;
#X obj 452 196 gemhead 20;
#X obj 473 228 pack f f;
#X obj 536 229 pack f f;
#X msg 536 251 \$2 \$1;
#X obj 452 270 vj_ruler;
#X connect 0 0 1 0;
#X connect 0 1 2 0;
#X connect 0 2 35 0;
#X connect 0 4 14 0;
#X connect 1 0 3 0;
#X connect 2 0 4 0;
#X connect 3 0 22 0;
#X connect 4 0 23 0;
#X connect 5 0 8 0;
#X connect 5 0 9 0;
#X connect 5 1 7 0;
#X connect 5 1 6 0;
#X connect 6 0 12 1;
#X connect 6 0 54 1;
#X connect 6 0 59 0;
#X connect 6 0 60 1;
#X connect 7 0 12 2;
#X connect 7 0 59 1;
#X connect 8 0 12 3;
#X connect 9 0 12 4;
#X connect 10 0 11 0;
#X connect 10 0 40 0;
#X connect 11 0 10 1;
#X connect 12 0 38 0;
#X connect 13 0 10 0;
#X connect 14 0 15 0;
#X connect 14 0 39 0;
#X connect 15 0 10 1;
#X connect 15 0 17 0;
#X connect 18 0 20 0;
#X connect 19 0 45 0;
#X connect 19 0 50 0;
#X connect 19 0 58 0;
#X connect 20 0 56 0;
#X connect 21 0 13 0;
#X connect 21 1 5 0;
#X connect 21 2 19 0;
#X connect 22 0 8 0;
#X connect 22 1 6 0;
#X connect 22 2 24 0;
#X connect 23 0 9 0;
#X connect 23 1 7 0;
#X connect 23 2 25 0;
#X connect 26 0 31 1;
#X connect 26 0 33 1;
#X connect 27 0 32 1;
#X connect 27 0 34 1;
#X connect 28 0 31 0;
#X connect 28 0 33 0;
#X connect 29 0 32 0;
#X connect 29 0 34 0;
#X connect 30 0 57 0;
#X connect 30 1 28 0;
#X connect 30 2 29 0;
#X connect 31 0 20 1;
#X connect 32 0 20 2;
#X connect 33 0 18 1;
#X connect 34 0 18 2;
#X connect 35 0 21 0;
#X connect 35 1 36 0;
#X connect 36 0 26 0;
#X connect 36 0 27 0;
#X connect 38 0 37 0;
#X connect 38 1 16 0;
#X connect 39 0 37 0;
#X connect 40 0 12 0;
#X connect 41 0 42 0;
#X connect 42 0 43 0;
#X connect 43 0 44 0;
#X connect 43 0 39 0;
#X connect 44 0 17 0;
#X connect 44 0 10 1;
#X connect 45 0 30 0;
#X connect 46 0 18 0;
#X connect 47 0 48 0;
#X connect 50 0 49 0;
#X connect 51 0 53 0;
#X connect 52 0 53 1;
#X connect 52 0 54 0;
#X connect 52 0 60 0;
#X connect 53 0 49 2;
#X connect 54 0 55 0;
#X connect 55 0 49 1;
#X connect 57 0 46 0;
#X connect 58 0 62 0;
#X connect 59 0 62 1;
#X connect 60 0 61 0;
#X connect 61 0 62 2;
#X restore 220 111 pd gemwin;
#N canvas 693 357 563 443 color 0;
#X obj 132 -20 catch~ all;
#X obj 132 22 dac~;
#X floatatom 153 96 5 0 0 0 - - -;
#X obj 153 162 line;
#X obj 192 200 pack f f f;
#X floatatom 260 96 5 0 0 0 - - -;
#X obj 260 162 line;
#X floatatom 293 185 5 0 0 0 - - -;
#X obj 293 251 line;
#N canvas 785 152 450 300 sound 0;
#X obj 119 88 inlet~;
#X obj 119 117 hip~ 50;
#X obj 119 143 lop~ 300;
#X obj 116 250 outlet~;
#X obj 119 169 hip~ 50;
#X obj 119 195 lop~ 300;
#X connect 0 0 1 0;
#X connect 1 0 2 0;
#X connect 2 0 4 0;
#X connect 4 0 5 0;
#X connect 5 0 3 0;
#X restore 192 21 pd sound 50 300;
#N canvas 785 152 450 300 sound 0;
#X obj 119 88 inlet~;
#X obj 110 283 outlet~;
#X obj 119 117 hip~ 300;
#X obj 119 143 lop~ 700;
#X obj 119 179 hip~ 300;
#X obj 119 205 lop~ 700;
#X connect 0 0 2 0;
#X connect 2 0 3 0;
#X connect 3 0 4 0;
#X connect 4 0 5 0;
#X connect 5 0 1 0;
#X restore 263 41 pd sound 300 700;
#N canvas 785 152 450 300 sound 0;
#X obj 119 88 inlet~;
#X obj 118 252 outlet~;
#X obj 119 117 hip~ 700;
#X obj 119 143 lop~ 2000;
#X obj 121 176 hip~ 700;
#X obj 121 202 lop~ 2000;
#X connect 0 0 2 0;
#X connect 2 0 3 0;
#X connect 3 0 4 0;
#X connect 4 0 5 0;
#X connect 5 0 1 0;
#X restore 293 90 pd sound 300 700;
#X msg 192 225 color \$1 \$2 \$3;
#X msg 153 141 \$1 30;
#X obj 192 47 env~;
#X obj 260 66 env~;
#X msg 260 141 \$1 30;
#X msg 293 230 \$1 30;
#X obj 293 164 env~;
#X obj 153 119 expr abs($f1/200);
#X obj 260 119 expr abs($f1/200);
#X obj 293 208 expr abs($f1/200);
#X obj 192 258 outlet;
#X connect 0 0 1 0;
#X connect 0 0 1 1;
#X connect 0 0 9 0;
#X connect 0 0 10 0;
#X connect 0 0 11 0;
#X connect 2 0 19 0;
#X connect 3 0 4 0;
#X connect 4 0 12 0;
#X connect 5 0 20 0;
#X connect 6 0 4 1;
#X connect 7 0 21 0;
#X connect 8 0 4 2;
#X connect 9 0 14 0;
#X connect 10 0 15 0;
#X connect 11 0 18 0;
#X connect 12 0 22 0;
#X connect 13 0 3 0;
#X connect 14 0 2 0;
#X connect 15 0 5 0;
#X connect 16 0 6 0;
#X connect 17 0 8 0;
#X connect 18 0 7 0;
#X connect 19 0 13 0;
#X connect 20 0 16 0;
#X connect 21 0 17 0;
#X restore 223 85 pd color;
#X obj 15 -5 s-rect 1;
#X obj 13 19 s-rect 2;
#X obj 15 40 s-rect 3;
#X obj 14 61 s-rect 4;
#X obj 15 82 s-rect 5;
#X obj 14 102 s-rect 6;
#X obj 15 123 s-rect 7;
#X obj 14 142 s-rect 8;
#X obj 15 163 s-rect 9;
#X obj 76 -26 s-rect 10;
#X obj 76 -4 s-rect 11;
#X obj 76 19 s-rect 12;
#X obj 76 41 s-rect 13;
#X obj 76 63 s-rect 14;
#X obj 76 84 s-rect 15;
#X obj 76 106 s-rect 16;
#X obj 76 127 s-rect 17;
#X obj 76 148 s-rect 18;
#X obj 76 168 s-rect 19;
#X obj 11 192 declare -path /Users/aluan/AVLab/av16;
#X obj 146 -5 loadbang;
#X msg 162 140 reset \, border 0 \, offset 100 100 \, color 0.3 0.3
0.3 \, create \, 1;
#X connect 1 0 3 0;
#X connect 2 0 4 0;
#X connect 2 1 29 0;
#X connect 3 0 2 0;
#X connect 4 0 5 0;
#X connect 7 0 5 0;
#X connect 28 0 1 0;
#X connect 29 0 5 0;
