#N canvas 674 184 734 616 10;
#X obj 354 -69 r drawrect;
#X obj 354 -42 route \$1;
#X obj 381 13 unpack f f f f;
#X obj 381 64 expr ($f1+$f2)/2;
#X obj 408 40 expr ($f1+$f2)/2;
#X floatatom 381 87 5 0 0 0 - - -;
#X floatatom 176 38 5 0 0 0 - - -;
#X obj 107 7 gemhead;
#X obj 107 153 translateXYZ;
#X obj 108 364 rectangle 1 1;
#X obj 33 313 loadbang;
#X msg 33 340 draw line;
#X obj 107 37 t a b b;
#X obj 191 65 + 0.1;
#X obj 161 65 f 0;
#X floatatom 161 90 5 0 0 0 - - -;
#X obj 107 -40 r allclose;
#X obj 107 -15 tgl 15 0 empty empty empty 17 7 0 10 -262144 -1 -1 1
1;
#X obj 354 -17 t b a;
#X msg 354 6 1;
#X obj 357 126 expr abs($f1-$f2)/2;
#X obj 377 154 expr abs($f1-$f2)/2;
#X obj 108 313 scaleXYZ 1 1 0;
#X obj 218 -18 init \$1;
#X floatatom 218 28 5 0 0 0 - - -;
#X obj 67 -80 loadbang;
#X msg 67 -57 0;
#X obj 232 65 fmod 12;
#X obj 161 113 - 6;
#X obj 176 15 + 6;
#X obj 218 5 expr (($f1%10)+1)/50;
#X obj 218 -42 bng 15 250 50 0 empty empty empty 17 7 0 10 -262144
-1 -1;
#X obj 103 232 colorRGB 1 1 1 1;
#X obj 106 264 alpha;
#X obj 145 263 tgl 15 0 empty empty empty 17 7 0 10 -262144 -1 -1 1
1;
#X obj 103 180 t a b;
#X obj 199 161 f;
#X obj 262 161 fmod 100;
#X obj 199 187 / 100;
#X floatatom 199 209 5 0 0 0 - - -;
#X obj 230 161 + 4;
#X connect 0 0 1 0;
#X connect 1 0 18 0;
#X connect 2 0 3 0;
#X connect 2 0 20 0;
#X connect 2 1 4 0;
#X connect 2 1 21 0;
#X connect 2 2 3 1;
#X connect 2 2 20 1;
#X connect 2 3 4 1;
#X connect 2 3 21 1;
#X connect 3 0 5 0;
#X connect 4 0 29 0;
#X connect 5 0 8 1;
#X connect 6 0 14 0;
#X connect 7 0 12 0;
#X connect 8 0 35 0;
#X connect 10 0 11 0;
#X connect 10 0 34 0;
#X connect 11 0 9 0;
#X connect 12 0 8 0;
#X connect 12 2 14 0;
#X connect 13 0 27 0;
#X connect 14 0 13 0;
#X connect 14 0 15 0;
#X connect 15 0 28 0;
#X connect 16 0 17 0;
#X connect 17 0 7 0;
#X connect 18 0 19 0;
#X connect 18 1 2 0;
#X connect 19 0 17 0;
#X connect 20 0 22 1;
#X connect 21 0 22 2;
#X connect 22 0 9 0;
#X connect 23 0 30 0;
#X connect 24 0 13 1;
#X connect 25 0 26 0;
#X connect 26 0 17 0;
#X connect 27 0 14 1;
#X connect 28 0 8 2;
#X connect 29 0 6 0;
#X connect 30 0 24 0;
#X connect 31 0 23 0;
#X connect 32 0 33 0;
#X connect 33 0 22 0;
#X connect 34 0 33 1;
#X connect 35 0 32 0;
#X connect 35 1 36 0;
#X connect 36 0 38 0;
#X connect 36 0 40 0;
#X connect 37 0 36 1;
#X connect 38 0 39 0;
#X connect 39 0 32 4;
#X connect 40 0 37 0;
