#N canvas 355 147 911 666 10;
#X obj 189 -24 r drawrect;
#X obj 189 3 route \$1;
#X obj 162 107 unpack f f f f;
#X obj 126 69 r allclose;
#X obj 126 96 tgl 15 0 empty empty empty 17 7 0 10 -262144 -1 -1 1
1;
#X obj 189 28 t b a;
#X msg 189 51 1;
#X obj 105 141 expr abs($f1-$f2)/2;
#X obj 55 41 loadbang;
#X msg 55 64 0;
#X obj 105 228 osc~ 440;
#X obj 105 316 throw~ all;
#X obj 105 256 *~;
#X floatatom 105 203 5 0 0 0 - - -;
#X obj 105 281 *~ 0;
#X obj 686 -27 r drawrect;
#X obj 686 0 route \$1;
#X obj 713 55 unpack f f f f;
#X obj 713 106 expr ($f1+$f2)/2;
#X obj 740 82 expr ($f1+$f2)/2;
#X floatatom 713 129 5 0 0 0 - - -;
#X floatatom 508 80 5 0 0 0 - - -;
#X obj 439 195 translateXYZ;
#X obj 439 495 rectangle 1 1;
#X obj 363 426 loadbang;
#X msg 363 453 draw line;
#X obj 439 79 t a b b;
#X obj 493 107 f 0;
#X floatatom 493 132 5 0 0 0 - - -;
#X obj 439 2 r allclose;
#X obj 439 27 tgl 15 0 empty empty empty 17 7 0 10 -262144 -1 -1 1
1;
#X obj 686 25 t b a;
#X msg 686 48 1;
#X obj 689 168 expr abs($f1-$f2)/2;
#X obj 709 196 expr abs($f1-$f2)/2;
#X obj 399 -38 loadbang;
#X msg 399 -15 0;
#X obj 439 464 alpha;
#X obj 478 463 tgl 15 0 empty empty empty 17 7 0 10 -262144 -1 -1 1
1;
#X obj 544 223 f;
#X obj 607 223 fmod 100;
#X obj 544 249 / 100;
#X floatatom 544 271 5 0 0 0 - - -;
#X obj 575 223 + 4;
#X obj 232 245 *~ 0.1;
#X obj 232 201 sig~;
#X obj 523 106 + 0.1;
#X obj 576 426 randomF 0.5;
#X obj 576 456 + 0.5;
#X obj 618 455 randomF 0.5;
#X obj 618 485 + 0.5;
#X obj 660 487 randomF 0.5;
#X obj 660 517 + 0.5;
#X obj 439 268 separator;
#X obj 458 300 separator;
#X obj 439 244 t a a b;
#X obj 439 432 colorRGB 1 1 1 1;
#X obj 458 398 rectangle 1 1;
#X obj 517 356 loadbang;
#X obj 517 378 tgl 15 0 empty empty empty 17 7 0 10 -262144 -1 -1 0
1;
#X obj 458 335 colorRGB 1 1 1 1;
#X obj 576 398 t b b b;
#X obj 576 377 bng 15 250 50 0 empty empty empty 17 7 0 10 -262144
-1 -1;
#X obj 576 352 loadbang;
#X obj 439 220 scaleXYZ 1 1 0;
#X obj 105 177 expr 2100-($f1*500+100);
#X floatatom 674 285 5 0 0 0 - - -;
#X obj 674 261 expr 16-($f1+$f2)*2;
#X obj 674 310 k_range 0 16 0.01 0.3;
#X obj 564 107 fmod 16;
#X obj 493 155 - 8;
#X obj 508 57 + 8;
#X obj 458 367 alpha;
#X obj 551 307 * 0.9;
#X obj 669 339 > 15;
#X obj 669 362 change;
#X obj 669 407 sel 1;
#X floatatom 669 386 5 0 0 0 - - -;
#X obj 439 49 gemhead 5;
#X connect 0 0 1 0;
#X connect 1 0 5 0;
#X connect 2 0 7 0;
#X connect 2 2 7 1;
#X connect 3 0 4 0;
#X connect 4 0 14 1;
#X connect 5 0 6 0;
#X connect 5 1 2 0;
#X connect 6 0 4 0;
#X connect 7 0 65 0;
#X connect 8 0 9 0;
#X connect 9 0 4 0;
#X connect 10 0 12 0;
#X connect 12 0 14 0;
#X connect 13 0 10 0;
#X connect 14 0 11 0;
#X connect 15 0 16 0;
#X connect 16 0 31 0;
#X connect 17 0 18 0;
#X connect 17 0 33 0;
#X connect 17 1 19 0;
#X connect 17 1 34 0;
#X connect 17 2 18 1;
#X connect 17 2 33 1;
#X connect 17 3 19 1;
#X connect 17 3 34 1;
#X connect 18 0 20 0;
#X connect 19 0 71 0;
#X connect 20 0 22 1;
#X connect 21 0 27 0;
#X connect 22 0 64 0;
#X connect 24 0 25 0;
#X connect 24 0 38 0;
#X connect 25 0 23 0;
#X connect 26 0 22 0;
#X connect 26 2 27 0;
#X connect 27 0 28 0;
#X connect 27 0 46 0;
#X connect 28 0 70 0;
#X connect 28 0 74 0;
#X connect 29 0 30 0;
#X connect 30 0 78 0;
#X connect 31 0 32 0;
#X connect 31 1 17 0;
#X connect 32 0 30 0;
#X connect 33 0 64 1;
#X connect 33 0 67 0;
#X connect 34 0 64 2;
#X connect 34 0 67 1;
#X connect 35 0 36 0;
#X connect 36 0 30 0;
#X connect 37 0 23 0;
#X connect 38 0 37 1;
#X connect 39 0 41 0;
#X connect 39 0 43 0;
#X connect 40 0 39 1;
#X connect 41 0 42 0;
#X connect 42 0 45 0;
#X connect 42 0 73 0;
#X connect 43 0 40 0;
#X connect 44 0 12 1;
#X connect 45 0 44 0;
#X connect 46 0 69 0;
#X connect 47 0 48 0;
#X connect 48 0 60 1;
#X connect 49 0 50 0;
#X connect 50 0 60 2;
#X connect 51 0 52 0;
#X connect 52 0 60 3;
#X connect 53 0 56 0;
#X connect 54 0 60 0;
#X connect 55 0 53 0;
#X connect 55 1 54 0;
#X connect 55 2 39 0;
#X connect 56 0 37 0;
#X connect 58 0 59 0;
#X connect 60 0 72 0;
#X connect 61 0 47 0;
#X connect 61 1 49 0;
#X connect 61 2 51 0;
#X connect 62 0 61 0;
#X connect 63 0 62 0;
#X connect 64 0 55 0;
#X connect 65 0 13 0;
#X connect 66 0 43 1;
#X connect 66 0 68 0;
#X connect 67 0 66 0;
#X connect 68 0 46 1;
#X connect 69 0 27 1;
#X connect 70 0 22 2;
#X connect 71 0 21 0;
#X connect 72 0 57 0;
#X connect 73 0 60 4;
#X connect 74 0 75 0;
#X connect 75 0 77 0;
#X connect 76 0 62 0;
#X connect 77 0 76 0;
#X connect 78 0 26 0;
