#N canvas 671 274 634 358 10;
#X obj 100 66 gemwin;
#X msg 79 7 destroy;
#X obj 276 231 dac~;
#X obj 506 42 gemmouse 1 1;
#X obj 526 101 expr ($f1*-8)+4;
#X obj 507 74 expr ($f1*8)-4;
#X obj 503 125 pack f f;
#X obj 500 158 s mousePos;
#X obj 549 191 s mouseLeft;
#X obj 146 65 loadbang;
#X obj 406 251 loadbang;
#X msg 406 274 \; pd dsp 1;
#X obj 276 111 catch~ allL;
#X obj 319 133 catch~ allR;
#X obj 276 160 st-pureverb4 /key;
#X msg 397 112 1 0.3;
#X obj 397 88 loadbang;
#X msg 100 33 reset \, FSAA 8 \, border 1 \, offset 100 100 \, color
0.99 0.29 0.53 \, create \, 1;
#X obj 209 283 k_vol;
#X obj 53 123 tga_tri 0;
#X obj 54 147 tga_tri 1;
#X obj 53 169 tga_tri 2;
#X obj 54 193 tga_tri 3;
#X obj 53 215 tga_tri 4;
#X obj 119 123 tga_tri 5;
#X obj 120 147 tga_tri 6;
#X obj 119 169 tga_tri 7;
#X obj 120 193 tga_tri 8;
#X obj 119 215 tga_tri 9;
#X obj 183 121 tga_tri 10;
#X obj 184 145 tga_tri 11;
#X obj 183 167 tga_tri 12;
#X obj 184 191 tga_tri 13;
#X obj 183 213 tga_tri 14;
#X obj 52 239 tga_tri 15;
#X connect 1 0 0 0;
#X connect 3 0 5 0;
#X connect 3 1 4 0;
#X connect 3 2 8 0;
#X connect 4 0 6 1;
#X connect 5 0 6 0;
#X connect 6 0 7 0;
#X connect 9 0 17 0;
#X connect 10 0 11 0;
#X connect 12 0 14 0;
#X connect 13 0 14 1;
#X connect 14 0 2 0;
#X connect 14 0 18 0;
#X connect 14 1 2 1;
#X connect 15 0 14 2;
#X connect 16 0 15 0;
#X connect 17 0 0 0;
