#N canvas 290 23 1134 741 10;
#X obj -100 95 loadbang;
#X obj -58 323 translateXYZ;
#X obj -58 357 color 0 0 0;
#X obj -58 288 gemhead 30;
#X obj 268 396 t f f;
#X obj 336 53 - 0.5;
#X obj 471 484 *~;
#X obj -58 384 circle 0.06;
#X obj -105 184 r mousePos;
#X obj -105 208 distance2d;
#X obj -42 -25 scaleXYZ 1 1.4 1;
#X obj -42 5 color 1 1 1;
#X obj 188 -91 init \$1;
#X obj 188 -62 t f f;
#X obj -42 -55 translateXYZ;
#X obj 188 -33 expr $f1%4;
#X obj 188 -112 bng 15 250 50 0 empty empty empty 17 7 0 10 -262144
-1 -1;
#X obj 188 -5 k_range 0 3 -3 3;
#X obj 297 -35 expr int($f1/4);
#X obj 297 -7 k_range 0 3 3 -3;
#X obj -42 -85 gemhead 10;
#X obj 49 246 gemhead 20;
#X obj 49 303 color 1 0.69 0.11;
#X obj 49 441 rectangle 1 1;
#X obj 243 232 gemhead 40;
#X obj 243 543 color 0 0 0;
#X obj 268 371 expr $f1*2*3.1415926;
#X obj 268 396 t f f;
#X obj 268 346 + 0.125;
#X floatatom 268 321 5 0 0 0 - - -;
#X obj 519 126 loadbang;
#X obj 152 510 loadbang;
#X obj -42 37 triangle 0.55;
#X obj -42 98 triangle 0.55;
#X obj 295 448 expr sin($f1)*1.1;
#X obj 268 422 expr cos($f1)*1.1;
#X obj 519 102 bng 15 250 50 0 empty empty empty 17 7 0 10 -262144
-1 -1;
#X floatatom 520 215 5 0 0 0 - - -;
#X obj 270 300 expr abs(($f1)-0.5)/2.0;
#X floatatom 520 294 5 0 0 0 - - -;
#X obj 471 484 *~;
#X obj 600 379 expr~ fmod($v1 \, 0.5);
#X obj 463 384 *~ 100;
#X obj 463 356 + 1;
#X obj 463 412 osc~ 0;
#X obj 471 509 *~ 0.1;
#X floatatom 177 282 5 0 0 0 - - -;
#X floatatom 119 348 5 0 0 0 - - -;
#X obj 177 348 - 0.5;
#X obj 520 271 unsig~ 10;
#X obj 650 -22 < 0.01;
#X obj 650 7 tgl 15 0 empty empty empty 17 7 0 10 -262144 -1 -1 0 1
;
#X obj 650 27 change;
#X obj 650 53 sel 1;
#X obj 759 168 v \$0-life;
#X obj 650 77 v \$0-life;
#X obj 759 142 t b;
#X obj 759 214 v \$0-life;
#X obj 415 63 v \$0-life;
#X obj 49 373 translateXYZ 0 0 0;
#X obj 520 316 spigot;
#X msg 650 126 0;
#X floatatom 650 287 5 0 0 0 - - -;
#X msg 707 126 1;
#X obj 415 9 loadbang;
#X obj 243 571 curve 2;
#X obj 339 501 pack f f 0;
#X obj 268 503 pack f f 0;
#X obj 471 561 throw~ allL;
#X obj 557 485 *~;
#X obj 557 458 osc~ 0;
#X obj 557 510 *~ 0.1;
#X obj 557 562 throw~ allR;
#X obj -35 182 pack f f;
#X floatatom -105 229 5 0 0 0 - - -;
#X floatatom -35 154 5 0 0 0 - - -;
#X floatatom 10 155 5 0 0 0 - - -;
#X obj 268 479 + 0;
#X obj 295 476 + 0;
#X obj 177 325 t f f;
#X obj 297 17 t f f;
#X obj 49 275 translateXYZ 0 3 0;
#X obj -71 438 sel 0 1;
#X msg -71 463 0 0 0;
#X obj -42 67 color 0.52 0.82 0.25;
#X msg -54 493 0.52 0.82 0.25;
#X obj -198 284 spigot;
#X obj -198 245 r mouseLeft;
#X obj -197 380 spigot;
#X obj -149 312 / 2;
#X obj -149 337 abs;
#X obj -197 445 v \$0-life;
#X obj -197 414 moses 0.51;
#X msg 415 35 0;
#X msg -100 122 draw line \, width 2;
#X obj 615 219 sel 1;
#X msg 615 242 1;
#X msg 152 532 width 2;
#X msg -5 440 0.06;
#X msg -7 464 0.08;
#X obj -105 254 < 0.2;
#X obj -112 319 sel 1;
#X msg -115 342 1;
#X obj -142 377 sel 0;
#X msg -120 407 0;
#X obj 759 190 - 0.02;
#X obj 520 244 phasor~ 0;
#X obj 650 100 moses 0.06;
#X msg 63 26 1 1 1;
#X obj 65 0 sel 0 1;
#X obj 274 108 unsig~ 10;
#X floatatom 274 193 5 0 0 0 - - -;
#X obj 274 168 expr if($f1>0.45 ||$f1< 0.05 \, 1 \, 0);
#X obj 274 136 spigot;
#X obj 49 407 scaleXYZ 0.04 0 0.1;
#X msg 102 87 0.56 0.36 0.21;
#X msg 95 46 1 1 0;
#X obj 650 322 sig~;
#X obj 471 532 *~;
#X obj 557 533 *~;
#X msg 695 429 \$1 500;
#X obj 512 415 expr~ if($v1>0.48 \, 1 \, 0);
#X obj 600 482 expr~ if($v1<0.02 \, 1 \, 0);
#X obj 520 168 + 1;
#X obj 519 148 random 20;
#X obj 520 191 / 20;
#X connect 0 0 94 0;
#X connect 1 0 2 0;
#X connect 2 0 7 0;
#X connect 3 0 1 0;
#X connect 5 0 76 0;
#X connect 5 0 66 1;
#X connect 5 0 78 1;
#X connect 8 0 9 0;
#X connect 9 0 74 0;
#X connect 10 0 11 0;
#X connect 11 0 32 0;
#X connect 12 0 13 0;
#X connect 13 0 15 0;
#X connect 13 1 18 0;
#X connect 14 0 10 0;
#X connect 15 0 17 0;
#X connect 16 0 12 0;
#X connect 17 0 14 1;
#X connect 17 0 66 0;
#X connect 17 0 75 0;
#X connect 17 0 77 1;
#X connect 17 0 81 1;
#X connect 18 0 19 0;
#X connect 19 0 80 0;
#X connect 20 0 14 0;
#X connect 21 0 81 0;
#X connect 22 0 59 0;
#X connect 24 0 25 0;
#X connect 25 0 65 0;
#X connect 26 0 27 0;
#X connect 27 0 35 0;
#X connect 27 1 34 0;
#X connect 28 0 26 0;
#X connect 29 0 28 0;
#X connect 30 0 124 0;
#X connect 31 0 97 0;
#X connect 32 0 84 0;
#X connect 34 0 78 0;
#X connect 35 0 77 0;
#X connect 36 0 30 0;
#X connect 37 0 106 0;
#X connect 38 0 29 0;
#X connect 39 0 60 0;
#X connect 40 0 45 0;
#X connect 41 0 110 0;
#X connect 41 0 121 0;
#X connect 41 0 122 0;
#X connect 42 0 44 0;
#X connect 42 0 70 0;
#X connect 43 0 42 0;
#X connect 44 0 40 0;
#X connect 45 0 118 0;
#X connect 46 0 79 0;
#X connect 47 0 59 2;
#X connect 48 0 47 0;
#X connect 49 0 39 0;
#X connect 49 0 50 0;
#X connect 50 0 51 0;
#X connect 51 0 52 0;
#X connect 52 0 53 0;
#X connect 53 0 55 0;
#X connect 54 0 105 0;
#X connect 55 0 107 0;
#X connect 56 0 54 0;
#X connect 59 0 114 0;
#X connect 60 0 38 0;
#X connect 61 0 62 0;
#X connect 62 0 60 1;
#X connect 62 0 113 1;
#X connect 62 0 117 0;
#X connect 63 0 62 0;
#X connect 64 0 93 0;
#X connect 66 0 65 2;
#X connect 66 0 65 1;
#X connect 67 0 65 1;
#X connect 69 0 71 0;
#X connect 70 0 69 0;
#X connect 71 0 119 0;
#X connect 73 0 9 1;
#X connect 74 0 89 0;
#X connect 74 0 100 0;
#X connect 75 0 73 0;
#X connect 75 0 1 1;
#X connect 76 0 73 1;
#X connect 76 0 1 2;
#X connect 77 0 67 0;
#X connect 78 0 67 1;
#X connect 79 0 48 0;
#X connect 79 1 114 2;
#X connect 80 0 14 2;
#X connect 80 0 81 2;
#X connect 80 1 5 0;
#X connect 81 0 22 0;
#X connect 82 0 83 0;
#X connect 82 0 98 0;
#X connect 82 1 85 0;
#X connect 82 1 99 0;
#X connect 83 0 2 1;
#X connect 84 0 33 0;
#X connect 85 0 2 1;
#X connect 86 0 88 1;
#X connect 86 0 95 0;
#X connect 86 0 103 0;
#X connect 87 0 86 0;
#X connect 88 0 92 0;
#X connect 89 0 90 0;
#X connect 90 0 88 0;
#X connect 92 0 91 0;
#X connect 92 0 46 0;
#X connect 93 0 58 0;
#X connect 94 0 33 0;
#X connect 95 0 96 0;
#X connect 96 0 62 0;
#X connect 97 0 65 0;
#X connect 98 0 7 1;
#X connect 99 0 7 1;
#X connect 100 0 82 0;
#X connect 100 0 101 0;
#X connect 101 0 102 0;
#X connect 102 0 86 1;
#X connect 103 0 104 0;
#X connect 104 0 86 1;
#X connect 105 0 57 0;
#X connect 105 0 46 0;
#X connect 106 0 49 0;
#X connect 106 0 41 0;
#X connect 107 0 61 0;
#X connect 107 1 56 0;
#X connect 107 1 63 0;
#X connect 108 0 11 1;
#X connect 109 0 108 0;
#X connect 109 1 116 0;
#X connect 110 0 113 0;
#X connect 111 0 109 0;
#X connect 112 0 111 0;
#X connect 113 0 112 0;
#X connect 114 0 23 0;
#X connect 116 0 11 1;
#X connect 117 0 118 1;
#X connect 117 0 119 1;
#X connect 118 0 68 0;
#X connect 119 0 72 0;
#X connect 121 0 40 1;
#X connect 122 0 69 1;
#X connect 123 0 43 0;
#X connect 123 0 125 0;
#X connect 124 0 123 0;
#X connect 125 0 37 0;
