#N canvas 781 177 613 565 10;
#X obj 190 470 dac~;
#X obj 190 391 st-pureverb /key;
#X obj 305 335 loadbang;
#X msg 305 360 1 0.4;
#X obj 180 73 loadbang;
#X msg 180 98 \; pd dsp 1;
#X obj 189 225 k_vol;
#X msg 102 140 pd~ stop;
#X obj 189 341 *~ 0.4;
#X obj 233 366 *~ 0.4;
#X obj 305 224 k_vol;
#X obj 180 170 pd~ -noutsig 2 -fifo 20;
#X msg 265 104 -nogui;
#X msg 180 139 pd~ start -nogui av19_gem.pd;
#X connect 1 0 0 0;
#X connect 1 1 0 1;
#X connect 2 0 3 0;
#X connect 3 0 1 2;
#X connect 4 0 5 0;
#X connect 6 0 8 0;
#X connect 7 0 11 0;
#X connect 8 0 1 0;
#X connect 9 0 1 1;
#X connect 10 0 9 0;
#X connect 11 1 6 0;
#X connect 11 2 10 0;
#X connect 13 0 11 0;
