#N canvas 514 244 507 303 10;
#N canvas 664 207 503 573 gemwin 0;
#X obj 20 71 sel 0 1;
#X msg 20 94 destroy;
#X obj 20 149 gemwin;
#X msg 72 79 \; pd dsp \$1;
#X obj 20 42 t f f;
#X obj 20 16 inlet;
#X obj 259 325 square 4;
#X obj 259 182 gemhead 200;
#X obj 276 247 loadbang;
#X obj 20 176 gemhead 200;
#X obj 41 367 loadbang;
#X floatatom 58 426 5 0 0 0 - - -, f 5;
#X obj 20 246 t a b;
#X obj 47 266 f;
#X obj 73 266 + 1;
#X obj 20 295 separator;
#X obj 21 454 rectangle 1 1;
#X obj 57 322 k_range 0 3 -3 3;
#X obj 83 292 % 4;
#X obj 111 292 expr int($f1/4);
#X obj 154 362 k_range 0 3 -3 3;
#X obj 20 346 translateXYZ 0 -3 0;
#X obj 101 266 % 4;
#X obj 20 221 repeat 4;
#X obj 20 199 color 1 1 1;
#X obj 259 208 color 1 1 1;
#X msg 277 270 draw line \, width 4;
#X msg 41 390 draw line \, width 2;
#X msg 39 121 reset \, FSAA 8 \, border 1 \, offset 100 100 \, color
0.2 0.2 0.2 \, dimen 500 500 \, create \, 1;
#X connect 0 0 1 0;
#X connect 0 1 28 0;
#X connect 1 0 2 0;
#X connect 4 0 0 0;
#X connect 4 1 3 0;
#X connect 5 0 4 0;
#X connect 7 0 25 0;
#X connect 8 0 26 0;
#X connect 9 0 24 0;
#X connect 10 0 27 0;
#X connect 11 0 16 1;
#X connect 12 0 15 0;
#X connect 12 1 13 0;
#X connect 13 0 14 0;
#X connect 13 0 18 0;
#X connect 13 0 19 0;
#X connect 14 0 22 0;
#X connect 15 0 21 0;
#X connect 17 0 21 1;
#X connect 18 0 17 0;
#X connect 19 0 20 0;
#X connect 21 0 16 0;
#X connect 22 0 13 1;
#X connect 23 0 12 0;
#X connect 24 0 23 0;
#X connect 25 0 6 0;
#X connect 26 0 6 0;
#X connect 27 0 16 0;
#X connect 28 0 2 0;
#X restore 144 86 pd gemwin;
#X obj 144 50 tgl 30 0 empty empty empty 17 7 0 10 -262144 -1 -1 1
1;
#N canvas 794 199 591 569 shader-noise 0;
#X obj 110 379 pix_texture;
#X obj 110 327 glsl_program;
#X obj 201 246 pack 0 0;
#X obj 222 212 t b f;
#X obj 222 164 change;
#X obj 201 135 change;
#X msg 201 272 link \$1 \$2;
#X floatatom 222 190 2 0 0 0 ID - -, f 2;
#X floatatom 201 158 2 0 0 0 ID - -, f 2;
#X obj 110 200 glsl_vertex;
#X obj 110 291 glsl_fragment;
#X obj 110 82 gemframebuffer;
#X obj 110 107 translateXYZ 0 0 -4;
#X obj -16 104 t b b;
#X obj -16 81 bng 15 250 50 0 empty empty empty 17 7 0 10 -262144 -1
-1;
#X obj 182 20 loadbang;
#X obj 110 14 gemhead 30;
#X obj 207 83 s totex;
#X msg 198 407 time \$1;
#X floatatom 198 382 5 0 0 0 - - -, f 5;
#X obj 110 44 t a b;
#X obj 198 323 f;
#X obj 278 323 fmod 10;
#X obj 198 354 expr 20*abs(($f1/10)-0.5);
#X msg 182 47 format RGBA \, color 0 0 0 0 \, dimen 500 500;
#X obj 110 406 rectangle 4 4;
#X obj -20 257 gemhead 100;
#X obj -20 352 pix_texture;
#X obj 43 327 r totex;
#X obj -20 387 alpha;
#X obj -20 422 rectangle 4 4;
#X obj -20 284 translateXYZ 0 0 0;
#X text 25 500 (1 5)(2 \, 2.5) (3 \, 1.65)(4 \, 1.25)(5 \, 1)(6 \,
0.825)(7 \, 0.71)(8 \, 0.62)(20 0.25);
#X obj 132 262 r toshader;
#X obj 110 175 alpha;
#X obj 199 478 s toshader;
#X obj -16 55 loadbang;
#X obj 226 323 + 0.02;
#X obj 273 390 r time;
#X obj 193 445 spigot;
#X msg 11 128 open noise.vert;
#X msg -16 183 open noise-2.frag;
#X connect 0 0 25 0;
#X connect 1 0 0 0;
#X connect 2 0 6 0;
#X connect 3 0 2 0;
#X connect 3 1 2 1;
#X connect 4 0 7 0;
#X connect 5 0 8 0;
#X connect 6 0 1 0;
#X connect 7 0 3 0;
#X connect 8 0 2 0;
#X connect 9 0 10 0;
#X connect 9 1 5 0;
#X connect 10 0 1 0;
#X connect 10 1 4 0;
#X connect 11 0 12 0;
#X connect 11 1 17 0;
#X connect 12 0 34 0;
#X connect 13 0 41 0;
#X connect 13 1 40 0;
#X connect 14 0 13 0;
#X connect 15 0 24 0;
#X connect 16 0 20 0;
#X connect 18 0 39 0;
#X connect 19 0 18 0;
#X connect 20 0 11 0;
#X connect 20 1 21 0;
#X connect 21 0 23 0;
#X connect 21 0 37 0;
#X connect 22 0 21 1;
#X connect 23 0 19 0;
#X connect 24 0 11 0;
#X connect 26 0 31 0;
#X connect 27 0 29 0;
#X connect 28 0 27 1;
#X connect 29 0 30 0;
#X connect 31 0 27 0;
#X connect 33 0 1 0;
#X connect 34 0 9 0;
#X connect 36 0 14 0;
#X connect 37 0 22 0;
#X connect 38 0 39 1;
#X connect 39 0 35 0;
#X connect 40 0 9 0;
#X connect 41 0 10 0;
#X restore 144 153 pd shader-noise;
#N canvas 399 114 995 663 gemmouse 0;
#X floatatom 109 84 5 0 0 0 - - -, f 5;
#X floatatom 163 85 5 0 0 0 - - -, f 5;
#X obj 267 71 sel 0 1;
#X obj 129 227 v x;
#X obj 239 184 v y;
#X obj 91 225 v x1;
#X obj 185 240 v y1;
#X obj 223 41 f;
#X obj 250 41 + 1;
#X obj 110 280 pack f f f f f;
#X obj 223 16 sel 0;
#X obj 137 369 s drawrect;
#X obj 399 181 s allclose;
#X obj 241 410 translateXYZ;
#X obj 242 253 tgl 15 0 empty empty empty 17 7 0 10 -262144 -1 -1 0
1;
#X obj 241 462 scaleXYZ 1 1 0;
#X obj 302 25 t f f f;
#X obj 109 107 t f f f;
#X obj 163 108 t f f f;
#X obj 432 316 v x;
#X obj 460 316 v y;
#X obj 359 320 v x1;
#X obj 395 320 v y1;
#X obj 242 302 t a b b b b;
#X obj 340 427 expr abs($f1-$f2)/2;
#X obj 386 449 expr abs($f1-$f2)/2;
#X obj 317 392 expr ($f1+$f2)/2;
#X obj 367 364 expr ($f1+$f2)/2;
#X obj 302 -2 t f f;
#X obj 432 285 sel 1;
#X obj 110 338 stdout;
#X obj 110 307 t a a;
#X msg 61 301 close;
#X obj 398 91 gemkeyboard;
#X floatatom 399 111 5 0 0 0 - - -, f 5;
#X obj 399 134 sel 49;
#X msg 399 156 0;
#X obj 242 359 alpha;
#X obj 241 483 rectangle 1 1;
#X obj 242 274 gemhead 300;
#X obj 126 419 loadbang;
#X msg 127 442 draw line \, width 2;
#X obj 242 336 color 1 1 1 1;
#X floatatom 109 -33 5 0 0 0 - - -, f 5;
#X floatatom 149 -37 5 0 0 0 - - -, f 5;
#X obj 109 -86 expr if(modf($f1)>0.5 \, int($f1)+1 \, int($f1));
#X obj 149 -61 expr if(modf($f1)>0.5 \, int($f1)+1 \, int($f1));
#X obj 223 76 % 4;
#X obj -91 115 pack f f f f f;
#X obj -73 43 v xx;
#X obj -92 66 v xx1;
#X obj -24 69 v yy1;
#X obj -41 42 v yy;
#X obj -93 -7 t f f;
#X obj -34 -6 t f f;
#X obj -97 -88 sel 0 1;
#X obj -91 139 s rectarea;
#X floatatom 43 133 5 0 0 0 - - -, f 5;
#X obj 109 -122 gemmouse 40 40;
#X obj 149 -14 k_range 0 40 4 -4;
#X obj 103 13 k_range 0 40 -4 4;
#X obj 39 163 t b;
#X obj -67 198 gemkeyboard;
#X floatatom -67 226 5 0 0 0 - - -, f 5;
#X obj 33 199 v id;
#X floatatom -70 355 5 0 0 0 - - -, f 5;
#X obj -67 251 split 18 21;
#X floatatom -67 276 5 0 0 0 - - -, f 5;
#X obj -68 328 - 18;
#X obj 546 271 s toshader;
#X obj 505 85 r allclose;
#X msg 546 240 pos0 0 0 0 0;
#X msg 521 218 pos1 0 0 0 0;
#X msg 519 175 pos2 0 0 0 0;
#X msg 494 152 pos3 0 0 0 0;
#X msg 615 153 \; pos0 const 0 \; pos1 const 0 \; pos2 const 0 \; pos3
const 0 \;;
#X obj 505 115 t b b b b b b;
#X obj 720 239 v pos0_num;
#X obj 716 269 v pos1_num;
#X obj 717 293 v pos2_num;
#X obj 713 323 v pos3_num;
#X msg 743 204 0;
#X connect 0 0 17 0;
#X connect 1 0 18 0;
#X connect 2 0 5 0;
#X connect 2 0 6 0;
#X connect 2 1 4 0;
#X connect 2 1 3 0;
#X connect 3 0 9 1;
#X connect 4 0 9 2;
#X connect 5 0 9 3;
#X connect 6 0 9 4;
#X connect 7 0 8 0;
#X connect 7 0 47 0;
#X connect 8 0 7 1;
#X connect 9 0 31 0;
#X connect 10 0 7 0;
#X connect 13 0 15 0;
#X connect 14 0 39 0;
#X connect 15 0 38 0;
#X connect 16 0 10 0;
#X connect 16 1 2 0;
#X connect 16 2 14 0;
#X connect 17 0 5 0;
#X connect 17 1 3 0;
#X connect 18 0 6 0;
#X connect 18 1 4 0;
#X connect 19 0 24 1;
#X connect 19 0 26 1;
#X connect 20 0 25 1;
#X connect 20 0 27 1;
#X connect 21 0 24 0;
#X connect 21 0 26 0;
#X connect 22 0 25 0;
#X connect 22 0 27 0;
#X connect 23 0 42 0;
#X connect 23 1 21 0;
#X connect 23 2 22 0;
#X connect 24 0 15 1;
#X connect 25 0 15 2;
#X connect 26 0 13 1;
#X connect 27 0 13 2;
#X connect 28 0 16 0;
#X connect 28 1 29 0;
#X connect 28 1 55 0;
#X connect 29 0 19 0;
#X connect 29 0 20 0;
#X connect 31 0 30 0;
#X connect 31 1 11 0;
#X connect 32 0 30 0;
#X connect 33 0 34 0;
#X connect 34 0 35 0;
#X connect 35 0 36 0;
#X connect 35 0 32 0;
#X connect 36 0 12 0;
#X connect 36 0 7 1;
#X connect 37 0 13 0;
#X connect 39 0 23 0;
#X connect 40 0 41 0;
#X connect 41 0 38 0;
#X connect 42 0 37 0;
#X connect 43 0 53 0;
#X connect 43 0 60 0;
#X connect 44 0 54 0;
#X connect 44 0 59 0;
#X connect 45 0 43 0;
#X connect 46 0 44 0;
#X connect 47 0 57 0;
#X connect 48 0 56 0;
#X connect 49 0 48 1;
#X connect 50 0 48 3;
#X connect 51 0 48 4;
#X connect 52 0 48 2;
#X connect 53 0 50 0;
#X connect 53 1 49 0;
#X connect 54 0 52 0;
#X connect 54 1 51 0;
#X connect 55 0 50 0;
#X connect 55 0 51 0;
#X connect 55 1 49 0;
#X connect 55 1 52 0;
#X connect 57 0 61 0;
#X connect 58 0 45 0;
#X connect 58 1 46 0;
#X connect 58 2 28 0;
#X connect 59 0 1 0;
#X connect 60 0 0 0;
#X connect 61 0 64 0;
#X connect 62 0 63 0;
#X connect 63 0 66 0;
#X connect 64 0 48 0;
#X connect 64 0 9 0;
#X connect 65 0 64 0;
#X connect 66 0 67 0;
#X connect 67 0 68 0;
#X connect 68 0 65 0;
#X connect 70 0 76 0;
#X connect 71 0 69 0;
#X connect 72 0 69 0;
#X connect 73 0 69 0;
#X connect 74 0 69 0;
#X connect 76 0 74 0;
#X connect 76 1 73 0;
#X connect 76 2 72 0;
#X connect 76 3 71 0;
#X connect 76 4 75 0;
#X connect 76 5 81 0;
#X connect 81 0 77 0;
#X connect 81 0 78 0;
#X connect 81 0 79 0;
#X connect 81 0 80 0;
#X restore 145 108 pd gemmouse;
#N canvas 391 38 857 719 draw-rect 0;
#X obj 141 66 r drawrect;
#X obj 68 198 translateXYZ;
#X obj 68 334 rectangle 1 1;
#X obj 22 144 loadbang;
#X obj 68 70 r allclose;
#X obj 68 95 tgl 15 0 empty empty empty 17 7 0 10 -262144 -1 -1 1 1
;
#X obj 141 118 t b a;
#X msg 141 141 1;
#X obj 68 252 scaleXYZ 1 1 0;
#X floatatom 95 228 5 0 0 0 - - -, f 5;
#X floatatom 131 228 5 0 0 0 - - -, f 5;
#X obj 68 117 gemhead 400;
#X obj 141 93 route 0;
#X obj 174 373 text2d;
#X obj 293 181 loadbang;
#X obj 218 238 gemhead 500;
#N canvas 696 254 567 487 translate 0;
#X obj 120 -40 unpack f f f f;
#X obj 128 96 expr ($f1+$f2)/2;
#X obj 187 130 expr ($f1+$f2)/2;
#X floatatom 128 119 5 0 0 0 - - -, f 5;
#X obj 104 158 expr abs($f1-$f2)/2;
#X obj 204 223 expr abs($f1-$f2)/2;
#X obj 121 241 +;
#X obj 95 69 t f f;
#X obj 148 71 t f f;
#X obj 124 311 outlet;
#X obj 186 314 outlet;
#X obj -115 303 outlet;
#X obj -53 306 outlet;
#X obj 0 305 outlet;
#X obj 62 308 outlet;
#X obj 123 -65 inlet;
#X obj 275 29 t f f;
#X obj 171 22 t f f;
#X obj 188 257 -;
#X obj 187 280 + 0.12;
#X obj 121 267 + 0.08;
#X connect 0 0 7 0;
#X connect 0 1 8 0;
#X connect 0 2 17 0;
#X connect 0 3 16 0;
#X connect 1 0 3 0;
#X connect 1 0 11 0;
#X connect 2 0 12 0;
#X connect 2 0 18 0;
#X connect 3 0 6 1;
#X connect 4 0 6 0;
#X connect 4 0 13 0;
#X connect 5 0 14 0;
#X connect 5 0 18 1;
#X connect 6 0 20 0;
#X connect 7 0 4 0;
#X connect 7 1 1 0;
#X connect 8 0 2 0;
#X connect 8 1 5 0;
#X connect 15 0 0 0;
#X connect 16 0 2 1;
#X connect 16 1 5 1;
#X connect 17 0 1 1;
#X connect 17 1 4 1;
#X connect 18 0 19 0;
#X connect 19 0 10 0;
#X connect 20 0 9 0;
#X restore 168 140 pd translate;
#X obj 218 268 translateXYZ 0 0 0;
#X obj 155 411 r drawrect;
#X obj 82 543 translateXYZ;
#X obj 82 658 rectangle 1 1;
#X obj 36 489 loadbang;
#X obj 82 415 r allclose;
#X obj 82 440 tgl 15 0 empty empty empty 17 7 0 10 -262144 -1 -1 1
1;
#X obj 155 463 t b a;
#X msg 155 486 1;
#X obj 82 597 scaleXYZ 1 1 0;
#X floatatom 109 573 5 0 0 0 - - -, f 5;
#X floatatom 145 573 5 0 0 0 - - -, f 5;
#X obj 82 462 gemhead 400;
#X msg 36 516 draw line \, width 2;
#X obj 191 658 text2d;
#X obj 266 524 loadbang;
#X obj 191 581 gemhead 500;
#N canvas 696 254 567 487 translate 0;
#X obj 120 -40 unpack f f f f;
#X obj 128 96 expr ($f1+$f2)/2;
#X obj 187 130 expr ($f1+$f2)/2;
#X floatatom 128 119 5 0 0 0 - - -, f 5;
#X obj 104 158 expr abs($f1-$f2)/2;
#X obj 204 223 expr abs($f1-$f2)/2;
#X obj 121 241 +;
#X obj 95 69 t f f;
#X obj 148 71 t f f;
#X obj 124 311 outlet;
#X obj 186 314 outlet;
#X obj -115 303 outlet;
#X obj -53 306 outlet;
#X obj 0 305 outlet;
#X obj 62 308 outlet;
#X obj 123 -65 inlet;
#X obj 275 29 t f f;
#X obj 171 22 t f f;
#X obj 188 257 -;
#X obj 187 280 + 0.12;
#X obj 121 267 + 0.08;
#X connect 0 0 7 0;
#X connect 0 1 8 0;
#X connect 0 2 17 0;
#X connect 0 3 16 0;
#X connect 1 0 3 0;
#X connect 1 0 11 0;
#X connect 2 0 12 0;
#X connect 2 0 18 0;
#X connect 3 0 6 1;
#X connect 4 0 6 0;
#X connect 4 0 13 0;
#X connect 5 0 14 0;
#X connect 5 0 18 1;
#X connect 6 0 20 0;
#X connect 7 0 4 0;
#X connect 7 1 1 0;
#X connect 8 0 2 0;
#X connect 8 1 5 0;
#X connect 15 0 0 0;
#X connect 16 0 2 1;
#X connect 16 1 5 1;
#X connect 17 0 1 1;
#X connect 17 1 4 1;
#X connect 18 0 19 0;
#X connect 19 0 10 0;
#X connect 20 0 9 0;
#X restore 182 485 pd translate;
#X obj 191 611 translateXYZ 0 0 0;
#X obj 444 68 r drawrect;
#X obj 371 200 translateXYZ;
#X obj 371 315 rectangle 1 1;
#X obj 325 146 loadbang;
#X obj 371 72 r allclose;
#X obj 371 97 tgl 15 0 empty empty empty 17 7 0 10 -262144 -1 -1 1
1;
#X obj 444 120 t b a;
#X msg 444 143 1;
#X obj 371 254 scaleXYZ 1 1 0;
#X floatatom 398 230 5 0 0 0 - - -, f 5;
#X floatatom 434 230 5 0 0 0 - - -, f 5;
#X obj 371 119 gemhead 400;
#X msg 325 173 draw line \, width 2;
#X obj 480 315 text2d;
#X obj 555 181 loadbang;
#X obj 480 238 gemhead 500;
#N canvas 696 254 567 487 translate 0;
#X obj 120 -40 unpack f f f f;
#X obj 128 96 expr ($f1+$f2)/2;
#X obj 187 130 expr ($f1+$f2)/2;
#X floatatom 128 119 5 0 0 0 - - -, f 5;
#X obj 104 158 expr abs($f1-$f2)/2;
#X obj 204 223 expr abs($f1-$f2)/2;
#X obj 121 241 +;
#X obj 95 69 t f f;
#X obj 148 71 t f f;
#X obj 124 311 outlet;
#X obj 186 314 outlet;
#X obj -115 303 outlet;
#X obj -53 306 outlet;
#X obj 0 305 outlet;
#X obj 62 308 outlet;
#X obj 123 -65 inlet;
#X obj 275 29 t f f;
#X obj 171 22 t f f;
#X obj 188 257 -;
#X obj 187 280 + 0.12;
#X obj 121 267 + 0.08;
#X connect 0 0 7 0;
#X connect 0 1 8 0;
#X connect 0 2 17 0;
#X connect 0 3 16 0;
#X connect 1 0 3 0;
#X connect 1 0 11 0;
#X connect 2 0 12 0;
#X connect 2 0 18 0;
#X connect 3 0 6 1;
#X connect 4 0 6 0;
#X connect 4 0 13 0;
#X connect 5 0 14 0;
#X connect 5 0 18 1;
#X connect 6 0 20 0;
#X connect 7 0 4 0;
#X connect 7 1 1 0;
#X connect 8 0 2 0;
#X connect 8 1 5 0;
#X connect 15 0 0 0;
#X connect 16 0 2 1;
#X connect 16 1 5 1;
#X connect 17 0 1 1;
#X connect 17 1 4 1;
#X connect 18 0 19 0;
#X connect 19 0 10 0;
#X connect 20 0 9 0;
#X restore 471 142 pd translate;
#X obj 480 268 translateXYZ 0 0 0;
#X obj 457 377 r drawrect;
#X obj 384 509 translateXYZ;
#X obj 384 624 rectangle 1 1;
#X obj 338 455 loadbang;
#X obj 384 381 r allclose;
#X obj 384 406 tgl 15 0 empty empty empty 17 7 0 10 -262144 -1 -1 1
1;
#X obj 457 429 t b a;
#X msg 457 452 1;
#X obj 384 563 scaleXYZ 1 1 0;
#X floatatom 411 539 5 0 0 0 - - -, f 5;
#X floatatom 447 539 5 0 0 0 - - -, f 5;
#X obj 384 428 gemhead 400;
#X msg 338 482 draw line \, width 2;
#X obj 493 624 text2d;
#X obj 568 490 loadbang;
#X obj 493 547 gemhead 500;
#N canvas 696 254 567 487 translate 0;
#X obj 120 -40 unpack f f f f;
#X obj 128 96 expr ($f1+$f2)/2;
#X obj 187 130 expr ($f1+$f2)/2;
#X floatatom 128 119 5 0 0 0 - - -, f 5;
#X obj 104 158 expr abs($f1-$f2)/2;
#X obj 204 223 expr abs($f1-$f2)/2;
#X obj 121 241 +;
#X obj 95 69 t f f;
#X obj 148 71 t f f;
#X obj 124 311 outlet;
#X obj 186 314 outlet;
#X obj -115 303 outlet;
#X obj -53 306 outlet;
#X obj 0 305 outlet;
#X obj 62 308 outlet;
#X obj 123 -65 inlet;
#X obj 275 29 t f f;
#X obj 171 22 t f f;
#X obj 188 257 -;
#X obj 187 280 + 0.12;
#X obj 121 267 + 0.08;
#X connect 0 0 7 0;
#X connect 0 1 8 0;
#X connect 0 2 17 0;
#X connect 0 3 16 0;
#X connect 1 0 3 0;
#X connect 1 0 11 0;
#X connect 2 0 12 0;
#X connect 2 0 18 0;
#X connect 3 0 6 1;
#X connect 4 0 6 0;
#X connect 4 0 13 0;
#X connect 5 0 14 0;
#X connect 5 0 18 1;
#X connect 6 0 20 0;
#X connect 7 0 4 0;
#X connect 7 1 1 0;
#X connect 8 0 2 0;
#X connect 8 1 5 0;
#X connect 15 0 0 0;
#X connect 16 0 2 1;
#X connect 16 1 5 1;
#X connect 17 0 1 1;
#X connect 17 1 4 1;
#X connect 18 0 19 0;
#X connect 19 0 10 0;
#X connect 20 0 9 0;
#X restore 484 451 pd translate;
#X obj 493 577 translateXYZ 0 0 0;
#X obj 444 95 route 1;
#X obj 155 438 route 2;
#X obj 457 404 route 3;
#X msg 22 171 draw line \, width 2;
#N canvas 680 344 450 300 color 0;
#X obj 80 198 color 0 0 0;
#X obj 151 52 inlet;
#X obj 142 91 f;
#X obj 214 89 fmod 1;
#X obj 72 54 t a b;
#X obj 71 18 inlet;
#X msg 146 163 \$1 \$1 \$1;
#X obj 83 240 outlet;
#X obj 146 115 expr 2*abs($f1-0.5);
#X obj 168 90 + 0.05;
#X connect 0 0 7 0;
#X connect 1 0 2 0;
#X connect 2 0 8 0;
#X connect 2 0 9 0;
#X connect 3 0 2 1;
#X connect 4 0 0 0;
#X connect 4 1 2 0;
#X connect 5 0 4 0;
#X connect 6 0 0 1;
#X connect 8 0 6 0;
#X connect 9 0 3 0;
#X restore 80 283 pd color;
#N canvas 680 344 450 300 color 0;
#X obj 80 198 color 0 0 0;
#X obj 151 52 inlet;
#X obj 142 91 f;
#X obj 214 89 fmod 1;
#X obj 72 54 t a b;
#X obj 71 18 inlet;
#X msg 146 163 \$1 \$1 \$1;
#X obj 83 240 outlet;
#X obj 146 115 expr 2*abs($f1-0.5);
#X obj 168 90 + 0.05;
#X connect 0 0 7 0;
#X connect 1 0 2 0;
#X connect 2 0 8 0;
#X connect 2 0 9 0;
#X connect 3 0 2 1;
#X connect 4 0 0 0;
#X connect 4 1 2 0;
#X connect 5 0 4 0;
#X connect 6 0 0 1;
#X connect 8 0 6 0;
#X connect 9 0 3 0;
#X restore 391 283 pd color;
#N canvas 680 344 450 300 color 0;
#X obj 80 198 color 0 0 0;
#X obj 151 52 inlet;
#X obj 142 91 f;
#X obj 214 89 fmod 1;
#X obj 72 54 t a b;
#X obj 71 18 inlet;
#X msg 146 163 \$1 \$1 \$1;
#X obj 83 240 outlet;
#X obj 146 115 expr 2*abs($f1-0.5);
#X obj 168 90 + 0.05;
#X connect 0 0 7 0;
#X connect 1 0 2 0;
#X connect 2 0 8 0;
#X connect 2 0 9 0;
#X connect 3 0 2 1;
#X connect 4 0 0 0;
#X connect 4 1 2 0;
#X connect 5 0 4 0;
#X connect 6 0 0 1;
#X connect 8 0 6 0;
#X connect 9 0 3 0;
#X restore 400 591 pd color;
#N canvas 680 344 450 300 color 0;
#X obj 80 198 color 0 0 0;
#X obj 151 52 inlet;
#X obj 142 91 f;
#X obj 214 89 fmod 1;
#X obj 72 54 t a b;
#X obj 71 18 inlet;
#X msg 146 163 \$1 \$1 \$1;
#X obj 83 240 outlet;
#X obj 146 115 expr 2*abs($f1-0.5);
#X obj 168 90 + 0.05;
#X connect 0 0 7 0;
#X connect 1 0 2 0;
#X connect 2 0 8 0;
#X connect 2 0 9 0;
#X connect 3 0 2 1;
#X connect 4 0 0 0;
#X connect 4 1 2 0;
#X connect 5 0 4 0;
#X connect 6 0 0 1;
#X connect 8 0 6 0;
#X connect 9 0 3 0;
#X restore 92 629 pd color;
#X obj 278 369 color 0 0 0;
#X obj 171 283 t a a;
#X obj 283 313 separator;
#X obj 175 309 separator;
#X obj 175 337 color 1 1 1;
#X obj 286 398 circle 0.15;
#X obj 279 343 translateXYZ 0.02 -0.02 0;
#X obj 641 196 text2d;
#X obj 669 41 loadbang;
#X obj 642 92 gemhead 500;
#X msg 674 174 13;
#X obj 642 160 color 1 1 1;
#X obj 642 122 translateXYZ -2.3 -3.75 0;
#X obj 643 388 text2d;
#X obj 671 233 loadbang;
#X obj 644 284 gemhead 500;
#X msg 676 366 13;
#X obj 644 352 color 1 1 1;
#X obj 696 504 text2d;
#X obj 724 349 loadbang;
#X obj 697 400 gemhead 500;
#X msg 729 482 13;
#X obj 697 468 color 1 1 1;
#X obj 698 696 text2d;
#X obj 726 541 loadbang;
#X obj 699 592 gemhead 500;
#X msg 731 674 13;
#X obj 699 660 color 1 1 1;
#X obj 644 314 translateXYZ -0.3 -3.75 0;
#X obj 697 430 translateXYZ 1.77 -3.75 0;
#X obj 699 622 translateXYZ 3.79 -3.75 0;
#X msg 207 351 12;
#X msg 513 293 12;
#X msg 526 602 12;
#X msg 224 636 12;
#X msg 293 210 text 1;
#X msg 555 210 text 2;
#X msg 266 553 text 3;
#X msg 568 519 text 4;
#X msg 669 70 text 1;
#X msg 671 262 text 2;
#X msg 724 378 text 3;
#X msg 726 570 text 4;
#X connect 0 0 12 0;
#X connect 1 0 8 0;
#X connect 3 0 75 0;
#X connect 4 0 5 0;
#X connect 5 0 11 0;
#X connect 5 0 15 0;
#X connect 5 0 76 1;
#X connect 6 0 7 0;
#X connect 6 1 16 0;
#X connect 7 0 5 0;
#X connect 8 0 2 0;
#X connect 9 0 8 1;
#X connect 10 0 8 2;
#X connect 11 0 1 0;
#X connect 12 0 6 0;
#X connect 14 0 115 0;
#X connect 14 0 111 0;
#X connect 15 0 17 0;
#X connect 16 0 1 1;
#X connect 16 1 1 2;
#X connect 16 2 9 0;
#X connect 16 3 10 0;
#X connect 16 4 17 1;
#X connect 16 5 17 2;
#X connect 17 0 81 0;
#X connect 18 0 73 0;
#X connect 19 0 26 0;
#X connect 21 0 30 0;
#X connect 22 0 23 0;
#X connect 23 0 29 0;
#X connect 23 0 33 0;
#X connect 23 0 79 1;
#X connect 24 0 25 0;
#X connect 24 1 34 0;
#X connect 25 0 23 0;
#X connect 26 0 20 0;
#X connect 27 0 26 1;
#X connect 28 0 26 2;
#X connect 29 0 19 0;
#X connect 30 0 20 0;
#X connect 32 0 117 0;
#X connect 32 0 114 0;
#X connect 33 0 35 0;
#X connect 34 0 19 1;
#X connect 34 1 19 2;
#X connect 34 2 27 0;
#X connect 34 3 28 0;
#X connect 34 4 35 1;
#X connect 34 5 35 2;
#X connect 35 0 31 0;
#X connect 36 0 72 0;
#X connect 37 0 44 0;
#X connect 39 0 48 0;
#X connect 40 0 41 0;
#X connect 41 0 47 0;
#X connect 41 0 51 0;
#X connect 41 0 77 1;
#X connect 42 0 43 0;
#X connect 42 1 52 0;
#X connect 43 0 41 0;
#X connect 44 0 38 0;
#X connect 45 0 44 1;
#X connect 46 0 44 2;
#X connect 47 0 37 0;
#X connect 48 0 38 0;
#X connect 50 0 116 0;
#X connect 50 0 112 0;
#X connect 51 0 53 0;
#X connect 52 0 37 1;
#X connect 52 1 37 2;
#X connect 52 2 45 0;
#X connect 52 3 46 0;
#X connect 52 4 53 1;
#X connect 52 5 53 2;
#X connect 53 0 49 0;
#X connect 54 0 74 0;
#X connect 55 0 62 0;
#X connect 57 0 66 0;
#X connect 58 0 59 0;
#X connect 59 0 65 0;
#X connect 59 0 69 0;
#X connect 59 0 78 1;
#X connect 60 0 61 0;
#X connect 60 1 70 0;
#X connect 61 0 59 0;
#X connect 62 0 56 0;
#X connect 63 0 62 1;
#X connect 64 0 62 2;
#X connect 65 0 55 0;
#X connect 66 0 56 0;
#X connect 68 0 118 0;
#X connect 68 0 113 0;
#X connect 69 0 71 0;
#X connect 70 0 55 1;
#X connect 70 1 55 2;
#X connect 70 2 63 0;
#X connect 70 3 64 0;
#X connect 70 4 71 1;
#X connect 70 5 71 2;
#X connect 71 0 67 0;
#X connect 72 0 42 0;
#X connect 73 0 24 0;
#X connect 74 0 60 0;
#X connect 75 0 2 0;
#X connect 80 0 85 0;
#X connect 81 0 83 0;
#X connect 82 0 86 0;
#X connect 83 0 84 0;
#X connect 84 0 13 0;
#X connect 86 0 80 0;
#X connect 88 0 119 0;
#X connect 88 0 90 0;
#X connect 89 0 92 0;
#X connect 90 0 87 1;
#X connect 91 0 87 0;
#X connect 92 0 91 0;
#X connect 94 0 120 0;
#X connect 94 0 96 0;
#X connect 95 0 108 0;
#X connect 96 0 93 1;
#X connect 97 0 93 0;
#X connect 99 0 121 0;
#X connect 99 0 101 0;
#X connect 100 0 109 0;
#X connect 101 0 98 1;
#X connect 102 0 98 0;
#X connect 104 0 122 0;
#X connect 104 0 106 0;
#X connect 105 0 110 0;
#X connect 106 0 103 1;
#X connect 107 0 103 0;
#X connect 108 0 97 0;
#X connect 109 0 102 0;
#X connect 110 0 107 0;
#X connect 111 0 13 1;
#X connect 112 0 49 1;
#X connect 113 0 67 1;
#X connect 114 0 31 1;
#X connect 115 0 13 0;
#X connect 116 0 49 0;
#X connect 117 0 31 0;
#X connect 118 0 67 0;
#X connect 119 0 87 0;
#X connect 120 0 93 0;
#X connect 121 0 98 0;
#X connect 122 0 103 0;
#X restore 145 131 pd draw-rect;
#N canvas 412 218 843 510 pos0 0;
#X obj 41 -112 r rectarea;
#X obj 39 -85 route 0;
#X obj 38 -65 unpack f f f f;
#X floatatom 33 -35 5 0 0 0 - - -, f 5;
#X floatatom 76 -35 5 0 0 0 - - -, f 5;
#X floatatom 119 -35 5 0 0 0 - - -, f 5;
#X floatatom 220 9 5 0 0 0 - - -, f 5;
#X floatatom -120 96 5 0 0 0 - - -, f 5;
#X floatatom 54 100 5 0 0 0 - - -, f 5;
#X obj 8 281 s toshader;
#X obj 136 206 min;
#X floatatom 136 232 5 0 0 0 - - -, f 5;
#X floatatom 191 233 5 0 0 0 - - -, f 5;
#X obj 192 207 max;
#X floatatom 197 351 5 0 0 0 - - -, f 5;
#X floatatom 136 281 5 0 0 0 - - -, f 5;
#X obj 13 196 pack f f f f;
#X floatatom 197 283 5 0 0 0 - - -, f 5;
#X msg 8 250 pos0 \$1 \$2 \$3 \$4;
#X obj 190 258 expr 40-$f1;
#X obj 136 259 * 12.5;
#X obj 197 329 * 12.5;
#X obj -120 73 expr 10/abs($f1-$f2);
#X obj 52 74 expr 10/abs($f1-$f2);
#X obj -130 35 t f f f;
#X obj 121 -9 t f f f;
#X obj 220 44 t f f f;
#X obj 55 40 t f f f;
#X obj 251 199 expr abs($f1-$f2);
#X obj 428 202 expr ($f1-$f2);
#X floatatom 329 278 5 0 0 0 - - -, f 5;
#X obj 329 254 expr abs($f1*$f2);
#X msg 329 303 \; pos0 resize \$1;
#X obj 373 277 v pos0_num;
#X obj 413 -61 r allclose;
#X obj 413 -31 t b b b b;
#X connect 0 0 1 0;
#X connect 1 0 2 0;
#X connect 2 0 3 0;
#X connect 2 1 4 0;
#X connect 2 2 5 0;
#X connect 2 3 6 0;
#X connect 3 0 24 0;
#X connect 4 0 27 0;
#X connect 5 0 25 0;
#X connect 6 0 26 0;
#X connect 7 0 16 0;
#X connect 8 0 16 1;
#X connect 10 0 11 0;
#X connect 11 0 20 0;
#X connect 12 0 19 0;
#X connect 13 0 12 0;
#X connect 14 0 16 3;
#X connect 15 0 16 2;
#X connect 16 0 18 0;
#X connect 17 0 21 0;
#X connect 18 0 9 0;
#X connect 19 0 17 0;
#X connect 20 0 15 0;
#X connect 21 0 14 0;
#X connect 22 0 7 0;
#X connect 23 0 8 0;
#X connect 24 0 22 0;
#X connect 24 1 10 0;
#X connect 24 2 28 0;
#X connect 25 0 22 1;
#X connect 25 1 10 1;
#X connect 25 2 28 1;
#X connect 26 0 23 1;
#X connect 26 1 13 1;
#X connect 26 2 29 1;
#X connect 27 0 23 0;
#X connect 27 1 13 0;
#X connect 27 2 29 0;
#X connect 28 0 31 0;
#X connect 29 0 31 1;
#X connect 30 0 32 0;
#X connect 30 0 33 0;
#X connect 31 0 30 0;
#X connect 34 0 35 0;
#X restore 83 50 pd pos0;
#N canvas 332 109 914 578 pos1 0;
#X obj 41 -112 r rectarea;
#X obj 38 -65 unpack f f f f;
#X floatatom 33 -35 5 0 0 0 - - -, f 5;
#X floatatom 76 -35 5 0 0 0 - - -, f 5;
#X floatatom 119 -35 5 0 0 0 - - -, f 5;
#X floatatom -120 96 5 0 0 0 - - -, f 5;
#X floatatom 54 100 5 0 0 0 - - -, f 5;
#X obj -19 338 s toshader;
#X floatatom 191 233 5 0 0 0 - - -, f 5;
#X obj 192 207 max;
#X floatatom 191 327 5 0 0 0 - - -, f 5;
#X floatatom 104 270 5 0 0 0 - - -, f 5;
#X obj 13 196 pack f f f f;
#X floatatom 191 280 5 0 0 0 - - -, f 5;
#X obj 39 -85 route 1;
#X msg -19 307 pos1 \$1 \$2 \$3 \$4;
#X obj 202 101 min;
#X floatatom 104 212 5 0 0 0 - - -, f 5;
#X obj 104 184 expr $f1+$f2;
#X obj 191 255 expr 40-$f1;
#X obj 191 305 * 12.5;
#X obj 104 248 * 12.5;
#X obj 105 297 - 125;
#X obj -120 73 expr 10/abs($f1-$f2);
#X obj 52 74 expr 10/abs($f1-$f2);
#X obj 104 157 expr 10-abs($f1-$f2);
#X obj 261 209 expr abs($f1-$f2);
#X obj 438 212 expr ($f1-$f2);
#X floatatom 339 288 5 0 0 0 - - -, f 5;
#X obj 339 264 expr abs($f1*$f2);
#X obj 220 44 t f f f;
#X obj 55 40 t f f f;
#X obj -70 14 t f f f f;
#X obj 106 -14 t f f f f;
#X obj 383 287 v pos1_num;
#X msg 339 313 \; pos1 resize \$1;
#X connect 0 0 14 0;
#X connect 1 0 2 0;
#X connect 1 1 3 0;
#X connect 1 2 4 0;
#X connect 1 3 30 0;
#X connect 2 0 32 0;
#X connect 3 0 31 0;
#X connect 4 0 33 0;
#X connect 5 0 12 0;
#X connect 6 0 12 1;
#X connect 8 0 19 0;
#X connect 9 0 8 0;
#X connect 10 0 12 3;
#X connect 11 0 22 0;
#X connect 12 0 15 0;
#X connect 13 0 20 0;
#X connect 14 0 1 0;
#X connect 15 0 7 0;
#X connect 16 0 18 1;
#X connect 17 0 21 0;
#X connect 18 0 17 0;
#X connect 19 0 13 0;
#X connect 20 0 10 0;
#X connect 21 0 11 0;
#X connect 22 0 12 2;
#X connect 23 0 5 0;
#X connect 24 0 6 0;
#X connect 25 0 18 0;
#X connect 26 0 29 0;
#X connect 27 0 29 1;
#X connect 28 0 35 0;
#X connect 28 0 34 0;
#X connect 29 0 28 0;
#X connect 30 0 24 1;
#X connect 30 1 9 1;
#X connect 30 2 27 1;
#X connect 31 0 24 0;
#X connect 31 1 9 0;
#X connect 31 2 27 0;
#X connect 32 0 23 0;
#X connect 32 1 25 0;
#X connect 32 2 16 0;
#X connect 32 3 26 0;
#X connect 33 0 23 1;
#X connect 33 1 25 1;
#X connect 33 2 16 1;
#X connect 33 3 26 1;
#X restore 82 80 pd pos1;
#N canvas 273 88 875 564 pos2 0;
#X obj 39 -107 r rectarea;
#X obj 38 -65 unpack f f f f;
#X floatatom 33 -35 5 0 0 0 - - -, f 5;
#X floatatom 76 -35 5 0 0 0 - - -, f 5;
#X floatatom 119 -35 5 0 0 0 - - -, f 5;
#X floatatom -120 96 5 0 0 0 - - -, f 5;
#X floatatom 54 100 5 0 0 0 - - -, f 5;
#X obj -19 338 s toshader;
#X floatatom 290 216 5 0 0 0 - - -, f 5;
#X obj 290 190 max;
#X floatatom 290 310 5 0 0 0 - - -, f 5;
#X floatatom 107 310 5 0 0 0 - - -, f 5;
#X obj 13 196 pack f f f f;
#X floatatom 290 263 5 0 0 0 - - -, f 5;
#X obj 107 334 - 125;
#X obj 175 173 min;
#X floatatom 106 261 5 0 0 0 - - -, f 5;
#X obj 106 233 expr $f1+$f2;
#X obj 39 -85 route 2;
#X msg -19 307 pos2 \$1 \$2 \$3 \$4;
#X floatatom 220 14 5 0 0 0 - - -, f 5;
#X obj 290 237 expr 40-$f1;
#X obj -120 73 expr 10/abs($f1-$f2);
#X obj 52 74 expr 10/abs($f1-$f2);
#X obj 106 288 * 12.5;
#X obj 290 288 * 12.5;
#X obj 106 205 expr 10-abs($f1-$f2)*2;
#X obj 398 203 expr abs($f1-$f2);
#X obj 575 206 expr ($f1-$f2);
#X floatatom 476 282 5 0 0 0 - - -, f 5;
#X obj 476 258 expr abs($f1*$f2);
#X obj -95 22 t f f f f;
#X obj 106 -13 t f f f f;
#X obj 55 40 t f f f;
#X obj 220 44 t f f f;
#X obj 520 281 v pos2_num;
#X msg 476 307 \; pos2 resize \$1;
#X connect 0 0 18 0;
#X connect 1 0 2 0;
#X connect 1 1 3 0;
#X connect 1 2 4 0;
#X connect 1 3 20 0;
#X connect 2 0 31 0;
#X connect 3 0 33 0;
#X connect 4 0 32 0;
#X connect 5 0 12 0;
#X connect 6 0 12 1;
#X connect 8 0 21 0;
#X connect 9 0 8 0;
#X connect 10 0 12 3;
#X connect 11 0 14 0;
#X connect 12 0 19 0;
#X connect 13 0 25 0;
#X connect 14 0 12 2;
#X connect 15 0 17 1;
#X connect 16 0 24 0;
#X connect 17 0 16 0;
#X connect 18 0 1 0;
#X connect 19 0 7 0;
#X connect 20 0 34 0;
#X connect 21 0 13 0;
#X connect 22 0 5 0;
#X connect 23 0 6 0;
#X connect 24 0 11 0;
#X connect 25 0 10 0;
#X connect 26 0 17 0;
#X connect 27 0 30 0;
#X connect 28 0 30 1;
#X connect 29 0 36 0;
#X connect 29 0 35 0;
#X connect 30 0 29 0;
#X connect 31 0 22 0;
#X connect 31 1 26 0;
#X connect 31 2 15 0;
#X connect 31 3 27 0;
#X connect 32 0 22 1;
#X connect 32 1 26 1;
#X connect 32 2 15 1;
#X connect 32 3 27 1;
#X connect 33 0 23 0;
#X connect 33 1 9 0;
#X connect 33 2 28 0;
#X connect 34 0 23 1;
#X connect 34 1 9 1;
#X connect 34 2 28 1;
#X restore 82 104 pd pos2;
#N canvas 385 126 904 551 pos3 0;
#X obj 39 -107 r rectarea;
#X obj 38 -65 unpack f f f f;
#X floatatom 33 -35 5 0 0 0 - - -, f 5;
#X floatatom 76 -35 5 0 0 0 - - -, f 5;
#X floatatom 119 -35 5 0 0 0 - - -, f 5;
#X floatatom -120 96 5 0 0 0 - - -, f 5;
#X floatatom 54 100 5 0 0 0 - - -, f 5;
#X obj -19 338 s toshader;
#X floatatom 247 169 5 0 0 0 - - -, f 5;
#X obj 247 143 max;
#X floatatom 247 263 5 0 0 0 - - -, f 5;
#X floatatom 128 323 5 0 0 0 - - -, f 5;
#X obj 13 196 pack f f f f;
#X floatatom 247 216 5 0 0 0 - - -, f 5;
#X obj 128 347 - 125;
#X obj 175 173 min;
#X floatatom 106 261 5 0 0 0 - - -, f 5;
#X obj 106 233 expr $f1+$f2;
#X floatatom 220 14 5 0 0 0 - - -, f 5;
#X obj 129 368 t b f;
#X obj 39 -85 route 3;
#X msg -19 307 pos3 \$1 \$2 \$3 \$4;
#X obj 247 191 expr 40-$f1;
#X obj 247 241 * 12.5;
#X obj 127 301 * 12.5;
#X obj -120 73 expr 10/abs($f1-$f2);
#X obj 48 73 expr 10/abs($f1-$f2);
#X obj 107 206 expr 10-abs($f1-$f2)*3;
#X obj 342 229 expr abs($f1-$f2);
#X obj 519 232 expr ($f1-$f2);
#X floatatom 420 308 5 0 0 0 - - -, f 5;
#X obj 420 284 expr abs($f1*$f2);
#X obj -95 22 t f f f f;
#X obj 106 -13 t f f f f;
#X obj 55 40 t f f f;
#X obj 220 44 t f f f;
#X obj 464 307 v pos3_num;
#X msg 420 333 \; pos3 resize \$1;
#X connect 0 0 20 0;
#X connect 1 0 2 0;
#X connect 1 1 3 0;
#X connect 1 2 4 0;
#X connect 1 3 18 0;
#X connect 2 0 32 0;
#X connect 3 0 34 0;
#X connect 4 0 33 0;
#X connect 5 0 12 0;
#X connect 6 0 12 1;
#X connect 8 0 22 0;
#X connect 9 0 8 0;
#X connect 10 0 12 3;
#X connect 11 0 14 0;
#X connect 12 0 21 0;
#X connect 13 0 23 0;
#X connect 14 0 19 0;
#X connect 15 0 17 1;
#X connect 16 0 24 0;
#X connect 17 0 16 0;
#X connect 18 0 35 0;
#X connect 19 1 12 2;
#X connect 20 0 1 0;
#X connect 21 0 7 0;
#X connect 22 0 13 0;
#X connect 23 0 10 0;
#X connect 24 0 11 0;
#X connect 25 0 5 0;
#X connect 26 0 6 0;
#X connect 27 0 17 0;
#X connect 28 0 31 0;
#X connect 29 0 31 1;
#X connect 30 0 37 0;
#X connect 30 0 36 0;
#X connect 31 0 30 0;
#X connect 32 0 25 0;
#X connect 32 1 27 0;
#X connect 32 2 15 0;
#X connect 32 3 28 0;
#X connect 33 0 25 1;
#X connect 33 1 27 1;
#X connect 33 2 15 1;
#X connect 33 3 28 1;
#X connect 34 0 26 0;
#X connect 34 1 9 0;
#X connect 34 2 29 0;
#X connect 35 0 26 1;
#X connect 35 1 9 1;
#X connect 35 2 29 1;
#X restore 82 127 pd pos3;
#N canvas 550 171 1419 761 array 0;
#N canvas 0 22 450 278 (subpatch) 0;
#X array pos0 2 float 3;
#A 0 0.286275 0.270588;
#X coords 0 1 2 0 200 140 1 0 0;
#X restore 31 -16 graph;
#N canvas 0 22 450 278 (subpatch) 0;
#X array pos1 5 float 3;
#A 0 0.152941 0.745098 0.964706 0.933333 0.658824;
#X coords 0 1 5 0 200 140 1 0 0;
#X restore 33 148 graph;
#N canvas 0 22 450 278 (subpatch) 0;
#X array pos2 8 float 3;
#A 0 0.372549 0.521569 0.0470588 0.584314 0.258824 0.00392157 0.215686
0.807843;
#X coords 0 1 8 0 200 140 1 0 0;
#X restore 30 313 graph;
#N canvas 0 22 450 278 (subpatch) 0;
#X array pos3 1 float 3;
#A 0 0.882353;
#X coords 0 1 1 0 200 140 1 0 0;
#X restore 32 477 graph;
#X obj 433 72 tgl 15 0 empty empty empty 17 7 0 10 -262144 -1 -1 1
1;
#X obj 312 297 v pos0_num;
#X obj 281 350 repeat;
#X obj 281 267 t b b b;
#X obj 281 379 f;
#X obj 308 379 + 1;
#X obj 336 379 % 0;
#X floatatom 314 319 5 0 0 0 - - -, f 5;
#X msg 355 320 0;
#X obj 372 602 pix_data;
#X floatatom 394 651 5 0 0 0 - - -, f 5;
#X obj 368 506 unpack f f;
#X obj 368 572 t b f;
#N canvas 786 280 600 453 between 0;
#X obj 110 40 r rectarea;
#X obj 108 67 route 0;
#X obj 107 87 unpack f f f f;
#X floatatom 102 117 5 0 0 0 - - -, f 5;
#X floatatom 145 117 5 0 0 0 - - -, f 5;
#X floatatom 188 117 5 0 0 0 - - -, f 5;
#X floatatom 226 119 5 0 0 0 - - -, f 5;
#X obj 41 203 expr abs($f1-$f2);
#X obj 95 230 expr abs($f1-$f2);
#X obj 42 318 outlet x;
#X obj 110 321 outlet y;
#X obj 208 320 outlet minx;
#X obj 304 322 outlet miny;
#X obj 204 257 min;
#X obj 87 156 t f f f;
#X obj 196 158 t f f f;
#X obj 298 260 min;
#X obj 142 156 t f f f;
#X obj 250 158 t f f f;
#X connect 0 0 1 0;
#X connect 1 0 2 0;
#X connect 2 0 3 0;
#X connect 2 1 4 0;
#X connect 2 2 5 0;
#X connect 2 3 6 0;
#X connect 3 0 14 0;
#X connect 4 0 17 0;
#X connect 5 0 15 0;
#X connect 6 0 18 0;
#X connect 7 0 9 0;
#X connect 8 0 10 0;
#X connect 13 0 11 0;
#X connect 14 0 7 0;
#X connect 14 1 13 0;
#X connect 15 0 7 1;
#X connect 15 1 13 1;
#X connect 16 0 12 0;
#X connect 17 0 8 0;
#X connect 17 1 16 0;
#X connect 18 0 8 1;
#X connect 18 1 16 1;
#X restore 393 338 pd between;
#X obj 281 422 % 2;
#X obj 308 474 sel 0;
#X obj 308 505 f;
#X obj 335 505 + 1;
#X obj 281 445 t f f;
#X floatatom 308 534 5 0 0 0 - - -, f 5;
#X obj 282 578 pack f f;
#X floatatom 393 361 5 0 0 0 - - -, f 5;
#X obj 281 243 bng 15 250 50 0 empty empty empty 17 7 0 10 -262144
-1 -1;
#X obj 281 483 +;
#X obj 308 555 +;
#X obj 394 629 unpack f f f;
#X obj 281 400 t f f;
#X obj 394 676 tabwrite pos0;
#N canvas 499 154 769 427 buffer 0;
#X obj 351 8 t b a;
#X obj 351 145 t a b;
#X obj 351 194 pix_buffer_write \$0-temp;
#X msg 492 169 0;
#X obj 351 -15 gemhead 1000;
#X obj 157 203 pix_buffer_read \$0-temp;
#X msg 196 177 0;
#X obj 157 99 gemhead 1001;
#X obj 351 123 pix_snap 0 0 500 500;
#X obj 351 41 f;
#X obj 379 40 + 1;
#X obj 407 41 % 10;
#X obj 351 61 sel 0;
#X obj 471 -10 pix_buffer \$0-temp 1;
#X obj 157 156 t a b;
#X obj 155 237 t a a a a;
#X obj 154 270 outlet;
#X obj 168 290 outlet;
#X obj 190 316 outlet;
#X obj 204 336 outlet;
#X connect 0 0 9 0;
#X connect 0 1 8 0;
#X connect 1 0 2 0;
#X connect 1 1 3 0;
#X connect 3 0 2 1;
#X connect 4 0 0 0;
#X connect 5 0 15 0;
#X connect 6 0 5 1;
#X connect 7 0 14 0;
#X connect 8 0 1 0;
#X connect 9 0 10 0;
#X connect 9 0 12 0;
#X connect 10 0 11 0;
#X connect 11 0 9 1;
#X connect 12 0 8 0;
#X connect 14 0 5 0;
#X connect 14 1 6 0;
#X connect 15 0 16 0;
#X connect 15 1 17 0;
#X connect 15 2 18 0;
#X connect 15 3 19 0;
#X restore 668 174 pd buffer;
#X obj 558 356 repeat;
#X obj 558 273 t b b b;
#X obj 558 385 f;
#X obj 585 385 + 1;
#X obj 613 385 % 0;
#X floatatom 591 325 5 0 0 0 - - -, f 5;
#X msg 632 326 0;
#X obj 649 608 pix_data;
#X floatatom 671 657 5 0 0 0 - - -, f 5;
#X obj 645 512 unpack f f;
#X obj 645 578 t b f;
#N canvas 786 280 600 453 between 0;
#X obj 110 40 r rectarea;
#X obj 107 87 unpack f f f f;
#X floatatom 102 117 5 0 0 0 - - -, f 5;
#X floatatom 145 117 5 0 0 0 - - -, f 5;
#X floatatom 188 117 5 0 0 0 - - -, f 5;
#X floatatom 226 119 5 0 0 0 - - -, f 5;
#X obj 41 203 expr abs($f1-$f2);
#X obj 95 230 expr abs($f1-$f2);
#X obj 42 318 outlet x;
#X obj 110 321 outlet y;
#X obj 208 320 outlet minx;
#X obj 304 322 outlet miny;
#X obj 204 257 min;
#X obj 87 156 t f f f;
#X obj 196 158 t f f f;
#X obj 298 260 min;
#X obj 142 156 t f f f;
#X obj 250 158 t f f f;
#X obj 108 67 route 1;
#X connect 0 0 18 0;
#X connect 1 0 2 0;
#X connect 1 1 3 0;
#X connect 1 2 4 0;
#X connect 1 3 5 0;
#X connect 2 0 13 0;
#X connect 3 0 16 0;
#X connect 4 0 14 0;
#X connect 5 0 17 0;
#X connect 6 0 8 0;
#X connect 7 0 9 0;
#X connect 12 0 10 0;
#X connect 13 0 6 0;
#X connect 13 1 12 0;
#X connect 14 0 6 1;
#X connect 14 1 12 1;
#X connect 15 0 11 0;
#X connect 16 0 7 0;
#X connect 16 1 15 0;
#X connect 17 0 7 1;
#X connect 17 1 15 1;
#X connect 18 0 1 0;
#X restore 670 344 pd between;
#X obj 558 428 % 2;
#X obj 585 480 sel 0;
#X obj 585 511 f;
#X obj 612 511 + 1;
#X obj 558 451 t f f;
#X floatatom 585 540 5 0 0 0 - - -, f 5;
#X obj 559 584 pack f f;
#X floatatom 670 367 5 0 0 0 - - -, f 5;
#X obj 558 249 bng 15 250 50 0 empty empty empty 17 7 0 10 -262144
-1 -1;
#X obj 558 489 +;
#X obj 585 561 +;
#X obj 671 635 unpack f f f;
#X obj 558 406 t f f;
#X obj 859 360 repeat;
#X obj 859 277 t b b b;
#X obj 859 389 f;
#X obj 886 389 + 1;
#X obj 914 389 % 0;
#X floatatom 892 329 5 0 0 0 - - -, f 5;
#X msg 933 330 0;
#X obj 950 612 pix_data;
#X floatatom 972 661 5 0 0 0 - - -, f 5;
#X obj 946 516 unpack f f;
#X obj 946 582 t b f;
#N canvas 786 280 600 453 between 0;
#X obj 110 40 r rectarea;
#X obj 107 87 unpack f f f f;
#X floatatom 102 117 5 0 0 0 - - -, f 5;
#X floatatom 145 117 5 0 0 0 - - -, f 5;
#X floatatom 188 117 5 0 0 0 - - -, f 5;
#X floatatom 226 119 5 0 0 0 - - -, f 5;
#X obj 41 203 expr abs($f1-$f2);
#X obj 95 230 expr abs($f1-$f2);
#X obj 42 318 outlet x;
#X obj 110 321 outlet y;
#X obj 208 320 outlet minx;
#X obj 304 322 outlet miny;
#X obj 204 257 min;
#X obj 87 156 t f f f;
#X obj 196 158 t f f f;
#X obj 298 260 min;
#X obj 142 156 t f f f;
#X obj 250 158 t f f f;
#X obj 108 67 route 2;
#X connect 0 0 18 0;
#X connect 1 0 2 0;
#X connect 1 1 3 0;
#X connect 1 2 4 0;
#X connect 1 3 5 0;
#X connect 2 0 13 0;
#X connect 3 0 16 0;
#X connect 4 0 14 0;
#X connect 5 0 17 0;
#X connect 6 0 8 0;
#X connect 7 0 9 0;
#X connect 12 0 10 0;
#X connect 13 0 6 0;
#X connect 13 1 12 0;
#X connect 14 0 6 1;
#X connect 14 1 12 1;
#X connect 15 0 11 0;
#X connect 16 0 7 0;
#X connect 16 1 15 0;
#X connect 17 0 7 1;
#X connect 17 1 15 1;
#X connect 18 0 1 0;
#X restore 971 348 pd between;
#X obj 859 432 % 2;
#X obj 886 484 sel 0;
#X obj 886 515 f;
#X obj 913 515 + 1;
#X obj 859 455 t f f;
#X floatatom 886 544 5 0 0 0 - - -, f 5;
#X obj 860 588 pack f f;
#X floatatom 971 371 5 0 0 0 - - -, f 5;
#X obj 859 253 bng 15 250 50 0 empty empty empty 17 7 0 10 -262144
-1 -1;
#X obj 859 493 +;
#X obj 886 565 +;
#X obj 972 639 unpack f f f;
#X obj 859 410 t f f;
#X obj 1136 366 repeat;
#X obj 1136 283 t b b b;
#X obj 1136 395 f;
#X obj 1163 395 + 1;
#X obj 1191 395 % 0;
#X floatatom 1169 335 5 0 0 0 - - -, f 5;
#X msg 1210 336 0;
#X obj 1227 618 pix_data;
#X floatatom 1249 667 5 0 0 0 - - -, f 5;
#X obj 1223 522 unpack f f;
#X obj 1223 588 t b f;
#N canvas 786 280 600 453 between 0;
#X obj 110 40 r rectarea;
#X obj 107 87 unpack f f f f;
#X floatatom 102 117 5 0 0 0 - - -, f 5;
#X floatatom 145 117 5 0 0 0 - - -, f 5;
#X floatatom 188 117 5 0 0 0 - - -, f 5;
#X floatatom 226 119 5 0 0 0 - - -, f 5;
#X obj 41 203 expr abs($f1-$f2);
#X obj 95 230 expr abs($f1-$f2);
#X obj 42 318 outlet x;
#X obj 110 321 outlet y;
#X obj 208 320 outlet minx;
#X obj 304 322 outlet miny;
#X obj 204 257 min;
#X obj 87 156 t f f f;
#X obj 196 158 t f f f;
#X obj 298 260 min;
#X obj 142 156 t f f f;
#X obj 250 158 t f f f;
#X obj 108 67 route 3;
#X connect 0 0 18 0;
#X connect 1 0 2 0;
#X connect 1 1 3 0;
#X connect 1 2 4 0;
#X connect 1 3 5 0;
#X connect 2 0 13 0;
#X connect 3 0 16 0;
#X connect 4 0 14 0;
#X connect 5 0 17 0;
#X connect 6 0 8 0;
#X connect 7 0 9 0;
#X connect 12 0 10 0;
#X connect 13 0 6 0;
#X connect 13 1 12 0;
#X connect 14 0 6 1;
#X connect 14 1 12 1;
#X connect 15 0 11 0;
#X connect 16 0 7 0;
#X connect 16 1 15 0;
#X connect 17 0 7 1;
#X connect 17 1 15 1;
#X connect 18 0 1 0;
#X restore 1248 354 pd between;
#X obj 1136 438 % 2;
#X obj 1163 490 sel 0;
#X obj 1163 521 f;
#X obj 1190 521 + 1;
#X obj 1136 461 t f f;
#X floatatom 1163 550 5 0 0 0 - - -, f 5;
#X obj 1137 594 pack f f;
#X floatatom 1248 377 5 0 0 0 - - -, f 5;
#X obj 1136 259 bng 15 250 50 0 empty empty empty 17 7 0 10 -262144
-1 -1;
#X obj 1136 499 +;
#X obj 1163 571 +;
#X obj 1249 645 unpack f f f;
#X obj 1136 416 t f f;
#X obj 671 682 tabwrite pos1;
#X obj 972 686 tabwrite pos2;
#X obj 1249 692 tabwrite pos3;
#X obj 589 303 v pos1_num;
#X obj 890 307 v pos2_num;
#X obj 1167 313 v pos3_num;
#X obj 435 126 t b b b b;
#X floatatom 269 70 5 0 0 0 - - -, f 5;
#X floatatom 289 131 5 0 0 0 - - -, f 5;
#X obj 289 102 expr 1-$f1;
#X obj 270 42 gemmouse 1 1;
#X obj 551 -9 unpack f f;
#X obj 608 42 k_range 0 29 0.98 0.25;
#X obj 551 18 k_range 0 39 0.015 0.985;
#X floatatom 564 46 5 0 0 0 - - -, f 5;
#X floatatom 627 92 5 0 0 0 - - -, f 5;
#X msg 576 -47 5 15;
#X obj 368 533 k_range 0 39 0.01 0.99;
#X obj 645 539 k_range 0 39 0.01 0.99;
#X obj 946 543 k_range 0 39 0.01 0.99;
#X obj 1223 549 k_range 0 39 0.01 0.99;
#X obj 425 556 k_range 0 29 0.985 0.255;
#X obj 702 563 k_range 0 29 0.985 0.255;
#X obj 1003 567 k_range 0 29 0.985 0.255;
#X obj 1280 573 k_range 0 29 0.985 0.255;
#X obj 432 41 loadbang;
#X obj 433 97 metro 300;
#X connect 4 0 134 0;
#X connect 5 0 11 0;
#X connect 6 0 8 0;
#X connect 7 0 6 0;
#X connect 7 1 5 0;
#X connect 7 2 12 0;
#X connect 8 0 9 0;
#X connect 8 0 30 0;
#X connect 9 0 10 0;
#X connect 10 0 8 1;
#X connect 11 0 6 1;
#X connect 11 0 10 1;
#X connect 12 0 8 1;
#X connect 12 0 20 1;
#X connect 13 1 29 0;
#X connect 14 0 31 0;
#X connect 15 0 125 0;
#X connect 15 1 129 0;
#X connect 16 0 13 0;
#X connect 16 1 13 2;
#X connect 17 0 25 0;
#X connect 17 2 27 1;
#X connect 17 3 28 1;
#X connect 18 0 22 0;
#X connect 19 0 20 0;
#X connect 20 0 21 0;
#X connect 20 0 23 0;
#X connect 21 0 20 1;
#X connect 22 0 27 0;
#X connect 22 1 19 0;
#X connect 23 0 28 0;
#X connect 24 0 15 0;
#X connect 25 0 18 1;
#X connect 26 0 7 0;
#X connect 27 0 24 0;
#X connect 28 0 24 1;
#X connect 29 0 14 0;
#X connect 30 0 18 0;
#X connect 30 1 31 1;
#X connect 32 0 13 1;
#X connect 32 1 40 1;
#X connect 32 2 65 1;
#X connect 32 3 90 1;
#X connect 33 0 35 0;
#X connect 34 0 33 0;
#X connect 34 1 111 0;
#X connect 34 2 39 0;
#X connect 35 0 36 0;
#X connect 35 0 57 0;
#X connect 36 0 37 0;
#X connect 37 0 35 1;
#X connect 38 0 33 1;
#X connect 38 0 37 1;
#X connect 39 0 35 1;
#X connect 39 0 47 1;
#X connect 40 1 56 0;
#X connect 41 0 108 0;
#X connect 42 0 126 0;
#X connect 42 1 130 0;
#X connect 43 0 40 0;
#X connect 43 1 40 2;
#X connect 44 0 52 0;
#X connect 44 2 54 1;
#X connect 44 3 55 1;
#X connect 45 0 49 0;
#X connect 46 0 47 0;
#X connect 47 0 48 0;
#X connect 47 0 50 0;
#X connect 48 0 47 1;
#X connect 49 0 54 0;
#X connect 49 1 46 0;
#X connect 50 0 55 0;
#X connect 51 0 42 0;
#X connect 52 0 45 1;
#X connect 53 0 34 0;
#X connect 54 0 51 0;
#X connect 55 0 51 1;
#X connect 56 0 41 0;
#X connect 57 0 45 0;
#X connect 57 1 108 1;
#X connect 58 0 60 0;
#X connect 59 0 58 0;
#X connect 59 1 112 0;
#X connect 59 2 64 0;
#X connect 60 0 61 0;
#X connect 60 0 82 0;
#X connect 61 0 62 0;
#X connect 62 0 60 1;
#X connect 63 0 58 1;
#X connect 63 0 62 1;
#X connect 64 0 60 1;
#X connect 64 0 72 1;
#X connect 65 1 81 0;
#X connect 66 0 109 0;
#X connect 67 0 127 0;
#X connect 67 1 131 0;
#X connect 68 0 65 0;
#X connect 68 1 65 2;
#X connect 69 0 77 0;
#X connect 69 2 79 1;
#X connect 69 3 80 1;
#X connect 70 0 74 0;
#X connect 71 0 72 0;
#X connect 72 0 73 0;
#X connect 72 0 75 0;
#X connect 73 0 72 1;
#X connect 74 0 79 0;
#X connect 74 1 71 0;
#X connect 75 0 80 0;
#X connect 76 0 67 0;
#X connect 77 0 70 1;
#X connect 78 0 59 0;
#X connect 79 0 76 0;
#X connect 80 0 76 1;
#X connect 81 0 66 0;
#X connect 82 0 70 0;
#X connect 82 1 109 1;
#X connect 83 0 85 0;
#X connect 84 0 83 0;
#X connect 84 1 113 0;
#X connect 84 2 89 0;
#X connect 85 0 86 0;
#X connect 85 0 107 0;
#X connect 86 0 87 0;
#X connect 87 0 85 1;
#X connect 88 0 83 1;
#X connect 88 0 87 1;
#X connect 89 0 85 1;
#X connect 89 0 97 1;
#X connect 90 1 106 0;
#X connect 91 0 110 0;
#X connect 92 0 128 0;
#X connect 92 1 132 0;
#X connect 93 0 90 0;
#X connect 93 1 90 2;
#X connect 94 0 102 0;
#X connect 94 2 104 1;
#X connect 94 3 105 1;
#X connect 95 0 99 0;
#X connect 96 0 97 0;
#X connect 97 0 98 0;
#X connect 97 0 100 0;
#X connect 98 0 97 1;
#X connect 99 0 104 0;
#X connect 99 1 96 0;
#X connect 100 0 105 0;
#X connect 101 0 92 0;
#X connect 102 0 95 1;
#X connect 103 0 84 0;
#X connect 104 0 101 0;
#X connect 105 0 101 1;
#X connect 106 0 91 0;
#X connect 107 0 95 0;
#X connect 107 1 110 1;
#X connect 111 0 38 0;
#X connect 112 0 63 0;
#X connect 113 0 88 0;
#X connect 114 0 26 0;
#X connect 114 1 53 0;
#X connect 114 2 78 0;
#X connect 114 3 103 0;
#X connect 117 0 116 0;
#X connect 118 0 115 0;
#X connect 118 1 117 0;
#X connect 119 0 121 0;
#X connect 119 1 120 0;
#X connect 120 0 123 0;
#X connect 121 0 122 0;
#X connect 124 0 119 0;
#X connect 125 0 16 0;
#X connect 126 0 43 0;
#X connect 127 0 68 0;
#X connect 128 0 93 0;
#X connect 129 0 13 3;
#X connect 130 0 40 3;
#X connect 131 0 65 3;
#X connect 132 0 90 3;
#X connect 133 0 4 0;
#X connect 134 0 114 0;
#X restore 83 154 pd array;
#N canvas 490 23 775 616 sound 0;
#X obj 212 116 t b b;
#X obj 212 174 f;
#X obj 239 175 + 1;
#X obj 265 175 % 10;
#X obj 62 30 tgl 15 0 empty empty empty 17 7 0 10 -262144 -1 -1 1 1
;
#X floatatom 265 149 5 0 0 0 - - -, f 5;
#X floatatom 212 225 5 0 0 0 - - -, f 5;
#X obj 62 109 t b b;
#X obj 62 167 f;
#X obj 89 168 + 1;
#X obj 115 168 % 10;
#X floatatom 120 142 5 0 0 0 - - -, f 5;
#X obj 62 197 tabread pos0;
#X floatatom 62 222 5 0 0 0 - - -, f 5;
#X obj 62 252 k_range 0 1 150 1500;
#X obj 62 278 osc~;
#X obj 62 302 *~;
#X obj 212 273 line~;
#X obj 119 121 v pos0_num;
#X obj 264 128 v pos1_num;
#X obj 62 80 t b b b b;
#X obj 212 200 tabread pos1;
#X obj 498 110 t b b;
#X obj 498 168 f;
#X obj 525 169 + 1;
#X obj 551 169 % 10;
#X floatatom 551 143 5 0 0 0 - - -, f 5;
#X floatatom 498 219 5 0 0 0 - - -, f 5;
#X obj 348 103 t b b;
#X obj 348 161 f;
#X obj 375 162 + 1;
#X obj 401 162 % 10;
#X floatatom 406 136 5 0 0 0 - - -, f 5;
#X floatatom 348 216 5 0 0 0 - - -, f 5;
#X obj 348 246 k_range 0 1 150 1500;
#X obj 349 371 *~;
#X obj 498 267 line~;
#X obj 405 115 v pos0_num;
#X obj 550 122 v pos1_num;
#X obj 348 191 tabread pos2;
#X obj 498 194 tabread pos3;
#X obj 62 6 loadbang;
#X obj 111 453 st-delay /key;
#X obj 111 539 dac~;
#X obj 62 53 metro 300;
#X msg 212 250 \$1 \, 0 200;
#X msg 498 244 \$1 \, 0 200;
#X obj 348 276 phasor~;
#X obj 349 323 expr~ if($v1>0.5 \, 0.5 \, -0.5);
#X obj 349 395 *~ 0.7;
#X connect 0 0 1 0;
#X connect 0 1 19 0;
#X connect 1 0 2 0;
#X connect 1 0 21 0;
#X connect 2 0 3 0;
#X connect 3 0 1 1;
#X connect 4 0 44 0;
#X connect 5 0 3 1;
#X connect 6 0 45 0;
#X connect 7 0 8 0;
#X connect 7 1 18 0;
#X connect 8 0 9 0;
#X connect 8 0 12 0;
#X connect 9 0 10 0;
#X connect 10 0 8 1;
#X connect 11 0 10 1;
#X connect 12 0 13 0;
#X connect 13 0 14 0;
#X connect 14 0 15 0;
#X connect 15 0 16 0;
#X connect 16 0 42 0;
#X connect 17 0 16 1;
#X connect 18 0 11 0;
#X connect 19 0 5 0;
#X connect 20 0 7 0;
#X connect 20 1 0 0;
#X connect 20 2 28 0;
#X connect 20 3 22 0;
#X connect 21 0 6 0;
#X connect 22 0 23 0;
#X connect 22 1 38 0;
#X connect 23 0 24 0;
#X connect 23 0 40 0;
#X connect 24 0 25 0;
#X connect 25 0 23 1;
#X connect 26 0 25 1;
#X connect 27 0 46 0;
#X connect 28 0 29 0;
#X connect 28 1 37 0;
#X connect 29 0 30 0;
#X connect 29 0 39 0;
#X connect 30 0 31 0;
#X connect 31 0 29 1;
#X connect 32 0 31 1;
#X connect 33 0 34 0;
#X connect 34 0 47 0;
#X connect 35 0 49 0;
#X connect 36 0 35 1;
#X connect 37 0 32 0;
#X connect 38 0 26 0;
#X connect 39 0 33 0;
#X connect 40 0 27 0;
#X connect 41 0 4 0;
#X connect 42 0 43 0;
#X connect 42 1 43 1;
#X connect 44 0 20 0;
#X connect 45 0 17 0;
#X connect 46 0 36 0;
#X connect 47 0 48 0;
#X connect 48 0 35 0;
#X connect 49 0 42 1;
#X restore 145 175 pd sound;
#N canvas 621 106 799 644 control&play 0;
#X obj 481 525 circle;
#X obj 252 301 t a a a;
#X obj 479 433 separator;
#X obj 477 491 alpha;
#X obj 327 417 separator;
#X obj 327 531 alpha;
#X obj 327 561 triangle 0.5;
#X obj 326 476 colorRGB 1 1 1 1;
#X obj 325 502 rotateXYZ 0 0 -90;
#X obj 161 378 separator;
#X obj 161 450 alpha;
#X obj 160 421 colorRGB 1 1 1 1;
#X obj 233 342 gate 2;
#X obj 215 300 tgl 15 0 empty empty empty 17 7 0 10 -262144 -1 -1 0
1;
#X obj 213 318 + 1;
#X obj 250 273 scale 0.2;
#X obj 586 353 distance2d;
#X obj 643 292 loadbang;
#X obj 584 262 r mousePos;
#X floatatom 587 378 5 0 0 0 - - -, f 5;
#X obj 588 403 < 0.2;
#X obj 588 429 tgl 15 0 empty empty empty 17 7 0 10 -262144 -1 -1 0
1;
#X obj 449 341 spigot;
#X obj 449 365 sel 1;
#X obj 449 387 f;
#X obj 474 387 + 1;
#X obj 502 386 % 2;
#X floatatom 449 411 5 0 0 0 - - -, f 5;
#X obj 160 471 translateXYZ -0.35 0 0;
#X obj 162 533 translateXYZ 0.7 0 0;
#X obj 161 506 rectangle 0.15 0.6;
#X obj 162 567 rectangle 0.15 0.6;
#X obj 139 272 loadbang;
#X msg 137 296 0;
#X obj 248 207 gemhead 700;
#X obj 450 300 r mouseRight;
#X obj 459 30 gemmouse 1 1;
#X obj 459 112 expr ($f1*8)-4;
#X obj 528 92 s mouseRight;
#X obj 476 137 expr ($f1*-8)+4;
#X obj 459 234 s mousePos;
#X obj 459 208 pack f f;
#X obj 459 162 t f f;
#X obj 497 163 t f f;
#X obj 493 72 s mouseLeft;
#X obj 510 51 s mouseMiddle;
#X obj 437 554 s time;
#X obj 313 448 translateXYZ 0.1 0 0;
#X obj 479 464 color 0.6 0 0;
#X msg 644 318 3.5 0.5;
#X obj 249 246 translateXYZ 3.5 0.5 0;
#X connect 1 1 12 1;
#X connect 1 2 2 0;
#X connect 2 0 48 0;
#X connect 3 0 0 0;
#X connect 4 0 47 0;
#X connect 5 0 6 0;
#X connect 7 0 8 0;
#X connect 8 0 5 0;
#X connect 9 0 11 0;
#X connect 10 0 28 0;
#X connect 11 0 10 0;
#X connect 12 0 4 0;
#X connect 12 1 9 0;
#X connect 13 0 14 0;
#X connect 14 0 12 0;
#X connect 15 0 1 0;
#X connect 16 0 19 0;
#X connect 17 0 49 0;
#X connect 18 0 16 0;
#X connect 19 0 20 0;
#X connect 20 0 21 0;
#X connect 21 0 22 1;
#X connect 22 0 23 0;
#X connect 23 0 24 0;
#X connect 24 0 25 0;
#X connect 24 0 27 0;
#X connect 25 0 26 0;
#X connect 26 0 24 1;
#X connect 27 0 13 0;
#X connect 27 0 46 0;
#X connect 28 0 30 0;
#X connect 29 0 31 0;
#X connect 30 0 29 0;
#X connect 32 0 33 0;
#X connect 33 0 13 0;
#X connect 34 0 50 0;
#X connect 35 0 22 0;
#X connect 36 0 37 0;
#X connect 36 1 39 0;
#X connect 36 2 44 0;
#X connect 36 3 45 0;
#X connect 36 4 38 0;
#X connect 37 0 42 0;
#X connect 39 0 43 0;
#X connect 41 0 40 0;
#X connect 42 0 41 0;
#X connect 43 0 41 1;
#X connect 47 0 7 0;
#X connect 48 0 3 0;
#X connect 49 0 16 1;
#X connect 50 0 15 0;
#X restore 145 200 pd control&play;
#X obj 144 26 loadbang;
#X text 144 227 mouse right=play;
#X connect 1 0 0 0;
#X connect 12 0 1 0;
