#N canvas 706 66 362 474 10;
#X obj -585 113 gemwin;
#X msg -604 60 destroy;
#X obj -604 33 sel 0 1;
#X obj -604 12 tgl 15 0 empty empty empty 17 7 0 10 -262144 -1 -1 1
1;
#X obj -469 21 loadbang;
#X msg -469 41 \; pd dsp 1;
#X msg -585 82 reset \, FSAA 8 \, color 0.95 0.95 0.95 \, create \,
1;
#N canvas 220 22 1185 744 clock 1;
#X obj 280 71 repeat 12;
#X obj 280 98 t a b;
#X obj 307 122 f;
#X obj 335 122 + 1;
#X obj 363 122 % 12;
#X obj 280 48 color 0 0 0;
#X obj 280 149 separator;
#X obj 279 267 translateXYZ;
#X obj 279 304 rotateXYZ;
#X obj 343 177 expr $f1*2*3.1415926;
#X obj 343 152 / 12;
#X obj 344 200 t f f;
#X obj 477 210 expr abs($f1)* 360;
#X obj 13 48 repeat 12;
#X obj 13 75 t a b;
#X obj 40 99 f;
#X obj 68 99 + 1;
#X obj 96 99 % 12;
#X obj 13 25 color 0 0 0;
#X obj 13 126 separator;
#X obj 12 267 translateXYZ;
#X obj 12 304 rotateXYZ;
#X obj 76 177 expr $f1*2*3.1415926;
#X obj 76 153 / 12;
#X obj 77 200 t f f;
#X obj 115 198 expr abs($f1)* 360;
#X obj 12 328 rectangle 0.15 0.05;
#X obj 279 328 rectangle 0.15 0.05;
#X obj 649 -8 gemhead;
#X obj 649 59 repeat 12;
#X obj 649 86 t a b;
#X obj 676 110 f;
#X obj 704 110 + 1;
#X obj 732 110 % 12;
#X obj 649 36 color 0 0 0;
#X obj 613 157 separator;
#X obj 612 275 translateXYZ;
#X obj 612 312 rotateXYZ;
#X obj 676 185 expr $f1*2*3.1415926;
#X obj 676 160 / 12;
#X obj 677 208 t f f;
#X obj 810 218 expr abs($f1)* 360;
#X obj 612 338 text3d 10;
#X obj 692 340 loadbang;
#X msg 691 360 2;
#X obj 704 254 expr sin($f1)* 3.1;
#X obj 677 230 expr cos($f1)* 3.1;
#X obj 649 13 translateXYZ 0 0.5 0;
#X obj 280 24 translateXYZ 0 0.5 0;
#X obj 280 0 gemhead;
#X obj 13 -30 gemhead;
#X obj 13 -5 translateXYZ 0 0.5 0;
#X obj 25 360 gemhead;
#X obj 25 405 color 0 0 0;
#X obj 25 433 circle 2.5;
#X msg -40 457 draw line \, width 3;
#X obj 25 482 circle 2.2;
#X obj -40 432 loadbang;
#X obj 23 570 color 1 0 0;
#X obj 23 607 circle 0.08;
#X obj 23 510 gemhead 30;
#X obj 23 541 translateXYZ 0 0.5 0;
#X obj 25 381 translateXYZ 0 0.5 0;
#X obj 259 435 color 1 0 0;
#X obj 259 460 rotateXYZ;
#X floatatom 347 428 5 0 0 0 - - -;
#X obj 258 609 rotateXYZ;
#X floatatom 346 577 5 0 0 0 - - -;
#X obj 259 483 translateXYZ 0.8 0 0;
#X obj 258 632 translateXYZ 0.5 0 0;
#X obj 257 660 rectangle 0.5 0.02;
#X obj 413 369 metro 125;
#X obj 413 345 tgl 15 0 empty empty empty 17 7 0 10 -262144 -1 -1 0
1;
#X obj 413 398 f;
#X obj 441 398 + 1;
#X obj 413 425 % 12;
#X obj 413 454 t f f;
#X obj 413 531 line;
#X obj 413 479 expr (1-($f1/12))*360;
#X msg 413 506 \$1 0;
#X obj 549 345 tgl 15 0 empty empty empty 17 7 0 10 -262144 -1 -1 0
1;
#X obj 549 398 f;
#X obj 577 398 + 1;
#X obj 549 425 % 12;
#X obj 549 454 t f f;
#X obj 549 531 line;
#X obj 549 479 expr (1-($f1/12))*360;
#X msg 549 506 \$1 0;
#X obj 413 299 tgl 15 0 empty empty empty 17 7 0 10 -262144 -1 -1 0
1;
#X obj 413 320 t f f f;
#X obj 563 298 sel 1;
#X msg 564 319 0;
#X obj 258 537 gemhead 20;
#X obj 259 507 rectangle 0.8 0.04;
#X obj 258 585 color 0 0 1;
#X obj 259 410 translateXYZ 0 0.5 0;
#X obj 259 387 gemhead 10;
#X obj 258 560 translateXYZ 0 0.5 0;
#X obj 413 275 r start;
#X obj 704 421 gemhead 10;
#X obj 704 467 color 1 0 0;
#X obj 704 503 text2d 10;
#X obj 873 342 gemhead 10;
#X obj 873 424 text2d 10;
#X obj 888 526 loadbang;
#X obj 873 388 color 0 0 1;
#X msg 930 285 0;
#X obj 930 259 loadbang;
#X obj 549 369 metro 124;
#X obj 676 135 t f f;
#X msg 803 489 justify left base \, text R-\$1;
#X msg 972 410 justify left base \, text B-\$1;
#X msg 952 443 10;
#X obj 704 444 translateXYZ 2.7 -3.2 0;
#X obj 873 365 translateXYZ 2.7 -3.4 0;
#X msg 705 306 text \$1;
#X obj 705 281 tabread melody;
#X obj 86 125 t f f;
#X obj 138 112 tabread melody;
#X obj 138 138 k_range 60 74 0.05 0.25;
#X obj 77 221 expr cos($f1)* $f2;
#X obj 104 246 expr sin($f1)* $f2;
#X obj 153 280 expr 2.2-$f1;
#X obj 391 145 t f f;
#X obj 443 132 tabread melody;
#X obj 443 158 k_range 60 74 0.05 0.25;
#X obj 371 246 expr sin($f1)* $f2;
#X obj 344 222 expr cos($f1)* $f2;
#X obj 515 243 expr 2.5+$f1;
#X obj 456 510 tabread melody;
#X obj 456 558 mtof~;
#X obj 456 583 osc~;
#X obj 456 531 t f b;
#X msg 504 564 0.6 \, 0 125;
#X obj 504 586 line~;
#X obj 456 608 *~;
#X obj 456 638 dac~;
#X obj 590 514 tabread melody;
#X obj 590 562 mtof~;
#X obj 590 587 osc~;
#X obj 590 535 t f b;
#X msg 638 568 0.6 \, 0 125;
#X obj 638 590 line~;
#X obj 590 612 *~;
#X connect 0 0 1 0;
#X connect 1 0 6 0;
#X connect 1 1 2 0;
#X connect 2 0 3 0;
#X connect 2 0 123 0;
#X connect 3 0 4 0;
#X connect 4 0 2 1;
#X connect 5 0 0 0;
#X connect 6 0 7 0;
#X connect 7 0 8 0;
#X connect 8 0 27 0;
#X connect 9 0 11 0;
#X connect 10 0 9 0;
#X connect 10 0 12 0;
#X connect 11 0 127 0;
#X connect 11 1 126 0;
#X connect 12 0 8 3;
#X connect 13 0 14 0;
#X connect 14 0 19 0;
#X connect 14 1 15 0;
#X connect 15 0 16 0;
#X connect 15 0 117 0;
#X connect 16 0 17 0;
#X connect 17 0 15 1;
#X connect 18 0 13 0;
#X connect 19 0 20 0;
#X connect 20 0 21 0;
#X connect 21 0 26 0;
#X connect 22 0 24 0;
#X connect 23 0 22 0;
#X connect 23 0 25 0;
#X connect 24 0 120 0;
#X connect 24 1 121 0;
#X connect 25 0 21 3;
#X connect 28 0 47 0;
#X connect 29 0 30 0;
#X connect 30 0 35 0;
#X connect 30 1 31 0;
#X connect 31 0 32 0;
#X connect 31 0 109 0;
#X connect 32 0 33 0;
#X connect 33 0 31 1;
#X connect 34 0 29 0;
#X connect 35 0 36 0;
#X connect 36 0 37 0;
#X connect 37 0 42 0;
#X connect 38 0 40 0;
#X connect 39 0 38 0;
#X connect 39 0 41 0;
#X connect 40 0 46 0;
#X connect 40 1 45 0;
#X connect 41 0 37 3;
#X connect 43 0 44 0;
#X connect 44 0 42 1;
#X connect 45 0 36 2;
#X connect 46 0 36 1;
#X connect 47 0 34 0;
#X connect 48 0 5 0;
#X connect 49 0 48 0;
#X connect 50 0 51 0;
#X connect 51 0 18 0;
#X connect 52 0 62 0;
#X connect 53 0 54 0;
#X connect 54 0 56 0;
#X connect 55 0 54 0;
#X connect 55 0 56 0;
#X connect 57 0 55 0;
#X connect 58 0 59 0;
#X connect 60 0 61 0;
#X connect 61 0 58 0;
#X connect 62 0 53 0;
#X connect 63 0 64 0;
#X connect 64 0 68 0;
#X connect 65 0 64 3;
#X connect 66 0 69 0;
#X connect 67 0 66 3;
#X connect 68 0 93 0;
#X connect 69 0 70 0;
#X connect 71 0 73 0;
#X connect 72 0 71 0;
#X connect 73 0 74 0;
#X connect 73 0 75 0;
#X connect 73 0 110 0;
#X connect 74 0 73 1;
#X connect 75 0 76 0;
#X connect 76 0 78 0;
#X connect 76 1 129 0;
#X connect 77 0 65 0;
#X connect 78 0 79 0;
#X connect 79 0 77 0;
#X connect 80 0 108 0;
#X connect 81 0 82 0;
#X connect 81 0 83 0;
#X connect 81 0 111 0;
#X connect 82 0 81 1;
#X connect 83 0 84 0;
#X connect 84 0 86 0;
#X connect 84 1 137 0;
#X connect 85 0 67 0;
#X connect 86 0 87 0;
#X connect 87 0 85 0;
#X connect 88 0 89 0;
#X connect 89 0 72 0;
#X connect 89 1 80 0;
#X connect 89 2 90 0;
#X connect 90 0 91 0;
#X connect 91 0 73 1;
#X connect 91 0 81 1;
#X connect 92 0 97 0;
#X connect 94 0 66 0;
#X connect 95 0 63 0;
#X connect 96 0 95 0;
#X connect 97 0 94 0;
#X connect 98 0 88 0;
#X connect 99 0 113 0;
#X connect 100 0 101 0;
#X connect 102 0 114 0;
#X connect 104 0 112 0;
#X connect 105 0 103 0;
#X connect 106 0 110 0;
#X connect 106 0 111 0;
#X connect 107 0 106 0;
#X connect 108 0 81 0;
#X connect 109 0 39 0;
#X connect 109 1 116 0;
#X connect 110 0 101 0;
#X connect 111 0 103 0;
#X connect 112 0 103 1;
#X connect 112 0 101 1;
#X connect 113 0 100 0;
#X connect 114 0 105 0;
#X connect 115 0 42 0;
#X connect 116 0 115 0;
#X connect 117 0 23 0;
#X connect 117 1 118 0;
#X connect 118 0 119 0;
#X connect 119 0 26 1;
#X connect 119 0 122 0;
#X connect 120 0 20 1;
#X connect 121 0 20 2;
#X connect 122 0 120 1;
#X connect 122 0 121 1;
#X connect 123 0 10 0;
#X connect 123 1 124 0;
#X connect 124 0 125 0;
#X connect 125 0 128 0;
#X connect 125 0 27 1;
#X connect 126 0 7 2;
#X connect 127 0 7 1;
#X connect 128 0 127 1;
#X connect 128 0 126 1;
#X connect 129 0 132 0;
#X connect 130 0 131 0;
#X connect 131 0 135 0;
#X connect 132 0 130 0;
#X connect 132 1 133 0;
#X connect 133 0 134 0;
#X connect 134 0 135 1;
#X connect 135 0 136 0;
#X connect 137 0 140 0;
#X connect 138 0 139 0;
#X connect 139 0 143 0;
#X connect 140 0 138 0;
#X connect 140 1 141 0;
#X connect 141 0 142 0;
#X connect 142 0 143 1;
#X connect 143 0 136 1;
#X restore -586 137 pd clock;
#N canvas 430 136 341 285 mouseControl 0;
#X obj 167 -16 gemmouse 1 1;
#X obj 167 66 expr ($f1*8)-4;
#X obj 236 46 s mouseRight;
#X obj 194 140 v x;
#X obj 232 139 v y;
#X obj 184 91 expr ($f1*-8)+4;
#X obj 167 188 s mousePos;
#X obj 167 162 pack f f;
#X obj 167 116 t f f;
#X obj 205 117 t f f;
#X obj 201 26 s mouseLeft;
#X obj 218 5 s mouseMiddle;
#X connect 0 0 1 0;
#X connect 0 1 5 0;
#X connect 0 2 10 0;
#X connect 0 3 11 0;
#X connect 0 4 2 0;
#X connect 1 0 8 0;
#X connect 5 0 9 0;
#X connect 7 0 6 0;
#X connect 8 0 7 0;
#X connect 8 1 3 0;
#X connect 9 0 7 1;
#X connect 9 1 4 0;
#X restore -541 113 pd mouseControl;
#X obj -423 245 tgl 15 0 empty empty empty 17 7 0 10 -262144 -1 -1
0 1;
#X msg -530 296 1 0 0;
#X msg -511 320 1 1 1;
#X obj -530 273 sel 1 0;
#X obj -585 257 color;
#X obj -585 300 square;
#X obj -540 168 r mousePos;
#X obj -585 221 k_btn -2.5 -3.3 0.2 0.2;
#X obj -585 193 gemhead 50;
#X obj -566 399 color 0 0 0;
#X obj -566 373 translateXYZ -2.5 -3.3 0;
#X obj -566 349 gemhead 40;
#X obj -566 425 square 0.3;
#X obj -456 317 tgl 15 0 empty empty empty 17 7 0 10 -262144 -1 -1
0 1;
#X obj -456 272 spigot;
#X obj -436 221 r mouseLeft;
#X obj -456 295 sel 1;
#X obj -456 338 s start;
#X obj -529 137 table melody 12;
#X obj -394 264 Rslider 0;
#X obj -394 287 Rslider 1;
#X obj -394 309 Rslider 2;
#X obj -394 333 Rslider 3;
#X obj -394 357 Rslider 4;
#X obj -394 379 Rslider 5;
#X obj -329 264 Rslider 6;
#X obj -328 288 Rslider 7;
#X obj -328 312 Rslider 8;
#X obj -328 334 Rslider 9;
#X obj -328 358 Rslider 10;
#X obj -328 380 Rslider 11;
#X connect 1 0 0 0;
#X connect 2 0 1 0;
#X connect 2 1 6 0;
#X connect 3 0 2 0;
#X connect 4 0 5 0;
#X connect 6 0 0 0;
#X connect 9 0 23 1;
#X connect 10 0 13 1;
#X connect 11 0 13 1;
#X connect 12 0 10 0;
#X connect 12 1 11 0;
#X connect 13 0 14 0;
#X connect 15 0 16 1;
#X connect 16 0 13 0;
#X connect 16 1 9 0;
#X connect 17 0 16 0;
#X connect 18 0 21 0;
#X connect 19 0 18 0;
#X connect 20 0 19 0;
#X connect 22 0 12 0;
#X connect 22 0 26 0;
#X connect 23 0 25 0;
#X connect 24 0 23 0;
#X connect 25 0 22 0;
