#N canvas 649 67 495 681 10;
#X obj -94 97 r mousePos;
#X obj -8 149 tgl 15 0 empty empty empty 17 7 0 10 -262144 -1 -1 0
1;
#X obj -47 18 init \$1;
#X obj -47 72 pack f -3.3;
#X obj -47 48 k_range 0 11 -1.9 2.3;
#X obj -137 72 gemhead 5;
#X obj -111 332 color 1 0 0;
#X obj -111 307 translateXYZ 0 -3.3 0;
#X obj -111 398 rectangle 0.13 0.02;
#X obj -111 271 gemhead 20;
#X obj -86 216 unpack f f;
#X obj -86 188 r mousePos;
#X obj -29 278 spigot;
#X obj 4 213 r mouseLeft;
#X obj -29 239 spigot;
#X floatatom 40 311 5 0 0 0 - - -;
#X floatatom 40 369 5 0 0 0 - - -;
#X obj 40 336 k_event -3.6 -3;
#X obj 28 185 square;
#X obj 28 72 gemhead 5;
#X obj 28 156 color 0 0 0;
#X obj 28 101 translateXYZ 0 -3.3 0;
#X obj 28 125 scaleXYZ 0.08 0.3 1;
#X obj -137 124 k_btn -2 -3.3 0.1 0.45;
#X obj 184 237 gemhead 5;
#X obj 184 321 color 0 0 0;
#X obj 184 364 text2d;
#X obj 184 266 translateXYZ 0 -3.7 0;
#X msg 221 296 text \$1;
#X obj 40 394 k_range -3.58 -3 60 74;
#X floatatom 40 438 5 0 0 0 - - -;
#X obj 40 417 int;
#X obj 40 459 + 1;
#X floatatom 40 480 5 0 0 0 - - -;
#X obj 233 344 loadbang;
#X obj 40 264 loadbang;
#X msg 40 285 -3.3;
#X msg 234 365 8;
#X obj 40 557 tabwrite melody;
#X obj 110 525 f \$1;
#X obj 40 502 t f b;
#X connect 0 0 23 1;
#X connect 1 0 12 1;
#X connect 2 0 4 0;
#X connect 3 0 23 2;
#X connect 4 0 3 0;
#X connect 4 0 7 1;
#X connect 4 0 21 1;
#X connect 4 0 27 1;
#X connect 5 0 23 0;
#X connect 6 0 8 0;
#X connect 7 0 6 0;
#X connect 9 0 7 0;
#X connect 10 1 14 0;
#X connect 11 0 10 0;
#X connect 12 0 15 0;
#X connect 13 0 14 1;
#X connect 14 0 12 0;
#X connect 15 0 17 0;
#X connect 16 0 7 2;
#X connect 16 0 29 0;
#X connect 17 0 16 0;
#X connect 19 0 21 0;
#X connect 20 0 18 0;
#X connect 21 0 22 0;
#X connect 22 0 20 0;
#X connect 23 1 1 0;
#X connect 24 0 27 0;
#X connect 25 0 26 0;
#X connect 27 0 25 0;
#X connect 28 0 26 0;
#X connect 29 0 31 0;
#X connect 30 0 32 0;
#X connect 31 0 30 0;
#X connect 32 0 33 0;
#X connect 33 0 28 0;
#X connect 33 0 40 0;
#X connect 34 0 37 0;
#X connect 35 0 36 0;
#X connect 36 0 15 0;
#X connect 37 0 26 1;
#X connect 39 0 38 1;
#X connect 40 0 38 0;
#X connect 40 1 39 0;
