#N canvas 606 303 265 254 10;
#X obj 16 94 k_vol~;
#X obj 132 93 k_vol~;
#N canvas 0 22 450 300 sound 0;
#X obj 109 226 dac~;
#X obj 109 147 st-pureverb /key;
#X obj 224 91 loadbang;
#X msg 224 116 1 0.4;
#X obj 114 31 inlet~;
#X obj 108 97 *~ 1;
#X obj 152 122 *~ 1;
#X obj 156 60 inlet~;
#X connect 1 0 0 0;
#X connect 1 1 0 1;
#X connect 2 0 3 0;
#X connect 3 0 1 2;
#X connect 4 0 5 0;
#X connect 5 0 1 0;
#X connect 6 0 1 1;
#X connect 7 0 6 0;
#X restore 16 207 pd sound;
#N canvas 0 22 315 355 clone 0;
#X obj 35 185 loadbang;
#X msg 35 210 \; pd dsp 1;
#X msg -43 252 pd~ stop;
#X obj 35 282 pd~ -noutsig 2 -fifo 20;
#X msg 120 216 -nogui;
#X msg 35 250 pd~ start av26_gem.pd;
#X obj 107 125 tgl 30 0 empty empty empty 17 7 0 10 -262144 -1 -1 0
1;
#X obj 107 160 sel 0 1;
#X obj 115 321 outlet~;
#X obj 199 322 outlet~;
#X connect 0 0 1 0;
#X connect 2 0 3 0;
#X connect 3 1 8 0;
#X connect 3 2 9 0;
#X connect 5 0 3 0;
#X connect 6 0 7 0;
#X connect 7 0 2 0;
#X connect 7 1 5 0;
#X coords 0 -1 1 1 60 60 1 100 100;
#X restore 17 17 pd clone;
#X connect 0 0 2 0;
#X connect 1 0 2 1;
#X connect 3 0 0 0;
#X connect 3 1 1 0;
