#N canvas 607 129 239 147 10;
#N canvas 251 98 1280 747 mouseIn 0;
#X obj 640 -142 gemmouse 1 1;
#X obj 635 95 pack f f;
#X obj 680 28 expr ($f1*-8)+4;
#X obj 95 358 list;
#X msg 165 375 1;
#X msg 208 373 2;
#X obj 95 294 t b b;
#X obj 165 412 gate 2;
#X obj 165 439 list;
#X obj 165 460 list prepend;
#X obj 278 364 + 1;
#X floatatom 246 389 5 0 0 0 - - -, f 5;
#X obj 165 532 s addline;
#X obj 414 305 s allclose;
#X obj 414 268 tgl 30 0 empty empty empty 17 7 0 10 -262144 -1 -1 0
1;
#X obj 414 223 loadbang;
#X msg 414 244 0;
#X obj 246 364 f 0;
#X msg 264 329 0;
#X obj 640 -38 moses 1.001;
#X obj 657 -19 moses 1.001;
#X obj 460 553 curve 2;
#X obj 460 389 gemhead 1000;
#X obj 381 495 loadbang;
#X obj 622 346 list;
#X obj 622 374 list append 0;
#X obj 495 335 list;
#X obj 495 356 list append 0;
#X obj 460 365 tgl 15 0 empty empty empty 17 7 0 10 -262144 -1 -1 0
1;
#X obj 495 309 metro 30;
#X obj 495 285 tgl 15 0 empty empty empty 17 7 0 10 -262144 -1 -1 0
1;
#X msg 381 527 draw point;
#X obj 707 96 v mouseY;
#X obj 667 73 v mouseX;
#X msg 596 245 res \$1;
#X obj 209 -54 hid;
#X obj 209 -27 route key;
#X obj 174 126 tgl 15 0 empty empty empty 17 7 0 10 -262144 -1 -1 1
1;
#X obj 674 -72 s mouse_left;
#X obj 185 235 r mouse_left;
#X obj 495 222 r mouse_left;
#X obj 680 52 t f f;
#X obj 640 28 t f f;
#X obj 635 122 s mouse_pos;
#X obj 643 325 r mouse_pos;
#X obj 120 334 r mouse_pos;
#X obj 529 334 r mouse_pos;
#X obj 709 -119 s mouse_right;
#X obj 95 264 sel 1;
#X obj 185 300 t b b b;
#X obj 263 303 sel 1;
#X obj 185 279 sel 0;
#X obj 95 205 r mouse_left;
#X obj 265 461 s show-num;
#X obj 392 364 loadbang;
#X msg 392 386 0;
#X text 278 65 board z &space;
#X obj 210 -3 t a a a a;
#X obj 250 27 s hid;
#X obj 569 -91 s MouseX;
#X obj 569 -67 s MouseY;
#N canvas 229 294 450 300 center 0;
#X obj 115 57 inlet;
#X obj 265 57 inlet;
#X obj 109 146 expr ($f1+$f2)/2;
#X obj 140 173 expr ($f1+$f2)/2;
#X obj 91 237 outlet;
#X obj 135 236 outlet;
#X obj 113 96 unpack f f;
#X obj 270 91 unpack f f;
#X connect 0 0 6 0;
#X connect 1 0 7 0;
#X connect 2 0 4 0;
#X connect 3 0 5 0;
#X connect 6 0 2 0;
#X connect 6 1 3 0;
#X connect 7 0 2 1;
#X connect 7 1 3 1;
#X restore 652 457 pd center;
#X obj 662 607 loadbang;
#X floatatom 689 545 5 0 0 0 - - -, f 5;
#X obj 602 567 rotateXYZ 0 0 0;
#X obj 949 319 unpack f f;
#X obj 1071 336 unpack f f;
#X obj 949 362 expr ($f1-$f2);
#X obj 1047 365 expr ($f1-$f2);
#X obj 948 390 expr atan2($f1 \, $f2)*180/3.1415926;
#X floatatom 948 413 5 0 0 0 - - -, f 5;
#X obj 847 220 k_aPos =====;
#X obj 847 161 gemhead;
#X obj 980 160 loadbang;
#X obj 931 221 k_aPos =====;
#X obj 847 183 t a a;
#X obj 859 334 distance_n;
#X obj 948 444 - 90;
#X msg 777 529 text --Pitch [\$1]--;
#X obj 283 126 tgl 15 0 empty empty empty 17 7 0 10 -262144 -1 -1 0
1;
#X obj 691 -99 s mouse_center;
#X floatatom 640 -119 5 0 0 0 - - -, f 5;
#X floatatom 657 -97 5 0 0 0 - - -, f 5;
#X obj 596 221 + 50;
#X obj 596 198 random 20;
#X obj 596 176 metro 50;
#X obj 802 462 int;
#X obj 802 366 moses 8;
#X msg 841 388 8;
#X floatatom 802 408 5 0 0 0 - - -, f 5;
#X obj 802 433 expr 84-(($f1/8)*36);
#X obj 640 4 expr ($f1*8)-4;
#X obj 604 433 gemhead 1000;
#X obj 604 485 translateXYZ 0 0 0.01;
#X obj 602 592 text3d;
#X msg 695 633 font ../vera.ttf;
#X msg 662 630 4;
#X msg 980 184 0.2;
#X obj 602 510 color 1 1 1;
#X msg 209 -75 open keyboard \$1 \, 1;
#X obj 209 -100 inlet;
#X obj 95 231 spigot 0;
#X obj 185 256 spigot 0;
#X obj 495 260 spigot 0;
#X obj 165 495 list append 5;
#X obj 230 83 route key_29 key_44 key_4 key_20;
#X obj 174 150 t f f f;
#X obj 228 113 t f f;
#X obj 260 150 sel 1;
#X msg 260 172 1;
#X obj 362 151 sel 1;
#X obj 430 151 sel 1;
#X msg 362 173 2;
#X msg 430 173 3;
#X floatatom 267 499 5 0 0 0 - - -, f 5;
#X obj 338 114 t f f;
#X obj 396 111 t f f;
#X obj 281 521 sel 1 2 3;
#X msg 281 543 1 1 1;
#X msg 321 595 0 1 0;
#X obj 460 445 color 1 1 1;
#X obj 460 414 GEMglPointSize 4;
#X msg 300 568 1 1 0;
#X obj 776 500 gate 3;
#X msg 799 552 text --Maj [\$1]--;
#X msg 818 576 text --Min [\$1]--;
#X obj 311 364 % 20;
#X connect 0 0 81 0;
#X connect 0 1 82 0;
#X connect 0 2 38 0;
#X connect 0 3 80 0;
#X connect 0 4 47 0;
#X connect 1 0 43 0;
#X connect 2 0 41 0;
#X connect 3 0 7 1;
#X connect 4 0 7 0;
#X connect 5 0 7 0;
#X connect 6 0 3 0;
#X connect 6 1 4 0;
#X connect 7 0 8 1;
#X connect 7 1 8 0;
#X connect 8 0 9 0;
#X connect 9 0 104 0;
#X connect 10 0 126 0;
#X connect 11 0 9 1;
#X connect 11 0 53 0;
#X connect 14 0 13 0;
#X connect 15 0 16 0;
#X connect 16 0 14 0;
#X connect 17 0 10 0;
#X connect 17 0 11 0;
#X connect 18 0 17 1;
#X connect 19 0 91 0;
#X connect 20 0 2 0;
#X connect 22 0 121 0;
#X connect 23 0 31 0;
#X connect 24 0 25 0;
#X connect 25 0 21 1;
#X connect 25 0 21 2;
#X connect 25 0 74 1;
#X connect 26 0 27 0;
#X connect 27 0 21 1;
#X connect 27 0 71 1;
#X connect 28 0 22 0;
#X connect 28 0 72 0;
#X connect 28 0 85 0;
#X connect 28 0 92 0;
#X connect 29 0 26 0;
#X connect 30 0 29 0;
#X connect 31 0 21 0;
#X connect 34 0 21 0;
#X connect 35 0 36 0;
#X connect 36 0 57 0;
#X connect 37 0 106 0;
#X connect 39 0 102 0;
#X connect 40 0 103 0;
#X connect 41 0 1 1;
#X connect 41 1 32 0;
#X connect 42 0 1 0;
#X connect 42 1 33 0;
#X connect 44 0 24 1;
#X connect 45 0 3 1;
#X connect 46 0 26 1;
#X connect 48 0 6 0;
#X connect 48 0 24 0;
#X connect 49 0 3 0;
#X connect 49 1 5 0;
#X connect 49 2 17 0;
#X connect 50 0 16 0;
#X connect 50 0 18 0;
#X connect 51 0 49 0;
#X connect 52 0 101 0;
#X connect 54 0 55 0;
#X connect 55 0 28 0;
#X connect 57 1 105 0;
#X connect 57 2 58 0;
#X connect 61 0 93 1;
#X connect 61 1 93 2;
#X connect 62 0 96 0;
#X connect 62 0 95 0;
#X connect 63 0 64 3;
#X connect 64 0 94 0;
#X connect 65 0 67 0;
#X connect 65 1 68 0;
#X connect 66 0 67 1;
#X connect 66 1 68 1;
#X connect 67 0 69 1;
#X connect 68 0 69 0;
#X connect 69 0 70 0;
#X connect 70 0 63 0;
#X connect 70 0 77 0;
#X connect 71 0 61 0;
#X connect 71 0 76 0;
#X connect 71 0 65 0;
#X connect 72 0 75 0;
#X connect 73 0 97 0;
#X connect 74 0 61 1;
#X connect 74 0 76 1;
#X connect 74 0 66 0;
#X connect 75 0 71 0;
#X connect 75 1 74 0;
#X connect 76 0 87 0;
#X connect 77 0 71 3;
#X connect 77 0 74 3;
#X connect 78 0 94 0;
#X connect 79 0 50 0;
#X connect 81 0 59 0;
#X connect 81 0 19 0;
#X connect 82 0 60 0;
#X connect 82 0 20 0;
#X connect 83 0 34 0;
#X connect 84 0 83 0;
#X connect 85 0 84 0;
#X connect 86 0 123 1;
#X connect 87 0 89 0;
#X connect 87 1 88 0;
#X connect 88 0 89 0;
#X connect 89 0 90 0;
#X connect 90 0 86 0;
#X connect 91 0 42 0;
#X connect 92 0 93 0;
#X connect 93 0 98 0;
#X connect 95 0 94 0;
#X connect 96 0 94 1;
#X connect 97 0 71 2;
#X connect 97 0 74 2;
#X connect 98 0 64 0;
#X connect 99 0 35 0;
#X connect 100 0 99 0;
#X connect 101 0 48 0;
#X connect 102 0 51 0;
#X connect 103 0 30 0;
#X connect 103 0 28 0;
#X connect 104 0 12 0;
#X connect 105 0 107 0;
#X connect 105 1 79 0;
#X connect 105 2 115 0;
#X connect 105 3 116 0;
#X connect 106 0 101 1;
#X connect 106 1 102 1;
#X connect 106 2 103 1;
#X connect 107 0 37 0;
#X connect 107 1 108 0;
#X connect 108 0 109 0;
#X connect 109 0 114 0;
#X connect 110 0 112 0;
#X connect 111 0 113 0;
#X connect 112 0 114 0;
#X connect 113 0 114 0;
#X connect 114 0 104 1;
#X connect 114 0 117 0;
#X connect 114 0 123 0;
#X connect 115 0 37 0;
#X connect 115 1 110 0;
#X connect 116 0 37 0;
#X connect 116 1 111 0;
#X connect 117 0 118 0;
#X connect 117 1 122 0;
#X connect 117 2 119 0;
#X connect 118 0 120 1;
#X connect 119 0 120 1;
#X connect 120 0 21 0;
#X connect 121 0 120 0;
#X connect 122 0 120 1;
#X connect 123 0 78 0;
#X connect 123 1 124 0;
#X connect 123 2 125 0;
#X connect 124 0 94 0;
#X connect 125 0 94 0;
#X connect 126 0 17 1;
#X restore 15 87 pd mouseIn && guiIn;
#X obj 15 31 loadbang;
#X obj 15 53 tgl 30 0 empty empty empty 17 7 0 10 -262144 -1 -1 0 1
;
#N canvas 225 23 785 777 gem-image 0;
#X obj 200 291 pack f f;
#X obj 212 377 pack f f;
#X obj 45 121 expr $f1*2*3.1415926;
#X obj 34 207 expr cos($f1)*$f2+$f3;
#X obj 60 230 expr sin($f1)*$f2+$f3;
#X obj 45 148 t f f b b b;
#X obj 157 176 v x_\$0;
#X obj 183 207 v y_\$0;
#X obj 212 346 v x_\$0;
#X obj 257 346 v y_\$0;
#N canvas 671 85 685 694 circle 0;
#X obj 53 187 inlet;
#X obj 220 369 inlet;
#X obj 100 441 translate 1 0 0 0;
#X obj -28 436 translate 1 0 0 0;
#X obj -61 272 separator;
#X obj -28 408 separator;
#X obj 100 413 separator;
#X obj -61 303 curve 2;
#X obj -59 149 t a b b b;
#X obj 199 396 list;
#X obj 199 416 list append 0;
#X obj 17 -28 init \$1;
#X obj 17 -6 sel 1 2 3;
#X obj 21 226 list;
#X obj 21 250 list append 0;
#X obj -58 20 r \$0-start;
#X obj -61 228 t a a a a a;
#X obj -28 459 circle 0.08;
#X obj 100 466 circle 0.04;
#X obj 26 -55 bng 15 250 50 0 empty empty empty 17 7 0 10 -262144 -1
-1;
#X msg 51 74 0.1 0.3 1;
#X msg 34 47 0.1 1 0.1;
#X msg 17 18 1 0.1 0.1;
#X msg -140 195 width 2;
#X obj -140 171 loadbang;
#X obj -58 73 gemhead 500;
#X obj -58 191 alpha 1;
#X obj -58 128 colorRGB 1 1 1 0.8;
#X connect 0 0 13 1;
#X connect 1 0 9 1;
#X connect 2 0 18 0;
#X connect 3 0 17 0;
#X connect 4 0 7 0;
#X connect 5 0 3 0;
#X connect 6 0 2 0;
#X connect 8 0 26 0;
#X connect 8 2 13 0;
#X connect 8 3 9 0;
#X connect 9 0 10 0;
#X connect 10 0 7 2;
#X connect 10 0 2 2;
#X connect 11 0 12 0;
#X connect 12 0 22 0;
#X connect 12 1 21 0;
#X connect 12 2 20 0;
#X connect 13 0 14 0;
#X connect 14 0 7 1;
#X connect 14 0 3 2;
#X connect 15 0 25 0;
#X connect 16 1 4 0;
#X connect 16 2 5 0;
#X connect 16 3 6 0;
#X connect 19 0 11 0;
#X connect 23 0 7 0;
#X connect 24 0 23 0;
#X connect 25 0 27 0;
#X connect 26 0 16 0;
#X connect 27 0 8 0;
#X restore 200 413 pd circle;
#X obj 45 70 f 0;
#X obj 34 322 k_range -4 4 0 200;
#X obj 69 474 k_range -4 4 0 200;
#X obj 114 441 k_range 4 -4 0 200;
#X obj 69 496 pack f f;
#X obj 34 497 list;
#X obj 34 375 pack f f;
#X obj 200 319 t a b b;
#X obj 45 42 metro 5;
#X obj 45 95 expr fmod(($f1/100)+1 \, 1);
#X obj 122 70 fmod 100;
#X obj 76 70 + 0.05;
#X obj 34 274 t f f;
#X obj 60 252 t f f;
#X obj 34 401 t a b b;
#X obj 79 349 k_range 4 -4 0 200;
#X obj 69 450 v x_\$0;
#X obj 114 421 v y_\$0;
#X obj 34 523 s mainline1;
#X obj 45 24 tgl 15 0 empty empty empty 17 7 0 10 -262144 -1 -1 1 1
;
#X obj 45 6 loadbang;
#X obj 434 309 catch~ all;
#X obj 433 412 dac~;
#X obj 95 182 f 2.5;
#X obj 282 473 pix_texture;
#X obj 282 381 gemhead 20;
#X obj 36 709 loadbang;
#X msg 36 735 \; pd dsp 1;
#X obj 479 414 tabwrite~ \$0-sound;
#X obj 479 355 gemhead;
#X obj 479 379 t b;
#X obj 479 438 table \$0-sound 800;
#X obj 282 527 square 4.5;
#X floatatom 349 502 5 0 0 0 - - -, f 5;
#X obj 415 460 env~;
#X floatatom 415 486 5 0 0 0 - - -, f 5;
#X obj 415 511 k_maxmin 500;
#X obj 415 566 k_range 0 1 4 6;
#X obj 282 443 colorRGB 1 1 1 1;
#X obj 282 410 pix_image grid_1.png;
#N canvas 532 227 513 343 fill-circl 0;
#X obj 172 140 gemhead;
#X obj 171 220 rotateXYZ;
#X obj 172 166 t a b;
#N canvas 467 181 745 552 circle 0;
#X obj -377 67 GEMglEnd;
#X obj -326 36 GEMglBegin;
#X obj -377 36 t a a a;
#X obj -358 402 GEMglVertex3f 0 0 0;
#X obj -358 125 t a b;
#X obj -331 148 f;
#X obj -300 148 + 1;
#X obj -286 246 expr $f1*2 *3.1415926;
#X msg -269 13 9;
#X obj -286 336 expr cos($f1)*$f2+$f3;
#X obj -253 359 expr sin($f1)*$f2+$f3;
#X obj -286 270 t f f b b b;
#X obj -163 312 v x_\$0;
#X obj -130 335 v y_\$0;
#X obj -267 -18 loadbang;
#X obj -226 310 f 2.5;
#X obj -329 171 t f f;
#X obj -121 254 + 2.5;
#X obj -121 206 tabread \$0-sound;
#X msg -121 154 0;
#X obj -121 229 * 0.5;
#X obj -358 100 repeat 200;
#X obj -270 147 % 200;
#X obj -286 220 expr $f1/200;
#X obj -121 128 sel 0 199;
#X obj -121 102 t f f;
#X obj -29 112 expr if($f1>100 \, 200-$f1 \, $f1);
#X obj -29 144 expr pow(($f1/100) \, 1);
#X obj -392 -19 colorRGB 1 0 0 0.9;
#X obj -429 -46 t a a;
#X obj -868 95 GEMglEnd;
#X obj -817 64 GEMglBegin;
#X obj -868 64 t a a a;
#X obj -849 430 GEMglVertex3f 0 0 0;
#X obj -849 153 t a b;
#X obj -822 176 f;
#X obj -791 176 + 1;
#X obj -777 274 expr $f1*2 *3.1415926;
#X obj -777 364 expr cos($f1)*$f2+$f3;
#X obj -744 387 expr sin($f1)*$f2+$f3;
#X obj -777 298 t f f b b b;
#X obj -654 340 v x_\$0;
#X obj -621 363 v y_\$0;
#X obj -760 18 loadbang;
#X obj -717 338 f 2.5;
#X obj -820 199 t f f;
#X obj -612 282 + 2.5;
#X obj -612 234 tabread \$0-sound;
#X msg -612 182 0;
#X obj -612 257 * 0.5;
#X obj -849 128 repeat 200;
#X obj -761 175 % 200;
#X obj -777 248 expr $f1/200;
#X obj -612 156 sel 0 199;
#X obj -612 130 t f f;
#X obj -546 157 expr if($f1>100 \, 200-$f1 \, $f1);
#X obj -546 189 expr pow(($f1/100) \, 1);
#X obj -868 7 colorRGB 1 1 1;
#X obj -868 32 GEMglLineWidth 2;
#X obj -121 178 * 4;
#X obj -612 206 * 4;
#X obj -383 12 alpha 1;
#X obj -428 -75 inlet;
#X msg -760 41 0;
#X connect 2 0 0 0;
#X connect 2 1 21 0;
#X connect 2 2 1 0;
#X connect 4 0 3 0;
#X connect 4 1 5 0;
#X connect 5 0 6 0;
#X connect 5 0 16 0;
#X connect 6 0 22 0;
#X connect 7 0 11 0;
#X connect 8 0 1 1;
#X connect 9 0 3 1;
#X connect 10 0 3 2;
#X connect 11 0 9 0;
#X connect 11 1 10 0;
#X connect 11 2 12 0;
#X connect 11 3 13 0;
#X connect 11 4 15 0;
#X connect 12 0 9 2;
#X connect 13 0 10 2;
#X connect 14 0 8 0;
#X connect 15 0 10 1;
#X connect 15 0 9 1;
#X connect 16 0 23 0;
#X connect 16 1 25 0;
#X connect 17 0 15 1;
#X connect 18 0 20 0;
#X connect 19 0 59 0;
#X connect 20 0 17 0;
#X connect 21 0 4 0;
#X connect 22 0 5 1;
#X connect 23 0 7 0;
#X connect 24 0 19 0;
#X connect 24 1 19 0;
#X connect 24 2 59 0;
#X connect 25 0 24 0;
#X connect 25 1 26 0;
#X connect 26 0 27 0;
#X connect 27 0 20 1;
#X connect 28 0 61 0;
#X connect 29 0 57 0;
#X connect 29 1 28 0;
#X connect 32 0 30 0;
#X connect 32 1 50 0;
#X connect 32 2 31 0;
#X connect 34 0 33 0;
#X connect 34 1 35 0;
#X connect 35 0 36 0;
#X connect 35 0 45 0;
#X connect 36 0 51 0;
#X connect 37 0 40 0;
#X connect 38 0 33 1;
#X connect 39 0 33 2;
#X connect 40 0 38 0;
#X connect 40 1 39 0;
#X connect 40 2 41 0;
#X connect 40 3 42 0;
#X connect 40 4 44 0;
#X connect 41 0 38 2;
#X connect 42 0 39 2;
#X connect 43 0 63 0;
#X connect 44 0 39 1;
#X connect 44 0 38 1;
#X connect 45 0 52 0;
#X connect 45 1 54 0;
#X connect 46 0 44 1;
#X connect 47 0 49 0;
#X connect 48 0 60 0;
#X connect 49 0 46 0;
#X connect 50 0 34 0;
#X connect 51 0 35 1;
#X connect 52 0 37 0;
#X connect 53 0 48 0;
#X connect 53 1 48 0;
#X connect 53 2 60 0;
#X connect 54 0 53 0;
#X connect 54 1 55 0;
#X connect 55 0 56 0;
#X connect 56 0 49 1;
#X connect 57 0 58 0;
#X connect 58 0 32 0;
#X connect 59 0 18 0;
#X connect 60 0 47 0;
#X connect 61 0 2 0;
#X connect 62 0 29 0;
#X connect 63 0 31 1;
#X restore 171 243 pd circle;
#X obj 314 226 rotateXYZ;
#X obj 315 172 t a b;
#X obj 364 199 k_count 1 360;
#X obj 315 148 gemhead;
#N canvas 467 181 745 552 circle 0;
#X obj -377 67 GEMglEnd;
#X obj -326 36 GEMglBegin;
#X obj -377 36 t a a a;
#X obj -358 402 GEMglVertex3f 0 0 0;
#X obj -358 125 t a b;
#X obj -331 148 f;
#X obj -300 148 + 1;
#X obj -286 246 expr $f1*2 *3.1415926;
#X msg -269 13 9;
#X obj -286 336 expr cos($f1)*$f2+$f3;
#X obj -253 359 expr sin($f1)*$f2+$f3;
#X obj -286 270 t f f b b b;
#X obj -163 312 v x_\$0;
#X obj -130 335 v y_\$0;
#X obj -267 -18 loadbang;
#X obj -226 310 f 2.5;
#X obj -329 171 t f f;
#X obj -121 254 + 2.5;
#X obj -121 206 tabread \$0-sound;
#X msg -121 154 0;
#X obj -121 229 * 0.5;
#X obj -358 100 repeat 200;
#X obj -270 147 % 200;
#X obj -286 220 expr $f1/200;
#X obj -121 128 sel 0 199;
#X obj -121 102 t f f;
#X obj -29 112 expr if($f1>100 \, 200-$f1 \, $f1);
#X obj -29 144 expr pow(($f1/100) \, 1);
#X obj -429 -46 t a a;
#X obj -868 95 GEMglEnd;
#X obj -817 64 GEMglBegin;
#X obj -868 64 t a a a;
#X obj -849 430 GEMglVertex3f 0 0 0;
#X obj -849 153 t a b;
#X obj -822 176 f;
#X obj -791 176 + 1;
#X obj -777 274 expr $f1*2 *3.1415926;
#X obj -777 364 expr cos($f1)*$f2+$f3;
#X obj -744 387 expr sin($f1)*$f2+$f3;
#X obj -777 298 t f f b b b;
#X obj -654 340 v x_\$0;
#X obj -621 363 v y_\$0;
#X obj -760 18 loadbang;
#X obj -717 338 f 2.5;
#X obj -820 199 t f f;
#X obj -612 282 + 2.5;
#X obj -612 234 tabread \$0-sound;
#X msg -612 182 0;
#X obj -612 257 * 0.5;
#X obj -849 128 repeat 200;
#X obj -761 175 % 200;
#X obj -777 248 expr $f1/200;
#X obj -612 156 sel 0 199;
#X obj -612 130 t f f;
#X obj -546 157 expr if($f1>100 \, 200-$f1 \, $f1);
#X obj -546 189 expr pow(($f1/100) \, 1);
#X obj -868 7 colorRGB 1 1 1;
#X obj -868 32 GEMglLineWidth 2;
#X msg -760 41 2;
#X obj -121 178 * 4;
#X obj -612 206 * 4;
#X obj -383 12 alpha 1;
#X obj -428 -75 inlet;
#X obj -392 -19 colorRGB 0 0 0.3 0.5;
#X connect 2 0 0 0;
#X connect 2 1 21 0;
#X connect 2 2 1 0;
#X connect 4 0 3 0;
#X connect 4 1 5 0;
#X connect 5 0 6 0;
#X connect 5 0 16 0;
#X connect 6 0 22 0;
#X connect 7 0 11 0;
#X connect 8 0 1 1;
#X connect 9 0 3 1;
#X connect 10 0 3 2;
#X connect 11 0 9 0;
#X connect 11 1 10 0;
#X connect 11 2 12 0;
#X connect 11 3 13 0;
#X connect 11 4 15 0;
#X connect 12 0 9 2;
#X connect 13 0 10 2;
#X connect 14 0 8 0;
#X connect 15 0 10 1;
#X connect 15 0 9 1;
#X connect 16 0 23 0;
#X connect 16 1 25 0;
#X connect 17 0 15 1;
#X connect 18 0 20 0;
#X connect 19 0 59 0;
#X connect 20 0 17 0;
#X connect 21 0 4 0;
#X connect 22 0 5 1;
#X connect 23 0 7 0;
#X connect 24 0 19 0;
#X connect 24 1 19 0;
#X connect 24 2 59 0;
#X connect 25 0 24 0;
#X connect 25 1 26 0;
#X connect 26 0 27 0;
#X connect 27 0 20 1;
#X connect 28 0 56 0;
#X connect 28 1 63 0;
#X connect 31 0 29 0;
#X connect 31 1 49 0;
#X connect 31 2 30 0;
#X connect 33 0 32 0;
#X connect 33 1 34 0;
#X connect 34 0 35 0;
#X connect 34 0 44 0;
#X connect 35 0 50 0;
#X connect 36 0 39 0;
#X connect 37 0 32 1;
#X connect 38 0 32 2;
#X connect 39 0 37 0;
#X connect 39 1 38 0;
#X connect 39 2 40 0;
#X connect 39 3 41 0;
#X connect 39 4 43 0;
#X connect 40 0 37 2;
#X connect 41 0 38 2;
#X connect 42 0 58 0;
#X connect 43 0 38 1;
#X connect 43 0 37 1;
#X connect 44 0 51 0;
#X connect 44 1 53 0;
#X connect 45 0 43 1;
#X connect 46 0 48 0;
#X connect 47 0 60 0;
#X connect 48 0 45 0;
#X connect 49 0 33 0;
#X connect 50 0 34 1;
#X connect 51 0 36 0;
#X connect 52 0 47 0;
#X connect 52 1 47 0;
#X connect 52 2 60 0;
#X connect 53 0 52 0;
#X connect 53 1 54 0;
#X connect 54 0 55 0;
#X connect 55 0 48 1;
#X connect 56 0 57 0;
#X connect 57 0 31 0;
#X connect 58 0 30 1;
#X connect 59 0 18 0;
#X connect 60 0 46 0;
#X connect 61 0 2 0;
#X connect 62 0 28 0;
#X connect 63 0 61 0;
#X restore 315 252 pd circle;
#X obj 221 193 k_count 4 360;
#X connect 0 0 2 0;
#X connect 1 0 3 0;
#X connect 2 0 1 0;
#X connect 2 1 9 0;
#X connect 4 0 8 0;
#X connect 5 0 4 0;
#X connect 5 1 6 0;
#X connect 6 0 4 3;
#X connect 7 0 5 0;
#X connect 9 0 1 3;
#X restore 38 686 pd fill-circl;
#X obj 254 82 drawline 2;
#X obj 253 38 drawline 0;
#X obj 254 61 drawline 1;
#X obj 255 105 drawline 3;
#X obj 255 128 drawline 4;
#X obj 255 152 drawline 5;
#X obj 255 173 drawline 6;
#X obj 255 195 drawline 7;
#X obj 255 216 drawline 8;
#X obj 255 238 drawline 9;
#X obj 338 34 drawline 10;
#X obj 339 57 drawline 11;
#X obj 339 78 drawline 12;
#X obj 340 101 drawline 13;
#X obj 340 124 drawline 14;
#X obj 340 148 drawline 15;
#X obj 340 169 drawline 16;
#X obj 340 191 drawline 17;
#X obj 340 212 drawline 18;
#X obj 340 234 drawline 19;
#X obj 39 662 gemwin;
#X msg 25 600 destroy;
#X obj 39 569 loadbang;
#X msg 39 623 reset \, color 1 1 1 \, dimen 600 600 \, FSAA 8 \, border
1 \, create \, 1;
#X obj 496 705 udpsend;
#X obj 496 632 packOSC;
#X obj 496 602 r oscin;
#X obj 496 727 tgl 15 0 empty empty empty 17 7 0 10 -262144 -1 -1 0
1;
#X msg 562 630 connect 192.168.0.147 9999;
#X msg 599 595 disconnect;
#X obj 496 653 spigot;
#X connect 0 0 18 0;
#X connect 1 0 10 1;
#X connect 2 0 5 0;
#X connect 3 0 23 0;
#X connect 4 0 24 0;
#X connect 5 0 3 0;
#X connect 5 1 4 0;
#X connect 5 2 6 0;
#X connect 5 3 7 0;
#X connect 5 4 34 0;
#X connect 6 0 3 2;
#X connect 7 0 4 2;
#X connect 8 0 1 0;
#X connect 9 0 1 1;
#X connect 11 0 22 0;
#X connect 11 0 20 0;
#X connect 12 0 17 0;
#X connect 13 0 15 0;
#X connect 14 0 15 1;
#X connect 15 0 16 1;
#X connect 16 0 29 0;
#X connect 17 0 25 0;
#X connect 18 0 10 0;
#X connect 18 1 8 0;
#X connect 18 2 9 0;
#X connect 19 0 11 0;
#X connect 20 0 2 0;
#X connect 21 0 11 1;
#X connect 22 0 21 0;
#X connect 23 0 12 0;
#X connect 23 1 0 0;
#X connect 24 0 26 0;
#X connect 24 1 0 1;
#X connect 25 0 16 0;
#X connect 25 1 27 0;
#X connect 25 2 28 0;
#X connect 26 0 17 1;
#X connect 27 0 13 0;
#X connect 28 0 14 0;
#X connect 30 0 19 0;
#X connect 31 0 30 0;
#X connect 32 0 39 0;
#X connect 32 0 33 0;
#X connect 32 0 33 1;
#X connect 32 0 45 0;
#X connect 34 0 3 1;
#X connect 34 0 4 1;
#X connect 35 0 43 0;
#X connect 36 0 50 0;
#X connect 37 0 38 0;
#X connect 40 0 41 0;
#X connect 41 0 39 0;
#X connect 44 0 43 1;
#X connect 45 0 46 0;
#X connect 46 0 47 0;
#X connect 47 0 48 0;
#X connect 48 0 44 0;
#X connect 49 0 35 0;
#X connect 50 0 49 0;
#X connect 73 0 72 0;
#X connect 74 0 75 0;
#X connect 75 0 72 0;
#X connect 76 0 79 0;
#X connect 77 0 82 0;
#X connect 78 0 77 0;
#X connect 79 0 82 1;
#X connect 80 0 76 0;
#X connect 81 0 76 0;
#X connect 82 0 76 0;
#X restore 14 110 pd gem-image;
#X connect 1 0 2 0;
#X connect 2 0 0 0;
#X coords 0 147 1 146 120 120 0;
