#N canvas 323 23 1254 777 10;
#X obj 431 440 s line\$1;
#X obj 414 394 route \$1;
#X obj 414 364 r addline;
#X obj 175 275 translateXYZ;
#X obj 604 136 tgl 15 0 empty empty empty 17 7 0 10 -262144 -1 -1 0
1;
#X obj 604 111 r allclose;
#X msg 517 61 1;
#X obj 633 295 tgl 15 0 empty empty empty 17 7 0 10 -262144 -1 -1 0
1;
#N canvas 757 35 674 618 target1 0;
#X obj 436 333 translateXYZ 0 0 0;
#X obj 591 232 == 2;
#X obj 540 274 pack f f;
#X msg 540 297 \$2 \$1;
#X obj 436 275 *;
#X obj 436 427 circle 0.07;
#X obj 540 111 r mainline1;
#X obj 116 90 expr sqrt(pow(($f1-$f3) \, 2)+pow(($f2-$f4) \, 2));
#X obj 219 381 distance2d;
#X msg 276 358 \$1 \$2;
#X obj 219 428 /;
#X obj 276 334 r line\$1;
#X obj 116 62 r line\$1;
#X obj 197 158 int;
#X obj 219 484 *;
#X obj 92 337 pack f f;
#X obj 47 386 list 0 0;
#X msg 92 360 \$2 \$1;
#X obj 47 510 outlet;
#X obj 480 46 inlet;
#X obj 47 323 inlet;
#X floatatom 436 245 5 0 0 0 - - -, f 5;
#X obj 436 212 t b f;
#X obj 345 292 line;
#X obj 322 214 t b f;
#X floatatom 219 458 5 0 0 0 - - -, f 5;
#X obj 436 307 gemhead 2000;
#X obj 436 357 separator;
#X obj 381 212 loadbang;
#X msg 381 236 0;
#X obj 540 183 intersect;
#X floatatom 345 315 5 0 0 0 - - -, f 5;
#X obj 97 270 inlet;
#X obj 116 126 moses 8;
#X msg 155 148 8;
#X floatatom 116 168 5 0 0 0 - - -, f 5;
#X obj 197 131 expr 84-(($f1/8)*36);
#X obj 47 419 nchange l;
#X floatatom 129 541 5 0 0 0 - - -, f 5;
#X obj 129 519 expr int($f1*100)/100;
#X msg 345 268 \$1 100;
#X msg 47 480 \$1 \$2;
#X obj 436 408 alpha 1;
#X obj 436 382 color 0 1 0 1;
#X connect 0 0 27 0;
#X connect 1 0 22 0;
#X connect 2 0 3 0;
#X connect 3 0 8 0;
#X connect 4 0 40 0;
#X connect 4 0 26 0;
#X connect 6 0 30 0;
#X connect 7 0 10 1;
#X connect 7 0 33 0;
#X connect 8 0 10 0;
#X connect 9 0 8 1;
#X connect 10 0 25 0;
#X connect 11 0 9 0;
#X connect 12 0 7 0;
#X connect 12 0 30 1;
#X connect 13 0 15 1;
#X connect 14 0 39 0;
#X connect 15 0 17 0;
#X connect 16 0 37 0;
#X connect 17 0 16 1;
#X connect 19 0 21 0;
#X connect 20 0 16 0;
#X connect 21 0 4 0;
#X connect 22 0 21 0;
#X connect 22 1 4 1;
#X connect 23 0 31 0;
#X connect 24 0 25 0;
#X connect 24 1 14 1;
#X connect 25 0 14 0;
#X connect 26 0 0 0;
#X connect 27 0 43 0;
#X connect 28 0 29 0;
#X connect 29 0 26 0;
#X connect 30 0 2 0;
#X connect 30 0 0 2;
#X connect 30 1 2 1;
#X connect 30 1 0 1;
#X connect 30 2 1 0;
#X connect 31 0 24 0;
#X connect 32 0 41 0;
#X connect 33 0 35 0;
#X connect 33 1 34 0;
#X connect 34 0 35 0;
#X connect 35 0 36 0;
#X connect 36 0 13 0;
#X connect 37 0 41 0;
#X connect 38 0 15 0;
#X connect 39 0 38 0;
#X connect 40 0 23 0;
#X connect 41 0 18 0;
#X connect 42 0 5 0;
#X connect 43 0 42 0;
#X restore 633 387 pd target1;
#X obj 633 221 sel 0;
#X obj 633 244 del 45;
#X obj 175 332 separator;
#X obj 175 298 t a a a;
#X obj 289 405 separator;
#X obj 289 627 curve 2;
#X obj 176 560 loadbang;
#X obj 289 563 t a b;
#X msg 308 597 0 0 0;
#N canvas 886 432 432 293 angle 0;
#X obj 45 75 expr $f1-$f2;
#X obj 264 75 expr $f1-$f2;
#X obj 45 153 outlet;
#X obj 45 -3 inlet;
#X obj 45 43 unpack f f f f;
#X obj 45 102 expr atan2($f1 \, $f2)*-1*180/3.1415926;
#X msg 45 19 \$3 \$4 \$1 \$2;
#X obj 45 126 + 180;
#X connect 0 0 5 0;
#X connect 1 0 5 1;
#X connect 3 0 6 0;
#X connect 4 0 0 0;
#X connect 4 1 1 0;
#X connect 4 2 0 1;
#X connect 4 3 1 1;
#X connect 5 0 7 0;
#X connect 6 0 4 0;
#X connect 7 0 2 0;
#X restore 334 327 pd angle;
#X obj 414 416 t a a b a;
#X obj 274 151 r \$0-x;
#X obj 350 156 r \$0-y;
#X obj 414 573 pack 0 0 0;
#X msg 414 593 \$2 \$1 \$3;
#X obj 301 230 line;
#X msg 301 202 \$1 0;
#X obj 336 231 line;
#X msg 336 205 \$1 0;
#X msg 274 174 \$1 500;
#X msg 350 182 \$1 500;
#X obj 604 166 t f f f f f f f;
#X obj 414 525 distance2d;
#X obj 414 495 pack f f;
#X obj 484 496 pack f f;
#X obj 786 175 distance2d;
#X obj 786 128 r mouse_pos;
#X obj 843 149 pack f f;
#X floatatom 786 197 5 0 0 0 - - -, f 5;
#X obj 786 220 < 0.05;
#X obj 753 26 sel 1;
#X msg 807 50 0;
#X obj 753 242 spigot;
#X obj 753 1 r mouse_right;
#X obj 554 263 sel 0;
#X msg 633 272 0;
#X msg 554 308 0 0;
#X obj 554 286 del 55;
#X obj 517 84 t f f;
#X obj 840 44 r hid;
#X obj 807 93 spigot;
#X obj 840 68 route key_29;
#X obj 175 408 circle 0.06;
#X obj 633 316 metro 100;
#X floatatom 334 355 5 0 0 0 - - -, f 5;
#X obj 165 102 t a b;
#X obj 201 192 spigot;
#X obj 249 147 tgl 15 0 empty empty empty 17 7 0 10 -262144 -1 -1 0
1;
#X obj 249 91 sel 1;
#X msg 249 118 0;
#X msg 176 592 draw point;
#X msg 88 606 res \$1;
#X obj 88 581 int;
#X floatatom 88 502 5 0 0 0 - - -, f 5;
#X floatatom 88 552 5 0 0 0 - - -, f 5;
#X obj 88 527 k_range 0.1 10 10 150;
#X obj 175 488 circle 1;
#X obj 175 433 spigot;
#X msg 38 247 \$1 1000;
#X obj 38 273 line;
#X obj 38 324 > 0;
#X msg 32 436 draw line \, width 1;
#X obj 175 463 colorRGB 1 1 0 0;
#X obj 38 303 * 0.2;
#X obj 620 54 loadbang;
#X msg 620 76 0;
#X obj 750 380 f;
#X obj 750 355 t b;
#X obj 289 429 rotateXYZ 0 0 0;
#X obj 165 75 gemhead 100;
#X obj 633 412 unpack f f;
#X floatatom 633 436 5 0 0 0 - - -, f 5;
#X floatatom 690 435 5 0 0 0 - - -, f 5;
#X msg 690 458 \$1 20;
#X obj 690 483 line~;
#X obj 678 592 + 0.3;
#X floatatom 678 616 5 0 0 0 - - -, f 5;
#X floatatom 711 547 5 0 0 0 - - -, f 5;
#X obj 678 572 randomF 0.08;
#X obj 633 458 change;
#X obj 633 481 t f b f;
#X obj 710 527 k_range 100 1000 0.4 0.03;
#X msg 678 637 \$1 100;
#X obj 678 657 line~;
#X obj 663 684 *~;
#X obj 663 711 throw~ all;
#X floatatom 750 404 5 0 0 0 - - -, f 5;
#X obj 768 322 tgl 15 0 empty empty empty 17 7 0 10 -262144 -1 -1 0
1;
#X obj 750 284 gemhead;
#X obj 175 360 colorRGB 1 1 1 1;
#X obj 175 383 alpha 1;
#X msg 751 50 0;
#X floatatom 575 503 5 0 0 0 - - -, f 5;
#X obj 429 657 expr int($f1/12);
#X obj 365 706 expr $f1% 12;
#X floatatom 365 728 5 0 0 0 - - -, f 5;
#X floatatom 429 679 5 0 0 0 - - -, f 5;
#N canvas 310 259 779 547 osc 1;
#X obj 246 184 osc~;
#X obj 293 183 osc~;
#X obj 249 102 + 4;
#X obj 295 101 + 7;
#X obj 133 190 osc~;
#X obj 149 50 inlet;
#X obj 447 -67 inlet;
#X obj 145 107 mtof;
#X obj 245 135 mtof;
#X obj 292 136 mtof;
#X obj 226 50 inlet~;
#X obj 172 311 *~;
#X obj 172 350 outlet~;
#X obj 149 72 t f f f f;
#X obj 199 189 osc~;
#X obj 198 140 mtof;
#X obj 202 107 + 3;
#X msg 447 2 1 0 0 0;
#X obj 448 -31 sel 1 2 3;
#X obj 263 366 k_vol~;
#X msg 455 30 0.33 0 0.33 0.33;
#X msg 480 53 0.33 0.33 0 0.33;
#X obj 446 81 unpack f f f f;
#X msg 411 123 \$1 100;
#X obj 411 144 line~;
#X msg 442 178 \$1 100;
#X obj 442 199 line~;
#X msg 458 221 \$1 100;
#X obj 458 242 line~;
#X msg 514 252 \$1 100;
#X obj 514 273 line~;
#X obj 132 254 *~;
#X obj 194 256 *~;
#X obj 254 270 *~;
#X obj 330 257 *~;
#X connect 0 0 33 0;
#X connect 1 0 34 0;
#X connect 2 0 8 0;
#X connect 3 0 9 0;
#X connect 4 0 31 0;
#X connect 5 0 13 0;
#X connect 6 0 18 0;
#X connect 7 0 4 0;
#X connect 8 0 0 0;
#X connect 9 0 1 0;
#X connect 10 0 11 1;
#X connect 11 0 12 0;
#X connect 11 0 19 0;
#X connect 13 0 7 0;
#X connect 13 1 16 0;
#X connect 13 2 2 0;
#X connect 13 3 3 0;
#X connect 14 0 32 0;
#X connect 15 0 14 0;
#X connect 16 0 15 0;
#X connect 17 0 22 0;
#X connect 18 0 17 0;
#X connect 18 1 20 0;
#X connect 18 2 21 0;
#X connect 20 0 22 0;
#X connect 21 0 22 0;
#X connect 22 0 23 0;
#X connect 22 1 25 0;
#X connect 22 2 27 0;
#X connect 22 3 29 0;
#X connect 23 0 24 0;
#X connect 24 0 31 1;
#X connect 25 0 26 0;
#X connect 26 0 32 1;
#X connect 27 0 28 0;
#X connect 28 0 33 1;
#X connect 29 0 30 0;
#X connect 30 0 34 1;
#X connect 31 0 11 0;
#X connect 32 0 11 0;
#X connect 33 0 11 0;
#X connect 34 0 11 0;
#X restore 574 593 pd osc;
#X obj 906 477 pack f f;
#X obj 988 428 init \$1;
#X obj 906 532 s oscin;
#X msg 907 499 send /\$2 \$1;
#X obj 414 462 unpack f f f f f;
#X obj 214 647 sel 1 2 3;
#X msg 214 669 1 1 1;
#X msg 254 721 0 1 0;
#X msg 233 694 1 1 0;
#X obj 289 501 color 1 1 1;
#X floatatom 521 588 5 0 0 0 - - -, f 5;
#X obj 289 537 alpha;
#X obj 289 459 GEMglPointSize 3;
#X connect 1 0 19 0;
#X connect 2 0 1 0;
#X connect 3 0 12 0;
#X connect 4 0 30 0;
#X connect 4 0 57 0;
#X connect 5 0 4 0;
#X connect 6 0 47 0;
#X connect 7 0 52 0;
#X connect 8 0 79 0;
#X connect 9 0 10 0;
#X connect 10 0 44 0;
#X connect 11 0 98 0;
#X connect 12 0 11 0;
#X connect 12 2 13 0;
#X connect 13 0 77 0;
#X connect 15 0 59 0;
#X connect 15 0 70 0;
#X connect 16 0 14 0;
#X connect 16 1 17 0;
#X connect 17 0 14 1;
#X connect 18 0 53 0;
#X connect 19 0 111 0;
#X connect 19 1 0 0;
#X connect 19 2 6 0;
#X connect 19 3 18 0;
#X connect 20 0 28 0;
#X connect 21 0 29 0;
#X connect 22 0 23 0;
#X connect 23 0 14 2;
#X connect 24 0 3 1;
#X connect 24 0 36 0;
#X connect 25 0 24 0;
#X connect 26 0 3 2;
#X connect 26 0 36 1;
#X connect 27 0 26 0;
#X connect 28 0 24 0;
#X connect 29 0 26 0;
#X connect 30 0 43 0;
#X connect 30 1 78 0;
#X connect 30 2 9 0;
#X connect 30 6 96 0;
#X connect 31 0 22 0;
#X connect 31 0 62 0;
#X connect 31 0 65 1;
#X connect 32 0 31 0;
#X connect 33 0 31 1;
#X connect 34 0 37 0;
#X connect 35 0 34 0;
#X connect 36 0 34 1;
#X connect 37 0 38 0;
#X connect 38 0 41 1;
#X connect 39 0 100 0;
#X connect 40 0 49 0;
#X connect 41 0 4 0;
#X connect 42 0 39 0;
#X connect 43 0 46 0;
#X connect 44 0 7 0;
#X connect 45 0 8 1;
#X connect 46 0 45 0;
#X connect 47 0 7 0;
#X connect 47 1 4 0;
#X connect 48 0 50 0;
#X connect 50 0 49 1;
#X connect 51 0 66 0;
#X connect 52 0 8 0;
#X connect 53 0 77 3;
#X connect 54 0 3 0;
#X connect 54 1 55 0;
#X connect 56 0 55 1;
#X connect 56 0 67 0;
#X connect 57 0 58 0;
#X connect 58 0 56 0;
#X connect 59 0 14 0;
#X connect 60 0 14 0;
#X connect 61 0 60 0;
#X connect 62 0 64 0;
#X connect 63 0 61 0;
#X connect 64 0 63 0;
#X connect 66 0 71 0;
#X connect 67 0 68 0;
#X connect 68 0 72 0;
#X connect 69 0 66 1;
#X connect 70 0 65 0;
#X connect 71 0 65 0;
#X connect 72 0 69 0;
#X connect 72 0 71 4;
#X connect 73 0 74 0;
#X connect 74 0 4 0;
#X connect 75 0 95 0;
#X connect 76 0 75 0;
#X connect 77 0 119 0;
#X connect 78 0 54 0;
#X connect 79 0 80 0;
#X connect 79 1 81 0;
#X connect 80 0 88 0;
#X connect 81 0 82 0;
#X connect 81 0 107 0;
#X connect 82 0 83 0;
#X connect 83 0 106 1;
#X connect 84 0 85 0;
#X connect 85 0 91 0;
#X connect 86 0 84 1;
#X connect 87 0 84 0;
#X connect 88 0 89 0;
#X connect 89 0 101 0;
#X connect 89 1 87 0;
#X connect 89 2 90 0;
#X connect 90 0 86 0;
#X connect 91 0 92 0;
#X connect 92 0 93 1;
#X connect 93 0 94 0;
#X connect 95 0 8 2;
#X connect 96 0 75 1;
#X connect 97 0 76 0;
#X connect 98 0 99 0;
#X connect 99 0 51 0;
#X connect 100 0 41 0;
#X connect 101 0 102 0;
#X connect 101 0 103 0;
#X connect 101 0 106 0;
#X connect 102 0 105 0;
#X connect 103 0 104 0;
#X connect 106 0 93 0;
#X connect 107 0 110 0;
#X connect 108 0 107 1;
#X connect 110 0 109 0;
#X connect 111 0 32 0;
#X connect 111 1 32 1;
#X connect 111 2 25 0;
#X connect 111 2 33 0;
#X connect 111 3 27 0;
#X connect 111 3 33 1;
#X connect 111 4 106 2;
#X connect 111 4 112 0;
#X connect 111 4 117 0;
#X connect 112 0 113 0;
#X connect 112 1 115 0;
#X connect 112 2 114 0;
#X connect 113 0 116 1;
#X connect 114 0 116 1;
#X connect 115 0 116 1;
#X connect 116 0 118 0;
#X connect 118 0 16 0;
#X connect 119 0 116 0;
