#N canvas 485 78 917 785 10;
#X obj 10 494 translateXYZ;
#X obj 52 561 alpha;
#X obj 456 -63 r mouse;
#X obj 456 -15 unpack f f f;
#X obj 456 50 distance2d;
#X obj 556 105 pack f f;
#X obj 456 15 pack f f;
#X floatatom 456 75 5 0 0 0 - - -, f 5;
#X obj 407 209 spigot;
#X obj 488 295 tgl 15 0 empty empty empty 17 7 0 10 -262144 -1 -1 0
1;
#X obj 177 197 unpack f f;
#X obj 488 272 expr if($f1+$f2==2 \, 1 \, 0);
#X obj 538 668 pack f f f;
#X obj 538 730 s nodoPos;
#X obj 431 570 r nodoPos;
#X obj 431 598 route;
#X obj 463 545 + 1;
#X obj 431 629 unpack f f;
#X obj 431 654 pack f f 0;
#X obj 295 737 curve 2;
#X obj 318 711 pack f f 0;
#X obj 295 567 spigot;
#X obj 605 587 f \$1;
#X obj 463 522 f \$1;
#X obj 637 661 tgl 15 0 empty empty empty 17 7 0 10 -262144 -1 -1 1
1;
#X msg 538 699 \$3 \$1 \$2;
#X obj 151 377 t b b b b b b b;
#X obj 605 609 t f f;
#X obj 489 367 s stop;
#X obj 278 11 r stop;
#X obj 489 344 f \$1;
#X obj 489 321 sel 1;
#X obj 278 37 route \$1;
#X msg 278 61 1;
#X msg 323 61 0;
#X obj 278 84 tgl 15 0 empty empty empty 17 7 0 10 -262144 -1 -1 0
1;
#X obj 177 162 spigot;
#X obj 177 37 r hid;
#X obj 177 61 route key_225;
#X obj 177 87 + 1;
#X obj 177 110 gate 2;
#X obj 100 38 loadbang;
#X msg 100 67 1;
#X obj 295 594 GEMglPointSize 1;
#N canvas 457 52 957 727 draw 0;
#X obj 359 228 inlet;
#X obj 117 497 t f b b b b;
#X obj 535 475 t f b b b b;
#X obj 117 473 t f f;
#X obj 535 572 expr pow($f1 \, 3)*($f3+3*($f4-$f5)-$f2)+3*pow($f1 \,
2)*($f2-2*$f4+$f5)+3*$f1*($f4-$f2)+$f2;
#X obj 117 601 expr pow($f1 \, 3)*($f3+3*($f4-$f5)-$f2)+3*pow($f1 \,
2)*($f2-2*$f4+$f5)+3*$f1*($f4-$f2)+$f2;
#X obj 138 566 value \$0-x1;
#X obj 214 544 value \$0-x2;
#X obj 71 154 spigot;
#X obj 104 107 tgl 15 0 empty empty empty 17 7 0 10 -262144 -1 -1 1
1;
#X obj 104 63 f \$1;
#X obj 104 84 expr if($f1%4==0 \, 1 \, 0);
#X obj 104 35 loadbang;
#X obj 602 543 value \$0-y1;
#X obj 706 522 value \$0-y2;
#X obj 790 539 value \$0-y3;
#X obj 875 506 value \$0-y4;
#X obj 284 285 r nodoPos;
#X obj 284 335 route;
#X obj 284 366 unpack f f;
#X obj 359 312 f \$1;
#X obj 359 256 t b b b b;
#X obj 359 335 + 0;
#X obj 433 295 r nodoPos;
#X obj 433 345 route;
#X obj 433 376 unpack f f;
#X obj 475 324 f \$1;
#X obj 550 290 r nodoPos;
#X obj 550 340 route;
#X obj 550 371 unpack f f;
#X obj 592 319 f \$1;
#X obj 684 279 r nodoPos;
#X obj 684 329 route;
#X obj 684 360 unpack f f;
#X obj 726 308 f \$1;
#X obj 475 347 + 1;
#X obj 592 342 + 2;
#X obj 726 331 + 3;
#X obj 285 404 value \$0-x1;
#X obj 345 572 value \$0-x3;
#X obj 432 554 value \$0-x4;
#X obj 684 395 value \$0-x4;
#X obj 352 434 value \$0-y1;
#X obj 553 392 value \$0-x2;
#X obj 433 401 value \$0-x3;
#X obj 619 433 value \$0-y2;
#X obj 500 433 value \$0-y3;
#X obj 71 341 GEMglEnd;
#X obj 137 311 GEMglBegin;
#X obj 71 310 t a a a;
#X obj 80 646 GEMglVertex3f 0 0 0;
#X obj 90 398 t a b;
#X obj 117 421 f;
#X obj 148 421 + 1;
#X obj 205 256 once;
#X obj 71 276 t a b;
#X obj 90 365 repeat 100;
#X obj 178 421 % 100;
#X msg 205 286 3;
#X obj 117 446 / 99;
#X obj 71 179 separator;
#X obj 71 129 gemhead 100;
#X obj 71 230 GEMglLineWidth 1;
#X obj 71 203 color 0 0 0;
#X obj 763 370 value \$0-y4;
#X connect 0 0 21 0;
#X connect 1 0 5 0;
#X connect 1 1 6 0;
#X connect 1 2 7 0;
#X connect 1 3 39 0;
#X connect 1 4 40 0;
#X connect 2 0 4 0;
#X connect 2 1 13 0;
#X connect 2 2 14 0;
#X connect 2 3 15 0;
#X connect 2 4 16 0;
#X connect 3 0 1 0;
#X connect 3 1 2 0;
#X connect 4 0 50 2;
#X connect 5 0 50 1;
#X connect 6 0 5 1;
#X connect 7 0 5 2;
#X connect 8 0 60 0;
#X connect 9 0 8 1;
#X connect 10 0 11 0;
#X connect 11 0 9 0;
#X connect 12 0 10 0;
#X connect 13 0 4 1;
#X connect 14 0 4 2;
#X connect 15 0 4 3;
#X connect 16 0 4 4;
#X connect 17 0 18 0;
#X connect 18 0 19 0;
#X connect 19 0 38 0;
#X connect 19 1 42 0;
#X connect 20 0 22 0;
#X connect 21 0 20 0;
#X connect 21 1 26 0;
#X connect 21 2 30 0;
#X connect 21 3 34 0;
#X connect 22 0 18 1;
#X connect 23 0 24 0;
#X connect 24 0 25 0;
#X connect 25 0 44 0;
#X connect 25 1 46 0;
#X connect 26 0 35 0;
#X connect 27 0 28 0;
#X connect 28 0 29 0;
#X connect 29 0 43 0;
#X connect 29 1 45 0;
#X connect 30 0 36 0;
#X connect 31 0 32 0;
#X connect 32 0 33 0;
#X connect 33 0 41 0;
#X connect 33 1 64 0;
#X connect 34 0 37 0;
#X connect 35 0 24 1;
#X connect 36 0 28 1;
#X connect 37 0 32 1;
#X connect 39 0 5 3;
#X connect 40 0 5 4;
#X connect 49 0 47 0;
#X connect 49 1 56 0;
#X connect 49 2 48 0;
#X connect 51 0 50 0;
#X connect 51 1 52 0;
#X connect 52 0 53 0;
#X connect 52 0 59 0;
#X connect 53 0 57 0;
#X connect 54 0 58 0;
#X connect 55 0 49 0;
#X connect 55 1 54 0;
#X connect 56 0 51 0;
#X connect 57 0 52 1;
#X connect 58 0 48 1;
#X connect 59 0 3 0;
#X connect 60 0 63 0;
#X connect 61 0 8 0;
#X connect 62 0 55 0;
#X connect 63 0 62 0;
#X restore 236 406 pd draw line;
#N canvas 602 301 446 479 color 0;
#X obj -45 238 inlet;
#X obj -36 325 outlet;
#X obj 71 157 sel 0 1;
#X obj 70 215 unpack f f f;
#X obj 71 66 gate 2;
#X obj 71 38 expr if($f1%2==0 \, 1 \, 2);
#X obj 104 95 sel 0 1;
#X obj 73 18 f \$1;
#X obj 72 -7 inlet;
#X obj 135 65 r \$0-click;
#X msg 71 189 1 0 0;
#X obj -52 288 colorRGB 1 0 0 1;
#X msg 117 188 0 0 0;
#X msg 131 157 0 0 0;
#X msg 104 127 1 0 0;
#X connect 0 0 11 0;
#X connect 2 0 10 0;
#X connect 2 1 12 0;
#X connect 3 0 11 1;
#X connect 3 1 11 2;
#X connect 3 2 11 3;
#X connect 4 0 2 0;
#X connect 4 1 6 0;
#X connect 5 0 4 0;
#X connect 6 0 14 0;
#X connect 6 1 13 0;
#X connect 7 0 5 0;
#X connect 8 0 7 0;
#X connect 9 0 4 1;
#X connect 10 0 3 0;
#X connect 11 0 1 0;
#X connect 12 0 3 0;
#X connect 13 0 3 0;
#X connect 14 0 3 0;
#X restore 52 534 pd color;
#X obj 456 134 s \$0-click;
#X obj 489 249 r \$0-click;
#X obj 637 638 expr if($f1%2==0 \, 1 \, 0);
#X obj 295 620 color 1 0 0;
#X obj 10 354 gemhead 200;
#X obj 52 591 circle 0.03;
#X obj 295 510 gemhead 200;
#X obj 151 443 tabread x;
#X obj 232 462 tabread y;
#X floatatom 151 469 5 0 0 0 - - -, f 5;
#X floatatom 232 484 5 0 0 0 - - -, f 5;
#X obj 151 403 f \$1;
#X obj 232 437 f \$1;
#X obj 368 235 gate 2;
#X obj 332 108 init \$1;
#X obj 151 326 loadbang;
#X obj 332 136 sel 0 1 2 4 6 7;
#X msg 368 197 2;
#X msg 422 168 1;
#X obj 130 300 r resetbang;
#X obj 151 353 del 100;
#X obj 143 631 loadbang;
#X obj 75 124 init \$1;
#X msg 75 181 0;
#X msg 121 178 1;
#X obj 177 225 spigot;
#X obj 151 491 v \$0-x;
#X obj 232 504 v \$0-y;
#X obj 10 381 t a b b;
#X obj 37 440 v \$0-x;
#X obj 65 414 v \$0-y;
#X obj 244 258 v \$0-y;
#X obj 177 257 v \$0-x;
#X obj 556 81 v \$0-x;
#X obj 609 70 v \$0-y;
#X obj 456 -38 t a a b b;
#X obj 538 543 t b b b;
#X obj 538 605 v \$0-x;
#X obj 571 640 v \$0-y;
#X obj 295 645 t a b b;
#X obj 318 689 v \$0-x;
#X obj 350 666 v \$0-y;
#X obj 295 534 t a b;
#X obj 75 148 sel 0 2;
#X msg 143 664 draw point \, res 30;
#X obj 244 232 spigot;
#X obj 121 205 tgl 15 0 empty empty empty 17 7 0 10 -262144 -1 -1 0
1;
#X obj 456 101 < 0.2;
#X connect 0 0 45 0;
#X connect 1 0 51 0;
#X connect 2 0 81 0;
#X connect 3 0 6 0;
#X connect 3 1 6 1;
#X connect 3 2 11 1;
#X connect 4 0 7 0;
#X connect 5 0 4 1;
#X connect 6 0 4 0;
#X connect 7 0 93 0;
#X connect 8 0 59 1;
#X connect 9 0 8 1;
#X connect 9 0 31 0;
#X connect 10 0 71 0;
#X connect 10 1 91 0;
#X connect 11 0 9 0;
#X connect 12 0 25 0;
#X connect 14 0 15 0;
#X connect 15 0 17 0;
#X connect 16 0 15 1;
#X connect 17 0 18 0;
#X connect 17 1 18 1;
#X connect 18 0 19 2;
#X connect 20 0 19 1;
#X connect 21 0 43 0;
#X connect 22 0 27 0;
#X connect 23 0 16 0;
#X connect 24 0 21 1;
#X connect 25 0 13 0;
#X connect 26 0 57 0;
#X connect 26 1 58 0;
#X connect 26 4 23 0;
#X connect 26 5 44 0;
#X connect 26 6 45 1;
#X connect 27 0 12 2;
#X connect 27 1 48 0;
#X connect 29 0 32 0;
#X connect 30 0 28 0;
#X connect 31 0 30 0;
#X connect 32 0 33 0;
#X connect 32 1 34 0;
#X connect 33 0 35 0;
#X connect 34 0 35 0;
#X connect 35 0 36 1;
#X connect 36 0 10 0;
#X connect 37 0 38 0;
#X connect 38 0 39 0;
#X connect 39 0 40 0;
#X connect 40 0 36 0;
#X connect 40 1 10 0;
#X connect 41 0 42 0;
#X connect 42 0 40 0;
#X connect 43 0 49 0;
#X connect 45 0 1 0;
#X connect 47 0 11 0;
#X connect 48 0 24 0;
#X connect 49 0 85 0;
#X connect 50 0 74 0;
#X connect 52 0 88 0;
#X connect 53 0 55 0;
#X connect 54 0 56 0;
#X connect 55 0 72 0;
#X connect 56 0 73 0;
#X connect 57 0 53 0;
#X connect 58 0 54 0;
#X connect 59 0 40 1;
#X connect 59 1 10 0;
#X connect 60 0 62 0;
#X connect 61 0 66 0;
#X connect 62 0 63 0;
#X connect 62 1 64 0;
#X connect 62 2 63 0;
#X connect 62 3 63 0;
#X connect 62 4 63 0;
#X connect 62 5 64 0;
#X connect 62 6 64 0;
#X connect 63 0 59 0;
#X connect 64 0 59 0;
#X connect 65 0 66 0;
#X connect 66 0 26 0;
#X connect 67 0 90 0;
#X connect 68 0 89 0;
#X connect 69 0 92 0;
#X connect 70 0 92 0;
#X connect 71 0 78 0;
#X connect 74 0 0 0;
#X connect 74 1 75 0;
#X connect 74 2 76 0;
#X connect 75 0 0 1;
#X connect 76 0 0 2;
#X connect 79 0 5 0;
#X connect 80 0 5 1;
#X connect 81 0 3 0;
#X connect 81 1 8 0;
#X connect 81 2 79 0;
#X connect 81 3 80 0;
#X connect 82 0 83 0;
#X connect 82 1 84 0;
#X connect 82 2 22 0;
#X connect 83 0 12 0;
#X connect 84 0 12 1;
#X connect 85 0 19 0;
#X connect 85 1 86 0;
#X connect 85 2 87 0;
#X connect 86 0 20 0;
#X connect 87 0 20 1;
#X connect 88 0 21 0;
#X connect 88 1 82 0;
#X connect 89 0 69 0;
#X connect 89 1 69 0;
#X connect 89 2 70 0;
#X connect 90 0 19 0;
#X connect 91 0 77 0;
#X connect 92 0 71 1;
#X connect 92 0 91 1;
#X connect 93 0 46 0;
