#N canvas 662 62 565 596 10;
#X obj 60 119 tgl 15 0 empty empty empty 17 7 0 10 -262144 -1 -1 1
1;
#N canvas 790 144 341 285 mouseControl 0;
#X obj 167 -16 gemmouse 1 1;
#X obj 167 66 expr ($f1*8)-4;
#X obj 236 46 s mouseRight;
#X obj 194 140 v x;
#X obj 232 139 v y;
#X obj 184 91 expr ($f1*-8)+4;
#X obj 167 188 s mousePos;
#X obj 167 162 pack f f;
#X obj 167 116 t f f;
#X obj 205 117 t f f;
#X obj 201 26 s mouseLeft;
#X obj 218 5 s mouseMiddle;
#X obj 56 106 gemkeyboard;
#X floatatom 56 130 5 0 0 0 - - -, f 5;
#X obj 56 152 sel 49;
#X obj 56 179 s defult;
#X connect 0 0 1 0;
#X connect 0 1 5 0;
#X connect 0 2 10 0;
#X connect 0 3 11 0;
#X connect 0 4 2 0;
#X connect 1 0 8 0;
#X connect 5 0 9 0;
#X connect 7 0 6 0;
#X connect 8 0 7 0;
#X connect 8 1 3 0;
#X connect 9 0 7 1;
#X connect 9 1 4 0;
#X connect 12 0 13 0;
#X connect 13 0 14 0;
#X connect 14 0 15 0;
#X restore 62 167 pd mouseControl;
#N canvas 68 133 881 485 top 0;
#X obj -664 121 t a b;
#X obj -576 74 f;
#X obj -550 74 + 1;
#X obj -664 169 separator;
#X obj -664 193 translateXYZ 0 2.5 0;
#X obj -535 240 sel 0 1;
#X obj -535 169 int;
#X obj -664 97 repeat 200;
#X obj -522 74 % 200;
#X obj -535 147 * 1.34;
#X obj -576 98 t f f;
#X obj -576 121 k_range 0 200 -3.9 3.9;
#X floatatom -462 148 5 0 0 0 - - -, f 5;
#X obj -535 216 > 65;
#N canvas 0 449 450 300 color 0;
#X obj -813 111 colorRGB 1 1 1 1;
#X obj -813 132 alpha;
#X obj -812 76 inlet;
#X obj -814 171 outlet;
#X obj -733 48 unpack f f f f;
#X obj -733 25 inlet;
#X obj -747 150 loadbang;
#X msg -746 172 1;
#X connect 0 0 1 0;
#X connect 1 0 3 0;
#X connect 2 0 0 0;
#X connect 4 0 0 1;
#X connect 4 1 0 2;
#X connect 4 2 0 3;
#X connect 4 3 0 4;
#X connect 5 0 4 0;
#X connect 6 0 7 0;
#X connect 7 0 1 1;
#X restore -664 219 pd color;
#X obj -473 46 k_btn 0 2.5 3.9 1.4;
#X obj -436 -5 r mousePos;
#X obj -348 88 tgl 15 0 empty empty empty 17 7 0 10 -262144 -1 -1 0
1;
#X obj -315 129 r mouseLeft;
#X obj -348 154 spigot;
#X obj -348 174 v x;
#X obj -415 280 rectangle 0.0195 1.4;
#X obj -415 249 color 1 0 0;
#X obj -348 108 metro 100;
#X obj -415 226 translateXYZ -3.9 2.5 0;
#X obj -487 174 noise~;
#X obj -535 193 s-fft;
#X msg -535 262 0 0 0 0;
#X obj -206 350 alpha;
#X obj -186 57 spigot;
#X obj -153 29 t f f;
#X obj -127 53 sel 1;
#X obj -186 108 -;
#X obj -153 6 r mouseRight;
#X obj -186 131 abs;
#X floatatom -186 157 5 0 0 0 - - -, f 5;
#X obj -157 343 loadbang;
#X obj -186 82 v x;
#X obj -127 77 v x;
#X obj -207 293 translateXYZ -3.9 2.5 0;
#X obj -206 387 rectangle 0.0195 1.4;
#X obj -207 266 gemhead 10;
#X obj -664 64 gemhead 12;
#X obj -415 199 gemhead 13;
#X obj -473 22 gemhead 14;
#X obj -186 186 k_range 0 4 1 5;
#X msg -157 362 1;
#X obj -207 316 colorRGB 1 0 0 0.4;
#X obj -487 198 bp~ 100 1;
#X obj -493 327 noise~;
#X obj -493 351 samphold~;
#X obj -493 373 abs~;
#X obj -493 397 >~ 0.5;
#X obj -442 325 phasor~ 20;
#X obj -154 217 k_range 0 4 1 20;
#X obj -551 447 outlet~;
#X obj -551 404 *~;
#X obj -348 197 k_range -4 4 300 2000;
#X obj -468 234 osc~ 2000;
#X obj -468 258 *~;
#X msg -516 284 1 1 1 1;
#X obj -664 247 rectangle 0.02 1.4;
#X obj -20 251 k_range 0 4 500 4000;
#X obj -20 277 outlet;
#X connect 0 0 3 0;
#X connect 0 1 1 0;
#X connect 1 0 2 0;
#X connect 1 0 10 0;
#X connect 2 0 8 0;
#X connect 3 0 4 0;
#X connect 4 0 14 0;
#X connect 5 0 27 0;
#X connect 5 1 60 0;
#X connect 6 0 26 0;
#X connect 7 0 0 0;
#X connect 8 0 1 1;
#X connect 9 0 6 0;
#X connect 10 0 11 0;
#X connect 10 1 9 0;
#X connect 11 0 4 1;
#X connect 12 0 48 1;
#X connect 13 0 5 0;
#X connect 14 0 61 0;
#X connect 15 1 17 0;
#X connect 16 0 15 1;
#X connect 17 0 23 0;
#X connect 18 0 19 1;
#X connect 19 0 20 0;
#X connect 20 0 24 1;
#X connect 20 0 39 1;
#X connect 20 0 57 0;
#X connect 22 0 21 0;
#X connect 23 0 19 0;
#X connect 23 0 29 0;
#X connect 24 0 22 0;
#X connect 25 0 48 0;
#X connect 26 0 13 0;
#X connect 27 0 14 1;
#X connect 28 0 40 0;
#X connect 29 0 37 0;
#X connect 30 0 29 1;
#X connect 30 1 31 0;
#X connect 31 0 38 0;
#X connect 32 0 34 0;
#X connect 33 0 30 0;
#X connect 34 0 35 0;
#X connect 35 0 40 1;
#X connect 35 0 45 0;
#X connect 35 0 54 0;
#X connect 35 0 62 0;
#X connect 36 0 46 0;
#X connect 37 0 32 0;
#X connect 38 0 32 1;
#X connect 39 0 47 0;
#X connect 41 0 39 0;
#X connect 42 0 7 0;
#X connect 43 0 24 0;
#X connect 44 0 15 0;
#X connect 45 0 48 2;
#X connect 46 0 28 1;
#X connect 47 0 28 0;
#X connect 48 0 26 2;
#X connect 48 0 59 1;
#X connect 49 0 50 0;
#X connect 50 0 51 0;
#X connect 51 0 52 0;
#X connect 52 0 56 1;
#X connect 53 0 50 1;
#X connect 54 0 53 0;
#X connect 56 0 55 0;
#X connect 57 0 12 0;
#X connect 58 0 59 0;
#X connect 59 0 56 0;
#X connect 60 0 14 1;
#X connect 62 0 63 0;
#X restore 59 285 pd top;
#N canvas 223 115 825 552 left 0;
#X obj -629 138 t a b;
#X obj -541 91 f;
#X obj -515 91 + 1;
#X obj -629 186 separator;
#X obj -495 257 sel 0 1;
#X obj -495 186 int;
#X obj -629 114 repeat 200;
#X obj -487 91 % 200;
#X obj -495 164 * 1.34;
#X obj -541 115 t f f;
#X obj -495 233 > 65;
#X msg -495 280 0 0 0 0;
#N canvas 0 449 450 300 color 0;
#X obj -813 111 colorRGB 1 1 1 1;
#X obj -813 132 alpha;
#X obj -812 76 inlet;
#X obj -814 171 outlet;
#X obj -733 48 unpack f f f f;
#X obj -733 25 inlet;
#X obj -757 140 loadbang;
#X msg -756 162 1;
#X connect 0 0 1 0;
#X connect 1 0 3 0;
#X connect 2 0 0 0;
#X connect 4 0 0 1;
#X connect 4 1 0 2;
#X connect 4 2 0 3;
#X connect 4 3 0 4;
#X connect 5 0 4 0;
#X connect 6 0 7 0;
#X connect 7 0 1 1;
#X restore -629 236 pd color;
#X floatatom -548 174 5 0 0 0 - - -, f 5;
#X obj -629 210 translateXYZ -1.4 2 0;
#X obj -419 200 noise~;
#X floatatom -368 202 5 0 0 0 - - -, f 5;
#X floatatom -394 177 5 0 0 0 - - -, f 5;
#X obj -235 -27 r mousePos;
#X obj -280 117 tgl 15 0 empty empty empty 17 7 0 10 -262144 -1 -1
0 1;
#X obj -247 158 r mouseLeft;
#X obj -280 183 spigot;
#X obj -347 278 color 1 0 0;
#X obj -280 137 metro 100;
#X obj -286 67 rectangle;
#X obj -286 46 color 1 0 0;
#X obj -286 22 k_btn -1.4 -1.45 2.5 2.425;
#X obj -280 203 v y;
#X obj -347 255 translateXYZ -1.4 0.95 0;
#X obj -439 57 expr~ int($v1*268);
#X obj -495 209 s-fft;
#X obj -439 81 unsig~ 1;
#X floatatom -439 103 5 0 0 0 - - -, f 5;
#X obj -439 33 phasor~ 0.05;
#X obj -337 470 rectangle 2.5 0.0125;
#X obj -338 376 translateXYZ -1.4 0.95 0;
#X obj -337 433 alpha;
#X obj -143 66 spigot;
#X obj -143 96 v y;
#X obj -110 38 t f f;
#X obj -83 62 sel 1;
#X obj -105 89 v y;
#X obj -143 118 -;
#X obj -107 11 r mouseRight;
#X obj -143 141 abs;
#X floatatom -143 164 5 0 0 0 - - -, f 5;
#X obj -288 426 loadbang;
#X obj -347 228 gemhead 3;
#X obj -338 349 gemhead 3;
#X obj -287 -1 gemhead 4;
#X obj -629 81 gemhead 8;
#X obj -419 227 bp~ 100 1;
#X msg -288 445 1;
#X obj -338 399 colorRGB 1 0 0 0.4;
#X obj -541 440 outlet~;
#X obj -143 189 k_range 0 4 2 10;
#X obj -483 337 noise~;
#X obj -483 361 samphold~;
#X obj -483 383 abs~;
#X obj -432 335 phasor~ 20;
#X obj -541 414 *~;
#X obj -483 407 >~ 0.5;
#X obj -203 283 k_range 0 4 1 40;
#X floatatom -203 306 5 0 0 0 - - -, f 5;
#X obj -280 226 k_range 0.95 -3.9 300 2000;
#X obj -419 259 osc~ 3000;
#X obj -419 288 *~;
#X obj -439 5 k_range 0.95 -3.9 1 10;
#X obj -629 264 rectangle 2.5 0.015;
#X obj -606 -10 inlet;
#X floatatom -605 12 5 0 0 0 - - -, f 5;
#X obj -541 138 k_range 0 200 0.95 -3.9;
#X obj -561 10 expr -1.4+$f1;
#X obj -521 41 - 2.5;
#X obj -347 309 rectangle 2.5 0.02;
#X msg -476 301 1 1 1 1;
#X obj -10 287 outlet;
#X obj -10 260 k_range 0 4 1 12;
#X connect 0 0 3 0;
#X connect 0 1 1 0;
#X connect 1 0 2 0;
#X connect 1 0 9 0;
#X connect 2 0 7 0;
#X connect 3 0 14 0;
#X connect 4 0 11 0;
#X connect 4 1 75 0;
#X connect 5 0 30 0;
#X connect 6 0 0 0;
#X connect 7 0 1 1;
#X connect 8 0 5 0;
#X connect 9 0 71 0;
#X connect 9 1 8 0;
#X connect 10 0 4 0;
#X connect 11 0 12 1;
#X connect 12 0 68 0;
#X connect 13 0 14 2;
#X connect 14 0 12 0;
#X connect 15 0 51 0;
#X connect 16 0 51 2;
#X connect 17 0 51 1;
#X connect 18 0 26 1;
#X connect 19 0 23 0;
#X connect 20 0 21 1;
#X connect 21 0 27 0;
#X connect 22 0 74 0;
#X connect 23 0 21 0;
#X connect 23 0 37 0;
#X connect 25 0 24 0;
#X connect 26 1 19 0;
#X connect 27 0 28 2;
#X connect 27 0 35 2;
#X connect 27 0 64 0;
#X connect 27 0 67 0;
#X connect 28 0 22 0;
#X connect 29 0 31 0;
#X connect 30 0 10 0;
#X connect 31 0 32 0;
#X connect 32 0 30 1;
#X connect 33 0 29 0;
#X connect 35 0 53 0;
#X connect 36 0 34 0;
#X connect 37 0 38 0;
#X connect 38 0 42 0;
#X connect 39 0 37 1;
#X connect 39 1 40 0;
#X connect 40 0 41 0;
#X connect 41 0 42 1;
#X connect 42 0 44 0;
#X connect 43 0 39 0;
#X connect 44 0 45 0;
#X connect 44 0 77 0;
#X connect 45 0 34 2;
#X connect 45 0 55 0;
#X connect 45 0 62 0;
#X connect 46 0 52 0;
#X connect 47 0 28 0;
#X connect 48 0 35 0;
#X connect 49 0 26 0;
#X connect 50 0 6 0;
#X connect 51 0 30 2;
#X connect 51 0 66 1;
#X connect 52 0 36 1;
#X connect 53 0 36 0;
#X connect 55 0 16 0;
#X connect 56 0 57 0;
#X connect 57 0 58 0;
#X connect 58 0 61 0;
#X connect 59 0 57 1;
#X connect 60 0 54 0;
#X connect 61 0 60 1;
#X connect 62 0 59 0;
#X connect 62 0 63 0;
#X connect 64 0 17 0;
#X connect 65 0 66 0;
#X connect 66 0 60 0;
#X connect 67 0 33 0;
#X connect 69 0 70 0;
#X connect 69 0 72 0;
#X connect 70 0 68 1;
#X connect 70 0 74 1;
#X connect 70 0 34 1;
#X connect 71 0 13 0;
#X connect 72 0 73 0;
#X connect 73 0 14 1;
#X connect 73 0 28 1;
#X connect 73 0 35 1;
#X connect 75 0 12 1;
#X connect 77 0 76 0;
#X restore 80 331 pd left;
#X obj 59 387 dac~;
#X obj 275 193 t a b;
#X obj 363 146 f;
#X obj 395 146 + 1;
#X obj 275 241 separator;
#X obj 275 169 repeat 200;
#X obj 363 170 t f f;
#N canvas 0 449 450 300 color 0;
#X obj -813 132 alpha;
#X obj -812 76 inlet;
#X obj -814 171 outlet;
#X obj -733 48 unpack f f f f;
#X obj -733 25 inlet;
#X obj -813 111 colorRGB 1 1 1 1;
#X connect 0 0 2 0;
#X connect 1 0 5 0;
#X connect 3 0 5 1;
#X connect 3 1 5 2;
#X connect 3 2 5 3;
#X connect 3 3 5 4;
#X connect 4 0 3 0;
#X connect 5 0 0 0;
#X restore 275 291 pd color;
#X obj 275 136 gemhead 5;
#X obj 423 146 % 100;
#X obj 275 265 translateXYZ 0 -1.45 0;
#X obj 101 388 t b;
#X obj 62 189 table vol 100;
#X obj 29 430 tabwrite~ vol;
#X obj 419 222 tabread vol;
#X obj 419 247 abs;
#X obj 418 295 sel 1 0;
#X msg 418 321 1 1 1 1;
#X obj 275 319 rectangle 0.027 2.424;
#X floatatom 464 250 5 0 0 0 - - -, f 5;
#X obj 419 274 > 0.05;
#X obj 130 407 *~;
#X obj 130 430 dac~;
#X obj 130 384 *~ 0.2;
#X obj 130 359 osc~ 500;
#X obj 200 330 noise~;
#X obj 200 354 samphold~;
#X obj 200 376 abs~;
#X obj 183 402 expr~ if($v1>0.7 \, $v2 \, 0);
#X obj 80 359 *~ 0.3;
#X obj 120 302 dac~;
#X obj 120 256 *~ 0.3;
#X obj 120 279 *~;
#X obj 197 232 abs~;
#X obj 197 209 osc~ 0.1;
#X obj 59 311 *~ 0.3;
#X obj 363 192 k_range 0 100 1.2 3.9;
#X obj 203 427 env~;
#X floatatom 203 488 5 0 0 0 - - -, f 5;
#X obj 204 468 line;
#X msg 204 447 \$1 200;
#X obj 203 511 k_range 0 90 1.2 -3.6;
#X obj 169 545 k_range 0 100 2.5 0.1;
#X msg 438 341 0 0 0 0;
#X obj 120 233 osc~ 80;
#X obj 98 214 osc~ 80.1;
#X obj 183 304 phasor~ 1;
#X obj 60 96 loadbang;
#N canvas 0 22 647 251 gemwin 0;
#X obj 61 142 gemwin;
#X msg 42 89 destroy;
#X obj 42 62 sel 0 1;
#X msg 61 111 reset \, border 0 \, offset 100 100 \, FSAA 8 \, color
0.1 0.1 0.1 \, create \, 1;
#X obj 162 40 loadbang;
#X msg 162 60 \; pd dsp 1;
#X obj 43 30 inlet;
#X connect 1 0 0 0;
#X connect 2 0 1 0;
#X connect 2 1 3 0;
#X connect 3 0 0 0;
#X connect 4 0 5 0;
#X connect 6 0 2 0;
#X restore 60 139 pd gemwin;
#X connect 0 0 52 0;
#X connect 2 0 39 0;
#X connect 2 1 28 0;
#X connect 3 0 33 0;
#X connect 3 1 50 0;
#X connect 5 0 8 0;
#X connect 5 1 6 0;
#X connect 6 0 7 0;
#X connect 6 0 10 0;
#X connect 7 0 13 0;
#X connect 8 0 14 0;
#X connect 9 0 5 0;
#X connect 10 0 40 0;
#X connect 10 1 18 0;
#X connect 11 0 22 0;
#X connect 12 0 9 0;
#X connect 12 0 15 0;
#X connect 13 0 6 1;
#X connect 14 0 11 0;
#X connect 15 0 17 0;
#X connect 18 0 19 0;
#X connect 18 0 23 0;
#X connect 19 0 24 0;
#X connect 20 0 21 0;
#X connect 20 1 47 0;
#X connect 21 0 11 1;
#X connect 24 0 20 0;
#X connect 25 0 26 0;
#X connect 25 0 26 1;
#X connect 25 0 17 0;
#X connect 25 0 41 0;
#X connect 27 0 25 0;
#X connect 28 0 27 0;
#X connect 29 0 30 0;
#X connect 30 0 31 0;
#X connect 31 0 32 1;
#X connect 32 0 25 1;
#X connect 33 0 4 1;
#X connect 33 0 17 0;
#X connect 35 0 36 0;
#X connect 36 0 34 0;
#X connect 36 0 34 1;
#X connect 37 0 36 1;
#X connect 38 0 37 0;
#X connect 39 0 17 0;
#X connect 39 0 4 0;
#X connect 40 0 14 1;
#X connect 41 0 44 0;
#X connect 42 0 45 0;
#X connect 42 0 46 0;
#X connect 43 0 42 0;
#X connect 44 0 43 0;
#X connect 45 0 40 3;
#X connect 46 0 3 0;
#X connect 47 0 11 1;
#X connect 48 0 35 0;
#X connect 49 0 35 0;
#X connect 50 0 30 1;
#X connect 50 0 32 0;
#X connect 51 0 0 0;
