#N canvas 379 22 750 632 10;
#X obj 101 332 *~;
#X obj 132 331 *~;
#X obj 110 356 +~;
#X obj 111 377 powtodb~;
#N canvas 0 22 346 535 init_input_window 0;
#X obj 73 217 / 10;
#X obj 55 278 line 0 0.1;
#X msg 119 246 0;
#X obj 54 176 t f f b;
#X obj 54 239 pack;
#X obj 55 301 t f f;
#X obj 54 152 - 1;
#X obj 74 114 t f f;
#X obj 55 359 * 3.14159;
#X obj 55 381 sin;
#X msg 55 401 \$1 \$1;
#X obj 55 423 *;
#X text 119 334 0...0.99;
#X text 128 359 0...pi;
#X text 79 423 hanning;
#X msg 55 88 4096;
#X obj 100 88 f 4096;
#X obj 99 60 bng 15 250 50 0 empty empty empty 0 -6 0 8 -262144 -1
-1;
#X obj 99 39 loadbang;
#X obj 74 333 / 4096;
#X obj 55 448 tabwrite \$0-window;
#X text 86 381 half-sine;
#X connect 0 0 4 1;
#X connect 1 0 5 0;
#X connect 2 0 1 0;
#X connect 3 0 4 0;
#X connect 3 1 0 0;
#X connect 3 2 2 0;
#X connect 4 0 1 0;
#X connect 5 0 19 0;
#X connect 5 1 20 1;
#X connect 6 0 3 0;
#X connect 7 0 6 0;
#X connect 7 1 19 1;
#X connect 8 0 9 0;
#X connect 9 0 10 0;
#X connect 10 0 11 0;
#X connect 11 0 20 0;
#X connect 15 0 7 0;
#X connect 16 0 7 0;
#X connect 17 0 16 0;
#X connect 18 0 17 0;
#X connect 19 0 8 0;
#X restore 161 276 pd init_input_window;
#N canvas 0 22 450 300 (subpatch) 0;
#X array \$0-lin_scope 2048 float 0;
#X coords 0 100 2047 0 200 140 1;
#X restore 393 449 graph;
#N canvas 0 22 822 328 init_norm 0;
#X obj 43 230 outlet;
#X obj 43 187 - 100;
#X floatatom 43 208 9 0 0 0 - - -;
#X text 108 169 leistung -> techn. dB;
#X msg 43 69 4096;
#X obj 80 68 f 4096;
#X obj 80 47 bng 15 250 50 0 empty empty empty 0 -6 0 8 -262144 -1
-1;
#X obj 80 26 loadbang;
#X obj 43 167 rmstodb;
#X obj 43 110 / 4;
#X text 74 103 faktor 2 wegen hanning;
#X text 74 114 weiterer faktor 2 \, weil wir nur die;
#X text 73 124 erste haelfte des konjungiert komplexen spektrum sehen
;
#X text 108 135 bzw. bearbeiten \, somit nur die haelfte der spektralen
energie;
#X connect 1 0 2 0;
#X connect 2 0 0 0;
#X connect 4 0 9 0;
#X connect 5 0 9 0;
#X connect 6 0 5 0;
#X connect 7 0 6 0;
#X connect 8 0 1 0;
#X connect 9 0 8 0;
#X restore 161 399 pd init_norm;
#X obj 100 231 *~;
#X obj 110 425 -~ 60.206;
#X obj 123 519 *~ 0.98;
#X obj 110 541 +~;
#X obj 110 475 *~ 0.02;
#X msg 314 481 1 \$1;
#X obj 314 502 -;
#X obj 314 458 clip 0 1;
#X obj 314 437 / 100;
#X floatatom 314 413 5 0.5 100 0 - - -;
#X obj 314 373 loadbang;
#X obj 100 277 fft~;
#X obj 363 183 line 0 0.1;
#X obj 363 228 / 2;
#X obj 363 248 mtof;
#X msg 363 162 6 \, 273 26.7;
#X obj 363 206 t f f;
#X obj 394 228 - 6;
#X obj 363 268 / 44100;
#X obj 363 289 * 4096;
#X msg 163 105 6;
#X obj 163 125 / 2;
#X obj 163 145 mtof;
#X floatatom 163 165 9 0 0 0 - - -;
#X text 230 166 Hz;
#X obj 261 126 / 2;
#X obj 261 145 mtof;
#X floatatom 261 165 9 0 0 0 - - -;
#X text 329 165 Hz;
#X msg 261 106 273;
#X obj 163 84 t b b;
#X obj 363 111 tgl 15 0 empty empty empty 0 -6 0 8 -262144 -1 -1 1
1;
#X obj 363 71 loadbang;
#X msg 363 91 1;
#X obj 163 64 loadbang;
#X obj 130 253 table \$0-window 4096;
#X obj 132 198 tabreceive~ \$0-window;
#X text 353 403 temporal lowpass;
#X text 355 415 parameter between 0 .. 100 %;
#X obj 123 498 tabreceive~ \$0-lin_scope;
#X obj 110 587 tabsend~ \$0-lin_scope;
#X obj 363 311 tabread4 \$0-lin_scope;
#X text 453 162 transformation to log scale;
#X text 95 148 audio sig;
#X obj 436 142 switch~ 4096 2;
#X msg 314 392 50;
#X obj 110 565 clip~ 0 100;
#X obj 363 142 metro 100;
#N canvas 0 22 450 300 (subpatch) 0;
#X array \$0-vol-fft 268 float 0;
#X coords 0 100 267 0 160 70 2 0 0;
#X restore 450 211 graph;
#X obj 363 333 tabwrite \$0-vol-fft;
#X obj 100 169 inlet~;
#X obj -91 105 tabread \$0-vol-fft;
#X obj -91 76 inlet;
#X obj -91 129 outlet;
#X obj -38 189 tabread \$0-vol-fft;
#X obj -38 213 outlet;
#X obj -38 160 inlet;
#X connect 0 0 2 0;
#X connect 1 0 2 1;
#X connect 2 0 3 0;
#X connect 3 0 8 0;
#X connect 6 0 8 1;
#X connect 7 0 18 0;
#X connect 8 0 11 0;
#X connect 9 0 10 1;
#X connect 10 0 53 0;
#X connect 11 0 10 0;
#X connect 12 0 13 0;
#X connect 13 0 9 1;
#X connect 14 0 12 0;
#X connect 14 0 11 1;
#X connect 15 0 14 0;
#X connect 16 0 15 0;
#X connect 17 0 52 0;
#X connect 18 0 0 0;
#X connect 18 0 0 1;
#X connect 18 1 1 0;
#X connect 18 1 1 1;
#X connect 19 0 23 0;
#X connect 20 0 21 0;
#X connect 21 0 25 0;
#X connect 22 0 19 0;
#X connect 23 0 20 0;
#X connect 23 1 24 0;
#X connect 24 0 56 1;
#X connect 25 0 26 0;
#X connect 26 0 48 0;
#X connect 27 0 28 0;
#X connect 28 0 29 0;
#X connect 29 0 30 0;
#X connect 32 0 33 0;
#X connect 33 0 34 0;
#X connect 36 0 32 0;
#X connect 37 0 27 0;
#X connect 37 1 36 0;
#X connect 38 0 51 0;
#X connect 38 0 54 0;
#X connect 39 0 40 0;
#X connect 40 0 38 0;
#X connect 41 0 37 0;
#X connect 43 0 7 1;
#X connect 46 0 9 0;
#X connect 48 0 56 0;
#X connect 52 0 16 0;
#X connect 53 0 47 0;
#X connect 54 0 22 0;
#X connect 57 0 7 0;
#X connect 58 0 60 0;
#X connect 59 0 58 0;
#X connect 61 0 62 0;
#X connect 63 0 61 0;
