#N canvas 648 154 540 437 10;
#X obj 57 124 gemwin;
#X msg 36 67 destroy;
#X obj 104 109 gemmouse 1 1;
#X obj 104 135 expr ($f1*8)-4;
#X obj 121 160 expr ($f1*-8)+4;
#X obj 104 191 pack f f;
#X obj 104 218 s mousePos;
#X obj 187 195 s mouseLeft;
#N canvas 486 100 1015 639 scan 0;
#X obj 36 270 circle 0.1;
#X obj 35 19 gemhead 30;
#X obj 184 198 s scan;
#X obj 36 211 translateXYZ 0 -1 0;
#X obj 60 171 k_range 0 12 -3 3;
#X obj 123 324 rectangle 3 0.01;
#X obj 123 272 translateXYZ 0 -1 0;
#X obj 123 296 color 0 0 0;
#X obj 123 242 gemhead 29;
#X obj 36 246 color 0 0 0;
#X obj 33 331 gemhead 30;
#X obj 33 359 color 0 0 0;
#X obj 34 448 separator;
#X obj 34 415 t a b;
#X obj 33 514 curve 2;
#X obj 100 446 t f f;
#X obj 127 470 + 1;
#X obj 100 512 k_range 0 12 -3 3;
#X obj 100 488 t f f;
#X obj 129 534 tabread hight;
#X obj 102 562 pack f f 0;
#X obj 221 507 k_range 0 12 -3 3;
#X obj 250 529 tabread hight;
#X obj 223 557 pack f f 0;
#X obj 222 485 t f f;
#X obj 100 421 k_count 1 12;
#X obj 33 387 repeat 12;
#X obj -33 446 loadbang;
#X msg -34 471 draw point \, res 12;
#X obj 107 45 metro 300;
#X obj 277 444 dac~;
#X obj 275 97 r scan;
#X floatatom 275 180 5 0 0 0 - - -, f 5;
#X obj 275 333 osc~;
#X obj 275 200 tabread hight;
#X floatatom 275 224 5 0 0 0 - - -, f 5;
#X obj 275 287 + 60;
#X obj 275 266 int;
#X obj 275 244 k_range -1 3 0 24;
#X obj 275 127 change;
#X obj 275 153 t f b;
#X obj 107 16 inlet;
#X obj 107 103 % 13;
#X obj 107 77 f;
#X obj 135 77 + 1;
#X obj 516 516 translateXYZ -3 -1 0;
#X obj 720 558 translateXYZ 3 -1 0;
#X obj 685 216 distance2d;
#X obj 685 138 r mousePos;
#X obj 685 273 tgl 15 0 empty empty empty 17 7 0 10 -262144 -1 -1 0
1;
#X obj 627 162 r mouseLeft;
#X obj 594 136 r mousePos;
#X obj 594 191 spigot;
#X obj 594 216 spigot;
#X obj 594 242 unpack f f;
#X floatatom 594 271 5 0 0 0 - - -, f 5;
#X floatatom 638 341 5 0 0 0 - - -, f 5;
#X obj 685 247 < 0.25;
#X msg 754 216 \$1 -1 0;
#X obj 754 160 f;
#X obj 685 189 t a b;
#X obj 789 75 loadbang;
#X msg 789 101 -3;
#X obj 832 339 distance2d;
#X obj 832 261 r mousePos;
#X obj 832 396 tgl 15 0 empty empty empty 17 7 0 10 -262144 -1 -1 0
1;
#X obj 774 285 r mouseLeft;
#X obj 741 259 r mousePos;
#X obj 741 314 spigot;
#X obj 741 339 spigot;
#X obj 741 365 unpack f f;
#X floatatom 741 394 5 0 0 0 - - -, f 5;
#X floatatom 785 464 5 0 0 0 - - -, f 5;
#X obj 832 370 < 0.25;
#X msg 903 379 \$1 -1 0;
#X obj 903 323 f;
#X obj 832 312 t a b;
#X obj 913 206 loadbang;
#X obj 638 317 moses 3;
#X obj 593 294 moses -3;
#X obj 740 417 moses -3;
#X msg 913 232 3;
#X obj 785 440 moses 3.1;
#X obj 491 308 k_range -3 3 0 12;
#X obj 834 476 k_range -3 3 0 12;
#X obj 491 330 int;
#X floatatom 491 350 5 0 0 0 - - -, f 5;
#X obj 834 496 int;
#X floatatom 834 516 5 0 0 0 - - -, f 5;
#X obj 644 415 -;
#X floatatom 643 436 5 0 0 0 - - -, f 5;
#X obj 643 456 expr abs($f1)+1;
#X floatatom 643 478 5 0 0 0 - - -, f 5;
#X obj 644 382 t b f;
#X obj 107 128 +;
#X obj 376 203 color 0 0 0;
#X obj 352 24 gemhead 29;
#X obj 376 179 translateXYZ -3 -1 0;
#X obj 386 81 t a b;
#X obj 452 87 k_count 1 12;
#X obj 385 53 repeat 12;
#X obj 359 148 separator;
#X obj 444 127 k_range 0 12 -3 3;
#X obj 376 230 rectangle 0.01 0.05;
#X obj 516 567 rectangle 0.02 0.13;
#X obj 720 609 rectangle 0.02 0.13;
#X msg 313 288 0.6 \, 0 1000;
#X obj 275 383 st-material /key;
#X obj 313 313 line~;
#X obj 275 358 *~;
#X obj 275 308 mtof~;
#X obj 516 540 color 1 0 0;
#X obj 720 582 color 1 0 0;
#X obj 720 528 gemhead 50;
#X obj 516 486 gemhead 50;
#X connect 1 0 3 0;
#X connect 3 0 9 0;
#X connect 4 0 3 1;
#X connect 6 0 7 0;
#X connect 7 0 5 0;
#X connect 8 0 6 0;
#X connect 9 0 0 0;
#X connect 10 0 11 0;
#X connect 11 0 26 0;
#X connect 12 0 14 0;
#X connect 13 0 12 0;
#X connect 13 1 25 0;
#X connect 15 0 18 0;
#X connect 15 1 16 0;
#X connect 16 0 24 0;
#X connect 17 0 20 0;
#X connect 18 0 17 0;
#X connect 18 1 19 0;
#X connect 19 0 20 1;
#X connect 20 0 14 1;
#X connect 21 0 23 0;
#X connect 22 0 23 1;
#X connect 23 0 14 2;
#X connect 24 0 21 0;
#X connect 24 1 22 0;
#X connect 25 0 15 0;
#X connect 26 0 13 0;
#X connect 27 0 28 0;
#X connect 28 0 14 0;
#X connect 29 0 43 0;
#X connect 31 0 39 0;
#X connect 32 0 34 0;
#X connect 33 0 109 0;
#X connect 34 0 35 0;
#X connect 35 0 38 0;
#X connect 36 0 110 0;
#X connect 37 0 36 0;
#X connect 38 0 37 0;
#X connect 39 0 40 0;
#X connect 40 0 32 0;
#X connect 40 1 106 0;
#X connect 41 0 29 0;
#X connect 42 0 94 0;
#X connect 43 0 44 0;
#X connect 43 0 42 0;
#X connect 44 0 43 1;
#X connect 45 0 111 0;
#X connect 46 0 112 0;
#X connect 47 0 57 0;
#X connect 48 0 60 0;
#X connect 49 0 53 1;
#X connect 50 0 52 1;
#X connect 51 0 52 0;
#X connect 52 0 53 0;
#X connect 53 0 54 0;
#X connect 54 0 55 0;
#X connect 55 0 79 0;
#X connect 56 0 80 1;
#X connect 56 0 59 1;
#X connect 56 0 83 0;
#X connect 56 0 45 1;
#X connect 57 0 49 0;
#X connect 58 0 47 1;
#X connect 59 0 58 0;
#X connect 60 0 47 0;
#X connect 60 1 59 0;
#X connect 61 0 62 0;
#X connect 62 0 55 0;
#X connect 62 0 80 1;
#X connect 63 0 73 0;
#X connect 64 0 76 0;
#X connect 65 0 69 1;
#X connect 66 0 68 1;
#X connect 67 0 68 0;
#X connect 68 0 69 0;
#X connect 69 0 70 0;
#X connect 70 0 71 0;
#X connect 71 0 80 0;
#X connect 72 0 46 1;
#X connect 72 0 78 1;
#X connect 72 0 75 1;
#X connect 72 0 84 0;
#X connect 73 0 65 0;
#X connect 74 0 63 1;
#X connect 75 0 74 0;
#X connect 76 0 63 0;
#X connect 76 1 75 0;
#X connect 77 0 81 0;
#X connect 78 0 56 0;
#X connect 79 1 78 0;
#X connect 80 1 82 0;
#X connect 81 0 71 0;
#X connect 81 0 78 1;
#X connect 82 0 72 0;
#X connect 83 0 85 0;
#X connect 84 0 87 0;
#X connect 85 0 86 0;
#X connect 86 0 93 0;
#X connect 86 0 94 1;
#X connect 87 0 88 0;
#X connect 88 0 89 0;
#X connect 89 0 90 0;
#X connect 90 0 91 0;
#X connect 91 0 42 1;
#X connect 91 0 92 0;
#X connect 93 0 89 0;
#X connect 93 1 89 1;
#X connect 94 0 4 0;
#X connect 94 0 2 0;
#X connect 95 0 103 0;
#X connect 96 0 100 0;
#X connect 97 0 95 0;
#X connect 98 0 101 0;
#X connect 98 1 99 0;
#X connect 99 0 102 0;
#X connect 100 0 98 0;
#X connect 101 0 97 0;
#X connect 102 0 97 1;
#X connect 106 0 108 0;
#X connect 107 0 30 0;
#X connect 107 1 30 1;
#X connect 108 0 109 1;
#X connect 109 0 107 0;
#X connect 109 0 107 1;
#X connect 110 0 33 0;
#X connect 111 0 104 0;
#X connect 112 0 105 0;
#X connect 113 0 46 0;
#X connect 114 0 45 0;
#X restore 421 276 pd scan;
#X obj 366 219 s ran;
#X obj 366 197 bng 15 250 50 0 empty empty empty 17 7 0 10 -262144
-1 -1;
#X obj 366 151 tgl 15 0 empty empty empty 17 7 0 10 -262144 -1 -1 0
1;
#X obj 57 34 loadbang;
#X obj 355 301 table hight 20;
#X obj 366 172 metro 300;
#X obj 101 243 loadbang;
#X msg 101 266 \; pd dsp 1;
#X obj 421 255 tgl 15 0 empty empty empty 17 7 0 10 -262144 -1 -1 1
1;
#X obj 421 232 loadbang;
#X obj 184 248 dot_pitch 1;
#X obj 78 352 k_cpu;
#X msg 57 89 reset \, destroy \, color 0.95 0.95 0.95 \, FSAA 8 \,
border 1 \, create \, 1;
#X obj 277 250 dot_pitch 7;
#X obj 184 222 dot_pitch 0;
#X obj 185 322 dot_pitch 4;
#X obj 276 326 dot_pitch 10;
#X obj 184 274 dot_pitch 2;
#X obj 184 300 dot_pitch 3;
#X obj 185 348 dot_pitch 5;
#X obj 185 374 dot_pitch 6;
#X obj 276 274 dot_pitch 8;
#X obj 276 300 dot_pitch 9;
#X obj 277 351 dot_pitch 11;
#X obj 277 375 dot_pitch 12;
#X connect 1 0 0 0;
#X connect 2 0 3 0;
#X connect 2 1 4 0;
#X connect 2 2 7 0;
#X connect 3 0 5 0;
#X connect 4 0 5 1;
#X connect 5 0 6 0;
#X connect 10 0 9 0;
#X connect 11 0 14 0;
#X connect 12 0 21 0;
#X connect 14 0 10 0;
#X connect 15 0 16 0;
#X connect 17 0 8 0;
#X connect 18 0 17 0;
#X connect 21 0 0 0;
