#N canvas 492 23 1033 765 10;
#X obj -43 -78 t a a;
#X obj -16 -53 separator;
#X obj -43 -31 separator;
#X obj 138 -145 loadbang;
#X obj 103 -142 bng 15 250 50 0 empty empty empty 17 7 0 10 -262144
-1 -1;
#X obj 189 55 distance2d;
#X obj 189 4 r mousePos;
#X obj 225 429 spigot;
#X obj 189 112 tgl 15 0 empty empty empty 17 7 0 10 -262144 -1 -1 0
1;
#X obj 225 405 translateXYZ;
#X obj 96 473 loadbang;
#X obj 225 455 t a a;
#X obj 225 488 separator;
#X obj 348 491 separator;
#X obj 273 154 r mouseLeft;
#X obj 240 128 r mousePos;
#X obj 240 183 spigot;
#X obj 240 208 spigot;
#X obj -139 -51 r scan;
#X floatatom -139 -26 5 0 0 0 - - -;
#X obj -121 472 + 60;
#X obj -121 451 int;
#X floatatom -122 493 5 0 0 0 - - -;
#X msg -122 519 text P-\$1;
#X obj -258 367 gemhead 30;
#X obj -258 483 translateXYZ 0 0 0;
#X obj -258 511 text3d;
#X obj -30 470 loadbang;
#X msg -31 494 3;
#X obj 103 -165 r ran;
#X obj 74 -33 k_range 0 12 -3 3;
#X obj -15 66 translateXYZ;
#X obj 74 -57 f \$1;
#X obj 74 -5 pack f f;
#X obj 8 37 unpack f f;
#X obj 240 234 unpack f f;
#X obj 138 -98 t b f;
#X floatatom 297 258 5 0 0 0 - - -;
#X obj 334 302 moses 3;
#X floatatom 334 326 5 0 0 0 - - -;
#X obj 246 375 unpack f f;
#X obj 225 562 rectangle 0.2 0.03;
#X obj 348 562 rectangle 0.2 0.03;
#X msg 96 500 draw line \, width 1;
#X obj 225 533 color 0 0 0;
#X obj 138 -121 randomF 3;
#X obj -15 16 color 0 0 0;
#X obj -223 439 unpack f f;
#X obj -258 392 color 0 0 0;
#X obj -166 460 + 0.25;
#X obj -139 -3 sel \$1;
#X obj -90 23 t b;
#X obj -258 418 spigot;
#X obj 29 398 curve 2;
#X msg 52 318 \$1 \$2 0;
#X obj 93 359 k_range 0 12 -3 3;
#X obj 93 337 f \$1;
#X obj 105 302 loadbang;
#X obj 92 386 pack f -1 0;
#X obj 112 283 bng 15 250 50 0 empty empty empty 17 7 0 10 -262144
-1 -1;
#X obj 28 283 spigot;
#X obj 134 176 r scan;
#X floatatom 134 201 5 0 0 0 - - -;
#X obj -93 334 loadbang;
#X obj 24 254 color 0 0 0;
#X msg -94 359 draw point \, res 20;
#X obj 19 217 GEMglPointSize 1;
#X obj 11 188 gemhead 15;
#X obj -43 -104 gemhead 30;
#X obj 225 345 gemhead 31;
#X msg -139 23 0.1;
#X floatatom -112 73 5 0 0 0 - - -;
#X msg -90 44 0.05;
#X obj 73 128 tabwrite hight;
#X obj 128 68 f \$1;
#X obj 98 41 t f b;
#X obj -121 429 k_range -1 3 0 24;
#X obj 296 281 moses -1;
#X obj 348 533 color 1 1 1;
#X obj -15 100 circle 0.05;
#X obj 189 86 < 0.25;
#X obj 100 245 tgl 15 0 empty empty empty 17 7 0 10 -262144 -1 -1 0
1;
#X obj 141 220 int;
#X obj 141 247 == \$1;
#X connect 0 0 2 0;
#X connect 0 1 1 0;
#X connect 1 0 46 0;
#X connect 3 0 45 0;
#X connect 4 0 45 0;
#X connect 5 0 80 0;
#X connect 6 0 5 0;
#X connect 7 0 11 0;
#X connect 8 0 7 1;
#X connect 8 0 17 1;
#X connect 8 0 52 1;
#X connect 9 0 7 0;
#X connect 10 0 43 0;
#X connect 11 0 12 0;
#X connect 11 1 13 0;
#X connect 12 0 44 0;
#X connect 13 0 78 0;
#X connect 14 0 16 1;
#X connect 15 0 16 0;
#X connect 16 0 17 0;
#X connect 17 0 35 0;
#X connect 18 0 19 0;
#X connect 19 0 50 0;
#X connect 20 0 22 0;
#X connect 21 0 20 0;
#X connect 22 0 23 0;
#X connect 23 0 26 0;
#X connect 24 0 48 0;
#X connect 25 0 26 0;
#X connect 27 0 28 0;
#X connect 28 0 26 1;
#X connect 29 0 4 0;
#X connect 30 0 33 0;
#X connect 31 0 79 0;
#X connect 32 0 30 0;
#X connect 33 0 5 1;
#X connect 33 0 34 0;
#X connect 33 0 40 0;
#X connect 33 0 47 0;
#X connect 33 0 54 0;
#X connect 34 0 31 1;
#X connect 34 1 31 2;
#X connect 34 1 75 0;
#X connect 35 1 37 0;
#X connect 36 0 32 0;
#X connect 36 1 33 1;
#X connect 37 0 77 0;
#X connect 38 0 39 0;
#X connect 39 0 36 0;
#X connect 40 0 9 1;
#X connect 40 1 9 2;
#X connect 43 0 41 0;
#X connect 44 0 41 0;
#X connect 45 0 36 0;
#X connect 46 0 31 0;
#X connect 47 0 25 1;
#X connect 47 1 49 0;
#X connect 47 1 76 0;
#X connect 48 0 52 0;
#X connect 49 0 25 2;
#X connect 50 0 70 0;
#X connect 50 1 51 0;
#X connect 51 0 72 0;
#X connect 52 0 25 0;
#X connect 54 0 53 1;
#X connect 55 0 58 0;
#X connect 56 0 55 0;
#X connect 57 0 56 0;
#X connect 58 0 53 2;
#X connect 59 0 57 0;
#X connect 60 0 53 0;
#X connect 61 0 62 0;
#X connect 62 0 82 0;
#X connect 63 0 65 0;
#X connect 64 0 60 0;
#X connect 65 0 53 0;
#X connect 66 0 64 0;
#X connect 67 0 66 0;
#X connect 68 0 0 0;
#X connect 69 0 9 0;
#X connect 70 0 71 0;
#X connect 71 0 79 1;
#X connect 72 0 71 0;
#X connect 74 0 73 1;
#X connect 75 0 73 0;
#X connect 75 1 74 0;
#X connect 76 0 21 0;
#X connect 77 1 38 0;
#X connect 78 0 42 0;
#X connect 80 0 8 0;
#X connect 81 0 60 1;
#X connect 82 0 83 0;
#X connect 83 0 81 0;
