#N canvas 460 88 647 517 10;
#X obj 220 91 gemwin;
#X obj 37 218 loadbang;
#X msg 37 243 6.2831;
#X obj 37 267 v TWOPI;
#X msg 276 91 destroy;
#X obj 267 136 gemmouse 1 1;
#X obj 267 162 expr ($f1*8)-4;
#X obj 284 187 expr ($f1*-8)+4;
#X obj 267 218 pack f f;
#X obj 267 245 s mousePos;
#X obj 350 222 s mouseLeft;
#X obj 187 171 v fre;
#X obj 186 127 gemhead;
#X obj 187 147 t b;
#X floatatom 187 193 5 0 0 0 - - -, f 5;
#X floatatom 187 268 5 0 0 0 - - -, f 5;
#X floatatom 187 373 5 0 0 0 - - -, f 5;
#X obj 187 458 dac~;
#X obj 187 214 change;
#X obj 187 236 t f b;
#X obj 187 398 osc~;
#X obj 187 294 k_range 0 4 0 24;
#X obj 187 348 mtof;
#N canvas 572 145 535 524 scan 0;
#X obj 192 2 colorRGB 1 0.97 0 1;
#X obj 192 105 circle 3.5;
#X obj 159 28 loadbang;
#X msg 159 54 draw line \, width 2;
#X obj 5 397 colorRGB 1 0.97 0 1;
#X obj -29 345 loadbang;
#X obj 21 114 t a b;
#X obj 46 136 f;
#X obj 104 137 % 360;
#X obj 22 283 translateXYZ;
#X obj 56 237 expr cos($f1)* 3.5;
#X obj 82 263 expr sin($f1)*3.5;
#X obj 56 213 t f f;
#X obj 5 422 circle 0.2;
#X msg -29 371 draw line \, width 1;
#X obj 26 340 separator;
#X obj 133 366 separator;
#X obj 133 423 circle 0.1;
#X obj 133 398 colorRGB 1 1 1 1;
#X obj 21 91 gemhead 30;
#X obj 192 -43 gemhead 20;
#X obj 56 188 expr (($f1/360)*TWOPI);
#X obj 51 163 t f f;
#X obj 217 207 / 360;
#X obj 216 233 s scan;
#X obj 23 307 t a a a;
#X obj 251 417 curve 2;
#X obj 275 368 pack f f 0;
#X obj 254 287 gemhead 32;
#X obj 317 412 loadbang;
#X obj 253 315 GEMglPointSize 4;
#X msg 316 437 draw point \, res 10;
#X obj 73 137 + 4;
#X obj 109 81 inlet;
#X connect 0 0 1 0;
#X connect 2 0 3 0;
#X connect 3 0 1 0;
#X connect 4 0 13 0;
#X connect 5 0 14 0;
#X connect 6 0 9 0;
#X connect 6 1 7 0;
#X connect 7 0 22 0;
#X connect 7 0 32 0;
#X connect 8 0 7 1;
#X connect 9 0 25 0;
#X connect 10 0 9 1;
#X connect 10 0 27 0;
#X connect 11 0 9 2;
#X connect 11 0 27 1;
#X connect 12 0 10 0;
#X connect 12 1 11 0;
#X connect 14 0 13 0;
#X connect 15 0 4 0;
#X connect 16 0 18 0;
#X connect 18 0 17 0;
#X connect 19 0 6 0;
#X connect 20 0 0 0;
#X connect 21 0 12 0;
#X connect 22 0 21 0;
#X connect 22 1 23 0;
#X connect 23 0 24 0;
#X connect 25 0 16 0;
#X connect 25 1 15 0;
#X connect 27 0 26 1;
#X connect 28 0 30 0;
#X connect 29 0 31 0;
#X connect 30 0 26 0;
#X connect 31 0 26 0;
#X connect 32 0 8 0;
#X connect 33 0 32 1;
#X restore 384 355 pd scan;
#X obj 57 425 s ran;
#X obj 57 403 bng 15 250 50 0 empty empty empty 17 7 0 10 -262144 -1
-1;
#X obj 187 322 expr int($f1)+ 60;
#X floatatom 385 331 5 0 0 0 - - -, f 5;
#X obj 57 357 tgl 15 0 empty empty empty 17 7 0 10 -262144 -1 -1 0
1;
#X obj 57 378 metro 1000;
#X obj 53 68 piece 8;
#X obj 220 22 loadbang;
#X obj 242 412 line~;
#X obj 243 345 randomF 0.1;
#X obj 127 63 piece 0;
#X obj 127 141 piece 3;
#X obj 54 145 piece 11;
#X obj 127 89 piece 1;
#X obj 127 115 piece 2;
#X obj 128 163 piece 4;
#X obj 128 189 piece 5;
#X obj 128 215 piece 6;
#X obj 128 241 piece 7;
#X obj 53 94 piece 9;
#X obj 53 120 piece 10;
#X obj 302 372 bng 15 250 50 0 empty empty empty 17 7 0 10 -262144
-1 -1;
#X obj 187 427 *~;
#X obj 243 367 + 0.6;
#X msg 242 388 \$1 0 \, 0 200;
#X msg 403 106 \; pd dsp 1;
#X msg 220 54 reset \, FSAA 8 \, border 1 \, offset 100 100 \, color
0.75 0.75 0.75 \, create \, 1;
#X connect 1 0 2 0;
#X connect 2 0 3 0;
#X connect 4 0 0 0;
#X connect 5 0 6 0;
#X connect 5 1 7 0;
#X connect 5 2 10 0;
#X connect 6 0 8 0;
#X connect 7 0 8 1;
#X connect 8 0 9 0;
#X connect 11 0 14 0;
#X connect 12 0 13 0;
#X connect 13 0 11 0;
#X connect 14 0 18 0;
#X connect 15 0 21 0;
#X connect 16 0 20 0;
#X connect 18 0 19 0;
#X connect 19 0 15 0;
#X connect 19 1 33 0;
#X connect 20 0 46 0;
#X connect 21 0 26 0;
#X connect 22 0 16 0;
#X connect 25 0 24 0;
#X connect 26 0 22 0;
#X connect 27 0 23 0;
#X connect 28 0 29 0;
#X connect 29 0 25 0;
#X connect 31 0 50 0;
#X connect 31 0 49 0;
#X connect 32 0 46 1;
#X connect 33 0 47 0;
#X connect 45 0 33 0;
#X connect 46 0 17 0;
#X connect 46 0 17 1;
#X connect 47 0 48 0;
#X connect 48 0 32 0;
#X connect 50 0 0 0;
