#N canvas 266 22 1033 765 10;
#X obj 158 -3 GEMglBegin;
#X obj 215 -47 loadbang;
#X obj 107 22 GEMglEnd;
#X obj 156 316 GEMglVertex3f;
#X obj 183 117 f;
#X obj 211 117 + 1;
#X msg 183 217 0 0;
#X obj 183 173 t b;
#X obj 183 276 unpack f f;
#X obj 183 142 moses 1;
#X obj 489 125 init \$1;
#X obj 238 142 - 1;
#X obj 156 67 repeat 12;
#X obj 238 117 % 12;
#X obj -228 287 GEMglVertex3f;
#X obj -228 65 t a b;
#X obj -201 88 f;
#X obj -173 88 + 1;
#X msg -201 188 0 0;
#X obj -201 144 t b;
#X obj -201 247 unpack f f;
#X obj -201 113 moses 1;
#X obj 105 96 init \$1;
#X obj -146 113 - 1;
#X obj -228 38 repeat 12;
#X obj -146 88 % 12;
#X obj 107 -27 t a a a;
#X obj -43 -78 t a a;
#X obj -16 -53 separator;
#X obj -43 -31 separator;
#X obj -163 38 GEMglBegin;
#X obj -106 -7 loadbang;
#X obj -285 39 GEMglEnd;
#X obj -247 -7 t a a a;
#X msg -106 17 9;
#X obj -162 206 expr cos($f1)* $f2;
#X obj -136 232 expr sin($f1)*$f2;
#X obj 222 235 expr cos($f1)* $f2;
#X obj 248 261 expr sin($f1)*$f2;
#X obj -162 182 t f f b;
#X obj -58 177 v \$0-r;
#X obj 222 211 t f f b;
#X obj 327 207 v \$0-r;
#X obj 318 -5 loadbang;
#X obj 318 43 + 1;
#X obj 318 66 v \$0-r;
#X obj 283 -2 bng 15 250 50 0 empty empty empty 17 7 0 10 -262144 -1
-1;
#X obj 318 19 randomF 2;
#X msg 215 -24 2;
#X obj -162 135 expr (($f1/10)*TWOPI*0.083)+TWOPI*(0.083*$f2);
#X obj 222 164 expr (($f1/10)*TWOPI*0.083)+TWOPI*(0.083*$f2);
#X obj -177 -158 init \$1;
#X obj -177 -107 sel 0 1;
#X msg -177 -83 12;
#X msg -150 -82 13;
#X obj -177 -133 == 11;
#X obj 107 -65 GEMglLineWidth 2;
#X obj 107 -91 colorRGB 1 0.97 0 1;
#X obj 156 94 t a b b;
#X obj 666 162 init \$1;
#X obj 399 201 expr (($f1/10)*TWOPI*0.083)+TWOPI*(0.083*$f2);
#X obj 399 263 expr cos($f1)* $f2;
#X obj 454 293 expr sin($f1)*$f2;
#X obj 399 239 t f f b;
#X obj 504 235 v \$0-r;
#X floatatom 399 295 5 0 0 0 - - -;
#X floatatom 454 323 5 0 0 0 - - -;
#X obj 399 353 pack f f;
#X obj 342 377 distance2d;
#X obj 342 326 r mousePos;
#X obj 225 429 spigot;
#X obj 342 434 tgl 15 0 empty empty empty 17 7 0 10 -262144 -1 -1 0
1;
#X obj 225 377 translateXYZ;
#X msg 314 113 5;
#X obj -43 -104 gemhead 5;
#X obj 225 345 gemhead 20;
#X obj 225 402 rotateXYZ;
#X obj -80 344 k_angle;
#X floatatom 91 425 5 0 0 0 - - -;
#X floatatom -80 425 5 0 0 0 - - -;
#X obj 225 533 colorRGB 1 0.97 0 1;
#X obj 96 473 loadbang;
#X msg 96 500 draw line \, width 2;
#X obj 225 455 t a a;
#X obj 225 488 separator;
#X obj 297 489 separator;
#X obj 348 533 colorRGB 0.75 0.75 0.75 1;
#X obj -90 449 expr if($f1> 0 \, $f2 \, 180-$f2);
#X obj 225 562 rectangle 0.05 0.2;
#X obj 348 562 rectangle 0.05 0.2;
#X obj 618 300 r mouseLeft;
#X obj 585 274 r mousePos;
#X floatatom 585 407 5 0 0 0 - - -;
#X obj 585 329 spigot;
#X obj 585 354 spigot;
#X obj 585 429 v \$0-r;
#X obj 585 379 distance2d;
#X obj 422 -39 r scan;
#X floatatom 416 -8 5 0 0 0 - - -;
#X obj 373 -103 expr (0.083*$f1);
#X obj 373 -129 init \$1;
#X obj 372 -74 t f f;
#X floatatom 488 -3 5 0 0 0 - - -;
#X obj 471 -57 expr $f1+0.083;
#X obj 377 -150 bng 15 250 50 0 empty empty empty 17 7 0 10 -262144
-1 -1;
#X floatatom 531 -28 5 0 0 0 - - -;
#X obj 429 33 split 0.01 0.01;
#X msg 456 53 0.84 0.87 0.26;
#X msg 543 73 0.49 0.82 0.2;
#X obj -42 72 color;
#X obj 414 105 v \$0-r;
#X obj 414 130 v fre;
#X obj 416 77 t b;
#X obj -75 311 list append 0;
#X obj -155 481 k_range 0 4 0 24;
#X obj -155 524 + 60;
#X obj -155 503 int;
#X obj -234 396 t a b;
#X obj -207 428 v \$0-r;
#X floatatom -156 545 5 0 0 0 - - -;
#X obj -256 514 rotateXYZ;
#X msg -156 571 text P-\$1;
#X obj -234 364 gemhead 30;
#X obj -258 483 translateXYZ 0 0 0;
#X obj -127 410 / 2;
#X obj -155 411 / 2;
#X obj -229 575 text3d;
#X obj -64 522 loadbang;
#X msg -65 546 3;
#X obj 284 -24 r ran;
#X obj 342 408 < 0.4;
#X connect 1 0 48 0;
#X connect 4 0 5 0;
#X connect 4 0 9 0;
#X connect 5 0 13 0;
#X connect 6 0 8 0;
#X connect 7 0 6 0;
#X connect 8 0 3 1;
#X connect 8 1 3 2;
#X connect 9 0 7 0;
#X connect 9 1 11 0;
#X connect 10 0 50 1;
#X connect 11 0 50 0;
#X connect 12 0 58 0;
#X connect 13 0 4 1;
#X connect 15 0 14 0;
#X connect 15 1 16 0;
#X connect 16 0 17 0;
#X connect 16 0 21 0;
#X connect 17 0 25 0;
#X connect 18 0 20 0;
#X connect 19 0 18 0;
#X connect 20 0 14 1;
#X connect 20 1 14 2;
#X connect 21 0 19 0;
#X connect 21 1 23 0;
#X connect 22 0 49 1;
#X connect 23 0 49 0;
#X connect 24 0 15 0;
#X connect 25 0 16 1;
#X connect 26 0 2 0;
#X connect 26 1 12 0;
#X connect 26 2 0 0;
#X connect 27 0 29 0;
#X connect 27 1 28 0;
#X connect 28 0 109 0;
#X connect 29 0 57 0;
#X connect 31 0 34 0;
#X connect 33 0 32 0;
#X connect 33 1 24 0;
#X connect 33 2 30 0;
#X connect 34 0 30 1;
#X connect 35 0 14 1;
#X connect 36 0 14 2;
#X connect 37 0 3 1;
#X connect 38 0 3 2;
#X connect 39 0 35 0;
#X connect 39 1 36 0;
#X connect 39 2 40 0;
#X connect 40 0 36 1;
#X connect 40 0 35 1;
#X connect 41 0 37 0;
#X connect 41 1 38 0;
#X connect 41 2 42 0;
#X connect 42 0 37 1;
#X connect 42 0 38 1;
#X connect 43 0 47 0;
#X connect 44 0 45 0;
#X connect 46 0 47 0;
#X connect 47 0 44 0;
#X connect 48 0 0 1;
#X connect 49 0 39 0;
#X connect 50 0 41 0;
#X connect 51 0 55 0;
#X connect 52 0 53 0;
#X connect 52 1 54 0;
#X connect 53 0 24 1;
#X connect 53 0 25 1;
#X connect 53 0 12 1;
#X connect 53 0 13 1;
#X connect 54 0 24 1;
#X connect 54 0 25 1;
#X connect 54 0 12 1;
#X connect 54 0 13 1;
#X connect 55 0 52 0;
#X connect 56 0 26 0;
#X connect 57 0 56 0;
#X connect 58 0 3 0;
#X connect 58 1 4 0;
#X connect 58 2 73 0;
#X connect 59 0 60 1;
#X connect 60 0 63 0;
#X connect 61 0 65 0;
#X connect 62 0 66 0;
#X connect 63 0 61 0;
#X connect 63 1 62 0;
#X connect 63 2 64 0;
#X connect 64 0 61 1;
#X connect 64 0 62 1;
#X connect 65 0 67 0;
#X connect 65 0 72 1;
#X connect 65 0 125 0;
#X connect 66 0 67 1;
#X connect 66 0 72 2;
#X connect 66 0 124 0;
#X connect 67 0 68 1;
#X connect 67 0 113 0;
#X connect 68 0 130 0;
#X connect 69 0 68 0;
#X connect 70 0 83 0;
#X connect 71 0 70 1;
#X connect 71 0 94 1;
#X connect 71 0 122 0;
#X connect 72 0 76 0;
#X connect 73 0 60 0;
#X connect 74 0 27 0;
#X connect 75 0 72 0;
#X connect 76 0 70 0;
#X connect 77 0 79 0;
#X connect 77 1 78 0;
#X connect 78 0 87 1;
#X connect 79 0 87 0;
#X connect 80 0 88 0;
#X connect 81 0 82 0;
#X connect 82 0 88 0;
#X connect 83 0 84 0;
#X connect 83 1 85 0;
#X connect 84 0 80 0;
#X connect 85 0 86 0;
#X connect 86 0 89 0;
#X connect 87 0 76 3;
#X connect 87 0 120 3;
#X connect 90 0 93 1;
#X connect 91 0 93 0;
#X connect 92 0 95 0;
#X connect 93 0 94 0;
#X connect 94 0 96 0;
#X connect 96 0 92 0;
#X connect 97 0 98 0;
#X connect 98 0 106 0;
#X connect 99 0 101 0;
#X connect 100 0 99 0;
#X connect 101 0 102 0;
#X connect 101 1 103 0;
#X connect 102 0 106 1;
#X connect 103 0 105 0;
#X connect 104 0 100 0;
#X connect 105 0 106 2;
#X connect 106 0 107 0;
#X connect 106 0 112 0;
#X connect 106 1 108 0;
#X connect 107 0 109 1;
#X connect 108 0 109 1;
#X connect 109 0 33 0;
#X connect 110 0 111 0;
#X connect 112 0 110 0;
#X connect 113 0 77 0;
#X connect 114 0 116 0;
#X connect 115 0 119 0;
#X connect 116 0 115 0;
#X connect 117 0 123 0;
#X connect 117 1 118 0;
#X connect 118 0 114 0;
#X connect 119 0 121 0;
#X connect 120 0 126 0;
#X connect 121 0 126 0;
#X connect 122 0 117 0;
#X connect 123 0 120 0;
#X connect 124 0 123 2;
#X connect 125 0 123 1;
#X connect 127 0 128 0;
#X connect 128 0 126 1;
#X connect 129 0 46 0;
#X connect 130 0 71 0;
