#N canvas 729 173 419 405 10;
#X obj 132 368 dac~;
#X obj 132 289 st-pureverb /key;
#X obj 218 210 loadbang;
#X msg 218 235 1 0.4;
#X obj 119 78 loadbang;
#X msg 119 103 \; pd dsp 1;
#X msg 41 145 pd~ stop;
#X obj 119 175 pd~ -ninsig 0 -noutsig 1 -fifo 20;
#X msg 119 144 pd~ start -nogui av7_gem.pd;
#X connect 1 0 0 0;
#X connect 1 1 0 1;
#X connect 2 0 3 0;
#X connect 3 0 1 2;
#X connect 4 0 5 0;
#X connect 6 0 7 0;
#X connect 7 1 1 0;
#X connect 7 1 1 1;
#X connect 8 0 7 0;
