#N canvas 577 274 575 446 10;
#X obj 48 127 gemwin;
#X msg 29 63 destroy;
#N canvas 1058 66 689 714 grid 0;
#X obj 17 45 repeat 17;
#X obj 17 68 t a b;
#X obj 44 89 f;
#X obj 71 89 + 1;
#X obj 98 89 % 17;
#X obj 17 212 curve 2;
#X obj 44 138 t f f;
#X obj 44 115 k_range 0 16 -4 4;
#X obj 164 47 repeat 17;
#X obj 164 70 t a b;
#X obj 191 91 f;
#X obj 218 91 + 1;
#X obj 245 91 % 17;
#X obj 164 215 curve 2;
#X obj 191 140 t f f;
#X obj 191 117 k_range 0 16 -4 4;
#X msg 191 171 -4 \$1 0;
#X msg 218 194 4 \$1 0;
#X msg 44 163 \$1 4 0;
#X msg 71 186 \$1 -4 0;
#X obj 17 19 gemhead 500;
#X obj 164 21 gemhead 500;
#X obj 16 318 rectangle 0.25 4;
#X obj 16 268 translateXYZ -0.25 0 0;
#X obj 13 436 rectangle 0.25 4;
#X obj 13 407 translateXYZ 3.75 0 0;
#X obj 169 386 rectangle 4 0.25;
#X obj 169 278 gemhead 101;
#X obj 169 362 alpha;
#X obj 169 336 colorRGB 0 0 0 0.3;
#X obj 169 306 translateXYZ 0 2.75 0;
#X obj 13 378 gemhead 102;
#X obj 326 129 t a b;
#X obj 353 150 f;
#X obj 380 150 + 1;
#X obj 326 106 repeat 7;
#X obj 407 150 % 7;
#X obj 326 183 separator;
#X obj 326 252 text2d;
#X obj 326 78 gemhead 500;
#X obj 386 293 loadbang;
#X msg 386 314 15;
#X obj 487 33 sel 0 1 2 3 4 5 6;
#X obj 460 4 t f f;
#X msg 390 254 text \$1;
#X msg 501 80 symbol D;
#X msg 517 100 symbol E;
#X msg 531 124 symbol F;
#X msg 549 145 symbol G;
#X msg 563 170 symbol A;
#X msg 586 190 symbol B;
#X obj 326 210 translateXYZ 0 2.75 0;
#X obj 390 180 k_range 0 6 -3.75 -0.75;
#X obj 318 457 t a b;
#X obj 345 478 f;
#X obj 372 478 + 1;
#X obj 318 434 repeat 7;
#X obj 399 478 % 7;
#X obj 318 511 separator;
#X obj 318 580 text2d;
#X obj 318 406 gemhead 500;
#X obj 378 621 loadbang;
#X msg 378 642 15;
#X obj 479 361 sel 0 1 2 3 4 5 6;
#X obj 452 332 t f f;
#X msg 382 582 text \$1;
#X msg 493 408 symbol D;
#X msg 509 428 symbol E;
#X msg 523 452 symbol F;
#X msg 541 473 symbol G;
#X msg 555 498 symbol A;
#X msg 578 518 symbol B;
#X obj 318 538 translateXYZ 0 2.75 0;
#X obj 382 508 k_range 0 6 0.25 3.25;
#X msg 487 56 symbol C6;
#X msg 479 384 symbol C7;
#X obj 16 291 color 0.3 0.3 0.3;
#X obj 16 239 gemhead 102;
#X connect 0 0 1 0;
#X connect 1 0 5 0;
#X connect 1 1 2 0;
#X connect 2 0 3 0;
#X connect 2 0 7 0;
#X connect 3 0 4 0;
#X connect 4 0 2 1;
#X connect 6 0 18 0;
#X connect 6 1 19 0;
#X connect 7 0 6 0;
#X connect 8 0 9 0;
#X connect 9 0 13 0;
#X connect 9 1 10 0;
#X connect 10 0 11 0;
#X connect 10 0 15 0;
#X connect 11 0 12 0;
#X connect 12 0 10 1;
#X connect 14 0 16 0;
#X connect 14 1 17 0;
#X connect 15 0 14 0;
#X connect 16 0 13 1;
#X connect 17 0 13 2;
#X connect 18 0 5 1;
#X connect 19 0 5 2;
#X connect 20 0 0 0;
#X connect 21 0 8 0;
#X connect 23 0 76 0;
#X connect 25 0 24 0;
#X connect 27 0 30 0;
#X connect 28 0 26 0;
#X connect 29 0 28 0;
#X connect 30 0 29 0;
#X connect 31 0 25 0;
#X connect 32 0 37 0;
#X connect 32 1 33 0;
#X connect 33 0 34 0;
#X connect 33 0 43 0;
#X connect 33 0 52 0;
#X connect 34 0 36 0;
#X connect 35 0 32 0;
#X connect 36 0 33 1;
#X connect 37 0 51 0;
#X connect 39 0 35 0;
#X connect 40 0 41 0;
#X connect 41 0 38 1;
#X connect 42 0 74 0;
#X connect 42 1 45 0;
#X connect 42 2 46 0;
#X connect 42 3 47 0;
#X connect 42 4 48 0;
#X connect 42 5 49 0;
#X connect 42 6 50 0;
#X connect 43 1 42 0;
#X connect 44 0 38 0;
#X connect 45 0 44 0;
#X connect 46 0 44 0;
#X connect 47 0 44 0;
#X connect 48 0 44 0;
#X connect 49 0 44 0;
#X connect 50 0 44 0;
#X connect 51 0 38 0;
#X connect 52 0 51 1;
#X connect 53 0 58 0;
#X connect 53 1 54 0;
#X connect 54 0 55 0;
#X connect 54 0 64 0;
#X connect 54 0 73 0;
#X connect 55 0 57 0;
#X connect 56 0 53 0;
#X connect 57 0 54 1;
#X connect 58 0 72 0;
#X connect 60 0 56 0;
#X connect 61 0 62 0;
#X connect 62 0 59 1;
#X connect 63 0 75 0;
#X connect 63 1 66 0;
#X connect 63 2 67 0;
#X connect 63 3 68 0;
#X connect 63 4 69 0;
#X connect 63 5 70 0;
#X connect 63 6 71 0;
#X connect 64 1 63 0;
#X connect 65 0 59 0;
#X connect 66 0 65 0;
#X connect 67 0 65 0;
#X connect 68 0 65 0;
#X connect 69 0 65 0;
#X connect 70 0 65 0;
#X connect 71 0 65 0;
#X connect 72 0 59 0;
#X connect 73 0 72 1;
#X connect 74 0 44 0;
#X connect 75 0 65 0;
#X connect 76 0 22 0;
#X connect 77 0 23 0;
#X restore 38 162 pd grid;
#X obj 280 36 gemmouse 1 1;
#X obj 29 36 sel 0 1;
#X obj 29 15 tgl 15 0 empty empty empty 17 7 0 10 -262144 -1 -1 1 1
;
#X obj 280 63 expr ($f1*8)-4;
#X obj 280 144 s mousePos;
#X obj 280 118 pack f f;
#X obj 348 144 s mouseLeft;
#X obj 150 332 s center-speed;
#X obj 150 282 f;
#X obj 177 282 + 1;
#X obj 203 282 % 16;
#X floatatom 150 309 5 0 0 0 - - -, f 5;
#X obj 177 234 + 1;
#X obj 150 234 f 0;
#X obj 150 257 sel 0;
#X obj 150 7 catch~ all;
#X obj 150 71 dac~;
#X obj 24 201 row 0;
#X obj 244 217 gemkeyboard;
#X floatatom 244 238 5 0 0 0 - - -, f 5;
#X obj 244 260 sel 49;
#X obj 244 282 s all-clear;
#X obj 374 122 s mouseRight;
#X obj 248 143 v x;
#X obj 286 171 v y;
#X obj 123 210 t b b;
#X obj 123 361 s gemhead;
#X obj 123 190 gemhead 2000;
#X obj 364 215 r mouseLeft;
#X obj 390 193 r mouseRight;
#X obj 342 273 t a b b;
#X obj 342 307 translateXYZ;
#X obj 342 341 color;
#X obj 343 381 circle 0.2;
#X obj 394 272 v x;
#X obj 421 272 v y;
#X obj 417 240 sel 1;
#X obj 460 242 sel 1;
#X obj 297 88 expr ($f1*-8)+4;
#X msg 417 329 1 0 0;
#X msg 442 306 0 1 0;
#X obj 150 37 *~ 0.7;
#X obj 24 270 row 3;
#X obj 24 225 row 1;
#X obj 24 248 row 2;
#X obj 24 291 row 4;
#X obj 24 312 row 5;
#X obj 24 336 row 6;
#X obj 75 204 row 8;
#X obj 75 225 row 9;
#X obj 75 245 row 10;
#X obj 75 269 row 11;
#X obj 75 292 row 12;
#X obj 76 312 row 13;
#X obj 76 333 row 14;
#X obj 203 234 % 3;
#N canvas 639 123 480 567 row 0;
#X floatatom 285 -653 5 0 0 0 - - -, f 5;
#X obj 104 -570 expr if($f1<$f3 && $f1>$f2 \, 1 \, 0);
#X floatatom 285 -710 5 0 0 0 - - -, f 5;
#X obj 285 -683 k_range 0 15 -3.75 3.75;
#X obj 285 -631 t f f;
#X obj 285 -605 - 0.25;
#X obj 312 -583 + 0.25;
#X obj 285 -755 loadbang;
#X obj 84 -497 spigot;
#X obj 104 -597 v x;
#X obj 84 -523 v y;
#X obj 65 -659 r gemhead;
#X obj 65 -627 t b b b;
#X obj 104 -546 t f f f;
#X obj 84 -459 spigot;
#X obj 137 -498 r mouseLeft;
#X obj -16 -253 rectangle 0.25 4;
#X floatatom 84 -413 5 0 0 0 - - -, f 5;
#X obj -16 -291 color 1 1 0;
#X obj -16 -356 gemhead 1002;
#X floatatom 108 -366 5 0 0 0 - - -, f 5;
#X obj 108 -389 - 4;
#X obj 84 -437 k_range -4 4 0 4;
#X obj 174 -403 k_range -4 4 1 30;
#X obj 174 -379 int;
#X obj 174 -354 s speed;
#X msg 285 -735 15;
#X obj -16 -327 translateXYZ 3.75 0 0;
#X connect 0 0 4 0;
#X connect 1 0 13 0;
#X connect 2 0 3 0;
#X connect 3 0 0 0;
#X connect 4 0 5 0;
#X connect 4 1 6 0;
#X connect 5 0 1 1;
#X connect 6 0 1 2;
#X connect 7 0 26 0;
#X connect 8 0 14 0;
#X connect 9 0 1 0;
#X connect 10 0 8 0;
#X connect 11 0 12 0;
#X connect 12 1 10 0;
#X connect 12 2 9 0;
#X connect 13 2 8 1;
#X connect 14 0 22 0;
#X connect 14 0 23 0;
#X connect 15 0 14 1;
#X connect 17 0 16 2;
#X connect 17 0 21 0;
#X connect 18 0 16 0;
#X connect 19 0 27 0;
#X connect 20 0 27 2;
#X connect 21 0 20 0;
#X connect 22 0 17 0;
#X connect 23 0 24 0;
#X connect 24 0 25 0;
#X connect 26 0 2 0;
#X connect 27 0 18 0;
#X restore 46 369 pd row 7;
#X obj 342 250 gemhead 2000;
#X obj 218 192 r speed;
#X obj 47 14 loadbang;
#X msg 48 91 reset \, border 0 \, offset 100 100 \, color 0.82 0.82
0.82 \, create \, 1;
#X obj 245 325 loadbang;
#X msg 245 347 \; pd dsp 1;
#X connect 1 0 0 0;
#X connect 3 0 6 0;
#X connect 3 1 41 0;
#X connect 3 2 9 0;
#X connect 3 4 25 0;
#X connect 4 0 1 0;
#X connect 4 1 63 0;
#X connect 5 0 4 0;
#X connect 6 0 8 0;
#X connect 6 0 26 0;
#X connect 8 0 7 0;
#X connect 11 0 12 0;
#X connect 11 0 14 0;
#X connect 12 0 13 0;
#X connect 13 0 11 1;
#X connect 14 0 10 0;
#X connect 15 0 58 0;
#X connect 16 0 15 0;
#X connect 16 0 17 0;
#X connect 17 0 11 0;
#X connect 18 0 44 0;
#X connect 21 0 22 0;
#X connect 22 0 23 0;
#X connect 23 0 24 0;
#X connect 28 0 29 0;
#X connect 28 1 16 0;
#X connect 30 0 28 0;
#X connect 31 0 39 0;
#X connect 31 0 60 0;
#X connect 32 0 40 0;
#X connect 32 0 60 0;
#X connect 33 0 34 0;
#X connect 33 1 37 0;
#X connect 33 2 38 0;
#X connect 34 0 35 0;
#X connect 35 0 36 0;
#X connect 37 0 34 1;
#X connect 38 0 34 2;
#X connect 39 0 42 0;
#X connect 40 0 43 0;
#X connect 41 0 8 1;
#X connect 41 0 27 0;
#X connect 42 0 35 1;
#X connect 43 0 35 1;
#X connect 44 0 19 0;
#X connect 44 0 19 1;
#X connect 58 0 16 1;
#X connect 60 0 33 0;
#X connect 61 0 58 1;
#X connect 62 0 5 0;
#X connect 63 0 0 0;
#X connect 64 0 65 0;
