#N canvas 646 128 940 695 10;
#X obj 108 43 gemhead;
#X obj 108 75 repeat 16;
#X obj 108 99 t a b;
#X obj 135 123 f;
#X obj 162 123 + 1;
#X obj 188 123 % 16;
#X obj 108 196 separator;
#X obj 108 273 translateXYZ;
#X obj 108 352 square 0.25;
#X msg 238 268 0.4 0.39 0.62;
#X msg 219 289 0.82 0.82 0.82;
#X obj 108 316 color 0.4 0.39 0.62;
#X obj 219 242 sel 0 1;
#X obj -15 95 init \$1;
#X obj -15 124 k_range 0 15 -3.75 3.75;
#X obj -15 73 bng 15 250 50 0 empty empty empty 17 7 0 10 -262144 -1
-1;
#X floatatom 592 -23 5 0 0 0 - - -;
#X obj 424 71 expr if($f1<$f3 && $f1>$f2 \, 1 \, 0);
#X obj 671 133 spigot;
#X floatatom 671 210 5 0 0 0 - - -;
#X obj 671 185 int;
#X obj 541 123 r mouseLeft;
#X obj 508 210 spigot;
#X obj 108 18 table \$0-sel 16;
#X obj 508 314 tabwrite \$0-sel;
#X obj 219 216 tabread \$0-sel;
#X obj 592 -107 init \$1;
#X obj 592 -129 bng 15 250 50 0 empty empty empty 17 7 0 10 -262144
-1 -1;
#X floatatom 592 -80 5 0 0 0 - - -;
#X obj 592 -53 k_range 0 15 -3.75 3.75;
#X obj 592 -1 t f f;
#X obj 592 25 - 0.25;
#X obj 619 47 + 0.25;
#X obj 225 104 + 0;
#X obj 225 179 k_range 0 15 -3.75 3.75;
#X obj 225 132 % 16;
#X floatatom 225 153 5 0 0 0 - - -;
#X obj 240 76 r center-speed;
#X obj 686 235 r center-speed;
#X obj 671 331 v \$0-id;
#X floatatom 671 287 5 0 0 0 - - -;
#X obj 671 263 - 0;
#X obj 671 307 expr if($f1>=0 \, $f1%16 \, 16+$f1);
#X obj 264 318 r center-speed;
#X floatatom 236 388 5 0 0 0 - - -;
#X obj 236 364 - 0;
#X obj 236 408 expr if($f1>=0 \, $f1%16 \, 16+$f1);
#X obj 236 432 tabread \$0-sel;
#X floatatom 236 455 5 0 0 0 - - -;
#X obj 264 343 t b f;
#X msg 236 326 13;
#X obj 236 480 sel 1;
#N canvas 502 99 523 659 freq 1;
#X obj 127 75 init \$1;
#X obj 127 105 sel 0 1 2 3 4 5 6;
#X obj 226 128 sel 8 9 10 11 12 13 14;
#X msg 127 133 60;
#X msg 138 154 62;
#X msg 156 175 64;
#X msg 176 196 65;
#X msg 192 219 67;
#X msg 207 241 69;
#X msg 224 265 71;
#X msg 228 152 72;
#X msg 239 173 74;
#X msg 257 194 76;
#X msg 277 215 77;
#X msg 293 238 79;
#X msg 308 260 81;
#X msg 325 284 83;
#X floatatom 159 304 5 0 0 0 - - -;
#X obj 159 331 mtof;
#X obj 159 361 osc~;
#X obj 159 458 throw~ all;
#X msg 216 349 1 \, 0 400;
#X obj 216 373 line~;
#X obj 159 422 *~;
#X obj 216 320 inlet;
#X obj 216 434 *~ 0.2;
#X obj 216 406 *~;
#X connect 0 0 1 0;
#X connect 1 0 3 0;
#X connect 1 1 4 0;
#X connect 1 2 5 0;
#X connect 1 3 6 0;
#X connect 1 4 7 0;
#X connect 1 5 8 0;
#X connect 1 6 9 0;
#X connect 1 7 2 0;
#X connect 2 0 10 0;
#X connect 2 1 11 0;
#X connect 2 2 12 0;
#X connect 2 3 13 0;
#X connect 2 4 14 0;
#X connect 2 5 15 0;
#X connect 2 6 16 0;
#X connect 3 0 17 0;
#X connect 4 0 17 0;
#X connect 5 0 17 0;
#X connect 6 0 17 0;
#X connect 7 0 17 0;
#X connect 8 0 17 0;
#X connect 9 0 17 0;
#X connect 10 0 17 0;
#X connect 11 0 17 0;
#X connect 12 0 17 0;
#X connect 13 0 17 0;
#X connect 14 0 17 0;
#X connect 15 0 17 0;
#X connect 16 0 17 0;
#X connect 17 0 18 0;
#X connect 18 0 19 0;
#X connect 19 0 23 0;
#X connect 21 0 22 0;
#X connect 22 0 26 0;
#X connect 22 0 26 1;
#X connect 23 0 20 0;
#X connect 24 0 21 0;
#X connect 25 0 23 1;
#X connect 26 0 25 0;
#X restore 236 505 pd freq;
#X obj 241 -16 r all-clear;
#X msg 241 37 \; \$1-sel const 0;
#X obj 241 12 f \$0;
#X obj 595 287 v \$0-id;
#X msg 508 292 1;
#X obj 423 320 spigot;
#X obj 423 390 tabwrite \$0-sel;
#X obj 510 363 v \$0-id;
#X obj 456 232 r mouseRight;
#X msg 423 368 0;
#X obj 508 262 t b b;
#X obj 423 342 t b b;
#X obj 135 148 t f f b b;
#X floatatom 456 259 5 0 0 0 - - -;
#X obj 423 279 spigot;
#X floatatom 541 149 5 0 0 0 - - -;
#X obj 508 169 spigot;
#X obj 424 42 v x;
#X obj 671 79 v y;
#X obj 385 -20 r gemhead;
#X obj 385 12 t b b b;
#X obj 424 101 t f f f;
#X obj 671 161 k_range 4 -4 16 0;
#X connect 0 0 1 0;
#X connect 1 0 2 0;
#X connect 2 0 6 0;
#X connect 2 1 3 0;
#X connect 3 0 4 0;
#X connect 3 0 65 0;
#X connect 4 0 5 0;
#X connect 5 0 3 1;
#X connect 6 0 7 0;
#X connect 7 0 11 0;
#X connect 9 0 11 1;
#X connect 10 0 11 1;
#X connect 11 0 8 0;
#X connect 12 0 10 0;
#X connect 12 1 9 0;
#X connect 13 0 14 0;
#X connect 14 0 7 1;
#X connect 15 0 13 0;
#X connect 16 0 30 0;
#X connect 17 0 74 0;
#X connect 18 0 75 0;
#X connect 19 0 41 0;
#X connect 20 0 19 0;
#X connect 21 0 68 0;
#X connect 22 0 63 0;
#X connect 25 0 12 0;
#X connect 26 0 28 0;
#X connect 27 0 26 0;
#X connect 28 0 29 0;
#X connect 29 0 16 0;
#X connect 30 0 31 0;
#X connect 30 1 32 0;
#X connect 31 0 17 1;
#X connect 32 0 17 2;
#X connect 33 0 35 0;
#X connect 34 0 7 2;
#X connect 35 0 36 0;
#X connect 36 0 34 0;
#X connect 37 0 33 1;
#X connect 38 0 41 1;
#X connect 40 0 42 0;
#X connect 41 0 40 0;
#X connect 42 0 39 0;
#X connect 43 0 49 0;
#X connect 44 0 46 0;
#X connect 45 0 44 0;
#X connect 46 0 47 0;
#X connect 47 0 48 0;
#X connect 48 0 51 0;
#X connect 49 0 50 0;
#X connect 49 1 45 1;
#X connect 50 0 45 0;
#X connect 51 0 52 0;
#X connect 53 0 55 0;
#X connect 55 0 54 0;
#X connect 56 0 24 1;
#X connect 57 0 24 0;
#X connect 58 0 64 0;
#X connect 60 0 59 1;
#X connect 61 0 66 0;
#X connect 62 0 59 0;
#X connect 63 0 57 0;
#X connect 63 1 56 0;
#X connect 64 0 62 0;
#X connect 64 1 60 0;
#X connect 65 0 33 0;
#X connect 65 1 25 0;
#X connect 66 0 67 1;
#X connect 67 0 58 0;
#X connect 68 0 69 1;
#X connect 69 0 22 0;
#X connect 70 0 17 0;
#X connect 71 0 18 0;
#X connect 72 0 73 0;
#X connect 73 0 67 0;
#X connect 73 0 69 0;
#X connect 73 1 71 0;
#X connect 73 2 70 0;
#X connect 74 0 58 1;
#X connect 74 1 22 1;
#X connect 74 2 18 1;
#X connect 75 0 20 0;
