#N canvas 882 233 435 391 10;
#X declare -path /Users/aluan/AVLab/av10;
#X obj -82 77 gemwin;
#X msg -101 24 destroy;
#X obj -101 -3 sel 0 1;
#X obj -101 -24 tgl 15 0 empty empty empty 17 7 0 10 -262144 -1 -1
1 1;
#N canvas 430 136 934 614 mouseControl 0;
#X obj 417 -42 gemmouse 1 1;
#X obj 417 40 expr ($f1*8)-4;
#X obj 486 20 s mouseRight;
#X obj 444 114 v x;
#X obj 482 113 v y;
#X obj 434 65 expr ($f1*-8)+4;
#X obj 417 162 s mousePos;
#X obj 417 136 pack f f;
#X obj 417 90 t f f;
#X obj 455 91 t f f;
#X obj 451 0 s mouseLeft;
#X obj 468 -21 s mouseMiddle;
#X obj 182 119 v x;
#X obj 453 238 sel 1;
#X obj 453 290 v x;
#X obj 480 290 v y;
#X obj 209 119 v y;
#X obj 182 17 r mouseLeft;
#X obj -127 443 list prepend 0;
#X obj 291 -50 gemkeyboard;
#X floatatom 291 -24 5 0 0 0 - - -;
#X obj 291 0 sel 49;
#X obj 291 25 s all-close;
#X obj -46 413 f;
#X obj -20 413 + 1;
#X msg -31 384 0;
#X obj 182 39 t f f f;
#X obj -127 470 s tocirc;
#X obj 343 475 circle;
#X obj 343 384 translateXYZ;
#X obj 358 407 loadbang;
#X msg 358 431 draw point;
#X obj 397 479 distance2D;
#X obj 453 320 pack f f;
#X obj 397 455 r mousePos;
#X obj 453 262 t b b b;
#X msg 509 290 0;
#X obj 496 481 curve 2;
#X obj 535 425 list append 0;
#X obj 515 451 list append 0;
#X obj 666 311 r mousePos;
#X obj 666 342 unpack f f;
#X obj 631 445 rotateXYZ;
#X obj 631 370 gemhead 30;
#X obj 664 85 k_angle;
#X floatatom 664 180 5 0 0 0 x-z - -;
#X floatatom 534 226 5 0 0 0 x-y - -;
#X floatatom 682 424 5 0 0 0 - - -;
#X obj 631 400 translateXYZ 0 0 0;
#X obj 664 206 < 0;
#X obj 664 232 sel 1 0;
#X msg 664 255 1;
#X msg 683 275 -1;
#X obj 534 262 expr (90-$f1)*$f2;
#X obj 631 478 triangle 0.12;
#X obj 343 353 gemhead 30;
#X obj 496 359 gemhead 30;
#X obj 220 447 gemhead 30;
#X obj 220 472 translateXYZ 0 0 0;
#X obj 255 422 unpack f f;
#X obj 220 494 circle 0.05;
#X obj 182 67 sel 1 0;
#X obj -127 405 pack f f f;
#X obj 182 91 t b b;
#X obj -139 210 v x;
#X obj -112 210 v y;
#X obj -139 234 pack f f;
#X obj -139 264 distance2D;
#X obj -82 233 pack f f;
#X obj -139 182 t b b b;
#X obj 8 413 % 8;
#X obj 4 157 gate 2;
#X obj 4 54 gemkeyboard;
#X floatatom 4 73 5 0 0 0 - - -;
#X obj 4 100 sel 18 19;
#X msg 4 122 1;
#X msg 35 122 2;
#X obj 49 448 list prepend 0;
#X obj 130 396 f;
#X obj 156 396 + 1;
#X msg 145 367 0;
#X obj 49 475 s tocirc;
#X obj 49 410 pack f f f;
#X obj 37 215 v x;
#X obj 64 215 v y;
#X obj 37 239 pack f f;
#X obj 37 269 distance2D;
#X obj 94 238 pack f f;
#X obj 37 187 t b b b;
#X obj 184 396 % 8;
#X obj 130 421 + 8;
#X floatatom -32 448 5 0 0 0 - - -;
#X obj -32 497 s tganum-1;
#X obj 103 500 s tganum-2;
#X obj 398 504 split 0.01 0.95;
#X msg 478 526 0.951;
#X obj -139 296 split 0.01 0.95;
#X obj 37 301 split 0.01 0.95;
#X msg 118 323 0.951;
#X msg -58 318 0.951;
#X connect 0 0 1 0;
#X connect 0 1 5 0;
#X connect 0 2 10 0;
#X connect 0 3 11 0;
#X connect 0 4 2 0;
#X connect 1 0 8 0;
#X connect 5 0 9 0;
#X connect 7 0 6 0;
#X connect 8 0 7 0;
#X connect 8 1 3 0;
#X connect 9 0 7 1;
#X connect 9 1 4 0;
#X connect 12 0 62 1;
#X connect 12 0 68 0;
#X connect 12 0 82 1;
#X connect 12 0 87 0;
#X connect 13 0 35 0;
#X connect 14 0 29 1;
#X connect 14 0 33 0;
#X connect 15 0 29 2;
#X connect 15 0 33 1;
#X connect 16 0 62 2;
#X connect 16 0 68 1;
#X connect 16 0 82 2;
#X connect 16 0 87 1;
#X connect 17 0 26 0;
#X connect 18 0 27 0;
#X connect 19 0 20 0;
#X connect 20 0 21 0;
#X connect 21 0 22 0;
#X connect 21 0 25 0;
#X connect 21 0 80 0;
#X connect 23 0 24 0;
#X connect 23 0 18 1;
#X connect 23 0 91 0;
#X connect 24 0 70 0;
#X connect 25 0 23 1;
#X connect 26 0 61 0;
#X connect 26 1 13 0;
#X connect 26 2 43 0;
#X connect 26 2 55 0;
#X connect 26 2 56 0;
#X connect 26 2 59 0;
#X connect 26 2 57 0;
#X connect 29 0 28 0;
#X connect 30 0 31 0;
#X connect 31 0 28 0;
#X connect 31 0 37 0;
#X connect 32 0 94 0;
#X connect 33 0 32 1;
#X connect 33 0 38 0;
#X connect 33 0 59 0;
#X connect 34 0 32 0;
#X connect 34 0 39 0;
#X connect 35 0 14 0;
#X connect 35 1 15 0;
#X connect 35 2 36 0;
#X connect 36 0 28 1;
#X connect 38 0 37 2;
#X connect 38 0 44 1;
#X connect 39 0 37 1;
#X connect 39 0 44 0;
#X connect 40 0 41 0;
#X connect 41 0 48 1;
#X connect 41 1 48 2;
#X connect 42 0 54 0;
#X connect 43 0 48 0;
#X connect 44 0 45 0;
#X connect 44 1 46 0;
#X connect 45 0 49 0;
#X connect 46 0 53 0;
#X connect 47 0 42 3;
#X connect 48 0 42 0;
#X connect 49 0 50 0;
#X connect 50 0 51 0;
#X connect 50 1 52 0;
#X connect 51 0 53 1;
#X connect 52 0 53 1;
#X connect 53 0 47 0;
#X connect 55 0 29 0;
#X connect 56 0 37 0;
#X connect 57 0 58 0;
#X connect 58 0 60 0;
#X connect 59 0 58 1;
#X connect 59 1 58 2;
#X connect 61 0 63 0;
#X connect 61 1 71 1;
#X connect 62 0 18 0;
#X connect 63 0 12 0;
#X connect 63 1 16 0;
#X connect 64 0 66 0;
#X connect 65 0 66 1;
#X connect 66 0 67 0;
#X connect 67 0 96 0;
#X connect 68 0 67 1;
#X connect 69 0 64 0;
#X connect 69 1 65 0;
#X connect 69 2 23 0;
#X connect 70 0 23 1;
#X connect 71 0 69 0;
#X connect 71 1 88 0;
#X connect 72 0 73 0;
#X connect 73 0 74 0;
#X connect 74 0 75 0;
#X connect 74 1 76 0;
#X connect 75 0 71 0;
#X connect 76 0 71 0;
#X connect 77 0 81 0;
#X connect 78 0 79 0;
#X connect 78 0 90 0;
#X connect 79 0 89 0;
#X connect 80 0 78 1;
#X connect 82 0 77 0;
#X connect 83 0 85 0;
#X connect 84 0 85 1;
#X connect 85 0 86 0;
#X connect 86 0 97 0;
#X connect 87 0 86 1;
#X connect 88 0 83 0;
#X connect 88 1 84 0;
#X connect 88 2 78 0;
#X connect 89 0 78 1;
#X connect 90 0 77 1;
#X connect 90 0 93 0;
#X connect 91 0 92 0;
#X connect 94 0 28 1;
#X connect 94 1 95 0;
#X connect 95 0 28 1;
#X connect 96 0 62 0;
#X connect 96 1 99 0;
#X connect 97 0 82 0;
#X connect 97 1 98 0;
#X connect 98 0 82 0;
#X connect 99 0 62 0;
#X restore -82 102 pd mouseControl;
#X msg -82 46 reset \, FSAA 8 \, create \, 1;
#N canvas 797 228 447 474 background 0;
#X obj 97 31 t a a a;
#X obj 136 94 GEMglBegin;
#X obj 97 118 GEMglEnd;
#X obj 116 212 GEMglVertex3f -4 4 0;
#X obj 116 260 GEMglVertex3f 4 4 0;
#X obj 116 307 GEMglVertex3f 4 -4 0;
#X obj 116 355 GEMglVertex3f -4 -4 0;
#X obj 223 45 GLdefine GL_SMOOTH;
#X obj 223 23 loadbang;
#X obj 136 69 GEMglShadeModel;
#X obj 223 6 bng 15 250 50 0 empty empty empty 17 7 0 10 -262144 -1
-1;
#X obj 97 -15 GEMglPointSize 2;
#X obj 117 165 GEMglVertex3f 0 0 0;
#X obj 205 113 GLdefine GL_TRIANGLE_FAN;
#X obj 205 90 bng 15 250 50 0 empty empty empty 17 7 0 10 -262144 -1
-1;
#X obj 116 403 GEMglVertex3f -4 4 0;
#X obj 117 142 GEMglColor3f 0.47 0.8 0.22;
#X obj 116 189 GEMglColor3f 0 0.75 0.45;
#X obj 116 380 GEMglColor3f 0 0.75 0.45;
#X obj 116 332 GEMglColor3f 0 0.75 0.45;
#X obj 116 284 GEMglColor3f 0 0.75 0.45;
#X obj 116 237 GEMglColor3f 0 0.75 0.45;
#X obj 97 -39 gemhead 2;
#X obj 97 7 translateXYZ 0 0 -0.001;
#X connect 0 0 2 0;
#X connect 0 1 16 0;
#X connect 0 2 9 0;
#X connect 3 0 21 0;
#X connect 4 0 20 0;
#X connect 5 0 19 0;
#X connect 6 0 18 0;
#X connect 7 0 9 1;
#X connect 8 0 7 0;
#X connect 8 0 14 0;
#X connect 9 0 1 0;
#X connect 10 0 8 0;
#X connect 11 0 23 0;
#X connect 12 0 17 0;
#X connect 13 0 1 1;
#X connect 14 0 13 0;
#X connect 16 0 12 0;
#X connect 17 0 3 0;
#X connect 18 0 15 0;
#X connect 19 0 6 0;
#X connect 20 0 5 0;
#X connect 21 0 4 0;
#X connect 22 0 11 0;
#X connect 23 0 0 0;
#X restore -82 125 pd background;
#N canvas 402 303 653 395 tga-ball 0;
#X obj 56 71 translateXYZ;
#X obj -78 108 loadbang;
#X obj 56 46 GEMglPointSize 1;
#X obj 56 -82 r all-close;
#X msg 56 -58 0;
#X obj 16 -101 loadbang;
#X floatatom -57 -137 5 0 0 0 - - -;
#X obj 56 -10 gemhead 1000;
#X obj -57 -115 t f f f;
#X obj -57 -68 sel 0;
#X obj -57 -159 r tganum-1;
#X obj 56 -34 tgl 15 0 empty empty empty 17 7 0 10 -262144 -1 -1 0
1;
#X obj 91 -143 sel 1;
#X msg 91 -121 1;
#X obj 56 94 color 1 1 1;
#X obj 56 117 circle 0.1;
#X obj 56 170 circle 0.15;
#X obj 91 -167 >= 1;
#X obj -57 46 s;
#X msg -42 21 symbol tga-\$1;
#X msg -57 -43 0;
#X obj -57 -16 t b f;
#X obj -57 -92 pipe 120;
#N canvas 603 22 944 769 time 0;
#X obj 163 240 expr int($f1*100)/100;
#X obj 192 114 s;
#X msg 209 89 symbol tga-\$1;
#X obj 264 -168 * 2;
#X floatatom 165 -152 5 0 0 0 - - -;
#X floatatom 264 -123 5 0 0 0 - - -;
#X obj 189 -181 + 1;
#X obj 217 -181 % 2;
#X obj 165 -51 expr if($f1<=($f2) \, $f1 \, $f3-$f1);
#X obj 163 216 unpack f f;
#X obj 184 156 route 0;
#X obj 264 -295 inlet;
#X floatatom 165 -29 5 0 0 0 - - -;
#X obj 319 27 expr if($f1<=($f2) \, $f1 \, $f3-$f1);
#X floatatom 319 48 5 0 0 0 - - -;
#X obj 352 150 s;
#X msg 369 125 symbol tga-\$1;
#X obj 334 320 unpack f f;
#X obj 353 216 route 0;
#X obj 220 269 expr int($f1*100)/100;
#X obj 334 343 expr int($f1*100)/100;
#X floatatom 334 365 5 0 0 0 - - -;
#X obj 391 370 expr int($f1*100)/100;
#X floatatom 391 392 5 0 0 0 - - -;
#X obj 163 279 expr $f2-$f1;
#X obj 220 306 expr $f2-$f1;
#X floatatom 163 328 5 0 0 0 - - -;
#X floatatom 220 331 5 0 0 0 - - -;
#X obj -46 -152 inlet;
#X obj -144 44 unpack f f;
#X floatatom -144 67 5 0 0 0 - - -;
#X floatatom -68 68 5 0 0 0 - - -;
#X obj 97 -18 r nowpos;
#X obj -124 184 line;
#X obj -67 185 line;
#X obj 28 84 unpack f f;
#X floatatom 28 106 5 0 0 0 - - -;
#X floatatom 85 107 5 0 0 0 - - -;
#X msg 28 135 \$1 0;
#X msg 85 135 \$1 0;
#X obj 28 10 r nowpos;
#X obj 28 36 spigot;
#X obj -143 97 pack f f;
#X obj -68 98 pack f f;
#X obj 163 407 max;
#X floatatom -106 68 5 0 0 0 - - -;
#X floatatom -23 68 5 0 0 0 - - -;
#X obj -46 -45 metro 500;
#X obj -46 -69 tgl 15 0 empty empty empty 17 7 0 10 -262144 -1 -1 0
1;
#X floatatom 5 -70 5 0 0 0 - - -;
#X obj -124 213 outlet;
#X obj -67 214 outlet;
#X obj 61 -228 inlet;
#X obj 61 -175 tgl 15 0 empty empty empty 17 7 0 10 -262144 -1 -1 0
1;
#X obj 43 -112 sel 1;
#X msg 43 -89 100;
#X obj 165 -232 bng 15 250 50 0 empty empty empty 17 7 0 10 -262144
-1 -1;
#X obj 319 5 + 1;
#X obj -143 -28 route 0;
#X obj 165 -181 f 0;
#X msg 180 -251 0;
#X obj 6 -95 + 20;
#X obj 443 171 expr if($f3<$f4 \, max($f1 \, $f2) \, min($f1 \, $f2))
;
#X floatatom 443 195 5 0 0 0 - - -;
#X obj 264 -192 t f f f;
#X obj 264 -146 t f f f;
#X obj 165 -75 t f f f;
#X obj 97 20 t a a;
#X obj -143 -60 r nowpos;
#X obj 443 217 t f f;
#X obj 443 299 s;
#X msg 460 274 symbol tga-\$1;
#X obj 443 243 t b f;
#X obj 28 62 route 0;
#X obj 163 431 moses 1;
#X obj 352 88 t b f f;
#X obj 192 21 t b f f;
#X obj 319 70 t f f;
#X obj 165 -8 t f f;
#X obj 332 242 list;
#X obj 163 181 list;
#X obj -143 4 t a b b;
#X floatatom 202 452 5 0 0 0 - - -;
#X obj 165 -121 spigot;
#X obj 165 -101 t a b;
#X msg 210 -102 0;
#X obj 109 -168 t b b;
#X msg 135 -145 1;
#X obj 180 -276 r all-close;
#X obj 264 -255 v \$0-ttal;
#X obj 165 -212 t b b;
#X floatatom 264 -223 5 0 0 0 - - -;
#X obj -46 -104 change;
#X obj -196 216 r s1;
#X obj -8 239 s r1;
#X obj -201 238 t b f;
#X obj -194 396 *~ 0;
#X obj -198 443 dac~;
#X obj -151 269 perk-hihat /key;
#X obj 163 353 expr abs($f1*200);
#X obj 193 377 expr abs($f1*200);
#X connect 0 0 24 0;
#X connect 2 0 1 1;
#X connect 3 0 65 0;
#X connect 4 0 83 0;
#X connect 5 0 7 1;
#X connect 6 0 7 0;
#X connect 7 0 59 1;
#X connect 8 0 12 0;
#X connect 9 0 0 0;
#X connect 9 1 19 0;
#X connect 10 0 80 1;
#X connect 11 0 89 0;
#X connect 12 0 78 0;
#X connect 12 0 94 0;
#X connect 13 0 14 0;
#X connect 14 0 77 0;
#X connect 16 0 15 1;
#X connect 17 0 20 0;
#X connect 17 1 22 0;
#X connect 18 0 79 1;
#X connect 19 0 25 0;
#X connect 20 0 21 0;
#X connect 21 0 24 1;
#X connect 22 0 23 0;
#X connect 23 0 25 1;
#X connect 24 0 26 0;
#X connect 25 0 27 0;
#X connect 26 0 99 0;
#X connect 27 0 100 0;
#X connect 28 0 92 0;
#X connect 29 0 30 0;
#X connect 29 1 31 0;
#X connect 30 0 42 0;
#X connect 31 0 43 0;
#X connect 32 0 67 0;
#X connect 33 0 50 0;
#X connect 34 0 51 0;
#X connect 35 0 36 0;
#X connect 35 1 37 0;
#X connect 36 0 38 0;
#X connect 37 0 39 0;
#X connect 38 0 33 0;
#X connect 39 0 34 0;
#X connect 40 0 41 0;
#X connect 41 0 73 0;
#X connect 42 0 33 0;
#X connect 43 0 34 0;
#X connect 44 0 74 0;
#X connect 45 0 42 1;
#X connect 46 0 43 1;
#X connect 47 0 86 0;
#X connect 48 0 47 0;
#X connect 49 0 47 1;
#X connect 52 0 53 0;
#X connect 53 0 41 1;
#X connect 53 0 54 0;
#X connect 54 0 55 0;
#X connect 55 0 49 0;
#X connect 56 0 90 0;
#X connect 57 0 13 0;
#X connect 58 0 81 0;
#X connect 59 0 6 0;
#X connect 59 0 4 0;
#X connect 60 0 59 1;
#X connect 60 0 48 0;
#X connect 61 0 49 0;
#X connect 62 0 63 0;
#X connect 63 0 69 0;
#X connect 64 0 3 0;
#X connect 64 1 8 1;
#X connect 64 1 13 1;
#X connect 64 2 62 3;
#X connect 65 0 5 0;
#X connect 65 1 8 2;
#X connect 65 2 13 2;
#X connect 66 0 8 0;
#X connect 66 1 57 0;
#X connect 66 2 62 2;
#X connect 67 0 10 0;
#X connect 67 1 18 0;
#X connect 68 0 58 0;
#X connect 69 0 72 0;
#X connect 69 1 58 1;
#X connect 71 0 70 1;
#X connect 72 0 70 0;
#X connect 72 1 71 0;
#X connect 73 0 35 0;
#X connect 74 1 82 0;
#X connect 75 0 15 0;
#X connect 75 1 16 0;
#X connect 75 2 18 1;
#X connect 76 0 1 0;
#X connect 76 1 2 0;
#X connect 76 2 10 1;
#X connect 77 0 62 1;
#X connect 77 1 75 0;
#X connect 78 0 62 0;
#X connect 78 1 76 0;
#X connect 79 0 17 0;
#X connect 80 0 9 0;
#X connect 81 0 29 0;
#X connect 81 1 80 0;
#X connect 81 2 79 0;
#X connect 82 0 61 0;
#X connect 82 0 45 0;
#X connect 82 0 46 0;
#X connect 83 0 84 0;
#X connect 84 0 66 0;
#X connect 84 1 85 0;
#X connect 85 0 83 1;
#X connect 86 0 56 0;
#X connect 86 1 87 0;
#X connect 87 0 83 1;
#X connect 88 0 60 0;
#X connect 89 0 91 0;
#X connect 90 0 59 0;
#X connect 90 1 89 0;
#X connect 91 0 64 0;
#X connect 92 0 48 0;
#X connect 93 0 95 0;
#X connect 95 0 98 0;
#X connect 95 1 96 1;
#X connect 96 0 97 0;
#X connect 96 0 97 1;
#X connect 98 0 96 0;
#X connect 99 0 44 0;
#X connect 100 0 44 1;
#X restore 150 -1 pd time;
#X obj 169 -31 invert;
#X obj 150 -52 pipe 120;
#X obj 150 -28 tgl 15 0 empty empty empty 17 7 0 10 -262144 -1 -1 0
1;
#X obj 359 89 translateXYZ;
#X obj 229 123 loadbang;
#X obj 359 64 GEMglPointSize 1;
#X obj 359 -64 r all-close;
#X msg 359 -40 0;
#X obj 319 -83 loadbang;
#X floatatom 246 -119 5 0 0 0 - - -;
#X obj 359 8 gemhead 1000;
#X obj 246 -97 t f f f;
#X obj 359 -16 tgl 15 0 empty empty empty 17 7 0 10 -262144 -1 -1 0
1;
#X obj 394 -125 sel 1;
#X msg 394 -103 1;
#X obj 359 112 color 1 1 1;
#X obj 359 135 circle 0.1;
#X obj 359 188 circle 0.15;
#X obj 246 64 s;
#X msg 261 39 symbol tga-\$1;
#X obj 246 2 t b f;
#X obj 246 -74 pipe 120;
#N canvas 586 25 944 769 time 0;
#X obj 163 240 expr int($f1*100)/100;
#X obj 192 114 s;
#X msg 209 89 symbol tga-\$1;
#X obj 264 -168 * 2;
#X floatatom 165 -152 5 0 0 0 - - -;
#X obj 189 -181 + 1;
#X obj 217 -181 % 2;
#X obj 163 216 unpack f f;
#X obj 184 156 route 0;
#X obj 264 -327 inlet;
#X floatatom 165 -8 5 0 0 0 - - -;
#X obj 319 27 expr if($f1<=($f2) \, $f1 \, $f3-$f1);
#X floatatom 319 48 5 0 0 0 - - -;
#X obj 352 150 s;
#X msg 369 125 symbol tga-\$1;
#X obj 334 320 unpack f f;
#X obj 353 216 route 0;
#X obj 220 269 expr int($f1*100)/100;
#X obj 334 343 expr int($f1*100)/100;
#X floatatom 334 365 5 0 0 0 - - -;
#X obj 391 370 expr int($f1*100)/100;
#X floatatom 391 392 5 0 0 0 - - -;
#X obj 163 279 expr $f2-$f1;
#X obj 220 306 expr $f2-$f1;
#X floatatom 163 328 5 0 0 0 - - -;
#X floatatom 220 331 5 0 0 0 - - -;
#X obj -46 -152 inlet;
#X obj -144 44 unpack f f;
#X floatatom -144 67 5 0 0 0 - - -;
#X floatatom -68 68 5 0 0 0 - - -;
#X obj 97 -18 r nowpos;
#X obj -124 184 line;
#X obj -67 185 line;
#X obj 28 84 unpack f f;
#X floatatom 28 106 5 0 0 0 - - -;
#X floatatom 85 107 5 0 0 0 - - -;
#X msg 28 135 \$1 0;
#X msg 85 135 \$1 0;
#X obj 28 10 r nowpos;
#X obj 28 36 spigot;
#X obj -143 97 pack f f;
#X obj -68 98 pack f f;
#X obj 163 407 max;
#X floatatom -106 68 5 0 0 0 - - -;
#X floatatom -23 68 5 0 0 0 - - -;
#X obj -46 -45 metro 500;
#X obj -46 -69 tgl 15 0 empty empty empty 17 7 0 10 -262144 -1 -1 0
1;
#X floatatom 5 -70 5 0 0 0 - - -;
#X obj -124 213 outlet;
#X obj -67 214 outlet;
#X obj 61 -228 inlet;
#X obj 61 -175 tgl 15 0 empty empty empty 17 7 0 10 -262144 -1 -1 0
1;
#X obj 43 -112 sel 1;
#X msg 43 -89 100;
#X obj 165 -232 bng 15 250 50 0 empty empty empty 17 7 0 10 -262144
-1 -1;
#X obj 319 5 + 1;
#X obj -143 -28 route 0;
#X obj 165 -181 f 0;
#X msg 180 -251 0;
#X obj 6 -95 + 20;
#X obj 443 171 expr if($f3<$f4 \, max($f1 \, $f2) \, min($f1 \, $f2))
;
#X floatatom 443 195 5 0 0 0 - - -;
#X obj 165 -54 t f f f;
#X obj 97 20 t a a;
#X obj -143 -60 r nowpos;
#X obj 443 217 t f f;
#X obj 443 299 s;
#X msg 460 274 symbol tga-\$1;
#X obj 443 243 t b f;
#X obj 163 431 moses 1;
#X obj 352 88 t b f f;
#X obj 192 48 t b f f;
#X obj 319 70 t f f;
#X obj 332 242 list;
#X obj 163 181 list;
#X obj -143 4 t a b b;
#X floatatom 202 452 5 0 0 0 - - -;
#X obj 165 -121 spigot;
#X obj 165 -101 t a b;
#X msg 210 -102 0;
#X obj 109 -168 t b b;
#X msg 135 -145 1;
#X obj 180 -276 r all-close;
#X obj 165 -212 t b b;
#X floatatom 264 -269 5 0 0 0 - - -;
#X obj -46 -104 change;
#X obj 264 -291 v \$0-tal;
#X obj 165 -30 expr if($f1<=($f2) \, $f1 \, $f3-$f1);
#X obj 165 -77 + 8;
#X obj 264 -217 - 8;
#X obj 28 62 route 8;
#X obj 264 -240 t f f;
#X obj 296 -167 * 2;
#X obj 296 -199 t f f;
#X obj 165 19 t f f f;
#X obj 1 266 s r2;
#X obj -191 273 perk-bassdrum /key;
#X obj -191 248 t b f;
#X obj -184 406 *~ 0;
#X obj -184 432 dac~;
#X obj -186 227 r s2;
#X obj 163 353 expr abs($f1*200);
#X obj 193 378 expr abs($f1*200);
#X connect 0 0 22 0;
#X connect 2 0 1 1;
#X connect 3 0 6 1;
#X connect 4 0 77 0;
#X connect 5 0 6 0;
#X connect 6 0 57 1;
#X connect 7 0 0 0;
#X connect 7 1 17 0;
#X connect 8 0 74 1;
#X connect 9 0 86 0;
#X connect 10 0 94 0;
#X connect 11 0 12 0;
#X connect 12 0 72 0;
#X connect 14 0 13 1;
#X connect 15 0 18 0;
#X connect 15 1 20 0;
#X connect 16 0 73 1;
#X connect 17 0 23 0;
#X connect 18 0 19 0;
#X connect 19 0 22 1;
#X connect 20 0 21 0;
#X connect 21 0 23 1;
#X connect 22 0 24 0;
#X connect 23 0 25 0;
#X connect 24 0 101 0;
#X connect 25 0 102 0;
#X connect 26 0 85 0;
#X connect 27 0 28 0;
#X connect 27 1 29 0;
#X connect 28 0 40 0;
#X connect 29 0 41 0;
#X connect 30 0 63 0;
#X connect 31 0 48 0;
#X connect 32 0 49 0;
#X connect 33 0 34 0;
#X connect 33 1 35 0;
#X connect 34 0 36 0;
#X connect 35 0 37 0;
#X connect 36 0 31 0;
#X connect 37 0 32 0;
#X connect 38 0 39 0;
#X connect 39 0 90 0;
#X connect 40 0 31 0;
#X connect 41 0 32 0;
#X connect 42 0 69 0;
#X connect 43 0 40 1;
#X connect 44 0 41 1;
#X connect 45 0 80 0;
#X connect 46 0 45 0;
#X connect 47 0 45 1;
#X connect 50 0 51 0;
#X connect 51 0 39 1;
#X connect 51 0 52 0;
#X connect 52 0 53 0;
#X connect 53 0 47 0;
#X connect 54 0 83 0;
#X connect 55 0 11 0;
#X connect 56 0 75 0;
#X connect 57 0 5 0;
#X connect 57 0 4 0;
#X connect 58 0 57 1;
#X connect 58 0 46 0;
#X connect 59 0 47 0;
#X connect 60 0 61 0;
#X connect 61 0 65 0;
#X connect 62 0 87 0;
#X connect 62 1 55 0;
#X connect 62 2 60 2;
#X connect 63 0 8 0;
#X connect 63 1 16 0;
#X connect 64 0 56 0;
#X connect 65 0 68 0;
#X connect 65 1 56 1;
#X connect 67 0 66 1;
#X connect 68 0 66 0;
#X connect 68 1 67 0;
#X connect 69 1 76 0;
#X connect 70 0 13 0;
#X connect 70 1 14 0;
#X connect 70 2 16 1;
#X connect 71 0 1 0;
#X connect 71 1 2 0;
#X connect 71 2 8 1;
#X connect 72 0 60 1;
#X connect 72 1 70 0;
#X connect 73 0 15 0;
#X connect 74 0 7 0;
#X connect 75 0 27 0;
#X connect 75 1 74 0;
#X connect 75 2 73 0;
#X connect 76 0 59 0;
#X connect 76 0 43 0;
#X connect 76 0 44 0;
#X connect 77 0 78 0;
#X connect 78 0 88 0;
#X connect 78 1 79 0;
#X connect 79 0 77 1;
#X connect 80 0 54 0;
#X connect 80 1 81 0;
#X connect 81 0 77 1;
#X connect 82 0 58 0;
#X connect 83 0 57 0;
#X connect 83 1 86 0;
#X connect 84 0 91 0;
#X connect 85 0 46 0;
#X connect 86 0 84 0;
#X connect 87 0 10 0;
#X connect 88 0 62 0;
#X connect 89 0 3 0;
#X connect 90 0 33 0;
#X connect 91 0 89 0;
#X connect 91 1 93 0;
#X connect 92 0 87 2;
#X connect 92 0 11 2;
#X connect 93 0 92 0;
#X connect 93 1 60 3;
#X connect 93 1 87 1;
#X connect 93 1 11 1;
#X connect 94 0 60 0;
#X connect 94 1 71 0;
#X connect 94 2 95 0;
#X connect 96 0 98 0;
#X connect 97 0 96 0;
#X connect 97 1 98 1;
#X connect 98 0 99 0;
#X connect 98 0 99 1;
#X connect 100 0 97 0;
#X connect 101 0 42 0;
#X connect 102 0 42 1;
#X restore 453 17 pd time;
#X obj 472 -13 invert;
#X obj 453 -34 pipe 120;
#X obj 453 -10 tgl 15 0 empty empty empty 17 7 0 10 -262144 -1 -1 0
1;
#X obj 246 -141 r tganum-2;
#X obj 246 -50 sel 8;
#X msg 246 -25 8;
#X obj 394 -149 >= 9;
#X msg -78 132 draw line;
#X msg 229 147 draw line;
#X obj 56 142 color 1 1 1;
#X obj 359 161 color 1 1 1;
#X connect 0 0 14 0;
#X connect 1 0 54 0;
#X connect 2 0 0 0;
#X connect 3 0 4 0;
#X connect 4 0 11 0;
#X connect 4 0 26 0;
#X connect 5 0 4 0;
#X connect 6 0 8 0;
#X connect 7 0 2 0;
#X connect 8 0 22 0;
#X connect 8 1 23 2;
#X connect 8 2 17 0;
#X connect 9 0 20 0;
#X connect 10 0 6 0;
#X connect 11 0 7 0;
#X connect 12 0 13 0;
#X connect 13 0 11 0;
#X connect 14 0 15 0;
#X connect 15 0 56 0;
#X connect 17 0 12 0;
#X connect 17 0 24 0;
#X connect 17 0 25 0;
#X connect 19 0 18 1;
#X connect 20 0 21 0;
#X connect 21 0 18 0;
#X connect 21 1 19 0;
#X connect 22 0 9 0;
#X connect 23 0 0 1;
#X connect 23 1 0 2;
#X connect 24 0 23 1;
#X connect 25 0 26 0;
#X connect 26 0 23 0;
#X connect 27 0 39 0;
#X connect 28 0 55 0;
#X connect 29 0 27 0;
#X connect 30 0 31 0;
#X connect 31 0 36 0;
#X connect 31 0 49 0;
#X connect 32 0 31 0;
#X connect 33 0 35 0;
#X connect 34 0 29 0;
#X connect 35 0 45 0;
#X connect 35 1 46 2;
#X connect 35 2 53 0;
#X connect 36 0 34 0;
#X connect 37 0 38 0;
#X connect 38 0 36 0;
#X connect 39 0 40 0;
#X connect 40 0 57 0;
#X connect 43 0 42 1;
#X connect 44 0 42 0;
#X connect 44 1 43 0;
#X connect 45 0 51 0;
#X connect 46 0 27 1;
#X connect 46 1 27 2;
#X connect 47 0 46 1;
#X connect 48 0 49 0;
#X connect 49 0 46 0;
#X connect 50 0 33 0;
#X connect 51 0 52 0;
#X connect 52 0 44 0;
#X connect 53 0 37 0;
#X connect 53 0 47 0;
#X connect 53 0 48 0;
#X connect 54 0 16 0;
#X connect 55 0 41 0;
#X connect 56 0 16 0;
#X connect 57 0 41 0;
#X restore 14 127 pd tga-ball;
#X obj -83 157 runcircle 0;
#X obj 34 -15 loadbang;
#X msg 34 5 \; pd dsp 1;
#X obj -83 180 runcircle 1;
#X obj -5 158 runcircle 8;
#X obj -83 202 runcircle 2;
#X obj -83 225 runcircle 3;
#X obj -83 247 runcircle 4;
#X obj -83 270 runcircle 5;
#X obj -83 293 runcircle 6;
#X obj -83 315 runcircle 7;
#X obj -5 180 runcircle 9;
#X obj -5 203 runcircle 10;
#X obj -5 226 runcircle 11;
#X obj -5 248 runcircle 12;
#X obj -5 271 runcircle 13;
#X obj -5 293 runcircle 14;
#X obj -5 316 runcircle 15;
#X obj -47 -5 loadbang;
#X obj -35 78 declare -path /Users/aluan/AVLab/av10;
#X connect 1 0 0 0;
#X connect 2 0 1 0;
#X connect 2 1 5 0;
#X connect 3 0 2 0;
#X connect 5 0 0 0;
#X connect 8 0 11 0;
#X connect 9 0 10 0;
#X connect 11 0 13 0;
#X connect 12 0 19 0;
#X connect 13 0 14 0;
#X connect 14 0 15 0;
#X connect 15 0 16 0;
#X connect 16 0 17 0;
#X connect 17 0 18 0;
#X connect 19 0 20 0;
#X connect 20 0 21 0;
#X connect 21 0 22 0;
#X connect 22 0 23 0;
#X connect 23 0 24 0;
#X connect 24 0 25 0;
#X connect 26 0 3 0;
