#N canvas 645 54 719 663 10;
#X obj 216 -32 r tocirc;
#X obj 216 58 unpack f f f;
#X obj 55 212 translateXYZ;
#X obj 34 81 r all-close;
#X obj 216 29 t a b;
#X msg 113 85 1;
#X obj 216 -1 route \$1;
#X obj 55 325 color 1 1 1;
#X obj -67 270 loadbang;
#X obj 55 355 circle 1;
#X obj 55 298 circle 1;
#X obj 55 270 scale;
#X msg -67 295 draw line \, width 2;
#X obj 284 451 v \$0-x;
#X obj 329 452 v \$0-y;
#X obj 113 116 tgl 15 0 empty empty empty 17 7 0 10 -262144 -1 -1 1
1;
#X obj 424 337 pack f f 0;
#X obj 405 141 tgl 15 0 empty empty empty 17 7 0 10 -262144 -1 -1 1
1;
#X obj 438 109 loadbang;
#X obj 438 134 f \$1;
#X obj 405 213 spigot;
#X msg 405 112 1;
#X obj -12 118 t b f;
#X obj -12 165 line;
#X obj -12 219 *;
#X obj -12 185 inbounce;
#X msg -12 140 0 \, 1 300;
#N canvas 218 495 450 300 color 0;
#X obj 62 48 inlet;
#X obj 55 261 outlet;
#X obj 165 132 sel 0 1;
#X msg 186 160 1 0.56 0;
#X obj 166 56 loadbang;
#X obj 166 81 f \$1;
#X msg 162 187 0.96 0.95 0;
#X obj 57 163 color 1 1 1;
#X obj 166 108 >= 8;
#X obj 281 63 inlet;
#X obj 281 89 t b b;
#X msg 307 112 0 0 0;
#X obj 279 146 del 100;
#X connect 0 0 7 0;
#X connect 2 0 6 0;
#X connect 2 1 3 0;
#X connect 3 0 7 1;
#X connect 4 0 5 0;
#X connect 5 0 8 0;
#X connect 6 0 7 1;
#X connect 7 0 1 0;
#X connect 8 0 2 0;
#X connect 9 0 10 0;
#X connect 10 0 12 0;
#X connect 10 1 11 0;
#X connect 11 0 7 1;
#X connect 12 0 5 0;
#X restore 55 239 pd color;
#X obj 438 188 expr if($f1==0 || $f1==8 \, 0 \, 1);
#X obj 148 328 list;
#X obj 148 199 r tga-\$1;
#X obj 148 383 s nowpos;
#X obj 55 181 gemhead 300;
#X obj 169 270 v \$0-x;
#X obj 214 271 v \$0-y;
#X obj 148 225 t b b b;
#X obj 169 300 pack f f;
#X obj 55 115 loadbang;
#X msg 55 138 0;
#X obj 263 536 outlet;
#X obj 507 312 inlet;
#X obj 263 510 list;
#X obj 263 410 t b b b;
#X obj 263 383 sel 1;
#X obj 405 381 curve 2;
#X obj 148 356 list prepend \$1;
#X obj 284 479 pack f f 0;
#X obj 405 166 pipe 100;
#X obj -46 453 route \$1;
#X obj -46 526 v \$0-ss;
#X obj -46 429 r r1;
#X obj -46 553 s s1;
#X obj 30 455 route \$1;
#X obj 30 431 r r2;
#X obj 30 555 s s2;
#X obj 30 528 v \$0-sss;
#X obj 405 249 gemhead 500;
#X obj 321 273 loadbang;
#X msg 321 298 draw point;
#X obj -83 81 translateXYZ;
#X obj -84 56 gemhead 500;
#X obj -84 230 circle 0.05;
#X connect 0 0 6 0;
#X connect 1 0 22 0;
#X connect 1 0 49 0;
#X connect 1 0 55 0;
#X connect 1 1 2 1;
#X connect 1 1 13 0;
#X connect 1 1 16 0;
#X connect 1 1 33 0;
#X connect 1 1 59 1;
#X connect 1 2 2 2;
#X connect 1 2 14 0;
#X connect 1 2 16 1;
#X connect 1 2 34 0;
#X connect 1 2 59 2;
#X connect 2 0 27 0;
#X connect 3 0 38 0;
#X connect 4 0 1 0;
#X connect 4 1 5 0;
#X connect 4 1 21 0;
#X connect 5 0 15 0;
#X connect 6 0 4 0;
#X connect 7 0 9 0;
#X connect 8 0 12 0;
#X connect 10 0 7 0;
#X connect 11 0 10 0;
#X connect 12 0 9 0;
#X connect 12 0 44 0;
#X connect 13 0 46 0;
#X connect 14 0 46 1;
#X connect 15 0 32 0;
#X connect 15 0 60 0;
#X connect 16 0 44 1;
#X connect 17 0 47 0;
#X connect 18 0 19 0;
#X connect 19 0 28 0;
#X connect 20 0 56 0;
#X connect 21 0 17 0;
#X connect 22 0 26 0;
#X connect 22 1 24 1;
#X connect 23 0 25 0;
#X connect 24 0 11 1;
#X connect 25 0 24 0;
#X connect 26 0 23 0;
#X connect 27 0 11 0;
#X connect 28 0 20 1;
#X connect 29 0 45 0;
#X connect 30 0 35 0;
#X connect 32 0 2 0;
#X connect 33 0 36 0;
#X connect 34 0 36 1;
#X connect 35 0 29 0;
#X connect 35 1 33 0;
#X connect 35 2 34 0;
#X connect 36 0 29 1;
#X connect 37 0 38 0;
#X connect 38 0 32 0;
#X connect 38 0 56 0;
#X connect 38 0 60 0;
#X connect 40 0 44 2;
#X connect 41 0 39 0;
#X connect 42 0 41 0;
#X connect 42 1 13 0;
#X connect 42 2 14 0;
#X connect 43 0 42 0;
#X connect 45 0 31 0;
#X connect 46 0 41 1;
#X connect 47 0 20 0;
#X connect 47 0 43 0;
#X connect 48 0 49 0;
#X connect 48 0 27 1;
#X connect 49 0 51 0;
#X connect 50 0 48 0;
#X connect 52 0 55 0;
#X connect 52 0 27 1;
#X connect 53 0 52 0;
#X connect 55 0 54 0;
#X connect 56 0 44 0;
#X connect 57 0 58 0;
#X connect 58 0 44 0;
#X connect 59 0 61 0;
#X connect 60 0 59 0;
