#N canvas 646 296 714 442 10;
#X declare -path /Users/aluan/AVLab/av13;
#X obj -1006 122 gemwin;
#X msg -1025 69 destroy;
#X obj -1025 42 sel 0 1;
#X obj -1025 21 tgl 15 0 empty empty empty 17 7 0 10 -262144 -1 -1
1 1;
#X obj -971 35 loadbang;
#X msg -971 55 \; pd dsp 1;
#N canvas 430 136 341 285 mouseControl 0;
#X obj 167 -16 gemmouse 1 1;
#X obj 167 66 expr ($f1*8)-4;
#X obj 236 46 s mouseRight;
#X obj 194 140 v x;
#X obj 232 139 v y;
#X obj 184 91 expr ($f1*-8)+4;
#X obj 167 188 s mousePos;
#X obj 167 162 pack f f;
#X obj 167 116 t f f;
#X obj 205 117 t f f;
#X obj 201 26 s mouseLeft;
#X obj 218 5 s mouseMiddle;
#X connect 0 0 1 0;
#X connect 0 1 5 0;
#X connect 0 2 10 0;
#X connect 0 3 11 0;
#X connect 0 4 2 0;
#X connect 1 0 8 0;
#X connect 5 0 9 0;
#X connect 7 0 6 0;
#X connect 8 0 7 0;
#X connect 8 1 3 0;
#X connect 9 0 7 1;
#X connect 9 1 4 0;
#X restore -962 122 pd mouseControl;
#X msg -1006 91 reset \, FSAA 8 \, color 1 0.89 0 \, create \, 1;
#X obj -641 100 tgl 15 0 empty empty empty 17 7 0 10 -262144 -1 -1
1 1;
#X obj -1026 200 sel 1;
#X obj -1026 351 dac~;
#X obj -1026 177 tgl 15 0 empty empty empty 17 7 0 10 -262144 -1 -1
0 1;
#X obj -1026 148 r beat-0;
#X obj -838 211 sel 1;
#X obj -838 383 dac~;
#X obj -838 188 tgl 15 0 empty empty empty 17 7 0 10 -262144 -1 -1
0 1;
#X obj -838 159 r beat-1;
#X obj -838 234 perk-snare /key;
#N canvas 141 228 882 534 circle 0;
#X obj -481 54 gemhead;
#X obj -412 139 f;
#X obj -385 139 + 1;
#X obj -481 222 separator;
#X obj -481 283 translateXYZ;
#X obj -481 307 color 1 0.89 0;
#X obj -549 336 loadbang;
#X msg -549 358 draw line;
#X obj -481 359 color 0 0 0;
#X obj -412 211 t f f;
#X obj -385 261 expr sin($f1)* 1.2;
#X obj -358 139 % 24;
#X obj -481 142 repeat 24;
#X floatatom -336 112 5 0 0 0 - - -;
#X obj -481 332 circle 0.14;
#X obj -481 384 circle 0.14;
#X obj -269 385 sel 0 1;
#X msg -250 418 0.53 0.15 0.6;
#X msg -269 442 1 0.89 0;
#X floatatom -225 302 5 0 0 0 - - -;
#X obj -225 274 int;
#X obj -842 71 loadbang;
#X msg -842 93 draw line;
#X obj -787 243 color 0 0 0;
#X obj -787 268 circle 0.07;
#X obj -787 216 circle 0.07;
#X obj -755 300 translateXYZ;
#X obj -677 225 expr cos($f1)* 1.2;
#X obj -650 251 expr sin($f1)* 1.2;
#X obj -822 354 loadbang;
#X msg -822 376 draw line;
#X obj -754 377 color 0 0 0;
#X obj -754 402 circle 0.07;
#X obj -754 350 circle 0.07;
#X floatatom -663 141 5 0 0 0 - - -;
#X obj -787 139 gemhead 100;
#X obj -754 325 color 1 1 1;
#X obj -662 447 curve 2;
#X obj -662 398 gemhead 99;
#X obj -643 331 pack f f 0;
#X obj -662 423 color 0 0 0;
#X obj -643 352 t b a;
#X obj -663 119 f;
#X obj -636 119 + 1;
#X obj -609 119 % 24;
#X obj -663 71 tgl 15 0 empty empty empty 17 7 0 10 -262144 -1 -1 1
1;
#X obj -730 82 loadbang;
#X msg -729 101 0;
#X obj -412 164 t f f;
#X obj -481 167 t a b b;
#X obj -677 201 t f f;
#X obj -677 180 expr fmod(($f1/$f2)+0.25 \, 1.0)*2*3.1415926;
#X obj -412 188 expr (fmod(($f1/$f2)+0.25 \, 1.0))*2*3.1415926;
#X obj -412 235 expr cos($f1)* 1.2;
#X obj -581 296 line;
#X obj -661 300 line;
#X obj -787 165 translateXYZ 0 -2 0;
#X msg -643 376 0 -2 0;
#X obj -481 81 translateXYZ 0 -2 0;
#X obj -372 308 k_euclide;
#X obj -372 390 s beat-1;
#X obj -372 285 r check-1;
#X obj -610 202 s check-1;
#X obj -615 304 - 2;
#X msg -581 274 \$1 10;
#X msg -661 278 \$1 10;
#X obj -663 95 metro 125;
#X obj -582 45 sel 1;
#X msg -582 73 0;
#X obj -603 -4 inlet;
#X obj -603 18 t f f;
#X obj -336 91 f;
#X obj -336 60 inlet;
#X obj -224 244 inlet;
#X obj -787 191 color 1 1 1;
#X connect 0 0 58 0;
#X connect 1 0 2 0;
#X connect 1 0 48 0;
#X connect 2 0 11 0;
#X connect 3 0 4 0;
#X connect 4 0 5 0;
#X connect 5 0 14 0;
#X connect 6 0 7 0;
#X connect 7 0 15 0;
#X connect 8 0 15 0;
#X connect 9 0 53 0;
#X connect 9 1 10 0;
#X connect 10 0 4 2;
#X connect 11 0 1 1;
#X connect 12 0 49 0;
#X connect 13 0 12 1;
#X connect 13 0 11 1;
#X connect 13 0 51 1;
#X connect 13 0 52 1;
#X connect 13 0 59 2;
#X connect 14 0 8 0;
#X connect 16 0 18 0;
#X connect 16 1 17 0;
#X connect 17 0 5 1;
#X connect 18 0 5 1;
#X connect 19 0 59 3;
#X connect 20 0 19 0;
#X connect 21 0 22 0;
#X connect 22 0 24 0;
#X connect 23 0 24 0;
#X connect 24 0 26 0;
#X connect 25 0 23 0;
#X connect 26 0 36 0;
#X connect 27 0 65 0;
#X connect 28 0 64 0;
#X connect 29 0 30 0;
#X connect 30 0 32 0;
#X connect 31 0 32 0;
#X connect 33 0 31 0;
#X connect 34 0 51 0;
#X connect 34 0 62 0;
#X connect 35 0 56 0;
#X connect 36 0 33 0;
#X connect 38 0 40 0;
#X connect 39 0 41 0;
#X connect 40 0 37 0;
#X connect 41 0 57 0;
#X connect 41 1 37 2;
#X connect 42 0 43 0;
#X connect 42 0 34 0;
#X connect 43 0 44 0;
#X connect 44 0 42 1;
#X connect 45 0 66 0;
#X connect 46 0 47 0;
#X connect 47 0 34 0;
#X connect 48 0 52 0;
#X connect 48 1 59 1;
#X connect 49 0 3 0;
#X connect 49 1 1 0;
#X connect 50 0 27 0;
#X connect 50 1 28 0;
#X connect 51 0 50 0;
#X connect 52 0 9 0;
#X connect 53 0 4 1;
#X connect 54 0 26 2;
#X connect 54 0 63 0;
#X connect 55 0 39 0;
#X connect 55 0 26 1;
#X connect 56 0 74 0;
#X connect 57 0 37 1;
#X connect 58 0 12 0;
#X connect 59 0 60 0;
#X connect 59 1 16 0;
#X connect 61 0 59 0;
#X connect 63 0 39 1;
#X connect 64 0 54 0;
#X connect 65 0 55 0;
#X connect 66 0 42 0;
#X connect 67 0 68 0;
#X connect 68 0 42 1;
#X connect 69 0 70 0;
#X connect 70 0 45 0;
#X connect 70 1 67 0;
#X connect 71 0 13 0;
#X connect 71 0 44 1;
#X connect 72 0 71 0;
#X connect 73 0 20 0;
#X connect 74 0 25 0;
#X restore -641 321 pd circle 2;
#N canvas 488 170 835 507 circle 0;
#X obj -453 52 gemhead;
#X obj -384 137 f;
#X obj -357 137 + 1;
#X obj -453 220 separator;
#X obj -453 281 translateXYZ;
#X obj -453 79 translateXYZ 0 2 0;
#X obj -453 305 color 1 0.89 0;
#X obj -521 334 loadbang;
#X msg -521 356 draw line;
#X obj -453 357 color 0 0 0;
#X obj -384 209 t f f;
#X obj -357 259 expr sin($f1)* 1.2;
#X obj -330 137 % 24;
#X obj -453 140 repeat 24;
#X floatatom -308 110 5 0 0 0 - - -;
#X obj -453 330 circle 0.14;
#X obj -453 382 circle 0.14;
#X obj -241 383 sel 0 1;
#X msg -222 416 0.53 0.15 0.6;
#X msg -241 440 1 0.89 0;
#X floatatom -197 300 5 0 0 0 - - -;
#X obj -197 272 int;
#X obj -759 163 translateXYZ 0 2 0;
#X obj -827 218 loadbang;
#X msg -827 240 draw line;
#X obj -759 241 color 0 0 0;
#X obj -759 266 circle 0.07;
#X obj -759 214 circle 0.07;
#X obj -727 298 translateXYZ;
#X obj -649 223 expr cos($f1)* 1.2;
#X obj -622 249 expr sin($f1)* 1.2;
#X obj -794 352 loadbang;
#X msg -794 374 draw line;
#X obj -726 375 color 0 0 0;
#X obj -726 400 circle 0.07;
#X obj -726 348 circle 0.07;
#X floatatom -635 139 5 0 0 0 - - -;
#X obj -759 137 gemhead 100;
#X obj -726 323 color 1 1 1;
#X obj -634 445 curve 2;
#X obj -634 396 gemhead 99;
#X obj -615 329 pack f f 0;
#X obj -634 421 color 0 0 0;
#X obj -615 350 t b a;
#X msg -615 374 0 2 0;
#X obj -587 303 + 2;
#X obj -635 117 f;
#X obj -608 117 + 1;
#X obj -581 117 % 24;
#X obj -702 80 loadbang;
#X msg -701 99 0;
#X obj -384 162 t f f;
#X obj -453 165 t a b b;
#X obj -344 306 k_euclide;
#X obj -582 200 s check-0;
#X obj -344 283 r check-0;
#X obj -344 388 s beat-0;
#X obj -649 199 t f f;
#X obj -649 178 expr fmod(($f1/$f2)+0.25 \, 1.0)*2*3.1415926;
#X obj -384 186 expr (fmod(($f1/$f2)+0.25 \, 1.0))*2*3.1415926;
#X obj -384 233 expr cos($f1)* 1.2;
#X obj -553 294 line;
#X obj -633 298 line;
#X obj -555 58 sel 1;
#X msg -555 86 0;
#X msg -553 272 \$1 10;
#X msg -633 276 \$1 10;
#X obj -634 92 metro 125;
#X obj -613 -14 inlet;
#X obj -613 8 t f f;
#X obj -197 243 inlet;
#X obj -308 46 inlet;
#X obj -308 71 f;
#X obj -759 188 color 1 1 1;
#X connect 0 0 5 0;
#X connect 1 0 2 0;
#X connect 1 0 51 0;
#X connect 2 0 12 0;
#X connect 3 0 4 0;
#X connect 4 0 6 0;
#X connect 5 0 13 0;
#X connect 6 0 15 0;
#X connect 7 0 8 0;
#X connect 8 0 16 0;
#X connect 9 0 16 0;
#X connect 10 0 60 0;
#X connect 10 1 11 0;
#X connect 11 0 4 2;
#X connect 12 0 1 1;
#X connect 13 0 52 0;
#X connect 14 0 13 1;
#X connect 14 0 12 1;
#X connect 14 0 53 2;
#X connect 14 0 58 1;
#X connect 14 0 59 1;
#X connect 15 0 9 0;
#X connect 17 0 19 0;
#X connect 17 1 18 0;
#X connect 18 0 6 1;
#X connect 19 0 6 1;
#X connect 20 0 53 3;
#X connect 21 0 20 0;
#X connect 22 0 73 0;
#X connect 23 0 24 0;
#X connect 24 0 26 0;
#X connect 25 0 26 0;
#X connect 26 0 28 0;
#X connect 27 0 25 0;
#X connect 28 0 38 0;
#X connect 29 0 66 0;
#X connect 30 0 65 0;
#X connect 31 0 32 0;
#X connect 32 0 34 0;
#X connect 33 0 34 0;
#X connect 35 0 33 0;
#X connect 36 0 54 0;
#X connect 36 0 58 0;
#X connect 37 0 22 0;
#X connect 38 0 35 0;
#X connect 40 0 42 0;
#X connect 41 0 43 0;
#X connect 42 0 39 0;
#X connect 43 0 44 0;
#X connect 43 1 39 2;
#X connect 44 0 39 1;
#X connect 45 0 41 1;
#X connect 46 0 47 0;
#X connect 46 0 36 0;
#X connect 47 0 48 0;
#X connect 48 0 46 1;
#X connect 49 0 50 0;
#X connect 50 0 36 0;
#X connect 51 0 59 0;
#X connect 51 1 53 1;
#X connect 52 0 3 0;
#X connect 52 1 1 0;
#X connect 53 0 56 0;
#X connect 53 1 17 0;
#X connect 55 0 53 0;
#X connect 57 0 29 0;
#X connect 57 1 30 0;
#X connect 58 0 57 0;
#X connect 59 0 10 0;
#X connect 60 0 4 1;
#X connect 61 0 45 0;
#X connect 61 0 28 2;
#X connect 62 0 41 0;
#X connect 62 0 28 1;
#X connect 63 0 64 0;
#X connect 64 0 46 1;
#X connect 65 0 61 0;
#X connect 66 0 62 0;
#X connect 67 0 46 0;
#X connect 68 0 69 0;
#X connect 69 0 67 0;
#X connect 69 1 63 0;
#X connect 70 0 21 0;
#X connect 71 0 72 0;
#X connect 72 0 14 0;
#X connect 72 0 48 1;
#X connect 73 0 27 0;
#X restore -614 149 pd circle 1;
#X obj -641 123 t f f;
#X obj -583 104 int;
#X floatatom -520 149 5 0 0 0 - - -;
#X floatatom -583 125 5 0 0 0 - - -;
#X obj -610 274 int;
#X floatatom -547 317 5 0 0 0 - - -;
#X floatatom -610 295 5 0 0 0 - - -;
#X obj -520 125 int;
#X obj -547 293 int;
#N canvas 269 169 930 575 control 0;
#X obj -717 128 color 0 0 0;
#X obj -717 153 circle 0.07;
#X obj -717 101 circle 0.07;
#X obj -717 24 gemhead 100;
#X obj -717 50 translateXYZ -2 3 0;
#X obj -782 106 loadbang;
#X msg -782 128 draw line;
#X obj -717 75 color 1 0.89 0;
#X obj -717 258 color 0 0 0;
#X obj -717 283 circle 0.07;
#X obj -717 231 circle 0.07;
#X obj -782 236 loadbang;
#X msg -782 258 draw line;
#X obj -717 205 color 1 0.89 0;
#X obj -717 177 translateXYZ 0 -2 0;
#X obj -475 131 color 0 0 0;
#X obj -475 156 circle 0.07;
#X obj -475 104 circle 0.07;
#X obj -540 109 loadbang;
#X msg -540 131 draw line;
#X obj -475 78 color 1 0.89 0;
#X obj -475 261 color 0 0 0;
#X obj -475 286 circle 0.07;
#X obj -475 234 circle 0.07;
#X obj -540 239 loadbang;
#X msg -540 261 draw line;
#X obj -475 208 color 1 0.89 0;
#X obj -475 180 translateXYZ 0 -2 0;
#X obj -475 53 translateXYZ 2 3 0;
#X obj -717 339 color 0 0 0;
#X obj -717 431 curve 2;
#X obj -642 323 loadbang;
#X obj -642 346 t b b;
#X msg -642 366 -2 3 0;
#X msg -615 401 -2 1 0;
#X obj -539 344 color 0 0 0;
#X obj -539 436 curve 2;
#X obj -464 328 loadbang;
#X obj -464 351 t b b;
#X msg -464 371 2 3 0;
#X msg -437 406 2 1 0;
#X obj -318 64 gemhead;
#X obj -318 134 square;
#X obj -287 27 r mousePos;
#X obj -225 123 tgl 15 0 empty empty empty 17 7 0 10 -262144 -1 -1
0 1;
#X obj -318 100 k_btn -2 2 0.2 1;
#X obj -258 145 spigot;
#X obj -248 53 unpack f f;
#X obj -206 166 r mouseLeft;
#X obj -225 166 tgl 15 0 empty empty empty 17 7 0 10 -262144 -1 -1
0 1;
#X obj -258 188 spigot;
#X obj -322 337 color 0 0 0;
#X obj -322 259 translateXYZ -2 3 0;
#X obj -387 314 loadbang;
#X msg -387 336 draw line;
#X obj -322 310 rectangle 0.2 0.05;
#X obj -322 362 rectangle 0.2 0.05;
#X obj -100 68 gemhead;
#X obj -100 138 square;
#X obj -69 31 r mousePos;
#X obj -7 127 tgl 15 0 empty empty empty 17 7 0 10 -262144 -1 -1 0
1;
#X obj -40 149 spigot;
#X obj -30 57 unpack f f;
#X obj 12 170 r mouseLeft;
#X obj -7 170 tgl 15 0 empty empty empty 17 7 0 10 -262144 -1 -1 0
1;
#X obj -40 192 spigot;
#X obj -104 341 color 0 0 0;
#X obj -169 318 loadbang;
#X msg -169 340 draw line;
#X obj -104 314 rectangle 0.2 0.05;
#X obj -104 366 rectangle 0.2 0.05;
#X obj -717 310 gemhead 80;
#X obj -539 315 gemhead 80;
#X obj -475 27 gemhead 100;
#X obj -100 104 k_btn 2 2 0.2 1;
#X obj -104 263 translateXYZ 2 3 0;
#X floatatom -213 215 5 0 0 0 - - -;
#X floatatom -204 442 5 0 0 0 - - -;
#X obj -204 391 split 1.001 2.999;
#X obj -204 418 k_range 1 3 1 25;
#X obj -204 465 outlet;
#X obj -282 407 loadbang;
#X msg -281 426 24;
#X floatatom 12 445 5 0 0 0 - - -;
#X obj 12 394 split 1.001 2.999;
#X obj 12 468 outlet;
#X obj -66 410 loadbang;
#X msg -65 429 0;
#X obj 12 421 k_range 1 3 0 1;
#X obj -322 284 color 1 1 1;
#X obj -104 288 color 1 1 1;
#X obj -322 233 gemhead 105;
#X obj -104 237 gemhead 105;
#X connect 0 0 1 0;
#X connect 1 0 14 0;
#X connect 2 0 0 0;
#X connect 3 0 4 0;
#X connect 4 0 7 0;
#X connect 5 0 6 0;
#X connect 6 0 1 0;
#X connect 7 0 2 0;
#X connect 8 0 9 0;
#X connect 10 0 8 0;
#X connect 11 0 12 0;
#X connect 12 0 9 0;
#X connect 13 0 10 0;
#X connect 14 0 13 0;
#X connect 15 0 16 0;
#X connect 16 0 27 0;
#X connect 17 0 15 0;
#X connect 18 0 19 0;
#X connect 19 0 16 0;
#X connect 20 0 17 0;
#X connect 21 0 22 0;
#X connect 23 0 21 0;
#X connect 24 0 25 0;
#X connect 25 0 22 0;
#X connect 26 0 23 0;
#X connect 27 0 26 0;
#X connect 28 0 20 0;
#X connect 29 0 30 0;
#X connect 31 0 32 0;
#X connect 32 0 33 0;
#X connect 32 1 34 0;
#X connect 33 0 30 1;
#X connect 34 0 30 2;
#X connect 35 0 36 0;
#X connect 37 0 38 0;
#X connect 38 0 39 0;
#X connect 38 1 40 0;
#X connect 39 0 36 1;
#X connect 40 0 36 2;
#X connect 41 0 45 0;
#X connect 43 0 45 1;
#X connect 43 0 47 0;
#X connect 44 0 46 1;
#X connect 45 1 44 0;
#X connect 46 0 50 0;
#X connect 47 1 46 0;
#X connect 48 0 49 0;
#X connect 49 0 50 1;
#X connect 50 0 52 2;
#X connect 50 0 76 0;
#X connect 51 0 56 0;
#X connect 52 0 89 0;
#X connect 53 0 54 0;
#X connect 54 0 56 0;
#X connect 55 0 51 0;
#X connect 57 0 74 0;
#X connect 59 0 62 0;
#X connect 59 0 74 1;
#X connect 60 0 61 1;
#X connect 61 0 65 0;
#X connect 62 1 61 0;
#X connect 63 0 64 0;
#X connect 64 0 65 1;
#X connect 65 0 75 2;
#X connect 65 0 84 0;
#X connect 66 0 70 0;
#X connect 67 0 68 0;
#X connect 68 0 70 0;
#X connect 69 0 66 0;
#X connect 71 0 29 0;
#X connect 72 0 35 0;
#X connect 73 0 28 0;
#X connect 74 1 60 0;
#X connect 75 0 90 0;
#X connect 76 0 78 0;
#X connect 77 0 80 0;
#X connect 78 0 79 0;
#X connect 79 0 77 0;
#X connect 81 0 82 0;
#X connect 82 0 77 0;
#X connect 83 0 85 0;
#X connect 84 0 88 0;
#X connect 86 0 87 0;
#X connect 87 0 83 0;
#X connect 88 0 83 0;
#X connect 89 0 55 0;
#X connect 90 0 69 0;
#X connect 91 0 52 0;
#X connect 92 0 75 0;
#X restore -583 39 pd control 1;
#N canvas 23 269 469 340 text 0;
#X obj -264 144 color 0 0 0;
#X obj -264 93 gemhead 95;
#X obj -265 189 text2d;
#X obj -264 120 translateXYZ -2 0.8 0;
#X obj -214 188 loadbang;
#X msg -214 211 10;
#X msg -181 154 text N-\$1;
#X obj -181 84 inlet;
#X connect 0 0 2 0;
#X connect 1 0 3 0;
#X connect 3 0 0 0;
#X connect 4 0 5 0;
#X connect 5 0 2 1;
#X connect 6 0 2 0;
#X connect 7 0 6 0;
#X restore -612 173 pd text 1;
#N canvas 23 269 469 340 text 0;
#X obj -264 144 color 0 0 0;
#X obj -264 93 gemhead 95;
#X obj -265 189 text2d;
#X obj -214 188 loadbang;
#X msg -214 211 10;
#X obj -181 84 inlet;
#X obj -264 120 translateXYZ 2 0.8 0;
#X msg -181 154 text K-\$1;
#X connect 0 0 2 0;
#X connect 1 0 6 0;
#X connect 3 0 4 0;
#X connect 4 0 2 1;
#X connect 5 0 7 0;
#X connect 6 0 0 0;
#X connect 7 0 2 0;
#X restore -548 173 pd text 1-1;
#X floatatom -520 65 5 0 0 0 - - -;
#X obj -520 100 k_range 0 1 0 24;
#X floatatom -425 72 5 0 0 0 - - -;
#X obj -464 30 t b b f;
#X obj -425 51 + 1;
#X msg -456 70 0;
#X floatatom -547 248 5 0 0 0 - - -;
#X obj -547 269 k_range 0 1 0 24;
#X floatatom -452 241 5 0 0 0 - - -;
#X obj -491 199 t b b f;
#X obj -452 220 + 1;
#X msg -483 239 0;
#N canvas 455 182 930 575 control 0;
#X obj -717 128 color 0 0 0;
#X obj -717 153 circle 0.07;
#X obj -717 101 circle 0.07;
#X obj -717 24 gemhead 100;
#X obj -782 106 loadbang;
#X msg -782 128 draw line;
#X obj -717 75 color 1 0.89 0;
#X obj -717 258 color 0 0 0;
#X obj -717 283 circle 0.07;
#X obj -717 231 circle 0.07;
#X obj -782 236 loadbang;
#X msg -782 258 draw line;
#X obj -717 205 color 1 0.89 0;
#X obj -475 131 color 0 0 0;
#X obj -475 156 circle 0.07;
#X obj -475 104 circle 0.07;
#X obj -540 109 loadbang;
#X msg -540 131 draw line;
#X obj -475 78 color 1 0.89 0;
#X obj -475 261 color 0 0 0;
#X obj -475 286 circle 0.07;
#X obj -475 234 circle 0.07;
#X obj -540 239 loadbang;
#X msg -540 261 draw line;
#X obj -475 208 color 1 0.89 0;
#X obj -717 339 color 0 0 0;
#X obj -717 431 curve 2;
#X obj -642 323 loadbang;
#X obj -642 346 t b b;
#X obj -539 344 color 0 0 0;
#X obj -539 436 curve 2;
#X obj -464 328 loadbang;
#X obj -464 351 t b b;
#X obj -318 64 gemhead;
#X obj -318 134 square;
#X obj -287 27 r mousePos;
#X obj -225 123 tgl 15 0 empty empty empty 17 7 0 10 -262144 -1 -1
0 1;
#X obj -258 145 spigot;
#X obj -248 53 unpack f f;
#X obj -206 166 r mouseLeft;
#X obj -225 166 tgl 15 0 empty empty empty 17 7 0 10 -262144 -1 -1
0 1;
#X obj -258 188 spigot;
#X obj -322 337 color 0 0 0;
#X obj -387 314 loadbang;
#X msg -387 336 draw line;
#X obj -322 310 rectangle 0.2 0.05;
#X obj -322 362 rectangle 0.2 0.05;
#X obj -100 68 gemhead;
#X obj -100 138 square;
#X obj -69 31 r mousePos;
#X obj -7 127 tgl 15 0 empty empty empty 17 7 0 10 -262144 -1 -1 0
1;
#X obj -40 149 spigot;
#X obj -30 57 unpack f f;
#X obj 12 170 r mouseLeft;
#X obj -7 170 tgl 15 0 empty empty empty 17 7 0 10 -262144 -1 -1 0
1;
#X obj -40 192 spigot;
#X obj -104 341 color 0 0 0;
#X obj -169 318 loadbang;
#X msg -169 340 draw line;
#X obj -104 314 rectangle 0.2 0.05;
#X obj -104 366 rectangle 0.2 0.05;
#X obj -717 310 gemhead 80;
#X obj -539 315 gemhead 80;
#X obj -475 27 gemhead 100;
#X floatatom -213 215 5 0 0 0 - - -;
#X floatatom -204 442 5 0 0 0 - - -;
#X obj -204 465 outlet;
#X obj -282 407 loadbang;
#X msg -281 426 24;
#X floatatom 12 445 5 0 0 0 - - -;
#X obj 12 468 outlet;
#X obj -66 410 loadbang;
#X msg -65 429 0;
#X obj -717 50 translateXYZ -2 -3 0;
#X obj -717 177 translateXYZ 0 2 0;
#X obj -475 53 translateXYZ 2 -3 0;
#X obj -475 180 translateXYZ 0 2 0;
#X msg -642 366 -2 -3 0;
#X msg -464 371 2 -3 0;
#X msg -437 406 2 -1 0;
#X msg -615 401 -2 -1 0;
#X obj -318 100 k_btn -2 -2 0.2 1;
#X obj -100 104 k_btn 2 -2 0.2 1;
#X obj -322 259 translateXYZ -2 -3 0;
#X obj -104 262 translateXYZ 2 -3 0;
#X obj -204 418 k_range -3 -1 1 25;
#X obj -188 376 moses -1;
#X obj 12 421 k_range -3 -1 0 1;
#X obj 42 367 moses -1;
#X obj -322 284 color 1 1 1;
#X obj -104 288 color 1 1 1;
#X obj -322 233 gemhead 105;
#X obj -104 237 gemhead 105;
#X connect 0 0 1 0;
#X connect 1 0 74 0;
#X connect 2 0 0 0;
#X connect 3 0 73 0;
#X connect 4 0 5 0;
#X connect 5 0 1 0;
#X connect 6 0 2 0;
#X connect 7 0 8 0;
#X connect 9 0 7 0;
#X connect 10 0 11 0;
#X connect 11 0 8 0;
#X connect 12 0 9 0;
#X connect 13 0 14 0;
#X connect 14 0 76 0;
#X connect 15 0 13 0;
#X connect 16 0 17 0;
#X connect 17 0 14 0;
#X connect 18 0 15 0;
#X connect 19 0 20 0;
#X connect 21 0 19 0;
#X connect 22 0 23 0;
#X connect 23 0 20 0;
#X connect 24 0 21 0;
#X connect 25 0 26 0;
#X connect 27 0 28 0;
#X connect 28 0 77 0;
#X connect 28 1 80 0;
#X connect 29 0 30 0;
#X connect 31 0 32 0;
#X connect 32 0 78 0;
#X connect 32 1 79 0;
#X connect 33 0 81 0;
#X connect 35 0 38 0;
#X connect 35 0 81 1;
#X connect 36 0 37 1;
#X connect 37 0 41 0;
#X connect 38 1 37 0;
#X connect 39 0 40 0;
#X connect 40 0 41 1;
#X connect 41 0 64 0;
#X connect 41 0 83 2;
#X connect 42 0 46 0;
#X connect 43 0 44 0;
#X connect 44 0 46 0;
#X connect 45 0 42 0;
#X connect 47 0 82 0;
#X connect 49 0 52 0;
#X connect 49 0 82 1;
#X connect 50 0 51 1;
#X connect 51 0 55 0;
#X connect 52 1 51 0;
#X connect 53 0 54 0;
#X connect 54 0 55 1;
#X connect 55 0 84 2;
#X connect 55 0 88 0;
#X connect 56 0 60 0;
#X connect 57 0 58 0;
#X connect 58 0 60 0;
#X connect 59 0 56 0;
#X connect 61 0 25 0;
#X connect 62 0 29 0;
#X connect 63 0 75 0;
#X connect 64 0 86 0;
#X connect 65 0 66 0;
#X connect 67 0 68 0;
#X connect 68 0 65 0;
#X connect 69 0 70 0;
#X connect 71 0 72 0;
#X connect 72 0 69 0;
#X connect 73 0 6 0;
#X connect 74 0 12 0;
#X connect 75 0 18 0;
#X connect 76 0 24 0;
#X connect 77 0 26 1;
#X connect 78 0 30 1;
#X connect 79 0 30 2;
#X connect 80 0 26 2;
#X connect 81 1 36 0;
#X connect 82 1 50 0;
#X connect 83 0 89 0;
#X connect 84 0 90 0;
#X connect 85 0 65 0;
#X connect 86 0 85 0;
#X connect 87 0 69 0;
#X connect 88 0 87 0;
#X connect 89 0 45 0;
#X connect 90 0 59 0;
#X connect 91 0 83 0;
#X connect 92 0 84 0;
#X restore -610 208 pd control 2;
#N canvas 465 334 290 289 text 0;
#X obj -264 144 color 0 0 0;
#X obj -264 93 gemhead 95;
#X obj -265 189 text2d;
#X obj -214 188 loadbang;
#X msg -214 211 10;
#X msg -181 154 text N-\$1;
#X obj -181 84 inlet;
#X obj -264 120 translateXYZ -2 -3.2 0;
#X connect 0 0 2 0;
#X connect 1 0 7 0;
#X connect 3 0 4 0;
#X connect 4 0 2 1;
#X connect 5 0 2 0;
#X connect 6 0 5 0;
#X connect 7 0 0 0;
#X restore -629 353 pd text 2;
#N canvas 574 359 469 340 text 0;
#X obj -264 144 color 0 0 0;
#X obj -264 93 gemhead 95;
#X obj -265 189 text2d;
#X obj -214 188 loadbang;
#X msg -214 211 10;
#X obj -181 84 inlet;
#X obj -264 120 translateXYZ 2 -3.2 0;
#X msg -181 154 text K-\$1;
#X connect 0 0 2 0;
#X connect 1 0 6 0;
#X connect 3 0 4 0;
#X connect 4 0 2 1;
#X connect 5 0 7 0;
#X connect 6 0 0 0;
#X connect 7 0 2 0;
#X restore -548 352 pd text 2-1;
#X obj -822 128 diy2;
#X obj -887 47 declare -path /Users/aluan/AVLab/av13;
#X obj -997 14 loadbang;
#X obj -1026 223 perk-hightom /key;
#X msg -963 194 0 0.7;
#X obj -963 169 loadbang;
#X msg -748 170 9 0.35;
#X obj -748 147 loadbang;
#X connect 1 0 0 0;
#X connect 2 0 1 0;
#X connect 2 1 7 0;
#X connect 3 0 2 0;
#X connect 3 0 8 0;
#X connect 4 0 5 0;
#X connect 7 0 0 0;
#X connect 8 0 20 0;
#X connect 9 0 50 0;
#X connect 11 0 9 0;
#X connect 12 0 11 0;
#X connect 13 0 17 0;
#X connect 15 0 13 0;
#X connect 16 0 15 0;
#X connect 17 0 14 0;
#X connect 17 0 14 1;
#X connect 20 0 18 0;
#X connect 20 1 19 0;
#X connect 21 0 23 0;
#X connect 22 0 19 2;
#X connect 22 0 31 0;
#X connect 23 0 19 1;
#X connect 23 0 30 0;
#X connect 23 0 35 0;
#X connect 24 0 26 0;
#X connect 25 0 18 2;
#X connect 25 0 46 0;
#X connect 26 0 18 1;
#X connect 26 0 41 0;
#X connect 26 0 45 0;
#X connect 27 0 22 0;
#X connect 28 0 25 0;
#X connect 29 0 21 0;
#X connect 29 1 32 0;
#X connect 32 0 33 0;
#X connect 33 0 27 0;
#X connect 34 0 33 4;
#X connect 35 0 32 0;
#X connect 35 1 37 0;
#X connect 35 2 36 0;
#X connect 36 0 34 0;
#X connect 37 0 33 3;
#X connect 38 0 39 0;
#X connect 39 0 28 0;
#X connect 40 0 39 4;
#X connect 41 0 38 0;
#X connect 41 1 43 0;
#X connect 41 2 42 0;
#X connect 42 0 40 0;
#X connect 43 0 39 3;
#X connect 44 0 24 0;
#X connect 44 1 38 0;
#X connect 49 0 3 0;
#X connect 50 0 10 0;
#X connect 50 0 10 1;
#X connect 51 0 50 1;
#X connect 52 0 51 0;
#X connect 53 0 17 1;
#X connect 54 0 53 0;
