#N canvas 633 92 649 693 10;
#X declare -lib iemmatrix;
#X floatatom 210 213 5 0 0 0 k - -;
#X floatatom 155 214 5 0 0 0 n - -;
#X obj 108 119 bng 15 250 50 0 empty empty empty 0 -7 0 10 -262144
-1 -1;
#X obj 299 488 / 2;
#X obj 254 525 >;
#X obj 254 554 == 0;
#X obj 162 411 t b b b;
#X text 265 568 non;
#X floatatom 120 422 5 0 0 0 m - -;
#X obj 120 398 -;
#N canvas 701 52 634 726 mettre 1;
#X obj 216 292 f;
#X obj 216 312 + 1;
#X obj 189 248 until;
#X obj 316 376 select 13;
#X obj 269 245 f;
#X obj 189 270 t b b;
#X obj 281 307 -;
#X obj 216 347 t f f f;
#X msg 312 544 element \$1 \$2;
#X obj 278 492 pack f f;
#X msg 278 704 element \$1 \$2 0;
#X obj 278 512 t a b a b;
#X msg 329 575 1;
#X msg 295 575 0;
#X obj 158 592 spigot;
#X obj 21 695 pack f f f;
#X obj 21 673 +;
#X text 336 492 ligne \, col;
#X msg 21 716 element \$1 \$2 \$3;
#X obj 158 560 r \$0-from-matrix;
#X obj 188 732 s \$0-to-matrix;
#X obj 278 468 f;
#X text 39 735 ligne (y) \, col (x);
#X text 360 502 y \, x;
#X obj 235 408 t b f;
#X text 377 376 (x) ligne ini;
#X text 108 395 (x) ligne fin;
#N canvas 363 391 450 367 nb 0;
#X msg 282 40 1;
#X msg 232 41 0;
#X obj 152 73 spigot;
#X obj 152 -72 r \$0-from-matrix;
#X obj 259 86 s \$0-to-matrix;
#X msg 258 15 col 1;
#X obj 152 96 list-drip;
#X obj 152 119 sel 2 1;
#X obj 212 143 f;
#X obj 243 143 + 1;
#X obj 227 121 0;
#X obj 197 175 f;
#X obj 224 -17 t b b a b;
#X text 150 -87 nb de colonne;
#X obj 287 -58 inlet;
#X obj 197 209 outlet;
#X connect 0 0 2 1;
#X connect 1 0 2 1;
#X connect 2 0 6 0;
#X connect 3 0 2 0;
#X connect 5 0 4 0;
#X connect 6 0 7 0;
#X connect 7 0 8 0;
#X connect 7 1 8 0;
#X connect 8 0 9 0;
#X connect 9 0 8 1;
#X connect 9 0 11 1;
#X connect 10 0 8 1;
#X connect 11 0 15 0;
#X connect 12 0 11 0;
#X connect 12 1 1 0;
#X connect 12 2 5 0;
#X connect 12 3 0 0;
#X connect 12 3 10 0;
#X connect 14 0 12 0;
#X restore 189 39 pd nb de lignes;
#X obj 21 651 f;
#X obj 21 629 t b f;
#X obj 189 218 t b b b;
#X obj 189 117 until;
#X obj 189 145 f;
#X obj 219 145 + 1;
#X obj 239 121 1;
#X obj 189 92 t f b;
#X obj 189 172 t b f;
#X obj 269 275 t f f;
#X obj 189 318 f;
#X obj 284 219 inlet m;
#X obj 367 300 inlet n;
#X obj 189 13 inlet bang;
#X obj 189 65 t f b f;
#X obj 498 164 inlet;
#X obj 498 189 t b b;
#X connect 0 0 1 0;
#X connect 1 0 0 1;
#X connect 1 0 7 0;
#X connect 2 0 5 0;
#X connect 3 0 2 1;
#X connect 4 0 37 0;
#X connect 5 0 38 0;
#X connect 5 1 0 0;
#X connect 6 0 15 1;
#X connect 7 0 24 0;
#X connect 7 0 38 1;
#X connect 7 1 6 0;
#X connect 7 2 3 0;
#X connect 8 0 20 0;
#X connect 9 0 11 0;
#X connect 10 0 20 0;
#X connect 11 0 10 0;
#X connect 11 1 13 0;
#X connect 11 2 8 0;
#X connect 11 3 12 0;
#X connect 12 0 14 1;
#X connect 13 0 14 1;
#X connect 14 0 29 0;
#X connect 15 0 18 0;
#X connect 16 0 15 0;
#X connect 18 0 20 0;
#X connect 19 0 14 0;
#X connect 21 0 9 0;
#X connect 24 0 21 0;
#X connect 24 1 9 1;
#X connect 27 0 42 0;
#X connect 28 0 16 0;
#X connect 29 0 28 0;
#X connect 29 1 15 2;
#X connect 30 0 2 0;
#X connect 30 1 4 0;
#X connect 31 0 32 0;
#X connect 32 0 33 0;
#X connect 32 0 36 0;
#X connect 33 0 32 1;
#X connect 34 0 32 1;
#X connect 35 0 31 0;
#X connect 35 1 34 0;
#X connect 36 0 30 0;
#X connect 36 1 21 1;
#X connect 36 1 28 1;
#X connect 37 0 0 1;
#X connect 37 1 6 1;
#X connect 39 0 4 1;
#X connect 40 0 3 1;
#X connect 41 0 27 0;
#X connect 42 0 35 0;
#X connect 42 2 16 1;
#X connect 43 0 44 0;
#X connect 44 0 31 1;
#X connect 44 1 2 1;
#X restore 137 605 pd mettre a la ligne;
#N canvas 1 51 862 524 matrice 0;
#X msg 448 307 zeros \$1;
#X obj 347 166 f;
#X text 331 168 k;
#X obj 448 197 until;
#X msg 448 283 element 1 \$1 1;
#X obj 448 240 f;
#X obj 479 240 + 1;
#X obj 463 218 1;
#X obj 448 173 t f b;
#X obj 347 131 t b f f;
#X obj 347 197 until;
#X obj 347 240 f;
#X obj 378 240 + 1;
#X obj 362 218 1;
#X msg 347 283 element 1 \$1 2;
#X obj 448 364 s \$0-from-matrix;
#X obj 230 291 r \$0-to-matrix;
#X obj 410 84 inlet k;
#X obj 347 86 inlet n;
#X obj 448 336 matrix;
#X connect 0 0 19 0;
#X connect 1 0 10 0;
#X connect 3 0 5 0;
#X connect 4 0 19 0;
#X connect 5 0 6 0;
#X connect 5 0 4 0;
#X connect 6 0 5 1;
#X connect 7 0 5 1;
#X connect 8 0 3 0;
#X connect 8 1 7 0;
#X connect 8 1 13 0;
#X connect 9 0 1 0;
#X connect 9 1 8 0;
#X connect 9 2 0 0;
#X connect 10 0 11 0;
#X connect 11 0 12 0;
#X connect 11 0 14 0;
#X connect 12 0 11 1;
#X connect 13 0 11 1;
#X connect 14 0 19 0;
#X connect 16 0 19 0;
#X connect 17 0 1 1;
#X connect 18 0 9 0;
#X connect 19 0 15 0;
#X coords 0 0 1 1 85 20 0;
#X restore 49 443 pd matrice;
#X obj 182 359 r redo;
#N canvas 271 203 474 549 vector 0;
#X obj 81 256 list-drip;
#X obj 81 279 route 0;
#X text 118 172 1 --> n;
#X obj 208 238 s \$0-to-matrix;
#X msg 208 213 col \$1;
#X obj 189 142 t b f b;
#X obj 81 145 r \$0-from-matrix;
#X obj 81 234 spigot;
#X obj 136 61 until;
#X obj 136 90 f;
#X obj 162 90 + 1;
#X obj 136 5 t b b;
#X obj 136 -22 inlet;
#X obj 120 381 outlet;
#X obj 136 32 v \$0-n;
#X obj 120 356 pack f f;
#X obj 162 117 t f f;
#X msg 228 170 1;
#X msg 189 170 0;
#X msg 181 57 0;
#X obj 120 304 t f b;
#X obj 192 305 + 1;
#X obj 166 305 f 0;
#X obj 120 326 - 1;
#X obj 190 357 sel;
#X obj 300 300 - 1;
#X floatatom 300 323 5 0 0 0 - - -;
#X obj 300 275 inlet;
#X obj 190 381 outlet;
#X connect 0 0 1 0;
#X connect 1 1 20 0;
#X connect 4 0 3 0;
#X connect 5 0 18 0;
#X connect 5 1 4 0;
#X connect 5 2 17 0;
#X connect 6 0 7 0;
#X connect 7 0 0 0;
#X connect 8 0 9 0;
#X connect 9 0 10 0;
#X connect 10 0 9 1;
#X connect 10 0 16 0;
#X connect 11 0 14 0;
#X connect 11 1 19 0;
#X connect 12 0 11 0;
#X connect 14 0 8 0;
#X connect 15 0 13 0;
#X connect 16 1 5 0;
#X connect 17 0 7 1;
#X connect 18 0 7 1;
#X connect 19 0 9 1;
#X connect 19 0 22 1;
#X connect 20 0 23 0;
#X connect 20 1 22 0;
#X connect 21 0 22 1;
#X connect 22 0 21 0;
#X connect 22 0 15 1;
#X connect 22 0 24 0;
#X connect 23 0 15 0;
#X connect 24 0 28 0;
#X connect 25 0 26 0;
#X connect 26 0 24 1;
#X connect 27 0 25 0;
#X restore 2 503 pd vector;
#N canvas 253 342 661 406 oui 0;
#X obj 89 9 inlet;
#X obj 374 12 inlet;
#X obj 185 34 spigot;
#X text 193 19 oui;
#X obj 193 209 -;
#X obj 117 207 mod;
#X obj 117 234 sel 0;
#X obj 184 61 t b b b b b b b b b;
#X obj 49 369 s redo;
#X obj 112 376 s vector;
#X obj 467 346 outlet n;
#X obj 377 346 outlet k;
#X obj 287 346 outlet bang;
#X obj 34 78 t b b b;
#X obj 53 212 div;
#X msg 81 270 1;
#X msg 149 276 1;
#X msg 40 266 0;
#X msg 115 274 0;
#X obj 49 295 |;
#X obj 49 318 sel 1;
#X obj 49 349 b;
#X obj 112 334 ==;
#X obj 112 355 sel 1;
#X obj 53 241 sel 0;
#X obj 53 120 == 1;
#X obj 53 143 sel 0 1;
#X obj 286 92 v \$0-k;
#X obj 336 92 v \$0-n;
#X obj 193 175 v \$0-n;
#X obj 220 192 v \$0-k;
#X obj 294 216 v \$0-k;
#X obj 243 216 v \$0-m;
#X obj 294 238 v \$0-n;
#X obj 243 237 v \$0-k;
#X obj 193 230 v \$0-m;
#X obj 147 181 v \$0-m;
#X obj 117 163 v \$0-k;
#X obj 88 186 v \$0-m;
#X obj 53 165 v \$0-k;
#X obj 34 98 v \$0-m;
#X connect 0 0 2 0;
#X connect 1 0 2 1;
#X connect 2 0 7 0;
#X connect 4 0 35 0;
#X connect 5 0 6 0;
#X connect 6 0 18 0;
#X connect 6 1 16 0;
#X connect 7 0 13 0;
#X connect 7 1 36 0;
#X connect 7 2 29 0;
#X connect 7 3 30 0;
#X connect 7 4 32 0;
#X connect 7 5 31 0;
#X connect 7 6 12 0;
#X connect 7 7 27 0;
#X connect 7 8 28 0;
#X connect 13 0 40 0;
#X connect 13 1 38 0;
#X connect 13 2 37 0;
#X connect 14 0 24 0;
#X connect 15 0 19 0;
#X connect 16 0 19 1;
#X connect 16 0 22 1;
#X connect 17 0 19 0;
#X connect 18 0 19 1;
#X connect 18 0 22 1;
#X connect 19 0 20 0;
#X connect 20 0 21 0;
#X connect 20 1 22 0;
#X connect 21 0 8 0;
#X connect 22 0 23 0;
#X connect 23 0 9 0;
#X connect 24 0 17 0;
#X connect 24 1 15 0;
#X connect 25 0 26 0;
#X connect 26 0 39 0;
#X connect 26 1 17 0;
#X connect 27 0 11 0;
#X connect 28 0 10 0;
#X connect 29 0 4 0;
#X connect 30 0 4 1;
#X connect 31 0 33 0;
#X connect 32 0 34 0;
#X connect 36 0 5 1;
#X connect 37 0 5 0;
#X connect 38 0 14 1;
#X connect 39 0 14 0;
#X connect 40 0 25 0;
#X restore 137 579 pd oui;
#N canvas 707 324 661 406 non 0;
#X obj 89 9 inlet;
#X obj 374 12 inlet;
#X obj 467 316 outlet n;
#X obj 377 316 outlet k;
#X obj 287 316 outlet bang;
#X obj 223 50 spigot;
#X text 230 35 non;
#X obj 252 177 -;
#X obj 313 153 mod;
#X obj 196 167 mod;
#X obj 223 76 t b b b b b b b b b;
#X obj 79 115 t b b b;
#X obj 63 192 div;
#X obj 127 214 sel 0;
#X msg 91 250 1;
#X msg 159 256 1;
#X msg 50 246 0;
#X msg 125 254 0;
#X obj 59 305 |;
#X obj 59 378 s redo;
#X obj 122 385 s vector;
#X obj 59 327 sel 1;
#X obj 59 358 b;
#X obj 122 343 ==;
#X obj 122 364 sel 1;
#X obj 63 221 sel 0 1;
#X obj 420 123 v \$0-n;
#X obj 373 123 v \$0-m;
#X obj 343 136 v \$0-m;
#X obj 313 119 v \$0-k;
#X obj 267 131 v \$0-k;
#X obj 252 111 v \$0-n;
#X obj 196 131 v \$0-k;
#X obj 226 150 v \$0-m;
#X obj 252 198 v \$0-m;
#X obj 313 176 v \$0-k;
#X obj 343 200 v \$0-n;
#X obj 63 155 v \$0-k;
#X obj 93 172 v \$0-m;
#X connect 0 0 5 0;
#X connect 1 0 5 1;
#X connect 5 0 10 0;
#X connect 7 0 34 0;
#X connect 8 0 35 0;
#X connect 9 0 13 0;
#X connect 10 0 11 0;
#X connect 10 1 33 0;
#X connect 10 2 31 0;
#X connect 10 3 30 0;
#X connect 10 4 29 0;
#X connect 10 5 28 0;
#X connect 10 6 4 0;
#X connect 10 7 27 0;
#X connect 10 8 26 0;
#X connect 11 0 37 0;
#X connect 11 1 38 0;
#X connect 11 2 32 0;
#X connect 12 0 25 0;
#X connect 13 0 17 0;
#X connect 13 1 15 0;
#X connect 14 0 18 0;
#X connect 15 0 18 1;
#X connect 15 0 23 1;
#X connect 16 0 18 0;
#X connect 17 0 18 1;
#X connect 17 0 23 1;
#X connect 18 0 21 0;
#X connect 21 0 22 0;
#X connect 21 1 23 0;
#X connect 22 0 19 0;
#X connect 23 0 24 0;
#X connect 24 0 20 0;
#X connect 25 0 16 0;
#X connect 25 1 14 0;
#X connect 25 2 16 0;
#X connect 26 0 2 0;
#X connect 27 0 3 0;
#X connect 28 0 8 1;
#X connect 28 0 36 0;
#X connect 29 0 8 0;
#X connect 30 0 7 1;
#X connect 31 0 7 0;
#X connect 32 0 9 0;
#X connect 33 0 9 1;
#X connect 37 0 12 0;
#X connect 38 0 12 1;
#X restore 221 577 pd non;
#X obj 2 478 r vector;
#X obj 162 323 spigot;
#X obj 195 294 >;
#X obj 155 245 v \$0-n;
#X obj 237 263 v \$0-k;
#X obj 120 443 v \$0-m;
#X obj 254 488 v \$0-k;
#X obj 299 469 v \$0-n;
#X obj 139 295 v \$0-k;
#X obj 49 326 v \$0-n;
#X obj 108 173 t b b b b b;
#X obj 2 597 outlet;
#X obj 253 177 import iemmatrix;
#X obj 171 135 inlet;
#X obj 210 177 inlet;
#X obj 210 237 t f f;
#X obj 49 354 t f f;
#X obj 106 355 t f f;
#X connect 0 0 31 0;
#X connect 1 0 18 0;
#X connect 1 0 19 0;
#X connect 1 0 13 1;
#X connect 2 0 26 0;
#X connect 3 0 4 1;
#X connect 4 0 5 0;
#X connect 4 0 14 1;
#X connect 5 0 15 1;
#X connect 6 0 14 0;
#X connect 6 0 15 0;
#X connect 6 1 22 0;
#X connect 6 2 23 0;
#X connect 8 0 21 0;
#X connect 9 0 8 0;
#X connect 12 0 6 0;
#X connect 13 0 27 0;
#X connect 13 1 10 3;
#X connect 14 0 10 0;
#X connect 14 1 10 1;
#X connect 14 2 10 2;
#X connect 15 0 10 0;
#X connect 15 1 10 1;
#X connect 15 2 10 2;
#X connect 16 0 13 0;
#X connect 17 0 6 0;
#X connect 18 0 17 1;
#X connect 22 0 4 0;
#X connect 23 0 3 0;
#X connect 24 0 33 0;
#X connect 25 0 32 0;
#X connect 26 0 17 0;
#X connect 26 1 25 0;
#X connect 26 2 24 0;
#X connect 26 3 1 0;
#X connect 26 4 0 0;
#X connect 29 0 1 0;
#X connect 30 0 0 0;
#X connect 31 0 18 1;
#X connect 31 1 20 0;
#X connect 32 0 11 0;
#X connect 32 1 9 0;
#X connect 33 0 11 1;
#X connect 33 1 9 1;
#X coords 0 -1 1 1 60 40 1 100 100;
