#N canvas 676 170 715 526 10;
#X obj 285 -138 bng 15 250 50 0 empty empty empty 17 7 0 10 -262144
-1 -1;
#X obj 270 -53 s gobal_bang;
#X obj 304 -250 loadbang;
#X obj 402 -129 bng 15 250 50 0 empty empty empty 17 7 0 10 -262144
-1 -1;
#X obj 402 -108 s gobal_end;
#X obj 304 -200 v globetime;
#X obj 122 10 s ran-go;
#X floatatom 338 -227 5 0 0 0 - - -;
#N canvas 637 108 669 545 red_cross 0;
#X obj 29 -21 translateXYZ;
#X obj 29 -164 t a b;
#X obj 29 -140 separator;
#X obj 56 -78 tabread x;
#X obj 69 -57 tabread y;
#X obj 110 -41 tabread z;
#X obj 29 -324 gemhead 10;
#X obj 56 -118 k_count 1 100;
#X obj 29 -190 repeat 100;
#X obj 324 44 tabwrite x;
#X obj 358 66 tabwrite y;
#X obj 393 88 tabwrite z;
#X obj 411 8 t f f f;
#X obj 320 -163 t f f;
#X obj 320 -264 loadbang;
#X obj 29 -248 pix_texture;
#X obj 29 30 square 0.08;
#X obj 29 -297 alpha;
#X obj 29 -273 pix_image cross.png;
#X obj 451 -218 translateXYZ;
#X obj 478 -295 t f f f;
#X obj 478 -275 tabread x;
#X obj 491 -254 tabread y;
#X obj 532 -238 tabread z;
#X obj 478 -315 k_count 1 100;
#X obj 451 -167 square 0.08;
#X obj 389 -374 gemhead;
#X floatatom 482 -347 5 0 0 0 - - -;
#X obj 320 -218 repeat 100;
#X obj 320 -192 k_count 1 100;
#X obj 278 -98 % 10;
#X obj 320 -131 t f f b;
#X msg 427 -100 0;
#X obj 322 -48 expr int($f1/10);
#X obj -124 -19 translateXYZ;
#X obj -124 -162 t a b;
#X obj -124 -138 separator;
#X obj -97 -76 tabread x;
#X obj -84 -55 tabread y;
#X obj -43 -39 tabread z;
#X obj -124 -322 gemhead 10;
#X obj -124 -188 repeat 100;
#X obj -124 -295 alpha;
#X obj -124 32 text2d;
#X obj -97 -96 t f f f f;
#X msg -66 94 text \$1;
#X obj -97 -116 k_count 1 100;
#X obj -48 27 int;
#X obj 29 73 loadbang;
#X obj -48 48 * 10;
#X obj -67 74 + 100;
#X obj -124 -220 colorRGB 0.7 0.7 0.7 1;
#X msg 28 97 6;
#X obj -124 3 translateXYZ 0 -0.15 0;
#X obj 277 -71 k_range 0 9 -3 3;
#X obj 317 -15 k_range 0 9 3 -3;
#X obj 56 -98 t f f f f;
#X obj 29 5 colorRGB 1 1 1 0.4;
#X obj 171 -18 tabread color;
#X obj 171 22 + 0.3;
#X obj 215 23 > 0;
#X obj 216 61 sel 0 1;
#X msg 215 87 0.08;
#X msg 251 86 0.1;
#X obj 320 -241 bng 15 250 50 0 empty empty empty 17 7 0 10 -262144
-1 -1;
#X connect 0 0 57 0;
#X connect 1 0 2 0;
#X connect 1 1 7 0;
#X connect 2 0 0 0;
#X connect 3 0 0 1;
#X connect 4 0 0 2;
#X connect 5 0 0 3;
#X connect 6 0 17 0;
#X connect 7 0 56 0;
#X connect 8 0 1 0;
#X connect 12 0 9 1;
#X connect 12 1 10 1;
#X connect 12 2 11 1;
#X connect 13 0 31 0;
#X connect 13 1 12 0;
#X connect 14 0 64 0;
#X connect 15 0 8 0;
#X connect 17 0 18 0;
#X connect 18 0 15 0;
#X connect 19 0 25 0;
#X connect 20 0 21 0;
#X connect 20 1 22 0;
#X connect 20 2 23 0;
#X connect 21 0 19 1;
#X connect 22 0 19 2;
#X connect 23 0 19 3;
#X connect 24 0 20 0;
#X connect 27 0 24 0;
#X connect 28 0 29 0;
#X connect 29 0 13 0;
#X connect 30 0 54 0;
#X connect 31 0 30 0;
#X connect 31 1 33 0;
#X connect 31 2 32 0;
#X connect 32 0 11 0;
#X connect 33 0 55 0;
#X connect 34 0 53 0;
#X connect 35 0 36 0;
#X connect 35 1 46 0;
#X connect 36 0 34 0;
#X connect 37 0 34 1;
#X connect 38 0 34 2;
#X connect 39 0 34 3;
#X connect 40 0 42 0;
#X connect 41 0 35 0;
#X connect 44 0 37 0;
#X connect 44 1 38 0;
#X connect 44 2 39 0;
#X connect 44 3 47 0;
#X connect 45 0 43 0;
#X connect 46 0 44 0;
#X connect 47 0 49 0;
#X connect 48 0 52 0;
#X connect 49 0 50 0;
#X connect 50 0 45 0;
#X connect 51 0 41 0;
#X connect 52 0 43 1;
#X connect 53 0 43 0;
#X connect 54 0 9 0;
#X connect 55 0 10 0;
#X connect 56 0 3 0;
#X connect 56 1 4 0;
#X connect 56 2 5 0;
#X connect 56 3 58 0;
#X connect 57 0 16 0;
#X connect 58 0 59 0;
#X connect 58 0 60 0;
#X connect 59 0 57 4;
#X connect 60 0 61 0;
#X connect 61 0 62 0;
#X connect 61 1 63 0;
#X connect 62 0 16 1;
#X connect 63 0 16 1;
#X connect 64 0 28 0;
#X restore 2 -118 pd red_cross;
#X obj 3 -143 gemwin;
#X msg -14 -206 destroy;
#X obj 122 -148 tgl 15 0 empty empty empty 17 7 0 10 -262144 -1 -1
0 1;
#X obj 122 -107 random 20;
#X obj 3 -72 table x 120;
#X obj 3 -48 table y 120;
#X obj 3 -22 table z 120;
#X obj 319 -6 s random_range;
#X obj 328 -75 t f f;
#X obj 285 -117 t b b;
#X obj 319 -31 pack f f;
#X floatatom 328 -98 5 0 0 0 - - -;
#X obj 328 -127 random 45;
#X obj 364 -53 + 1;
#X obj 316 72 s random_range;
#X obj 289 96 s gobal_bang;
#X obj 289 49 t b a;
#X obj 191 -129 repeat 20;
#X obj 191 -147 bng 15 250 50 0 empty empty empty 17 7 0 10 -262144
-1 -1;
#X obj 191 -109 k_count 1 20;
#X obj 194 127 s random_range;
#X obj 203 58 t f f;
#X obj 194 102 pack f f;
#X floatatom 203 35 5 0 0 0 - - -;
#X obj 239 80 + 1;
#X obj 203 -15 bng 15 250 50 0 empty empty empty 17 7 0 10 -262144
-1 -1;
#X obj 203 -60 tgl 15 0 empty empty empty 17 7 0 10 -262144 -1 -1 1
1;
#X obj 203 -37 metro 2000;
#X obj 203 6 random 100;
#X msg 304 -226 400;
#X msg 289 26 0 100;
#X obj 122 -128 metro 200;
#X obj 122 -17 pack f 0 1;
#X floatatom 122 -55 5 0 0 0 - - -;
#X obj 150 -39 tgl 15 0 empty empty empty 17 7 0 10 -262144 -1 -1 0
1;
#X obj 179 -40 tgl 15 0 empty empty empty 17 7 0 10 -262144 -1 -1 0
1;
#X obj 63 99 s ran-go;
#X floatatom 63 34 5 0 0 0 - - -;
#X obj 444 -8 catch~ all;
#X obj 444 168 dac~;
#X obj 444 20 k_vol;
#X obj 444 95 st-pureverb4 /key;
#X msg 630 39 1 0.3;
#X obj 630 17 loadbang;
#X obj 4 1 table color 120;
#X obj -20 57 repeat 20;
#X obj -20 39 bng 15 250 50 0 empty empty empty 17 7 0 10 -262144 -1
-1;
#X obj -20 77 k_count 1 20;
#N canvas 912 23 357 554 object 0;
#X obj 29 -208 gemhead;
#X obj 98 -207 r ran-go;
#X obj 28 -155 gemhead;
#X obj 97 -154 r ran-go;
#X obj 26 -108 gemhead;
#X obj 95 -107 r ran-go;
#X obj 25 -55 gemhead;
#X obj 94 -54 r ran-go;
#X obj 25 -6 gemhead;
#X obj 94 -5 r ran-go;
#X obj 24 47 gemhead;
#X obj 93 48 r ran-go;
#X obj 22 94 gemhead;
#X obj 91 95 r ran-go;
#X obj 21 147 gemhead;
#X obj 90 148 r ran-go;
#X obj 22 198 gemhead;
#X obj 91 199 r ran-go;
#X obj 21 251 gemhead;
#X obj 90 252 r ran-go;
#X obj 167 -206 gemhead;
#X obj 236 -205 r ran-go;
#X obj 166 -153 gemhead;
#X obj 235 -152 r ran-go;
#X obj 164 -106 gemhead;
#X obj 233 -105 r ran-go;
#X obj 163 -53 gemhead;
#X obj 232 -52 r ran-go;
#X obj 163 -4 gemhead;
#X obj 232 -3 r ran-go;
#X obj 162 49 gemhead;
#X obj 231 50 r ran-go;
#X obj 160 96 gemhead;
#X obj 229 97 r ran-go;
#X obj 159 149 gemhead;
#X obj 228 150 r ran-go;
#X obj 160 200 gemhead;
#X obj 229 201 r ran-go;
#X obj 159 253 gemhead;
#X obj 228 254 r ran-go;
#X obj 29 -184 g_linkline 0;
#X obj 24 70 g_linkline 5;
#X obj 25 18 g_linkline 4;
#X obj 159 277 g_linkline 19;
#X obj 28 -131 g_linkline 1;
#X obj 26 -84 g_linkline 2;
#X obj 25 -30 g_linkline 3;
#X obj 22 118 g_linkline 6;
#X obj 21 171 g_linkline 7;
#X obj 21 222 g_linkline 8;
#X obj 21 275 g_linkline 9;
#X obj 167 -183 g_linkline 10;
#X obj 166 -129 g_linkline 11;
#X obj 163 -82 g_linkline 12;
#X obj 163 -28 g_linkline 13;
#X obj 163 20 g_linkline 14;
#X obj 162 72 g_linkline 15;
#X obj 160 120 g_linkline 16;
#X obj 159 173 g_linkline 17;
#X obj 159 224 g_linkline 18;
#X connect 0 0 40 0;
#X connect 1 0 40 1;
#X connect 2 0 44 0;
#X connect 3 0 44 1;
#X connect 4 0 45 0;
#X connect 5 0 45 1;
#X connect 6 0 46 0;
#X connect 7 0 46 1;
#X connect 8 0 42 0;
#X connect 9 0 42 1;
#X connect 10 0 41 0;
#X connect 11 0 41 1;
#X connect 12 0 47 0;
#X connect 13 0 47 1;
#X connect 14 0 48 0;
#X connect 15 0 48 1;
#X connect 16 0 49 0;
#X connect 17 0 49 1;
#X connect 18 0 50 0;
#X connect 19 0 50 1;
#X connect 20 0 51 0;
#X connect 21 0 51 1;
#X connect 22 0 52 0;
#X connect 23 0 52 1;
#X connect 24 0 53 0;
#X connect 25 0 53 1;
#X connect 26 0 54 0;
#X connect 27 0 54 1;
#X connect 28 0 55 0;
#X connect 29 0 55 1;
#X connect 30 0 56 0;
#X connect 31 0 56 1;
#X connect 32 0 57 0;
#X connect 33 0 57 1;
#X connect 34 0 58 0;
#X connect 35 0 58 1;
#X connect 36 0 59 0;
#X connect 37 0 59 1;
#X connect 38 0 43 0;
#X connect 39 0 43 1;
#X restore 3 -96 pd object;
#X msg 3 -183 reset \, color 0.04 0.35 0.32 \, dimen 500 500 \, FSAA
8 \, create \, 1;
#X obj 63 72 pack f 1 0;
#X connect 0 0 18 0;
#X connect 2 0 38 0;
#X connect 3 0 4 0;
#X connect 7 0 5 0;
#X connect 10 0 9 0;
#X connect 11 0 40 0;
#X connect 12 0 42 0;
#X connect 17 0 19 0;
#X connect 17 1 22 0;
#X connect 18 0 1 0;
#X connect 18 1 21 0;
#X connect 19 0 16 0;
#X connect 20 0 17 0;
#X connect 21 0 20 0;
#X connect 22 0 19 1;
#X connect 25 0 24 0;
#X connect 25 1 23 0;
#X connect 26 0 28 0;
#X connect 27 0 26 0;
#X connect 28 0 42 0;
#X connect 30 0 31 0;
#X connect 30 1 33 0;
#X connect 31 0 29 0;
#X connect 32 0 30 0;
#X connect 33 0 31 1;
#X connect 34 0 37 0;
#X connect 35 0 36 0;
#X connect 36 0 34 0;
#X connect 37 0 32 0;
#X connect 38 0 5 0;
#X connect 39 0 25 0;
#X connect 40 0 12 0;
#X connect 41 0 6 0;
#X connect 42 0 41 0;
#X connect 43 0 41 1;
#X connect 44 0 41 2;
#X connect 46 0 59 0;
#X connect 47 0 49 0;
#X connect 49 0 50 0;
#X connect 49 0 50 1;
#X connect 50 0 48 0;
#X connect 50 1 48 1;
#X connect 51 0 50 2;
#X connect 52 0 51 0;
#X connect 54 0 56 0;
#X connect 55 0 54 0;
#X connect 56 0 46 0;
#X connect 58 0 9 0;
#X connect 59 0 45 0;
