#N canvas 540 23 1038 735 10;
#X obj 355 -14 bng 15 250 50 0 empty empty empty 17 7 0 10 -262144
-1 -1;
#X obj 283 -61 bng 15 250 50 0 empty empty empty 17 7 0 10 -262144
-1 -1;
#X obj 258 68 bng 15 250 50 0 empty empty empty 17 7 0 10 -262144 -1
-1;
#X obj 283 114 f;
#X floatatom 283 140 5 0 0 0 - - -;
#X obj -7 -203 loadbang;
#X msg -7 -182 auto 1;
#X obj -45 -136 s \$0-gemhead;
#X msg 304 89 0;
#X obj -106 -37 r \$0-gemhead;
#X obj 283 243 s \$0-id_bang;
#X obj -46 -61 r \$0-id_bang;
#X obj 355 77 s \$0-id_bang;
#X msg 355 51 1000;
#X obj -10 -7 s \$0-nextone;
#X obj 258 47 r \$0-nextone;
#X obj 283 -228 inlet;
#X obj -45 -203 inlet;
#N canvas 800 44 703 753 random 0;
#X obj 114 -335 bng 15 250 50 0 empty empty empty 17 7 0 10 -262144
-1 -1;
#X floatatom 218 -284 5 0 0 0 - - -;
#X obj 245 -243 t f f f f;
#X floatatom 93 -106 5 0 0 0 - - -;
#X obj 218 -220 v \$0_id;
#X obj 380 -331 random 100;
#X obj 33 -305 + 1;
#X floatatom 33 -280 5 0 0 0 - - -;
#X obj 33 -256 gate 5 4 3 2 1;
#X obj 279 -118 max;
#X obj 262 -88 max;
#X obj 246 -58 max;
#X floatatom 246 -37 5 0 0 0 - - -;
#N canvas 686 125 402 621 random 0;
#X obj 43 86 list;
#X obj 43 -63 bng 15 250 50 0 empty empty empty 17 7 0 10 -262144 -1
-1;
#X obj 43 53 sel 0 1 2 3 4 5 6 7;
#X obj 56 109 list;
#X obj 70 136 list;
#X obj 84 159 list;
#X obj 98 86 list;
#X obj 112 106 list;
#X obj 126 133 list;
#X obj 140 156 list;
#X floatatom 31 180 5 0 0 0 - - -;
#X floatatom 44 201 5 0 0 0 - - -;
#X floatatom 58 222 5 0 0 0 - - -;
#X floatatom 72 247 5 0 0 0 - - -;
#X floatatom 86 269 5 0 0 0 - - -;
#X floatatom 100 290 5 0 0 0 - - -;
#X floatatom 114 311 5 0 0 0 - - -;
#X floatatom 128 333 5 0 0 0 - - -;
#X obj 98 381 f;
#X obj 83 30 v \$0_id;
#X obj 166 -6 t f f f f f f f f;
#X obj 166 24 - 11;
#X obj 180 51 - 10;
#X obj 194 80 - 9;
#X obj 208 110 - 1;
#X obj 222 139 + 1;
#X obj 236 27 + 9;
#X obj 250 57 + 10;
#X obj 265 86 + 11;
#X obj 43 -1 t f b;
#X obj 43 -86 inlet;
#X obj 96 479 outlet;
#X obj 43 -41 random 8;
#X floatatom 66 -19 5 0 0 0 - - -;
#X connect 0 0 10 0;
#X connect 1 0 32 0;
#X connect 2 0 0 0;
#X connect 2 1 3 0;
#X connect 2 2 4 0;
#X connect 2 3 5 0;
#X connect 2 4 6 0;
#X connect 2 5 7 0;
#X connect 2 6 8 0;
#X connect 2 7 9 0;
#X connect 3 0 11 0;
#X connect 4 0 12 0;
#X connect 5 0 13 0;
#X connect 6 0 14 0;
#X connect 7 0 15 0;
#X connect 8 0 16 0;
#X connect 9 0 17 0;
#X connect 10 0 18 0;
#X connect 11 0 18 0;
#X connect 12 0 18 0;
#X connect 13 0 18 0;
#X connect 14 0 18 0;
#X connect 15 0 18 0;
#X connect 16 0 18 0;
#X connect 17 0 18 0;
#X connect 18 0 31 0;
#X connect 19 0 20 0;
#X connect 20 0 21 0;
#X connect 20 1 22 0;
#X connect 20 2 23 0;
#X connect 20 3 24 0;
#X connect 20 4 25 0;
#X connect 20 5 26 0;
#X connect 20 6 27 0;
#X connect 20 7 28 0;
#X connect 21 0 0 1;
#X connect 22 0 3 1;
#X connect 23 0 4 1;
#X connect 24 0 5 1;
#X connect 25 0 6 1;
#X connect 26 0 7 1;
#X connect 27 0 8 1;
#X connect 28 0 9 1;
#X connect 29 0 2 0;
#X connect 29 1 19 0;
#X connect 30 0 1 0;
#X connect 32 0 29 0;
#X connect 32 0 33 0;
#X restore 33 -216 pd random;
#N canvas 358 164 402 621 random 0;
#X obj 43 86 list;
#X obj 43 -63 bng 15 250 50 0 empty empty empty 17 7 0 10 -262144 -1
-1;
#X obj 56 109 list;
#X obj 70 136 list;
#X floatatom 31 180 5 0 0 0 - - -;
#X floatatom 44 201 5 0 0 0 - - -;
#X floatatom 58 222 5 0 0 0 - - -;
#X obj 41 283 f;
#X obj 83 30 v \$0_id;
#X obj 43 -1 t f b;
#X obj 43 -86 inlet;
#X obj 41 308 outlet;
#X obj 114 84 t f f f;
#X obj 43 53 sel 0 1 2;
#X obj 114 114 - 1;
#X obj 128 141 + 1;
#X obj 142 170 + 10;
#X floatatom 86 -11 10 0 0 0 - - -;
#X floatatom 107 286 5 0 0 0 - - -;
#X obj 43 -41 random 3;
#X connect 0 0 4 0;
#X connect 1 0 19 0;
#X connect 2 0 5 0;
#X connect 3 0 6 0;
#X connect 4 0 7 0;
#X connect 5 0 7 0;
#X connect 6 0 7 0;
#X connect 7 0 11 0;
#X connect 7 0 18 0;
#X connect 8 0 12 0;
#X connect 9 0 13 0;
#X connect 9 1 8 0;
#X connect 10 0 1 0;
#X connect 12 0 14 0;
#X connect 12 1 15 0;
#X connect 12 2 16 0;
#X connect 13 0 0 0;
#X connect 13 1 2 0;
#X connect 13 2 3 0;
#X connect 14 0 0 1;
#X connect 15 0 2 1;
#X connect 16 0 3 1;
#X connect 19 0 9 0;
#X connect 19 0 17 0;
#X restore 53 -194 pd random;
#N canvas 531 174 402 621 random 0;
#X obj 43 86 list;
#X obj 43 -63 bng 15 250 50 0 empty empty empty 17 7 0 10 -262144 -1
-1;
#X obj 56 109 list;
#X obj 70 136 list;
#X floatatom 31 180 5 0 0 0 - - -;
#X floatatom 44 201 5 0 0 0 - - -;
#X floatatom 58 222 5 0 0 0 - - -;
#X obj 41 283 f;
#X obj 83 30 v \$0_id;
#X obj 43 -1 t f b;
#X obj 43 -86 inlet;
#X obj 41 308 outlet;
#X obj 114 84 t f f f;
#X obj 43 53 sel 0 1 2;
#X obj 114 114 - 1;
#X obj 128 141 + 1;
#X obj 142 170 - 10;
#X obj 43 -41 random 3;
#X connect 0 0 4 0;
#X connect 1 0 17 0;
#X connect 2 0 5 0;
#X connect 3 0 6 0;
#X connect 4 0 7 0;
#X connect 5 0 7 0;
#X connect 6 0 7 0;
#X connect 7 0 11 0;
#X connect 8 0 12 0;
#X connect 9 0 13 0;
#X connect 9 1 8 0;
#X connect 10 0 1 0;
#X connect 12 0 14 0;
#X connect 12 1 15 0;
#X connect 12 2 16 0;
#X connect 13 0 0 0;
#X connect 13 1 2 0;
#X connect 13 2 3 0;
#X connect 14 0 0 1;
#X connect 15 0 2 1;
#X connect 16 0 3 1;
#X connect 17 0 9 0;
#X restore 73 -171 pd random;
#X obj 296 -218 expr if(int($f1/10)==0 \, 1 \, 0);
#X obj 279 -190 expr if(int($f1/10)==9 \, 2 \, 0);
#X obj 263 -165 expr if($f1%10==0 \, 3 \, 0);
#X obj 245 -140 expr if($f1%10==9 \, 4 \, 0);
#N canvas 531 174 402 621 random 0;
#X obj 43 86 list;
#X obj 43 -63 bng 15 250 50 0 empty empty empty 17 7 0 10 -262144 -1
-1;
#X obj 56 109 list;
#X obj 70 136 list;
#X floatatom 31 180 5 0 0 0 - - -;
#X floatatom 44 201 5 0 0 0 - - -;
#X floatatom 58 222 5 0 0 0 - - -;
#X obj 41 283 f;
#X obj 83 30 v \$0_id;
#X obj 43 -1 t f b;
#X obj 43 -86 inlet;
#X obj 41 308 outlet;
#X obj 114 84 t f f f;
#X obj 43 53 sel 0 1 2;
#X obj 133 141 + 1;
#X obj 114 114 expr if($f1-10<0 \, $f1+10 \, $f1-10);
#X obj 153 169 expr if($f1+10>90 \, $f1-10 \, $f1+10);
#X obj 43 -41 random 4;
#X connect 0 0 4 0;
#X connect 1 0 17 0;
#X connect 2 0 5 0;
#X connect 3 0 6 0;
#X connect 4 0 7 0;
#X connect 5 0 7 0;
#X connect 6 0 7 0;
#X connect 7 0 11 0;
#X connect 8 0 12 0;
#X connect 9 0 13 0;
#X connect 9 1 8 0;
#X connect 10 0 1 0;
#X connect 12 0 15 0;
#X connect 12 1 14 0;
#X connect 12 2 16 0;
#X connect 13 0 0 0;
#X connect 13 1 2 0;
#X connect 13 2 3 0;
#X connect 14 0 2 1;
#X connect 15 0 0 1;
#X connect 16 0 3 1;
#X connect 17 0 9 0;
#X restore 93 -142 pd random;
#N canvas 367 162 402 621 random 0;
#X obj 43 86 list;
#X obj 43 -63 bng 15 250 50 0 empty empty empty 17 7 0 10 -262144 -1
-1;
#X obj 56 109 list;
#X obj 77 152 list;
#X floatatom 31 180 5 0 0 0 - - -;
#X floatatom 44 201 5 0 0 0 - - -;
#X floatatom 58 222 5 0 0 0 - - -;
#X obj 41 283 f;
#X obj 83 30 v \$0_id;
#X obj 43 -1 t f b;
#X obj 43 -86 inlet;
#X obj 41 308 outlet;
#X obj 114 84 t f f f;
#X obj 43 53 sel 0 1 2;
#X obj 114 114 expr if($f1-10<0 \, $f1+10 \, $f1-10);
#X obj 133 141 - 1;
#X obj 43 -41 random 3;
#X floatatom 162 213 5 0 0 0 - - -;
#X floatatom 161 270 5 0 0 0 - - -;
#X obj 162 242 expr if($f1+10>100 \, $f1-10 \, $f1+10);
#X obj 153 168 expr if($f1+10>100 \, $f1-10 \, $f1+10);
#X connect 0 0 4 0;
#X connect 1 0 16 0;
#X connect 2 0 5 0;
#X connect 3 0 6 0;
#X connect 4 0 7 0;
#X connect 5 0 7 0;
#X connect 6 0 7 0;
#X connect 7 0 11 0;
#X connect 8 0 12 0;
#X connect 9 0 13 0;
#X connect 9 1 8 0;
#X connect 10 0 1 0;
#X connect 12 0 14 0;
#X connect 12 1 15 0;
#X connect 12 2 20 0;
#X connect 13 0 0 0;
#X connect 13 1 2 0;
#X connect 13 2 3 0;
#X connect 14 0 0 1;
#X connect 15 0 2 1;
#X connect 16 0 9 0;
#X connect 17 0 19 0;
#X connect 19 0 18 0;
#X connect 20 0 3 1;
#X restore 114 -229 pd random;
#X obj 361 -377 bng 15 250 50 0 empty empty empty 17 7 0 10 -262144
-1 -1;
#X obj 218 -307 v \$0_id;
#X obj 361 -433 loadbang;
#X obj 361 -457 bng 15 250 50 0 empty empty empty 17 7 0 10 -262144
-1 -1;
#X obj 453 -27 + 1;
#X obj 264 152 v \$0_id;
#X obj 361 -477 inlet;
#X obj 319 174 tabwrite \$0-list;
#X msg 396 -77 0;
#X msg 444 -427 \; \$1-list const 0;
#X obj 444 -453 f \$0;
#X obj 93 -46 repeat 6;
#X obj 93 29 tabread \$0-list;
#X obj 93 58 ==;
#X obj 218 -265 t f f;
#N canvas 0 22 450 278 (subpatch) 0;
#X array \$0-list 6 float 3;
#A 0 68 59 69 79 89 88;
#X coords 0 0 6 100 20 500 1 0 0;
#X restore -18 -412 graph;
#X floatatom 423 -4 5 0 0 0 - - -;
#X obj 247 20 t f b;
#X obj 292 -1 f;
#X obj 317 -1 + 1;
#X floatatom 292 21 5 0 0 0 - - -;
#X obj 247 86 spigot;
#X floatatom 319 154 5 0 0 0 - - -;
#X obj 423 -250 tabwrite \$0-list;
#X obj 423 -286 t f b;
#X msg 462 -283 0;
#X floatatom 247 45 5 0 0 0 - - -;
#X obj 380 -288 t f f;
#X obj 423 -27 f 0;
#X obj 114 -313 t b b;
#X obj 448 135 tabread \$0-list;
#X floatatom 448 159 5 0 0 0 - - -;
#X obj 447 114 hradio 15 1 0 6 empty empty empty 0 -8 0 10 -262144
-1 -1 0;
#X obj 247 119 t b f f b;
#X obj 361 -357 t b b b;
#X obj 147 -20 % 6;
#X obj 121 -20 + 1;
#X obj 93 -20 f 0;
#X msg 171 -98 0;
#X obj 25 56 sel 1 0;
#X obj 292 65 tgl 15 0 empty empty empty 17 7 0 10 -262144 -1 -1 0
1;
#X obj 247 -6 f;
#X msg 144 133 1;
#X obj 25 77 bng 15 250 50 0 empty empty empty 17 7 0 10 -262144 -1
-1;
#X obj 44 107 bng 15 250 50 0 empty empty empty 17 7 0 10 -262144 -1
-1;
#X obj 247 209 s \$0-rego;
#X obj 44 178 s \$0-rego;
#X obj 114 -359 r \$0-rego;
#X obj 171 -76 v \$0_ff;
#X obj 144 158 v \$0_ff;
#X obj 25 -32 v \$0_ff;
#X obj 25 14 == 0;
#X obj 93 84 tgl 15 0 empty empty empty 17 7 0 10 -262144 -1 -1 0 1
;
#X floatatom 25 -6 5 0 0 0 - - -;
#X obj 93 -74 t b b f f b;
#X obj 93 110 moses 0.3;
#X obj 396 -53 t f f;
#X obj 25 37 tgl 15 0 empty empty empty 17 7 0 10 -262144 -1 -1 1 1
;
#X floatatom 444 232 5 0 0 0 - - -;
#X obj 444 208 tabwrite \$0-list;
#X floatatom 527 168 5 0 0 0 - - -;
#X floatatom 451 180 5 0 0 0 - - -;
#X obj 292 43 <= 5;
#X obj 213 60 bng 15 250 50 0 empty empty empty 17 7 0 10 -262144 -1
-1;
#X obj 44 127 del 2;
#X obj 247 185 del 2;
#X msg 517 -207 1;
#X msg 356 114 0;
#X obj 517 -121 s \$0-rego;
#X obj 517 -177 tgl 15 0 empty empty empty 17 7 0 10 -262144 -1 -1
0 1;
#X obj 356 91 sel 5;
#X obj 517 -146 metro 40;
#X obj 44 153 spigot;
#X obj 361 -410 t b b b b b;
#X msg 548 -237 0;
#X msg 580 -120 1;
#X obj 581 -85 tgl 15 0 empty empty empty 17 7 0 10 -262144 -1 -1 0
1;
#X obj 581 -62 metro 50;
#X obj 580 -145 del 300;
#X obj 548 -261 del 500;
#X obj 530 -387 r random_range;
#X obj 530 -368 unpack f f;
#X obj 530 -319 expr ($f2-$f1);
#X obj 379 -310 + 0;
#X obj 528 -342 t f f;
#X floatatom 536 -291 5 0 0 0 - - -;
#X connect 0 0 51 0;
#X connect 1 0 36 0;
#X connect 2 0 19 0;
#X connect 2 1 18 0;
#X connect 2 2 17 0;
#X connect 2 3 16 0;
#X connect 3 0 76 0;
#X connect 5 0 105 0;
#X connect 6 0 7 0;
#X connect 7 0 8 0;
#X connect 8 0 13 0;
#X connect 8 1 14 0;
#X connect 8 2 15 0;
#X connect 8 3 20 0;
#X connect 8 4 21 0;
#X connect 9 0 10 1;
#X connect 10 0 11 1;
#X connect 11 0 12 0;
#X connect 12 0 6 0;
#X connect 13 0 3 0;
#X connect 14 0 3 0;
#X connect 15 0 3 0;
#X connect 16 0 9 1;
#X connect 17 0 9 0;
#X connect 18 0 10 0;
#X connect 19 0 11 0;
#X connect 20 0 3 0;
#X connect 21 0 3 0;
#X connect 22 0 56 0;
#X connect 23 0 1 0;
#X connect 24 0 95 0;
#X connect 25 0 24 0;
#X connect 26 0 50 1;
#X connect 28 0 25 0;
#X connect 30 0 78 0;
#X connect 32 0 31 0;
#X connect 33 0 59 0;
#X connect 34 0 35 0;
#X connect 35 0 74 0;
#X connect 36 0 4 0;
#X connect 36 1 2 0;
#X connect 38 0 29 1;
#X connect 39 0 48 0;
#X connect 39 1 40 0;
#X connect 40 0 41 0;
#X connect 40 0 42 0;
#X connect 41 0 40 1;
#X connect 42 0 84 0;
#X connect 42 0 92 0;
#X connect 43 0 55 0;
#X connect 44 0 29 0;
#X connect 46 0 45 0;
#X connect 46 1 47 0;
#X connect 47 0 45 1;
#X connect 48 0 43 0;
#X connect 49 0 1 0;
#X connect 49 1 46 0;
#X connect 50 0 26 0;
#X connect 50 0 38 0;
#X connect 51 0 8 1;
#X connect 51 1 23 0;
#X connect 52 0 53 0;
#X connect 54 0 52 0;
#X connect 54 0 82 0;
#X connect 55 0 87 0;
#X connect 55 1 27 0;
#X connect 55 2 44 0;
#X connect 55 3 50 0;
#X connect 56 0 8 1;
#X connect 56 1 5 0;
#X connect 56 2 30 0;
#X connect 57 0 59 1;
#X connect 58 0 57 0;
#X connect 59 0 58 0;
#X connect 59 0 34 0;
#X connect 60 0 70 0;
#X connect 61 0 65 0;
#X connect 61 1 66 0;
#X connect 62 0 43 1;
#X connect 63 0 39 0;
#X connect 64 0 71 0;
#X connect 65 0 63 0;
#X connect 66 0 86 0;
#X connect 69 0 0 0;
#X connect 72 0 75 0;
#X connect 73 0 79 0;
#X connect 74 0 77 0;
#X connect 75 0 73 0;
#X connect 76 0 72 0;
#X connect 76 1 33 0;
#X connect 76 2 35 1;
#X connect 76 3 63 1;
#X connect 76 4 60 0;
#X connect 77 1 64 0;
#X connect 78 0 40 0;
#X connect 78 1 50 0;
#X connect 79 0 61 0;
#X connect 82 0 81 1;
#X connect 83 0 81 0;
#X connect 84 0 62 0;
#X connect 85 0 48 0;
#X connect 86 0 94 0;
#X connect 87 0 67 0;
#X connect 88 0 91 0;
#X connect 89 0 91 0;
#X connect 91 0 93 0;
#X connect 91 0 94 1;
#X connect 92 0 89 0;
#X connect 93 0 90 0;
#X connect 94 0 68 0;
#X connect 95 0 22 0;
#X connect 95 1 32 0;
#X connect 95 2 101 0;
#X connect 95 3 88 0;
#X connect 95 4 100 0;
#X connect 96 0 91 0;
#X connect 96 0 98 0;
#X connect 97 0 98 0;
#X connect 98 0 99 0;
#X connect 99 0 63 0;
#X connect 100 0 97 0;
#X connect 101 0 96 0;
#X connect 102 0 103 0;
#X connect 103 0 106 0;
#X connect 103 1 104 1;
#X connect 104 0 5 1;
#X connect 104 0 107 0;
#X connect 105 0 49 0;
#X connect 106 0 104 0;
#X connect 106 1 105 1;
#X restore 374 30 pd random;
#N canvas 543 399 450 300 read======= 0;
#X obj -41 106 tabread x;
#X obj -19 151 tabread z;
#X obj 87 118 tabread x;
#X obj 140 164 tabread z;
#X obj -30 129 tabread y;
#X obj 114 142 tabread y;
#X obj -45 47 tabread \$0-list;
#X obj -40 75 t f f f;
#X obj 72 49 tabread \$0-list;
#X obj 93 79 t f f f;
#X obj -40 17 inlet;
#X obj 73 22 inlet;
#X obj -36 180 pack f f f;
#X obj 103 192 pack f f f;
#X obj -34 208 outlet;
#X obj 103 214 outlet;
#X connect 0 0 12 0;
#X connect 1 0 12 2;
#X connect 2 0 13 0;
#X connect 3 0 13 2;
#X connect 4 0 12 1;
#X connect 5 0 13 1;
#X connect 6 0 7 0;
#X connect 7 0 0 0;
#X connect 7 1 4 0;
#X connect 7 2 1 0;
#X connect 8 0 9 0;
#X connect 9 0 2 0;
#X connect 9 1 5 0;
#X connect 9 2 3 0;
#X connect 10 0 6 0;
#X connect 11 0 8 0;
#X connect 12 0 14 0;
#X connect 13 0 15 0;
#X restore -106 21 pd read=======;
#X obj -105 47 r \$0-gemhead;
#X obj -24 45 r \$0-id_bang;
#X obj -9 77 s \$0-nextone;
#N canvas 543 399 450 300 read======= 0;
#X obj -41 106 tabread x;
#X obj -19 151 tabread z;
#X obj 87 118 tabread x;
#X obj 110 163 tabread z;
#X obj -30 129 tabread y;
#X obj 98 142 tabread y;
#X obj -45 47 tabread \$0-list;
#X obj -40 75 t f f f;
#X obj 72 49 tabread \$0-list;
#X obj 93 79 t f f f;
#X obj -40 17 inlet;
#X obj 73 22 inlet;
#X obj -36 180 pack f f f;
#X obj 103 192 pack f f f;
#X obj -34 208 outlet;
#X obj 103 214 outlet;
#X connect 0 0 12 0;
#X connect 1 0 12 2;
#X connect 2 0 13 0;
#X connect 3 0 13 2;
#X connect 4 0 12 1;
#X connect 5 0 13 1;
#X connect 6 0 7 0;
#X connect 7 0 0 0;
#X connect 7 1 4 0;
#X connect 7 2 1 0;
#X connect 8 0 9 0;
#X connect 9 0 2 0;
#X connect 9 1 5 0;
#X connect 9 2 3 0;
#X connect 10 0 6 0;
#X connect 11 0 8 0;
#X connect 12 0 14 0;
#X connect 13 0 15 0;
#X restore -105 105 pd read=======;
#X obj -105 132 r \$0-gemhead;
#X obj -24 130 r \$0-id_bang;
#X obj -9 162 s \$0-nextone;
#N canvas 543 399 450 300 read======= 0;
#X obj -41 106 tabread x;
#X obj -19 151 tabread z;
#X obj 87 118 tabread x;
#X obj 110 163 tabread z;
#X obj -30 129 tabread y;
#X obj 98 142 tabread y;
#X obj -45 47 tabread \$0-list;
#X obj -40 75 t f f f;
#X obj 72 49 tabread \$0-list;
#X obj 93 79 t f f f;
#X obj -40 17 inlet;
#X obj 73 22 inlet;
#X obj -36 180 pack f f f;
#X obj 103 192 pack f f f;
#X obj -34 208 outlet;
#X obj 103 214 outlet;
#X connect 0 0 12 0;
#X connect 1 0 12 2;
#X connect 2 0 13 0;
#X connect 3 0 13 2;
#X connect 4 0 12 1;
#X connect 5 0 13 1;
#X connect 6 0 7 0;
#X connect 7 0 0 0;
#X connect 7 1 4 0;
#X connect 7 2 1 0;
#X connect 8 0 9 0;
#X connect 9 0 2 0;
#X connect 9 1 5 0;
#X connect 9 2 3 0;
#X connect 10 0 6 0;
#X connect 11 0 8 0;
#X connect 12 0 14 0;
#X connect 13 0 15 0;
#X restore -105 190 pd read=======;
#X obj -106 214 r \$0-gemhead;
#X obj -25 212 r \$0-id_bang;
#X obj -10 244 s \$0-nextone;
#N canvas 543 399 450 300 read======= 0;
#X obj -41 106 tabread x;
#X obj -19 151 tabread z;
#X obj 87 118 tabread x;
#X obj 110 163 tabread z;
#X obj -30 129 tabread y;
#X obj 98 142 tabread y;
#X obj -45 47 tabread \$0-list;
#X obj -40 75 t f f f;
#X obj 72 49 tabread \$0-list;
#X obj 93 79 t f f f;
#X obj -40 17 inlet;
#X obj 73 22 inlet;
#X obj -36 180 pack f f f;
#X obj 103 192 pack f f f;
#X obj -34 208 outlet;
#X obj 103 214 outlet;
#X connect 0 0 12 0;
#X connect 1 0 12 2;
#X connect 2 0 13 0;
#X connect 3 0 13 2;
#X connect 4 0 12 1;
#X connect 5 0 13 1;
#X connect 6 0 7 0;
#X connect 7 0 0 0;
#X connect 7 1 4 0;
#X connect 7 2 1 0;
#X connect 8 0 9 0;
#X connect 9 0 2 0;
#X connect 9 1 5 0;
#X connect 9 2 3 0;
#X connect 10 0 6 0;
#X connect 11 0 8 0;
#X connect 12 0 14 0;
#X connect 13 0 15 0;
#X restore -106 272 pd read=======;
#X obj 93 -38 r \$0-gemhead;
#X obj 153 -61 r \$0-id_bang;
#X obj 189 -8 s \$0-nextone;
#N canvas 759 431 450 300 read======= 0;
#X obj -41 106 tabread x;
#X obj -19 151 tabread z;
#X obj 87 118 tabread x;
#X obj 110 163 tabread z;
#X obj -30 129 tabread y;
#X obj 98 142 tabread y;
#X obj -45 47 tabread \$0-list;
#X obj -40 75 t f f f;
#X obj 72 49 tabread \$0-list;
#X obj 93 79 t f f f;
#X obj -40 17 inlet;
#X obj 73 22 inlet;
#X obj -36 180 pack f f f;
#X obj 103 192 pack f f f;
#X obj -34 208 outlet;
#X obj 103 214 outlet;
#X floatatom 129 18 5 0 0 0 - - -;
#X connect 0 0 12 0;
#X connect 1 0 12 2;
#X connect 2 0 13 0;
#X connect 3 0 13 2;
#X connect 4 0 12 1;
#X connect 5 0 13 1;
#X connect 6 0 7 0;
#X connect 7 0 0 0;
#X connect 7 1 4 0;
#X connect 7 2 1 0;
#X connect 8 0 9 0;
#X connect 9 0 2 0;
#X connect 9 1 5 0;
#X connect 9 2 3 0;
#X connect 10 0 6 0;
#X connect 11 0 8 0;
#X connect 12 0 14 0;
#X connect 13 0 15 0;
#X restore 93 20 pd read=======;
#X obj 355 -42 r gobal_bang;
#X obj 283 13 t b b b;
#X obj 283 -8 del 100;
#X obj 283 -192 route \$1;
#X floatatom 373 113 5 0 0 0 - - -;
#X obj 283 183 t f f;
#X obj 373 155 sel 0 1;
#X msg 373 179 20;
#X msg 392 199 10;
#X obj 310 208 sel 20;
#X obj 283 -35 t b b;
#X obj 355 6 t b b b b;
#X obj 446 46 s \$0_color;
#X obj -24 -37 r \$0_color;
#X obj -7 21 r \$0_color;
#X obj -12 108 r \$0_color;
#X obj -6 182 r \$0_color;
#X obj 174 -43 r \$0_color;
#X msg 457 -69 0.28 0.62 1;
#X msg 502 -2 0.4 0.56 1;
#X msg 515 18 1 0.24 0.37;
#X msg 443 -90 0.57 0.36 0.83;
#X msg 471 -46 0.55 0.32 0.26;
#X msg 486 -26 1 0.5 0.45;
#X msg 536 39 0 0.67 0.42;
#X obj 443 -143 random 7;
#X obj 443 -117 sel 0 1 2 3 4 5 6;
#X obj -45 -156 alpha 1;
#X obj 407 114 r gobal_end;
#X msg 407 136 20;
#X obj -106 -7 linkline 0 0 0;
#X obj 283 -168 unpack f f;
#X obj 363 -133 + 1;
#X obj 363 -188 loadbang;
#X msg 363 -164 0;
#X obj 363 -89 gate 2;
#X obj 443 -175 loadbang;
#X obj 283 -141 t b f;
#X obj 237 -88 s \$0-nextone;
#X floatatom 363 -111 5 0 0 0 - - -;
#X obj 237 -110 gate 2;
#X msg 208 68 0;
#X obj 311 114 + 1;
#X obj 339 114 % 11;
#X obj 103 70 tabread \$0-list;
#X floatatom 103 92 5 0 0 0 - - -;
#X obj 103 113 int;
#X obj 103 134 * 10;
#X obj 103 157 + 100;
#X floatatom 103 179 5 0 0 0 - - -;
#X obj 103 45 pipe 100;
#N canvas 456 418 1257 423 array 0;
#X obj -159 -86 inlet;
#X floatatom -159 -62 5 0 0 0 - - -;
#X obj -159 -1 t f b;
#X obj -116 -15 k_count 1 5;
#X obj -116 7 + 1;
#X obj -158 47 gate 5 4 3 2 1;
#X obj -169 207 t b f;
#X obj -169 254 tabwrite color;
#X obj -257 150 t f f;
#X obj -260 180 pipe 100;
#X obj -261 208 t b f;
#X obj -261 255 tabwrite color;
#X msg -261 233 0;
#X obj 20 206 t b f;
#X obj 20 253 tabwrite color;
#X obj -68 149 t f f;
#X obj -71 179 pipe 100;
#X obj -72 207 t b f;
#X obj -72 254 tabwrite color;
#X msg -72 232 0;
#X obj 207 205 t b f;
#X obj 207 252 tabwrite color;
#X obj 119 148 t f f;
#X obj 116 178 pipe 100;
#X obj 115 206 t b f;
#X obj 115 253 tabwrite color;
#X msg 115 231 0;
#X obj 396 204 t b f;
#X obj 396 251 tabwrite color;
#X obj 308 147 t f f;
#X obj 305 177 pipe 100;
#X obj 304 205 t b f;
#X obj 304 252 tabwrite color;
#X msg 304 230 0;
#X obj 613 204 t b f;
#X obj 613 251 tabwrite color;
#X obj 525 147 t f f;
#X obj 522 177 pipe 100;
#X obj 521 205 t b f;
#X obj 521 252 tabwrite color;
#X msg 521 230 0;
#X obj -160 -35 change;
#X msg -169 232 0.7;
#X msg 20 230 0.7;
#X msg 207 230 0.7;
#X msg 396 229 0.7;
#X msg 613 229 0.7;
#X connect 0 0 1 0;
#X connect 1 0 41 0;
#X connect 2 0 5 1;
#X connect 2 1 3 0;
#X connect 3 0 4 0;
#X connect 4 0 5 0;
#X connect 5 0 8 0;
#X connect 5 1 15 0;
#X connect 5 2 22 0;
#X connect 5 3 29 0;
#X connect 5 4 36 0;
#X connect 6 0 42 0;
#X connect 6 1 7 1;
#X connect 8 0 9 0;
#X connect 8 1 6 0;
#X connect 9 0 10 0;
#X connect 10 0 12 0;
#X connect 10 1 11 1;
#X connect 12 0 11 0;
#X connect 13 0 43 0;
#X connect 13 1 14 1;
#X connect 15 0 16 0;
#X connect 15 1 13 0;
#X connect 16 0 17 0;
#X connect 17 0 19 0;
#X connect 17 1 18 1;
#X connect 19 0 18 0;
#X connect 20 0 44 0;
#X connect 20 1 21 1;
#X connect 22 0 23 0;
#X connect 22 1 20 0;
#X connect 23 0 24 0;
#X connect 24 0 26 0;
#X connect 24 1 25 1;
#X connect 26 0 25 0;
#X connect 27 0 45 0;
#X connect 27 1 28 1;
#X connect 29 0 30 0;
#X connect 29 1 27 0;
#X connect 30 0 31 0;
#X connect 31 0 33 0;
#X connect 31 1 32 1;
#X connect 33 0 32 0;
#X connect 34 0 46 0;
#X connect 34 1 35 1;
#X connect 36 0 37 0;
#X connect 36 1 34 0;
#X connect 37 0 38 0;
#X connect 38 0 40 0;
#X connect 38 1 39 1;
#X connect 40 0 39 0;
#X connect 41 0 2 0;
#X connect 42 0 7 0;
#X connect 43 0 14 0;
#X connect 44 0 21 0;
#X connect 45 0 28 0;
#X connect 46 0 35 0;
#X restore 170 166 pd array;
#X obj 430 193 del 100;
#X obj 93 -8 linkline 4 4 4;
#X obj -105 77 linkline 1 1 1;
#X obj -105 162 linkline 2 2 2;
#X obj -106 244 linkline 3 3 3;
#X obj 46 -86 r \$0-areatime;
#X obj 172 129 r \$0-areatime;
#X obj 601 111 bng 15 250 50 0 empty empty empty 17 7 0 10 -262144
-1 -1;
#X floatatom 600 211 5 0 0 0 - - -;
#X obj 601 158 * 40;
#X obj 600 185 + 40;
#X obj 601 86 loadbang;
#X obj 600 233 s \$0-areatime;
#X obj 106 240 gemhead;
#N canvas 480 272 957 412 sound 0;
#X obj 28 86 change;
#X floatatom 28 108 5 0 0 0 - - -;
#X obj 28 128 t f b;
#X obj 71 114 k_count 1 5;
#X obj 71 136 + 1;
#X obj 29 176 gate 5 4 3 2 1;
#X obj 29 228 osc~;
#X obj 29 206 t f b;
#X obj 74 271 line~;
#X obj 29 272 *~;
#X obj 89 201 r \$0-areatime;
#X obj 74 228 f;
#X msg 74 249 0.15 \, 0 \$1;
#X obj 180 227 osc~;
#X obj 180 205 t f b;
#X obj 225 270 line~;
#X obj 180 271 *~;
#X obj 180 300 throw~ all;
#X obj 240 200 r \$0-areatime;
#X obj 225 227 f;
#X msg 225 248 0.15 \, 0 \$1;
#X obj 354 227 osc~;
#X obj 354 205 t f b;
#X obj 399 270 line~;
#X obj 354 271 *~;
#X obj 354 300 throw~ all;
#X obj 414 200 r \$0-areatime;
#X obj 399 227 f;
#X msg 399 248 0.15 \, 0 \$1;
#X obj 505 226 osc~;
#X obj 505 204 t f b;
#X obj 550 269 line~;
#X obj 505 270 *~;
#X obj 505 299 throw~ all;
#X obj 565 199 r \$0-areatime;
#X obj 550 226 f;
#X msg 550 247 0.15 \, 0 \$1;
#X obj 662 225 osc~;
#X obj 662 203 t f b;
#X obj 707 268 line~;
#X obj 662 269 *~;
#X obj 662 298 throw~ all;
#X obj 722 198 r \$0-areatime;
#X obj 707 225 f;
#X msg 707 246 0.15 \, 0 \$1;
#X floatatom -2 204 5 0 0 0 - - -;
#X floatatom 109 232 5 0 0 0 - - -;
#X obj 33 47 inlet;
#X obj 28 301 throw~ all;
#X connect 0 0 1 0;
#X connect 1 0 2 0;
#X connect 2 0 5 1;
#X connect 2 1 3 0;
#X connect 3 0 4 0;
#X connect 4 0 5 0;
#X connect 5 0 7 0;
#X connect 5 0 45 0;
#X connect 5 1 14 0;
#X connect 5 2 22 0;
#X connect 5 3 30 0;
#X connect 5 4 38 0;
#X connect 6 0 9 0;
#X connect 7 0 6 0;
#X connect 7 1 11 0;
#X connect 8 0 9 1;
#X connect 9 0 48 0;
#X connect 10 0 11 1;
#X connect 11 0 12 0;
#X connect 11 0 46 0;
#X connect 12 0 8 0;
#X connect 13 0 16 0;
#X connect 14 0 13 0;
#X connect 14 1 19 0;
#X connect 15 0 16 1;
#X connect 16 0 17 0;
#X connect 18 0 19 1;
#X connect 19 0 20 0;
#X connect 20 0 15 0;
#X connect 21 0 24 0;
#X connect 22 0 21 0;
#X connect 22 1 27 0;
#X connect 23 0 24 1;
#X connect 24 0 25 0;
#X connect 26 0 27 1;
#X connect 27 0 28 0;
#X connect 28 0 23 0;
#X connect 29 0 32 0;
#X connect 30 0 29 0;
#X connect 30 1 35 0;
#X connect 31 0 32 1;
#X connect 32 0 33 0;
#X connect 34 0 35 1;
#X connect 35 0 36 0;
#X connect 36 0 31 0;
#X connect 37 0 40 0;
#X connect 38 0 37 0;
#X connect 38 1 43 0;
#X connect 39 0 40 1;
#X connect 40 0 41 0;
#X connect 42 0 43 1;
#X connect 43 0 44 0;
#X connect 44 0 39 0;
#X connect 47 0 0 0;
#X restore 103 201 pd sound;
#X obj 115 415 text2d;
#X msg 172 357 text \$1;
#X obj 396 319 loadbang;
#X obj 391 354 f \$1;
#X obj 114 319 translateXYZ 0 -3.5 0;
#X obj 179 241 loadbang;
#X msg 210 263 0;
#X obj 427 356 bng 15 250 50 0 empty empty empty 17 7 0 10 -262144
-1 -1;
#X obj 33 277 r \$0_color;
#X obj 32 306 unpack f f f;
#X obj 390 389 k_range 0 19 -3.5 3.5;
#X obj 118 385 colorRGB 1 1 1 1;
#X obj 105 265 alpha 0;
#X obj 262 276 moses 5;
#X msg 299 298 9;
#X msg 260 298 11;
#X msg 179 280 9;
#X obj 601 134 random 10;
#X connect 0 0 47 0;
#X connect 1 0 46 0;
#X connect 2 0 3 0;
#X connect 3 0 4 0;
#X connect 3 0 78 0;
#X connect 4 0 41 0;
#X connect 4 0 86 0;
#X connect 4 0 116 0;
#X connect 5 0 6 0;
#X connect 6 0 63 0;
#X connect 8 0 3 1;
#X connect 9 0 66 0;
#X connect 11 0 66 3;
#X connect 13 0 12 0;
#X connect 15 0 2 0;
#X connect 16 0 39 0;
#X connect 17 0 63 0;
#X connect 19 0 66 1;
#X connect 19 1 66 2;
#X connect 20 0 90 0;
#X connect 21 0 90 3;
#X connect 23 0 90 1;
#X connect 23 1 90 2;
#X connect 24 0 91 0;
#X connect 25 0 91 3;
#X connect 27 0 91 1;
#X connect 27 1 91 2;
#X connect 28 0 92 0;
#X connect 29 0 92 3;
#X connect 31 0 92 1;
#X connect 31 1 92 2;
#X connect 32 0 89 0;
#X connect 33 0 89 3;
#X connect 35 0 89 1;
#X connect 35 1 89 2;
#X connect 36 0 0 0;
#X connect 37 0 77 0;
#X connect 38 0 37 0;
#X connect 39 0 67 0;
#X connect 40 0 42 0;
#X connect 41 0 10 0;
#X connect 41 1 45 0;
#X connect 42 0 43 0;
#X connect 42 1 44 0;
#X connect 43 0 45 1;
#X connect 44 0 45 1;
#X connect 45 0 88 0;
#X connect 46 0 38 0;
#X connect 46 1 0 0;
#X connect 47 0 13 0;
#X connect 47 1 18 0;
#X connect 47 2 95 0;
#X connect 47 3 61 0;
#X connect 49 0 66 4;
#X connect 50 0 90 4;
#X connect 51 0 91 4;
#X connect 52 0 92 4;
#X connect 53 0 89 4;
#X connect 54 0 48 0;
#X connect 55 0 48 0;
#X connect 56 0 48 0;
#X connect 57 0 48 0;
#X connect 58 0 48 0;
#X connect 59 0 48 0;
#X connect 60 0 48 0;
#X connect 61 0 62 0;
#X connect 62 0 57 0;
#X connect 62 1 54 0;
#X connect 62 2 58 0;
#X connect 62 3 59 0;
#X connect 62 4 55 0;
#X connect 62 5 56 0;
#X connect 62 6 60 0;
#X connect 63 0 7 0;
#X connect 64 0 65 0;
#X connect 65 0 45 1;
#X connect 66 0 19 0;
#X connect 66 1 19 1;
#X connect 66 2 14 0;
#X connect 67 0 73 0;
#X connect 67 1 68 0;
#X connect 68 0 75 0;
#X connect 69 0 70 0;
#X connect 70 0 68 0;
#X connect 71 0 2 0;
#X connect 71 1 1 0;
#X connect 72 0 61 0;
#X connect 73 0 76 1;
#X connect 73 1 40 0;
#X connect 75 0 71 0;
#X connect 75 0 76 0;
#X connect 76 0 74 0;
#X connect 76 1 1 0;
#X connect 77 0 3 0;
#X connect 78 0 79 0;
#X connect 79 0 3 1;
#X connect 80 0 81 0;
#X connect 81 0 82 0;
#X connect 82 0 83 0;
#X connect 82 0 87 0;
#X connect 83 0 84 0;
#X connect 84 0 85 0;
#X connect 85 0 102 0;
#X connect 85 0 104 0;
#X connect 86 0 80 0;
#X connect 88 0 71 1;
#X connect 89 0 35 0;
#X connect 89 1 35 1;
#X connect 89 2 34 0;
#X connect 90 0 23 0;
#X connect 90 1 23 1;
#X connect 90 2 22 0;
#X connect 91 0 27 0;
#X connect 91 1 27 1;
#X connect 91 2 26 0;
#X connect 92 0 31 0;
#X connect 92 1 31 1;
#X connect 92 2 30 0;
#X connect 93 0 66 5;
#X connect 93 0 90 5;
#X connect 93 0 91 5;
#X connect 93 0 92 5;
#X connect 93 0 89 5;
#X connect 94 0 86 1;
#X connect 95 0 120 0;
#X connect 96 0 100 0;
#X connect 97 0 98 0;
#X connect 98 0 96 0;
#X connect 99 0 95 0;
#X connect 101 0 115 0;
#X connect 104 0 103 0;
#X connect 105 0 106 0;
#X connect 106 0 113 0;
#X connect 107 0 114 0;
#X connect 108 0 109 0;
#X connect 108 0 119 0;
#X connect 109 0 104 0;
#X connect 110 0 106 0;
#X connect 111 0 112 0;
#X connect 112 0 114 1;
#X connect 112 1 114 2;
#X connect 112 2 114 3;
#X connect 113 0 107 1;
#X connect 114 0 103 0;
#X connect 115 0 107 0;
#X connect 116 0 118 0;
#X connect 116 1 117 0;
#X connect 117 0 103 1;
#X connect 118 0 103 1;
#X connect 119 0 103 1;
#X connect 120 0 97 0;
