#N canvas 726 150 477 457 10;
#X obj 32 142 gemwin;
#X msg 13 83 destroy;
#X obj 13 56 sel 0 1;
#X obj 13 35 tgl 15 0 empty empty empty 17 7 0 10 -262144 -1 -1 1 1
;
#X obj 86 49 loadbang;
#X msg 86 69 \; pd dsp 1;
#N canvas 790 144 341 285 mouseControl 0;
#X obj 137 39 gemmouse 1 1;
#X obj 137 121 expr ($f1*8)-4;
#X obj 206 101 s mouseRight;
#X obj 164 195 v x;
#X obj 202 194 v y;
#X obj 154 146 expr ($f1*-8)+4;
#X obj 137 243 s mousePos;
#X obj 137 217 pack f f;
#X obj 137 171 t f f;
#X obj 175 172 t f f;
#X obj 171 81 s mouseLeft;
#X obj 188 60 s mouseMiddle;
#X obj 26 161 gemkeyboard;
#X floatatom 26 185 5 0 0 0 - - -, f 5;
#X obj 26 207 sel 49;
#X obj 26 234 s defult;
#X connect 0 0 1 0;
#X connect 0 1 5 0;
#X connect 0 2 10 0;
#X connect 0 3 11 0;
#X connect 0 4 2 0;
#X connect 1 0 8 0;
#X connect 5 0 9 0;
#X connect 7 0 6 0;
#X connect 8 0 7 0;
#X connect 8 1 3 0;
#X connect 9 0 7 1;
#X connect 9 1 4 0;
#X connect 12 0 13 0;
#X connect 13 0 14 0;
#X connect 14 0 15 0;
#X restore 83 142 pd mouseControl;
#X obj 49 190 m_row 0;
#N canvas 586 118 777 706 area 0;
#X obj 58 467 alpha;
#X obj 31 376 t a a;
#X obj 58 410 separator;
#X obj 31 577 alpha;
#X obj 31 520 separator;
#X obj 115 494 loadbang;
#X msg 115 518 draw line \, width 2;
#X obj 31 604 square 1;
#X obj 58 494 square 1;
#X obj 31 547 colorRGB 1 1 1 1;
#X obj 160 229 * 0.1;
#X obj 160 145 hradio 15 1 0 8 empty empty empty 0 -8 0 10 -262144
-1 -1 1;
#X obj 160 203 + 1;
#X floatatom 160 253 5 0 0 0 - - -, f 5;
#X floatatom 72 185 5 0 0 0 - - -, f 5;
#X obj 72 282 expr -3.2+($f1)+$f2*0.2;
#X obj 72 157 f;
#X obj 100 157 + 1;
#X obj 127 157 % 32;
#X obj 308 479 alpha;
#X obj 281 319 gemhead 100;
#X obj 281 388 t a a;
#X obj 308 422 separator;
#X obj 281 589 alpha;
#X obj 281 532 separator;
#X obj 366 491 loadbang;
#X msg 366 515 draw line \, width 2;
#X obj 281 616 square 1;
#X obj 308 506 square 1;
#X obj 281 559 colorRGB 1 1 1 1;
#X obj 322 294 expr -3.2+($f1)+$f2*0.2;
#X obj 391 209 * 0.1;
#X floatatom 391 233 5 0 0 0 - - -, f 5;
#X obj 160 36 expr ($f1+$f2)-32;
#X obj 352 182 moses 0;
#X msg 352 207 0;
#X obj 281 289 > 0;
#X obj 391 256 t f f f;
#X obj 160 90 moses 0;
#X obj 72 133 bng 15 250 50 0 empty empty empty 17 7 0 10 -262144 -1
-1;
#X obj 160 65 t f f;
#X floatatom 199 115 5 0 0 0 - - -, f 5;
#X obj 225 257 - 0;
#X obj 225 280 + 1;
#X obj 225 206 t b f;
#X obj 160 118 t b;
#X obj 508 622 square 0.1;
#X obj 508 210 repeat 2;
#X obj 508 229 t a b;
#X obj 535 252 f;
#X obj 560 252 + 1;
#X obj 586 251 % 2;
#X obj 508 475 t a a;
#X obj 508 433 separator;
#X obj 480 556 loadbang;
#X obj 160 174 t f f f;
#X floatatom 601 204 5 0 0 0 - - -, f 5;
#X obj 601 180 + 1;
#X obj 508 183 gemhead 102;
#X msg 480 582 draw line \, width 1;
#X floatatom 587 329 5 0 0 0 - - -, f 5;
#X obj 587 305 expr -3.1+($f1*0.2);
#X obj 421 -27 tgl 15 0 empty empty empty 17 7 0 10 -262144 -1 -1 0
1;
#X obj 421 23 f;
#X obj 447 23 + 1;
#X obj 474 23 % 5;
#X floatatom 421 45 5 0 0 0 - - -, f 5;
#X obj 585 379 sel 0;
#X obj 535 277 t f f;
#X obj 585 545 square 0.1;
#X obj 508 501 separator;
#X obj 585 497 separator;
#X msg 612 402 0 0.55 0.47;
#X msg 585 427 0.49 0.8 0.2;
#X obj 585 520 color;
#X obj 508 526 color 1 1 1;
#X obj 421 118 f;
#X obj 447 118 + 1;
#X obj 474 118 % 2;
#X obj 31 307 gemhead 100;
#X obj 535 335 +;
#X obj 535 360 expr if($f1<3.2 \, $f1 \, $f1-6.4);
#X obj 535 303 * 0.2;
#X floatatom 225 230 5 0 0 0 - - -, f 5;
#X floatatom 519 80 5 0 0 0 - - -, f 5;
#X obj 519 56 r section;
#X obj 255 75 r beat;
#X obj 396 -2 bng 15 250 50 0 empty empty empty 17 7 0 10 -262144 -1
-1;
#X obj 72 207 t b f f f;
#X obj 519 105 + 1;
#X obj 421 160 sel 0;
#X floatatom 255 98 5 0 0 0 - - -, f 5;
#X obj 421 68 t f f f;
#X obj 212 -99 +;
#X floatatom 213 -79 5 0 0 0 - - -, f 5;
#X obj 214 -53 expr if($f1<=31 \, $f1 \, $f1-32);
#X floatatom 213 -32 5 0 0 0 - - -, f 5;
#X obj 421 95 sel 0;
#X obj 213 -6 s check;
#X obj 31 354 scaleXYZ 0.2 1.1 1;
#X obj 281 366 scaleXYZ 0.2 1.1 1;
#X obj 31 329 translateXYZ 0 0.8 0;
#X obj 281 341 translateXYZ 0 0.8 0;
#X obj 507 455 translateXYZ 0 -0.2 0;
#X obj 308 450 colorRGB 0 0.74 0.27 0.2;
#X obj 58 438 colorRGB 0 0.74 0.27 0.2;
#X obj 421 -5 metro 200;
#X obj 421 -51 r tgl;
#X connect 0 0 8 0;
#X connect 1 0 4 0;
#X connect 1 1 2 0;
#X connect 2 0 105 0;
#X connect 3 0 7 0;
#X connect 4 0 9 0;
#X connect 5 0 6 0;
#X connect 6 0 7 0;
#X connect 9 0 3 0;
#X connect 10 0 13 0;
#X connect 11 0 55 0;
#X connect 12 0 10 0;
#X connect 12 0 33 1;
#X connect 13 0 15 0;
#X connect 13 0 99 1;
#X connect 14 0 33 0;
#X connect 14 0 88 0;
#X connect 15 0 101 1;
#X connect 16 0 17 0;
#X connect 16 0 14 0;
#X connect 17 0 18 0;
#X connect 18 0 16 1;
#X connect 19 0 28 0;
#X connect 20 0 102 0;
#X connect 21 0 24 0;
#X connect 21 1 22 0;
#X connect 22 0 104 0;
#X connect 23 0 27 0;
#X connect 24 0 29 0;
#X connect 25 0 26 0;
#X connect 26 0 27 0;
#X connect 29 0 23 0;
#X connect 30 0 102 1;
#X connect 31 0 32 0;
#X connect 32 0 37 0;
#X connect 33 0 40 0;
#X connect 34 0 35 0;
#X connect 34 1 31 0;
#X connect 35 0 31 0;
#X connect 36 0 20 0;
#X connect 37 0 36 0;
#X connect 37 1 30 0;
#X connect 37 2 100 1;
#X connect 38 0 45 0;
#X connect 38 1 41 0;
#X connect 39 0 16 0;
#X connect 40 0 38 0;
#X connect 40 1 34 0;
#X connect 41 0 44 0;
#X connect 42 0 43 0;
#X connect 43 0 10 0;
#X connect 44 0 83 0;
#X connect 44 1 42 1;
#X connect 45 0 11 0;
#X connect 47 0 48 0;
#X connect 48 0 53 0;
#X connect 48 1 49 0;
#X connect 49 0 50 0;
#X connect 49 0 68 0;
#X connect 50 0 51 0;
#X connect 51 0 49 1;
#X connect 52 0 70 0;
#X connect 52 1 71 0;
#X connect 53 0 103 0;
#X connect 54 0 59 0;
#X connect 55 0 12 0;
#X connect 55 1 83 0;
#X connect 55 2 57 0;
#X connect 56 0 47 1;
#X connect 56 0 51 1;
#X connect 56 0 65 1;
#X connect 57 0 56 0;
#X connect 58 0 47 0;
#X connect 59 0 46 0;
#X connect 60 0 80 1;
#X connect 61 0 60 0;
#X connect 62 0 106 0;
#X connect 63 0 64 0;
#X connect 63 0 66 0;
#X connect 64 0 65 0;
#X connect 65 0 63 1;
#X connect 66 0 92 0;
#X connect 67 0 73 0;
#X connect 67 1 72 0;
#X connect 68 0 82 0;
#X connect 68 1 67 0;
#X connect 70 0 75 0;
#X connect 71 0 74 0;
#X connect 72 0 74 1;
#X connect 73 0 74 1;
#X connect 74 0 69 0;
#X connect 75 0 46 0;
#X connect 76 0 77 0;
#X connect 76 0 90 0;
#X connect 77 0 78 0;
#X connect 78 0 76 1;
#X connect 79 0 101 0;
#X connect 80 0 81 0;
#X connect 81 0 103 1;
#X connect 82 0 80 0;
#X connect 83 0 42 0;
#X connect 84 0 89 0;
#X connect 85 0 84 0;
#X connect 86 0 91 0;
#X connect 87 0 63 0;
#X connect 88 0 15 0;
#X connect 88 1 15 1;
#X connect 88 2 61 0;
#X connect 88 3 93 1;
#X connect 89 0 78 1;
#X connect 90 0 39 0;
#X connect 91 0 11 0;
#X connect 92 0 93 0;
#X connect 92 1 97 0;
#X connect 92 2 67 1;
#X connect 93 0 94 0;
#X connect 94 0 95 0;
#X connect 95 0 96 0;
#X connect 96 0 98 0;
#X connect 97 0 76 0;
#X connect 99 0 1 0;
#X connect 100 0 21 0;
#X connect 101 0 99 0;
#X connect 102 0 100 0;
#X connect 103 0 52 0;
#X connect 104 0 19 0;
#X connect 105 0 0 0;
#X connect 106 0 63 0;
#X connect 107 0 62 0;
#X restore 280 269 pd area;
#N canvas 399 26 926 713 beat 0;
#X obj -7 129 separator;
#X obj -7 77 t a b;
#X obj 53 111 f;
#X obj 80 111 + 1;
#X obj -70 471 loadbang;
#X msg -70 496 draw line;
#X obj -7 447 t a a;
#X obj 20 651 square 1;
#X obj -7 537 square 1;
#X obj 20 574 separator;
#X obj -7 470 separator;
#X obj -7 496 color 1 1 1;
#X obj 30 184 r mousePos;
#X obj 20 612 color;
#X obj -7 27 gemhead 10;
#X obj 105 111 % 8;
#X obj 67 234 pack f -2;
#X obj -7 265 k_btn 0 0 0.25 0.25;
#X obj -7 52 repeat 8;
#X obj 67 162 k_range 0 7 0 3.5;
#X obj 67 207 - 1.75;
#X obj 265 133 separator;
#X obj 265 81 t a b;
#X obj 325 115 f;
#X obj 352 115 + 1;
#X obj 202 475 loadbang;
#X msg 202 500 draw line;
#X obj 265 451 t a a;
#X obj 292 655 square 1;
#X obj 265 541 square 1;
#X obj 292 578 separator;
#X obj 265 474 separator;
#X obj 265 500 color 1 1 1;
#X obj 302 188 r mousePos;
#X obj 292 616 color;
#X obj 265 31 gemhead 10;
#X obj 377 115 % 8;
#X obj 265 269 k_btn 0 0 0.25 0.25;
#X obj 265 56 repeat 8;
#X obj 339 166 k_range 0 7 0 3.5;
#X obj 339 211 - 1.75;
#X obj 344 450 sel 0;
#X msg 64 514 0.83 0.9 0;
#X obj 64 431 >;
#X obj 64 464 sel 0;
#X msg 344 500 0 0.68 0.62;
#X msg 363 475 0.62 0.77 0.84;
#X msg 83 489 0.62 0.77 0.84;
#X obj 339 238 pack f -2.7;
#X obj 174 282 r mouseLeft;
#X obj 141 356 t b f;
#X obj 141 247 sel 1;
#X obj 141 270 f;
#X floatatom 141 294 5 0 0 0 - - -, f 5;
#X obj 141 327 spigot;
#X obj 141 382 onebang;
#X obj 174 303 t f f;
#X obj 201 326 sel 1;
#X obj 141 406 f;
#X obj 344 424 >;
#X obj 473 282 r mouseLeft;
#X obj 440 356 t b f;
#X obj 440 247 sel 1;
#X obj 440 270 f;
#X floatatom 440 294 5 0 0 0 - - -, f 5;
#X obj 440 327 spigot;
#X obj 440 382 onebang;
#X obj 473 303 t f f;
#X obj 500 326 sel 1;
#X obj 440 406 f;
#X obj 53 134 t b f f f f;
#X obj 325 138 t b f f f f;
#X obj 359 374 line;
#X obj 359 401 int;
#X obj 79 381 line;
#X obj 79 408 int;
#X obj 91 429 s beat;
#X obj 370 425 s section;
#X obj 430 530 gemhead 10;
#X obj 434 666 square 1;
#X obj 430 586 k_btn -2.5 -2 0.25 0.25;
#X obj 565 615 tgl 15 0 empty empty empty 17 7 0 10 -262144 -1 -1 0
1;
#X obj 475 557 r mousePos;
#X obj 601 496 spigot;
#X obj 601 468 r mouseLeft;
#X obj 601 520 sel 1;
#X obj 601 546 tgl 15 0 empty empty empty 17 7 0 10 -262144 -1 -1 0
1;
#X obj 601 572 s tgl;
#X obj 655 532 gemhead 20;
#X obj 655 588 translateXYZ -2.5 -2 0;
#X obj 655 643 circle 0.2;
#X obj 356 688 square 1;
#X obj 377 600 t a a;
#X obj 434 613 separator;
#X obj 364 627 separator;
#X obj 354 663 color 1 1 1;
#X obj 356 546 loadbang;
#X msg 356 571 draw line;
#X obj 434 640 color 0.8 0.8 0.8;
#X obj 655 617 color 0.3 0.3 0.3;
#X msg 440 427 \$1 100;
#X msg 141 429 \$1 100;
#X connect 0 0 17 0;
#X connect 1 0 0 0;
#X connect 1 1 2 0;
#X connect 2 0 3 0;
#X connect 2 0 70 0;
#X connect 3 0 15 0;
#X connect 4 0 5 0;
#X connect 5 0 8 0;
#X connect 6 0 10 0;
#X connect 6 1 9 0;
#X connect 9 0 13 0;
#X connect 10 0 11 0;
#X connect 11 0 8 0;
#X connect 12 0 17 1;
#X connect 13 0 7 0;
#X connect 14 0 18 0;
#X connect 15 0 2 1;
#X connect 16 0 17 2;
#X connect 17 0 6 0;
#X connect 17 1 51 0;
#X connect 18 0 1 0;
#X connect 19 0 20 0;
#X connect 20 0 16 0;
#X connect 21 0 37 0;
#X connect 22 0 21 0;
#X connect 22 1 23 0;
#X connect 23 0 24 0;
#X connect 23 0 71 0;
#X connect 24 0 36 0;
#X connect 25 0 26 0;
#X connect 26 0 29 0;
#X connect 27 0 31 0;
#X connect 27 1 30 0;
#X connect 30 0 34 0;
#X connect 31 0 32 0;
#X connect 32 0 29 0;
#X connect 33 0 37 1;
#X connect 34 0 28 0;
#X connect 35 0 38 0;
#X connect 36 0 23 1;
#X connect 37 0 27 0;
#X connect 37 1 62 0;
#X connect 38 0 22 0;
#X connect 39 0 40 0;
#X connect 40 0 48 0;
#X connect 41 0 45 0;
#X connect 41 1 46 0;
#X connect 42 0 13 1;
#X connect 43 0 44 0;
#X connect 44 0 42 0;
#X connect 44 1 47 0;
#X connect 45 0 34 1;
#X connect 46 0 34 1;
#X connect 47 0 13 1;
#X connect 48 0 37 2;
#X connect 49 0 56 0;
#X connect 50 0 55 0;
#X connect 50 1 58 1;
#X connect 51 0 52 0;
#X connect 52 0 53 0;
#X connect 53 0 54 0;
#X connect 54 0 50 0;
#X connect 55 0 58 0;
#X connect 56 0 54 1;
#X connect 56 1 57 0;
#X connect 57 0 55 1;
#X connect 58 0 101 0;
#X connect 59 0 41 0;
#X connect 60 0 67 0;
#X connect 61 0 66 0;
#X connect 61 1 69 1;
#X connect 62 0 63 0;
#X connect 63 0 64 0;
#X connect 64 0 65 0;
#X connect 65 0 61 0;
#X connect 66 0 69 0;
#X connect 67 0 65 1;
#X connect 67 1 68 0;
#X connect 68 0 66 1;
#X connect 69 0 100 0;
#X connect 70 1 19 0;
#X connect 70 3 43 0;
#X connect 70 4 52 1;
#X connect 71 1 39 0;
#X connect 71 2 59 0;
#X connect 71 4 63 1;
#X connect 72 0 73 0;
#X connect 73 0 59 1;
#X connect 73 0 77 0;
#X connect 74 0 75 0;
#X connect 75 0 43 1;
#X connect 75 0 76 0;
#X connect 78 0 80 0;
#X connect 80 0 92 0;
#X connect 80 1 81 0;
#X connect 81 0 83 1;
#X connect 82 0 80 1;
#X connect 83 0 85 0;
#X connect 84 0 83 0;
#X connect 85 0 86 0;
#X connect 86 0 87 0;
#X connect 86 0 88 0;
#X connect 88 0 89 0;
#X connect 89 0 99 0;
#X connect 92 0 94 0;
#X connect 92 1 93 0;
#X connect 93 0 98 0;
#X connect 94 0 95 0;
#X connect 95 0 91 0;
#X connect 96 0 97 0;
#X connect 97 0 91 0;
#X connect 98 0 79 0;
#X connect 99 0 90 0;
#X connect 100 0 72 0;
#X connect 101 0 74 0;
#X restore 280 293 pd beat;
#N canvas 586 134 724 617 sound 0;
#X obj 70 14 r track;
#X obj 70 39 route 0 1 2 3 4 5 6 7 8;
#X obj 70 87 sel 0 1;
#X msg 70 110 60;
#X msg 89 131 72;
#X obj 70 162 s p-base;
#X obj 129 264 osc~;
#X obj 129 224 +;
#X obj 144 198 r p-base;
#X obj 129 124 sel 1;
#X msg 129 147 0;
#X obj 129 171 t f b;
#X obj 129 294 *~;
#X obj 164 258 line~;
#X obj 129 244 mtof;
#X obj 129 320 throw~ all;
#X obj -130 363 dac~;
#X obj 215 266 osc~;
#X obj 215 226 +;
#X obj 230 200 r p-base;
#X obj 215 126 sel 1;
#X obj 215 173 t f b;
#X obj 215 296 *~;
#X obj 250 260 line~;
#X obj 215 246 mtof;
#X obj 215 322 throw~ all;
#X obj 336 267 osc~;
#X obj 336 227 +;
#X obj 351 201 r p-base;
#X obj 336 127 sel 1;
#X obj 336 174 t f b;
#X obj 336 297 *~;
#X obj 371 261 line~;
#X obj 336 247 mtof;
#X obj 336 323 throw~ all;
#X obj 445 271 osc~;
#X obj 445 231 +;
#X obj 460 205 r p-base;
#X obj 445 131 sel 1;
#X obj 445 178 t f b;
#X obj 445 301 *~;
#X obj 480 265 line~;
#X obj 445 251 mtof;
#X obj 445 327 throw~ all;
#X obj 67 501 osc~;
#X obj 67 461 +;
#X obj 82 435 r p-base;
#X obj 67 361 sel 1;
#X obj 67 408 t f b;
#X obj 67 531 *~;
#X obj 102 495 line~;
#X obj 67 481 mtof;
#X obj 67 557 throw~ all;
#X obj 215 501 osc~;
#X obj 215 461 +;
#X obj 230 435 r p-base;
#X obj 215 361 sel 1;
#X obj 215 408 t f b;
#X obj 215 531 *~;
#X obj 250 495 line~;
#X obj 215 481 mtof;
#X obj 215 557 throw~ all;
#X obj 365 502 osc~;
#X obj 365 462 +;
#X obj 380 436 r p-base;
#X obj 365 362 sel 1;
#X obj 365 409 t f b;
#X obj 365 532 *~;
#X obj 400 496 line~;
#X obj 365 482 mtof;
#X obj 365 558 throw~ all;
#X msg 215 149 2;
#X msg 336 150 4;
#X msg 445 154 5;
#X msg 67 384 7;
#X msg 215 384 9;
#X msg 365 385 11;
#X msg 164 233 0.2 \, 0 200;
#X msg 250 235 0.2 \, 0 200;
#X msg 371 236 0.2 \, 0 200;
#X msg 480 240 0.2 \, 0 200;
#X msg 400 471 0.2 \, 0 200;
#X msg 250 470 0.2 \, 0 200;
#X msg 102 470 0.2 \, 0 200;
#X obj -130 263 catch~ all;
#X connect 0 0 1 0;
#X connect 1 0 2 0;
#X connect 1 1 9 0;
#X connect 1 2 20 0;
#X connect 1 3 29 0;
#X connect 1 4 38 0;
#X connect 1 5 47 0;
#X connect 1 6 56 0;
#X connect 1 7 65 0;
#X connect 2 0 3 0;
#X connect 2 1 4 0;
#X connect 3 0 5 0;
#X connect 4 0 5 0;
#X connect 6 0 12 0;
#X connect 7 0 14 0;
#X connect 8 0 7 1;
#X connect 9 0 10 0;
#X connect 10 0 11 0;
#X connect 11 0 7 0;
#X connect 11 1 77 0;
#X connect 12 0 15 0;
#X connect 13 0 12 1;
#X connect 14 0 6 0;
#X connect 17 0 22 0;
#X connect 18 0 24 0;
#X connect 19 0 18 1;
#X connect 20 0 71 0;
#X connect 21 0 18 0;
#X connect 21 1 78 0;
#X connect 22 0 25 0;
#X connect 23 0 22 1;
#X connect 24 0 17 0;
#X connect 26 0 31 0;
#X connect 27 0 33 0;
#X connect 28 0 27 1;
#X connect 29 0 72 0;
#X connect 30 0 27 0;
#X connect 30 1 79 0;
#X connect 31 0 34 0;
#X connect 32 0 31 1;
#X connect 33 0 26 0;
#X connect 35 0 40 0;
#X connect 36 0 42 0;
#X connect 37 0 36 1;
#X connect 38 0 73 0;
#X connect 39 0 36 0;
#X connect 39 1 80 0;
#X connect 40 0 43 0;
#X connect 41 0 40 1;
#X connect 42 0 35 0;
#X connect 44 0 49 0;
#X connect 45 0 51 0;
#X connect 46 0 45 1;
#X connect 47 0 74 0;
#X connect 48 0 45 0;
#X connect 48 1 83 0;
#X connect 49 0 52 0;
#X connect 50 0 49 1;
#X connect 51 0 44 0;
#X connect 53 0 58 0;
#X connect 54 0 60 0;
#X connect 55 0 54 1;
#X connect 56 0 75 0;
#X connect 57 0 54 0;
#X connect 57 1 82 0;
#X connect 58 0 61 0;
#X connect 59 0 58 1;
#X connect 60 0 53 0;
#X connect 62 0 67 0;
#X connect 63 0 69 0;
#X connect 64 0 63 1;
#X connect 65 0 76 0;
#X connect 66 0 63 0;
#X connect 66 1 81 0;
#X connect 67 0 70 0;
#X connect 68 0 67 1;
#X connect 69 0 62 0;
#X connect 71 0 21 0;
#X connect 72 0 30 0;
#X connect 73 0 39 0;
#X connect 74 0 48 0;
#X connect 75 0 57 0;
#X connect 76 0 66 0;
#X connect 77 0 13 0;
#X connect 78 0 23 0;
#X connect 79 0 32 0;
#X connect 80 0 41 0;
#X connect 81 0 68 0;
#X connect 82 0 59 0;
#X connect 83 0 50 0;
#X connect 84 0 16 0;
#X connect 84 0 16 1;
#X restore 283 327 pd sound;
#X obj 49 209 m_row 1;
#X obj 49 230 m_row 2;
#X obj 49 249 m_row 3;
#X obj 49 272 m_row 4;
#X obj 49 291 m_row 5;
#X obj 49 312 m_row 6;
#X obj 49 331 m_row 7;
#X obj 49 353 m_row 8;
#X obj 49 374 m_row 9;
#X obj 114 190 m_row 10;
#X obj 114 209 m_row 11;
#X obj 114 230 m_row 12;
#X obj 114 249 m_row 13;
#X obj 114 272 m_row 14;
#X obj 114 291 m_row 15;
#X obj 114 312 m_row 16;
#X obj 114 331 m_row 17;
#X obj 114 353 m_row 18;
#X obj 114 374 m_row 19;
#X obj 182 191 m_row 20;
#X obj 182 210 m_row 21;
#X obj 182 231 m_row 22;
#X obj 182 250 m_row 23;
#X obj 182 273 m_row 24;
#X obj 182 292 m_row 25;
#X obj 182 313 m_row 26;
#X obj 182 331 m_row 27;
#X obj 182 354 m_row 28;
#X obj 182 375 m_row 29;
#X obj 254 191 m_row 30;
#X obj 253 215 m_row 31;
#X obj 16 10 loadbang;
#X msg 32 105 reset \, border 0 \, menubar 0 \, offset 100 100 \, FSAA
8 \, color 0.05 0.44 0.55 \, create \, 1;
#X connect 1 0 0 0;
#X connect 2 0 1 0;
#X connect 2 1 43 0;
#X connect 3 0 2 0;
#X connect 4 0 5 0;
#X connect 42 0 3 0;
#X connect 43 0 0 0;
