#N canvas 781 177 378 515 10;
#X obj 105 475 dac~;
#X obj 105 396 st-pureverb /key;
#X obj 220 340 loadbang;
#X msg 220 365 1 0.4;
#X obj 95 78 loadbang;
#X msg 95 103 \; pd dsp 1;
#X msg 17 145 pd~ stop;
#X obj 104 346 *~ 0.4;
#X obj 148 371 *~ 0.4;
#X obj 95 175 pd~ -noutsig 2 -fifo 20;
#X msg 180 109 -nogui;
#X msg 95 143 pd~ start -nogui av14_gem.pd;
#X obj 104 230 k_vol~;
#X obj 220 229 k_vol~;
#X connect 1 0 0 0;
#X connect 1 1 0 1;
#X connect 2 0 3 0;
#X connect 3 0 1 2;
#X connect 4 0 5 0;
#X connect 6 0 9 0;
#X connect 7 0 1 0;
#X connect 8 0 1 1;
#X connect 9 1 12 0;
#X connect 9 2 13 0;
#X connect 11 0 9 0;
#X connect 12 0 7 0;
#X connect 13 0 8 0;
