#N canvas 315 79 655 665 10;
#X obj -17 119 separator;
#X obj -17 52 t a b;
#X obj 35 75 f;
#X obj 62 75 + 1;
#X obj -17 255 k_btn 0 0 0.1 0.1;
#X obj 49 232 pack f f;
#X obj -80 461 loadbang;
#X msg -80 486 draw line;
#X obj -17 437 t a a;
#X obj 49 179 init \$1;
#X obj 49 151 t b f;
#X obj 10 641 square 1;
#X msg 187 502 0.62 0.77 0.84;
#X obj 187 475 sel 0 1;
#X obj -17 527 square 1;
#X obj 10 564 separator;
#X obj -17 460 separator;
#X obj -17 486 color 1 1 1;
#X obj 154 377 gate 2;
#X obj 154 350 + 1;
#X obj 154 402 sel 0 1;
#X msg 154 448 0.51 0.64 0.69;
#X obj 187 353 tabread \$0-row;
#X obj -25 204 r mousePos;
#X obj 72 537 tabwrite \$0-row;
#X obj 78 325 r mouseLeft;
#X obj 72 486 tabread \$0-row;
#X obj 72 513 tgl 15 0 empty empty empty 17 7 0 10 -262144 -1 -1 1
1;
#X obj 72 461 t f f;
#X obj 45 399 t b f;
#X msg 206 527 0.05 0.44 0.55;
#X msg 173 423 0 0.45 0.75;
#X obj 10 602 color;
#X obj 154 326 > 0;
#X obj 45 290 sel 1;
#X obj 45 313 f;
#X obj 35 98 t b f f f f f f;
#X floatatom 45 337 5 0 0 0 - - -;
#X obj 45 370 spigot;
#X obj 45 425 onebang;
#X obj 78 346 t f f;
#X obj 105 369 sel 1;
#X obj 215 235 r defult;
#X msg 215 289 \; \$1-row const 0;
#X obj 215 261 f \$0;
#X obj -17 2 gemhead 10;
#X obj 49 203 k_range 0 31 -3.1 3.1;
#X obj 342 348 route \$1;
#X obj 342 317 r check;
#X obj 342 399 f;
#X obj 369 399 + 1;
#X obj 342 425 t f f f;
#X obj 381 449 tabread \$0-row;
#X obj 361 477 pack f f;
#X obj 361 503 s track;
#X obj 87 75 % 8;
#X obj -17 27 repeat 8;
#X obj 49 126 k_range 8 0 0 1.6;
#X obj 215 208 table \$0-row 9;
#X obj 342 375 repeat 8;
#X obj 397 399 % 8;
#X connect 0 0 4 0;
#X connect 1 0 0 0;
#X connect 1 1 2 0;
#X connect 2 0 3 0;
#X connect 2 0 36 0;
#X connect 3 0 55 0;
#X connect 4 0 8 0;
#X connect 4 1 34 0;
#X connect 5 0 4 2;
#X connect 6 0 7 0;
#X connect 7 0 14 0;
#X connect 8 0 16 0;
#X connect 8 1 15 0;
#X connect 9 0 46 0;
#X connect 10 0 9 0;
#X connect 10 1 5 1;
#X connect 12 0 32 1;
#X connect 13 0 12 0;
#X connect 13 1 30 0;
#X connect 15 0 32 0;
#X connect 16 0 17 0;
#X connect 17 0 14 0;
#X connect 18 0 20 0;
#X connect 18 1 13 0;
#X connect 19 0 18 0;
#X connect 20 0 21 0;
#X connect 20 1 31 0;
#X connect 21 0 32 1;
#X connect 22 0 18 1;
#X connect 23 0 4 1;
#X connect 25 0 40 0;
#X connect 26 0 27 0;
#X connect 27 0 24 0;
#X connect 28 0 26 0;
#X connect 28 1 24 1;
#X connect 29 0 39 0;
#X connect 29 1 28 0;
#X connect 30 0 32 1;
#X connect 31 0 32 1;
#X connect 32 0 11 0;
#X connect 33 0 19 0;
#X connect 34 0 35 0;
#X connect 35 0 37 0;
#X connect 36 1 57 0;
#X connect 36 2 22 0;
#X connect 36 4 33 0;
#X connect 36 5 35 1;
#X connect 37 0 38 0;
#X connect 38 0 29 0;
#X connect 39 0 27 0;
#X connect 40 0 38 1;
#X connect 40 1 41 0;
#X connect 41 0 39 1;
#X connect 42 0 44 0;
#X connect 44 0 43 0;
#X connect 45 0 56 0;
#X connect 46 0 5 0;
#X connect 47 0 59 0;
#X connect 48 0 47 0;
#X connect 49 0 50 0;
#X connect 49 0 51 0;
#X connect 50 0 60 0;
#X connect 51 1 53 0;
#X connect 51 2 52 0;
#X connect 52 0 53 1;
#X connect 53 0 54 0;
#X connect 55 0 2 1;
#X connect 56 0 1 0;
#X connect 57 0 10 0;
#X connect 59 0 49 0;
#X connect 60 0 49 1;
