#N canvas 718 151 542 557 10;
#X obj 54 101 gemwin;
#X msg 40 39 destroy;
#X obj 156 255 rectangle 0.4 4;
#X obj 156 180 pix_texture;
#X obj 156 85 gemhead 100;
#X obj 156 225 alpha 1;
#X obj 156 153 pix_image scan.png;
#X obj 156 204 translateXYZ;
#X obj 156 107 t a b;
#X floatatom 254 232 5 0 0 0 - - -, f 5;
#X obj 78 343 f;
#X obj 78 284 tgl 15 0 empty empty empty 17 7 0 10 -262144 -1 -1 1
1;
#X obj 78 409 v gobaltime;
#X floatatom 78 391 10 0 0 0 - - -, f 10;
#X obj 150 342 fmod 30;
#X obj 254 203 k_range 0 30 -2.24 3.1;
#X obj 254 177 v gobaltime;
#X obj 78 259 loadbang;
#X obj 233 441 catch~ all;
#X obj 233 481 dac~;
#X obj 363 290 k_note 0;
#X obj 105 343 + 0.1;
#X obj 78 369 expr int($f1*10)/10;
#X obj 163 280 r reset;
#X msg 163 301 0;
#X obj 78 311 metro 25;
#X obj 363 358 k_note 3;
#X obj 363 313 k_note 1;
#X obj 363 335 k_note 2;
#X obj 365 379 k_note 4;
#X obj 365 402 k_note 5;
#X obj 365 424 k_note 6;
#X msg 54 62 reset \, dimen 500 500 \, FSAA 8 \, border 1 \, create
\, 1;
#X obj 26 197 pix_texture;
#X obj 26 139 gemhead 10;
#X obj 26 226 square 4;
#X obj 26 168 pix_image bg.png;
#N canvas 519 43 782 480 row 0;
#X obj 228 271 gemhead 100;
#X obj 228 347 alpha 1;
#X obj 228 297 translateXYZ;
#X floatatom 274 244 5 0 0 0 - - -, f 5;
#X obj 228 377 rectangle 4 0.43;
#X obj 274 61 sel 0 1 2 3 4 5 6;
#X msg 274 88 2.64;
#X msg 291 113 1.74;
#X msg 299 137 0.85;
#X msg 313 162 -0.02;
#X msg 326 187 -0.92;
#X msg 338 208 -1.8;
#X msg 346 230 -2.7;
#X obj 274 37 r step;
#X obj 418 275 v ss;
#X obj 418 248 t b b;
#X obj 419 370 v ss;
#X floatatom 419 349 5 0 0 0 - - -, f 5;
#X obj 418 302 +;
#X obj 476 252 v ss;
#X obj 476 276 +;
#X obj 476 226 t b b;
#X floatatom 476 298 5 0 0 0 - - -, f 5;
#X obj 476 367 v ss;
#X floatatom 476 346 5 0 0 0 - - -, f 5;
#X obj 452 397 s step;
#X obj 449 276 + 1;
#X obj 507 253 - 1;
#X obj 416 225 bng 15 250 50 0 empty empty empty 17 7 0 10 -262144
-1 -1;
#X obj 473 207 bng 15 250 50 0 empty empty empty 17 7 0 10 -262144
-1 -1;
#X obj 416 201 sel 1;
#X obj 472 184 sel 1;
#X obj 418 327 % 7;
#X obj 476 324 expr if($f1>=0 \, $f1 \, 6);
#X obj 420 81 route key;
#X obj 439 127 s hid;
#X obj 420 50 hid;
#X obj 420 4 loadbang;
#X obj 535 232 bng 15 250 50 0 empty empty empty 17 7 0 10 -262144
-1 -1;
#X obj 535 254 s reset;
#X obj 420 104 t a a a;
#X obj 420 154 route key_82 key_81 key_41;
#X obj 535 191 tgl 15 0 empty empty empty 17 7 0 10 -262144 -1 -1 0
1;
#X obj 535 211 sel 1;
#X obj 662 230 coll color.txt;
#C restore;
#X obj 635 279 s coll_color;
#X obj 634 132 loadbang;
#X obj 634 155 repeat 7;
#X obj 634 180 f;
#X obj 664 180 + 1;
#X obj 692 179 % 7;
#X obj 635 253 list;
#X obj 635 204 t f f;
#X obj 228 324 colorRGB 1 1 1 0.2;
#X obj 169 59 r hid;
#X obj 169 84 route key_44;
#X obj 169 111 tgl 15 0 empty empty empty 17 7 0 10 -262144 -1 -1 0
1;
#X obj 35 283 colorRGB 1 1 1 0.5;
#X obj 36 339 alpha;
#X obj 35 247 gemhead 300;
#X obj 36 369 scale 1;
#X obj 169 161 line;
#X obj 169 183 incirc;
#X obj 169 206 * 2;
#X obj 170 228 + 1;
#X obj 36 397 rectangle 0.25 0.05;
#X msg 169 135 \$1 50;
#X msg 420 29 open keyboard 0 \, 1;
#X obj 36 313 translateXYZ 0 -3.7 0;
#X connect 0 0 2 0;
#X connect 1 0 4 0;
#X connect 2 0 53 0;
#X connect 3 0 2 2;
#X connect 5 0 6 0;
#X connect 5 1 7 0;
#X connect 5 2 8 0;
#X connect 5 3 9 0;
#X connect 5 4 10 0;
#X connect 5 5 11 0;
#X connect 5 6 12 0;
#X connect 6 0 3 0;
#X connect 7 0 3 0;
#X connect 8 0 3 0;
#X connect 9 0 3 0;
#X connect 10 0 3 0;
#X connect 11 0 3 0;
#X connect 12 0 3 0;
#X connect 13 0 5 0;
#X connect 14 0 18 0;
#X connect 15 0 14 0;
#X connect 15 1 26 0;
#X connect 17 0 16 0;
#X connect 17 0 25 0;
#X connect 18 0 32 0;
#X connect 19 0 20 0;
#X connect 20 0 22 0;
#X connect 21 0 19 0;
#X connect 21 1 27 0;
#X connect 22 0 33 0;
#X connect 24 0 23 0;
#X connect 24 0 25 0;
#X connect 26 0 18 1;
#X connect 27 0 20 1;
#X connect 28 0 15 0;
#X connect 29 0 21 0;
#X connect 30 0 28 0;
#X connect 31 0 29 0;
#X connect 32 0 17 0;
#X connect 33 0 24 0;
#X connect 34 0 40 0;
#X connect 36 0 34 0;
#X connect 37 0 67 0;
#X connect 38 0 39 0;
#X connect 40 0 41 0;
#X connect 40 1 35 0;
#X connect 41 0 31 0;
#X connect 41 1 30 0;
#X connect 41 2 42 0;
#X connect 42 0 43 0;
#X connect 43 0 38 0;
#X connect 44 0 51 1;
#X connect 46 0 47 0;
#X connect 47 0 48 0;
#X connect 48 0 49 0;
#X connect 48 0 52 0;
#X connect 49 0 50 0;
#X connect 50 0 48 1;
#X connect 51 0 45 0;
#X connect 52 0 51 0;
#X connect 52 1 44 0;
#X connect 53 0 1 0;
#X connect 54 0 55 0;
#X connect 55 0 56 0;
#X connect 56 0 66 0;
#X connect 57 0 68 0;
#X connect 58 0 60 0;
#X connect 59 0 57 0;
#X connect 60 0 65 0;
#X connect 61 0 62 0;
#X connect 62 0 63 0;
#X connect 63 0 64 0;
#X connect 64 0 60 1;
#X connect 66 0 61 0;
#X connect 67 0 36 0;
#X connect 68 0 58 0;
#X restore 79 436 pd row;
#X text 57 499 esc: clear;
#X text 30 482 control:(up \, down) +space;
#X obj 54 7 loadbang;
#X obj 406 129 loadbang;
#X msg 406 153 \; pd dsp 1;
#X connect 1 0 0 0;
#X connect 3 0 7 0;
#X connect 4 0 8 0;
#X connect 5 0 2 0;
#X connect 6 0 3 0;
#X connect 7 0 5 0;
#X connect 8 0 6 0;
#X connect 8 1 16 0;
#X connect 9 0 7 1;
#X connect 10 0 21 0;
#X connect 10 0 22 0;
#X connect 11 0 25 0;
#X connect 13 0 12 0;
#X connect 14 0 10 1;
#X connect 15 0 9 0;
#X connect 16 0 15 0;
#X connect 17 0 11 0;
#X connect 18 0 19 0;
#X connect 18 0 19 1;
#X connect 21 0 14 0;
#X connect 22 0 13 0;
#X connect 23 0 24 0;
#X connect 24 0 10 1;
#X connect 25 0 10 0;
#X connect 32 0 0 0;
#X connect 33 0 35 0;
#X connect 34 0 36 0;
#X connect 36 0 33 0;
#X connect 40 0 32 0;
#X connect 41 0 42 0;
