#N canvas 327 115 1158 634 10;
#X obj 240 -204 repeat 24;
#X obj 240 6 separator;
#X obj 240 174 translateXYZ 0 0 0;
#X obj 289 -157 f;
#X obj 320 -157 + 1;
#X obj 348 -157 % 24;
#X floatatom 295 205 5 0 0 0 - - -;
#X floatatom 337 69 5 0 0 0 - - -;
#X obj 337 113 t f f;
#X obj 322 141 +;
#X obj 240 -306 gemhead 100;
#X obj 369 -224 v \$0-num;
#X floatatom 369 -194 5 0 0 0 - - -;
#X obj 322 -2 tabread \$0-time;
#X obj 337 47 tabread \$0-length;
#X obj -354 38 mtof;
#X obj -354 185 *~;
#X obj -354 131 clip~ -1 1;
#X obj -354 90 *~ 10000;
#X msg -243 146 \$1 10;
#X obj -354 63 osc~;
#X obj -243 174 vline~;
#X obj -243 117 / 127;
#X obj -354 245 throw~ all;
#X floatatom -243 31 5 0 0 0 - - -;
#X obj -243 59 change;
#X obj -186 -32 r trigger;
#X obj -186 -4 route \$1;
#X obj -186 18 unpack f f;
#X obj -243 -81 r note;
#X obj -243 -53 route \$1;
#X obj -185 229 switch~;
#X obj -185 183 > 0;
#X obj -185 208 tgl 15 0 empty empty empty 17 7 0 10 -262144 -1 -1
0 1;
#X obj -175 53 key;
#X obj -175 78 sel 32;
#X msg -175 101 0;
#X obj -354 215 *~ 0.2;
#X obj -105 16 v gobaltime;
#X floatatom -105 39 5 0 0 0 - - -;
#X obj 51 81 v gobaltime;
#X floatatom 51 104 5 0 0 0 - - -;
#X obj 25 128 -;
#X obj 25 54 v gobaltime;
#X floatatom 25 151 5 0 0 0 - - -;
#X obj -283 263 pack f f;
#X obj -266 207 t b f;
#X obj -283 239 f \$1;
#X obj -283 285 print note;
#X obj 81 -185 r step;
#X obj -12 -126 bng 15 250 50 0 empty empty empty 17 7 0 10 -262144
-1 -1;
#X floatatom 81 -159 5 0 0 0 - - -;
#X obj -381 -89 init \$1;
#X obj -381 -66 sel 0 1 2 3 4 5 6 7;
#X msg -381 -44 60;
#X msg -368 -16 62;
#X msg -354 -39 64;
#X msg -340 -8 65;
#X msg -326 -34 67;
#X msg -312 0 69;
#X msg -298 -23 71;
#X obj -14 -238 r hid;
#X obj -14 -213 route key_44;
#X obj 81 -135 sel \$1;
#X msg 114 -111 0;
#X msg 81 -111 1;
#X obj 81 -82 tgl 15 0 empty empty empty 17 7 0 10 -262144 -1 -1 0
1;
#X obj -12 -102 spigot;
#X obj -12 -71 v \$0-num;
#X obj -12 -48 + 1;
#X obj -96 185 r reset;
#X obj -96 236 v \$0-num;
#X obj -105 66 tabwrite \$0-time;
#X obj 25 202 tabwrite \$0-length;
#X obj -12 -150 sel 1 0;
#X obj 19 -3 v \$0-num;
#X obj 25 32 bng 15 250 50 0 empty empty empty 17 7 0 10 -262144 -1
-1;
#X obj 25 173 abs;
#X obj 322 22 k_range 0 30 -2.24 3.1;
#X obj 337 91 k_range 0 5 0 0.46;
#X obj 150 -36 tgl 15 0 empty empty empty 17 7 0 10 -262144 -1 -1 0
1;
#X obj 117 -63 gemhead;
#X obj 117 -39 t b;
#X obj 117 -11 spigot;
#X floatatom 130 175 5 0 0 0 - - -;
#X msg -96 211 0;
#X obj -12 20 - 1;
#X obj 130 132 - 1;
#X obj -26 219 bng 15 250 50 0 empty empty empty 17 7 0 10 -262144
-1 -1;
#X obj -26 242 init \$0;
#X floatatom -12 42 5 0 0 0 - - -;
#X obj -12 -25 t b b f f f;
#X obj 224 28 r coll_color;
#X obj 240 110 colorRGB 1 0 0;
#X obj 224 50 route \$1;
#X obj 224 72 unpack f f f;
#X obj 376 129 init \$1;
#X floatatom 376 179 5 0 0 0 - - -;
#X obj 376 156 k_range 0 6 2.62 -2.74;
#X obj 117 19 spigot;
#X obj 432 131 bng 15 250 50 0 empty empty empty 17 7 0 10 -262144
-1 -1;
#X obj 240 203 alpha 0;
#X obj -183 -188 expr if($f1+$f2==2 \, 1 \, 0);
#X obj -14 -191 t f f f;
#X obj -183 -166 tgl 15 0 empty empty empty 17 7 0 10 -262144 -1 -1
0 1;
#X obj -183 -146 change;
#X obj -180 -52 * 70;
#X obj 241 253 table \$0-time 500;
#X obj 241 283 table \$0-length 500;
#X obj 478 19 v gobaltime;
#X obj 572 5 tabread \$0-time;
#X obj 572 29 t f f;
#X obj 625 36 +;
#X obj 640 -20 tabread \$0-length;
#X obj 478 98 sel 0 1;
#X floatatom 478 187 5 0 0 0 - - -;
#X obj 478 74 expr if($f1>$f2 && $f1<$f3 \, 1 \, 0);
#X obj 68 156 expr if($f1>0.3 \, $f1 \, 0.3);
#X msg 511 125 0.3;
#X obj 245 309 table \$0-vol 500;
#X obj 548 146 tabwrite \$0-vol;
#X obj 386 -37 t f f b f f f;
#X obj 289 -129 t f f;
#X obj 322 -260 v \$0-add;
#X msg 322 -280 0;
#X obj 289 -106 t b f;
#X obj 319 -56 tabread \$0-vol;
#X obj 289 -57 +;
#X obj 289 -82 v \$0-add;
#X obj 289 -34 v \$0-add;
#X obj 240 -282 t a b b b;
#X obj 149 -230 v \$0-add;
#X floatatom 149 -206 5 0 0 0 - - -;
#X obj 240 -182 t a b b;
#X obj 149 -179 > 0;
#X obj 149 -154 change;
#X floatatom -183 -122 5 0 0 0 - - -;
#X obj -132 -141 t b f;
#X floatatom -180 -73 5 0 0 0 - - -;
#X obj -183 -100 expr if($f1+$f2>0 \, 1 \, 0);
#X msg -26 267 \; \$1-length const 0 \; \$1-time const 0 \; \$1-vol
const 0 \;;
#X msg 478 123 0.06;
#X obj 240 227 rectangle 0.01 0.06;
#X connect 0 0 133 0;
#X connect 1 0 93 0;
#X connect 2 0 101 0;
#X connect 3 0 4 0;
#X connect 3 0 122 0;
#X connect 4 0 5 0;
#X connect 5 0 3 1;
#X connect 6 0 142 1;
#X connect 7 0 79 0;
#X connect 8 0 9 1;
#X connect 8 1 6 0;
#X connect 9 0 2 1;
#X connect 10 0 130 0;
#X connect 11 0 12 0;
#X connect 12 0 5 1;
#X connect 12 0 0 1;
#X connect 13 0 78 0;
#X connect 14 0 7 0;
#X connect 15 0 20 0;
#X connect 16 0 37 0;
#X connect 17 0 16 0;
#X connect 18 0 17 0;
#X connect 19 0 21 0;
#X connect 20 0 18 0;
#X connect 21 0 16 1;
#X connect 22 0 19 0;
#X connect 24 0 25 0;
#X connect 25 0 22 0;
#X connect 25 0 32 0;
#X connect 26 0 27 0;
#X connect 27 0 28 0;
#X connect 28 0 24 0;
#X connect 29 0 30 0;
#X connect 30 0 24 0;
#X connect 32 0 33 0;
#X connect 33 0 31 0;
#X connect 34 0 35 0;
#X connect 35 0 36 0;
#X connect 36 0 16 1;
#X connect 37 0 23 0;
#X connect 38 0 39 0;
#X connect 39 0 72 0;
#X connect 40 0 41 0;
#X connect 41 0 42 1;
#X connect 42 0 44 0;
#X connect 43 0 42 0;
#X connect 44 0 77 0;
#X connect 45 0 48 0;
#X connect 46 0 47 0;
#X connect 46 1 45 1;
#X connect 47 0 45 0;
#X connect 49 0 51 0;
#X connect 50 0 67 0;
#X connect 51 0 63 0;
#X connect 52 0 53 0;
#X connect 53 0 54 0;
#X connect 53 1 55 0;
#X connect 53 2 56 0;
#X connect 53 3 57 0;
#X connect 53 4 58 0;
#X connect 53 5 59 0;
#X connect 53 6 60 0;
#X connect 54 0 15 0;
#X connect 55 0 15 0;
#X connect 56 0 15 0;
#X connect 57 0 15 0;
#X connect 58 0 15 0;
#X connect 59 0 15 0;
#X connect 60 0 15 0;
#X connect 61 0 62 0;
#X connect 62 0 103 0;
#X connect 63 0 65 0;
#X connect 63 1 64 0;
#X connect 64 0 66 0;
#X connect 65 0 66 0;
#X connect 66 0 67 1;
#X connect 66 0 99 1;
#X connect 66 0 102 1;
#X connect 67 0 68 0;
#X connect 68 0 69 0;
#X connect 69 0 91 0;
#X connect 70 0 85 0;
#X connect 70 0 88 0;
#X connect 74 0 50 0;
#X connect 76 0 43 0;
#X connect 77 0 117 0;
#X connect 78 0 9 0;
#X connect 79 0 8 0;
#X connect 80 0 83 1;
#X connect 81 0 82 0;
#X connect 82 0 83 0;
#X connect 83 0 99 0;
#X connect 84 0 73 1;
#X connect 85 0 71 0;
#X connect 85 0 132 0;
#X connect 86 0 90 0;
#X connect 87 0 84 0;
#X connect 88 0 89 0;
#X connect 89 0 140 0;
#X connect 90 0 72 1;
#X connect 91 0 38 0;
#X connect 91 1 40 0;
#X connect 91 2 75 0;
#X connect 91 3 86 0;
#X connect 91 4 87 0;
#X connect 92 0 94 0;
#X connect 93 0 2 0;
#X connect 94 0 95 0;
#X connect 95 0 93 1;
#X connect 95 1 93 2;
#X connect 95 2 93 3;
#X connect 96 0 98 0;
#X connect 97 0 2 2;
#X connect 98 0 97 0;
#X connect 99 0 76 0;
#X connect 100 0 96 0;
#X connect 101 0 142 0;
#X connect 102 0 104 0;
#X connect 103 0 80 0;
#X connect 103 1 74 0;
#X connect 103 2 102 0;
#X connect 104 0 105 0;
#X connect 105 0 136 0;
#X connect 106 0 24 0;
#X connect 109 0 116 0;
#X connect 110 0 111 0;
#X connect 111 0 116 1;
#X connect 111 1 112 0;
#X connect 112 0 116 2;
#X connect 113 0 112 1;
#X connect 114 0 141 0;
#X connect 114 1 118 0;
#X connect 115 0 142 2;
#X connect 116 0 114 0;
#X connect 116 0 120 0;
#X connect 117 0 73 0;
#X connect 118 0 115 0;
#X connect 121 0 13 0;
#X connect 121 1 14 0;
#X connect 121 2 109 0;
#X connect 121 3 110 0;
#X connect 121 4 113 0;
#X connect 121 5 120 1;
#X connect 122 0 125 0;
#X connect 122 1 121 0;
#X connect 124 0 123 0;
#X connect 125 0 128 0;
#X connect 125 1 126 0;
#X connect 126 0 127 1;
#X connect 127 0 129 0;
#X connect 128 0 127 0;
#X connect 130 0 0 0;
#X connect 130 2 11 0;
#X connect 130 3 124 0;
#X connect 131 0 132 0;
#X connect 132 0 134 0;
#X connect 133 0 1 0;
#X connect 133 1 131 0;
#X connect 133 2 3 0;
#X connect 134 0 135 0;
#X connect 135 0 137 0;
#X connect 136 0 139 0;
#X connect 137 0 136 0;
#X connect 137 1 139 1;
#X connect 138 0 106 0;
#X connect 139 0 138 0;
#X connect 141 0 115 0;
