#N canvas 666 155 576 593 10;
#X declare -path /Users/aluan/AVLab/av6;
#X msg -344 -68 destroy;
#N canvas 0 22 450 278 (subpatch) 0;
#X array amp 200 float 3;
#A 0 0 0 0 0 0 0 0 0 0 0 0 0 0 0 0 0 0 0 0 0 0 0 0 0 0 0 0 0 0 0 0
0 0 0 0 0 0 0 0 0 0 0 0 0 0 0 0 0 0 0 0 0 0 0 0 0 0 0 0 0 0 0 0 0 0
0 0 0 0 0 0 0 0 0 0 0 0 0 0 0 0 0 0 0 0 0 0 0 0 0 0 0 0 0 0 0 0 0 0
0 0 0 0 0 0 0 0 0 0 0 0 0 0 0 0 0 0 0 0 0 0 0 0 0 0 0 0 0 0 0 0 0 0
0 0 0 0 0 0 0 0 0 0 0 0 0 0 0 0 0 0 0 0 0 0 0 0 0 0 0 0 0 0 0 0 0 0
0 0 0 0 0 0 0 0 0 0 0 0 0 0 0 0 0 0 0 0 0 0 0 0 0 0 0 0 0 0 0 0 0;
#X coords 0 1 199 0 100 50 1 0 0;
#X restore -276 -100 graph;
#N canvas 0 22 450 278 (subpatch) 0;
#X array fre 200 float 3;
#A 0 0 0 0 0 0 0 0 0 0 0 0 0 0 0 0 0 0 0 0 0 0 0 0 0 0 0 0 0 0 0 0
0 0 0 0 0 0 0 0 0 0 0 0 0 0 0 0 0 0 0 0 0 0 0 0 0 0 0 0 0 0 0 0 0 0
0 0 0 0 0 0 0 0 0 0 0 0 0 0 0 0 0 0 0 0 0 0 0 0 0 0 0 0 0 0 0 0 0 0
0 0 0 0 0 0 0 0 0 0 0 0 0 0 0 0 0 0 0 0 0 0 0 0 0 0 0 0 0 0 0 0 0 0
0 0 0 0 0 0 0 0 0 0 0 0 0 0 0 0 0 0 0 0 0 0 0 0 0 0 0 0 0 0 0 0 0 0
0 0 0 0 0 0 0 0 0 0 0 0 0 0 0 0 0 0 0 0 0 0 0 0 0 0 0 0 0 0 0 0 0;
#X coords 0 1 199 0 100 50 1 0 0;
#X restore -167 -100 graph;
#X obj -329 -10 gemwin 30;
#N canvas 588 77 819 616 shape1 0;
#X obj -408 81 separator;
#X obj -80 158 separator;
#X obj -80 240 GEMglEnd;
#X obj -22 209 GEMglBegin;
#X obj -80 209 t a a a;
#X obj -61 290 t a b;
#X obj -6 319 + 1;
#X floatatom -34 340 5 0 0 0 - - -;
#X obj -360 290 f;
#X obj -330 291 + 1;
#X obj -387 264 t a b;
#X obj -408 216 GEMglEnd;
#X obj -357 185 GEMglBegin;
#X obj -408 185 t a a a;
#X obj -301 290 % 100;
#X obj -387 241 repeat 100;
#X obj -61 551 GEMglVertex3f 0 0 0;
#X obj -387 549 GEMglVertex3f 0 0 0;
#X obj -192 364 tabread amp;
#X obj -408 -7 gemhead;
#X obj 35 127 loadbang;
#X obj -283 167 loadbang;
#X obj -61 264 repeat 200;
#X obj 23 319 % 200;
#X floatatom -192 313 5 0 0 0 - - -;
#X floatatom -192 390 5 0 0 0 - - -;
#X floatatom 177 297 5 0 0 0 - - -;
#X floatatom 204 509 5 0 0 0 - - -;
#X obj 177 338 t f f;
#X obj 204 367 expr if($f1%2==0 \, 1 \, 2);
#X obj 237 418 tabread amp;
#X obj 204 393 gate 2;
#X floatatom 237 445 5 0 0 0 - - -;
#X floatatom -297 473 5 0 0 0 - - -;
#X obj -360 423 k_event 0 2;
#X msg -360 445 1;
#X obj -297 445 k_event 2 98;
#X msg -228 468 98;
#X floatatom 29 440 5 0 0 0 - - -;
#X msg -34 412 1;
#X msg -283 189 2;
#X obj 237 475 * 2;
#X obj -80 181 color 0.67 0.6 0.1;
#X obj -408 134 alpha;
#X obj -34 320 f 0;
#X obj -192 339 expr ($f1*2)+1;
#X msg 204 431 0;
#X obj -408 155 GEMglLineWidth 2;
#X obj -408 110 colorRGB 1 1 1 1;
#X msg 35 150 8;
#X obj -34 390 k_event 0 2;
#X obj 28 411 k_event 2 198;
#X obj 16 462 expr int($f1/2);
#X msg 104 439 98;
#X obj -408 19 translateXYZ 0 1 0;
#X obj -408 53 t a a b;
#X obj -150 51 + 1;
#X obj -122 50 % 200;
#X obj -177 239 % 100;
#X obj -192 266 + 0;
#X obj -192 289 % 100;
#X obj -192 417 * 2;
#X obj -360 330 t f f f;
#X obj -321 353 sel 0 99;
#X msg -321 377 0;
#X msg -289 377 2;
#X obj -34 363 t f f f;
#X obj 252 304 sel 0 2 198 199;
#X msg 252 328 0;
#X msg 267 476 2;
#X obj 177 248 +;
#X obj 177 272 % 200;
#X floatatom -179 73 5 0 0 0 - - -;
#X obj 192 222 * 2;
#X obj -360 520 k_range 1 98 -3.7 3.7;
#X obj -24 509 k_range 1 98 -3.7 3.7;
#X obj -177 207 t f f f;
#X obj -133 318 v \$0-amp;
#X obj -179 51 f 0;
#X obj -133 288 % 200;
#X obj -133 239 * 2;
#X obj -133 263 + 47;
#X obj -179 95 s 2another;
#X obj -176 181 r 2another;
#X connect 0 0 48 0;
#X connect 1 0 42 0;
#X connect 4 0 2 0;
#X connect 4 1 22 0;
#X connect 4 2 3 0;
#X connect 5 0 16 0;
#X connect 5 1 44 0;
#X connect 6 0 23 0;
#X connect 7 0 66 0;
#X connect 8 0 9 0;
#X connect 8 0 62 0;
#X connect 9 0 14 0;
#X connect 10 0 17 0;
#X connect 10 1 8 0;
#X connect 13 0 11 0;
#X connect 13 1 15 0;
#X connect 13 2 12 0;
#X connect 14 0 8 1;
#X connect 15 0 10 0;
#X connect 18 0 25 0;
#X connect 19 0 54 0;
#X connect 20 0 49 0;
#X connect 21 0 40 0;
#X connect 22 0 5 0;
#X connect 23 0 44 1;
#X connect 24 0 45 0;
#X connect 25 0 61 0;
#X connect 26 0 28 0;
#X connect 27 0 16 2;
#X connect 28 0 31 1;
#X connect 28 1 29 0;
#X connect 29 0 31 0;
#X connect 30 0 32 0;
#X connect 31 0 46 0;
#X connect 31 1 30 0;
#X connect 32 0 41 0;
#X connect 33 0 74 0;
#X connect 34 0 35 0;
#X connect 34 1 36 0;
#X connect 35 0 74 0;
#X connect 36 0 33 0;
#X connect 36 1 37 0;
#X connect 37 0 74 0;
#X connect 38 0 52 0;
#X connect 39 0 75 0;
#X connect 40 0 12 1;
#X connect 41 0 27 0;
#X connect 42 0 4 0;
#X connect 43 0 47 0;
#X connect 44 0 6 0;
#X connect 44 0 7 0;
#X connect 45 0 18 0;
#X connect 46 0 27 0;
#X connect 47 0 13 0;
#X connect 48 0 43 0;
#X connect 49 0 3 1;
#X connect 50 0 39 0;
#X connect 50 1 51 0;
#X connect 51 0 38 0;
#X connect 51 1 53 0;
#X connect 52 0 75 0;
#X connect 53 0 75 0;
#X connect 54 0 55 0;
#X connect 55 0 0 0;
#X connect 55 1 1 0;
#X connect 55 2 78 0;
#X connect 56 0 57 0;
#X connect 57 0 78 1;
#X connect 58 0 59 1;
#X connect 59 0 60 0;
#X connect 60 0 24 0;
#X connect 61 0 17 2;
#X connect 62 0 34 0;
#X connect 62 1 59 0;
#X connect 62 2 63 0;
#X connect 63 0 64 0;
#X connect 63 1 64 0;
#X connect 63 2 65 0;
#X connect 64 0 61 1;
#X connect 65 0 61 1;
#X connect 66 0 50 0;
#X connect 66 1 70 0;
#X connect 66 2 67 0;
#X connect 67 0 68 0;
#X connect 67 1 68 0;
#X connect 67 2 68 0;
#X connect 67 3 68 0;
#X connect 67 4 69 0;
#X connect 68 0 41 1;
#X connect 69 0 41 1;
#X connect 70 0 71 0;
#X connect 71 0 26 0;
#X connect 72 0 82 0;
#X connect 73 0 70 1;
#X connect 74 0 17 1;
#X connect 75 0 16 1;
#X connect 76 0 58 0;
#X connect 76 1 73 0;
#X connect 76 2 80 0;
#X connect 78 0 56 0;
#X connect 78 0 72 0;
#X connect 79 0 77 0;
#X connect 80 0 81 0;
#X connect 81 0 79 0;
#X connect 83 0 76 0;
#X restore -358 85 pd shape1;
#N canvas 437 146 829 589 shape2 0;
#X obj -408 81 separator;
#X obj -80 158 separator;
#X obj -80 240 GEMglEnd;
#X obj -22 209 GEMglBegin;
#X obj -80 209 t a a a;
#X obj -61 290 t a b;
#X obj -6 319 + 1;
#X floatatom -34 340 5 0 0 0 - - -;
#X obj -360 290 f;
#X obj -330 291 + 1;
#X obj -387 264 t a b;
#X obj -408 216 GEMglEnd;
#X obj -357 185 GEMglBegin;
#X obj -408 185 t a a a;
#X obj -301 290 % 100;
#X obj -387 241 repeat 100;
#X obj -61 551 GEMglVertex3f 0 0 0;
#X obj -387 493 GEMglVertex3f 0 0 0;
#X obj -408 4 gemhead;
#X obj 35 127 loadbang;
#X obj -283 167 loadbang;
#X obj -61 264 repeat 200;
#X obj 23 319 % 200;
#X floatatom -192 390 5 0 0 0 - - -;
#X floatatom -360 345 5 0 0 0 - - -;
#X floatatom -297 417 5 0 0 0 - - -;
#X obj -360 367 k_event 0 2;
#X msg -360 389 1;
#X obj -297 389 k_event 2 98;
#X msg -228 416 98;
#X floatatom 29 440 5 0 0 0 - - -;
#X msg -34 412 1;
#X msg -283 189 2;
#X obj -192 417 * 2;
#X obj -408 134 alpha;
#X obj -34 320 f 0;
#X obj -408 155 GEMglLineWidth 2;
#X obj -408 110 colorRGB 1 1 1 1;
#X msg 35 150 8;
#X obj -34 390 k_event 0 2;
#X obj 28 411 k_event 2 198;
#X obj 16 462 expr int($f1/2);
#X msg 104 439 98;
#X obj -80 181 color 0 0.74 0.28;
#X obj -192 364 tabread fre;
#X obj -360 464 k_range 1 98 -3.7 3.7;
#X obj -24 509 k_range 1 98 -3.7 3.7;
#X obj -408 31 translateXYZ 0 -3 0;
#X floatatom -193 296 5 0 0 0 - - -;
#X obj -193 322 expr ($f1*2)+1;
#X obj -178 145 f;
#X obj -149 145 + 1;
#X obj -121 144 % 200;
#X obj -178 222 % 100;
#X obj -193 249 + 0;
#X obj -193 272 % 100;
#X floatatom -178 167 5 0 0 0 - - -;
#X obj -408 53 t a a b;
#X obj -360 311 t f f f;
#X obj -277 319 sel 0 99;
#X msg -277 343 0;
#X msg -245 343 2;
#X floatatom 123 307 5 0 0 0 - - -;
#X floatatom 150 519 5 0 0 0 - - -;
#X obj 123 348 t f f;
#X obj 150 377 expr if($f1%2==0 \, 1 \, 2);
#X obj 150 403 gate 2;
#X floatatom 183 455 5 0 0 0 - - -;
#X obj 183 485 * 2;
#X msg 150 441 0;
#X obj 198 314 sel 0 2 198 199;
#X msg 198 338 0;
#X msg 213 486 2;
#X obj 123 258 +;
#X obj 123 282 % 200;
#X obj 138 232 * 2;
#X obj -34 363 t f f f;
#X obj 183 428 tabread fre;
#X obj -144 260 % 200;
#X obj -144 211 * 2;
#X obj -144 235 + 47;
#X obj -144 283 v \$0-fre;
#X obj -178 107 r 2another;
#X obj -178 190 t f f f;
#X obj -113 303 s 2sound;
#X connect 0 0 37 0;
#X connect 1 0 43 0;
#X connect 4 0 2 0;
#X connect 4 1 21 0;
#X connect 4 2 3 0;
#X connect 5 0 16 0;
#X connect 5 1 35 0;
#X connect 6 0 22 0;
#X connect 7 0 76 0;
#X connect 8 0 9 0;
#X connect 8 0 58 0;
#X connect 9 0 14 0;
#X connect 10 0 17 0;
#X connect 10 1 8 0;
#X connect 13 0 11 0;
#X connect 13 1 15 0;
#X connect 13 2 12 0;
#X connect 14 0 8 1;
#X connect 15 0 10 0;
#X connect 18 0 47 0;
#X connect 19 0 38 0;
#X connect 20 0 32 0;
#X connect 21 0 5 0;
#X connect 22 0 35 1;
#X connect 23 0 33 0;
#X connect 24 0 26 0;
#X connect 25 0 45 0;
#X connect 26 0 27 0;
#X connect 26 1 28 0;
#X connect 27 0 45 0;
#X connect 28 0 25 0;
#X connect 28 1 29 0;
#X connect 29 0 45 0;
#X connect 30 0 41 0;
#X connect 31 0 46 0;
#X connect 32 0 12 1;
#X connect 33 0 17 2;
#X connect 34 0 36 0;
#X connect 35 0 6 0;
#X connect 35 0 7 0;
#X connect 36 0 13 0;
#X connect 37 0 34 0;
#X connect 38 0 3 1;
#X connect 39 0 31 0;
#X connect 39 1 40 0;
#X connect 40 0 30 0;
#X connect 40 1 42 0;
#X connect 41 0 46 0;
#X connect 42 0 46 0;
#X connect 43 0 4 0;
#X connect 44 0 23 0;
#X connect 45 0 17 1;
#X connect 46 0 16 1;
#X connect 47 0 57 0;
#X connect 48 0 49 0;
#X connect 49 0 44 0;
#X connect 50 0 51 0;
#X connect 50 0 56 0;
#X connect 51 0 52 0;
#X connect 52 0 50 1;
#X connect 53 0 54 1;
#X connect 54 0 55 0;
#X connect 55 0 48 0;
#X connect 56 0 83 0;
#X connect 57 0 0 0;
#X connect 57 1 1 0;
#X connect 58 0 24 0;
#X connect 58 1 54 0;
#X connect 58 2 59 0;
#X connect 59 0 60 0;
#X connect 59 1 60 0;
#X connect 59 2 61 0;
#X connect 60 0 33 1;
#X connect 61 0 33 1;
#X connect 62 0 64 0;
#X connect 63 0 16 2;
#X connect 64 0 66 1;
#X connect 64 1 65 0;
#X connect 65 0 66 0;
#X connect 66 0 69 0;
#X connect 66 1 77 0;
#X connect 67 0 68 0;
#X connect 68 0 63 0;
#X connect 69 0 63 0;
#X connect 70 0 71 0;
#X connect 70 1 71 0;
#X connect 70 2 71 0;
#X connect 70 3 71 0;
#X connect 70 4 72 0;
#X connect 71 0 68 1;
#X connect 72 0 68 1;
#X connect 73 0 74 0;
#X connect 74 0 62 0;
#X connect 75 0 73 1;
#X connect 76 0 39 0;
#X connect 76 1 73 0;
#X connect 76 2 70 0;
#X connect 77 0 67 0;
#X connect 78 0 81 0;
#X connect 78 0 84 0;
#X connect 79 0 80 0;
#X connect 80 0 78 0;
#X connect 82 0 50 0;
#X connect 83 0 53 0;
#X connect 83 1 75 0;
#X connect 83 2 79 0;
#X restore -358 113 pd shape2;
#X obj -266 31 gemmouse 1 1;
#X obj -266 54 expr ($f1*8)-4;
#X obj -249 78 expr ($f1*-8)+4;
#X obj -208 103 s mouseLeft;
#X obj -249 117 v yy;
#X obj -273 153 pack f f;
#X obj -273 176 s mousePos;
#N canvas 553 246 755 518 control1 0;
#X obj -367 382 gemhead 100;
#X obj -367 456 rectangle 0.025 1;
#X obj -367 408 translateXYZ -2 2.2 0;
#X obj -173 394 circle 0.1;
#X obj -200 246 gemhead 200;
#X obj -200 296 t a a;
#X obj -173 321 separator;
#X obj -200 342 separator;
#X obj -200 426 color 1 1 1;
#X obj -119 424 loadbang;
#X obj -200 452 circle 0.12;
#X msg -119 446 draw line \, width 2;
#X obj -200 272 translateXYZ -2 2.2 0;
#X obj -173 366 color 0.67 0.6 0.1;
#X floatatom -53 163 5 0 0 0 - - -;
#X obj -53 141 spigot;
#X obj 1 355 v \$0-amp;
#X obj -21 405 tabwrite amp;
#X obj -21 331 t f b;
#X obj -67 59 gemhead;
#X obj -67 81 t b;
#X obj -67 107 v yy;
#X floatatom 1 380 5 0 0 0 - - -;
#X obj 92 363 v \$0-amp;
#X obj 71 450 tabwrite amp;
#X obj 72 340 t f b;
#X floatatom 93 416 5 0 0 0 - - -;
#X obj 92 386 - 1;
#X obj 138 421 expr if($f1<0 \, 199 \, $f1);
#X obj -19 109 tgl 15 0 empty empty empty 17 7 0 10 -262144 -1 -1 0
1;
#X obj -367 429 color 1 1 1;
#X obj -277 361 sel 0 1;
#X msg -278 385 1 1 1;
#X msg -232 384 1 1 0;
#X obj 10 145 k_event 0 1.1;
#X obj 88 165 k_event 1.1 3.1;
#X obj -53 208 f;
#X msg 8 170 1.1;
#X msg 146 193 3.1;
#X obj -19 57 r mouseLeft;
#X obj -19 82 expr if($f1+$f2==2 \, 1 \, 0);
#X obj 128 58 tgl 15 0 empty empty empty 17 7 0 10 -262144 -1 -1 0
1;
#X obj 41 224 loadbang;
#X msg 41 246 2.2;
#X obj -21 309 k_range 1.11 3.1 0 1;
#X obj -212 151 square 1;
#X obj -212 76 gemhead 500;
#X msg -284 121 draw line;
#X obj -177 54 r mousePos;
#X obj -212 115 k_btn -2 2.2 0.3 1.2;
#X connect 0 0 2 0;
#X connect 2 0 30 0;
#X connect 4 0 12 0;
#X connect 5 0 7 0;
#X connect 5 1 6 0;
#X connect 6 0 13 0;
#X connect 7 0 8 0;
#X connect 8 0 10 0;
#X connect 9 0 11 0;
#X connect 11 0 10 0;
#X connect 12 0 5 0;
#X connect 13 0 3 0;
#X connect 14 0 34 0;
#X connect 15 0 14 0;
#X connect 16 0 22 0;
#X connect 18 0 17 0;
#X connect 18 1 16 0;
#X connect 19 0 20 0;
#X connect 20 0 21 0;
#X connect 21 0 15 0;
#X connect 22 0 17 1;
#X connect 23 0 27 0;
#X connect 25 0 24 0;
#X connect 25 1 23 0;
#X connect 26 0 24 1;
#X connect 27 0 28 0;
#X connect 28 0 26 0;
#X connect 29 0 15 1;
#X connect 29 0 31 0;
#X connect 30 0 1 0;
#X connect 31 0 32 0;
#X connect 31 1 33 0;
#X connect 32 0 30 1;
#X connect 33 0 30 1;
#X connect 34 0 37 0;
#X connect 34 1 35 0;
#X connect 35 0 36 0;
#X connect 35 1 38 0;
#X connect 36 0 44 0;
#X connect 36 0 12 2;
#X connect 37 0 36 0;
#X connect 38 0 36 0;
#X connect 39 0 40 0;
#X connect 40 0 29 0;
#X connect 41 0 40 1;
#X connect 42 0 43 0;
#X connect 43 0 36 0;
#X connect 44 0 18 0;
#X connect 44 0 25 0;
#X connect 46 0 49 0;
#X connect 47 0 45 0;
#X connect 48 0 49 1;
#X connect 49 1 41 0;
#X restore -357 34 pd control1;
#N canvas 715 211 562 524 control2 0;
#X obj 16 85 gemhead 100;
#X obj 16 155 rectangle 0.025 1;
#X obj 43 328 circle 0.1;
#X obj 43 300 color 0 0.74 0.28;
#X obj 16 180 gemhead 200;
#X obj 16 232 t a a;
#X obj 43 255 separator;
#X obj 16 276 separator;
#X obj 16 360 color 1 1 1;
#X obj 97 358 loadbang;
#X obj 16 386 circle 0.12;
#X msg 97 380 draw line \, width 2;
#X obj 16 206 translateXYZ -2 -1.8 0;
#X obj 16 111 translateXYZ -2 -1.8 0;
#X obj 16 132 color 1 1 1;
#X floatatom 217 122 5 0 0 0 - - -;
#X obj 217 100 spigot;
#X obj 249 290 t f b;
#X obj 217 -40 gemhead;
#X obj 217 -18 t b;
#X obj 217 8 v yy;
#X floatatom 271 339 5 0 0 0 - - -;
#X obj 342 299 t f b;
#X floatatom 363 375 5 0 0 0 - - -;
#X obj 362 345 - 1;
#X obj 408 380 expr if($f1<0 \, 199 \, $f1);
#X obj 250 71 tgl 15 0 empty empty empty 17 7 0 10 -262144 -1 -1 0
1;
#X obj 217 167 f;
#X obj 99 59 sel 0 1;
#X msg 98 83 1 1 1;
#X msg 144 82 1 1 0;
#X obj 358 124 split -2.9 -0.7;
#X obj 280 104 k_event -4 -2.9;
#X msg 280 129 -2.9;
#X msg 445 149 -0.7;
#X obj 362 322 v \$0-fre;
#X obj 271 314 v \$0-fre;
#X obj 249 364 tabwrite fre;
#X obj 341 409 tabwrite fre;
#X obj 250 15 r mouseLeft;
#X obj 250 40 expr if($f1+$f2==2 \, 1 \, 0);
#X obj 301 191 loadbang;
#X msg 301 213 -1.8;
#X obj 286 -42 gemhead 500;
#X obj 323 -64 r mousePos;
#X obj 249 268 k_range -2.91 -0.71 0 1;
#X obj 286 -4 k_btn -2 -1.8 0.3 1.2;
#X connect 0 0 13 0;
#X connect 3 0 2 0;
#X connect 4 0 12 0;
#X connect 5 0 7 0;
#X connect 5 1 6 0;
#X connect 6 0 3 0;
#X connect 7 0 8 0;
#X connect 8 0 10 0;
#X connect 9 0 11 0;
#X connect 11 0 10 0;
#X connect 12 0 5 0;
#X connect 13 0 14 0;
#X connect 14 0 1 0;
#X connect 15 0 32 0;
#X connect 16 0 15 0;
#X connect 17 0 37 0;
#X connect 17 1 36 0;
#X connect 18 0 19 0;
#X connect 19 0 20 0;
#X connect 20 0 16 0;
#X connect 21 0 37 1;
#X connect 22 0 38 0;
#X connect 22 1 35 0;
#X connect 23 0 38 1;
#X connect 24 0 25 0;
#X connect 25 0 23 0;
#X connect 26 0 16 1;
#X connect 26 0 28 0;
#X connect 27 0 12 2;
#X connect 27 0 45 0;
#X connect 28 0 29 0;
#X connect 28 1 30 0;
#X connect 29 0 14 1;
#X connect 30 0 14 1;
#X connect 31 0 27 0;
#X connect 31 1 34 0;
#X connect 32 0 33 0;
#X connect 32 1 31 0;
#X connect 33 0 27 0;
#X connect 34 0 27 0;
#X connect 35 0 24 0;
#X connect 36 0 21 0;
#X connect 39 0 40 0;
#X connect 40 0 26 0;
#X connect 41 0 42 0;
#X connect 42 0 27 0;
#X connect 43 0 46 0;
#X connect 44 0 46 1;
#X connect 45 0 17 0;
#X connect 45 0 22 0;
#X connect 46 1 40 1;
#X restore -358 60 pd control2;
#X obj -68 77 tabread~ fre;
#X obj -68 101 expr~ ($v1*1000)+100;
#X obj -37 155 tabread~ amp;
#X obj -68 157 *~;
#X obj -68 202 dac~;
#X obj -283 326 GEMglEnd;
#X obj -225 295 GEMglBegin;
#X obj -283 295 t a a a;
#X obj -264 376 t a b;
#X obj -209 405 + 1;
#X obj -264 435 GEMglVertex3f 0 0 0;
#X obj -168 213 loadbang;
#X obj -264 350 repeat 200;
#X obj -180 405 % 200;
#X obj -237 406 f 0;
#X obj -195 366 k_range 0 199 -3.7 3.7;
#X obj -173 341 t f f;
#X obj -283 267 color 1 1 1;
#N canvas 0 22 450 278 (subpatch) 0;
#X array wave 200 float 3;
#A 0 0 0 0 0 0 0 0 0 0 0 0 0 0 0 0 0 0 0 0 0 0 0 0 0 0 0 0 0 0 0 0
0 0 0 0 0 0 0 0 0 0 0 0 0 0 0 0 0 0 0 0 0 0 0 0 0 0 0 0 0 0 0 0 0 0
0 0 0 0 0 0 0 0 0 0 0 0 0 0 0 0 0 0 0 0 0 0 0 0 0 0 0 0 0 0 0 0 0 0
0 0 0 0 0 0 0 0 0 0 0 0 0 0 0 0 0 0 0 0 0 0 0 0 0 0 0 0 0 0 0 0 0 0
0 0 0 0 0 0 0 0 0 0 0 0 0 0 0 0 0 0 0 0 0 0 0 0 0 0 0 0 0 0 0 0 0 0
0 0 0 0 0 0 0 0 0 0 0 0 0 0 0 0 0 0 0 0 0 0 0 0 0 0 0 0 0 0 0 0 0;
#X coords 0 1 199 -1 100 50 1 0 0;
#X restore -56 -100 graph;
#X obj -33 227 tabwrite~ wave;
#X obj 57 133 gemhead;
#X obj 57 157 t b;
#X obj -146 389 tabread wave;
#X msg -168 236 0;
#X obj -69 26 r 2sound;
#X obj -69 53 sig~ 1;
#X obj -68 133 osc~;
#X obj -283 214 gemhead 500;
#X obj -146 411 * 0.6;
#X obj -19 329 text2d;
#X obj 57 245 loadbang;
#X obj -19 266 gemhead 600;
#X msg 57 268 text Amp;
#X obj -19 303 translateXYZ -3.39 0.81 0;
#X obj -7 445 text2d;
#X obj 69 361 loadbang;
#X obj -7 382 gemhead 600;
#X msg 69 384 text Fre;
#X obj -7 419 translateXYZ -3.39 -3.19 0;
#X obj -260 -8 declare -path /Users/aluan/AVLab/av6;
#X obj -370 -95 loadbang;
#X msg 49 19 \; amp const 0 \; fre const 0 \;;
#X msg -372 -45 reset \, dimen 500 500 \, border 0 \, offset 100 100
\, FSAA 4 \, color 0.45 0.45 0.26 \, create \, 1;
#X connect 0 0 3 0;
#X connect 6 0 7 0;
#X connect 6 1 8 0;
#X connect 6 2 9 0;
#X connect 7 0 11 0;
#X connect 8 0 10 0;
#X connect 8 0 11 1;
#X connect 11 0 12 0;
#X connect 15 0 16 0;
#X connect 16 0 41 0;
#X connect 17 0 18 1;
#X connect 18 0 19 0;
#X connect 18 0 19 1;
#X connect 18 0 34 0;
#X connect 22 0 20 0;
#X connect 22 1 27 0;
#X connect 22 2 21 0;
#X connect 23 0 25 0;
#X connect 23 1 29 0;
#X connect 24 0 28 0;
#X connect 26 0 38 0;
#X connect 27 0 23 0;
#X connect 28 0 29 1;
#X connect 29 0 24 0;
#X connect 29 0 31 0;
#X connect 30 0 25 1;
#X connect 31 0 30 0;
#X connect 31 1 37 0;
#X connect 32 0 22 0;
#X connect 35 0 36 0;
#X connect 36 0 34 0;
#X connect 37 0 43 0;
#X connect 38 0 21 1;
#X connect 39 0 40 0;
#X connect 40 0 15 0;
#X connect 40 0 17 0;
#X connect 41 0 18 0;
#X connect 42 0 32 0;
#X connect 43 0 25 2;
#X connect 45 0 47 0;
#X connect 46 0 48 0;
#X connect 47 0 44 0;
#X connect 48 0 44 0;
#X connect 50 0 52 0;
#X connect 51 0 53 0;
#X connect 52 0 49 0;
#X connect 53 0 49 0;
#X connect 55 0 57 0;
#X connect 55 0 56 0;
#X connect 57 0 3 0;
