#N canvas 570 230 828 560 10;
#X obj 99 137 gemwin;
#X msg 80 81 destroy;
#X obj 80 54 sel 0 1;
#X obj 80 33 tgl 15 0 empty empty empty 17 7 0 10 -262144 -1 -1 1 1
;
#N canvas 577 177 606 450 draw-rect 0;
#X obj 75 56 gemhead;
#X obj 75 5 r mouseLeft;
#X obj 75 195 square;
#X obj 75 118 translateXYZ;
#X obj 75 169 color 1 0 0;
#X obj -44 147 loadbang;
#X msg -44 168 draw line \, width 2;
#X obj 75 29 t f f f;
#X obj 269 -50 sel 1;
#X obj 269 2 v x;
#X obj 296 2 v y;
#X obj 269 -26 t b b;
#X obj 161 45 expr ($f1+$f2)/2;
#X obj 222 66 expr ($f1+$f2)/2;
#X obj 161 -16 r mousePos;
#X obj 161 17 unpack f f;
#X obj 75 142 scaleXYZ 1 1 1;
#X obj 197 154 max;
#X obj 228 154 min;
#X obj 261 154 max;
#X obj 292 154 min;
#X obj 197 110 t f f;
#X obj 260 109 t f f;
#X obj 197 183 -;
#X obj 261 179 -;
#X floatatom 197 205 5 0 0 0 - - -, f 5;
#X floatatom 261 199 5 0 0 0 - - -, f 5;
#X obj 197 225 / 2;
#X obj 261 223 / 2;
#X connect 0 0 3 0;
#X connect 1 0 7 0;
#X connect 3 0 16 0;
#X connect 4 0 2 0;
#X connect 5 0 6 0;
#X connect 6 0 2 0;
#X connect 7 0 0 0;
#X connect 7 2 8 0;
#X connect 8 0 11 0;
#X connect 9 0 12 1;
#X connect 9 0 17 1;
#X connect 9 0 18 1;
#X connect 10 0 13 1;
#X connect 10 0 20 1;
#X connect 10 0 19 1;
#X connect 11 0 9 0;
#X connect 11 1 10 0;
#X connect 12 0 3 1;
#X connect 13 0 3 2;
#X connect 14 0 15 0;
#X connect 15 0 12 0;
#X connect 15 0 21 0;
#X connect 15 1 13 0;
#X connect 15 1 22 0;
#X connect 16 0 4 0;
#X connect 17 0 23 0;
#X connect 18 0 23 1;
#X connect 19 0 24 0;
#X connect 20 0 24 1;
#X connect 21 0 17 0;
#X connect 21 1 18 0;
#X connect 22 0 19 0;
#X connect 22 1 20 0;
#X connect 23 0 25 0;
#X connect 24 0 26 0;
#X connect 25 0 27 0;
#X connect 26 0 28 0;
#X connect 27 0 16 1;
#X connect 28 0 16 2;
#X restore 154 202 pd draw-rect;
#N canvas 911 262 455 426 mouseControl 0;
#X obj 12 31 gemmouse 1 1;
#X obj 12 113 expr ($f1*8)-4;
#X obj 81 93 s mouseRight;
#X obj 39 187 v x;
#X obj 77 186 v y;
#X obj 29 138 expr ($f1*-8)+4;
#X obj 12 235 s mousePos;
#X obj 12 209 pack f f;
#X obj 12 163 t f f;
#X obj 50 164 t f f;
#X obj 46 73 s mouseLeft;
#X obj 63 52 s mouseMiddle;
#X obj 182 119 v x;
#X obj 291 51 sel 1;
#X obj 291 103 v x;
#X obj 318 103 v y;
#X obj 291 75 t b b;
#X obj 137 167 expr ($f1+$f2)/2;
#X obj 178 195 expr ($f1+$f2)/2;
#X obj 248 256 max;
#X obj 279 256 min;
#X obj 312 256 max;
#X obj 343 256 min;
#X obj 248 212 t f f;
#X obj 311 211 t f f;
#X obj 248 285 -;
#X obj 312 281 -;
#X obj 248 307 / 2;
#X obj 312 305 / 2;
#X obj 209 119 v y;
#X obj 182 91 t b b;
#X obj 182 67 sel 0;
#X obj 182 17 r mouseLeft;
#X obj 182 39 t f f;
#X floatatom 248 334 5 0 0 0 - - -, f 5;
#X floatatom 312 328 5 0 0 0 - - -, f 5;
#X floatatom 137 189 5 0 0 0 - - -, f 5;
#X floatatom 178 219 5 0 0 0 - - -, f 5;
#X obj 128 259 pack f f f f;
#X obj 137 141 t f f;
#X obj 209 141 t f f;
#X obj 128 297 list prepend 0;
#X obj 128 324 s torect;
#X obj 291 -50 gemkeyboard;
#X floatatom 291 -24 5 0 0 0 - - -, f 5;
#X obj 291 0 sel 49;
#X obj 291 25 s all-close;
#X connect 0 0 1 0;
#X connect 0 1 5 0;
#X connect 0 2 10 0;
#X connect 0 3 11 0;
#X connect 0 4 2 0;
#X connect 1 0 8 0;
#X connect 5 0 9 0;
#X connect 7 0 6 0;
#X connect 8 0 7 0;
#X connect 8 1 3 0;
#X connect 9 0 7 1;
#X connect 9 1 4 0;
#X connect 12 0 39 0;
#X connect 13 0 16 0;
#X connect 14 0 17 1;
#X connect 14 0 19 1;
#X connect 14 0 20 1;
#X connect 15 0 18 1;
#X connect 15 0 22 1;
#X connect 15 0 21 1;
#X connect 16 0 14 0;
#X connect 16 1 15 0;
#X connect 17 0 36 0;
#X connect 18 0 37 0;
#X connect 19 0 25 0;
#X connect 20 0 25 1;
#X connect 21 0 26 0;
#X connect 22 0 26 1;
#X connect 23 0 19 0;
#X connect 23 1 20 0;
#X connect 24 0 21 0;
#X connect 24 1 22 0;
#X connect 25 0 27 0;
#X connect 26 0 28 0;
#X connect 27 0 34 0;
#X connect 28 0 35 0;
#X connect 29 0 40 0;
#X connect 30 0 12 0;
#X connect 30 1 29 0;
#X connect 31 0 30 0;
#X connect 32 0 33 0;
#X connect 33 0 31 0;
#X connect 33 1 13 0;
#X connect 34 0 38 2;
#X connect 35 0 38 3;
#X connect 36 0 38 0;
#X connect 37 0 38 1;
#X connect 38 0 41 0;
#X connect 39 0 17 0;
#X connect 39 1 23 0;
#X connect 40 0 18 0;
#X connect 40 1 24 0;
#X connect 41 0 42 0;
#X connect 43 0 44 0;
#X connect 44 0 45 0;
#X connect 45 0 46 0;
#X restore 154 176 pd mouseControl;
#X obj 80 9 loadbang;
#X obj 433 150 loadbang;
#X msg 433 175 \; pd dsp 1;
#X obj 313 421 loadbang;
#X obj 313 471 s last;
#X msg 313 445 18;
#X obj 41 419 linklink 8;
#X obj 36 235 linklink 0;
#X obj 37 258 linklink 1;
#X obj 38 282 linklink 2;
#X obj 39 305 linklink 3;
#X obj 39 327 linklink 4;
#X obj 40 350 linklink 5;
#X obj 40 372 linklink 6;
#X obj 41 396 linklink 7;
#X msg 99 103 reset \, FSAA 8 \, border 1 \, offset 100 100 \, color
0.3 0.4 0.6 \, create \, 1;
#X obj 135 389 division 6;
#X obj 444 236 catch~ l;
#X obj 572 254 catch~ r;
#X obj 493 456 dac~;
#X obj 136 234 division 0;
#X obj 226 231 division 7;
#X obj 136 260 division 1;
#X obj 136 286 division 2;
#X obj 225 407 division 14;
#X obj 225 359 division 12;
#X obj 226 333 division 11;
#X obj 135 312 division 3;
#X obj 135 338 division 4;
#X obj 135 363 division 5;
#X obj 226 257 division 8;
#X obj 226 283 division 9;
#X obj 225 309 division 10;
#X obj 225 383 division 13;
#X obj 225 430 division 15;
#X obj 225 454 division 16;
#X obj 226 477 division 17;
#X obj 226 501 division 18;
#X obj 435 289 k_vol;
#X obj 565 297 k_vol;
#X connect 1 0 0 0;
#X connect 2 0 1 0;
#X connect 2 1 21 0;
#X connect 3 0 2 0;
#X connect 6 0 3 0;
#X connect 7 0 8 0;
#X connect 9 0 11 0;
#X connect 11 0 10 0;
#X connect 21 0 0 0;
#X connect 23 0 44 0;
#X connect 24 0 45 0;
#X connect 44 0 25 0;
#X connect 45 0 25 1;
