#N canvas 672 215 467 391 10;
#X obj -33 118 gemhead;
#X obj 204 -29 r mouseLeft;
#X obj 26 -43 route \$1;
#X obj 26 -71 r torect;
#X obj -33 41 init \$1;
#X msg -33 91 set \$1;
#X obj -33 67 + 1;
#X obj 204 -3 sel 1;
#X msg 204 21 0;
#X obj 26 -16 t b a b;
#X obj 160 110 init \$1;
#X obj 160 138 % 2;
#X obj 90 160 spigot;
#X obj 123 184 init \$1;
#X obj 90 242 spigot;
#N canvas 553 210 647 509 shape 0;
#X obj 93 35 inlet;
#X obj 93 141 square;
#X obj 1 156 loadbang;
#X obj 93 66 t a a;
#X obj 246 443 square;
#X obj 93 115 color 1 1 1;
#X obj 469 21 init \$1;
#X msg 469 67 \$1 \$1 \$1;
#X obj 120 174 separator;
#X obj 93 91 separator;
#X obj 469 44 expr 1-($f1/20);
#X msg 1 177 draw line \, width 1;
#X obj 120 195 pix_image tex.jpg;
#X obj 246 391 pix_texture;
#X obj 246 368 pix_crop;
#X obj 202 99 unpack f f f f;
#X obj 202 58 inlet;
#X floatatom 252 131 5 0 0 0 - - -, f 5;
#X floatatom 303 133 5 0 0 0 - - -, f 5;
#X obj 361 106 r torect;
#X obj 361 130 route 0;
#X obj 252 160 /;
#X obj 303 162 /;
#X floatatom 252 185 5 0 0 0 - - -, f 5;
#X floatatom 303 186 5 0 0 0 - - -, f 5;
#X obj 361 156 unpack f f f f;
#X obj 252 237 * 500;
#X obj 252 212 t f f;
#X obj 303 212 t f f;
#X obj 303 238 * 500;
#X floatatom 279 269 5 0 0 0 - - -, f 5;
#X floatatom 330 272 5 0 0 0 - - -, f 5;
#X obj 279 295 expr (1-$f1)* 500;
#X obj 330 319 expr (1-$f1)* 500;
#X obj 119 228 alpha 1;
#X msg 36 230 auto 1;
#X obj 246 417 colorRGB 1 1 1 0.5;
#X connect 0 0 3 0;
#X connect 2 0 11 0;
#X connect 2 0 35 0;
#X connect 3 0 9 0;
#X connect 3 1 8 0;
#X connect 5 0 1 0;
#X connect 6 0 10 0;
#X connect 8 0 12 0;
#X connect 9 0 5 0;
#X connect 10 0 7 0;
#X connect 11 0 1 0;
#X connect 12 0 34 0;
#X connect 13 0 36 0;
#X connect 14 0 13 0;
#X connect 15 2 17 0;
#X connect 15 3 18 0;
#X connect 16 0 15 0;
#X connect 17 0 21 0;
#X connect 18 0 22 0;
#X connect 19 0 20 0;
#X connect 20 0 25 0;
#X connect 21 0 23 0;
#X connect 22 0 24 0;
#X connect 23 0 27 0;
#X connect 24 0 28 0;
#X connect 25 2 21 1;
#X connect 25 3 22 1;
#X connect 26 0 14 1;
#X connect 27 0 26 0;
#X connect 27 1 30 0;
#X connect 28 0 29 0;
#X connect 28 1 31 0;
#X connect 29 0 14 2;
#X connect 30 0 32 0;
#X connect 31 0 33 0;
#X connect 32 0 14 3;
#X connect 33 0 14 4;
#X connect 34 0 14 0;
#X connect 35 0 34 0;
#X connect 36 0 4 0;
#X restore -33 213 pd shape;
#N canvas 650 371 376 338 decide 0;
#X obj 86 53 t f f;
#X obj 156 53 t f f;
#X obj 123 144 gate 2;
#X obj 53 136 gate 2;
#X obj 86 162 / 2;
#X obj 123 173 / 2;
#X obj 53 224 s \$0-sx;
#X obj 123 227 s \$0-sy;
#X floatatom 86 28 5 0 0 0 - - -, f 5;
#X floatatom 156 29 5 0 0 0 - - -, f 5;
#X floatatom 53 200 5 0 0 0 - - -, f 5;
#X floatatom 123 202 5 0 0 0 - - -, f 5;
#X floatatom 197 147 5 0 0 0 - - -, f 5;
#X obj 197 123 expr if($f1>$f2 \, 2 \, 1);
#X obj 197 171 s \$0-gate;
#X obj 123 112 r \$0-gate;
#X obj 53 107 r \$0-gate;
#X obj 86 74 pipe 1;
#X obj 156 75 pipe 1;
#X text 193 212 1=hight>width;
#X text 193 228 2=width>hight;
#X obj 32 -8 unpack f f f f;
#X obj 32 -34 inlet;
#X connect 0 0 17 0;
#X connect 0 1 13 0;
#X connect 1 0 18 0;
#X connect 1 1 13 1;
#X connect 2 0 5 0;
#X connect 2 1 11 0;
#X connect 3 0 10 0;
#X connect 3 1 4 0;
#X connect 4 0 10 0;
#X connect 5 0 11 0;
#X connect 8 0 0 0;
#X connect 9 0 1 0;
#X connect 10 0 6 0;
#X connect 11 0 7 0;
#X connect 12 0 14 0;
#X connect 13 0 12 0;
#X connect 15 0 2 0;
#X connect 16 0 3 0;
#X connect 17 0 3 1;
#X connect 18 0 2 1;
#X connect 21 2 8 0;
#X connect 21 3 9 0;
#X connect 22 0 21 0;
#X restore 92 64 pd decide w>h;
#X obj 125 43 s \$0-reset;
#N canvas 589 159 608 566 sendto-child 1;
#X obj 160 316 pack f f f f;
#X obj 404 284 init \$1;
#X obj 404 312 % 2;
#X obj 404 336 == 0;
#X obj 160 370 spigot;
#X obj 215 424 spigot;
#X obj 341 268 init \$1;
#X obj 341 292 t f f;
#X obj 341 317 + 1;
#X obj 368 316 + 2;
#X obj 160 344 list prepend 1;
#X obj 215 399 list prepend 2;
#X obj 215 370 pack f f f f;
#X obj 215 453 s torect;
#X obj 160 402 s torect;
#X obj 261 252 r \$0-sx;
#X obj 286 276 r \$0-sy;
#X obj 130 214 +;
#X obj 190 214 +;
#X obj 219 214 -;
#X obj 159 214 -;
#X obj 130 148 v \$0-x;
#X obj 130 121 t b f;
#X obj 194 157 t b f;
#N canvas 800 261 505 458 random-split 0;
#X obj 148 220 outlet;
#X obj 196 221 outlet;
#X obj 246 222 outlet;
#X obj 294 223 outlet;
#X obj 100 63 inlet;
#X obj 182 81 inlet;
#X obj 278 69 inlet;
#X obj 360 114 inlet;
#X obj 90 -48 random 2;
#X obj 90 -25 sel 0 1;
#X obj 67 141 gate 2;
#X obj 149 145 gate 2;
#X msg 90 2 1 2;
#X msg 109 24 2 1;
#X obj 90 86 unpack f f;
#X obj 245 147 gate 2;
#X obj 327 151 gate 2;
#X obj 262 96 unpack f f;
#X obj 244 -49 random 2;
#X obj 244 -26 sel 0 1;
#X msg 244 1 1 2;
#X msg 263 23 2 1;
#X floatatom 182 110 5 0 0 0 - - -, f 5;
#X floatatom 100 116 5 0 0 0 - - -, f 5;
#X obj 29 -126 r \$0-reset;
#X obj 29 -99 t b b;
#X connect 4 0 23 0;
#X connect 5 0 22 0;
#X connect 6 0 15 1;
#X connect 7 0 16 1;
#X connect 8 0 9 0;
#X connect 9 0 12 0;
#X connect 9 1 13 0;
#X connect 10 0 0 0;
#X connect 10 1 1 0;
#X connect 11 0 0 0;
#X connect 11 1 1 0;
#X connect 12 0 14 0;
#X connect 13 0 14 0;
#X connect 14 0 10 0;
#X connect 14 1 11 0;
#X connect 15 0 2 0;
#X connect 15 1 3 0;
#X connect 16 0 2 0;
#X connect 16 1 3 0;
#X connect 17 0 15 0;
#X connect 17 1 16 0;
#X connect 18 0 19 0;
#X connect 19 0 20 0;
#X connect 19 1 21 0;
#X connect 20 0 17 0;
#X connect 21 0 17 0;
#X connect 22 0 11 1;
#X connect 23 0 10 1;
#X connect 24 0 25 0;
#X connect 25 0 8 0;
#X connect 25 1 18 0;
#X restore 130 248 pd random-split;
#N canvas 828 388 570 389 choics&move 0;
#X obj 133 180 gate 2;
#X obj 45 174 gate 2;
#X msg 166 202 0;
#X msg 45 196 0;
#X floatatom 45 220 5 0 0 0 - - -, f 5;
#X floatatom 133 225 5 0 0 0 - - -, f 5;
#X obj 133 130 r \$0-gate;
#X obj 45 100 r \$0-gate;
#X obj 139 22 line;
#X obj 78 146 +;
#X obj 166 155 +;
#X obj 104 149 r \$0-sx;
#X obj 195 156 r \$0-sy;
#X obj 186 -79 inlet;
#X obj 45 252 outlet;
#X obj 133 251 outlet;
#X obj 254 243 s linkPos;
#X obj 287 37 init \$1;
#X obj 287 65 % 2;
#X obj 254 70 f \$1;
#X obj 254 154 spigot;
#X obj 254 182 list append;
#X obj 331 208 r \$0-gate;
#X obj 254 209 list append;
#X obj 287 89 == 0;
#X obj 254 98 / 2;
#X obj 287 15 bng 15 250 50 0 empty empty empty 17 7 0 10 -262144 -1
-1;
#X obj 287 120 tgl 15 0 empty empty empty 17 7 0 10 -262144 -1 -1 1
1;
#X obj 139 96 t f f;
#X obj 319 103 v \$0-x;
#X obj 364 102 v \$0-y;
#X obj 139 44 incirc;
#X obj 186 -52 del 50;
#X msg 139 0 0 \, 1 500;
#X obj 317 127 * 1;
#X obj 365 127 * 1;
#X obj 139 74 * 0.6;
#X obj 186 -32 t b b b b b;
#X obj 411 58 randomF 0.3;
#X obj 317 157 pack f f f;
#X obj 411 101 t f f;
#X obj 411 80 + 0.4;
#X connect 0 0 5 0;
#X connect 0 1 2 0;
#X connect 1 0 3 0;
#X connect 1 1 4 0;
#X connect 2 0 5 0;
#X connect 3 0 4 0;
#X connect 4 0 14 0;
#X connect 5 0 15 0;
#X connect 6 0 0 0;
#X connect 7 0 1 0;
#X connect 8 0 31 0;
#X connect 9 0 1 1;
#X connect 10 0 0 1;
#X connect 11 0 9 1;
#X connect 12 0 10 1;
#X connect 13 0 32 0;
#X connect 17 0 18 0;
#X connect 18 0 24 0;
#X connect 19 0 25 0;
#X connect 20 0 21 0;
#X connect 21 0 23 0;
#X connect 22 0 23 1;
#X connect 23 0 16 0;
#X connect 24 0 27 0;
#X connect 25 0 20 0;
#X connect 26 0 17 0;
#X connect 27 0 20 1;
#X connect 28 0 9 0;
#X connect 28 1 10 0;
#X connect 29 0 34 0;
#X connect 30 0 35 0;
#X connect 31 0 36 0;
#X connect 32 0 37 0;
#X connect 33 0 8 0;
#X connect 34 0 39 0;
#X connect 35 0 39 1;
#X connect 36 0 28 0;
#X connect 37 0 33 0;
#X connect 37 1 19 0;
#X connect 37 2 29 0;
#X connect 37 3 30 0;
#X connect 37 4 38 0;
#X connect 38 0 41 0;
#X connect 39 0 21 1;
#X connect 40 0 39 2;
#X connect 40 1 36 1;
#X connect 41 0 40 0;
#X restore 130 96 pd choics&move;
#X obj 175 45 unpack f f f f;
#X obj 124 -43 inlet;
#X obj 298 155 osc~ 0;
#X obj 298 39 r \$0-sx;
#X obj 372 56 r \$0-sy;
#X floatatom 298 63 5 0 0 0 - - -, f 5;
#X floatatom 372 77 5 0 0 0 - - -, f 5;
#X obj 298 186 *~;
#X obj 372 186 *~;
#X obj 298 218 throw~ l;
#X obj 372 218 throw~ r;
#X obj 372 105 * 2000;
#X obj 298 96 * 2000;
#X obj 372 156 osc~ 0;
#X obj 124 -16 t b b b a;
#X obj 190 183 v \$0-y;
#X obj 298 124 + 200;
#X obj 372 129 + 200;
#X obj 427 52 line~;
#X msg 427 30 1 \, 0 1000;
#X obj 427 100 *~ 0.15;
#X connect 0 0 10 0;
#X connect 1 0 2 0;
#X connect 2 0 3 0;
#X connect 3 0 4 1;
#X connect 3 0 5 1;
#X connect 4 0 14 0;
#X connect 5 0 13 0;
#X connect 6 0 7 0;
#X connect 7 0 8 0;
#X connect 7 1 9 0;
#X connect 8 0 10 1;
#X connect 9 0 11 1;
#X connect 10 0 4 0;
#X connect 11 0 5 0;
#X connect 12 0 11 0;
#X connect 15 0 0 2;
#X connect 15 0 12 2;
#X connect 16 0 0 3;
#X connect 16 0 12 3;
#X connect 17 0 24 0;
#X connect 18 0 24 2;
#X connect 19 0 24 3;
#X connect 20 0 24 1;
#X connect 21 0 17 0;
#X connect 21 0 20 0;
#X connect 22 0 21 0;
#X connect 22 1 17 1;
#X connect 22 1 20 1;
#X connect 23 0 41 0;
#X connect 23 1 19 1;
#X connect 23 1 18 1;
#X connect 24 0 0 0;
#X connect 24 1 12 0;
#X connect 24 2 0 1;
#X connect 24 3 12 1;
#X connect 25 0 22 0;
#X connect 25 1 23 0;
#X connect 26 0 21 0;
#X connect 26 1 41 0;
#X connect 27 0 40 0;
#X connect 28 0 33 0;
#X connect 29 0 31 0;
#X connect 30 0 32 0;
#X connect 31 0 38 0;
#X connect 32 0 37 0;
#X connect 33 0 35 0;
#X connect 34 0 36 0;
#X connect 37 0 43 0;
#X connect 38 0 42 0;
#X connect 39 0 34 0;
#X connect 40 1 25 0;
#X connect 40 2 45 0;
#X connect 40 3 26 0;
#X connect 41 0 18 0;
#X connect 41 0 19 0;
#X connect 42 0 28 0;
#X connect 43 0 39 0;
#X connect 44 0 46 0;
#X connect 45 0 44 0;
#X connect 46 0 33 1;
#X connect 46 0 34 1;
#X restore 76 85 pd sendto-child;
#X obj 191 -58 r all-close;
#N canvas 716 105 314 472 pos*size 0;
#X obj 24 260 translateXYZ;
#X obj 23 365 scaleXYZ 0 0 1;
#X obj 85 139 unpack f f f f;
#X floatatom 49 197 5 0 0 0 - - -, f 5;
#X floatatom 94 195 5 0 0 0 - - -, f 5;
#X obj 85 98 inlet;
#X obj 10 74 inlet;
#X obj 23 395 outlet;
#X obj 10 138 separator;
#X obj 28 316 rotateXYZ;
#X floatatom 101 311 5 0 0 0 - - -, f 5;
#X obj 176 284 r \$0-motion;
#X obj 175 310 * 90;
#X obj 138 339 r \$0-reset;
#X msg 137 361 0;
#X obj 202 156 init \$1;
#X obj 202 183 % 2;
#X obj 202 207 sel 0 1;
#X msg 202 227 -90;
#X msg 216 253 90;
#X connect 0 0 9 0;
#X connect 1 0 7 0;
#X connect 2 0 3 0;
#X connect 2 1 4 0;
#X connect 2 2 1 1;
#X connect 2 3 1 2;
#X connect 3 0 0 1;
#X connect 4 0 0 2;
#X connect 5 0 2 0;
#X connect 6 0 8 0;
#X connect 8 0 0 0;
#X connect 9 0 1 0;
#X connect 10 0 9 3;
#X connect 11 0 12 0;
#X connect 12 0 10 0;
#X connect 13 0 14 0;
#X connect 14 0 10 0;
#X connect 15 0 16 0;
#X connect 16 0 17 0;
#X connect 17 0 18 0;
#X connect 17 1 19 0;
#X connect 18 0 12 1;
#X connect 19 0 12 1;
#X restore -33 186 pd pos*size;
#X obj 14 146 r \$0-tgk;
#X obj 90 288 s \$0-tgk;
#X obj -33 145 spigot;
#X obj 204 44 s \$0-tgk;
#X obj 45 17 t a a a a b;
#X obj 125 19 onebang;
#X obj 160 162 == 0;
#X obj 123 141 tgl 15 0 empty empty empty 17 7 0 10 -262144 -1 -1 1
1;
#X msg 97 -40 1;
#X obj 97 -15 s \$0-tgk;
#X obj 90 120 del 51;
#X obj 123 208 != 14;
#X msg 90 264 0;
#X obj 179 212 r last;
#X obj 179 239 t b f;
#X obj 138 241 tgl 15 0 empty empty empty 17 7 0 10 -262144 -1 -1 1
1;
#X obj 251 189 line;
#X obj 251 238 s \$0-motion;
#X msg 251 167 0 \, 1 800;
#X obj 251 144 del 550;
#X connect 0 0 23 0;
#X connect 1 0 7 0;
#X connect 2 0 9 0;
#X connect 3 0 2 0;
#X connect 4 0 6 0;
#X connect 5 0 0 0;
#X connect 6 0 5 0;
#X connect 7 0 8 0;
#X connect 7 0 26 1;
#X connect 8 0 24 0;
#X connect 9 0 31 0;
#X connect 9 1 25 0;
#X connect 9 2 29 0;
#X connect 10 0 11 0;
#X connect 11 0 27 0;
#X connect 12 0 14 0;
#X connect 13 0 32 0;
#X connect 14 0 33 0;
#X connect 19 0 8 0;
#X connect 20 0 15 0;
#X connect 21 0 23 1;
#X connect 23 0 20 0;
#X connect 25 0 15 1;
#X connect 25 1 20 1;
#X connect 25 2 18 0;
#X connect 25 3 16 0;
#X connect 25 4 26 0;
#X connect 26 0 17 0;
#X connect 26 0 40 0;
#X connect 27 0 28 0;
#X connect 28 0 12 1;
#X connect 29 0 30 0;
#X connect 31 0 12 0;
#X connect 32 0 36 0;
#X connect 33 0 22 0;
#X connect 34 0 35 0;
#X connect 35 0 13 0;
#X connect 35 1 32 1;
#X connect 36 0 14 1;
#X connect 37 0 38 0;
#X connect 39 0 37 0;
#X connect 40 0 39 0;
