#N canvas 192 103 763 639 10;
#X obj -35 376 curve 2;
#X obj -35 207 separator;
#X obj 100 152 separator;
#X obj 258 170 separator;
#X obj 100 285 t a a;
#X obj 100 313 color 0 0 0;
#X obj 145 264 loadbang;
#X msg 145 288 draw line;
#X obj 100 240 translateXYZ;
#X obj 258 295 t a a;
#X obj 258 323 color 0 0 0;
#X obj 320 273 loadbang;
#X msg 320 297 draw line;
#X obj 258 250 translateXYZ;
#X obj -7 308 pack f f 0;
#X obj 16 377 pack f f 0;
#X floatatom 250 48 5 0 0 0 - - -;
#X floatatom 299 49 5 0 0 0 - - -;
#X obj -66 5 r mouseLeft;
#X obj -66 31 sel 1;
#X msg -66 55 0;
#X obj -25 30 loadbang;
#X obj -121 271 loadbang;
#X obj -35 238 color 0 0 0;
#X obj 100 336 circle 0.04;
#X obj 258 346 circle 0.04;
#X obj 399 431 +;
#X obj 477 433 +;
#X obj 506 433 -;
#X obj 428 431 -;
#X text -68 101 1=hight>width \, up to down;
#X text -68 117 2=width>hight \, left to right;
#X obj 382 205 line;
#X obj 382 272 t f f;
#X obj 382 159 sel 1;
#X obj 410 312 spigot;
#X obj 488 317 spigot;
#X msg 443 232 0 1;
#X obj 443 209 sel 1 2;
#X msg 462 254 1 0;
#X obj 443 282 unpack f f;
#X obj 399 478 s \$0-x1;
#X obj 428 498 s \$0-x2;
#X obj 123 182 r \$0-x1;
#X obj 146 205 r \$0-y1;
#X obj 281 217 r \$0-x2;
#X obj 304 196 r \$0-y2;
#X obj 261 97 s \$0-x1;
#X obj 272 122 s \$0-x2;
#X obj 310 98 s \$0-y1;
#X obj 321 123 s \$0-y2;
#X obj 477 491 s \$0-y1;
#X obj 506 517 s \$0-y2;
#X obj -7 259 r \$0-x1;
#X obj 21 281 r \$0-y1;
#X obj 16 352 r \$0-x2;
#X obj 44 330 r \$0-y2;
#X obj 195 -76 r linkPos;
#X obj 195 -48 route \$1;
#X obj 100 77 gemhead 400;
#X msg -121 297 draw point \, res 10;
#X floatatom 443 184 5 0 0 0 - - -;
#X obj 399 401 t f f;
#X obj 477 404 t f f;
#X floatatom 399 452 5 0 0 0 - - -;
#X floatatom 428 456 5 0 0 0 - - -;
#X floatatom 477 458 5 0 0 0 - - -;
#X floatatom 506 462 5 0 0 0 - - -;
#X obj 250 24 unpack f f f;
#X msg 195 28 1;
#X obj 195 50 s \$0-tgk;
#X obj 382 125 r \$0-tgk;
#X obj 250 71 v \$0_xx;
#X obj 299 72 v \$0_yy;
#X obj 477 382 v \$0_yy;
#X obj 399 375 v \$0_xx;
#X obj 100 104 t a a a b;
#X obj 399 350 t b b;
#X obj 195 -27 t b a b;
#X obj 234 0 s \$0-reset;
#X obj 536 356 r \$0-reset;
#X msg 536 378 0;
#X obj 127 392 circle 0.04;
#X obj 285 403 circle 0.04;
#X obj 127 363 color 0.6 0.6 0.6;
#X obj 285 373 color 0.6 0.6 0.6;
#X obj 100 54 tgl 15 0 empty empty empty 17 7 0 10 -262144 -1 -1 1
1;
#X obj -66 78 s \$0-tgk;
#X obj 100 32 r \$0-tgk;
#X obj 382 231 incirc;
#X obj 382 252 * 0.25;
#X msg 382 183 0 \, 1 450;
#X obj -85 -22 r all-close;
#X connect 1 0 23 0;
#X connect 2 0 8 0;
#X connect 3 0 13 0;
#X connect 4 0 5 0;
#X connect 4 1 84 0;
#X connect 5 0 24 0;
#X connect 6 0 7 0;
#X connect 7 0 24 0;
#X connect 8 0 4 0;
#X connect 9 0 10 0;
#X connect 9 1 85 0;
#X connect 10 0 25 0;
#X connect 11 0 12 0;
#X connect 12 0 25 0;
#X connect 13 0 9 0;
#X connect 14 0 0 1;
#X connect 15 0 0 2;
#X connect 16 0 47 0;
#X connect 16 0 48 0;
#X connect 16 0 72 0;
#X connect 17 0 49 0;
#X connect 17 0 50 0;
#X connect 17 0 73 0;
#X connect 18 0 19 0;
#X connect 19 0 20 0;
#X connect 20 0 87 0;
#X connect 21 0 20 0;
#X connect 22 0 60 0;
#X connect 23 0 0 0;
#X connect 26 0 64 0;
#X connect 27 0 66 0;
#X connect 28 0 67 0;
#X connect 29 0 65 0;
#X connect 32 0 89 0;
#X connect 33 0 35 0;
#X connect 33 1 36 0;
#X connect 34 0 91 0;
#X connect 35 0 26 1;
#X connect 35 0 29 1;
#X connect 36 0 27 1;
#X connect 36 0 28 1;
#X connect 37 0 40 0;
#X connect 38 0 37 0;
#X connect 38 1 39 0;
#X connect 39 0 40 0;
#X connect 40 0 35 1;
#X connect 40 1 36 1;
#X connect 43 0 8 1;
#X connect 44 0 8 2;
#X connect 45 0 13 1;
#X connect 46 0 13 2;
#X connect 53 0 14 0;
#X connect 54 0 14 1;
#X connect 55 0 15 0;
#X connect 56 0 15 1;
#X connect 57 0 58 0;
#X connect 58 0 78 0;
#X connect 59 0 76 0;
#X connect 60 0 0 0;
#X connect 61 0 38 0;
#X connect 62 0 26 0;
#X connect 62 1 29 0;
#X connect 63 0 27 0;
#X connect 63 1 28 0;
#X connect 64 0 41 0;
#X connect 65 0 42 0;
#X connect 66 0 51 0;
#X connect 67 0 52 0;
#X connect 68 0 16 0;
#X connect 68 1 17 0;
#X connect 68 2 61 0;
#X connect 69 0 70 0;
#X connect 71 0 34 0;
#X connect 74 0 63 0;
#X connect 75 0 62 0;
#X connect 76 0 2 0;
#X connect 76 1 3 0;
#X connect 76 2 1 0;
#X connect 76 3 77 0;
#X connect 77 0 75 0;
#X connect 77 1 74 0;
#X connect 78 0 69 0;
#X connect 78 1 68 0;
#X connect 78 2 79 0;
#X connect 80 0 81 0;
#X connect 81 0 28 1;
#X connect 81 0 27 1;
#X connect 81 0 26 1;
#X connect 81 0 29 1;
#X connect 84 0 82 0;
#X connect 85 0 83 0;
#X connect 86 0 59 0;
#X connect 88 0 86 0;
#X connect 89 0 90 0;
#X connect 90 0 33 0;
#X connect 91 0 32 0;
#X connect 92 0 20 0;
