#N canvas 613 54 806 720 10;
#X obj -35 376 curve 2;
#X obj -35 207 separator;
#X obj 100 152 separator;
#X obj 258 170 separator;
#X obj 100 285 t a a;
#X obj 145 264 loadbang;
#X msg 145 288 draw line;
#X obj 100 240 translateXYZ;
#X obj 258 295 t a a;
#X obj 320 273 loadbang;
#X msg 320 297 draw line;
#X obj 258 250 translateXYZ;
#X obj -7 308 pack f f 0;
#X obj 16 377 pack f f 0;
#X floatatom 250 48 5 0 0 0 - - -;
#X floatatom 299 49 5 0 0 0 - - -;
#X obj -66 5 r mouseLeft;
#X obj -66 31 sel 1;
#X msg -66 55 0;
#X obj -25 30 loadbang;
#X obj -121 271 loadbang;
#X obj 399 431 +;
#X obj 477 433 +;
#X obj 506 433 -;
#X obj 428 431 -;
#X text -107 106 1=hight>width \, up to down;
#X text -107 122 2=width>hight \, left to right;
#X obj 382 205 line;
#X obj 382 272 t f f;
#X obj 382 159 sel 1;
#X obj 410 312 spigot;
#X obj 488 317 spigot;
#X msg 443 232 0 1;
#X obj 443 209 sel 1 2;
#X msg 462 254 1 0;
#X obj 443 282 unpack f f;
#X obj 399 478 s \$0-x1;
#X obj 428 498 s \$0-x2;
#X obj 123 182 r \$0-x1;
#X obj 146 205 r \$0-y1;
#X obj 281 217 r \$0-x2;
#X obj 304 196 r \$0-y2;
#X obj 261 97 s \$0-x1;
#X obj 272 122 s \$0-x2;
#X obj 310 98 s \$0-y1;
#X obj 321 123 s \$0-y2;
#X obj 477 491 s \$0-y1;
#X obj 506 517 s \$0-y2;
#X obj -7 259 r \$0-x1;
#X obj 21 281 r \$0-y1;
#X obj 16 352 r \$0-x2;
#X obj 44 330 r \$0-y2;
#X obj 195 -76 r linkPos;
#X obj 195 -48 route \$1;
#X obj 100 77 gemhead 400;
#X msg -121 297 draw point \, res 10;
#X floatatom 443 184 5 0 0 0 - - -;
#X obj 399 401 t f f;
#X obj 477 404 t f f;
#X floatatom 399 452 5 0 0 0 - - -;
#X floatatom 428 456 5 0 0 0 - - -;
#X floatatom 477 458 5 0 0 0 - - -;
#X floatatom 506 462 5 0 0 0 - - -;
#X msg 195 28 1;
#X obj 195 50 s \$0-tgk;
#X obj 382 125 r \$0-tgk;
#X obj 250 71 v \$0_xx;
#X obj 299 72 v \$0_yy;
#X obj 477 382 v \$0_yy;
#X obj 399 375 v \$0_xx;
#X obj 399 350 t b b;
#X obj 195 -27 t b a b;
#X obj 234 0 s \$0-reset;
#X obj 536 356 r \$0-reset;
#X msg 536 378 0;
#X obj 127 392 circle 0.04;
#X obj 285 403 circle 0.04;
#X obj 100 54 tgl 15 0 empty empty empty 17 7 0 10 -262144 -1 -1 1
1;
#X obj -66 78 s \$0-tgk;
#X obj 100 32 r \$0-tgk;
#X obj 382 231 incirc;
#X msg 382 183 0 \, 1 450;
#X obj -85 -22 r all-close;
#X obj 285 373 color 1 1 1;
#X obj 127 363 color 1 1 1;
#X obj 382 252 * 0.3;
#X obj 250 24 unpack f f f f;
#X floatatom 443 157 5 0 0 0 - - -;
#X obj 456 77 - 0.1;
#X floatatom 455 97 5 0 0 0 - - -;
#X obj 100 104 t a a a b a;
#X obj 63 450 separator;
#X obj 65 569 text2d;
#X msg -31 470 text \$1;
#X obj -31 446 init \$1;
#X obj -25 427 bng 15 250 50 0 empty empty empty 17 7 0 10 -262144
-1 -1;
#X obj 177 561 loadbang;
#X msg 177 581 11;
#X obj 65 530 translateXYZ;
#X obj 152 488 + 0;
#X obj 184 488 + 0;
#X msg 175 445 -0.15;
#X msg 216 445 -0.15;
#X obj 63 477 color 1 1 1;
#X obj 54 185 t a a;
#X obj -35 238 color 1 1 1;
#X obj 100 313 color 1 1 1;
#X obj 258 323 color 1 1 1;
#X obj 100 336 circle 0.02;
#X obj 258 346 circle 0.02;
#X connect 1 0 105 0;
#X connect 2 0 7 0;
#X connect 3 0 11 0;
#X connect 4 0 106 0;
#X connect 4 1 84 0;
#X connect 5 0 6 0;
#X connect 6 0 108 0;
#X connect 7 0 4 0;
#X connect 8 0 107 0;
#X connect 8 1 83 0;
#X connect 9 0 10 0;
#X connect 10 0 109 0;
#X connect 11 0 8 0;
#X connect 12 0 0 1;
#X connect 13 0 0 2;
#X connect 14 0 42 0;
#X connect 14 0 43 0;
#X connect 14 0 66 0;
#X connect 15 0 44 0;
#X connect 15 0 45 0;
#X connect 15 0 67 0;
#X connect 16 0 17 0;
#X connect 17 0 18 0;
#X connect 18 0 78 0;
#X connect 19 0 18 0;
#X connect 20 0 55 0;
#X connect 21 0 59 0;
#X connect 22 0 61 0;
#X connect 23 0 62 0;
#X connect 24 0 60 0;
#X connect 27 0 80 0;
#X connect 28 0 30 0;
#X connect 28 1 31 0;
#X connect 29 0 81 0;
#X connect 30 0 21 1;
#X connect 30 0 24 1;
#X connect 31 0 22 1;
#X connect 31 0 23 1;
#X connect 32 0 35 0;
#X connect 33 0 32 0;
#X connect 33 0 101 0;
#X connect 33 1 34 0;
#X connect 33 1 102 0;
#X connect 34 0 35 0;
#X connect 35 0 30 1;
#X connect 35 1 31 1;
#X connect 38 0 7 1;
#X connect 39 0 7 2;
#X connect 40 0 11 1;
#X connect 41 0 11 2;
#X connect 48 0 12 0;
#X connect 49 0 12 1;
#X connect 50 0 13 0;
#X connect 51 0 13 1;
#X connect 52 0 53 0;
#X connect 53 0 71 0;
#X connect 54 0 90 0;
#X connect 55 0 0 0;
#X connect 56 0 33 0;
#X connect 57 0 21 0;
#X connect 57 1 24 0;
#X connect 58 0 22 0;
#X connect 58 1 23 0;
#X connect 59 0 36 0;
#X connect 60 0 37 0;
#X connect 61 0 46 0;
#X connect 62 0 47 0;
#X connect 63 0 64 0;
#X connect 65 0 29 0;
#X connect 68 0 58 0;
#X connect 68 0 100 0;
#X connect 69 0 57 0;
#X connect 69 0 99 0;
#X connect 70 0 69 0;
#X connect 70 1 68 0;
#X connect 71 0 63 0;
#X connect 71 1 86 0;
#X connect 71 2 72 0;
#X connect 73 0 74 0;
#X connect 74 0 23 1;
#X connect 74 0 22 1;
#X connect 74 0 21 1;
#X connect 74 0 24 1;
#X connect 74 0 100 1;
#X connect 74 0 99 1;
#X connect 77 0 54 0;
#X connect 79 0 77 0;
#X connect 80 0 85 0;
#X connect 81 0 27 0;
#X connect 82 0 18 0;
#X connect 85 0 28 0;
#X connect 86 0 14 0;
#X connect 86 1 15 0;
#X connect 86 2 88 0;
#X connect 86 3 87 0;
#X connect 87 0 56 0;
#X connect 88 0 89 0;
#X connect 89 0 85 1;
#X connect 90 0 104 0;
#X connect 90 1 3 0;
#X connect 90 2 1 0;
#X connect 90 3 70 0;
#X connect 91 0 103 0;
#X connect 93 0 92 0;
#X connect 94 0 93 0;
#X connect 95 0 94 0;
#X connect 96 0 97 0;
#X connect 97 0 92 1;
#X connect 98 0 92 0;
#X connect 99 0 98 1;
#X connect 100 0 98 2;
#X connect 101 0 99 1;
#X connect 102 0 100 1;
#X connect 103 0 98 0;
#X connect 104 0 91 0;
#X connect 104 1 2 0;
#X connect 105 0 0 0;
#X connect 106 0 108 0;
#X connect 107 0 109 0;
