#N canvas 752 261 445 358 10;
#X obj -14 45 gemwin;
#X obj 149 61 gemmouse 1 1;
#X obj 149 89 expr $f1*8-4;
#X obj 149 143 pack f f f;
#X obj 149 173 s mouse;
#X msg -28 -5 destroy;
#X obj 219 180 s resetbang;
#X obj 218 162 bng 15 250 50 0 empty empty empty 17 7 0 10 -262144
-1 -1;
#X msg -14 18 reset \, color 0.5 0.5 0.5 \, dimen 500 500 \, FSAA 8
\, create \, 1;
#X obj 139 335 dac~;
#X obj 139 237 *~ 0.3;
#X obj 139 207 catch~ l;
#X obj 198 236 *~ 0.3;
#X obj 198 206 catch~ r;
#X obj -13 70 nodo 0;
#X obj -2 309 vj_ruler;
#X obj 166 111 expr $f1*-8+4;
#X obj 281 149 s hid;
#X obj 281 96 hid;
#X msg 281 72 open keyboard 0 \, 1;
#X obj -13 93 nodo 1;
#X obj 33 70 nodo 2;
#X obj 33 93 nodo 3;
#X obj -13 118 nodo 4;
#X obj 33 118 nodo 5;
#X obj -13 141 nodo 6;
#X obj 33 141 nodo 7;
#X obj -13 164 nodo 8;
#X obj 33 164 nodo 9;
#X obj -13 187 nodo 10;
#X obj 33 187 nodo 11;
#X obj -9 218 nodo 12;
#X obj 42 212 nodo 13;
#X obj -9 241 nodo 14;
#X obj 42 235 nodo 15;
#X obj 281 123 route key;
#X obj 281 48 loadbang;
#X obj 139 261 st-pureverb /key;
#X connect 1 0 2 0;
#X connect 1 1 16 0;
#X connect 1 2 3 2;
#X connect 2 0 3 0;
#X connect 3 0 4 0;
#X connect 5 0 0 0;
#X connect 7 0 6 0;
#X connect 8 0 0 0;
#X connect 10 0 37 0;
#X connect 11 0 10 0;
#X connect 12 0 37 1;
#X connect 13 0 12 0;
#X connect 16 0 3 1;
#X connect 18 0 35 0;
#X connect 19 0 18 0;
#X connect 35 0 17 0;
#X connect 36 0 19 0;
#X connect 37 0 9 0;
#X connect 37 1 9 1;
