#N canvas 425 27 953 741 10;
#X obj -90 99 translateXYZ;
#X obj -91 251 alpha;
#X obj 231 -198 r mouse;
#X obj -91 340 text2d;
#X msg -156 324 text \$1;
#X obj -70 -124 loadbang;
#X obj -156 300 f \$1;
#X obj 29 63 k_random -4 4;
#X obj 60 92 k_random -4 4;
#X obj -46 341 loadbang;
#X obj 231 -147 unpack f f f;
#X obj 231 -82 distance2d;
#X obj 288 -108 pack f f;
#X obj 231 -117 pack f f;
#X floatatom 231 -57 5 0 0 0 - - -;
#X obj 231 -170 t a a;
#X obj 197 101 spigot;
#X obj 230 81 tgl 15 0 empty empty empty 17 7 0 10 -262144 -1 -1 0
1;
#X obj 197 176 unpack f f;
#X obj 25 111 f;
#X obj 60 121 f;
#X obj 230 58 expr if($f1+$f2==2 \, 1 \, 0);
#X obj 153 298 pack f f f;
#X obj 153 360 s nodoPos;
#X obj 211 423 r nodoPos;
#X obj 211 451 route;
#X obj 238 399 + 1;
#X obj 211 482 unpack f f;
#X obj 211 507 pack f f 0;
#X obj 107 396 gemhead 5;
#X obj 107 538 curve 2;
#X obj 126 508 pack f f 0;
#X obj 107 422 spigot;
#X obj 237 281 expr if($f1%2==0 \, 1 \, 0);
#X obj 210 228 f \$1;
#X obj 238 376 f \$1;
#X obj 237 304 tgl 15 0 empty empty empty 17 7 0 10 -262144 -1 -1 1
1;
#X msg 153 329 \$3 \$1 \$2;
#X obj -70 -101 t b b;
#X obj -70 -70 delay;
#X obj -33 -69 f \$1;
#X obj -70 -36 t b b b b b b b;
#X obj 25 330 spigot;
#X obj -98 408 loadbang;
#X msg -98 434 draw line;
#X obj 210 250 t f f;
#X obj -1 480 loadbang;
#X obj 291 139 s stop;
#X obj 296 165 r stop;
#X obj 292 113 f \$1;
#X obj 292 90 sel 1;
#X obj 296 191 route \$1;
#X msg 296 215 1;
#X msg 341 215 0;
#X obj 296 238 tgl 15 0 empty empty empty 17 7 0 10 -262144 -1 -1 0
1;
#X obj 197 145 spigot;
#X obj 369 102 r hid;
#X obj 369 126 route key_225;
#X obj 369 152 + 1;
#X obj 369 175 gate 2;
#X obj 415 188 loadbang;
#X msg 415 217 1;
#X obj -91 281 circle 0.1;
#X obj 231 -31 < 0.1;
#X msg -46 366 8;
#X obj -90 70 gemhead 20;
#X obj -145 -35 loadbang;
#X obj -145 -14 f \$1;
#X obj -145 8 % 2;
#X obj -145 33 sel 0 1;
#X obj 24 383 color 1 1 1;
#X obj 24 410 circle 0.15;
#X obj 25 359 separator;
#X obj -90 166 t a a;
#X obj -91 188 separator;
#X obj -90 139 scale 1;
#X msg -146 69 1;
#X obj 107 481 color 0.1 0.1 0.1;
#X obj 107 449 GEMglPointSize 1;
#X msg -1 509 draw point \, res 100;
#X obj -70 -147 r resetbang;
#N canvas 0 67 1334 700 draw 0;
#X obj 89 118 inlet;
#X obj -120 385 t f b b b b;
#X obj 25 343 t f b b b b;
#X obj -120 361 t f f;
#X obj 25 440 expr pow($f1 \, 3)*($f3+3*($f4-$f5)-$f2)+3*pow($f1 \,
2)*($f2-2*$f4+$f5)+3*$f1*($f4-$f2)+$f2;
#X obj -120 489 expr pow($f1 \, 3)*($f3+3*($f4-$f5)-$f2)+3*pow($f1
\, 2)*($f2-2*$f4+$f5)+3*$f1*($f4-$f2)+$f2;
#X obj -105 407 value \$0-x1;
#X obj -89 426 value \$0-x2;
#X obj 382 19 spigot;
#X obj 415 -28 tgl 15 0 empty empty empty 17 7 0 10 -262144 -1 -1 1
1;
#X obj 415 -72 f \$1;
#X obj 415 -51 expr if($f1%4==0 \, 1 \, 0);
#X obj 415 -100 loadbang;
#X obj 40 363 value \$0-y1;
#X obj 56 382 value \$0-y2;
#X obj 72 401 value \$0-y3;
#X obj 88 421 value \$0-y4;
#X obj 47 173 r nodoPos;
#X obj 47 223 route;
#X obj 47 254 unpack f f;
#X obj 89 202 f \$1;
#X obj 89 146 t b b b b;
#X obj 89 225 + 0;
#X obj 127 175 r nodoPos;
#X obj 127 225 route;
#X obj 127 256 unpack f f;
#X obj 169 204 f \$1;
#X obj 208 179 r nodoPos;
#X obj 208 229 route;
#X obj 208 260 unpack f f;
#X obj 250 208 f \$1;
#X obj 288 181 r nodoPos;
#X obj 288 231 route;
#X obj 288 262 unpack f f;
#X obj 330 210 f \$1;
#X obj 169 227 + 1;
#X obj 250 231 + 2;
#X obj 330 233 + 3;
#X obj 48 292 value \$0-x1;
#X obj -73 446 value \$0-x3;
#X obj -57 466 value \$0-x4;
#X obj 288 297 value \$0-x4;
#X obj 104 319 value \$0-y1;
#X obj 345 319 value \$0-y4;
#X obj 211 281 value \$0-x2;
#X obj 127 281 value \$0-x3;
#X obj 265 327 value \$0-y2;
#X obj 184 318 value \$0-y3;
#X obj -166 229 GEMglEnd;
#X obj -115 198 GEMglBegin;
#X obj -166 198 t a a a;
#X obj -157 534 GEMglVertex3f 0 0 0;
#X obj -147 286 t a b;
#X obj -120 309 f;
#X obj -89 309 + 1;
#X obj -114 142 once;
#X obj -166 164 t a b;
#X obj -147 253 repeat 100;
#X obj -59 309 % 100;
#X msg -114 172 3;
#X obj -120 334 / 99;
#X obj 433 242 t f b b b b;
#X obj 578 200 t f b b b b;
#X obj 433 218 t f f;
#X obj 578 297 expr pow($f1 \, 3)*($f3+3*($f4-$f5)-$f2)+3*pow($f1 \,
2)*($f2-2*$f4+$f5)+3*$f1*($f4-$f2)+$f2;
#X obj 433 346 expr pow($f1 \, 3)*($f3+3*($f4-$f5)-$f2)+3*pow($f1 \,
2)*($f2-2*$f4+$f5)+3*$f1*($f4-$f2)+$f2;
#X obj 448 264 value \$0-x1;
#X obj 464 283 value \$0-x2;
#X obj 593 220 value \$0-y1;
#X obj 609 239 value \$0-y2;
#X obj 625 258 value \$0-y3;
#X obj 641 278 value \$0-y4;
#X obj 480 303 value \$0-x3;
#X obj 496 323 value \$0-x4;
#X obj 405 107 t a b;
#X obj 432 130 f;
#X obj 463 130 + 1;
#X obj 420 417 translateXYZ;
#X obj 421 521 circle 0.05;
#X obj 383 43 t a a;
#X obj -166 67 separator;
#X obj 382 77 separator;
#X obj -166 91 color 1 1 1;
#X obj -166 118 GEMglLineWidth 2;
#X obj 432 178 expr 2*abs($f1-0.5);
#X obj 564 -73 r \$0-length;
#X obj 564 26 + 1;
#X floatatom 564 51 5 0 0 0 - - -;
#X obj 564 -47 expr int($f1*1);
#X floatatom 564 3 5 0 0 0 - - -;
#X obj 564 -20 moses 9;
#X obj 564 75 expr 10-$f1;
#X msg 610 3 8;
#X obj 493 130 % 100;
#X obj 566 124 t f f;
#X obj 566 148 -;
#X floatatom 564 168 5 0 0 0 - - -;
#X obj 656 86 expr if($f1>0 \, 1 \, 0);
#X obj 659 108 change;
#X obj 660 129 t b;
#X obj 773 449 osc~ 440;
#X obj 773 478 *~;
#X obj 807 493 line~;
#X obj 917 398 + 0.3;
#X obj 918 372 randomF 0.5;
#X obj 610 458 line;
#X obj 424 482 alpha;
#X obj 382 -6 gemhead 100;
#X obj 542 430 loadbang;
#X obj 424 451 color 1 0 0 0.8;
#X msg 539 459 auto 1;
#X msg 612 427 0.15 \, 0.05 50;
#X obj 432 155 / 99;
#X obj 773 383 r \$0-fre1;
#X floatatom 773 404 5 0 0 0 - - -;
#X floatatom 1015 344 5 0 0 0 - - -;
#X obj 1015 323 r \$0-fre2;
#X obj 773 524 throw~ l;
#X obj 918 336 sel 0 1;
#X obj 920 461 osc~ 440;
#X obj 920 490 *~;
#X obj 954 505 line~;
#X obj 1009 434 + 0.3;
#X obj 1010 408 randomF 0.5;
#X obj 920 536 throw~ r;
#X obj 773 424 expr int($f1*100)+300;
#X obj 1015 367 expr int($f1*100)+300;
#X msg 1009 458 \$1 \, 0 300;
#X msg 917 422 \$1 \, 0 300;
#X connect 0 0 21 0;
#X connect 1 0 5 0;
#X connect 1 1 6 0;
#X connect 1 2 7 0;
#X connect 1 3 39 0;
#X connect 1 4 40 0;
#X connect 2 0 4 0;
#X connect 2 1 13 0;
#X connect 2 2 14 0;
#X connect 2 3 15 0;
#X connect 2 4 16 0;
#X connect 3 0 1 0;
#X connect 3 1 2 0;
#X connect 4 0 51 2;
#X connect 5 0 51 1;
#X connect 6 0 5 1;
#X connect 7 0 5 2;
#X connect 8 0 79 0;
#X connect 9 0 8 1;
#X connect 10 0 11 0;
#X connect 11 0 9 0;
#X connect 12 0 10 0;
#X connect 13 0 4 1;
#X connect 14 0 4 2;
#X connect 15 0 4 3;
#X connect 16 0 4 4;
#X connect 17 0 18 0;
#X connect 18 0 19 0;
#X connect 19 0 38 0;
#X connect 19 1 42 0;
#X connect 20 0 22 0;
#X connect 21 0 20 0;
#X connect 21 1 26 0;
#X connect 21 2 30 0;
#X connect 21 3 34 0;
#X connect 22 0 18 1;
#X connect 23 0 24 0;
#X connect 24 0 25 0;
#X connect 25 0 45 0;
#X connect 25 1 47 0;
#X connect 26 0 35 0;
#X connect 27 0 28 0;
#X connect 28 0 29 0;
#X connect 29 0 44 0;
#X connect 29 1 46 0;
#X connect 30 0 36 0;
#X connect 31 0 32 0;
#X connect 32 0 33 0;
#X connect 33 0 41 0;
#X connect 33 1 43 0;
#X connect 34 0 37 0;
#X connect 35 0 24 1;
#X connect 36 0 28 1;
#X connect 37 0 32 1;
#X connect 39 0 5 3;
#X connect 40 0 5 4;
#X connect 50 0 48 0;
#X connect 50 1 57 0;
#X connect 50 2 49 0;
#X connect 52 0 51 0;
#X connect 52 1 53 0;
#X connect 53 0 54 0;
#X connect 53 0 60 0;
#X connect 54 0 58 0;
#X connect 55 0 59 0;
#X connect 56 0 50 0;
#X connect 56 1 55 0;
#X connect 57 0 52 0;
#X connect 58 0 53 1;
#X connect 59 0 49 1;
#X connect 60 0 3 0;
#X connect 61 0 65 0;
#X connect 61 1 66 0;
#X connect 61 2 67 0;
#X connect 61 3 72 0;
#X connect 61 4 73 0;
#X connect 62 0 64 0;
#X connect 62 1 68 0;
#X connect 62 2 69 0;
#X connect 62 3 70 0;
#X connect 62 4 71 0;
#X connect 63 0 61 0;
#X connect 63 1 62 0;
#X connect 64 0 77 2;
#X connect 65 0 77 1;
#X connect 66 0 65 1;
#X connect 67 0 65 2;
#X connect 68 0 64 1;
#X connect 69 0 64 2;
#X connect 70 0 64 3;
#X connect 71 0 64 4;
#X connect 72 0 65 3;
#X connect 73 0 65 4;
#X connect 74 0 77 0;
#X connect 74 1 75 0;
#X connect 75 0 76 0;
#X connect 75 0 112 0;
#X connect 76 0 93 0;
#X connect 77 0 109 0;
#X connect 79 0 81 0;
#X connect 79 1 80 0;
#X connect 80 0 82 0;
#X connect 81 0 74 0;
#X connect 82 0 83 0;
#X connect 83 0 56 0;
#X connect 84 0 63 0;
#X connect 84 0 94 0;
#X connect 85 0 88 0;
#X connect 86 0 87 0;
#X connect 87 0 91 0;
#X connect 88 0 90 0;
#X connect 89 0 86 0;
#X connect 90 0 89 0;
#X connect 90 1 92 0;
#X connect 91 0 76 1;
#X connect 92 0 89 0;
#X connect 93 0 75 1;
#X connect 94 0 95 1;
#X connect 94 1 95 0;
#X connect 95 0 96 0;
#X connect 96 0 97 0;
#X connect 97 0 98 0;
#X connect 98 0 99 0;
#X connect 98 0 118 0;
#X connect 99 0 111 0;
#X connect 100 0 101 0;
#X connect 101 0 117 0;
#X connect 102 0 101 1;
#X connect 103 0 128 0;
#X connect 104 0 103 0;
#X connect 105 0 78 1;
#X connect 106 0 78 0;
#X connect 107 0 8 0;
#X connect 108 0 110 0;
#X connect 109 0 106 0;
#X connect 110 0 106 0;
#X connect 111 0 105 0;
#X connect 112 0 84 0;
#X connect 113 0 114 0;
#X connect 114 0 125 0;
#X connect 115 0 126 0;
#X connect 116 0 115 0;
#X connect 118 0 104 0;
#X connect 118 1 123 0;
#X connect 119 0 120 0;
#X connect 120 0 124 0;
#X connect 121 0 120 1;
#X connect 122 0 127 0;
#X connect 123 0 122 0;
#X connect 125 0 100 0;
#X connect 126 0 119 0;
#X connect 127 0 121 0;
#X connect 128 0 102 0;
#X restore 2 -10 pd draw line;
#X obj 474 101 r nodoPos;
#X obj 474 181 route;
#X obj 570 -6 loadbang;
#X obj 537 -6 tgl 15 0 empty empty empty 17 7 0 10 -262144 -1 -1 1
1;
#X obj 537 -50 f \$1;
#X obj 537 -29 expr if($f1%4==0 \, 1 \, 0);
#X obj 537 -78 loadbang;
#X obj 474 129 spigot;
#X obj 474 156 t a a a a;
#X obj 570 16 f \$1;
#X obj 570 40 t f f f f;
#X obj 587 68 + 1;
#X obj 604 92 + 2;
#X obj 621 66 + 3;
#X obj 491 207 route;
#X obj 533 229 route;
#X obj 622 258 route;
#X obj 464 320 t a a;
#X obj 464 346 distance2d;
#X obj 490 377 distance2d;
#X obj 565 395 distance2d;
#X obj 460 440 expr $f1+$f2+$f3;
#X obj 25 139 s \$0-x;
#X obj 60 176 s \$0-y;
#X obj 165 543 r \$0-x;
#X obj 207 545 r \$0-y;
#X obj -67 45 r \$0-x;
#X obj -44 19 r \$0-y;
#X obj 153 235 r \$0-x;
#X obj 181 204 r \$0-y;
#N canvas 334 284 315 468 color 0;
#X obj -45 238 inlet;
#X obj -36 325 outlet;
#X obj 71 157 sel 0 1;
#X msg 71 189 1 1 1;
#X obj 70 215 unpack f f f;
#X obj 71 66 gate 2;
#X obj 71 38 expr if($f1%2==0 \, 1 \, 2);
#X obj 104 95 sel 0 1;
#X obj 73 18 f \$1;
#X msg 123 157 1 1 0;
#X msg 117 188 1 1 0;
#X obj 72 -7 inlet;
#X obj 135 65 r \$0-click;
#X obj -52 288 colorRGB 1 1 1 1;
#X msg 104 127 0.3 0.3 0.3;
#X connect 0 0 13 0;
#X connect 2 0 3 0;
#X connect 2 1 10 0;
#X connect 3 0 4 0;
#X connect 4 0 13 1;
#X connect 4 1 13 2;
#X connect 4 2 13 3;
#X connect 5 0 2 0;
#X connect 5 1 7 0;
#X connect 6 0 5 0;
#X connect 7 0 14 0;
#X connect 7 1 9 0;
#X connect 8 0 6 0;
#X connect 9 0 4 0;
#X connect 10 0 4 0;
#X connect 11 0 8 0;
#X connect 12 0 5 1;
#X connect 13 0 1 0;
#X connect 14 0 4 0;
#X restore -91 224 pd color;
#X obj 231 2 s \$0-click;
#X obj 231 35 r \$0-click;
#X obj 58 294 r \$0-click;
#X obj 313 415 translateXYZ;
#X obj 313 310 gemhead 20;
#X obj 336 361 r \$0-x;
#X obj 359 335 r \$0-y;
#X msg 460 490 text L:\$1;
#X obj 313 497 text2d;
#X obj 313 467 colorRGB 1 1 1 1;
#X obj 363 498 loadbang;
#X obj 313 388 spigot;
#X msg 399 522 justify left base;
#X msg 363 523 10;
#X obj 313 441 translateXYZ 0.2 -0.05 0;
#X obj 533 258 t b a;
#X obj 490 241 t b a;
#X obj 467 280 list;
#X obj 439 245 t a a;
#X obj 537 300 t a a a;
#X obj 577 357 list;
#X obj 622 285 t b b a;
#X obj -91 310 colorRGB 0 0 0 1;
#X msg -130 92 0.7;
#X obj 597 468 s \$0-length;
#X obj 460 466 expr int($f1*100)/100;
#X obj 624 420 s \$0-fre1;
#X obj 519 420 s \$0-fre2;
#X connect 0 0 75 0;
#X connect 1 0 62 0;
#X connect 2 0 15 0;
#X connect 4 0 3 0;
#X connect 5 0 38 0;
#X connect 6 0 4 0;
#X connect 7 0 19 0;
#X connect 8 0 20 0;
#X connect 9 0 64 0;
#X connect 10 0 13 0;
#X connect 10 1 13 1;
#X connect 10 2 21 1;
#X connect 11 0 14 0;
#X connect 12 0 11 1;
#X connect 13 0 11 0;
#X connect 14 0 63 0;
#X connect 15 0 10 0;
#X connect 15 1 16 0;
#X connect 16 0 59 1;
#X connect 17 0 16 1;
#X connect 17 0 50 0;
#X connect 18 0 19 0;
#X connect 18 1 20 0;
#X connect 19 0 12 0;
#X connect 19 0 104 0;
#X connect 20 0 12 1;
#X connect 20 0 105 0;
#X connect 21 0 17 0;
#X connect 22 0 37 0;
#X connect 24 0 25 0;
#X connect 25 0 27 0;
#X connect 26 0 25 1;
#X connect 27 0 28 0;
#X connect 27 1 28 1;
#X connect 28 0 30 2;
#X connect 29 0 32 0;
#X connect 31 0 30 1;
#X connect 32 0 78 0;
#X connect 33 0 36 0;
#X connect 34 0 45 0;
#X connect 35 0 26 0;
#X connect 36 0 32 1;
#X connect 37 0 23 0;
#X connect 38 0 39 0;
#X connect 38 1 40 0;
#X connect 39 0 41 0;
#X connect 40 0 39 1;
#X connect 41 0 6 0;
#X connect 41 1 7 0;
#X connect 41 2 8 0;
#X connect 41 3 34 0;
#X connect 41 4 35 0;
#X connect 41 5 81 0;
#X connect 41 6 112 1;
#X connect 42 0 72 0;
#X connect 43 0 44 0;
#X connect 44 0 71 0;
#X connect 45 0 22 2;
#X connect 45 1 33 0;
#X connect 46 0 79 0;
#X connect 48 0 51 0;
#X connect 49 0 47 0;
#X connect 50 0 49 0;
#X connect 51 0 52 0;
#X connect 51 1 53 0;
#X connect 52 0 54 0;
#X connect 53 0 54 0;
#X connect 54 0 55 1;
#X connect 55 0 18 0;
#X connect 56 0 57 0;
#X connect 57 0 58 0;
#X connect 58 0 59 0;
#X connect 59 0 55 0;
#X connect 59 1 18 0;
#X connect 60 0 61 0;
#X connect 61 0 59 0;
#X connect 62 0 135 0;
#X connect 63 0 113 0;
#X connect 64 0 3 1;
#X connect 65 0 0 0;
#X connect 66 0 67 0;
#X connect 67 0 68 0;
#X connect 68 0 69 0;
#X connect 69 0 76 0;
#X connect 69 1 136 0;
#X connect 70 0 71 0;
#X connect 72 0 70 0;
#X connect 73 0 74 0;
#X connect 73 1 42 0;
#X connect 74 0 112 0;
#X connect 75 0 73 0;
#X connect 76 0 75 1;
#X connect 77 0 30 0;
#X connect 78 0 77 0;
#X connect 79 0 30 0;
#X connect 80 0 5 0;
#X connect 82 0 89 0;
#X connect 83 0 131 0;
#X connect 84 0 91 0;
#X connect 85 0 89 1;
#X connect 85 0 124 1;
#X connect 86 0 87 0;
#X connect 87 0 85 0;
#X connect 88 0 86 0;
#X connect 89 0 90 0;
#X connect 90 0 83 0;
#X connect 90 1 96 0;
#X connect 90 2 97 0;
#X connect 90 3 98 0;
#X connect 91 0 92 0;
#X connect 92 0 83 1;
#X connect 92 1 93 0;
#X connect 92 2 94 0;
#X connect 92 3 95 0;
#X connect 93 0 96 1;
#X connect 94 0 97 1;
#X connect 95 0 98 1;
#X connect 96 0 129 0;
#X connect 97 0 128 0;
#X connect 98 0 134 0;
#X connect 99 0 100 0;
#X connect 99 1 101 0;
#X connect 100 0 103 0;
#X connect 101 0 103 1;
#X connect 101 0 140 0;
#X connect 102 0 103 2;
#X connect 102 0 139 0;
#X connect 103 0 137 0;
#X connect 103 0 138 0;
#X connect 106 0 31 0;
#X connect 107 0 31 1;
#X connect 108 0 0 1;
#X connect 109 0 0 2;
#X connect 110 0 22 0;
#X connect 111 0 22 1;
#X connect 112 0 1 0;
#X connect 114 0 21 0;
#X connect 115 0 42 1;
#X connect 116 0 127 0;
#X connect 118 0 116 1;
#X connect 119 0 116 2;
#X connect 120 0 121 0;
#X connect 122 0 121 0;
#X connect 123 0 126 0;
#X connect 123 0 125 0;
#X connect 124 0 116 0;
#X connect 125 0 121 0;
#X connect 126 0 121 1;
#X connect 127 0 122 0;
#X connect 128 0 130 0;
#X connect 128 1 132 0;
#X connect 129 0 130 0;
#X connect 129 1 101 1;
#X connect 130 0 99 0;
#X connect 131 0 99 0;
#X connect 131 1 130 1;
#X connect 132 0 100 1;
#X connect 132 1 102 0;
#X connect 132 2 133 1;
#X connect 133 0 102 0;
#X connect 134 0 130 0;
#X connect 134 1 133 0;
#X connect 134 2 102 1;
#X connect 135 0 3 0;
#X connect 136 0 75 1;
#X connect 138 0 120 0;
