#N canvas 593 96 745 603 10;
#X obj 37 84 gemwin;
#X msg 18 31 destroy;
#X obj 18 4 sel 0 1;
#X obj 18 -17 tgl 15 0 empty empty empty 17 7 0 10 -262144 -1 -1 1
1;
#N canvas 430 136 341 285 mouseControl 0;
#X obj 167 -16 gemmouse 1 1;
#X obj 167 66 expr ($f1*8)-4;
#X obj 236 46 s mouseRight;
#X obj 194 140 v x;
#X obj 232 139 v y;
#X obj 184 91 expr ($f1*-8)+4;
#X obj 167 188 s mousePos;
#X obj 167 162 pack f f;
#X obj 167 116 t f f;
#X obj 205 117 t f f;
#X obj 201 26 s mouseLeft;
#X obj 218 5 s mouseMiddle;
#X connect 0 0 1 0;
#X connect 0 1 5 0;
#X connect 0 2 10 0;
#X connect 0 3 11 0;
#X connect 0 4 2 0;
#X connect 1 0 8 0;
#X connect 5 0 9 0;
#X connect 7 0 6 0;
#X connect 8 0 7 0;
#X connect 8 1 3 0;
#X connect 9 0 7 1;
#X connect 9 1 4 0;
#X restore 37 109 pd mouseControl;
#X obj 153 -8 loadbang;
#X msg 153 12 \; pd dsp 1;
#X msg 37 53 reset \, FSAA 8 \, color 0.42 0.04 0.57 \, create \, 1
;
#X obj 138 109 tgl 15 0 empty empty empty 17 7 0 10 -262144 -1 -1 1
1;
#X obj 138 150 f;
#X obj 163 150 + 1;
#X obj 191 150 % 8;
#X floatatom 138 172 5 0 0 0 - - -, f 5;
#X obj 138 85 loadbang;
#X obj 72 228 perk-bassdrum /key;
#X obj 72 350 throw~ all;
#X obj 534 270 catch~ all;
#X obj 534 300 dac~;
#X obj 145 349 perk-hihat /key;
#X obj 145 513 throw~ all;
#X obj 331 348 perk-snare /key;
#X obj 331 492 throw~ all;
#X obj 342 202 perk-clap /key;
#X obj 342 319 throw~ all;
#X obj 528 397 throw~ all;
#X obj 528 351 perk-hightom /key;
#X obj 138 129 metro 250;
#X obj 123 204 tempo 1;
#X obj 74 203 tempo 0;
#X obj 174 205 tempo 2;
#X obj 225 205 tempo 3;
#X obj 275 206 tempo 4;
#X obj 52 -14 loadbang;
#X connect 1 0 0 0;
#X connect 2 0 1 0;
#X connect 2 1 7 0;
#X connect 3 0 2 0;
#X connect 5 0 6 0;
#X connect 7 0 0 0;
#X connect 8 0 26 0;
#X connect 9 0 10 0;
#X connect 9 0 12 0;
#X connect 10 0 11 0;
#X connect 11 0 9 1;
#X connect 12 0 27 0;
#X connect 12 0 28 0;
#X connect 12 0 29 0;
#X connect 12 0 30 0;
#X connect 12 0 31 0;
#X connect 13 0 8 0;
#X connect 14 0 15 0;
#X connect 16 0 17 0;
#X connect 16 0 17 1;
#X connect 18 0 19 0;
#X connect 20 0 21 0;
#X connect 22 0 23 0;
#X connect 25 0 24 0;
#X connect 26 0 9 0;
#X connect 27 0 18 0;
#X connect 28 0 14 0;
#X connect 29 0 20 0;
#X connect 30 0 22 0;
#X connect 31 0 25 0;
#X connect 32 0 3 0;
