#N canvas 567 164 636 601 10;
#X obj 15 -30 gemhead;
#X obj 15 67 circle 0.35;
#X obj -103 53 loadbang;
#X obj 15 145 scale 1;
#X obj -55 -19 line;
#X obj -55 6 outbounce;
#X obj 89 -81 init \$1;
#X obj 15 -3 translateXYZ -3 0 0;
#X obj 89 -46 k_range 0 4 2.5 -2.5;
#X obj 148 76 gemhead;
#X obj 148 153 repeat 8;
#X obj 148 176 t a b;
#X obj 229 189 f;
#X obj 255 190 + 1;
#X obj 282 190 % 8;
#X obj 148 232 separator;
#X obj 148 262 translateXYZ;
#X obj 148 289 t a a;
#X obj 89 -102 bng 15 250 50 0 empty empty empty 17 7 0 10 -262144
-1 -1;
#X obj 148 340 square 0.3;
#X obj 11 265 loadbang;
#X msg 11 290 draw line \, width 2;
#X obj 148 313 separator;
#X obj 230 411 square 0.3;
#X obj 230 318 separator;
#X obj 230 349 alpha;
#X obj 229 214 k_range 0 7 -2 2.2;
#X obj 148 120 translateXYZ -0.1 0 0;
#X obj 230 374 colorRGB 1 1 1 0.3;
#X obj 15 18 alpha;
#X obj 15 43 colorRGB 1 1 1 0.3;
#X obj 15 172 colorRGB 1 1 1 1;
#X obj 85 104 + 0.3;
#X obj 15 204 circle 0.35;
#X obj 34 106 + 1;
#X obj -55 29 * 0.4;
#X msg -103 79 draw line \, width 2;
#X floatatom 315 106 5 0 0 0 - - -;
#X obj 288 6 gemhead;
#X obj 288 32 k_btn 0 0 2.4 0.3;
#X obj 288 57 rectangle 1 1;
#X obj 354 -22 pack f f;
#X obj 354 -64 t b f;
#X msg 354 -43 0;
#X obj 387 58 tgl 15 0 empty empty empty 17 7 0 10 -262144 -1 -1 0
1;
#X obj 321 -87 r mousePos;
#X obj 354 249 int;
#X floatatom 354 285 5 0 0 0 - - -;
#X obj 294 -33 t a a;
#X obj 354 90 spigot;
#X obj 412 99 unpack f f;
#X obj 354 167 expr ($f1+2.4)/4.8;
#X obj 354 120 spigot;
#X obj 401 133 r mouseLeft;
#X obj 354 213 + 1;
#X floatatom 370 148 5 0 0 0 - - -;
#X obj 300 238 inlet;
#X obj 300 308 sel 0;
#X obj 300 286 % 8;
#X obj 367 456 square 0.3;
#X obj 403 318 k_range 0 7 -2 2.2;
#X obj 367 429 color 1 1 0;
#X obj 367 343 gemhead;
#X obj 367 373 translateXYZ -0.1 0 0;
#X obj 367 399 translateXYZ 0 0 0;
#X msg -55 -46 1 \, 0 250;
#X obj 300 339 outlet;
#X obj 354 189 expr ($f1*8);
#X obj 300 264 spigot;
#X obj 396 268 > 0;
#X obj 439 190 loadbang;
#X msg 440 212 -1;
#X obj 447 267 split 0 8.2;
#X connect 0 0 7 0;
#X connect 1 0 3 0;
#X connect 2 0 36 0;
#X connect 3 0 31 0;
#X connect 4 0 5 0;
#X connect 5 0 32 0;
#X connect 5 0 35 0;
#X connect 6 0 8 0;
#X connect 7 0 29 0;
#X connect 8 0 7 2;
#X connect 8 0 27 2;
#X connect 8 0 42 0;
#X connect 8 0 63 2;
#X connect 9 0 27 0;
#X connect 10 0 11 0;
#X connect 11 0 15 0;
#X connect 11 1 12 0;
#X connect 12 0 13 0;
#X connect 12 0 26 0;
#X connect 13 0 14 0;
#X connect 14 0 12 1;
#X connect 15 0 16 0;
#X connect 16 0 17 0;
#X connect 17 0 22 0;
#X connect 17 1 24 0;
#X connect 18 0 6 0;
#X connect 20 0 21 0;
#X connect 21 0 19 0;
#X connect 22 0 19 0;
#X connect 24 0 25 0;
#X connect 25 0 28 0;
#X connect 26 0 16 1;
#X connect 27 0 10 0;
#X connect 28 0 23 0;
#X connect 29 0 30 0;
#X connect 30 0 1 0;
#X connect 31 0 33 0;
#X connect 32 0 30 4;
#X connect 34 0 3 1;
#X connect 35 0 34 0;
#X connect 36 0 33 0;
#X connect 37 0 10 1;
#X connect 37 0 14 1;
#X connect 38 0 39 0;
#X connect 39 1 44 0;
#X connect 41 0 39 2;
#X connect 42 0 43 0;
#X connect 42 1 41 1;
#X connect 43 0 41 0;
#X connect 44 0 49 1;
#X connect 45 0 48 0;
#X connect 46 0 47 0;
#X connect 46 0 69 0;
#X connect 47 0 37 0;
#X connect 47 0 58 1;
#X connect 48 0 50 0;
#X connect 48 1 39 1;
#X connect 49 0 52 0;
#X connect 50 0 49 0;
#X connect 51 0 67 0;
#X connect 52 0 51 0;
#X connect 52 0 55 0;
#X connect 53 0 52 1;
#X connect 54 0 72 0;
#X connect 56 0 68 0;
#X connect 57 0 65 0;
#X connect 57 0 66 0;
#X connect 58 0 57 0;
#X connect 58 0 60 0;
#X connect 60 0 64 1;
#X connect 61 0 59 0;
#X connect 62 0 63 0;
#X connect 63 0 64 0;
#X connect 64 0 61 0;
#X connect 65 0 4 0;
#X connect 67 0 54 0;
#X connect 68 0 58 0;
#X connect 69 0 68 1;
#X connect 69 0 62 0;
#X connect 70 0 71 0;
#X connect 71 0 54 0;
#X connect 72 0 46 0;
