#N canvas 569 249 581 246 10;
#X obj 203 116 gemwin;
#X msg 189 54 destroy;
#X msg 203 77 reset \, color 0.4 0.5 0.2 \, dimen 500 500 \, FSAA 8
\, create \, 1;
#X obj 339 217 s allbang;
#X obj 339 181 bng 30 250 50 0 empty empty empty 17 7 0 10 -262144
-1 -1;
#X obj 186 211 dac~;
#N canvas 422 171 897 561 line_jump 0;
#X floatatom 148 399 5 0 0 0 - - -;
#X obj 74 25 s resetbang;
#X obj 74 4 bng 15 250 50 0 empty empty empty 17 7 0 10 -262144 -1
-1;
#N canvas 541 387 524 302 init 0;
#X obj 89 215 t a;
#X obj 89 33 loadbang;
#X msg 143 100 mass fix 0 10 0;
#X obj 89 241 s \$0-in;
#X obj 89 59 t b b b b b;
#X msg 161 80 reset;
#X obj 44 13 inlet;
#X msg 125 120 mass mob 1 10 0 \, mass mob 1 10 0 \, mass mob 1 10
0;
#X obj 161 37 bng 15 250 50 0 empty empty empty 17 7 0 10 -262144 -1
-1;
#X msg 89 187 Xmax 255 \, Xmin 0;
#X msg 107 143 link souple 1 0 1 3 \, link souple 1 2 1 3 \, link souple
3 2 1 3;
#X connect 0 0 3 0;
#X connect 1 0 4 0;
#X connect 2 0 0 0;
#X connect 4 0 9 0;
#X connect 4 1 10 0;
#X connect 4 2 7 0;
#X connect 4 3 2 0;
#X connect 4 4 5 0;
#X connect 5 0 0 0;
#X connect 6 0 4 0;
#X connect 7 0 0 0;
#X connect 8 0 4 0;
#X connect 9 0 0 0;
#X connect 10 0 0 0;
#X restore 67 324 pd init;
#X obj 68 466 s \$0-out;
#X obj 68 417 r \$0-in;
#X obj 104 125 vsl 15 127 0 127 0 0 empty empty empty 0 -8 0 8 -262144
-1 -1 7095 1;
#X obj 72 283 s \$0-in;
#X msg 72 260 posX fix \$1;
#N canvas 565 515 355 193 compute 0;
#X obj 159 37 inlet;
#X obj 159 74 metro 20;
#X obj 159 135 s \$0-in;
#X msg 159 104 bang \, massesPosL;
#X connect 0 0 1 0;
#X connect 1 0 3 0;
#X connect 3 0 2 0;
#X restore 67 392 pd compute;
#X obj 67 375 tgl 15 0 empty empty ON/OFF 25 10 1 10 -262144 -1 -1
1 1;
#X obj 73 48 r \$0-out;
#X obj 67 307 bng 15 250 50 0 empty empty reset 25 10 1 10 -262144
-1 -1;
#X obj 73 72 route massesPosL;
#X obj 123 125 vsl 15 127 0 127 0 0 empty empty empty 0 -8 0 8 -262144
-1 -1 7133 1;
#X obj 142 125 vsl 15 127 0 127 0 0 empty empty empty 0 -8 0 8 -262144
-1 -1 7152 1;
#X obj 73 93 unpack f f f f;
#X obj 68 441 pmpd;
#X obj 67 355 loadbang;
#X obj 72 123 vsl 15 127 0 127 0 0 empty empty empty 0 -8 0 8 -262144
-1 -1 7071 1;
#X obj 254 121 random 2;
#X obj 254 146 sel 0 1;
#X msg 253 172 1;
#X msg 281 172 -1;
#X obj 219 169 *;
#X obj 219 319 line;
#X obj 219 124 + 20;
#X obj 219 199 + 63.5;
#X floatatom 219 342 5 0 0 0 - - -;
#X obj 219 225 t f f;
#X obj 219 249 pipe 100;
#X obj 148 376 k_range 0 127 3 -3;
#X obj 148 441 line;
#X msg 148 418 \$1 100;
#X obj 219 98 random 30;
#X obj 338 178 r trigger_line;
#X msg 219 296 \$1 \, 63.5 10;
#X msg 247 272 63.5 \, \$1 10;
#X obj 219 68 t b b f;
#X obj 148 520 s mouse;
#X obj 148 473 pack f f;
#X msg 148 496 \$2 \$1;
#X floatatom 338 227 5 0 0 0 - - -;
#X floatatom 376 226 5 0 0 0 - - -;
#X floatatom 338 279 5 0 0 0 - - -;
#X obj 414 228 tgl 15 0 empty empty empty 17 7 0 10 -262144 -1 -1 1
1;
#X obj 414 281 sel 0;
#X obj 317 413 line;
#X floatatom 317 436 5 0 0 0 - - -;
#X obj 345 333 f;
#X msg 317 386 \$1 0;
#X obj 317 304 t f f;
#X msg 345 359 \$1 \, 63.5 10;
#X obj 414 302 del 10;
#X obj 390 437 r randomClick;
#X obj 493 438 r allbang;
#X msg 390 465 63.5 10;
#X obj 338 256 k_range 2.1 -2.1 0 127;
#X obj 338 201 unpack f f f f;
#X floatatom 558 112 5 0 0 0 - - -;
#X obj 524 239 sig~;
#X obj 524 262 osc~;
#X obj 524 285 *~;
#X obj 524 192 t f f;
#X obj 584 238 sig~;
#X obj 584 261 osc~;
#X obj 584 284 *~;
#X obj 584 212 * 2;
#X obj 584 332 *~ 0.2;
#X obj 524 331 *~ 0.7;
#X obj 615 363 t f f;
#X obj 655 348 sel 1;
#X obj 616 407 gate 2;
#X obj 616 384 + 1;
#X obj 655 371 tgl 15 0 empty empty empty 17 7 0 10 -262144 -1 -1 1
1;
#X obj 616 429 sel 0;
#X obj 649 458 sel 0;
#X obj 524 357 throw~ l;
#X obj 525 136 gate 2;
#X obj 709 239 sig~;
#X obj 709 262 osc~;
#X obj 709 285 *~;
#X obj 709 192 t f f;
#X obj 769 238 sig~;
#X obj 769 261 osc~;
#X obj 769 284 *~;
#X obj 769 212 * 2;
#X obj 769 332 *~ 0.2;
#X obj 709 331 *~ 0.7;
#X obj 709 357 throw~ r;
#X obj 622 212 line~;
#X obj 803 287 line~;
#X msg 622 189 1 \, 0 500;
#X msg 803 264 1 \, 0 500;
#X connect 0 0 33 0;
#X connect 2 0 1 0;
#X connect 5 0 17 0;
#X connect 8 0 7 0;
#X connect 10 0 9 0;
#X connect 11 0 13 0;
#X connect 12 0 3 0;
#X connect 13 0 16 0;
#X connect 15 0 31 0;
#X connect 16 1 6 0;
#X connect 16 2 14 0;
#X connect 16 3 15 0;
#X connect 17 0 4 0;
#X connect 18 0 10 0;
#X connect 19 0 8 0;
#X connect 20 0 21 0;
#X connect 21 0 22 0;
#X connect 21 1 23 0;
#X connect 22 0 24 1;
#X connect 23 0 24 1;
#X connect 24 0 27 0;
#X connect 25 0 28 0;
#X connect 26 0 24 0;
#X connect 27 0 29 0;
#X connect 29 0 30 0;
#X connect 29 1 37 0;
#X connect 30 0 36 0;
#X connect 31 0 0 0;
#X connect 32 0 40 0;
#X connect 33 0 32 0;
#X connect 34 0 26 0;
#X connect 35 0 58 0;
#X connect 36 0 25 0;
#X connect 37 0 25 0;
#X connect 38 0 34 0;
#X connect 38 1 20 0;
#X connect 40 0 41 0;
#X connect 41 0 39 0;
#X connect 42 0 57 0;
#X connect 43 0 40 1;
#X connect 44 0 51 0;
#X connect 45 0 46 0;
#X connect 45 0 70 0;
#X connect 46 0 53 0;
#X connect 47 0 48 0;
#X connect 48 0 19 0;
#X connect 49 0 52 0;
#X connect 50 0 47 0;
#X connect 51 0 50 0;
#X connect 51 1 49 1;
#X connect 52 0 47 0;
#X connect 53 0 49 0;
#X connect 54 0 56 0;
#X connect 55 0 56 0;
#X connect 56 0 47 0;
#X connect 57 0 44 0;
#X connect 58 0 42 0;
#X connect 58 1 43 0;
#X connect 58 2 45 0;
#X connect 58 3 59 0;
#X connect 59 0 78 1;
#X connect 60 0 61 0;
#X connect 61 0 62 0;
#X connect 62 0 69 0;
#X connect 63 0 60 0;
#X connect 63 1 67 0;
#X connect 64 0 65 0;
#X connect 65 0 66 0;
#X connect 66 0 68 0;
#X connect 67 0 64 0;
#X connect 68 0 77 0;
#X connect 69 0 77 0;
#X connect 70 0 72 1;
#X connect 70 1 71 0;
#X connect 71 0 74 0;
#X connect 72 0 75 0;
#X connect 72 1 76 0;
#X connect 73 0 72 0;
#X connect 73 0 78 0;
#X connect 74 0 73 0;
#X connect 75 0 92 0;
#X connect 76 0 93 0;
#X connect 78 0 63 0;
#X connect 78 1 82 0;
#X connect 79 0 80 0;
#X connect 80 0 81 0;
#X connect 81 0 88 0;
#X connect 82 0 79 0;
#X connect 82 1 86 0;
#X connect 83 0 84 0;
#X connect 84 0 85 0;
#X connect 85 0 87 0;
#X connect 86 0 83 0;
#X connect 87 0 89 0;
#X connect 88 0 89 0;
#X connect 90 0 62 1;
#X connect 90 0 66 1;
#X connect 91 0 81 1;
#X connect 91 0 85 1;
#X connect 92 0 90 0;
#X connect 93 0 91 0;
#X restore 101 24 pd line_jump;
#X obj 272 147 target 0;
#X obj 272 170 target 1;
#X obj 272 193 target 2;
#X obj 272 216 target 3;
#N canvas 646 214 352 518 color 0;
#X obj 92 79 random 8;
#X obj 92 105 sel 0 1 2 3 4 5 6 7;
#X msg 92 133 0.8 0.7 0.33;
#X msg 105 155 0.6 0.6 0.22;
#X msg 119 178 0.85 0.55 0.21;
#X msg 149 229 0.76 0.3 0.23;
#X msg 162 251 0.53 0.15 0.17;
#X msg 176 274 0.89 0.71 0.2;
#X msg 190 303 0.11 0.31 0.52;
#X obj 92 53 r allbang;
#X msg 133 207 0.4 0.5 0.2;
#X msg 91 450 color \$1 \$2 \$3;
#X obj 91 375 unpack f f f;
#X obj 91 426 pack f f f;
#X obj 91 404 - 0.1;
#X obj 129 404 - 0.1;
#X obj 170 404 - 0.1;
#X obj 92 322 t a;
#X obj 91 474 outlet;
#X connect 0 0 1 0;
#X connect 1 0 2 0;
#X connect 1 1 3 0;
#X connect 1 2 4 0;
#X connect 1 3 10 0;
#X connect 1 4 5 0;
#X connect 1 5 6 0;
#X connect 1 6 7 0;
#X connect 1 7 8 0;
#X connect 2 0 17 0;
#X connect 3 0 17 0;
#X connect 4 0 17 0;
#X connect 5 0 17 0;
#X connect 6 0 17 0;
#X connect 7 0 17 0;
#X connect 8 0 17 0;
#X connect 9 0 0 0;
#X connect 10 0 17 0;
#X connect 11 0 18 0;
#X connect 12 0 14 0;
#X connect 12 1 15 0;
#X connect 12 2 16 0;
#X connect 13 0 11 0;
#X connect 14 0 13 0;
#X connect 15 0 13 1;
#X connect 16 0 13 2;
#X connect 17 0 12 0;
#X restore 247 51 pd color;
#X obj 20 23 gemslider 0;
#X obj 99 161 gemslider 15;
#X obj 19 175 gemslider 7;
#X obj 19 153 gemslider 6;
#X obj 19 110 gemslider 5;
#X obj 18 132 gemslider 4;
#X obj 20 88 gemslider 3;
#X obj 20 66 gemslider 2;
#X obj 19 45 gemslider 1;
#X obj 20 197 gemslider 8;
#X obj 21 218 gemslider 9;
#X obj 98 52 gemslider 10;
#X obj 97 74 gemslider 11;
#X obj 98 95 gemslider 12;
#X obj 98 117 gemslider 13;
#X obj 97 139 gemslider 14;
#X obj 186 142 catch~ l;
#X obj 207 166 catch~ r;
#X connect 1 0 0 0;
#X connect 2 0 0 0;
#X connect 4 0 3 0;
#X connect 11 0 0 0;
#X connect 28 0 5 0;
#X connect 29 0 5 1;
