#N canvas 505 34 858 756 10;
#X obj 131 105 translateXYZ;
#X obj 131 218 rectangle 0.01 3;
#X obj 131 165 scaleXYZ 1 1 1;
#X obj 131 299 translateXYZ 0 -6 0;
#X obj 191 45 init \$1;
#X obj 191 69 k_range 0 15 -3 3;
#X obj 276 109 loadbang;
#X obj 276 253 * -2;
#X obj 131 137 color;
#X obj 175 137 r \$0-color;
#X obj 419 226 random 8;
#X obj 419 252 sel 0 1 2 3 4 5 6 7;
#X obj 419 469 s \$0-color;
#X msg 419 280 0.8 0.7 0.33;
#X msg 432 302 0.6 0.6 0.22;
#X msg 446 325 0.85 0.55 0.21;
#X msg 460 354 0.28 0.2 0.24;
#X msg 476 376 0.76 0.3 0.23;
#X msg 489 398 0.53 0.15 0.17;
#X msg 503 421 0.89 0.71 0.2;
#X msg 517 450 0.11 0.31 0.52;
#X obj 223 351 init \$1;
#X obj 223 375 k_range 0 15 -3 3;
#X obj 126 471 t a b;
#X obj 231 327 bng 15 250 50 0 empty empty empty 17 7 0 10 -262144
-1 -1;
#X obj 131 45 gemhead 3;
#X obj 282 443 / 100;
#X obj 282 490 k_range 0 1 2 -2;
#X obj 309 518 > 0.5;
#X obj 309 564 sel 1;
#X obj 309 540 change;
#X obj 416 711 s trigger_line;
#X floatatom 276 199 5 0 0 0 - - -, f 5;
#X obj 324 90 bng 15 250 50 0 empty empty empty 17 7 0 10 -262144 -1
-1;
#X obj 276 221 t f f f f f f;
#X obj 364 451 * -1;
#X obj 284 310 * 300;
#X obj 131 248 translateXYZ 0 3 0.01;
#X obj 276 134 t b b;
#X obj 278 13 r allbang;
#X obj 624 265 sel 0 1 2 3 4 5 6 7;
#X obj 624 482 s \$0-pitch;
#X msg 624 293 60;
#X msg 637 315 62;
#X msg 651 338 64;
#X obj 548 493 r \$0-pitch;
#X obj 548 518 mtof;
#X floatatom 548 539 5 0 0 0 - - -, f 5;
#X obj 370 553 t b b b;
#X obj 255 607 t b b;
#X obj 255 655 del 100;
#X obj 126 523 rotateXYZ 0 0 180;
#X obj 276 156 randomF 2;
#N canvas 546 266 560 470 init 0;
#X obj 86 329 t a;
#X obj 89 33 loadbang;
#X msg 138 99 mass fix 0 10 0;
#X obj 86 355 s \$0-in;
#X obj 89 59 t b b b b b;
#X msg 161 80 reset;
#X obj 44 13 inlet;
#X msg 125 120 mass mob 1 10 0 \, mass mob 1 10 0 \, mass mob 1 10
0;
#X msg 86 301 Xmax 255 \, Xmin 0;
#X msg 157 230 link souple 1 0 1 \$1 \, link souple 1 2 1 \$1 \, link
souple 3 2 1 \$1;
#X obj 157 176 random 3;
#X obj 157 202 + 1;
#X connect 0 0 3 0;
#X connect 1 0 4 0;
#X connect 2 0 0 0;
#X connect 4 0 8 0;
#X connect 4 1 10 0;
#X connect 4 2 7 0;
#X connect 4 3 2 0;
#X connect 4 4 5 0;
#X connect 5 0 0 0;
#X connect 6 0 4 0;
#X connect 7 0 0 0;
#X connect 8 0 0 0;
#X connect 9 0 0 0;
#X connect 10 0 11 0;
#X connect 11 0 9 0;
#X restore -17 547 pd init;
#X obj -16 689 s \$0-out;
#X obj -16 640 r \$0-in;
#X obj -65 357 s \$0-in;
#X msg -65 334 posX fix \$1;
#N canvas 565 515 355 193 compute 0;
#X obj 159 37 inlet;
#X obj 159 74 metro 20;
#X obj 159 135 s \$0-in;
#X msg 159 104 bang \, massesPosL;
#X connect 0 0 1 0;
#X connect 1 0 3 0;
#X connect 3 0 2 0;
#X restore -17 615 pd compute;
#X obj -17 598 tgl 15 0 empty empty ON/OFF 25 10 1 10 -262144 -1 -1
1 1;
#X obj -64 122 r \$0-out;
#X obj -17 530 bng 15 250 50 0 empty empty reset 25 10 1 10 -262144
-1 -1;
#X obj -64 146 route massesPosL;
#X obj 17 194 vsl 15 127 0 127 0 0 empty empty empty 0 -8 0 8 -262144
-1 -1 8108 1;
#X obj -64 167 unpack f f f f;
#X obj -16 664 pmpd;
#X obj -17 578 loadbang;
#X obj -65 197 vsl 15 127 0 127 0 0 empty empty empty 0 -8 0 8 -262144
-1 -1 8108 1;
#X obj -31 415 k_range 0 3 0 127;
#X obj 58 373 k_range 0 127 0 3;
#X obj 131 275 circle 0.08;
#X obj 131 326 circle 0.08;
#X obj 276 177 + 0.25;
#X obj 398 493 moses 0.5;
#X obj 282 466 t f f f;
#X msg 400 514 0;
#X msg 449 537 1;
#X msg 500 539 0;
#X obj 416 660 spigot;
#X obj 449 565 tgl 15 0 empty empty empty 17 7 0 10 -262144 -1 -1 0
1;
#X obj 449 632 pipe 1;
#X obj 449 587 change;
#X obj 449 612 t f f f;
#X obj 449 515 moses 0.7;
#X obj 131 72 spigot;
#X obj 164 21 random 2;
#X obj 126 418 spigot;
#X obj 255 586 sel 0 1;
#X obj 416 686 pack f f f f;
#X obj 278 38 t b b;
#X obj 126 393 gemhead 100;
#X obj 126 496 translateXYZ 0 0 0;
#X msg 255 679 0.06;
#X msg 282 631 0.1;
#X obj 89 687 triangle 0.06;
#X obj 126 444 color 1 1 1;
#X obj 282 414 k_count 2 200;
#X obj 130 610 gate 2;
#X msg 130 581 1;
#X msg 88 579 2;
#X obj 130 556 loadbang;
#X obj 175 591 sel 0 1;
#X obj 129 715 circle 0.05;
#X msg 665 367 65;
#X msg 681 389 67;
#X msg 694 411 69;
#X msg 708 434 71;
#X msg 722 463 72;
#X connect 0 0 8 0;
#X connect 1 0 37 0;
#X connect 2 0 1 0;
#X connect 3 0 71 0;
#X connect 4 0 5 0;
#X connect 5 0 0 1;
#X connect 5 0 88 1;
#X connect 6 0 38 0;
#X connect 7 0 3 2;
#X connect 8 0 2 0;
#X connect 9 0 8 1;
#X connect 10 0 11 0;
#X connect 10 0 40 0;
#X connect 11 0 13 0;
#X connect 11 1 14 0;
#X connect 11 2 15 0;
#X connect 11 3 16 0;
#X connect 11 4 17 0;
#X connect 11 5 18 0;
#X connect 11 6 19 0;
#X connect 11 7 20 0;
#X connect 13 0 12 0;
#X connect 14 0 12 0;
#X connect 15 0 12 0;
#X connect 16 0 12 0;
#X connect 17 0 12 0;
#X connect 18 0 12 0;
#X connect 19 0 12 0;
#X connect 20 0 12 0;
#X connect 21 0 22 0;
#X connect 22 0 91 1;
#X connect 23 0 91 0;
#X connect 23 1 96 0;
#X connect 24 0 21 0;
#X connect 25 0 84 0;
#X connect 26 0 74 0;
#X connect 27 0 78 0;
#X connect 27 0 91 2;
#X connect 28 0 30 0;
#X connect 29 0 48 0;
#X connect 30 0 29 0;
#X connect 32 0 68 0;
#X connect 33 0 38 0;
#X connect 34 0 7 0;
#X connect 34 1 37 2;
#X connect 34 2 1 2;
#X connect 34 3 36 0;
#X connect 34 4 35 0;
#X connect 34 5 27 3;
#X connect 35 0 27 4;
#X connect 36 0 26 1;
#X connect 36 0 96 2;
#X connect 37 0 70 0;
#X connect 38 0 52 0;
#X connect 38 1 10 0;
#X connect 39 0 89 0;
#X connect 40 0 42 0;
#X connect 40 1 43 0;
#X connect 40 2 44 0;
#X connect 40 3 103 0;
#X connect 40 4 104 0;
#X connect 40 5 105 0;
#X connect 40 6 106 0;
#X connect 40 7 107 0;
#X connect 42 0 41 0;
#X connect 43 0 41 0;
#X connect 44 0 41 0;
#X connect 45 0 46 0;
#X connect 46 0 47 0;
#X connect 47 0 88 3;
#X connect 49 0 50 0;
#X connect 49 1 93 0;
#X connect 50 0 92 0;
#X connect 51 0 97 1;
#X connect 52 0 72 0;
#X connect 55 0 65 0;
#X connect 57 0 56 0;
#X connect 59 0 58 0;
#X connect 60 0 62 0;
#X connect 61 0 53 0;
#X connect 62 0 64 0;
#X connect 63 0 69 0;
#X connect 64 3 63 0;
#X connect 65 0 54 0;
#X connect 66 0 59 0;
#X connect 67 0 57 0;
#X connect 68 0 67 0;
#X connect 69 0 34 0;
#X connect 70 0 3 0;
#X connect 72 0 32 0;
#X connect 73 0 75 0;
#X connect 73 1 83 0;
#X connect 74 0 27 0;
#X connect 74 1 28 0;
#X connect 74 2 73 0;
#X connect 75 0 79 0;
#X connect 76 0 79 0;
#X connect 77 0 79 0;
#X connect 78 0 88 0;
#X connect 79 0 81 0;
#X connect 80 0 78 1;
#X connect 81 0 82 0;
#X connect 82 0 80 0;
#X connect 82 1 88 2;
#X connect 82 2 87 0;
#X connect 82 2 101 0;
#X connect 83 0 76 0;
#X connect 83 1 77 0;
#X connect 84 0 0 0;
#X connect 85 0 84 1;
#X connect 85 0 86 1;
#X connect 86 0 95 0;
#X connect 87 0 49 0;
#X connect 88 0 31 0;
#X connect 89 0 33 0;
#X connect 89 1 85 0;
#X connect 90 0 86 0;
#X connect 91 0 51 0;
#X connect 92 0 94 1;
#X connect 93 0 94 1;
#X connect 95 0 23 0;
#X connect 96 0 26 0;
#X connect 97 0 94 0;
#X connect 97 1 102 0;
#X connect 98 0 97 0;
#X connect 99 0 97 0;
#X connect 100 0 98 0;
#X connect 101 0 98 0;
#X connect 101 1 99 0;
#X connect 103 0 41 0;
#X connect 104 0 41 0;
#X connect 105 0 41 0;
#X connect 106 0 41 0;
#X connect 107 0 41 0;
