#N canvas 594 39 953 741 10;
#X obj -90 99 translateXYZ;
#X obj -91 251 alpha;
#X obj 191 46 r mouse;
#X obj -91 340 text2d;
#X msg -156 324 text \$1;
#X obj -70 -124 loadbang;
#X obj -156 300 f \$1;
#X obj -46 341 loadbang;
#X obj 191 99 unpack f f;
#X obj 10 168 f;
#X obj 45 178 f;
#X obj 153 298 pack f f f;
#X obj 153 360 s nodoPos;
#X obj 211 423 r nodoPos;
#X obj 211 451 route;
#X obj 238 399 + 1;
#X obj 211 482 unpack f f;
#X obj 211 507 pack f f 0;
#X obj 107 396 gemhead 5;
#X obj 107 538 curve 2;
#X obj 126 508 pack f f 0;
#X obj 107 422 spigot;
#X obj 237 281 expr if($f1%2==0 \, 1 \, 0);
#X obj 210 228 f \$1;
#X obj 238 376 f \$1;
#X obj 237 304 tgl 15 0 empty empty empty 17 7 0 10 -262144 -1 -1 1
1;
#X msg 153 329 \$3 \$1 \$2;
#X obj -70 -101 t b b;
#X obj -70 -70 delay;
#X obj -33 -69 f \$1;
#X obj -70 -36 t b b b b b b b;
#X obj 25 330 spigot;
#X obj -98 408 loadbang;
#X msg -98 434 draw line;
#X obj 210 250 t f f;
#X obj -1 480 loadbang;
#X obj -91 281 circle 0.1;
#X msg -46 366 8;
#X obj -90 70 gemhead 20;
#X obj -145 -35 loadbang;
#X obj -145 -14 f \$1;
#X obj -145 8 % 2;
#X obj -145 33 sel 0 1;
#X obj 24 383 color 1 1 1;
#X obj 24 410 circle 0.15;
#X obj 25 359 separator;
#X obj -90 166 t a a;
#X obj -91 188 separator;
#X obj -90 139 scale 1;
#X msg -146 69 1;
#X obj 107 481 color 0.1 0.1 0.1;
#X obj 107 449 GEMglPointSize 1;
#X msg -1 509 draw point \, res 100;
#X obj -70 -147 r resetbang;
#N canvas 481 48 1334 700 draw 1;
#X obj 89 118 inlet;
#X obj -120 385 t f b b b b;
#X obj 25 343 t f b b b b;
#X obj -120 361 t f f;
#X obj 25 440 expr pow($f1 \, 3)*($f3+3*($f4-$f5)-$f2)+3*pow($f1 \,
2)*($f2-2*$f4+$f5)+3*$f1*($f4-$f2)+$f2;
#X obj -120 489 expr pow($f1 \, 3)*($f3+3*($f4-$f5)-$f2)+3*pow($f1
\, 2)*($f2-2*$f4+$f5)+3*$f1*($f4-$f2)+$f2;
#X obj -105 407 value \$0-x1;
#X obj -89 426 value \$0-x2;
#X obj 382 19 spigot;
#X obj 415 -28 tgl 15 0 empty empty empty 17 7 0 10 -262144 -1 -1 1
1;
#X obj 415 -72 f \$1;
#X obj 415 -51 expr if($f1%4==0 \, 1 \, 0);
#X obj 415 -100 loadbang;
#X obj 40 363 value \$0-y1;
#X obj 56 382 value \$0-y2;
#X obj 72 401 value \$0-y3;
#X obj 88 421 value \$0-y4;
#X obj 47 173 r nodoPos;
#X obj 47 223 route;
#X obj 47 254 unpack f f;
#X obj 89 202 f \$1;
#X obj 89 146 t b b b b;
#X obj 89 225 + 0;
#X obj 127 175 r nodoPos;
#X obj 127 225 route;
#X obj 127 256 unpack f f;
#X obj 169 204 f \$1;
#X obj 208 179 r nodoPos;
#X obj 208 229 route;
#X obj 208 260 unpack f f;
#X obj 250 208 f \$1;
#X obj 288 181 r nodoPos;
#X obj 288 231 route;
#X obj 288 262 unpack f f;
#X obj 330 210 f \$1;
#X obj 169 227 + 1;
#X obj 250 231 + 2;
#X obj 330 233 + 3;
#X obj 48 292 value \$0-x1;
#X obj -73 446 value \$0-x3;
#X obj -57 466 value \$0-x4;
#X obj 288 297 value \$0-x4;
#X obj 104 319 value \$0-y1;
#X obj 345 319 value \$0-y4;
#X obj 211 281 value \$0-x2;
#X obj 127 281 value \$0-x3;
#X obj 265 327 value \$0-y2;
#X obj 184 318 value \$0-y3;
#X obj -166 229 GEMglEnd;
#X obj -115 198 GEMglBegin;
#X obj -166 198 t a a a;
#X obj -157 534 GEMglVertex3f 0 0 0;
#X obj -147 286 t a b;
#X obj -120 309 f;
#X obj -89 309 + 1;
#X obj -114 142 once;
#X obj -166 164 t a b;
#X obj -147 253 repeat 100;
#X obj -59 309 % 100;
#X obj -120 334 / 99;
#X obj 433 242 t f b b b b;
#X obj 578 200 t f b b b b;
#X obj 433 218 t f f;
#X obj 578 297 expr pow($f1 \, 3)*($f3+3*($f4-$f5)-$f2)+3*pow($f1 \,
2)*($f2-2*$f4+$f5)+3*$f1*($f4-$f2)+$f2;
#X obj 433 346 expr pow($f1 \, 3)*($f3+3*($f4-$f5)-$f2)+3*pow($f1 \,
2)*($f2-2*$f4+$f5)+3*$f1*($f4-$f2)+$f2;
#X obj 448 264 value \$0-x1;
#X obj 464 283 value \$0-x2;
#X obj 593 220 value \$0-y1;
#X obj 609 239 value \$0-y2;
#X obj 625 258 value \$0-y3;
#X obj 641 278 value \$0-y4;
#X obj 480 303 value \$0-x3;
#X obj 496 323 value \$0-x4;
#X obj 405 107 t a b;
#X obj 432 130 f;
#X obj 463 130 + 1;
#X obj 420 417 translateXYZ;
#X obj 421 521 circle 0.05;
#X obj 383 43 t a a;
#X obj -166 67 separator;
#X obj 382 77 separator;
#X obj -166 91 color 1 1 1;
#X obj 432 178 expr 2*abs($f1-0.5);
#X obj 564 -73 r \$0-length;
#X obj 564 26 + 1;
#X floatatom 564 51 5 0 0 0 - - -;
#X obj 564 -47 expr int($f1*1);
#X floatatom 564 3 5 0 0 0 - - -;
#X obj 564 -20 moses 9;
#X obj 564 75 expr 10-$f1;
#X msg 610 3 8;
#X obj 493 130 % 100;
#X obj 566 124 t f f;
#X obj 566 148 -;
#X floatatom 564 168 5 0 0 0 - - -;
#X obj 656 86 expr if($f1>0 \, 1 \, 0);
#X obj 659 108 change;
#X obj 660 129 t b;
#X obj 917 398 + 0.3;
#X obj 918 372 randomF 0.5;
#X obj 610 458 line;
#X obj 424 482 alpha;
#X obj 542 430 loadbang;
#X obj 424 451 color 1 0 0 0.8;
#X msg 539 459 auto 1;
#X msg 612 427 0.15 \, 0.05 50;
#X obj 432 155 / 99;
#X floatatom 1015 344 5 0 0 0 - - -;
#X obj 1015 323 r \$0-fre2;
#X obj 918 336 sel 0 1;
#X obj 1009 434 + 0.3;
#X obj 1010 408 randomF 0.5;
#X obj 1015 367 expr int($f1*100)+300;
#X msg 1009 458 \$1 \, 0 300;
#X msg 917 422 \$1 \, 0 300;
#X obj 382 -6 gemhead 50;
#X obj 386 -64 bng 15 250 50 0 empty empty empty 17 7 0 10 -262144
-1 -1;
#X msg -115 172 0;
#X obj -166 118 GEMglPointSize 2;
#X connect 0 0 21 0;
#X connect 1 0 5 0;
#X connect 1 1 6 0;
#X connect 1 2 7 0;
#X connect 1 3 39 0;
#X connect 1 4 40 0;
#X connect 2 0 4 0;
#X connect 2 1 13 0;
#X connect 2 2 14 0;
#X connect 2 3 15 0;
#X connect 2 4 16 0;
#X connect 3 0 1 0;
#X connect 3 1 2 0;
#X connect 4 0 51 2;
#X connect 5 0 51 1;
#X connect 6 0 5 1;
#X connect 7 0 5 2;
#X connect 8 0 78 0;
#X connect 9 0 8 1;
#X connect 10 0 11 0;
#X connect 11 0 9 0;
#X connect 12 0 10 0;
#X connect 13 0 4 1;
#X connect 14 0 4 2;
#X connect 15 0 4 3;
#X connect 16 0 4 4;
#X connect 17 0 18 0;
#X connect 18 0 19 0;
#X connect 19 0 38 0;
#X connect 19 1 42 0;
#X connect 20 0 22 0;
#X connect 21 0 20 0;
#X connect 21 1 26 0;
#X connect 21 2 30 0;
#X connect 21 3 34 0;
#X connect 22 0 18 1;
#X connect 23 0 24 0;
#X connect 24 0 25 0;
#X connect 25 0 45 0;
#X connect 25 1 47 0;
#X connect 26 0 35 0;
#X connect 27 0 28 0;
#X connect 28 0 29 0;
#X connect 29 0 44 0;
#X connect 29 1 46 0;
#X connect 30 0 36 0;
#X connect 31 0 32 0;
#X connect 32 0 33 0;
#X connect 33 0 41 0;
#X connect 33 1 43 0;
#X connect 34 0 37 0;
#X connect 35 0 24 1;
#X connect 36 0 28 1;
#X connect 37 0 32 1;
#X connect 39 0 5 3;
#X connect 40 0 5 4;
#X connect 50 0 48 0;
#X connect 50 1 57 0;
#X connect 50 2 49 0;
#X connect 52 0 51 0;
#X connect 52 1 53 0;
#X connect 53 0 54 0;
#X connect 53 0 59 0;
#X connect 54 0 58 0;
#X connect 55 0 117 0;
#X connect 56 0 50 0;
#X connect 56 1 55 0;
#X connect 57 0 52 0;
#X connect 58 0 53 1;
#X connect 59 0 3 0;
#X connect 60 0 64 0;
#X connect 60 1 65 0;
#X connect 60 2 66 0;
#X connect 60 3 71 0;
#X connect 60 4 72 0;
#X connect 61 0 63 0;
#X connect 61 1 67 0;
#X connect 61 2 68 0;
#X connect 61 3 69 0;
#X connect 61 4 70 0;
#X connect 62 0 60 0;
#X connect 62 1 61 0;
#X connect 63 0 76 2;
#X connect 64 0 76 1;
#X connect 65 0 64 1;
#X connect 66 0 64 2;
#X connect 67 0 63 1;
#X connect 68 0 63 2;
#X connect 69 0 63 3;
#X connect 70 0 63 4;
#X connect 71 0 64 3;
#X connect 72 0 64 4;
#X connect 73 0 76 0;
#X connect 73 1 74 0;
#X connect 74 0 75 0;
#X connect 74 0 106 0;
#X connect 75 0 91 0;
#X connect 76 0 103 0;
#X connect 78 0 80 0;
#X connect 78 1 79 0;
#X connect 79 0 81 0;
#X connect 81 0 118 0;
#X connect 82 0 62 0;
#X connect 82 0 92 0;
#X connect 83 0 86 0;
#X connect 84 0 85 0;
#X connect 85 0 89 0;
#X connect 86 0 88 0;
#X connect 87 0 84 0;
#X connect 88 0 87 0;
#X connect 88 1 90 0;
#X connect 89 0 75 1;
#X connect 90 0 87 0;
#X connect 91 0 74 1;
#X connect 92 0 93 1;
#X connect 92 1 93 0;
#X connect 93 0 94 0;
#X connect 94 0 95 0;
#X connect 95 0 96 0;
#X connect 96 0 97 0;
#X connect 96 0 109 0;
#X connect 97 0 105 0;
#X connect 98 0 114 0;
#X connect 99 0 98 0;
#X connect 100 0 77 1;
#X connect 101 0 77 0;
#X connect 102 0 104 0;
#X connect 103 0 101 0;
#X connect 104 0 101 0;
#X connect 105 0 100 0;
#X connect 106 0 82 0;
#X connect 107 0 112 0;
#X connect 108 0 107 0;
#X connect 109 0 99 0;
#X connect 109 1 111 0;
#X connect 110 0 113 0;
#X connect 111 0 110 0;
#X connect 115 0 8 0;
#X connect 116 0 10 0;
#X connect 117 0 49 1;
#X connect 118 0 56 0;
#X restore 2 -10 pd draw line;
#X obj 406 273 tgl 15 0 empty empty empty 17 7 0 10 -262144 -1 -1 1
1;
#X obj 406 229 f \$1;
#X obj 406 201 loadbang;
#X obj 10 196 s \$0-x;
#X obj 45 233 s \$0-y;
#X obj 165 543 r \$0-x;
#X obj 207 545 r \$0-y;
#X obj -67 45 r \$0-x;
#X obj -44 19 r \$0-y;
#X obj 153 235 r \$0-x;
#X obj 181 204 r \$0-y;
#N canvas 334 284 315 468 color 0;
#X obj -45 238 inlet;
#X obj -36 325 outlet;
#X obj 71 157 sel 0 1;
#X msg 71 189 1 1 1;
#X obj 70 215 unpack f f f;
#X obj 71 66 gate 2;
#X obj 71 38 expr if($f1%2==0 \, 1 \, 2);
#X obj 104 95 sel 0 1;
#X obj 73 18 f \$1;
#X msg 123 157 1 1 0;
#X msg 117 188 1 1 0;
#X obj 72 -7 inlet;
#X obj 135 65 r \$0-click;
#X obj -52 288 colorRGB 1 1 1 1;
#X msg 104 127 0.3 0.3 0.3;
#X connect 0 0 13 0;
#X connect 2 0 3 0;
#X connect 2 1 10 0;
#X connect 3 0 4 0;
#X connect 4 0 13 1;
#X connect 4 1 13 2;
#X connect 4 2 13 3;
#X connect 5 0 2 0;
#X connect 5 1 7 0;
#X connect 6 0 5 0;
#X connect 7 0 14 0;
#X connect 7 1 9 0;
#X connect 8 0 6 0;
#X connect 9 0 4 0;
#X connect 10 0 4 0;
#X connect 11 0 8 0;
#X connect 12 0 5 1;
#X connect 13 0 1 0;
#X connect 14 0 4 0;
#X restore -91 224 pd color;
#X obj 58 294 r \$0-click;
#X obj 313 415 translateXYZ;
#X obj 313 310 gemhead 20;
#X obj 336 361 r \$0-x;
#X obj 359 335 r \$0-y;
#X obj 313 467 colorRGB 1 1 1 1;
#X obj 313 388 spigot;
#X obj -91 310 colorRGB 0 0 0 1;
#X msg -130 92 0.7;
#X obj 91 -114 loadbang;
#X obj 92 -61 sel 0 1 2 3;
#X obj 91 -86 f \$1;
#X msg 92 -33 -3.8 0;
#X msg 147 49 0 0;
#X obj 13 117 unpack f f;
#X msg 107 -9 0 0;
#X msg 132 25 3.8 0;
#X obj 191 75 spigot;
#X obj 251 -145 loadbang;
#X obj 252 -92 sel 0 1 2 3;
#X obj 251 -117 f \$1;
#X msg 252 -64 0;
#X msg 267 -40 1;
#X msg 292 -6 0;
#X msg 307 18 1;
#X obj 292 41 f;
#X obj -41 251 spigot;
#X obj 313 441 translateXYZ 0 0 0;
#X obj 313 495 circle 0.05;
#X obj 406 250 expr if($f1%2==0 \, 1 \, 0);
#X connect 0 0 48 0;
#X connect 1 0 93 0;
#X connect 2 0 84 0;
#X connect 4 0 3 0;
#X connect 5 0 27 0;
#X connect 6 0 4 0;
#X connect 7 0 37 0;
#X connect 8 0 9 0;
#X connect 8 1 10 0;
#X connect 9 0 58 0;
#X connect 10 0 59 0;
#X connect 11 0 26 0;
#X connect 13 0 14 0;
#X connect 14 0 16 0;
#X connect 15 0 14 1;
#X connect 16 0 17 0;
#X connect 16 1 17 1;
#X connect 17 0 19 2;
#X connect 18 0 21 0;
#X connect 20 0 19 1;
#X connect 21 0 51 0;
#X connect 22 0 25 0;
#X connect 23 0 34 0;
#X connect 24 0 15 0;
#X connect 25 0 21 1;
#X connect 26 0 12 0;
#X connect 27 0 28 0;
#X connect 27 1 29 0;
#X connect 28 0 30 0;
#X connect 29 0 28 1;
#X connect 30 0 6 0;
#X connect 30 1 76 0;
#X connect 30 2 85 0;
#X connect 30 3 23 0;
#X connect 30 4 24 0;
#X connect 30 5 54 0;
#X connect 30 6 66 1;
#X connect 31 0 45 0;
#X connect 32 0 33 0;
#X connect 33 0 44 0;
#X connect 34 0 11 2;
#X connect 34 1 22 0;
#X connect 35 0 52 0;
#X connect 36 0 74 0;
#X connect 37 0 3 1;
#X connect 38 0 0 0;
#X connect 39 0 40 0;
#X connect 40 0 41 0;
#X connect 41 0 42 0;
#X connect 42 0 49 0;
#X connect 42 1 75 0;
#X connect 43 0 44 0;
#X connect 45 0 43 0;
#X connect 46 0 47 0;
#X connect 46 1 31 0;
#X connect 47 0 66 0;
#X connect 48 0 46 0;
#X connect 49 0 48 1;
#X connect 50 0 19 0;
#X connect 52 0 19 0;
#X connect 53 0 5 0;
#X connect 55 0 73 1;
#X connect 56 0 96 0;
#X connect 57 0 56 0;
#X connect 60 0 20 0;
#X connect 61 0 20 1;
#X connect 62 0 0 1;
#X connect 63 0 0 2;
#X connect 64 0 11 0;
#X connect 65 0 11 1;
#X connect 66 0 1 0;
#X connect 67 0 31 1;
#X connect 68 0 94 0;
#X connect 69 0 73 0;
#X connect 70 0 68 1;
#X connect 71 0 68 2;
#X connect 72 0 95 0;
#X connect 73 0 68 0;
#X connect 74 0 3 0;
#X connect 75 0 48 1;
#X connect 76 0 78 0;
#X connect 77 0 79 0;
#X connect 77 1 82 0;
#X connect 77 2 83 0;
#X connect 77 3 80 0;
#X connect 78 0 77 0;
#X connect 79 0 81 0;
#X connect 80 0 81 0;
#X connect 81 0 9 0;
#X connect 81 1 10 0;
#X connect 82 0 81 0;
#X connect 83 0 81 0;
#X connect 84 0 8 0;
#X connect 85 0 87 0;
#X connect 86 0 88 0;
#X connect 86 1 89 0;
#X connect 86 2 90 0;
#X connect 86 3 91 0;
#X connect 87 0 86 0;
#X connect 88 0 92 0;
#X connect 89 0 92 0;
#X connect 90 0 92 0;
#X connect 91 0 92 0;
#X connect 92 0 84 1;
#X connect 93 0 36 0;
#X connect 94 0 72 0;
#X connect 96 0 55 0;
