#N canvas 577 104 318 309 10;
#X declare -path /Users/aluan/AVLab/av9;
#X obj -82 77 gemwin;
#X msg -101 24 destroy;
#X obj -101 -3 sel 0 1;
#X obj -101 -24 tgl 15 0 empty empty empty 17 7 0 10 -262144 -1 -1
1 1;
#N canvas 302 59 1074 668 mouseControl 0;
#X obj 12 31 gemmouse 1 1;
#X obj 12 113 expr ($f1*8)-4;
#X obj 81 93 s mouseRight;
#X obj 39 187 v x;
#X obj 77 186 v y;
#X obj 29 138 expr ($f1*-8)+4;
#X obj 12 235 s mousePos;
#X obj 12 209 pack f f;
#X obj 12 163 t f f;
#X obj 50 164 t f f;
#X obj 46 73 s mouseLeft;
#X obj 63 52 s mouseMiddle;
#X obj 182 119 v x;
#X obj 252 68 sel 1;
#X obj 252 120 v x;
#X obj 279 120 v y;
#X obj 252 92 t b b;
#X obj 137 167 expr ($f1+$f2)/2;
#X obj 178 195 expr ($f1+$f2)/2;
#X obj 248 256 max;
#X obj 279 256 min;
#X obj 312 256 max;
#X obj 343 256 min;
#X obj 248 212 t f f;
#X obj 311 211 t f f;
#X obj 248 285 -;
#X obj 312 281 -;
#X obj 248 307 / 2;
#X obj 312 305 / 2;
#X obj 209 119 v y;
#X obj 182 67 sel 0;
#X obj 182 17 r mouseLeft;
#X floatatom 248 334 5 0 0 0 - - -;
#X floatatom 312 328 5 0 0 0 - - -;
#X floatatom 137 189 5 0 0 0 - - -;
#X floatatom 178 219 5 0 0 0 - - -;
#X obj 99 388 pack f f f f;
#X obj 137 141 t f f;
#X obj 209 141 t f f;
#X obj 99 426 list prepend 0;
#X obj 291 -50 gemkeyboard;
#X floatatom 291 -24 5 0 0 0 - - -;
#X obj 291 0 sel 49;
#X obj 291 25 s all-close;
#X obj 180 396 f;
#X obj 206 396 + 1;
#X obj 234 396 % 10;
#X obj 182 91 t b b b;
#X msg 602 33 0;
#X obj 99 453 s torect;
#X msg 306 56 \; edge const 0;
#X obj 698 149 + 1;
#X obj 726 149 % 10;
#X obj 672 149 f 0;
#X obj 182 39 t f f f;
#X obj 514 90 sel 1;
#X floatatom 672 178 5 0 0 0 - - -;
#X msg 687 121 0;
#X obj 514 207 tgl 15 0 empty empty empty 17 7 0 10 -262144 -1 -1 0
1;
#X obj 540 288 + 1;
#X obj 571 287 % 2;
#X obj 436 559 s;
#X obj 436 488 pack f f;
#X msg 463 534 symbol \$1_\$2;
#X obj 436 512 t b a;
#X obj 514 287 f 0;
#X obj 596 148 gemkeyboard;
#X floatatom 596 174 5 0 0 0 - - -;
#X obj 596 198 sel 49;
#X msg 596 220 0;
#X msg 514 168 1;
#X obj 514 136 t b b;
#X obj 756 467 translateXYZ;
#X obj 756 496 circle 0.1;
#X obj 676 507 loadbang;
#X obj 756 443 GEMglPointSize 1;
#X obj 756 552 circle 0.2;
#X obj 756 418 gemhead 40;
#X msg 675 528 draw point;
#X obj 817 276 r road-path;
#X obj 817 381 line;
#X obj 869 381 line;
#X obj 756 356 loadbang;
#X msg 756 383 0;
#X obj 672 205 expr ($f1+1)*2+2;
#X floatatom 672 230 5 0 0 0 - - -;
#X floatatom 436 358 5 0 0 0 - - -;
#X floatatom 570 376 5 0 0 0 - - -;
#X floatatom 481 311 5 0 0 0 - - -;
#X obj 481 333 split 1 4;
#X obj 532 311 - 2;
#X obj 436 402 expr if(modf($f1/2)>0.4 \, int($f1/2)+1 \, int($f1/2))
;
#X floatatom 436 438 5 0 0 0 - - -;
#X obj 436 459 - 1;
#X obj 436 381 t f f;
#X obj 481 461 expr 1-($f1%2);
#X obj 570 426 sel 0;
#X obj 817 324 t f f;
#X obj 611 449 t b;
#X obj 918 379 v tga-y;
#X obj 877 408 v tga-x;
#X obj 570 557 s road-path;
#X obj 611 472 v tga-x;
#X obj 611 496 pack f 0;
#X msg 570 528 -3.5 0;
#X obj 514 111 del 900;
#X obj 487 257 t b b;
#X obj 931 443 expr abs($f1)/4;
#X obj 873 323 t f f f;
#X obj 878 471 osc~;
#X obj 817 300 unpack f f f;
#X floatatom 939 325 5 0 0 0 - - -;
#X obj 878 564 dac~;
#X obj 939 302 k_range 0 2 200 700;
#X obj 878 495 *~ 0;
#X obj 878 534 *~;
#X obj 931 504 sig~;
#X obj 514 232 metro 200;
#X msg 817 352 \$1 190;
#X msg 869 352 \$1 190;
#X connect 0 0 1 0;
#X connect 0 1 5 0;
#X connect 0 2 10 0;
#X connect 0 3 11 0;
#X connect 0 4 2 0;
#X connect 1 0 8 0;
#X connect 5 0 9 0;
#X connect 7 0 6 0;
#X connect 8 0 7 0;
#X connect 8 1 3 0;
#X connect 9 0 7 1;
#X connect 9 1 4 0;
#X connect 12 0 37 0;
#X connect 13 0 16 0;
#X connect 14 0 17 1;
#X connect 14 0 19 1;
#X connect 14 0 20 1;
#X connect 15 0 18 1;
#X connect 15 0 22 1;
#X connect 15 0 21 1;
#X connect 16 0 14 0;
#X connect 16 1 15 0;
#X connect 17 0 34 0;
#X connect 18 0 35 0;
#X connect 19 0 25 0;
#X connect 20 0 25 1;
#X connect 21 0 26 0;
#X connect 22 0 26 1;
#X connect 23 0 19 0;
#X connect 23 1 20 0;
#X connect 24 0 21 0;
#X connect 24 1 22 0;
#X connect 25 0 27 0;
#X connect 26 0 28 0;
#X connect 27 0 32 0;
#X connect 28 0 33 0;
#X connect 29 0 38 0;
#X connect 30 0 47 0;
#X connect 31 0 54 0;
#X connect 32 0 36 2;
#X connect 33 0 36 3;
#X connect 34 0 36 0;
#X connect 35 0 36 1;
#X connect 36 0 39 0;
#X connect 37 0 17 0;
#X connect 37 1 23 0;
#X connect 38 0 18 0;
#X connect 38 1 24 0;
#X connect 39 0 49 0;
#X connect 40 0 41 0;
#X connect 41 0 42 0;
#X connect 42 0 43 0;
#X connect 42 0 48 0;
#X connect 42 0 50 0;
#X connect 42 0 57 0;
#X connect 44 0 45 0;
#X connect 44 0 39 1;
#X connect 45 0 46 0;
#X connect 46 0 44 1;
#X connect 47 0 12 0;
#X connect 47 1 29 0;
#X connect 47 2 44 0;
#X connect 48 0 44 1;
#X connect 48 0 58 0;
#X connect 51 0 52 0;
#X connect 52 0 53 1;
#X connect 53 0 51 0;
#X connect 53 0 56 0;
#X connect 54 0 30 0;
#X connect 54 1 13 0;
#X connect 54 2 55 0;
#X connect 55 0 105 0;
#X connect 56 0 84 0;
#X connect 57 0 53 1;
#X connect 58 0 77 0;
#X connect 58 0 114 1;
#X connect 58 0 117 0;
#X connect 59 0 60 0;
#X connect 60 0 65 1;
#X connect 62 0 64 0;
#X connect 63 0 61 1;
#X connect 64 0 61 0;
#X connect 64 1 63 0;
#X connect 65 0 59 0;
#X connect 65 0 88 0;
#X connect 66 0 67 0;
#X connect 67 0 68 0;
#X connect 68 0 69 0;
#X connect 69 0 65 1;
#X connect 70 0 58 0;
#X connect 71 0 70 0;
#X connect 71 1 53 0;
#X connect 72 0 73 0;
#X connect 73 0 76 0;
#X connect 74 0 78 0;
#X connect 75 0 72 0;
#X connect 77 0 75 0;
#X connect 78 0 76 0;
#X connect 79 0 110 0;
#X connect 80 0 72 1;
#X connect 81 0 72 2;
#X connect 81 0 107 0;
#X connect 82 0 83 0;
#X connect 83 0 77 0;
#X connect 84 0 85 0;
#X connect 85 0 60 1;
#X connect 85 0 90 0;
#X connect 86 0 94 0;
#X connect 87 0 96 0;
#X connect 88 0 89 0;
#X connect 89 0 86 0;
#X connect 89 1 87 0;
#X connect 90 0 89 2;
#X connect 91 0 92 0;
#X connect 92 0 93 0;
#X connect 93 0 62 0;
#X connect 94 0 91 0;
#X connect 94 1 95 0;
#X connect 95 0 62 1;
#X connect 96 0 104 0;
#X connect 96 1 98 0;
#X connect 97 0 118 0;
#X connect 97 1 100 0;
#X connect 98 0 102 0;
#X connect 102 0 103 0;
#X connect 103 0 101 0;
#X connect 104 0 101 0;
#X connect 105 0 71 0;
#X connect 106 1 65 0;
#X connect 107 0 116 0;
#X connect 108 0 119 0;
#X connect 108 1 99 0;
#X connect 109 0 114 0;
#X connect 110 0 97 0;
#X connect 110 1 108 0;
#X connect 110 2 113 0;
#X connect 111 0 109 0;
#X connect 113 0 111 0;
#X connect 114 0 115 0;
#X connect 115 0 112 0;
#X connect 115 0 112 1;
#X connect 116 0 115 1;
#X connect 117 0 106 0;
#X connect 118 0 80 0;
#X connect 119 0 81 0;
#X restore -32 72 pd mouseControl;
#N canvas 547 22 625 657 draw-rect 0;
#X obj -3 220 r mouseLeft;
#X obj 209 37 sel 1;
#X obj 209 89 v x;
#X obj 235 90 v y;
#X obj 84 151 expr ($f1+$f2)/2;
#X obj 145 172 expr ($f1+$f2)/2;
#X obj 109 55 r mousePos;
#X obj 109 88 unpack f f;
#X obj 170 277 max;
#X obj 201 277 min;
#X obj 234 277 max;
#X obj 265 277 min;
#X obj 170 233 t f f;
#X obj 233 232 t f f;
#X obj 170 306 -;
#X obj 234 302 -;
#X floatatom 170 328 5 0 0 0 - - -;
#X floatatom 234 322 5 0 0 0 - - -;
#X obj 170 348 / 2;
#X obj 234 346 / 2;
#X obj -2 334 t a a a a;
#X obj -2 494 curve 2;
#X obj 116 496 curve 2;
#X obj 217 508 curve 2;
#X obj 324 511 curve 2;
#X msg -47 443 draw point;
#X obj -47 418 loadbang;
#X obj 234 370 s rect-sy;
#X obj 168 372 s rect-sx;
#X obj 84 191 s rect-tx;
#X obj 145 195 s rect-ty;
#N canvas 775 389 450 300 pos 0;
#X obj 24 109 expr $f1+$f2;
#X obj 40 130 expr $f1+$f2;
#X obj 120 152 expr $f1+$f2;
#X obj 136 173 expr $f1-$f2;
#X obj 36 189 pack f f 0;
#X obj 48 212 pack f f 0;
#X obj 24 18 r rect-tx;
#X obj 94 19 r rect-ty;
#X obj 24 44 t f f;
#X obj 93 47 t f f;
#X obj 166 59 t f f;
#X obj 235 62 t f f;
#X obj 166 33 r rect-sx;
#X obj 236 34 r rect-sy;
#X obj 30 250 outlet;
#X obj 77 254 outlet;
#X connect 0 0 4 0;
#X connect 1 0 5 0;
#X connect 2 0 4 1;
#X connect 3 0 5 1;
#X connect 4 0 14 0;
#X connect 5 0 15 0;
#X connect 6 0 8 0;
#X connect 7 0 9 0;
#X connect 8 0 0 0;
#X connect 8 1 1 0;
#X connect 9 0 2 0;
#X connect 9 1 3 0;
#X connect 10 0 0 1;
#X connect 10 1 1 1;
#X connect 11 0 2 1;
#X connect 11 1 3 1;
#X connect 12 0 10 0;
#X connect 13 0 11 0;
#X restore 28 442 pd pos;
#N canvas 775 389 450 300 pos 0;
#X obj 120 152 expr $f1+$f2;
#X obj 136 173 expr $f1-$f2;
#X obj 36 189 pack f f 0;
#X obj 48 212 pack f f 0;
#X obj 24 18 r rect-tx;
#X obj 94 19 r rect-ty;
#X obj 24 44 t f f;
#X obj 93 47 t f f;
#X obj 166 59 t f f;
#X obj 235 62 t f f;
#X obj 166 33 r rect-sx;
#X obj 236 34 r rect-sy;
#X obj 30 250 outlet;
#X obj 77 254 outlet;
#X obj 24 109 expr $f1-$f2;
#X obj 40 130 expr $f1-$f2;
#X connect 0 0 2 1;
#X connect 1 0 3 1;
#X connect 2 0 12 0;
#X connect 3 0 13 0;
#X connect 4 0 6 0;
#X connect 5 0 7 0;
#X connect 6 0 14 0;
#X connect 6 1 15 0;
#X connect 7 0 0 0;
#X connect 7 1 1 0;
#X connect 8 0 14 1;
#X connect 8 1 15 1;
#X connect 9 0 0 1;
#X connect 9 1 1 1;
#X connect 10 0 8 0;
#X connect 11 0 9 0;
#X connect 14 0 2 0;
#X connect 15 0 3 0;
#X restore 130 445 pd pos;
#N canvas 775 389 450 300 pos 0;
#X obj 24 109 expr $f1+$f2;
#X obj 120 152 expr $f1+$f2;
#X obj 36 189 pack f f 0;
#X obj 48 212 pack f f 0;
#X obj 24 18 r rect-tx;
#X obj 94 19 r rect-ty;
#X obj 24 44 t f f;
#X obj 93 47 t f f;
#X obj 166 59 t f f;
#X obj 235 62 t f f;
#X obj 166 33 r rect-sx;
#X obj 236 34 r rect-sy;
#X obj 30 250 outlet;
#X obj 77 254 outlet;
#X obj 40 130 expr $f1-$f2;
#X obj 136 173 expr $f1+$f2;
#X connect 0 0 2 0;
#X connect 1 0 2 1;
#X connect 2 0 12 0;
#X connect 3 0 13 0;
#X connect 4 0 6 0;
#X connect 5 0 7 0;
#X connect 6 0 0 0;
#X connect 6 1 14 0;
#X connect 7 0 1 0;
#X connect 7 1 15 0;
#X connect 8 0 0 1;
#X connect 8 1 14 1;
#X connect 9 0 1 1;
#X connect 9 1 15 1;
#X connect 10 0 8 0;
#X connect 11 0 9 0;
#X connect 14 0 3 0;
#X connect 15 0 3 1;
#X restore 237 470 pd pos;
#N canvas 775 389 450 300 pos 0;
#X obj 24 109 expr $f1+$f2;
#X obj 36 189 pack f f 0;
#X obj 48 212 pack f f 0;
#X obj 24 18 r rect-tx;
#X obj 94 19 r rect-ty;
#X obj 24 44 t f f;
#X obj 93 47 t f f;
#X obj 166 59 t f f;
#X obj 235 62 t f f;
#X obj 166 33 r rect-sx;
#X obj 236 34 r rect-sy;
#X obj 30 250 outlet;
#X obj 77 254 outlet;
#X obj 40 130 expr $f1-$f2;
#X obj 136 173 expr $f1-$f2;
#X obj 120 152 expr $f1-$f2;
#X connect 0 0 1 0;
#X connect 1 0 11 0;
#X connect 2 0 12 0;
#X connect 3 0 5 0;
#X connect 4 0 6 0;
#X connect 5 0 0 0;
#X connect 5 1 13 0;
#X connect 6 0 15 0;
#X connect 6 1 14 0;
#X connect 7 0 0 1;
#X connect 7 1 13 1;
#X connect 8 0 15 1;
#X connect 8 1 14 1;
#X connect 9 0 7 0;
#X connect 10 0 8 0;
#X connect 13 0 2 0;
#X connect 14 0 2 1;
#X connect 15 0 1 1;
#X restore 338 469 pd pos;
#X obj -3 244 t f f;
#X obj 209 117 t f f f;
#X obj 288 132 t f f f;
#X obj 109 113 t f f;
#X obj 166 113 t f f;
#X obj 209 61 t b b b;
#X msg 303 26 0;
#X obj 294 66 t f f f f;
#X obj -2 276 gemhead 10;
#X obj -2 301 GEMglPointSize 2;
#X connect 0 0 35 0;
#X connect 1 0 40 0;
#X connect 2 0 36 0;
#X connect 3 0 37 0;
#X connect 4 0 29 0;
#X connect 5 0 30 0;
#X connect 6 0 7 0;
#X connect 7 0 38 0;
#X connect 7 1 39 0;
#X connect 8 0 14 0;
#X connect 9 0 14 1;
#X connect 10 0 15 0;
#X connect 11 0 15 1;
#X connect 12 0 8 0;
#X connect 12 1 9 0;
#X connect 13 0 10 0;
#X connect 13 1 11 0;
#X connect 14 0 16 0;
#X connect 15 0 17 0;
#X connect 16 0 18 0;
#X connect 17 0 19 0;
#X connect 18 0 28 0;
#X connect 19 0 27 0;
#X connect 20 0 21 0;
#X connect 20 1 22 0;
#X connect 20 2 23 0;
#X connect 20 3 24 0;
#X connect 25 0 21 0;
#X connect 25 0 22 0;
#X connect 25 0 23 0;
#X connect 25 0 24 0;
#X connect 26 0 25 0;
#X connect 31 0 21 1;
#X connect 31 1 21 2;
#X connect 32 0 22 1;
#X connect 32 1 22 2;
#X connect 33 0 23 1;
#X connect 33 1 23 2;
#X connect 34 0 24 1;
#X connect 34 1 24 2;
#X connect 35 0 43 0;
#X connect 35 1 1 0;
#X connect 36 0 4 1;
#X connect 36 1 8 1;
#X connect 36 2 9 1;
#X connect 37 0 5 1;
#X connect 37 1 10 1;
#X connect 37 2 11 1;
#X connect 38 0 4 0;
#X connect 38 1 12 0;
#X connect 39 0 5 0;
#X connect 39 1 13 0;
#X connect 40 0 2 0;
#X connect 40 1 3 0;
#X connect 40 2 41 0;
#X connect 41 0 42 0;
#X connect 42 0 29 0;
#X connect 42 1 30 0;
#X connect 42 2 18 0;
#X connect 42 3 19 0;
#X connect 43 0 44 0;
#X connect 44 0 20 0;
#X restore -32 98 pd draw-rect;
#N canvas 576 172 463 546 bg 0;
#X obj 97 31 t a a a;
#X obj 136 94 GEMglBegin;
#X obj 97 118 GEMglEnd;
#X obj 116 177 GEMglVertex3f -4 4 0;
#X obj 116 154 GEMglColor3f 0 0.74 0.44;
#X obj 116 202 GEMglColor3f 0.85 0.91 0;
#X obj 116 225 GEMglVertex3f 4 4 0;
#X obj 116 249 GEMglColor3f 0.85 0.91 0;
#X obj 116 272 GEMglVertex3f 4 -4 0;
#X obj 116 320 GEMglVertex3f -4 -4 0;
#X obj 223 45 GLdefine GL_SMOOTH;
#X obj 223 23 loadbang;
#X obj 136 69 GEMglShadeModel;
#X obj 116 297 GEMglColor3f 0 0.74 0.44;
#X msg 193 46 9;
#X obj 223 6 bng 15 250 50 0 empty empty empty 17 7 0 10 -262144 -1
-1;
#X obj 116 463 curve 2;
#X obj 198 394 loadbang;
#X msg 2 422 draw point \, res 100;
#X msg 135 424 -3.7 0 0;
#X msg 198 423 3.7 0 0;
#X obj 97 -1 GEMglPointSize 2;
#X obj 97 -25 gemhead 1;
#X obj 116 373 GEMglLineWidth 10;
#X obj 116 351 gemhead 30;
#X connect 0 0 2 0;
#X connect 0 1 4 0;
#X connect 0 2 12 0;
#X connect 3 0 5 0;
#X connect 4 0 3 0;
#X connect 5 0 6 0;
#X connect 6 0 7 0;
#X connect 7 0 8 0;
#X connect 8 0 13 0;
#X connect 10 0 12 1;
#X connect 11 0 10 0;
#X connect 11 0 14 0;
#X connect 12 0 1 0;
#X connect 13 0 9 0;
#X connect 14 0 1 1;
#X connect 15 0 11 0;
#X connect 17 0 19 0;
#X connect 17 0 20 0;
#X connect 17 0 18 0;
#X connect 18 0 16 0;
#X connect 19 0 16 1;
#X connect 20 0 16 2;
#X connect 21 0 0 0;
#X connect 22 0 21 0;
#X connect 23 0 16 0;
#X connect 24 0 23 0;
#X restore -31 123 pd bg;
#N canvas 0 22 450 278 (subpatch) 0;
#X array edge 10 float 3;
#A 0 -3.204 -2.684 0 0 0 0 0 0 0 0;
#X coords 0 -4 9 4 100 50 1 0 0;
#X restore -35 -12 graph;
#N canvas 0 22 450 278 (subpatch) 0;
#X array size 10 float 3;
#A 0 0.296 0.224 0.392 1.688 0.296 0.368 0.528 0.288 0.416 0.536;
#X coords 0 -4 9 4 100 50 1 0 0;
#X restore 80 -12 graph;
#X obj -31 146 newrect 0;
#X obj -31 189 newrect 2;
#X obj -31 167 newrect 1;
#X obj -31 210 newrect 3;
#X obj -30 233 newrect 4;
#X obj 35 147 newrect 5;
#X obj 35 169 newrect 6;
#X obj 35 190 newrect 7;
#X obj 35 211 newrect 8;
#X obj 35 232 newrect 9;
#X obj -85 259 declare -path /Users/aluan/AVLab/av9;
#X obj -78 -23 loadbang;
#X msg -82 46 reset \, border 0 \, offset 100 100 \, FSAA 8 \, create
\, 1;
#X connect 1 0 0 0;
#X connect 2 0 1 0;
#X connect 2 1 21 0;
#X connect 3 0 2 0;
#X connect 20 0 3 0;
#X connect 21 0 0 0;
