#N canvas 528 172 476 561 10;
#X obj 134 -11 r torect;
#X obj 134 17 route \$1;
#X obj 63 112 translateXYZ;
#X obj 63 201 square;
#X obj 63 19 loadbang;
#X msg 63 43 0;
#X msg 96 51 1;
#X obj 38 -14 r all-close;
#X obj 134 66 unpack f f f f;
#X obj 63 148 scaleXYZ 1 1 1;
#X obj 63 177 color 0 0.67 0.62;
#X obj 63 252 square;
#X obj 63 228 color 1 1 1;
#X obj 2 255 loadbang;
#X msg 2 283 draw line \, width 2;
#X obj 235 106 t b f;
#X obj 235 220 *;
#X obj 235 169 line;
#X obj 63 80 gemhead 20;
#X obj 339 160 tabread edge;
#X obj 134 40 t a b b;
#X obj 300 80 f \$1;
#X obj 341 370 f \$1;
#X obj 266 396 tabwrite edge;
#X obj 250 290 + -3.5;
#X msg 190 248 set \$1;
#X obj 163 220 t b f;
#X obj 250 323 t f f b;
#X obj 269 367 v \$0-edge;
#X obj 158 271 v \$0-edge;
#X obj 119 324 line;
#X floatatom 269 346 5 0 0 0 - - -;
#X obj 300 105 - 1;
#X obj 300 133 moses 0;
#X msg 300 155 -3.5;
#X floatatom 339 184 5 0 0 0 - - -;
#X obj 250 264 t f f;
#X obj 325 301 t f b;
#X obj 325 323 tabwrite size;
#X obj 400 297 f \$1;
#X obj 350 133 t f f;
#X floatatom 380 210 5 0 0 0 - - -;
#X obj 380 186 tabread size;
#X obj 316 234 +;
#N canvas 775 389 450 300 tag-pos 0;
#X obj 24 44 t f f;
#X obj 93 47 t f f;
#X obj 235 62 t f f;
#X obj 8 258 outlet;
#X obj 25 6 inlet;
#X obj 96 16 inlet;
#X obj 166 20 inlet;
#X obj 237 30 inlet;
#X obj 104 268 outlet;
#X obj 150 182 expr $f1+$f2;
#X obj 120 152 expr $f1+$f2;
#X obj 24 109 expr $f1-$f2;
#X obj 40 130 expr $f1+$f2;
#X obj 36 189 pack f f f;
#X obj 99 219 pack f f f;
#X obj 166 59 t f f f;
#X connect 0 0 11 0;
#X connect 0 1 12 0;
#X connect 1 0 10 0;
#X connect 1 1 9 0;
#X connect 2 0 10 1;
#X connect 2 1 9 1;
#X connect 4 0 0 0;
#X connect 5 0 1 0;
#X connect 6 0 15 0;
#X connect 7 0 2 0;
#X connect 9 0 14 1;
#X connect 10 0 13 1;
#X connect 11 0 13 0;
#X connect 12 0 14 0;
#X connect 13 0 3 0;
#X connect 14 0 8 0;
#X connect 15 0 11 1;
#X connect 15 1 12 1;
#X connect 15 2 13 2;
#X connect 15 2 14 2;
#X restore 120 377 pd tag-pos;
#X obj 99 452 list;
#X obj 156 455 list;
#X obj 156 425 r \$1_1;
#X obj 99 421 r \$1_0;
#X obj 99 485 s road-path;
#X floatatom 119 345 5 0 0 0 - - -;
#X obj 200 312 t b f;
#X msg 235 136 1 \, 0 500;
#X msg 119 301 \$1 500;
#X obj 235 195 inoutcirc;
#X connect 0 0 1 0;
#X connect 1 0 20 0;
#X connect 2 0 9 0;
#X connect 3 0 12 0;
#X connect 4 0 5 0;
#X connect 5 0 18 0;
#X connect 6 0 18 0;
#X connect 7 0 5 0;
#X connect 8 0 26 0;
#X connect 8 1 15 0;
#X connect 8 2 9 1;
#X connect 8 2 36 0;
#X connect 8 2 44 2;
#X connect 8 3 9 2;
#X connect 8 3 44 3;
#X connect 9 0 10 0;
#X connect 10 0 3 0;
#X connect 12 0 11 0;
#X connect 13 0 14 0;
#X connect 14 0 11 0;
#X connect 15 0 52 0;
#X connect 15 1 16 1;
#X connect 16 0 51 0;
#X connect 17 0 54 0;
#X connect 18 0 2 0;
#X connect 19 0 35 0;
#X connect 20 0 8 0;
#X connect 20 1 6 0;
#X connect 20 2 21 0;
#X connect 21 0 32 0;
#X connect 22 0 23 1;
#X connect 24 0 27 0;
#X connect 25 0 30 0;
#X connect 26 0 29 0;
#X connect 26 1 25 0;
#X connect 27 0 23 0;
#X connect 27 1 31 0;
#X connect 27 2 22 0;
#X connect 29 0 53 0;
#X connect 30 0 50 0;
#X connect 31 0 28 0;
#X connect 32 0 33 0;
#X connect 33 0 34 0;
#X connect 33 1 40 0;
#X connect 35 0 43 0;
#X connect 36 0 24 0;
#X connect 36 1 37 0;
#X connect 37 0 38 0;
#X connect 37 1 39 0;
#X connect 39 0 38 1;
#X connect 40 0 19 0;
#X connect 40 1 42 0;
#X connect 41 0 43 1;
#X connect 42 0 41 0;
#X connect 43 0 24 1;
#X connect 44 0 45 1;
#X connect 44 1 46 1;
#X connect 45 0 49 0;
#X connect 46 0 49 0;
#X connect 47 0 46 0;
#X connect 48 0 45 0;
#X connect 50 0 44 0;
#X connect 50 0 2 1;
#X connect 51 0 50 0;
#X connect 51 1 44 1;
#X connect 51 1 2 2;
#X connect 52 0 17 0;
#X connect 53 0 30 0;
#X connect 54 0 16 0;
