#N canvas 563 139 574 484 10;
#X obj 110 115 gemwin;
#X msg 96 53 destroy;
#N canvas 603 23 1039 705 mouseIn 0;
#X obj 695 121 gemmouse 1 1;
#X obj 690 358 pack f f;
#X obj 735 291 expr ($f1*-8)+4;
#X obj 129 496 list;
#X msg 167 513 1;
#X msg 210 511 2;
#X obj 129 432 t b b;
#X obj 167 550 gate 2;
#X obj 167 577 list;
#X obj 167 598 list prepend;
#X obj 270 486 + 1;
#X floatatom 244 512 5 0 0 0 - - -, f 5;
#X obj 167 620 s addline;
#X obj 286 557 s allclose;
#X obj 286 513 loadbang;
#X msg 286 534 0;
#X obj 244 487 f 0;
#X msg 259 457 0;
#X obj 695 225 moses 1.001;
#X obj 712 244 moses 1.001;
#X obj 418 652 curve 2;
#X obj 418 488 gemhead 1000;
#X obj 339 594 loadbang;
#X obj 537 556 list;
#X obj 537 584 list append 0;
#X obj 453 434 list;
#X obj 453 455 list append 0;
#X obj 418 464 tgl 15 0 empty empty empty 17 7 0 10 -262144 -1 -1 0
1;
#X obj 453 408 metro 30;
#X obj 453 384 tgl 15 0 empty empty empty 17 7 0 10 -262144 -1 -1 0
1;
#X msg 339 626 draw point;
#X obj 762 359 v mouseY;
#X obj 722 336 v mouseX;
#X msg 554 344 res \$1;
#X obj 278 115 route key;
#X obj 162 311 tgl 15 0 empty empty empty 17 7 0 10 -262144 -1 -1 0
1;
#X obj 729 191 s mouse_left;
#X obj 187 373 r mouse_left;
#X obj 453 321 r mouse_left;
#X obj 735 315 t f f;
#X obj 695 291 t f f;
#X obj 690 385 s mouse_pos;
#X obj 558 535 r mouse_pos;
#X obj 150 473 r mouse_pos;
#X obj 487 433 r mouse_pos;
#X obj 764 144 s mouse_right;
#X obj 129 402 sel 1;
#X obj 187 394 spigot;
#X obj 187 438 t b b b;
#X obj 259 424 sel 1;
#X obj 187 417 sel 0;
#X obj 453 359 spigot;
#X obj 129 344 r mouse_left;
#X obj 129 370 spigot;
#X obj 162 252 loadbang;
#X msg 162 274 0;
#X obj 305 161 s hid;
#X obj 278 238 tgl 15 0 empty empty empty 17 7 0 10 -262144 -1 -1 0
1;
#X obj 746 164 s mouse_center;
#X floatatom 695 144 5 0 0 0 - - -, f 5;
#X floatatom 712 166 5 0 0 0 - - -, f 5;
#X obj 554 320 + 50;
#X obj 554 297 random 20;
#X obj 554 275 metro 50;
#X obj 695 267 expr ($f1*8)-4;
#X obj 418 513 GEMglPointSize 2;
#X obj 418 544 colorRGB 0 0 0 1;
#X obj 278 139 t a a;
#X obj 377 276 tgl 15 0 empty empty empty 17 7 0 10 -262144 -1 -1 0
1;
#X obj 278 185 route key_44 key_225;
#X obj 278 209 spigot;
#X obj 377 221 route key_30 key_31 key_32 key_29;
#X obj -107 496 list;
#X msg -69 513 1;
#X msg -26 511 2;
#X obj -107 432 t b b;
#X obj -69 550 gate 2;
#X obj -69 577 list;
#X obj -69 598 list prepend;
#X obj 34 486 + 1;
#X floatatom 8 512 5 0 0 0 - - -, f 5;
#X obj 8 487 f 0;
#X msg 23 457 0;
#X obj -74 311 tgl 15 0 empty empty empty 17 7 0 10 -262144 -1 -1 0
1;
#X obj -49 373 r mouse_left;
#X obj -86 473 r mouse_pos;
#X obj -107 402 sel 1;
#X obj -49 394 spigot;
#X obj -49 438 t b b b;
#X obj 36 421 sel 1;
#X obj -49 417 sel 0;
#X obj -107 344 r mouse_left;
#X obj -107 370 spigot;
#X obj -69 620 s addline2;
#X obj -74 261 loadbang;
#X msg -74 283 0;
#X obj 381 413 loadbang;
#X msg 381 435 0;
#X obj 250 573 + 1;
#X obj 250 599 s addlinenum;
#X obj 278 84 hid;
#X obj 278 38 loadbang;
#X obj 61 538 loadbang;
#X msg 61 559 0;
#X obj 62 587 s allclose2;
#X obj 9 311 spigot;
#X obj 9 340 tgl 15 0 empty empty empty 17 7 0 10 -262144 -1 -1 0 1
;
#X obj 298 486 % 6;
#X obj 62 486 % 30;
#X msg 278 63 open keyboard 0 \, 1;
#X connect 0 0 59 0;
#X connect 0 1 60 0;
#X connect 0 2 36 0;
#X connect 0 3 58 0;
#X connect 0 4 45 0;
#X connect 1 0 41 0;
#X connect 2 0 39 0;
#X connect 3 0 7 1;
#X connect 4 0 7 0;
#X connect 5 0 7 0;
#X connect 6 0 3 0;
#X connect 6 1 4 0;
#X connect 7 0 8 1;
#X connect 7 1 8 0;
#X connect 8 0 9 0;
#X connect 9 0 12 0;
#X connect 10 0 107 0;
#X connect 11 0 9 1;
#X connect 11 0 98 0;
#X connect 14 0 15 0;
#X connect 15 0 13 0;
#X connect 16 0 10 0;
#X connect 16 0 11 0;
#X connect 17 0 16 1;
#X connect 18 0 64 0;
#X connect 19 0 2 0;
#X connect 21 0 65 0;
#X connect 22 0 30 0;
#X connect 23 0 24 0;
#X connect 24 0 20 1;
#X connect 24 0 20 2;
#X connect 25 0 26 0;
#X connect 26 0 20 1;
#X connect 27 0 21 0;
#X connect 27 0 63 0;
#X connect 28 0 25 0;
#X connect 29 0 28 0;
#X connect 30 0 20 0;
#X connect 33 0 20 0;
#X connect 34 0 67 0;
#X connect 35 0 47 1;
#X connect 35 0 51 1;
#X connect 35 0 53 1;
#X connect 37 0 47 0;
#X connect 38 0 51 0;
#X connect 39 0 1 1;
#X connect 39 1 31 0;
#X connect 40 0 1 0;
#X connect 40 1 32 0;
#X connect 42 0 23 1;
#X connect 43 0 3 1;
#X connect 44 0 25 1;
#X connect 46 0 6 0;
#X connect 46 0 23 0;
#X connect 47 0 50 0;
#X connect 48 0 3 0;
#X connect 48 1 5 0;
#X connect 48 2 16 0;
#X connect 49 0 15 0;
#X connect 49 0 17 0;
#X connect 50 0 48 0;
#X connect 51 0 29 0;
#X connect 51 0 27 0;
#X connect 52 0 53 0;
#X connect 53 0 46 0;
#X connect 54 0 55 0;
#X connect 55 0 35 0;
#X connect 57 0 49 0;
#X connect 59 0 18 0;
#X connect 60 0 19 0;
#X connect 61 0 33 0;
#X connect 62 0 61 0;
#X connect 63 0 62 0;
#X connect 64 0 40 0;
#X connect 65 0 66 0;
#X connect 66 0 20 0;
#X connect 67 0 69 0;
#X connect 67 1 56 0;
#X connect 68 0 35 0;
#X connect 69 0 70 0;
#X connect 69 0 105 0;
#X connect 69 1 70 1;
#X connect 69 2 71 0;
#X connect 70 0 57 0;
#X connect 71 0 68 0;
#X connect 71 1 68 0;
#X connect 71 2 68 0;
#X connect 71 3 83 0;
#X connect 72 0 76 1;
#X connect 73 0 76 0;
#X connect 74 0 76 0;
#X connect 75 0 72 0;
#X connect 75 1 73 0;
#X connect 76 0 77 1;
#X connect 76 1 77 0;
#X connect 77 0 78 0;
#X connect 78 0 93 0;
#X connect 79 0 108 0;
#X connect 80 0 78 1;
#X connect 81 0 79 0;
#X connect 81 0 80 0;
#X connect 82 0 81 1;
#X connect 83 0 87 1;
#X connect 83 0 92 1;
#X connect 83 0 51 1;
#X connect 83 0 105 1;
#X connect 84 0 87 0;
#X connect 85 0 72 1;
#X connect 86 0 75 0;
#X connect 86 0 23 0;
#X connect 87 0 90 0;
#X connect 88 0 72 0;
#X connect 88 1 74 0;
#X connect 88 2 81 0;
#X connect 89 0 82 0;
#X connect 89 0 103 0;
#X connect 90 0 88 0;
#X connect 91 0 92 0;
#X connect 92 0 86 0;
#X connect 94 0 95 0;
#X connect 95 0 83 0;
#X connect 96 0 97 0;
#X connect 97 0 27 0;
#X connect 98 0 99 0;
#X connect 100 0 34 0;
#X connect 101 0 109 0;
#X connect 102 0 103 0;
#X connect 103 0 104 0;
#X connect 105 0 106 0;
#X connect 106 0 89 0;
#X connect 107 0 16 1;
#X connect 108 0 81 1;
#X connect 109 0 100 0;
#X restore 176 184 pd mouseIn && guiIn;
#X obj 53 179 pix_image grid.png;
#X obj 53 242 pix_texture;
#X obj 53 296 square 4;
#X obj 53 150 gemhead 20;
#X obj 54 410 square 4;
#X obj 54 384 alpha;
#X obj 54 326 gemhead 10;
#X obj 428 209 tgl 15 0 empty empty empty 17 7 0 10 -262144 -1 -1 1
1;
#X obj 428 328 s time;
#X obj 428 185 loadbang;
#X floatatom 428 278 5 0 0 0 - - -, f 5;
#X obj 428 231 metro 50;
#N canvas 72 78 623 468 main 0;
#X obj 75 64 r mainline0;
#X obj 54 89 list;
#X obj 54 -82 metro 50;
#X obj 54 -101 tgl 15 0 empty empty empty 17 7 0 10 -262144 -1 -1 1
1;
#X obj 54 -22 repeat 10;
#X obj 54 2 f;
#X obj 80 2 + 1;
#X obj 54 -123 loadbang;
#X obj 54 31 route 0 1 2 3 4 5 6 7 8 9;
#X obj 54 -54 t b b;
#X msg 92 -53 0;
#X obj 153 -50 r addlinenum;
#X floatatom 153 -26 5 0 0 0 - - -, f 5;
#X obj 54 115 list prepend 0;
#X obj 54 139 s mainline;
#X obj 55 201 list;
#X obj 55 251 s mainline;
#X obj 76 176 r mainline1;
#X obj 55 227 list prepend 1;
#X obj 157 205 list;
#X obj 157 255 s mainline;
#X obj 178 180 r mainline2;
#X obj 157 231 list prepend 2;
#X obj 261 205 list;
#X obj 261 255 s mainline;
#X obj 363 209 list;
#X obj 363 259 s mainline;
#X obj 282 180 r mainline3;
#X obj 261 231 list prepend 3;
#X obj 384 184 r mainline4;
#X obj 363 235 list prepend 4;
#X obj 473 210 list;
#X obj 473 260 s mainline;
#X obj 494 185 r mainline5;
#X obj 473 236 list prepend 5;
#X obj 224 3 loadbang;
#X msg 224 28 \; pd dsp 1;
#X connect 0 0 1 1;
#X connect 1 0 13 0;
#X connect 2 0 9 0;
#X connect 3 0 2 0;
#X connect 4 0 5 0;
#X connect 5 0 6 0;
#X connect 5 0 8 0;
#X connect 6 0 5 1;
#X connect 7 0 3 0;
#X connect 8 0 1 0;
#X connect 8 1 15 0;
#X connect 8 2 19 0;
#X connect 8 3 23 0;
#X connect 8 4 25 0;
#X connect 8 5 31 0;
#X connect 9 0 4 0;
#X connect 9 1 10 0;
#X connect 10 0 5 1;
#X connect 11 0 12 0;
#X connect 12 0 4 1;
#X connect 13 0 14 0;
#X connect 15 0 18 0;
#X connect 17 0 15 1;
#X connect 18 0 16 0;
#X connect 19 0 22 0;
#X connect 21 0 19 1;
#X connect 22 0 20 0;
#X connect 23 0 28 0;
#X connect 25 0 30 0;
#X connect 27 0 23 1;
#X connect 28 0 24 0;
#X connect 29 0 25 1;
#X connect 30 0 26 0;
#X connect 31 0 34 0;
#X connect 33 0 31 1;
#X connect 34 0 32 0;
#X connect 35 0 36 0;
#X restore 178 139 pd main;
#N canvas 126 219 1005 333 sound 0;
#X obj 292 120 f;
#X obj 317 120 + 1;
#X obj 345 120 % 10;
#X obj 263 169 gate 10 9 8 7 6 5 4 3 2 1 0;
#X obj 263 194 k_s1;
#X obj 44 121 dac~;
#X obj 292 143 + 1;
#X obj 440 23 r all;
#X obj 440 46 route 1 2 3;
#X obj 485 128 f;
#X obj 510 128 + 1;
#X obj 538 128 % 10;
#X obj 456 177 gate 10 9 8 7 6 5 4 3 2 1 0;
#X obj 485 151 + 1;
#X obj 653 111 t b b;
#X obj 680 134 f;
#X obj 705 134 + 1;
#X obj 733 134 % 10;
#X obj 651 183 gate 10 9 8 7 6 5 4 3 2 1 0;
#X obj 680 157 + 1;
#X obj 456 202 k_s2;
#X obj 651 208 k_s3;
#X obj 45 84 catch~ allsound;
#X obj 668 230 k_s3;
#X obj 686 254 k_s3;
#X obj 704 276 k_s3;
#X obj 721 207 k_s3;
#X obj 739 229 k_s3;
#X obj 757 253 k_s3;
#X obj 774 275 k_s3;
#X obj 792 211 k_s3;
#X obj 810 233 k_s3;
#X obj 265 97 t f b;
#X obj 280 216 k_s1;
#X obj 298 240 k_s1;
#X obj 316 262 k_s1;
#X obj 333 193 k_s1;
#X obj 351 215 k_s1;
#X obj 369 239 k_s1;
#X obj 386 261 k_s1;
#X obj 404 197 k_s1;
#X obj 422 219 k_s1;
#X obj 458 105 t f b;
#X obj 473 224 k_s2;
#X obj 491 248 k_s2;
#X obj 509 270 k_s2;
#X obj 526 201 k_s2;
#X obj 544 223 k_s2;
#X obj 562 247 k_s2;
#X obj 579 269 k_s2;
#X obj 597 205 k_s2;
#X obj 615 227 k_s2;
#X connect 0 0 1 0;
#X connect 0 0 6 0;
#X connect 1 0 2 0;
#X connect 2 0 0 1;
#X connect 3 0 4 0;
#X connect 3 1 33 0;
#X connect 3 2 34 0;
#X connect 3 3 35 0;
#X connect 3 4 36 0;
#X connect 3 5 37 0;
#X connect 3 6 38 0;
#X connect 3 7 39 0;
#X connect 3 8 40 0;
#X connect 3 9 41 0;
#X connect 6 0 3 0;
#X connect 7 0 8 0;
#X connect 8 0 32 0;
#X connect 8 1 42 0;
#X connect 8 2 14 0;
#X connect 9 0 10 0;
#X connect 9 0 13 0;
#X connect 10 0 11 0;
#X connect 11 0 9 1;
#X connect 12 0 20 0;
#X connect 12 1 43 0;
#X connect 12 2 44 0;
#X connect 12 3 45 0;
#X connect 12 4 46 0;
#X connect 12 5 47 0;
#X connect 12 6 48 0;
#X connect 12 7 49 0;
#X connect 12 8 50 0;
#X connect 12 9 51 0;
#X connect 13 0 12 0;
#X connect 14 0 18 1;
#X connect 14 1 15 0;
#X connect 15 0 16 0;
#X connect 15 0 19 0;
#X connect 16 0 17 0;
#X connect 17 0 15 1;
#X connect 18 0 21 0;
#X connect 18 1 23 0;
#X connect 18 2 24 0;
#X connect 18 3 25 0;
#X connect 18 4 26 0;
#X connect 18 5 27 0;
#X connect 18 6 28 0;
#X connect 18 7 29 0;
#X connect 18 8 30 0;
#X connect 18 9 31 0;
#X connect 19 0 18 0;
#X connect 22 0 5 0;
#X connect 22 0 5 1;
#X connect 32 0 3 1;
#X connect 32 1 0 0;
#X connect 42 0 12 1;
#X connect 42 1 9 0;
#X restore 178 161 pd sound;
#X obj 428 254 k_count 0.05 3000;
#X obj 53 270 alpha 1;
#X obj 176 212 k_shape 0;
#X obj 241 111 k_cpu;
#X obj 248 212 k_l 0;
#X obj 53 212 colorRGB 1 1 1 0.1;
#X obj 176 259 k_shape 2;
#X obj 176 236 k_shape 1;
#X obj 176 283 k_shape 3;
#X obj 176 306 k_shape 4;
#X obj 176 330 k_shape 5;
#X obj 290 424 k_l 19;
#X obj 248 236 k_l 1;
#X obj 248 259 k_l 2;
#X obj 248 283 k_l 3;
#X obj 248 306 k_l 4;
#X obj 248 330 k_l 5;
#X obj 248 353 k_l 6;
#X obj 248 377 k_l 7;
#X obj 248 400 k_l 8;
#X obj 248 424 k_l 9;
#X obj 290 212 k_l 10;
#X obj 290 236 k_l 11;
#X obj 290 259 k_l 12;
#X obj 290 283 k_l 13;
#X obj 290 306 k_l 14;
#X obj 290 330 k_l 15;
#X obj 290 353 k_l 16;
#X obj 290 377 k_l 17;
#X obj 290 400 k_l 18;
#X obj 339 211 k_l 20;
#X obj 339 235 k_l 21;
#X obj 339 258 k_l 22;
#X obj 339 282 k_l 23;
#X obj 339 305 k_l 24;
#X obj 339 329 k_l 25;
#X obj 339 352 k_l 26;
#X obj 339 376 k_l 27;
#X obj 339 399 k_l 28;
#X obj 339 423 k_l 29;
#X obj 54 356 colorRGB 0.04 0.35 0.35;
#X msg 110 76 reset \, dimen 500 500 \, FSAA 8 \, border 0 \, create
\, 1;
#X obj 109 19 loadbang;
#X connect 1 0 0 0;
#X connect 3 0 22 0;
#X connect 4 0 18 0;
#X connect 6 0 3 0;
#X connect 8 0 7 0;
#X connect 9 0 57 0;
#X connect 10 0 14 0;
#X connect 12 0 10 0;
#X connect 13 0 11 0;
#X connect 14 0 17 0;
#X connect 17 0 13 0;
#X connect 18 0 5 0;
#X connect 22 0 4 0;
#X connect 57 0 8 0;
#X connect 58 0 0 0;
#X connect 59 0 58 0;
#X coords 0 484 1 483 120 120 0;
