#N canvas 530 81 769 531 10;
#X obj 104 90 route \$1;
#X obj 104 166 unpack f f f f;
#X obj 104 199 pack f f;
#X obj 174 200 pack f f;
#X obj 104 60 r addline2;
#X obj 21 238 tgl 15 0 empty empty empty 17 7 0 10 -262144 -1 -1 1
1;
#X obj -36 178 loadbang;
#X msg -36 200 0;
#X obj 21 260 gemhead 100;
#X obj 38 186 r \$0-open;
#X msg 194 122 1;
#X obj 194 147 s \$0-open;
#X obj 21 344 curve 2;
#X msg 104 227 \$1 \$2 0;
#X msg 174 226 \$1 \$2 0;
#X obj 121 144 s line_\$1;
#X obj -112 258 gemhead 100;
#X obj -112 333 circle 0.03;
#X obj -112 308 translate 1 0 0 0;
#X obj -111 368 gemhead 100;
#X obj -111 443 circle 0.03;
#X obj -111 418 translate 1 0 0 0;
#X obj 244 3 r mainline;
#X obj 21 213 r allclose2;
#X obj -38 281 s \$0-tgl;
#X obj 244 62 route 0 1 2 3 4 5;
#N canvas 144 99 1141 621 sound 0;
#X obj 122 -88 distance_n;
#X floatatom 122 -65 5 0 0 0 - - -;
#X obj 122 -21 change;
#X obj 122 59 spigot 1;
#X obj 122 85 sel 1;
#X obj 122 107 t b b b;
#X msg 161 129 0;
#X msg 122 179 1;
#X obj 122 6 tgl 15 0 empty empty empty 17 7 0 10 -262144 -1 -1 0 1
;
#X obj 199 -152 r \$0-pos-0;
#X obj 199 -128 t a a;
#X obj 122 31 *;
#X msg 226 -104 \$1;
#X obj 149 33 tgl 15 0 empty empty empty 17 7 0 10 -262144 -1 -1 1
1;
#X obj 275 -98 distance_n;
#X floatatom 275 -75 5 0 0 0 - - -;
#X obj 275 -31 change;
#X obj 275 49 spigot 1;
#X obj 275 75 sel 1;
#X obj 275 97 t b b b;
#X msg 314 119 0;
#X msg 275 169 1;
#X obj 275 -4 tgl 15 0 empty empty empty 17 7 0 10 -262144 -1 -1 0
1;
#X obj 352 -138 t a a;
#X obj 275 21 *;
#X msg 379 -114 \$1;
#X obj 302 23 tgl 15 0 empty empty empty 17 7 0 10 -262144 -1 -1 0
1;
#X obj 352 -162 r \$0-pos-1;
#X obj 426 -84 distance_n;
#X floatatom 426 -61 5 0 0 0 - - -;
#X obj 426 -17 change;
#X obj 426 63 spigot 1;
#X obj 426 89 sel 1;
#X obj 426 111 t b b b;
#X msg 465 133 0;
#X msg 426 183 1;
#X obj 426 10 tgl 15 0 empty empty empty 17 7 0 10 -262144 -1 -1 0
1;
#X obj 503 -124 t a a;
#X obj 426 35 *;
#X msg 530 -100 \$1;
#X obj 453 37 tgl 15 0 empty empty empty 17 7 0 10 -262144 -1 -1 1
1;
#X obj 503 -148 r \$0-pos-2;
#X obj 582 -78 distance_n;
#X floatatom 582 -55 5 0 0 0 - - -;
#X obj 582 -11 change;
#X obj 582 69 spigot 1;
#X obj 582 95 sel 1;
#X obj 582 117 t b b b;
#X msg 621 139 0;
#X msg 582 189 1;
#X obj 582 16 tgl 15 0 empty empty empty 17 7 0 10 -262144 -1 -1 0
1;
#X obj 659 -118 t a a;
#X obj 582 41 *;
#X msg 686 -94 \$1;
#X obj 609 43 tgl 15 0 empty empty empty 17 7 0 10 -262144 -1 -1 0
1;
#X obj 659 -142 r \$0-pos-3;
#X obj 740 -79 distance_n;
#X floatatom 740 -56 5 0 0 0 - - -;
#X obj 740 -12 change;
#X obj 740 68 spigot 1;
#X obj 740 94 sel 1;
#X obj 740 116 t b b b;
#X msg 779 138 0;
#X msg 740 188 1;
#X obj 740 15 tgl 15 0 empty empty empty 17 7 0 10 -262144 -1 -1 0
1;
#X obj 817 -119 t a a;
#X obj 740 40 *;
#X msg 844 -95 \$1;
#X obj 767 42 tgl 15 0 empty empty empty 17 7 0 10 -262144 -1 -1 1
1;
#X obj 896 -73 distance_n;
#X floatatom 896 -50 5 0 0 0 - - -;
#X obj 896 -6 change;
#X obj 896 74 spigot 1;
#X obj 896 100 sel 1;
#X obj 896 122 t b b b;
#X msg 935 144 0;
#X msg 896 194 1;
#X obj 896 21 tgl 15 0 empty empty empty 17 7 0 10 -262144 -1 -1 0
1;
#X obj 973 -113 t a a;
#X obj 896 46 *;
#X msg 1000 -89 \$1;
#X obj 923 48 tgl 15 0 empty empty empty 17 7 0 10 -262144 -1 -1 0
1;
#X obj 817 -143 r \$0-pos-4;
#X obj 973 -137 r \$0-pos-5;
#X obj 561 -324 inlet;
#X obj 571 -244 t a a;
#X obj 140 259 s all;
#X obj 141 212 f;
#X msg 571 -196 \$1 \$2 0;
#X obj 293 203 f;
#X obj 451 204 f;
#X obj 614 203 f;
#X obj 766 197 f;
#X obj 929 199 f;
#X msg 199 -77 \$2 \$3 0;
#X msg 352 -87 \$2 \$3 0;
#X msg 503 -73 \$2 \$3 0;
#X msg 659 -67 \$2 \$3 0;
#X msg 817 -68 \$2 \$3 0;
#X msg 973 -62 \$2 \$3 0;
#X msg 598 -222 \$3;
#X msg 201 207 0;
#X obj 201 230 s \$0-size;
#X obj 341 232 s \$0-size;
#X msg 341 209 1;
#X obj 493 231 s \$0-size;
#X msg 493 208 2;
#X obj 660 230 s \$0-size;
#X msg 660 207 3;
#X obj 804 230 s \$0-size;
#X msg 804 207 4;
#X obj 969 221 s \$0-size;
#X msg 969 198 5;
#X obj 620 -268 r \$0-tgl;
#X obj 567 -289 spigot;
#X obj 122 -44 < 0.05;
#X obj 275 -54 < 0.05;
#X obj 428 -40 < 0.05;
#X obj 582 -34 < 0.05;
#X obj 740 -35 < 0.05;
#X obj 896 -29 < 0.05;
#X obj 122 154 del 200;
#X obj 275 144 del 200;
#X obj 426 158 del 200;
#X obj 582 164 del 200;
#X obj 740 163 del 200;
#X obj 896 169 del 200;
#X obj 140 236 pack f f;
#X obj 182 261 r \$0-dd;
#X obj 284 264 s all;
#X obj 284 241 pack f f;
#X obj 326 266 r \$0-dd;
#X obj 436 266 s all;
#X obj 436 243 pack f f;
#X obj 478 268 r \$0-dd;
#X obj 599 259 s all;
#X obj 599 236 pack f f;
#X obj 641 261 r \$0-dd;
#X obj 748 260 s all;
#X obj 748 237 pack f f;
#X obj 790 262 r \$0-dd;
#X obj 903 258 s all;
#X obj 903 235 pack f f;
#X obj 945 260 r \$0-dd;
#X connect 0 0 1 0;
#X connect 1 0 115 0;
#X connect 2 0 8 0;
#X connect 3 0 4 0;
#X connect 4 0 5 0;
#X connect 5 0 121 0;
#X connect 5 1 87 0;
#X connect 5 2 6 0;
#X connect 6 0 3 1;
#X connect 7 0 3 1;
#X connect 8 0 11 0;
#X connect 9 0 10 0;
#X connect 10 0 94 0;
#X connect 10 1 12 0;
#X connect 11 0 3 0;
#X connect 12 0 13 0;
#X connect 13 0 11 1;
#X connect 14 0 15 0;
#X connect 15 0 116 0;
#X connect 16 0 22 0;
#X connect 17 0 18 0;
#X connect 18 0 19 0;
#X connect 19 0 122 0;
#X connect 19 1 89 0;
#X connect 19 2 20 0;
#X connect 20 0 17 1;
#X connect 21 0 17 1;
#X connect 22 0 24 0;
#X connect 23 0 95 0;
#X connect 23 1 25 0;
#X connect 24 0 17 0;
#X connect 25 0 26 0;
#X connect 26 0 24 1;
#X connect 27 0 23 0;
#X connect 28 0 29 0;
#X connect 29 0 117 0;
#X connect 30 0 36 0;
#X connect 31 0 32 0;
#X connect 32 0 33 0;
#X connect 33 0 123 0;
#X connect 33 1 90 0;
#X connect 33 2 34 0;
#X connect 34 0 31 1;
#X connect 35 0 31 1;
#X connect 36 0 38 0;
#X connect 37 0 96 0;
#X connect 37 1 39 0;
#X connect 38 0 31 0;
#X connect 39 0 40 0;
#X connect 40 0 38 1;
#X connect 41 0 37 0;
#X connect 42 0 43 0;
#X connect 43 0 118 0;
#X connect 44 0 50 0;
#X connect 45 0 46 0;
#X connect 46 0 47 0;
#X connect 47 0 124 0;
#X connect 47 1 91 0;
#X connect 47 2 48 0;
#X connect 48 0 45 1;
#X connect 49 0 45 1;
#X connect 50 0 52 0;
#X connect 51 0 97 0;
#X connect 51 1 53 0;
#X connect 52 0 45 0;
#X connect 53 0 54 0;
#X connect 54 0 52 1;
#X connect 55 0 51 0;
#X connect 56 0 57 0;
#X connect 57 0 119 0;
#X connect 58 0 64 0;
#X connect 59 0 60 0;
#X connect 60 0 61 0;
#X connect 61 0 125 0;
#X connect 61 1 92 0;
#X connect 61 2 62 0;
#X connect 62 0 59 1;
#X connect 63 0 59 1;
#X connect 64 0 66 0;
#X connect 65 0 98 0;
#X connect 65 1 67 0;
#X connect 66 0 59 0;
#X connect 67 0 68 0;
#X connect 68 0 66 1;
#X connect 69 0 70 0;
#X connect 70 0 120 0;
#X connect 71 0 77 0;
#X connect 72 0 73 0;
#X connect 73 0 74 0;
#X connect 74 0 126 0;
#X connect 74 1 93 0;
#X connect 74 2 75 0;
#X connect 75 0 72 1;
#X connect 76 0 72 1;
#X connect 77 0 79 0;
#X connect 78 0 99 0;
#X connect 78 1 80 0;
#X connect 79 0 72 0;
#X connect 80 0 81 0;
#X connect 81 0 79 1;
#X connect 82 0 65 0;
#X connect 83 0 78 0;
#X connect 84 0 114 0;
#X connect 85 0 88 0;
#X connect 85 1 100 0;
#X connect 87 0 101 0;
#X connect 87 0 127 0;
#X connect 88 0 0 0;
#X connect 88 0 14 0;
#X connect 88 0 28 0;
#X connect 88 0 42 0;
#X connect 88 0 56 0;
#X connect 88 0 69 0;
#X connect 89 0 104 0;
#X connect 89 0 130 0;
#X connect 90 0 106 0;
#X connect 90 0 133 0;
#X connect 91 0 108 0;
#X connect 91 0 136 0;
#X connect 92 0 110 0;
#X connect 92 0 139 0;
#X connect 93 0 112 0;
#X connect 93 0 142 0;
#X connect 94 0 0 1;
#X connect 95 0 14 1;
#X connect 96 0 28 1;
#X connect 97 0 42 1;
#X connect 98 0 56 1;
#X connect 99 0 69 1;
#X connect 100 0 87 1;
#X connect 100 0 89 1;
#X connect 100 0 90 1;
#X connect 100 0 91 1;
#X connect 100 0 92 1;
#X connect 100 0 93 1;
#X connect 101 0 102 0;
#X connect 104 0 103 0;
#X connect 106 0 105 0;
#X connect 108 0 107 0;
#X connect 110 0 109 0;
#X connect 112 0 111 0;
#X connect 113 0 114 1;
#X connect 114 0 85 0;
#X connect 115 0 2 0;
#X connect 116 0 16 0;
#X connect 117 0 30 0;
#X connect 118 0 44 0;
#X connect 119 0 58 0;
#X connect 120 0 71 0;
#X connect 121 0 7 0;
#X connect 122 0 21 0;
#X connect 123 0 35 0;
#X connect 124 0 49 0;
#X connect 125 0 63 0;
#X connect 126 0 76 0;
#X connect 127 0 86 0;
#X connect 128 0 127 1;
#X connect 130 0 129 0;
#X connect 131 0 130 1;
#X connect 133 0 132 0;
#X connect 134 0 133 1;
#X connect 136 0 135 0;
#X connect 137 0 136 1;
#X connect 139 0 138 0;
#X connect 140 0 139 1;
#X connect 142 0 141 0;
#X connect 143 0 142 1;
#X restore -197 26 pd sound;
#X obj -197 -1 r line_click0;
#X obj -197 50 r line_click1;
#X obj -198 102 r line_click2;
#X obj -94 4 r line_click3;
#X obj -93 53 r line_click4;
#X obj -95 102 r line_click5;
#X obj 244 35 spigot;
#X obj 277 -24 r \$0-tgl;
#N canvas 845 482 450 300 point 0;
#X obj 63 -766 translateXYZ 0 0 0;
#X obj 218 -867 == 2;
#X obj 63 -792 gemhead 2000;
#X obj 167 -916 intersect;
#X obj 167 -940 inlet;
#X obj 218 -942 r line_\$1;
#X obj 63 -818 *;
#X obj 78 -895 r \$0-tgl;
#X obj 26 -862 loadbang;
#X msg 26 -840 0;
#X obj -5 -885 r allclose2;
#X obj 63 -719 circle 0.03;
#X obj 63 -743 color 1 0 0;
#X obj 194 -801 pack f f 0;
#X msg 194 -776 \$3 \$1 \$2;
#X obj 194 -752 s \$0-pos-1;
#X msg 175 -654 0.1 \, 0.03 100;
#X obj 175 -632 line;
#X obj 175 -703 r \$0-size;
#X obj 175 -679 route 1;
#X obj 14 -773 tgl 15 0 empty empty empty 17 7 0 10 -262144 -1 -1 0
1;
#X obj 224 -837 tgl 15 0 empty empty empty 17 7 0 10 -262144 -1 -1
0 1;
#X connect 0 0 12 0;
#X connect 1 0 6 0;
#X connect 1 0 21 0;
#X connect 2 0 0 0;
#X connect 3 0 0 2;
#X connect 3 0 13 1;
#X connect 3 1 0 1;
#X connect 3 1 13 0;
#X connect 3 2 1 0;
#X connect 4 0 3 0;
#X connect 5 0 3 1;
#X connect 6 0 2 0;
#X connect 6 0 13 2;
#X connect 6 0 20 0;
#X connect 7 0 6 1;
#X connect 8 0 9 0;
#X connect 9 0 2 0;
#X connect 10 0 9 0;
#X connect 12 0 11 0;
#X connect 13 0 14 0;
#X connect 14 0 15 0;
#X connect 16 0 17 0;
#X connect 17 0 11 1;
#X connect 18 0 19 0;
#X connect 19 0 16 0;
#X restore 260 110 pd point;
#N canvas 424 455 450 300 point 0;
#X obj 63 -766 translateXYZ 0 0 0;
#X obj 218 -867 == 2;
#X obj 63 -792 gemhead 2000;
#X obj 167 -916 intersect;
#X obj 167 -940 inlet;
#X obj 218 -942 r line_\$1;
#X obj 63 -818 *;
#X obj 78 -895 r \$0-tgl;
#X obj 26 -862 loadbang;
#X msg 26 -840 0;
#X obj -5 -885 r allclose2;
#X obj 63 -719 circle 0.03;
#X obj 63 -743 color 1 0 0;
#X obj 194 -801 pack f f 0;
#X msg 194 -776 \$3 \$1 \$2;
#X obj 194 -752 s \$0-pos-2;
#X msg 185 -644 0.1 \, 0.03 100;
#X obj 185 -622 line;
#X obj 185 -693 r \$0-size;
#X obj 185 -669 route 2;
#X connect 0 0 12 0;
#X connect 1 0 6 0;
#X connect 2 0 0 0;
#X connect 3 0 0 2;
#X connect 3 0 13 1;
#X connect 3 1 0 1;
#X connect 3 1 13 0;
#X connect 3 2 1 0;
#X connect 4 0 3 0;
#X connect 5 0 3 1;
#X connect 6 0 2 0;
#X connect 6 0 13 2;
#X connect 7 0 6 1;
#X connect 8 0 9 0;
#X connect 9 0 2 0;
#X connect 10 0 9 0;
#X connect 12 0 11 0;
#X connect 13 0 14 0;
#X connect 14 0 15 0;
#X connect 16 0 17 0;
#X connect 17 0 11 1;
#X connect 18 0 19 0;
#X connect 19 0 16 0;
#X restore 277 130 pd point;
#N canvas 887 469 450 300 point 0;
#X obj 63 -766 translateXYZ 0 0 0;
#X obj 218 -867 == 2;
#X obj 63 -792 gemhead 2000;
#X obj 167 -916 intersect;
#X obj 167 -940 inlet;
#X obj 218 -942 r line_\$1;
#X obj 63 -818 *;
#X obj 78 -895 r \$0-tgl;
#X obj 26 -862 loadbang;
#X msg 26 -840 0;
#X obj -5 -885 r allclose2;
#X obj 63 -719 circle 0.03;
#X obj 63 -743 color 1 0 0;
#X obj 194 -801 pack f f 0;
#X msg 194 -776 \$3 \$1 \$2;
#X obj 194 -752 s \$0-pos-3;
#X msg 151 -678 0.1 \, 0.03 100;
#X obj 151 -656 line;
#X obj 151 -727 r \$0-size;
#X obj 151 -703 route 3;
#X connect 0 0 12 0;
#X connect 1 0 6 0;
#X connect 2 0 0 0;
#X connect 3 0 0 2;
#X connect 3 0 13 1;
#X connect 3 1 0 1;
#X connect 3 1 13 0;
#X connect 3 2 1 0;
#X connect 4 0 3 0;
#X connect 5 0 3 1;
#X connect 6 0 2 0;
#X connect 6 0 13 2;
#X connect 7 0 6 1;
#X connect 8 0 9 0;
#X connect 9 0 2 0;
#X connect 10 0 9 0;
#X connect 12 0 11 0;
#X connect 13 0 14 0;
#X connect 14 0 15 0;
#X connect 16 0 17 0;
#X connect 17 0 11 1;
#X connect 18 0 19 0;
#X connect 19 0 16 0;
#X restore 293 150 pd point;
#N canvas 448 267 411 412 point 0;
#X obj 63 -766 translateXYZ 0 0 0;
#X obj 218 -867 == 2;
#X obj 63 -792 gemhead 2000;
#X obj 167 -916 intersect;
#X obj 167 -940 inlet;
#X obj 218 -942 r line_\$1;
#X obj 63 -818 *;
#X obj 78 -895 r \$0-tgl;
#X obj 26 -862 loadbang;
#X msg 26 -840 0;
#X obj -5 -885 r allclose2;
#X obj 63 -719 circle 0.03;
#X obj 63 -743 color 1 0 0;
#X obj 194 -801 pack f f 0;
#X msg 194 -776 \$3 \$1 \$2;
#X obj 194 -753 s \$0-pos-4;
#X msg 157 -674 0.1 \, 0.03 100;
#X obj 157 -652 line;
#X obj 157 -723 r \$0-size;
#X obj 157 -699 route 4;
#X connect 0 0 12 0;
#X connect 1 0 6 0;
#X connect 2 0 0 0;
#X connect 3 0 0 2;
#X connect 3 0 13 1;
#X connect 3 1 0 1;
#X connect 3 1 13 0;
#X connect 3 2 1 0;
#X connect 4 0 3 0;
#X connect 5 0 3 1;
#X connect 6 0 2 0;
#X connect 6 0 13 2;
#X connect 7 0 6 1;
#X connect 8 0 9 0;
#X connect 9 0 2 0;
#X connect 10 0 9 0;
#X connect 12 0 11 0;
#X connect 13 0 14 0;
#X connect 14 0 15 0;
#X connect 16 0 17 0;
#X connect 17 0 11 1;
#X connect 18 0 19 0;
#X connect 19 0 16 0;
#X restore 310 175 pd point;
#N canvas 485 257 345 380 point 0;
#X obj 63 -766 translateXYZ 0 0 0;
#X obj 218 -867 == 2;
#X obj 63 -792 gemhead 2000;
#X obj 167 -916 intersect;
#X obj 167 -940 inlet;
#X obj 218 -942 r line_\$1;
#X obj 63 -818 *;
#X obj 78 -895 r \$0-tgl;
#X obj 26 -862 loadbang;
#X msg 26 -840 0;
#X obj -5 -885 r allclose2;
#X obj 63 -719 circle 0.03;
#X obj 63 -743 color 1 0 0;
#X obj 194 -801 pack f f 0;
#X msg 194 -776 \$3 \$1 \$2;
#X obj 194 -752 s \$0-pos-5;
#X msg 151 -683 0.1 \, 0.03 100;
#X obj 151 -661 line;
#X obj 151 -732 r \$0-size;
#X obj 151 -708 route 5;
#X connect 0 0 12 0;
#X connect 1 0 6 0;
#X connect 2 0 0 0;
#X connect 3 0 0 2;
#X connect 3 0 13 1;
#X connect 3 1 0 1;
#X connect 3 1 13 0;
#X connect 3 2 1 0;
#X connect 4 0 3 0;
#X connect 5 0 3 1;
#X connect 6 0 2 0;
#X connect 6 0 13 2;
#X connect 7 0 6 1;
#X connect 8 0 9 0;
#X connect 9 0 2 0;
#X connect 10 0 9 0;
#X connect 12 0 11 0;
#X connect 13 0 14 0;
#X connect 14 0 15 0;
#X connect 16 0 17 0;
#X connect 17 0 11 1;
#X connect 18 0 19 0;
#X connect 19 0 16 0;
#X restore 326 195 pd point;
#N canvas 866 312 467 399 point 0;
#X obj 63 -766 translateXYZ 0 0 0;
#X obj 218 -867 == 2;
#X obj 63 -792 gemhead 2000;
#X obj 167 -916 intersect;
#X obj 167 -940 inlet;
#X obj 218 -942 r line_\$1;
#X obj 63 -818 *;
#X obj 78 -895 r \$0-tgl;
#X obj 26 -862 loadbang;
#X msg 26 -840 0;
#X obj -5 -885 r allclose2;
#X obj 63 -719 circle 0.03;
#X obj 63 -743 color 1 0 0;
#X obj 194 -801 pack f f 0;
#X obj 194 -752 s \$0-pos-0;
#X msg 194 -776 \$3 \$1 \$2;
#X msg 165 -664 0.1 \, 0.03 100;
#X obj 165 -642 line;
#X obj 165 -713 r \$0-size;
#X obj 165 -689 route 0;
#X connect 0 0 12 0;
#X connect 1 0 6 0;
#X connect 2 0 0 0;
#X connect 3 0 0 2;
#X connect 3 0 13 1;
#X connect 3 1 0 1;
#X connect 3 1 13 0;
#X connect 3 2 1 0;
#X connect 4 0 3 0;
#X connect 5 0 3 1;
#X connect 6 0 2 0;
#X connect 6 0 13 2;
#X connect 7 0 6 1;
#X connect 8 0 9 0;
#X connect 9 0 2 0;
#X connect 10 0 9 0;
#X connect 12 0 11 0;
#X connect 13 0 15 0;
#X connect 15 0 14 0;
#X connect 16 0 17 0;
#X connect 17 0 11 1;
#X connect 18 0 19 0;
#X connect 19 0 16 0;
#X restore 244 90 pd point;
#X obj 104 120 t a a b;
#X msg 3 121 0 0 0 0;
#X obj 3 98 r allclose;
#X obj 268 306 expr sqrt(pow(($f1-$f3) \, 2)+pow(($f2-$f4) \, 2));
#X obj 349 374 int;
#X floatatom 268 384 5 0 0 0 - - -;
#X floatatom 349 410 5 0 0 0 - - -;
#X obj 268 282 r line_\$1;
#X obj 349 431 s \$0-dd;
#N canvas 144 99 1141 621 sound 0;
#X obj 122 -88 distance_n;
#X floatatom 122 -65 5 0 0 0 - - -;
#X obj 122 -21 change;
#X obj 122 59 spigot 1;
#X obj 122 85 sel 1;
#X obj 122 107 t b b b;
#X msg 161 129 0;
#X msg 122 179 1;
#X obj 122 6 tgl 15 0 empty empty empty 17 7 0 10 -262144 -1 -1 0 1
;
#X obj 199 -152 r \$0-pos-0;
#X obj 199 -128 t a a;
#X obj 122 31 *;
#X msg 226 -104 \$1;
#X obj 149 33 tgl 15 0 empty empty empty 17 7 0 10 -262144 -1 -1 1
1;
#X obj 275 -98 distance_n;
#X floatatom 275 -75 5 0 0 0 - - -;
#X obj 275 -31 change;
#X obj 275 49 spigot 1;
#X obj 275 75 sel 1;
#X obj 275 97 t b b b;
#X msg 314 119 0;
#X msg 275 169 1;
#X obj 275 -4 tgl 15 0 empty empty empty 17 7 0 10 -262144 -1 -1 0
1;
#X obj 352 -138 t a a;
#X obj 275 21 *;
#X msg 379 -114 \$1;
#X obj 302 23 tgl 15 0 empty empty empty 17 7 0 10 -262144 -1 -1 0
1;
#X obj 352 -162 r \$0-pos-1;
#X obj 426 -84 distance_n;
#X floatatom 426 -61 5 0 0 0 - - -;
#X obj 426 -17 change;
#X obj 426 63 spigot 1;
#X obj 426 89 sel 1;
#X obj 426 111 t b b b;
#X msg 465 133 0;
#X msg 426 183 1;
#X obj 426 10 tgl 15 0 empty empty empty 17 7 0 10 -262144 -1 -1 0
1;
#X obj 503 -124 t a a;
#X obj 426 35 *;
#X msg 530 -100 \$1;
#X obj 453 37 tgl 15 0 empty empty empty 17 7 0 10 -262144 -1 -1 1
1;
#X obj 503 -148 r \$0-pos-2;
#X obj 582 -78 distance_n;
#X floatatom 582 -55 5 0 0 0 - - -;
#X obj 582 -11 change;
#X obj 582 69 spigot 1;
#X obj 582 95 sel 1;
#X obj 582 117 t b b b;
#X msg 621 139 0;
#X msg 582 189 1;
#X obj 582 16 tgl 15 0 empty empty empty 17 7 0 10 -262144 -1 -1 0
1;
#X obj 659 -118 t a a;
#X obj 582 41 *;
#X msg 686 -94 \$1;
#X obj 609 43 tgl 15 0 empty empty empty 17 7 0 10 -262144 -1 -1 0
1;
#X obj 659 -142 r \$0-pos-3;
#X obj 740 -79 distance_n;
#X floatatom 740 -56 5 0 0 0 - - -;
#X obj 740 -12 change;
#X obj 740 68 spigot 1;
#X obj 740 94 sel 1;
#X obj 740 116 t b b b;
#X msg 779 138 0;
#X msg 740 188 1;
#X obj 740 15 tgl 15 0 empty empty empty 17 7 0 10 -262144 -1 -1 0
1;
#X obj 817 -119 t a a;
#X obj 740 40 *;
#X msg 844 -95 \$1;
#X obj 767 42 tgl 15 0 empty empty empty 17 7 0 10 -262144 -1 -1 1
1;
#X obj 896 -73 distance_n;
#X floatatom 896 -50 5 0 0 0 - - -;
#X obj 896 -6 change;
#X obj 896 74 spigot 1;
#X obj 896 100 sel 1;
#X obj 896 122 t b b b;
#X msg 935 144 0;
#X msg 896 194 1;
#X obj 896 21 tgl 15 0 empty empty empty 17 7 0 10 -262144 -1 -1 0
1;
#X obj 973 -113 t a a;
#X obj 896 46 *;
#X msg 1000 -89 \$1;
#X obj 923 48 tgl 15 0 empty empty empty 17 7 0 10 -262144 -1 -1 0
1;
#X obj 817 -143 r \$0-pos-4;
#X obj 973 -137 r \$0-pos-5;
#X obj 561 -324 inlet;
#X obj 571 -244 t a a;
#X obj 140 259 s all;
#X obj 141 212 f;
#X msg 571 -196 \$1 \$2 0;
#X obj 293 203 f;
#X obj 451 204 f;
#X obj 614 203 f;
#X obj 766 197 f;
#X obj 929 199 f;
#X msg 199 -77 \$2 \$3 0;
#X msg 352 -87 \$2 \$3 0;
#X msg 503 -73 \$2 \$3 0;
#X msg 659 -67 \$2 \$3 0;
#X msg 817 -68 \$2 \$3 0;
#X msg 973 -62 \$2 \$3 0;
#X msg 598 -222 \$3;
#X msg 201 207 0;
#X obj 201 230 s \$0-size;
#X obj 341 232 s \$0-size;
#X msg 341 209 1;
#X obj 493 231 s \$0-size;
#X msg 493 208 2;
#X obj 660 230 s \$0-size;
#X msg 660 207 3;
#X obj 804 230 s \$0-size;
#X msg 804 207 4;
#X obj 969 221 s \$0-size;
#X msg 969 198 5;
#X obj 620 -268 r \$0-tgl;
#X obj 567 -289 spigot;
#X obj 122 -44 < 0.05;
#X obj 275 -54 < 0.05;
#X obj 428 -40 < 0.05;
#X obj 582 -34 < 0.05;
#X obj 740 -35 < 0.05;
#X obj 896 -29 < 0.05;
#X obj 122 154 del 200;
#X obj 275 144 del 200;
#X obj 426 158 del 200;
#X obj 582 164 del 200;
#X obj 740 163 del 200;
#X obj 896 169 del 200;
#X obj 140 236 pack f f;
#X obj 182 261 r \$0-dd;
#X obj 284 264 s all;
#X obj 284 241 pack f f;
#X obj 326 266 r \$0-dd;
#X obj 436 266 s all;
#X obj 436 243 pack f f;
#X obj 478 268 r \$0-dd;
#X obj 599 259 s all;
#X obj 599 236 pack f f;
#X obj 641 261 r \$0-dd;
#X obj 748 260 s all;
#X obj 748 237 pack f f;
#X obj 790 262 r \$0-dd;
#X obj 903 258 s all;
#X obj 903 235 pack f f;
#X obj 945 260 r \$0-dd;
#X connect 0 0 1 0;
#X connect 1 0 115 0;
#X connect 2 0 8 0;
#X connect 3 0 4 0;
#X connect 4 0 5 0;
#X connect 5 0 121 0;
#X connect 5 1 87 0;
#X connect 5 2 6 0;
#X connect 6 0 3 1;
#X connect 7 0 3 1;
#X connect 8 0 11 0;
#X connect 9 0 10 0;
#X connect 10 0 94 0;
#X connect 10 1 12 0;
#X connect 11 0 3 0;
#X connect 12 0 13 0;
#X connect 13 0 11 1;
#X connect 14 0 15 0;
#X connect 15 0 116 0;
#X connect 16 0 22 0;
#X connect 17 0 18 0;
#X connect 18 0 19 0;
#X connect 19 0 122 0;
#X connect 19 1 89 0;
#X connect 19 2 20 0;
#X connect 20 0 17 1;
#X connect 21 0 17 1;
#X connect 22 0 24 0;
#X connect 23 0 95 0;
#X connect 23 1 25 0;
#X connect 24 0 17 0;
#X connect 25 0 26 0;
#X connect 26 0 24 1;
#X connect 27 0 23 0;
#X connect 28 0 29 0;
#X connect 29 0 117 0;
#X connect 30 0 36 0;
#X connect 31 0 32 0;
#X connect 32 0 33 0;
#X connect 33 0 123 0;
#X connect 33 1 90 0;
#X connect 33 2 34 0;
#X connect 34 0 31 1;
#X connect 35 0 31 1;
#X connect 36 0 38 0;
#X connect 37 0 96 0;
#X connect 37 1 39 0;
#X connect 38 0 31 0;
#X connect 39 0 40 0;
#X connect 40 0 38 1;
#X connect 41 0 37 0;
#X connect 42 0 43 0;
#X connect 43 0 118 0;
#X connect 44 0 50 0;
#X connect 45 0 46 0;
#X connect 46 0 47 0;
#X connect 47 0 124 0;
#X connect 47 1 91 0;
#X connect 47 2 48 0;
#X connect 48 0 45 1;
#X connect 49 0 45 1;
#X connect 50 0 52 0;
#X connect 51 0 97 0;
#X connect 51 1 53 0;
#X connect 52 0 45 0;
#X connect 53 0 54 0;
#X connect 54 0 52 1;
#X connect 55 0 51 0;
#X connect 56 0 57 0;
#X connect 57 0 119 0;
#X connect 58 0 64 0;
#X connect 59 0 60 0;
#X connect 60 0 61 0;
#X connect 61 0 125 0;
#X connect 61 1 92 0;
#X connect 61 2 62 0;
#X connect 62 0 59 1;
#X connect 63 0 59 1;
#X connect 64 0 66 0;
#X connect 65 0 98 0;
#X connect 65 1 67 0;
#X connect 66 0 59 0;
#X connect 67 0 68 0;
#X connect 68 0 66 1;
#X connect 69 0 70 0;
#X connect 70 0 120 0;
#X connect 71 0 77 0;
#X connect 72 0 73 0;
#X connect 73 0 74 0;
#X connect 74 0 126 0;
#X connect 74 1 93 0;
#X connect 74 2 75 0;
#X connect 75 0 72 1;
#X connect 76 0 72 1;
#X connect 77 0 79 0;
#X connect 78 0 99 0;
#X connect 78 1 80 0;
#X connect 79 0 72 0;
#X connect 80 0 81 0;
#X connect 81 0 79 1;
#X connect 82 0 65 0;
#X connect 83 0 78 0;
#X connect 84 0 114 0;
#X connect 85 0 88 0;
#X connect 85 1 100 0;
#X connect 87 0 101 0;
#X connect 87 0 127 0;
#X connect 88 0 0 0;
#X connect 88 0 14 0;
#X connect 88 0 28 0;
#X connect 88 0 42 0;
#X connect 88 0 56 0;
#X connect 88 0 69 0;
#X connect 89 0 104 0;
#X connect 89 0 130 0;
#X connect 90 0 106 0;
#X connect 90 0 133 0;
#X connect 91 0 108 0;
#X connect 91 0 136 0;
#X connect 92 0 110 0;
#X connect 92 0 139 0;
#X connect 93 0 112 0;
#X connect 93 0 142 0;
#X connect 94 0 0 1;
#X connect 95 0 14 1;
#X connect 96 0 28 1;
#X connect 97 0 42 1;
#X connect 98 0 56 1;
#X connect 99 0 69 1;
#X connect 100 0 87 1;
#X connect 100 0 89 1;
#X connect 100 0 90 1;
#X connect 100 0 91 1;
#X connect 100 0 92 1;
#X connect 100 0 93 1;
#X connect 101 0 102 0;
#X connect 104 0 103 0;
#X connect 106 0 105 0;
#X connect 108 0 107 0;
#X connect 110 0 109 0;
#X connect 112 0 111 0;
#X connect 113 0 114 1;
#X connect 114 0 85 0;
#X connect 115 0 2 0;
#X connect 116 0 16 0;
#X connect 117 0 30 0;
#X connect 118 0 44 0;
#X connect 119 0 58 0;
#X connect 120 0 71 0;
#X connect 121 0 7 0;
#X connect 122 0 21 0;
#X connect 123 0 35 0;
#X connect 124 0 49 0;
#X connect 125 0 63 0;
#X connect 126 0 76 0;
#X connect 127 0 86 0;
#X connect 128 0 127 1;
#X connect 130 0 129 0;
#X connect 131 0 130 1;
#X connect 133 0 132 0;
#X connect 134 0 133 1;
#X connect 136 0 135 0;
#X connect 137 0 136 1;
#X connect 139 0 138 0;
#X connect 140 0 139 1;
#X connect 142 0 141 0;
#X connect 143 0 142 1;
#X restore -95 29 pd sound;
#N canvas 144 99 1141 621 sound 0;
#X obj 122 -88 distance_n;
#X floatatom 122 -65 5 0 0 0 - - -;
#X obj 122 -21 change;
#X obj 122 59 spigot 1;
#X obj 122 85 sel 1;
#X obj 122 107 t b b b;
#X msg 161 129 0;
#X msg 122 179 1;
#X obj 122 6 tgl 15 0 empty empty empty 17 7 0 10 -262144 -1 -1 0 1
;
#X obj 199 -152 r \$0-pos-0;
#X obj 199 -128 t a a;
#X obj 122 31 *;
#X msg 226 -104 \$1;
#X obj 149 33 tgl 15 0 empty empty empty 17 7 0 10 -262144 -1 -1 1
1;
#X obj 275 -98 distance_n;
#X floatatom 275 -75 5 0 0 0 - - -;
#X obj 275 -31 change;
#X obj 275 49 spigot 1;
#X obj 275 75 sel 1;
#X obj 275 97 t b b b;
#X msg 314 119 0;
#X msg 275 169 1;
#X obj 275 -4 tgl 15 0 empty empty empty 17 7 0 10 -262144 -1 -1 0
1;
#X obj 352 -138 t a a;
#X obj 275 21 *;
#X msg 379 -114 \$1;
#X obj 302 23 tgl 15 0 empty empty empty 17 7 0 10 -262144 -1 -1 0
1;
#X obj 352 -162 r \$0-pos-1;
#X obj 426 -84 distance_n;
#X floatatom 426 -61 5 0 0 0 - - -;
#X obj 426 -17 change;
#X obj 426 63 spigot 1;
#X obj 426 89 sel 1;
#X obj 426 111 t b b b;
#X msg 465 133 0;
#X msg 426 183 1;
#X obj 426 10 tgl 15 0 empty empty empty 17 7 0 10 -262144 -1 -1 0
1;
#X obj 503 -124 t a a;
#X obj 426 35 *;
#X msg 530 -100 \$1;
#X obj 453 37 tgl 15 0 empty empty empty 17 7 0 10 -262144 -1 -1 1
1;
#X obj 503 -148 r \$0-pos-2;
#X obj 582 -78 distance_n;
#X floatatom 582 -55 5 0 0 0 - - -;
#X obj 582 -11 change;
#X obj 582 69 spigot 1;
#X obj 582 95 sel 1;
#X obj 582 117 t b b b;
#X msg 621 139 0;
#X msg 582 189 1;
#X obj 582 16 tgl 15 0 empty empty empty 17 7 0 10 -262144 -1 -1 0
1;
#X obj 659 -118 t a a;
#X obj 582 41 *;
#X msg 686 -94 \$1;
#X obj 609 43 tgl 15 0 empty empty empty 17 7 0 10 -262144 -1 -1 0
1;
#X obj 659 -142 r \$0-pos-3;
#X obj 740 -79 distance_n;
#X floatatom 740 -56 5 0 0 0 - - -;
#X obj 740 -12 change;
#X obj 740 68 spigot 1;
#X obj 740 94 sel 1;
#X obj 740 116 t b b b;
#X msg 779 138 0;
#X msg 740 188 1;
#X obj 740 15 tgl 15 0 empty empty empty 17 7 0 10 -262144 -1 -1 0
1;
#X obj 817 -119 t a a;
#X obj 740 40 *;
#X msg 844 -95 \$1;
#X obj 767 42 tgl 15 0 empty empty empty 17 7 0 10 -262144 -1 -1 1
1;
#X obj 896 -73 distance_n;
#X floatatom 896 -50 5 0 0 0 - - -;
#X obj 896 -6 change;
#X obj 896 74 spigot 1;
#X obj 896 100 sel 1;
#X obj 896 122 t b b b;
#X msg 935 144 0;
#X msg 896 194 1;
#X obj 896 21 tgl 15 0 empty empty empty 17 7 0 10 -262144 -1 -1 0
1;
#X obj 973 -113 t a a;
#X obj 896 46 *;
#X msg 1000 -89 \$1;
#X obj 923 48 tgl 15 0 empty empty empty 17 7 0 10 -262144 -1 -1 0
1;
#X obj 817 -143 r \$0-pos-4;
#X obj 973 -137 r \$0-pos-5;
#X obj 561 -324 inlet;
#X obj 571 -244 t a a;
#X obj 140 259 s all;
#X obj 141 212 f;
#X msg 571 -196 \$1 \$2 0;
#X obj 293 203 f;
#X obj 451 204 f;
#X obj 614 203 f;
#X obj 766 197 f;
#X obj 929 199 f;
#X msg 199 -77 \$2 \$3 0;
#X msg 352 -87 \$2 \$3 0;
#X msg 503 -73 \$2 \$3 0;
#X msg 659 -67 \$2 \$3 0;
#X msg 817 -68 \$2 \$3 0;
#X msg 973 -62 \$2 \$3 0;
#X msg 598 -222 \$3;
#X msg 201 207 0;
#X obj 201 230 s \$0-size;
#X obj 341 232 s \$0-size;
#X msg 341 209 1;
#X obj 493 231 s \$0-size;
#X msg 493 208 2;
#X obj 660 230 s \$0-size;
#X msg 660 207 3;
#X obj 804 230 s \$0-size;
#X msg 804 207 4;
#X obj 969 221 s \$0-size;
#X msg 969 198 5;
#X obj 620 -268 r \$0-tgl;
#X obj 567 -289 spigot;
#X obj 122 -44 < 0.05;
#X obj 275 -54 < 0.05;
#X obj 428 -40 < 0.05;
#X obj 582 -34 < 0.05;
#X obj 740 -35 < 0.05;
#X obj 896 -29 < 0.05;
#X obj 122 154 del 200;
#X obj 275 144 del 200;
#X obj 426 158 del 200;
#X obj 582 164 del 200;
#X obj 740 163 del 200;
#X obj 896 169 del 200;
#X obj 140 236 pack f f;
#X obj 182 261 r \$0-dd;
#X obj 284 264 s all;
#X obj 284 241 pack f f;
#X obj 326 266 r \$0-dd;
#X obj 436 266 s all;
#X obj 436 243 pack f f;
#X obj 478 268 r \$0-dd;
#X obj 599 259 s all;
#X obj 599 236 pack f f;
#X obj 641 261 r \$0-dd;
#X obj 748 260 s all;
#X obj 748 237 pack f f;
#X obj 790 262 r \$0-dd;
#X obj 903 258 s all;
#X obj 903 235 pack f f;
#X obj 945 260 r \$0-dd;
#X connect 0 0 1 0;
#X connect 1 0 115 0;
#X connect 2 0 8 0;
#X connect 3 0 4 0;
#X connect 4 0 5 0;
#X connect 5 0 121 0;
#X connect 5 1 87 0;
#X connect 5 2 6 0;
#X connect 6 0 3 1;
#X connect 7 0 3 1;
#X connect 8 0 11 0;
#X connect 9 0 10 0;
#X connect 10 0 94 0;
#X connect 10 1 12 0;
#X connect 11 0 3 0;
#X connect 12 0 13 0;
#X connect 13 0 11 1;
#X connect 14 0 15 0;
#X connect 15 0 116 0;
#X connect 16 0 22 0;
#X connect 17 0 18 0;
#X connect 18 0 19 0;
#X connect 19 0 122 0;
#X connect 19 1 89 0;
#X connect 19 2 20 0;
#X connect 20 0 17 1;
#X connect 21 0 17 1;
#X connect 22 0 24 0;
#X connect 23 0 95 0;
#X connect 23 1 25 0;
#X connect 24 0 17 0;
#X connect 25 0 26 0;
#X connect 26 0 24 1;
#X connect 27 0 23 0;
#X connect 28 0 29 0;
#X connect 29 0 117 0;
#X connect 30 0 36 0;
#X connect 31 0 32 0;
#X connect 32 0 33 0;
#X connect 33 0 123 0;
#X connect 33 1 90 0;
#X connect 33 2 34 0;
#X connect 34 0 31 1;
#X connect 35 0 31 1;
#X connect 36 0 38 0;
#X connect 37 0 96 0;
#X connect 37 1 39 0;
#X connect 38 0 31 0;
#X connect 39 0 40 0;
#X connect 40 0 38 1;
#X connect 41 0 37 0;
#X connect 42 0 43 0;
#X connect 43 0 118 0;
#X connect 44 0 50 0;
#X connect 45 0 46 0;
#X connect 46 0 47 0;
#X connect 47 0 124 0;
#X connect 47 1 91 0;
#X connect 47 2 48 0;
#X connect 48 0 45 1;
#X connect 49 0 45 1;
#X connect 50 0 52 0;
#X connect 51 0 97 0;
#X connect 51 1 53 0;
#X connect 52 0 45 0;
#X connect 53 0 54 0;
#X connect 54 0 52 1;
#X connect 55 0 51 0;
#X connect 56 0 57 0;
#X connect 57 0 119 0;
#X connect 58 0 64 0;
#X connect 59 0 60 0;
#X connect 60 0 61 0;
#X connect 61 0 125 0;
#X connect 61 1 92 0;
#X connect 61 2 62 0;
#X connect 62 0 59 1;
#X connect 63 0 59 1;
#X connect 64 0 66 0;
#X connect 65 0 98 0;
#X connect 65 1 67 0;
#X connect 66 0 59 0;
#X connect 67 0 68 0;
#X connect 68 0 66 1;
#X connect 69 0 70 0;
#X connect 70 0 120 0;
#X connect 71 0 77 0;
#X connect 72 0 73 0;
#X connect 73 0 74 0;
#X connect 74 0 126 0;
#X connect 74 1 93 0;
#X connect 74 2 75 0;
#X connect 75 0 72 1;
#X connect 76 0 72 1;
#X connect 77 0 79 0;
#X connect 78 0 99 0;
#X connect 78 1 80 0;
#X connect 79 0 72 0;
#X connect 80 0 81 0;
#X connect 81 0 79 1;
#X connect 82 0 65 0;
#X connect 83 0 78 0;
#X connect 84 0 114 0;
#X connect 85 0 88 0;
#X connect 85 1 100 0;
#X connect 87 0 101 0;
#X connect 87 0 127 0;
#X connect 88 0 0 0;
#X connect 88 0 14 0;
#X connect 88 0 28 0;
#X connect 88 0 42 0;
#X connect 88 0 56 0;
#X connect 88 0 69 0;
#X connect 89 0 104 0;
#X connect 89 0 130 0;
#X connect 90 0 106 0;
#X connect 90 0 133 0;
#X connect 91 0 108 0;
#X connect 91 0 136 0;
#X connect 92 0 110 0;
#X connect 92 0 139 0;
#X connect 93 0 112 0;
#X connect 93 0 142 0;
#X connect 94 0 0 1;
#X connect 95 0 14 1;
#X connect 96 0 28 1;
#X connect 97 0 42 1;
#X connect 98 0 56 1;
#X connect 99 0 69 1;
#X connect 100 0 87 1;
#X connect 100 0 89 1;
#X connect 100 0 90 1;
#X connect 100 0 91 1;
#X connect 100 0 92 1;
#X connect 100 0 93 1;
#X connect 101 0 102 0;
#X connect 104 0 103 0;
#X connect 106 0 105 0;
#X connect 108 0 107 0;
#X connect 110 0 109 0;
#X connect 112 0 111 0;
#X connect 113 0 114 1;
#X connect 114 0 85 0;
#X connect 115 0 2 0;
#X connect 116 0 16 0;
#X connect 117 0 30 0;
#X connect 118 0 44 0;
#X connect 119 0 58 0;
#X connect 120 0 71 0;
#X connect 121 0 7 0;
#X connect 122 0 21 0;
#X connect 123 0 35 0;
#X connect 124 0 49 0;
#X connect 125 0 63 0;
#X connect 126 0 76 0;
#X connect 127 0 86 0;
#X connect 128 0 127 1;
#X connect 130 0 129 0;
#X connect 131 0 130 1;
#X connect 133 0 132 0;
#X connect 134 0 133 1;
#X connect 136 0 135 0;
#X connect 137 0 136 1;
#X connect 139 0 138 0;
#X connect 140 0 139 1;
#X connect 142 0 141 0;
#X connect 143 0 142 1;
#X restore -195 74 pd sound;
#N canvas 144 99 1141 621 sound 0;
#X obj 122 -88 distance_n;
#X floatatom 122 -65 5 0 0 0 - - -;
#X obj 122 -21 change;
#X obj 122 59 spigot 1;
#X obj 122 85 sel 1;
#X obj 122 107 t b b b;
#X msg 161 129 0;
#X msg 122 179 1;
#X obj 122 6 tgl 15 0 empty empty empty 17 7 0 10 -262144 -1 -1 0 1
;
#X obj 199 -152 r \$0-pos-0;
#X obj 199 -128 t a a;
#X obj 122 31 *;
#X msg 226 -104 \$1;
#X obj 149 33 tgl 15 0 empty empty empty 17 7 0 10 -262144 -1 -1 1
1;
#X obj 275 -98 distance_n;
#X floatatom 275 -75 5 0 0 0 - - -;
#X obj 275 -31 change;
#X obj 275 49 spigot 1;
#X obj 275 75 sel 1;
#X obj 275 97 t b b b;
#X msg 314 119 0;
#X msg 275 169 1;
#X obj 275 -4 tgl 15 0 empty empty empty 17 7 0 10 -262144 -1 -1 0
1;
#X obj 352 -138 t a a;
#X obj 275 21 *;
#X msg 379 -114 \$1;
#X obj 302 23 tgl 15 0 empty empty empty 17 7 0 10 -262144 -1 -1 0
1;
#X obj 352 -162 r \$0-pos-1;
#X obj 426 -84 distance_n;
#X floatatom 426 -61 5 0 0 0 - - -;
#X obj 426 -17 change;
#X obj 426 63 spigot 1;
#X obj 426 89 sel 1;
#X obj 426 111 t b b b;
#X msg 465 133 0;
#X msg 426 183 1;
#X obj 426 10 tgl 15 0 empty empty empty 17 7 0 10 -262144 -1 -1 0
1;
#X obj 503 -124 t a a;
#X obj 426 35 *;
#X msg 530 -100 \$1;
#X obj 453 37 tgl 15 0 empty empty empty 17 7 0 10 -262144 -1 -1 1
1;
#X obj 503 -148 r \$0-pos-2;
#X obj 582 -78 distance_n;
#X floatatom 582 -55 5 0 0 0 - - -;
#X obj 582 -11 change;
#X obj 582 69 spigot 1;
#X obj 582 95 sel 1;
#X obj 582 117 t b b b;
#X msg 621 139 0;
#X msg 582 189 1;
#X obj 582 16 tgl 15 0 empty empty empty 17 7 0 10 -262144 -1 -1 0
1;
#X obj 659 -118 t a a;
#X obj 582 41 *;
#X msg 686 -94 \$1;
#X obj 609 43 tgl 15 0 empty empty empty 17 7 0 10 -262144 -1 -1 0
1;
#X obj 659 -142 r \$0-pos-3;
#X obj 740 -79 distance_n;
#X floatatom 740 -56 5 0 0 0 - - -;
#X obj 740 -12 change;
#X obj 740 68 spigot 1;
#X obj 740 94 sel 1;
#X obj 740 116 t b b b;
#X msg 779 138 0;
#X msg 740 188 1;
#X obj 740 15 tgl 15 0 empty empty empty 17 7 0 10 -262144 -1 -1 0
1;
#X obj 817 -119 t a a;
#X obj 740 40 *;
#X msg 844 -95 \$1;
#X obj 767 42 tgl 15 0 empty empty empty 17 7 0 10 -262144 -1 -1 1
1;
#X obj 896 -73 distance_n;
#X floatatom 896 -50 5 0 0 0 - - -;
#X obj 896 -6 change;
#X obj 896 74 spigot 1;
#X obj 896 100 sel 1;
#X obj 896 122 t b b b;
#X msg 935 144 0;
#X msg 896 194 1;
#X obj 896 21 tgl 15 0 empty empty empty 17 7 0 10 -262144 -1 -1 0
1;
#X obj 973 -113 t a a;
#X obj 896 46 *;
#X msg 1000 -89 \$1;
#X obj 923 48 tgl 15 0 empty empty empty 17 7 0 10 -262144 -1 -1 0
1;
#X obj 817 -143 r \$0-pos-4;
#X obj 973 -137 r \$0-pos-5;
#X obj 561 -324 inlet;
#X obj 571 -244 t a a;
#X obj 140 259 s all;
#X obj 141 212 f;
#X msg 571 -196 \$1 \$2 0;
#X obj 293 203 f;
#X obj 451 204 f;
#X obj 614 203 f;
#X obj 766 197 f;
#X obj 929 199 f;
#X msg 199 -77 \$2 \$3 0;
#X msg 352 -87 \$2 \$3 0;
#X msg 503 -73 \$2 \$3 0;
#X msg 659 -67 \$2 \$3 0;
#X msg 817 -68 \$2 \$3 0;
#X msg 973 -62 \$2 \$3 0;
#X msg 598 -222 \$3;
#X msg 201 207 0;
#X obj 201 230 s \$0-size;
#X obj 341 232 s \$0-size;
#X msg 341 209 1;
#X obj 493 231 s \$0-size;
#X msg 493 208 2;
#X obj 660 230 s \$0-size;
#X msg 660 207 3;
#X obj 804 230 s \$0-size;
#X msg 804 207 4;
#X obj 969 221 s \$0-size;
#X msg 969 198 5;
#X obj 620 -268 r \$0-tgl;
#X obj 567 -289 spigot;
#X obj 122 -44 < 0.05;
#X obj 275 -54 < 0.05;
#X obj 428 -40 < 0.05;
#X obj 582 -34 < 0.05;
#X obj 740 -35 < 0.05;
#X obj 896 -29 < 0.05;
#X obj 122 154 del 200;
#X obj 275 144 del 200;
#X obj 426 158 del 200;
#X obj 582 164 del 200;
#X obj 740 163 del 200;
#X obj 896 169 del 200;
#X obj 140 236 pack f f;
#X obj 182 261 r \$0-dd;
#X obj 284 264 s all;
#X obj 284 241 pack f f;
#X obj 326 266 r \$0-dd;
#X obj 436 266 s all;
#X obj 436 243 pack f f;
#X obj 478 268 r \$0-dd;
#X obj 599 259 s all;
#X obj 599 236 pack f f;
#X obj 641 261 r \$0-dd;
#X obj 748 260 s all;
#X obj 748 237 pack f f;
#X obj 790 262 r \$0-dd;
#X obj 903 258 s all;
#X obj 903 235 pack f f;
#X obj 945 260 r \$0-dd;
#X connect 0 0 1 0;
#X connect 1 0 115 0;
#X connect 2 0 8 0;
#X connect 3 0 4 0;
#X connect 4 0 5 0;
#X connect 5 0 121 0;
#X connect 5 1 87 0;
#X connect 5 2 6 0;
#X connect 6 0 3 1;
#X connect 7 0 3 1;
#X connect 8 0 11 0;
#X connect 9 0 10 0;
#X connect 10 0 94 0;
#X connect 10 1 12 0;
#X connect 11 0 3 0;
#X connect 12 0 13 0;
#X connect 13 0 11 1;
#X connect 14 0 15 0;
#X connect 15 0 116 0;
#X connect 16 0 22 0;
#X connect 17 0 18 0;
#X connect 18 0 19 0;
#X connect 19 0 122 0;
#X connect 19 1 89 0;
#X connect 19 2 20 0;
#X connect 20 0 17 1;
#X connect 21 0 17 1;
#X connect 22 0 24 0;
#X connect 23 0 95 0;
#X connect 23 1 25 0;
#X connect 24 0 17 0;
#X connect 25 0 26 0;
#X connect 26 0 24 1;
#X connect 27 0 23 0;
#X connect 28 0 29 0;
#X connect 29 0 117 0;
#X connect 30 0 36 0;
#X connect 31 0 32 0;
#X connect 32 0 33 0;
#X connect 33 0 123 0;
#X connect 33 1 90 0;
#X connect 33 2 34 0;
#X connect 34 0 31 1;
#X connect 35 0 31 1;
#X connect 36 0 38 0;
#X connect 37 0 96 0;
#X connect 37 1 39 0;
#X connect 38 0 31 0;
#X connect 39 0 40 0;
#X connect 40 0 38 1;
#X connect 41 0 37 0;
#X connect 42 0 43 0;
#X connect 43 0 118 0;
#X connect 44 0 50 0;
#X connect 45 0 46 0;
#X connect 46 0 47 0;
#X connect 47 0 124 0;
#X connect 47 1 91 0;
#X connect 47 2 48 0;
#X connect 48 0 45 1;
#X connect 49 0 45 1;
#X connect 50 0 52 0;
#X connect 51 0 97 0;
#X connect 51 1 53 0;
#X connect 52 0 45 0;
#X connect 53 0 54 0;
#X connect 54 0 52 1;
#X connect 55 0 51 0;
#X connect 56 0 57 0;
#X connect 57 0 119 0;
#X connect 58 0 64 0;
#X connect 59 0 60 0;
#X connect 60 0 61 0;
#X connect 61 0 125 0;
#X connect 61 1 92 0;
#X connect 61 2 62 0;
#X connect 62 0 59 1;
#X connect 63 0 59 1;
#X connect 64 0 66 0;
#X connect 65 0 98 0;
#X connect 65 1 67 0;
#X connect 66 0 59 0;
#X connect 67 0 68 0;
#X connect 68 0 66 1;
#X connect 69 0 70 0;
#X connect 70 0 120 0;
#X connect 71 0 77 0;
#X connect 72 0 73 0;
#X connect 73 0 74 0;
#X connect 74 0 126 0;
#X connect 74 1 93 0;
#X connect 74 2 75 0;
#X connect 75 0 72 1;
#X connect 76 0 72 1;
#X connect 77 0 79 0;
#X connect 78 0 99 0;
#X connect 78 1 80 0;
#X connect 79 0 72 0;
#X connect 80 0 81 0;
#X connect 81 0 79 1;
#X connect 82 0 65 0;
#X connect 83 0 78 0;
#X connect 84 0 114 0;
#X connect 85 0 88 0;
#X connect 85 1 100 0;
#X connect 87 0 101 0;
#X connect 87 0 127 0;
#X connect 88 0 0 0;
#X connect 88 0 14 0;
#X connect 88 0 28 0;
#X connect 88 0 42 0;
#X connect 88 0 56 0;
#X connect 88 0 69 0;
#X connect 89 0 104 0;
#X connect 89 0 130 0;
#X connect 90 0 106 0;
#X connect 90 0 133 0;
#X connect 91 0 108 0;
#X connect 91 0 136 0;
#X connect 92 0 110 0;
#X connect 92 0 139 0;
#X connect 93 0 112 0;
#X connect 93 0 142 0;
#X connect 94 0 0 1;
#X connect 95 0 14 1;
#X connect 96 0 28 1;
#X connect 97 0 42 1;
#X connect 98 0 56 1;
#X connect 99 0 69 1;
#X connect 100 0 87 1;
#X connect 100 0 89 1;
#X connect 100 0 90 1;
#X connect 100 0 91 1;
#X connect 100 0 92 1;
#X connect 100 0 93 1;
#X connect 101 0 102 0;
#X connect 104 0 103 0;
#X connect 106 0 105 0;
#X connect 108 0 107 0;
#X connect 110 0 109 0;
#X connect 112 0 111 0;
#X connect 113 0 114 1;
#X connect 114 0 85 0;
#X connect 115 0 2 0;
#X connect 116 0 16 0;
#X connect 117 0 30 0;
#X connect 118 0 44 0;
#X connect 119 0 58 0;
#X connect 120 0 71 0;
#X connect 121 0 7 0;
#X connect 122 0 21 0;
#X connect 123 0 35 0;
#X connect 124 0 49 0;
#X connect 125 0 63 0;
#X connect 126 0 76 0;
#X connect 127 0 86 0;
#X connect 128 0 127 1;
#X connect 130 0 129 0;
#X connect 131 0 130 1;
#X connect 133 0 132 0;
#X connect 134 0 133 1;
#X connect 136 0 135 0;
#X connect 137 0 136 1;
#X connect 139 0 138 0;
#X connect 140 0 139 1;
#X connect 142 0 141 0;
#X connect 143 0 142 1;
#X restore -93 77 pd sound;
#N canvas 144 99 1141 621 sound 0;
#X obj 122 -88 distance_n;
#X floatatom 122 -65 5 0 0 0 - - -;
#X obj 122 -21 change;
#X obj 122 59 spigot 1;
#X obj 122 85 sel 1;
#X obj 122 107 t b b b;
#X msg 161 129 0;
#X msg 122 179 1;
#X obj 122 6 tgl 15 0 empty empty empty 17 7 0 10 -262144 -1 -1 0 1
;
#X obj 199 -152 r \$0-pos-0;
#X obj 199 -128 t a a;
#X obj 122 31 *;
#X msg 226 -104 \$1;
#X obj 149 33 tgl 15 0 empty empty empty 17 7 0 10 -262144 -1 -1 1
1;
#X obj 275 -98 distance_n;
#X floatatom 275 -75 5 0 0 0 - - -;
#X obj 275 -31 change;
#X obj 275 49 spigot 1;
#X obj 275 75 sel 1;
#X obj 275 97 t b b b;
#X msg 314 119 0;
#X msg 275 169 1;
#X obj 275 -4 tgl 15 0 empty empty empty 17 7 0 10 -262144 -1 -1 0
1;
#X obj 352 -138 t a a;
#X obj 275 21 *;
#X msg 379 -114 \$1;
#X obj 302 23 tgl 15 0 empty empty empty 17 7 0 10 -262144 -1 -1 0
1;
#X obj 352 -162 r \$0-pos-1;
#X obj 426 -84 distance_n;
#X floatatom 426 -61 5 0 0 0 - - -;
#X obj 426 -17 change;
#X obj 426 63 spigot 1;
#X obj 426 89 sel 1;
#X obj 426 111 t b b b;
#X msg 465 133 0;
#X msg 426 183 1;
#X obj 426 10 tgl 15 0 empty empty empty 17 7 0 10 -262144 -1 -1 0
1;
#X obj 503 -124 t a a;
#X obj 426 35 *;
#X msg 530 -100 \$1;
#X obj 453 37 tgl 15 0 empty empty empty 17 7 0 10 -262144 -1 -1 1
1;
#X obj 503 -148 r \$0-pos-2;
#X obj 582 -78 distance_n;
#X floatatom 582 -55 5 0 0 0 - - -;
#X obj 582 -11 change;
#X obj 582 69 spigot 1;
#X obj 582 95 sel 1;
#X obj 582 117 t b b b;
#X msg 621 139 0;
#X msg 582 189 1;
#X obj 582 16 tgl 15 0 empty empty empty 17 7 0 10 -262144 -1 -1 0
1;
#X obj 659 -118 t a a;
#X obj 582 41 *;
#X msg 686 -94 \$1;
#X obj 609 43 tgl 15 0 empty empty empty 17 7 0 10 -262144 -1 -1 0
1;
#X obj 659 -142 r \$0-pos-3;
#X obj 740 -79 distance_n;
#X floatatom 740 -56 5 0 0 0 - - -;
#X obj 740 -12 change;
#X obj 740 68 spigot 1;
#X obj 740 94 sel 1;
#X obj 740 116 t b b b;
#X msg 779 138 0;
#X msg 740 188 1;
#X obj 740 15 tgl 15 0 empty empty empty 17 7 0 10 -262144 -1 -1 0
1;
#X obj 817 -119 t a a;
#X obj 740 40 *;
#X msg 844 -95 \$1;
#X obj 767 42 tgl 15 0 empty empty empty 17 7 0 10 -262144 -1 -1 1
1;
#X obj 896 -73 distance_n;
#X floatatom 896 -50 5 0 0 0 - - -;
#X obj 896 -6 change;
#X obj 896 74 spigot 1;
#X obj 896 100 sel 1;
#X obj 896 122 t b b b;
#X msg 935 144 0;
#X msg 896 194 1;
#X obj 896 21 tgl 15 0 empty empty empty 17 7 0 10 -262144 -1 -1 0
1;
#X obj 973 -113 t a a;
#X obj 896 46 *;
#X msg 1000 -89 \$1;
#X obj 923 48 tgl 15 0 empty empty empty 17 7 0 10 -262144 -1 -1 0
1;
#X obj 817 -143 r \$0-pos-4;
#X obj 973 -137 r \$0-pos-5;
#X obj 561 -324 inlet;
#X obj 571 -244 t a a;
#X obj 140 259 s all;
#X obj 141 212 f;
#X msg 571 -196 \$1 \$2 0;
#X obj 293 203 f;
#X obj 451 204 f;
#X obj 614 203 f;
#X obj 766 197 f;
#X obj 929 199 f;
#X msg 199 -77 \$2 \$3 0;
#X msg 352 -87 \$2 \$3 0;
#X msg 503 -73 \$2 \$3 0;
#X msg 659 -67 \$2 \$3 0;
#X msg 817 -68 \$2 \$3 0;
#X msg 973 -62 \$2 \$3 0;
#X msg 598 -222 \$3;
#X msg 201 207 0;
#X obj 201 230 s \$0-size;
#X obj 341 232 s \$0-size;
#X msg 341 209 1;
#X obj 493 231 s \$0-size;
#X msg 493 208 2;
#X obj 660 230 s \$0-size;
#X msg 660 207 3;
#X obj 804 230 s \$0-size;
#X msg 804 207 4;
#X obj 969 221 s \$0-size;
#X msg 969 198 5;
#X obj 620 -268 r \$0-tgl;
#X obj 567 -289 spigot;
#X obj 122 -44 < 0.05;
#X obj 275 -54 < 0.05;
#X obj 428 -40 < 0.05;
#X obj 582 -34 < 0.05;
#X obj 740 -35 < 0.05;
#X obj 896 -29 < 0.05;
#X obj 122 154 del 200;
#X obj 275 144 del 200;
#X obj 426 158 del 200;
#X obj 582 164 del 200;
#X obj 740 163 del 200;
#X obj 896 169 del 200;
#X obj 140 236 pack f f;
#X obj 182 261 r \$0-dd;
#X obj 284 264 s all;
#X obj 284 241 pack f f;
#X obj 326 266 r \$0-dd;
#X obj 436 266 s all;
#X obj 436 243 pack f f;
#X obj 478 268 r \$0-dd;
#X obj 599 259 s all;
#X obj 599 236 pack f f;
#X obj 641 261 r \$0-dd;
#X obj 748 260 s all;
#X obj 748 237 pack f f;
#X obj 790 262 r \$0-dd;
#X obj 903 258 s all;
#X obj 903 235 pack f f;
#X obj 945 260 r \$0-dd;
#X connect 0 0 1 0;
#X connect 1 0 115 0;
#X connect 2 0 8 0;
#X connect 3 0 4 0;
#X connect 4 0 5 0;
#X connect 5 0 121 0;
#X connect 5 1 87 0;
#X connect 5 2 6 0;
#X connect 6 0 3 1;
#X connect 7 0 3 1;
#X connect 8 0 11 0;
#X connect 9 0 10 0;
#X connect 10 0 94 0;
#X connect 10 1 12 0;
#X connect 11 0 3 0;
#X connect 12 0 13 0;
#X connect 13 0 11 1;
#X connect 14 0 15 0;
#X connect 15 0 116 0;
#X connect 16 0 22 0;
#X connect 17 0 18 0;
#X connect 18 0 19 0;
#X connect 19 0 122 0;
#X connect 19 1 89 0;
#X connect 19 2 20 0;
#X connect 20 0 17 1;
#X connect 21 0 17 1;
#X connect 22 0 24 0;
#X connect 23 0 95 0;
#X connect 23 1 25 0;
#X connect 24 0 17 0;
#X connect 25 0 26 0;
#X connect 26 0 24 1;
#X connect 27 0 23 0;
#X connect 28 0 29 0;
#X connect 29 0 117 0;
#X connect 30 0 36 0;
#X connect 31 0 32 0;
#X connect 32 0 33 0;
#X connect 33 0 123 0;
#X connect 33 1 90 0;
#X connect 33 2 34 0;
#X connect 34 0 31 1;
#X connect 35 0 31 1;
#X connect 36 0 38 0;
#X connect 37 0 96 0;
#X connect 37 1 39 0;
#X connect 38 0 31 0;
#X connect 39 0 40 0;
#X connect 40 0 38 1;
#X connect 41 0 37 0;
#X connect 42 0 43 0;
#X connect 43 0 118 0;
#X connect 44 0 50 0;
#X connect 45 0 46 0;
#X connect 46 0 47 0;
#X connect 47 0 124 0;
#X connect 47 1 91 0;
#X connect 47 2 48 0;
#X connect 48 0 45 1;
#X connect 49 0 45 1;
#X connect 50 0 52 0;
#X connect 51 0 97 0;
#X connect 51 1 53 0;
#X connect 52 0 45 0;
#X connect 53 0 54 0;
#X connect 54 0 52 1;
#X connect 55 0 51 0;
#X connect 56 0 57 0;
#X connect 57 0 119 0;
#X connect 58 0 64 0;
#X connect 59 0 60 0;
#X connect 60 0 61 0;
#X connect 61 0 125 0;
#X connect 61 1 92 0;
#X connect 61 2 62 0;
#X connect 62 0 59 1;
#X connect 63 0 59 1;
#X connect 64 0 66 0;
#X connect 65 0 98 0;
#X connect 65 1 67 0;
#X connect 66 0 59 0;
#X connect 67 0 68 0;
#X connect 68 0 66 1;
#X connect 69 0 70 0;
#X connect 70 0 120 0;
#X connect 71 0 77 0;
#X connect 72 0 73 0;
#X connect 73 0 74 0;
#X connect 74 0 126 0;
#X connect 74 1 93 0;
#X connect 74 2 75 0;
#X connect 75 0 72 1;
#X connect 76 0 72 1;
#X connect 77 0 79 0;
#X connect 78 0 99 0;
#X connect 78 1 80 0;
#X connect 79 0 72 0;
#X connect 80 0 81 0;
#X connect 81 0 79 1;
#X connect 82 0 65 0;
#X connect 83 0 78 0;
#X connect 84 0 114 0;
#X connect 85 0 88 0;
#X connect 85 1 100 0;
#X connect 87 0 101 0;
#X connect 87 0 127 0;
#X connect 88 0 0 0;
#X connect 88 0 14 0;
#X connect 88 0 28 0;
#X connect 88 0 42 0;
#X connect 88 0 56 0;
#X connect 88 0 69 0;
#X connect 89 0 104 0;
#X connect 89 0 130 0;
#X connect 90 0 106 0;
#X connect 90 0 133 0;
#X connect 91 0 108 0;
#X connect 91 0 136 0;
#X connect 92 0 110 0;
#X connect 92 0 139 0;
#X connect 93 0 112 0;
#X connect 93 0 142 0;
#X connect 94 0 0 1;
#X connect 95 0 14 1;
#X connect 96 0 28 1;
#X connect 97 0 42 1;
#X connect 98 0 56 1;
#X connect 99 0 69 1;
#X connect 100 0 87 1;
#X connect 100 0 89 1;
#X connect 100 0 90 1;
#X connect 100 0 91 1;
#X connect 100 0 92 1;
#X connect 100 0 93 1;
#X connect 101 0 102 0;
#X connect 104 0 103 0;
#X connect 106 0 105 0;
#X connect 108 0 107 0;
#X connect 110 0 109 0;
#X connect 112 0 111 0;
#X connect 113 0 114 1;
#X connect 114 0 85 0;
#X connect 115 0 2 0;
#X connect 116 0 16 0;
#X connect 117 0 30 0;
#X connect 118 0 44 0;
#X connect 119 0 58 0;
#X connect 120 0 71 0;
#X connect 121 0 7 0;
#X connect 122 0 21 0;
#X connect 123 0 35 0;
#X connect 124 0 49 0;
#X connect 125 0 63 0;
#X connect 126 0 76 0;
#X connect 127 0 86 0;
#X connect 128 0 127 1;
#X connect 130 0 129 0;
#X connect 131 0 130 1;
#X connect 133 0 132 0;
#X connect 134 0 133 1;
#X connect 136 0 135 0;
#X connect 137 0 136 1;
#X connect 139 0 138 0;
#X connect 140 0 139 1;
#X connect 142 0 141 0;
#X connect 143 0 142 1;
#X restore -198 125 pd sound;
#N canvas 144 99 1141 621 sound 0;
#X obj 122 -88 distance_n;
#X floatatom 122 -65 5 0 0 0 - - -;
#X obj 122 -21 change;
#X obj 122 59 spigot 1;
#X obj 122 85 sel 1;
#X obj 122 107 t b b b;
#X msg 161 129 0;
#X msg 122 179 1;
#X obj 122 6 tgl 15 0 empty empty empty 17 7 0 10 -262144 -1 -1 0 1
;
#X obj 199 -152 r \$0-pos-0;
#X obj 199 -128 t a a;
#X obj 122 31 *;
#X msg 226 -104 \$1;
#X obj 149 33 tgl 15 0 empty empty empty 17 7 0 10 -262144 -1 -1 1
1;
#X obj 275 -98 distance_n;
#X floatatom 275 -75 5 0 0 0 - - -;
#X obj 275 -31 change;
#X obj 275 49 spigot 1;
#X obj 275 75 sel 1;
#X obj 275 97 t b b b;
#X msg 314 119 0;
#X msg 275 169 1;
#X obj 275 -4 tgl 15 0 empty empty empty 17 7 0 10 -262144 -1 -1 0
1;
#X obj 352 -138 t a a;
#X obj 275 21 *;
#X msg 379 -114 \$1;
#X obj 302 23 tgl 15 0 empty empty empty 17 7 0 10 -262144 -1 -1 0
1;
#X obj 352 -162 r \$0-pos-1;
#X obj 426 -84 distance_n;
#X floatatom 426 -61 5 0 0 0 - - -;
#X obj 426 -17 change;
#X obj 426 63 spigot 1;
#X obj 426 89 sel 1;
#X obj 426 111 t b b b;
#X msg 465 133 0;
#X msg 426 183 1;
#X obj 426 10 tgl 15 0 empty empty empty 17 7 0 10 -262144 -1 -1 0
1;
#X obj 503 -124 t a a;
#X obj 426 35 *;
#X msg 530 -100 \$1;
#X obj 453 37 tgl 15 0 empty empty empty 17 7 0 10 -262144 -1 -1 1
1;
#X obj 503 -148 r \$0-pos-2;
#X obj 582 -78 distance_n;
#X floatatom 582 -55 5 0 0 0 - - -;
#X obj 582 -11 change;
#X obj 582 69 spigot 1;
#X obj 582 95 sel 1;
#X obj 582 117 t b b b;
#X msg 621 139 0;
#X msg 582 189 1;
#X obj 582 16 tgl 15 0 empty empty empty 17 7 0 10 -262144 -1 -1 0
1;
#X obj 659 -118 t a a;
#X obj 582 41 *;
#X msg 686 -94 \$1;
#X obj 609 43 tgl 15 0 empty empty empty 17 7 0 10 -262144 -1 -1 0
1;
#X obj 659 -142 r \$0-pos-3;
#X obj 740 -79 distance_n;
#X floatatom 740 -56 5 0 0 0 - - -;
#X obj 740 -12 change;
#X obj 740 68 spigot 1;
#X obj 740 94 sel 1;
#X obj 740 116 t b b b;
#X msg 779 138 0;
#X msg 740 188 1;
#X obj 740 15 tgl 15 0 empty empty empty 17 7 0 10 -262144 -1 -1 0
1;
#X obj 817 -119 t a a;
#X obj 740 40 *;
#X msg 844 -95 \$1;
#X obj 767 42 tgl 15 0 empty empty empty 17 7 0 10 -262144 -1 -1 1
1;
#X obj 896 -73 distance_n;
#X floatatom 896 -50 5 0 0 0 - - -;
#X obj 896 -6 change;
#X obj 896 74 spigot 1;
#X obj 896 100 sel 1;
#X obj 896 122 t b b b;
#X msg 935 144 0;
#X msg 896 194 1;
#X obj 896 21 tgl 15 0 empty empty empty 17 7 0 10 -262144 -1 -1 0
1;
#X obj 973 -113 t a a;
#X obj 896 46 *;
#X msg 1000 -89 \$1;
#X obj 923 48 tgl 15 0 empty empty empty 17 7 0 10 -262144 -1 -1 0
1;
#X obj 817 -143 r \$0-pos-4;
#X obj 973 -137 r \$0-pos-5;
#X obj 561 -324 inlet;
#X obj 571 -244 t a a;
#X obj 140 259 s all;
#X obj 141 212 f;
#X msg 571 -196 \$1 \$2 0;
#X obj 293 203 f;
#X obj 451 204 f;
#X obj 614 203 f;
#X obj 766 197 f;
#X obj 929 199 f;
#X msg 199 -77 \$2 \$3 0;
#X msg 352 -87 \$2 \$3 0;
#X msg 503 -73 \$2 \$3 0;
#X msg 659 -67 \$2 \$3 0;
#X msg 817 -68 \$2 \$3 0;
#X msg 973 -62 \$2 \$3 0;
#X msg 598 -222 \$3;
#X msg 201 207 0;
#X obj 201 230 s \$0-size;
#X obj 341 232 s \$0-size;
#X msg 341 209 1;
#X obj 493 231 s \$0-size;
#X msg 493 208 2;
#X obj 660 230 s \$0-size;
#X msg 660 207 3;
#X obj 804 230 s \$0-size;
#X msg 804 207 4;
#X obj 969 221 s \$0-size;
#X msg 969 198 5;
#X obj 620 -268 r \$0-tgl;
#X obj 567 -289 spigot;
#X obj 122 -44 < 0.05;
#X obj 275 -54 < 0.05;
#X obj 428 -40 < 0.05;
#X obj 582 -34 < 0.05;
#X obj 740 -35 < 0.05;
#X obj 896 -29 < 0.05;
#X obj 122 154 del 200;
#X obj 275 144 del 200;
#X obj 426 158 del 200;
#X obj 582 164 del 200;
#X obj 740 163 del 200;
#X obj 896 169 del 200;
#X obj 140 236 pack f f;
#X obj 182 261 r \$0-dd;
#X obj 284 264 s all;
#X obj 284 241 pack f f;
#X obj 326 266 r \$0-dd;
#X obj 436 266 s all;
#X obj 436 243 pack f f;
#X obj 478 268 r \$0-dd;
#X obj 599 259 s all;
#X obj 599 236 pack f f;
#X obj 641 261 r \$0-dd;
#X obj 748 260 s all;
#X obj 748 237 pack f f;
#X obj 790 262 r \$0-dd;
#X obj 903 258 s all;
#X obj 903 235 pack f f;
#X obj 945 260 r \$0-dd;
#X connect 0 0 1 0;
#X connect 1 0 115 0;
#X connect 2 0 8 0;
#X connect 3 0 4 0;
#X connect 4 0 5 0;
#X connect 5 0 121 0;
#X connect 5 1 87 0;
#X connect 5 2 6 0;
#X connect 6 0 3 1;
#X connect 7 0 3 1;
#X connect 8 0 11 0;
#X connect 9 0 10 0;
#X connect 10 0 94 0;
#X connect 10 1 12 0;
#X connect 11 0 3 0;
#X connect 12 0 13 0;
#X connect 13 0 11 1;
#X connect 14 0 15 0;
#X connect 15 0 116 0;
#X connect 16 0 22 0;
#X connect 17 0 18 0;
#X connect 18 0 19 0;
#X connect 19 0 122 0;
#X connect 19 1 89 0;
#X connect 19 2 20 0;
#X connect 20 0 17 1;
#X connect 21 0 17 1;
#X connect 22 0 24 0;
#X connect 23 0 95 0;
#X connect 23 1 25 0;
#X connect 24 0 17 0;
#X connect 25 0 26 0;
#X connect 26 0 24 1;
#X connect 27 0 23 0;
#X connect 28 0 29 0;
#X connect 29 0 117 0;
#X connect 30 0 36 0;
#X connect 31 0 32 0;
#X connect 32 0 33 0;
#X connect 33 0 123 0;
#X connect 33 1 90 0;
#X connect 33 2 34 0;
#X connect 34 0 31 1;
#X connect 35 0 31 1;
#X connect 36 0 38 0;
#X connect 37 0 96 0;
#X connect 37 1 39 0;
#X connect 38 0 31 0;
#X connect 39 0 40 0;
#X connect 40 0 38 1;
#X connect 41 0 37 0;
#X connect 42 0 43 0;
#X connect 43 0 118 0;
#X connect 44 0 50 0;
#X connect 45 0 46 0;
#X connect 46 0 47 0;
#X connect 47 0 124 0;
#X connect 47 1 91 0;
#X connect 47 2 48 0;
#X connect 48 0 45 1;
#X connect 49 0 45 1;
#X connect 50 0 52 0;
#X connect 51 0 97 0;
#X connect 51 1 53 0;
#X connect 52 0 45 0;
#X connect 53 0 54 0;
#X connect 54 0 52 1;
#X connect 55 0 51 0;
#X connect 56 0 57 0;
#X connect 57 0 119 0;
#X connect 58 0 64 0;
#X connect 59 0 60 0;
#X connect 60 0 61 0;
#X connect 61 0 125 0;
#X connect 61 1 92 0;
#X connect 61 2 62 0;
#X connect 62 0 59 1;
#X connect 63 0 59 1;
#X connect 64 0 66 0;
#X connect 65 0 98 0;
#X connect 65 1 67 0;
#X connect 66 0 59 0;
#X connect 67 0 68 0;
#X connect 68 0 66 1;
#X connect 69 0 70 0;
#X connect 70 0 120 0;
#X connect 71 0 77 0;
#X connect 72 0 73 0;
#X connect 73 0 74 0;
#X connect 74 0 126 0;
#X connect 74 1 93 0;
#X connect 74 2 75 0;
#X connect 75 0 72 1;
#X connect 76 0 72 1;
#X connect 77 0 79 0;
#X connect 78 0 99 0;
#X connect 78 1 80 0;
#X connect 79 0 72 0;
#X connect 80 0 81 0;
#X connect 81 0 79 1;
#X connect 82 0 65 0;
#X connect 83 0 78 0;
#X connect 84 0 114 0;
#X connect 85 0 88 0;
#X connect 85 1 100 0;
#X connect 87 0 101 0;
#X connect 87 0 127 0;
#X connect 88 0 0 0;
#X connect 88 0 14 0;
#X connect 88 0 28 0;
#X connect 88 0 42 0;
#X connect 88 0 56 0;
#X connect 88 0 69 0;
#X connect 89 0 104 0;
#X connect 89 0 130 0;
#X connect 90 0 106 0;
#X connect 90 0 133 0;
#X connect 91 0 108 0;
#X connect 91 0 136 0;
#X connect 92 0 110 0;
#X connect 92 0 139 0;
#X connect 93 0 112 0;
#X connect 93 0 142 0;
#X connect 94 0 0 1;
#X connect 95 0 14 1;
#X connect 96 0 28 1;
#X connect 97 0 42 1;
#X connect 98 0 56 1;
#X connect 99 0 69 1;
#X connect 100 0 87 1;
#X connect 100 0 89 1;
#X connect 100 0 90 1;
#X connect 100 0 91 1;
#X connect 100 0 92 1;
#X connect 100 0 93 1;
#X connect 101 0 102 0;
#X connect 104 0 103 0;
#X connect 106 0 105 0;
#X connect 108 0 107 0;
#X connect 110 0 109 0;
#X connect 112 0 111 0;
#X connect 113 0 114 1;
#X connect 114 0 85 0;
#X connect 115 0 2 0;
#X connect 116 0 16 0;
#X connect 117 0 30 0;
#X connect 118 0 44 0;
#X connect 119 0 58 0;
#X connect 120 0 71 0;
#X connect 121 0 7 0;
#X connect 122 0 21 0;
#X connect 123 0 35 0;
#X connect 124 0 49 0;
#X connect 125 0 63 0;
#X connect 126 0 76 0;
#X connect 127 0 86 0;
#X connect 128 0 127 1;
#X connect 130 0 129 0;
#X connect 131 0 130 1;
#X connect 133 0 132 0;
#X connect 134 0 133 1;
#X connect 136 0 135 0;
#X connect 137 0 136 1;
#X connect 139 0 138 0;
#X connect 140 0 139 1;
#X connect 142 0 141 0;
#X connect 143 0 142 1;
#X restore -96 128 pd sound;
#X obj 268 342 moses 4;
#X msg 307 364 4;
#X obj 349 347 expr 84-(($f1/4)*36);
#X obj 21 296 colorRGB 1 1 1 0.4;
#X obj 21 318 alpha 1;
#X obj -111 393 color 1 1 1;
#X obj -112 283 color 1 1 1;
#X connect 0 0 41 0;
#X connect 1 0 2 0;
#X connect 1 1 2 1;
#X connect 1 2 3 0;
#X connect 1 3 3 1;
#X connect 2 0 13 0;
#X connect 3 0 14 0;
#X connect 4 0 0 0;
#X connect 5 0 8 0;
#X connect 5 0 19 0;
#X connect 5 0 16 0;
#X connect 5 0 24 0;
#X connect 6 0 7 0;
#X connect 7 0 5 0;
#X connect 8 0 58 0;
#X connect 9 0 5 0;
#X connect 10 0 11 0;
#X connect 13 0 12 1;
#X connect 13 0 18 2;
#X connect 14 0 12 2;
#X connect 14 0 21 2;
#X connect 16 0 61 0;
#X connect 18 0 17 0;
#X connect 19 0 60 0;
#X connect 21 0 20 0;
#X connect 22 0 33 0;
#X connect 23 0 5 0;
#X connect 25 0 40 0;
#X connect 25 1 35 0;
#X connect 25 2 36 0;
#X connect 25 3 37 0;
#X connect 25 4 38 0;
#X connect 25 5 39 0;
#X connect 27 0 26 0;
#X connect 28 0 51 0;
#X connect 29 0 53 0;
#X connect 30 0 50 0;
#X connect 31 0 52 0;
#X connect 32 0 54 0;
#X connect 33 0 25 0;
#X connect 34 0 33 1;
#X connect 41 0 1 0;
#X connect 41 1 15 0;
#X connect 41 2 10 0;
#X connect 42 0 15 0;
#X connect 43 0 42 0;
#X connect 44 0 55 0;
#X connect 45 0 47 0;
#X connect 46 0 57 0;
#X connect 47 0 49 0;
#X connect 48 0 44 0;
#X connect 55 0 46 0;
#X connect 55 1 56 0;
#X connect 56 0 46 0;
#X connect 57 0 45 0;
#X connect 58 0 59 0;
#X connect 59 0 12 0;
#X connect 60 0 21 0;
#X connect 61 0 18 0;
