#N canvas 0 22 330 348 10;
#X obj 73 239 translateXYZ 0 0 0;
#X obj 166 174 == 2;
#X obj 73 213 gemhead 2000;
#X obj 115 125 intersect;
#X obj 73 289 circle 0.03;
#X obj 73 265 color 1 0 0;
#X obj 50 162 loadbang;
#X msg 50 184 0;
#X obj 166 97 r line_\$1;
#X obj 73 106 tgl 15 0 empty empty empty 17 7 0 10 -262144 -1 -1 0
1;
#X obj 73 132 *;
#X obj 88 75 r \$0-tgl;
#X obj 115 101 inlet;
#X connect 0 0 5 0;
#X connect 1 0 9 0;
#X connect 2 0 0 0;
#X connect 3 0 0 2;
#X connect 3 1 0 1;
#X connect 3 2 1 0;
#X connect 5 0 4 0;
#X connect 6 0 7 0;
#X connect 7 0 2 0;
#X connect 8 0 3 1;
#X connect 9 0 10 0;
#X connect 10 0 2 0;
#X connect 11 0 10 1;
#X connect 12 0 3 0;
