#N canvas 400 419 450 300 10;
#X obj 212 -15 inlet;
#X obj 142 101 osc~ 300;
#X obj 142 141 *~;
#X obj 142 167 throw~ allsound;
#X obj 211 69 + 0.2;
#X obj 210 115 vline~;
#X msg 210 93 \$1 10 \, 0 100 15;
#X obj 183 12 t f b;
#X obj 151 52 mtof;
#X floatatom 151 71 5 0 0 0 - - -;
#X obj 210 42 randomF 0.1;
#X connect 0 0 7 0;
#X connect 1 0 2 0;
#X connect 2 0 3 0;
#X connect 4 0 6 0;
#X connect 5 0 2 1;
#X connect 6 0 5 0;
#X connect 7 0 8 0;
#X connect 7 1 10 0;
#X connect 8 0 9 0;
#X connect 9 0 1 0;
#X connect 10 0 4 0;
