#N canvas 395 367 450 300 10;
#X obj 185 -30 inlet;
#X obj 142 141 *~;
#X obj 241 110 line~;
#X obj 142 167 throw~ allsound;
#X obj 142 101 phasor~ 600;
#X msg 241 86 \$1 \, 0 100;
#X obj 182 -5 t f b;
#X obj 147 53 mtof;
#X floatatom 147 72 5 0 0 0 - - -;
#X obj 246 64 + 0.1;
#X obj 246 42 randomF 0.05;
#X connect 0 0 6 0;
#X connect 1 0 3 0;
#X connect 2 0 1 1;
#X connect 4 0 1 0;
#X connect 5 0 2 0;
#X connect 6 0 7 0;
#X connect 6 1 10 0;
#X connect 7 0 8 0;
#X connect 8 0 4 0;
#X connect 9 0 5 0;
#X connect 10 0 9 0;
