#N canvas 269 278 450 300 10;
#X obj 210 23 inlet;
#X obj 142 141 *~;
#X obj 209 111 line~;
#X obj 142 167 throw~ allsound;
#X obj 121 75 noise~;
#X msg 209 87 \$1 \, 0 200;
#X obj 128 26 random 5;
#X obj 121 97 bp~ 1000 2;
#X obj 128 48 + 1000;
#X obj 210 66 + 0.2;
#X obj 210 44 randomF 0.1;
#X connect 0 0 6 0;
#X connect 0 0 10 0;
#X connect 1 0 3 0;
#X connect 2 0 1 1;
#X connect 4 0 7 0;
#X connect 5 0 2 0;
#X connect 6 0 8 0;
#X connect 7 0 1 0;
#X connect 8 0 7 1;
#X connect 9 0 5 0;
#X connect 10 0 9 0;
