#N canvas 354 43 1127 740 10;
#X obj 1 218 pix_texture;
#X obj 1 295 alpha;
#X obj 1 191 color 0 0 0;
#X obj 1 244 translateXYZ;
#X obj 1 267 rotateXYZ;
#X obj 1 321 square 0.15;
#X obj 600 109 s line\$1;
#X obj 583 55 route \$1;
#X obj 583 25 r addline;
#X obj 583 131 unpack f f f f;
#X obj 186 -43 translateXYZ;
#X obj 186 -121 tgl 15 0 empty empty empty 17 7 0 10 -262144 -1 -1
1 1;
#X obj 186 -146 r allclose;
#X msg 643 28 1;
#X obj 1 137 separator;
#X obj 458 80 separator;
#X obj 458 302 curve 2;
#X obj 507 206 loadbang;
#X obj 458 238 t a b;
#X msg 477 272 0 0 0;
#N canvas 886 432 432 293 angle 0;
#X obj 45 75 expr $f1-$f2;
#X obj 264 75 expr $f1-$f2;
#X obj 45 153 outlet;
#X obj 45 -3 inlet;
#X obj 45 43 unpack f f f f;
#X obj 45 102 expr atan2($f1 \, $f2)*-1*180/3.1415926;
#X msg 45 19 \$3 \$4 \$1 \$2;
#X obj 45 126 + 180;
#X connect 0 0 5 0;
#X connect 1 0 5 1;
#X connect 3 0 6 0;
#X connect 4 0 0 0;
#X connect 4 1 1 0;
#X connect 4 2 0 1;
#X connect 4 3 1 1;
#X connect 5 0 7 0;
#X connect 6 0 4 0;
#X connect 7 0 2 0;
#X restore 661 86 pd angle;
#X obj 583 85 t a a b a;
#X obj 285 -145 r \$0-x;
#X obj 361 -140 r \$0-y;
#X obj 312 -66 line;
#X msg 312 -94 \$1 0;
#X obj 347 -65 line;
#X msg 347 -91 \$1 0;
#X msg 285 -122 \$1 500;
#X msg 361 -114 \$1 500;
#X obj 583 194 distance2d;
#X obj 583 164 pack f f;
#X obj 653 165 pack f f;
#X floatatom 545 78 5 0 0 0 - - -;
#X msg 507 232 draw point;
#X msg 538 420 res \$1;
#X obj 538 395 int;
#X floatatom 538 316 5 0 0 0 - - -;
#X floatatom 538 366 5 0 0 0 - - -;
#X obj 538 341 k_range 0.1 10 10 150;
#X obj 129 -181 loadbang;
#X msg 129 -159 0;
#X obj 458 104 rotateXYZ 0 0 0;
#X obj 458 212 alpha;
#X obj 186 -67 gemhead 100;
#X obj 115 217 pix_texture;
#X obj 115 318 alpha;
#X obj 115 190 color 0 0 0;
#X obj 115 268 translateXYZ;
#X obj 115 344 square 0.15;
#X obj 115 136 separator;
#X obj 186 70 unpack f f f;
#X obj 115 242 rotateXYZ 0 0 0;
#X obj 643 53 s \$0-open;
#X obj 203 -173 r \$0-open;
#X obj -74 -111 r hid;
#X obj -74 -86 route key_30 key_31 key_32;
#X obj 17 48 f;
#X obj 17 14 sel 1;
#X msg -74 -30 1;
#X msg -23 -31 2;
#X msg 28 -34 3;
#X obj -74 -57 sel 1;
#X obj -23 -60 sel 1;
#X obj 28 -59 sel 1;
#X msg 17 88 open s\$1.png;
#X obj 2 162 pix_image;
#X obj 115 161 pix_image;
#X floatatom 71 299 5 0 0 0 - - -;
#X obj 115 289 rotateXYZ 0 0 -90;
#X obj 71 277 - 270;
#X obj -64 73 sel 1 2 3;
#X msg -65 129 0 1 0;
#X obj -68 183 t a;
#X obj 257 175 separator;
#X obj 257 250 rotateXYZ 0 0 0;
#X obj 257 452 translateXYZ 0 0.4 0;
#X obj 257 305 t a b;
#X obj 299 306 f;
#X obj 331 306 + 1;
#X obj 257 353 separator;
#X obj 299 328 + 1;
#X obj 320 373 * 0.4;
#X obj 257 400 spigot;
#X obj 320 396 t f f;
#X obj 320 419 < 1;
#X obj 662 265 s \$0-length;
#X obj 388 363 r \$0-length;
#X obj 388 387 - 0.1;
#X obj 257 277 repeat 14;
#X obj 363 307 % 14;
#X floatatom 583 219 5 0 0 0 - - -;
#X msg 679 291 0 \$1 0;
#X obj 594 446 pipe 100;
#X obj 594 491 line;
#X floatatom 645 220 5 0 0 0 - - -;
#X obj 583 239 t f f;
#X msg 677 358 \$1 0;
#X obj 602 319 t f f;
#X obj 645 242 t f f f;
#X msg 594 469 \$1 500;
#X obj 257 477 rectangle 0.1 0.01;
#X obj 455 -112 r time;
#X obj 186 2 t a a a a a;
#X floatatom 455 -89 5 0 0 0 - - -;
#X obj 316 7 separator;
#X obj 455 -54 fmod;
#X floatatom 455 -32 5 0 0 0 - - -;
#X obj 316 84 translateXYZ 0 0 0;
#X obj 185 -24 t a a;
#X obj 316 61 rotateXYZ 0 0 0;
#X obj 458 134 GEMglPointSize 1;
#X obj 316 107 circle 0.03;
#X obj 714 231 s mainline\$1;
#X obj 714 182 k_range -4 4 0 200;
#X obj 737 156 k_range 4 -4 0 200;
#X obj 714 204 pack f f f f;
#X obj 760 132 k_range -4 4 0 200;
#X obj 783 106 k_range 4 -4 0 200;
#X obj 758 -94 gemlist_info;
#X obj 827 -57 unpack f f f;
#X floatatom 827 -31 5 0 0 0 - - -;
#X floatatom 867 -31 5 0 0 0 - - -;
#X floatatom 903 -30 5 0 0 0 - - -;
#X obj 314 -16 t a a;
#X floatatom 313 -42 5 0 0 0 - - -;
#X floatatom 355 -42 5 0 0 0 - - -;
#X obj 827 1 pack f f 0;
#X obj 827 52 s line_click\$1;
#X obj 827 30 spigot;
#X msg 801 230 0 0 0 0;
#X obj 800 208 sel 0;
#X obj 186 -97 t f f f f;
#X msg -68 99 1 1 0;
#X obj 257 198 color 1 1 1 0.3;
#X obj 257 224 alpha 1;
#X msg -56 153 0.1 0.3 1;
#X floatatom -47 375 5 0 0 0 - - -;
#X floatatom -73 449 5 0 0 0 - - -;
#X obj -67 402 expr if(fmod(($f1/0.4) \, 1)<0.5 \, (int($f1/0.4))*0.4
\, (int($f1/0.4)+1)*0.4);
#X obj 604 390 expr if ($f1>6 \, 6 \, if(fmod(($f1/0.4) \, 1)<0.5 \,
(int($f1/0.4))*0.4 \, (int($f1/0.4)+1)*0.4));
#X obj 458 176 colorRGB 1 1 1 1;
#X obj 316 40 color 1 1 1;
#X connect 0 0 3 0;
#X connect 1 0 5 0;
#X connect 2 0 0 0;
#X connect 3 0 4 0;
#X connect 4 0 1 0;
#X connect 7 0 21 0;
#X connect 8 0 7 0;
#X connect 9 0 31 0;
#X connect 9 0 114 0;
#X connect 9 1 31 1;
#X connect 9 1 115 0;
#X connect 9 2 25 0;
#X connect 9 2 32 0;
#X connect 9 2 117 0;
#X connect 9 3 27 0;
#X connect 9 3 32 1;
#X connect 9 3 118 0;
#X connect 10 0 109 0;
#X connect 11 0 132 0;
#X connect 12 0 11 0;
#X connect 13 0 53 0;
#X connect 14 0 66 0;
#X connect 15 0 42 0;
#X connect 17 0 34 0;
#X connect 18 0 16 0;
#X connect 18 1 19 0;
#X connect 19 0 16 1;
#X connect 20 0 33 0;
#X connect 21 0 9 0;
#X connect 21 1 6 0;
#X connect 21 2 13 0;
#X connect 21 3 20 0;
#X connect 22 0 28 0;
#X connect 23 0 29 0;
#X connect 24 0 10 1;
#X connect 24 0 125 0;
#X connect 25 0 24 0;
#X connect 26 0 10 2;
#X connect 26 0 126 0;
#X connect 27 0 26 0;
#X connect 28 0 24 0;
#X connect 29 0 26 0;
#X connect 30 0 91 0;
#X connect 31 0 30 0;
#X connect 32 0 30 1;
#X connect 33 0 42 3;
#X connect 33 0 52 3;
#X connect 33 0 70 0;
#X connect 33 0 75 3;
#X connect 33 0 110 3;
#X connect 34 0 16 0;
#X connect 35 0 16 0;
#X connect 36 0 35 0;
#X connect 37 0 39 0;
#X connect 37 0 106 1;
#X connect 38 0 36 0;
#X connect 39 0 38 0;
#X connect 40 0 41 0;
#X connect 41 0 11 0;
#X connect 42 0 111 0;
#X connect 43 0 18 0;
#X connect 44 0 10 0;
#X connect 45 0 52 0;
#X connect 46 0 49 0;
#X connect 47 0 45 0;
#X connect 48 0 69 0;
#X connect 50 0 67 0;
#X connect 51 0 48 1;
#X connect 51 1 48 2;
#X connect 51 2 48 3;
#X connect 52 0 48 0;
#X connect 54 0 11 0;
#X connect 55 0 56 0;
#X connect 56 0 62 0;
#X connect 56 1 63 0;
#X connect 56 2 64 0;
#X connect 57 0 65 0;
#X connect 57 0 71 0;
#X connect 57 0 127 2;
#X connect 58 0 57 0;
#X connect 59 0 57 1;
#X connect 60 0 57 1;
#X connect 61 0 57 1;
#X connect 62 0 59 0;
#X connect 63 0 60 0;
#X connect 64 0 61 0;
#X connect 65 0 66 0;
#X connect 65 0 67 0;
#X connect 66 0 2 0;
#X connect 67 0 47 0;
#X connect 68 0 4 3;
#X connect 69 0 46 0;
#X connect 70 0 68 0;
#X connect 71 0 133 0;
#X connect 71 1 72 0;
#X connect 71 2 136 0;
#X connect 72 0 73 0;
#X connect 73 0 2 1;
#X connect 73 0 47 1;
#X connect 74 0 134 0;
#X connect 75 0 89 0;
#X connect 76 0 101 0;
#X connect 77 0 80 0;
#X connect 77 1 78 0;
#X connect 78 0 79 0;
#X connect 78 0 81 0;
#X connect 79 0 90 0;
#X connect 80 0 83 0;
#X connect 81 0 82 0;
#X connect 82 0 84 0;
#X connect 83 0 76 0;
#X connect 84 0 85 0;
#X connect 84 1 76 2;
#X connect 85 0 83 1;
#X connect 87 0 88 0;
#X connect 88 0 85 1;
#X connect 89 0 77 0;
#X connect 90 0 78 1;
#X connect 91 0 96 0;
#X connect 92 0 16 2;
#X connect 92 0 51 0;
#X connect 93 0 100 0;
#X connect 94 0 95 0;
#X connect 95 0 99 0;
#X connect 96 0 98 0;
#X connect 96 1 95 0;
#X connect 97 0 94 0;
#X connect 98 0 140 0;
#X connect 98 1 97 0;
#X connect 99 0 37 0;
#X connect 99 1 86 0;
#X connect 99 2 92 0;
#X connect 100 0 94 0;
#X connect 102 0 104 0;
#X connect 103 0 14 0;
#X connect 103 1 50 0;
#X connect 103 2 15 0;
#X connect 103 3 74 0;
#X connect 104 0 106 0;
#X connect 105 0 142 0;
#X connect 106 0 107 0;
#X connect 107 0 108 2;
#X connect 108 0 119 0;
#X connect 108 0 112 0;
#X connect 109 0 124 0;
#X connect 109 1 103 0;
#X connect 110 0 108 0;
#X connect 111 0 141 0;
#X connect 114 0 116 0;
#X connect 115 0 116 1;
#X connect 116 0 113 0;
#X connect 117 0 116 2;
#X connect 118 0 116 3;
#X connect 119 4 120 0;
#X connect 120 0 121 0;
#X connect 120 1 122 0;
#X connect 120 2 123 0;
#X connect 121 0 127 0;
#X connect 122 0 127 1;
#X connect 124 0 105 0;
#X connect 127 0 129 0;
#X connect 129 0 128 0;
#X connect 130 0 113 0;
#X connect 131 0 130 0;
#X connect 132 0 44 0;
#X connect 132 1 58 0;
#X connect 132 2 129 1;
#X connect 132 3 131 0;
#X connect 133 0 73 0;
#X connect 134 0 135 0;
#X connect 135 0 75 0;
#X connect 136 0 73 0;
#X connect 137 0 139 0;
#X connect 139 0 138 0;
#X connect 140 0 93 0;
#X connect 141 0 43 0;
#X connect 142 0 110 0;
