#N canvas 464 51 835 578 10;
#X obj 75 93 gemwin;
#X msg 75 61 destroy \, reset \, create \, FSAA 8 \, color 0.13 0.13
0.13 \, 1;
#X obj 168 230 gemhead;
#X obj 168 342 circle;
#X obj 109 179 loadbang;
#X obj 168 254 translateXYZ;
#X obj 168 279 t a a a a a a;
#X obj 43 264 loadbang;
#X msg 43 292 draw line \, width 2;
#X obj 182 381 circle 0.3;
#X obj 211 450 curve 2;
#X obj 231 405 loadbang;
#X msg 230 427 0 0 0;
#X obj 149 447 loadbang;
#X msg 149 475 draw line \, width 3;
#X msg 109 207 draw line \, width 1;
#X obj 211 304 separator;
#X obj 211 331 rotateXYZ 0 0 90;
#X msg 274 428 0.3 0 0;
#X obj 211 362 translateXYZ 0.45 0 0;
#X obj 350 457 curve 2;
#X obj 370 412 loadbang;
#X msg 369 434 0 0 0;
#X obj 288 454 loadbang;
#X msg 288 482 draw line \, width 3;
#X obj 350 311 separator;
#X msg 413 435 0.3 0 0;
#X obj 350 369 translateXYZ 0.45 0 0;
#X obj 490 467 curve 2;
#X obj 510 422 loadbang;
#X msg 509 444 0 0 0;
#X obj 428 464 loadbang;
#X msg 428 492 draw line \, width 3;
#X obj 490 321 separator;
#X msg 553 445 0.3 0 0;
#X obj 490 379 translateXYZ 0.45 0 0;
#X obj 350 338 rotateXYZ 0 0 210;
#X obj 490 348 rotateXYZ 0 0 330;
#X obj 635 418 circle;
#X obj 635 358 colorRGB 1 1 1 0.1;
#X obj 635 389 alpha;
#X connect 1 0 0 0;
#X connect 2 0 5 0;
#X connect 4 0 15 0;
#X connect 5 0 6 0;
#X connect 6 0 3 0;
#X connect 6 1 9 0;
#X connect 6 2 16 0;
#X connect 6 3 25 0;
#X connect 6 4 33 0;
#X connect 6 5 39 0;
#X connect 7 0 8 0;
#X connect 8 0 9 0;
#X connect 11 0 12 0;
#X connect 11 0 18 0;
#X connect 12 0 10 1;
#X connect 13 0 14 0;
#X connect 14 0 10 0;
#X connect 15 0 3 0;
#X connect 16 0 17 0;
#X connect 17 0 19 0;
#X connect 18 0 10 2;
#X connect 19 0 10 0;
#X connect 21 0 22 0;
#X connect 21 0 26 0;
#X connect 22 0 20 1;
#X connect 23 0 24 0;
#X connect 24 0 20 0;
#X connect 25 0 36 0;
#X connect 26 0 20 2;
#X connect 27 0 20 0;
#X connect 29 0 30 0;
#X connect 29 0 34 0;
#X connect 30 0 28 1;
#X connect 31 0 32 0;
#X connect 32 0 28 0;
#X connect 33 0 37 0;
#X connect 34 0 28 2;
#X connect 35 0 28 0;
#X connect 36 0 27 0;
#X connect 37 0 35 0;
#X connect 39 0 40 0;
#X connect 40 0 38 0;
