#N canvas 551 66 865 666 10;
#X obj 166 378 curve 2;
#X obj 195 319 loadbang;
#X obj 283 -34 gemmouse 1 1;
#X obj 283 -9 expr ($f1*8)-4;
#X obj 303 14 expr ($f1*-8)+4;
#X obj 250 241 pack f f 0;
#X obj 4 243 t a b;
#X msg 36 265 snap;
#X obj 4 314 t a b;
#X obj 31 336 f;
#X obj 60 336 + 1;
#X obj 4 366 pix_buffer_write now;
#X obj 4 210 t a a;
#X obj 4 287 pix_snap 0 0 500 500;
#X obj 124 208 spigot;
#X obj 163 184 tgl 15 0 empty empty empty 17 7 0 10 -262144 -1 -1 0
1;
#X obj 4 187 gemhead 20;
#X obj 433 170 square 4;
#X obj 433 99 gemhead 15;
#X obj 433 121 color 0 0 0;
#X obj 273 302 distance_n;
#X floatatom 273 424 5 0 0 0 - - -, f 5;
#X obj 433 143 spigot 1;
#X obj 486 71 tgl 15 0 empty empty empty 17 7 0 10 -262144 -1 -1 0
1;
#X msg 195 343 draw line;
#X obj 392 277 pack f f 0;
#X obj 315 79 v \$0-x;
#X obj 303 35 v \$0-y;
#X obj 283 106 s \$0-bang;
#X obj 252 145 r \$0-bang;
#X obj 252 192 v \$0-x;
#X obj 286 216 v \$0-y;
#X obj 341 202 v \$0-x;
#X obj 399 203 v \$0-y;
#X obj 401 227 v \$0-ty;
#X obj 342 224 v \$0-tx;
#X obj 252 167 t b b b b b b;
#X obj 451 252 v \$0-ty;
#X obj 392 249 v \$0-tx;
#X obj 273 370 int;
#X msg 185 294 width \$1;
#X obj 124 230 t a a a;
#X obj 440 460 GEMglBegin;
#X obj 440 557 GEMglEnd;
#X obj 440 487 GEMglVertex3f -1 -1 0;
#X obj 440 524 GEMglVertex3f 1 -1 0;
#X msg 590 420 GL_POINTS;
#X obj 590 395 loadbang;
#X obj 488 392 unpack f f f;
#X obj 250 263 t a a a;
#X obj 459 361 unpack f f f;
#X obj 392 299 t a a a;
#X obj 440 429 GEMglPointSize;
#X obj 273 326 * 10;
#X obj 486 3 sel 1;
#X obj 486 25 once;
#X msg 486 47 0;
#X obj 283 57 t b f;
#X obj 608 79 gemkeyboard;
#X floatatom 608 103 5 0 0 0 - - -, f 5;
#X obj 608 122 sel 49;
#N canvas 314 99 930 683 slider 1;
#X obj 63 127 pix_buffer_read now;
#X obj 63 69 t a b;
#X obj 170 85 f;
#X obj 201 85 + 1;
#X obj 63 156 pix_texture;
#X obj 63 197 square 4;
#X obj 143 516 scale 1;
#X obj 143 538 color 0.3 0.3 0.3;
#X obj 143 566 rectangle 3 0.05;
#X obj 143 472 gemhead 30;
#X obj 143 397 scale 1;
#X obj 143 447 rectangle 3 0.05;
#X obj 143 419 color 1 1 1;
#X obj 143 353 gemhead 35;
#X floatatom 208 241 5 0 0 0 - - -, f 5;
#X floatatom 208 310 5 0 0 0 - - -, f 5;
#X obj 208 289 k_range 0 3 -3 0;
#X floatatom 208 198 5 0 0 0 - - -, f 5;
#X obj 208 217 * 3;
#X obj 208 260 t f f;
#X obj 63 36 gemhead 15;
#X obj 235 85 % 60;
#X obj 208 176 / 60;
#X obj 170 107 t f f f;
#X obj 216 133 s frame;
#X obj 341 308 gemhead 40;
#X obj 341 339 pix_buffer_read now;
#X obj 471 310 r frame;
#X obj 324 366 pix_data;
#X obj 351 241 k_range -4 4 0 1;
#X obj 303 52 gemhead 35;
#X obj 350 124 f;
#X obj 382 123 + 1;
#X obj 350 189 tabread tx;
#X obj 382 208 tabread ty;
#X obj 303 124 t b b;
#X floatatom 377 389 5 0 0 0 - - -, f 5;
#X obj 377 435 pack f f;
#X obj 350 167 t f f f;
#X obj 377 267 k_range 4 -4 1 0;
#X obj 377 462 unpack f f;
#X obj 377 492 tabwrite color;
#X obj 143 375 translateXYZ 0 -3.5 0;
#X obj 143 494 translateXYZ 0 -3.5 0;
#X obj 303 85 repeat 24;
#X obj 382 145 % 24;
#X obj 496 528 square 4;
#X obj 377 408 > 0.2;
#X obj 496 396 pix_image grid.png;
#X obj 496 418 pix_texture;
#X obj 496 468 colorRGB 1 1 1 1;
#X obj 657 517 square 4;
#X obj 657 489 alpha;
#X obj 657 422 gemhead 16;
#X obj 63 178 alpha;
#X obj 496 374 gemhead -1;
#X obj 496 500 alpha 1;
#X obj 657 457 colorRGB 0 0 0 0.05;
#X connect 0 0 4 0;
#X connect 1 0 0 0;
#X connect 1 1 2 0;
#X connect 2 0 3 0;
#X connect 2 0 23 0;
#X connect 3 0 21 0;
#X connect 4 0 54 0;
#X connect 6 0 7 0;
#X connect 7 0 8 0;
#X connect 9 0 43 0;
#X connect 10 0 12 0;
#X connect 12 0 11 0;
#X connect 13 0 42 0;
#X connect 14 0 19 0;
#X connect 15 0 42 1;
#X connect 16 0 15 0;
#X connect 17 0 18 0;
#X connect 18 0 14 0;
#X connect 19 0 16 0;
#X connect 19 1 11 1;
#X connect 20 0 1 0;
#X connect 21 0 2 1;
#X connect 22 0 17 0;
#X connect 23 0 22 0;
#X connect 23 1 0 1;
#X connect 23 2 24 0;
#X connect 25 0 26 0;
#X connect 26 0 28 1;
#X connect 27 0 26 1;
#X connect 28 2 36 0;
#X connect 29 0 28 2;
#X connect 30 0 44 0;
#X connect 31 0 32 0;
#X connect 31 0 38 0;
#X connect 32 0 45 0;
#X connect 33 0 29 0;
#X connect 34 0 39 0;
#X connect 35 0 28 0;
#X connect 35 1 31 0;
#X connect 36 0 47 0;
#X connect 37 0 40 0;
#X connect 38 0 33 0;
#X connect 38 1 34 0;
#X connect 38 2 37 1;
#X connect 39 0 28 3;
#X connect 40 0 41 0;
#X connect 40 1 41 1;
#X connect 42 0 10 0;
#X connect 43 0 6 0;
#X connect 44 0 35 0;
#X connect 45 0 31 1;
#X connect 47 0 37 0;
#X connect 48 0 49 0;
#X connect 49 0 50 0;
#X connect 50 0 56 0;
#X connect 52 0 51 0;
#X connect 53 0 57 0;
#X connect 54 0 5 0;
#X connect 55 0 48 0;
#X connect 56 0 46 0;
#X connect 57 0 52 0;
#X restore 4 164 pd slider & area;
#X msg 51 521 destroy \, reset \, FSAA 8 \, color 0 0 0 \, create \,
1;
#X obj 551 142 sel 0;
#X obj 551 164 s allreset;
#X obj 51 545 gemwin 30;
#X obj 91 336 % 60;
#X obj 4 394 pix_buffer now 60;
#X obj 273 348 + 5;
#X obj 273 396 split 5 15;
#X obj 8 450 catch~ all;
#X obj 8 472 dac~;
#X obj 129 546 loadbang;
#X msg 129 568 \; pd dsp 1;
#X obj 51 497 loadbang;
#X obj 90 423 table tx 24;
#X obj 90 445 table ty 24;
#X obj 91 470 table color 24;
#X obj 558 224 gemhead 45;
#X obj 558 290 circle 0.1;
#X obj 558 246 translateXYZ -3.2 -3.5 0;
#X obj 665 163 sel 0 1;
#X msg 665 185 1 0 0;
#X msg 685 207 0.3 0.3 0.3;
#X obj 558 268 color 0.3 0.3 0.3;
#X obj 208 470 clone 16 k_targetarea;
#X connect 1 0 24 0;
#X connect 2 0 3 0;
#X connect 2 1 4 0;
#X connect 2 2 15 0;
#X connect 2 2 54 0;
#X connect 3 0 57 0;
#X connect 4 0 27 0;
#X connect 5 0 49 0;
#X connect 6 0 13 0;
#X connect 6 1 7 0;
#X connect 7 0 13 0;
#X connect 8 0 11 0;
#X connect 8 1 9 0;
#X connect 9 0 10 0;
#X connect 9 0 11 1;
#X connect 10 0 66 0;
#X connect 12 0 6 0;
#X connect 12 1 14 0;
#X connect 13 0 8 0;
#X connect 14 0 41 0;
#X connect 15 0 14 1;
#X connect 16 0 12 0;
#X connect 18 0 19 0;
#X connect 19 0 22 0;
#X connect 20 0 53 0;
#X connect 21 0 40 0;
#X connect 21 0 52 1;
#X connect 22 0 17 0;
#X connect 23 0 22 1;
#X connect 23 0 63 0;
#X connect 23 0 81 0;
#X connect 24 0 0 0;
#X connect 25 0 51 0;
#X connect 29 0 36 0;
#X connect 30 0 5 0;
#X connect 31 0 5 1;
#X connect 32 0 35 0;
#X connect 33 0 34 0;
#X connect 36 0 30 0;
#X connect 36 1 31 0;
#X connect 36 2 32 0;
#X connect 36 3 33 0;
#X connect 36 4 38 0;
#X connect 36 5 37 0;
#X connect 37 0 25 1;
#X connect 38 0 25 0;
#X connect 39 0 69 0;
#X connect 40 0 0 0;
#X connect 41 0 0 0;
#X connect 41 2 52 0;
#X connect 42 0 44 0;
#X connect 44 0 45 0;
#X connect 45 0 43 0;
#X connect 46 0 42 1;
#X connect 47 0 46 0;
#X connect 48 0 44 1;
#X connect 48 1 44 2;
#X connect 48 2 44 3;
#X connect 49 0 0 1;
#X connect 49 1 20 0;
#X connect 49 2 48 0;
#X connect 50 0 45 1;
#X connect 50 1 45 2;
#X connect 50 2 45 3;
#X connect 51 0 0 2;
#X connect 51 1 20 1;
#X connect 51 2 50 0;
#X connect 52 0 42 0;
#X connect 53 0 68 0;
#X connect 54 0 55 0;
#X connect 55 0 56 0;
#X connect 56 0 23 0;
#X connect 57 0 28 0;
#X connect 57 1 26 0;
#X connect 58 0 59 0;
#X connect 59 0 60 0;
#X connect 60 0 23 0;
#X connect 62 0 65 0;
#X connect 63 0 64 0;
#X connect 66 0 9 1;
#X connect 68 0 39 0;
#X connect 69 0 21 0;
#X connect 70 0 71 0;
#X connect 70 0 71 1;
#X connect 72 0 73 0;
#X connect 74 0 62 0;
#X connect 78 0 80 0;
#X connect 80 0 84 0;
#X connect 81 0 82 0;
#X connect 81 1 83 0;
#X connect 82 0 84 1;
#X connect 83 0 84 1;
#X connect 84 0 79 0;
