#N canvas 318 125 637 626 10;
#X obj 104 218 translateXYZ;
#X obj 77 28 loadbang;
#X obj 104 86 gemhead 35;
#X obj 327 52 loadbang;
#X obj 104 243 color 1 1 1;
#X obj 395 50 r allreset;
#X msg 77 50 draw line \, width 2;
#X obj 104 304 circle 0.1;
#X floatatom 402 119 5 0 0 0 - - -, f 5;
#X obj 402 97 f \$1;
#X obj 327 77 t b b b;
#X obj 327 206 tabwrite tx;
#X obj 359 240 tabwrite ty;
#X obj 104 389 text2d;
#X msg 7 273 text \$1;
#X obj 174 447 loadbang;
#X msg 174 469 12;
#X obj 104 108 t a b;
#X obj 204 120 f \$1;
#X obj 204 146 tabread color;
#X obj 204 168 sel 1 0;
#X msg 205 192 1 0 0;
#X msg 221 215 1 1 1;
#X obj 104 326 color 1 1 1;
#X obj 359 145 randomF 6;
#X obj 359 170 - 3;
#X obj 327 111 randomF 6;
#X obj 327 136 - 3;
#X obj 361 291 change;
#X obj 6 240 + 60;
#X obj 295 375 osc~;
#X obj 295 277 mtof~;
#X obj 361 383 line~;
#X obj 295 397 *~ 0.3;
#X obj 295 495 throw~ all;
#X obj 295 464 *~;
#X obj 104 358 translateXYZ 0.3 0 0;
#X obj 473 143 sel 0 1;
#X obj 473 121 > 71.5;
#X msg 473 165 0.3;
#X msg 496 191 0.1;
#X obj 361 326 t f f;
#X obj 295 425 *~ 0;
#X obj 437 298 randomF 0.5;
#X obj 437 322 + 0.5;
#X obj 437 268 sel 1;
#X floatatom 437 344 5 0 0 0 - - -, f 5;
#X msg 361 361 \$1 100;
#X msg 219 249 \$1 100;
#X obj 219 271 line;
#X obj 219 293 * 0.1;
#X obj 219 315 + 0.1;
#X connect 0 0 4 0;
#X connect 1 0 6 0;
#X connect 2 0 17 0;
#X connect 3 0 10 0;
#X connect 4 0 7 0;
#X connect 5 0 10 0;
#X connect 6 0 7 0;
#X connect 7 0 23 0;
#X connect 8 0 11 1;
#X connect 8 0 12 1;
#X connect 8 0 29 0;
#X connect 9 0 8 0;
#X connect 10 0 26 0;
#X connect 10 1 24 0;
#X connect 10 2 9 0;
#X connect 14 0 13 0;
#X connect 15 0 16 0;
#X connect 16 0 13 1;
#X connect 17 0 0 0;
#X connect 17 1 18 0;
#X connect 18 0 19 0;
#X connect 19 0 20 0;
#X connect 19 0 28 0;
#X connect 19 0 48 0;
#X connect 20 0 21 0;
#X connect 20 1 22 0;
#X connect 21 0 4 1;
#X connect 22 0 4 1;
#X connect 23 0 36 0;
#X connect 24 0 25 0;
#X connect 25 0 0 2;
#X connect 25 0 12 0;
#X connect 26 0 27 0;
#X connect 27 0 0 1;
#X connect 27 0 11 0;
#X connect 28 0 41 0;
#X connect 29 0 14 0;
#X connect 29 0 31 0;
#X connect 29 0 38 0;
#X connect 30 0 33 0;
#X connect 31 0 30 0;
#X connect 32 0 35 1;
#X connect 33 0 42 0;
#X connect 35 0 34 0;
#X connect 36 0 13 0;
#X connect 37 0 39 0;
#X connect 37 1 40 0;
#X connect 38 0 37 0;
#X connect 39 0 33 1;
#X connect 40 0 33 1;
#X connect 41 0 47 0;
#X connect 41 1 45 0;
#X connect 42 0 35 0;
#X connect 43 0 44 0;
#X connect 44 0 46 0;
#X connect 45 0 43 0;
#X connect 46 0 42 1;
#X connect 47 0 32 0;
#X connect 48 0 49 0;
#X connect 49 0 50 0;
#X connect 50 0 51 0;
#X connect 51 0 7 1;
