#N canvas 635 117 609 569 10;
#X obj -133 58 gemwin;
#X obj -136 176 table a1 200;
#X obj -136 153 table a0 200;
#X obj -136 199 table a2 200;
#X obj -136 222 table a3 200;
#X obj -136 244 table a4 200;
#X obj -135 87 loadbang;
#X msg -135 114 \; pd dsp 1;
#X obj -169 -47 loadbang;
#X obj -169 -26 bng 15 250 50 0 empty empty empty 17 7 0 10 -262144
-1 -1;
#N canvas 608 22 684 753 sound 1;
#X obj 151 201 osc~;
#X floatatom 151 78 5 0 0 0 - - -;
#X obj 151 172 t f f f f;
#X obj 263 208 * 3;
#X obj 361 372 osc~;
#X obj 361 347 * 5;
#X obj 263 233 osc~;
#X obj 361 397 *~ 0.2;
#X obj 503 416 osc~;
#X obj 503 391 * 7;
#X obj 262 300 tabwrite~ a1;
#X obj 79 60 gemhead;
#X obj 131 138 s go;
#X obj 361 474 tabwrite~ a2;
#X obj 503 471 tabwrite~ a3;
#X obj 263 261 *~ -0.33;
#X obj 503 441 *~ -0.1428;
#X obj 153 305 *~ 1;
#X obj 14 434 tabwrite~ a4;
#X obj 118 367 tabwrite~ a0;
#X obj 320 436 r go;
#X obj 79 139 t b b;
#X msg 284 104 0.5;
#X obj 79 85 t b;
#X obj 151 47 inlet;
#X obj 151 106 t f b b;
#X obj 108 175 r a1;
#X obj 174 225 r a1_1;
#X obj 138 237 *~ 1;
#X msg 234 60 -0.33;
#X msg 308 69 0.2;
#X msg 368 79 -0.1428;
#X msg 194 138 1;
#X obj 248 162 r a2;
#X obj 314 212 r a2_1;
#X obj 317 235 * -1;
#X obj 561 403 * -1;
#X obj 492 330 r a4;
#X obj 558 380 r a4_1;
#X obj 385 329 r a3;
#X obj 412 363 r a3_1;
#X obj 105 559 unpack;
#X floatatom 285 573 0 0 0 0 minimum - -;
#X obj 174 562 unpack;
#X floatatom 174 588 0 0 0 0 maximum - -;
#X obj 105 535 tabminmax a0;
#X obj 174 651 s a0_1;
#X obj 174 614 expr abs($f1-$f2)/2;
#X obj 105 479 f;
#X obj 133 479 + 1;
#X obj 105 512 sel 0;
#X obj 164 479 % 5;
#X obj 206 377 dac~;
#X connect 0 0 28 0;
#X connect 1 0 25 0;
#X connect 2 0 0 0;
#X connect 2 1 3 0;
#X connect 2 2 5 0;
#X connect 2 3 9 0;
#X connect 3 0 6 0;
#X connect 4 0 7 0;
#X connect 5 0 4 0;
#X connect 6 0 15 0;
#X connect 7 0 13 0;
#X connect 7 0 17 0;
#X connect 8 0 16 0;
#X connect 9 0 8 0;
#X connect 11 0 23 0;
#X connect 15 0 10 0;
#X connect 15 0 17 0;
#X connect 16 0 14 0;
#X connect 16 0 17 0;
#X connect 17 0 18 0;
#X connect 17 0 52 1;
#X connect 17 0 52 0;
#X connect 20 0 19 0;
#X connect 20 0 10 0;
#X connect 20 0 13 0;
#X connect 20 0 14 0;
#X connect 20 0 18 0;
#X connect 21 0 48 0;
#X connect 21 1 12 0;
#X connect 22 0 0 1;
#X connect 22 0 6 1;
#X connect 22 0 4 1;
#X connect 22 0 8 1;
#X connect 23 0 21 0;
#X connect 24 0 1 0;
#X connect 25 0 2 0;
#X connect 25 1 22 0;
#X connect 25 2 29 0;
#X connect 25 2 30 0;
#X connect 25 2 31 0;
#X connect 25 2 32 0;
#X connect 26 0 0 0;
#X connect 27 0 28 1;
#X connect 28 0 17 0;
#X connect 28 0 19 0;
#X connect 29 0 15 1;
#X connect 30 0 7 1;
#X connect 31 0 16 1;
#X connect 32 0 28 1;
#X connect 33 0 6 0;
#X connect 34 0 35 0;
#X connect 35 0 15 1;
#X connect 36 0 16 1;
#X connect 37 0 8 0;
#X connect 38 0 36 0;
#X connect 39 0 4 0;
#X connect 40 0 7 1;
#X connect 41 0 42 0;
#X connect 42 0 47 1;
#X connect 43 0 44 0;
#X connect 44 0 47 0;
#X connect 45 0 41 0;
#X connect 45 1 43 0;
#X connect 47 0 46 0;
#X connect 48 0 49 0;
#X connect 48 0 50 0;
#X connect 49 0 51 0;
#X connect 50 0 45 0;
#X connect 51 0 48 1;
#X restore -329 355 pd sound;
#N canvas 515 344 532 342 unit 0;
#X obj 72 59 loadbang;
#X obj 71 187 loadbang;
#X obj 32 267 vj_unit;
#X msg 72 107 start -1.5 -1.5 1 \, end 1.5 -1.5 1 \, \, num 5 \, range
0 200;
#X msg 71 235 start -1.5 -1.5 1 \, end -1.5 1.5 1 \, \, num 5 \, range
-2 2;
#X obj 33 139 vj_unit;
#X obj 33 36 gemhead 20;
#X obj 32 164 gemhead 20;
#X obj 33 81 color 0.33 0.27 0.41;
#X obj 32 209 color 0.33 0.27 0.41;
#X connect 0 0 3 0;
#X connect 1 0 4 0;
#X connect 3 0 5 1;
#X connect 4 0 2 1;
#X connect 6 0 8 0;
#X connect 7 0 9 0;
#X connect 8 0 5 0;
#X connect 9 0 2 0;
#X restore -136 318 pd unit;
#X obj -45 200 gemhead;
#X obj -45 311 rotateXYZ 0 90 0;
#X obj 30 216 loadbang;
#X obj -45 343 vj_form 1 3 3;
#X obj -45 286 translateXYZ -1.9 0 -0.5;
#X msg 30 238 range 0 1.5;
#N canvas 222 605 1104 525 wave 0;
#X obj -87 185 GEMglEnd;
#X obj -36 154 GEMglBegin;
#X obj -87 154 t a a a;
#X obj -68 406 GEMglVertex3f 0 0 0;
#X obj -68 242 t a b;
#X obj -41 265 f;
#X obj -10 265 + 1;
#X obj -68 209 repeat 200;
#X obj 20 265 % 200;
#X obj -41 293 t f f;
#X obj -41 317 expr ($f1/200);
#X obj -86 51 t a b b;
#X obj 61 79 once;
#X obj 118 199 GEMglEnd;
#X obj 169 168 GEMglBegin;
#X obj 118 168 t a a a;
#X obj 137 420 GEMglVertex3f 0 0 0;
#X obj 137 256 t a b;
#X obj 164 279 f;
#X obj 195 279 + 1;
#X obj 137 223 repeat 200;
#X obj 225 279 % 200;
#X obj 164 307 t f f;
#X obj 164 331 expr ($f1/200);
#X obj 121 53 t a b b;
#X obj 263 118 once;
#X obj 357 204 GEMglEnd;
#X obj 408 173 GEMglBegin;
#X obj 360 183 t a a a;
#X obj 376 425 GEMglVertex3f 0 0 0;
#X obj 376 261 t a b;
#X obj 403 284 f;
#X obj 434 284 + 1;
#X obj 376 228 repeat 200;
#X obj 464 284 % 200;
#X obj 403 312 t f f;
#X obj 403 336 expr ($f1/200);
#X obj 346 36 t a b b;
#X obj 482 116 once;
#X obj 562 218 GEMglEnd;
#X obj 613 187 GEMglBegin;
#X obj 562 187 t a a a;
#X obj 581 439 GEMglVertex3f 0 0 0;
#X obj 581 275 t a b;
#X obj 608 298 f;
#X obj 639 298 + 1;
#X obj 581 242 repeat 200;
#X obj 669 298 % 200;
#X obj 608 326 t f f;
#X obj 608 350 expr ($f1/200);
#X obj 562 52 t a b b;
#X obj 682 130 once;
#X obj 280 325 tabread a1;
#X obj 519 330 tabread a2;
#X obj 724 344 tabread a3;
#X obj -303 177 GEMglEnd;
#X obj -252 146 GEMglBegin;
#X obj -303 146 t a a a;
#X obj -284 398 GEMglVertex3f 0 0 0;
#X obj -284 234 t a b;
#X obj -257 257 f;
#X obj -226 257 + 1;
#X obj -284 201 repeat 200;
#X obj -196 257 % 200;
#X obj -257 285 t f f;
#X obj -257 309 expr ($f1/200);
#X obj -302 43 t a b b;
#X obj -155 91 once;
#X obj 75 311 tabread a0;
#X obj -141 303 tabread a4;
#X obj -302 17 gemhead 20;
#X obj -86 26 gemhead 20;
#X obj 121 28 gemhead 20;
#X obj 346 11 gemhead 20;
#X obj 562 27 gemhead 20;
#X obj -257 332 k_range 0 1 -1.5 1.5;
#X obj -41 340 k_range 0 1 -1.5 1.5;
#X obj 164 355 k_range 0 1 -1.5 1.5;
#X obj 403 360 k_range 0 1 -1.5 1.5;
#X obj 608 374 k_range 0 1 -1.5 1.5;
#X floatatom -190 42 5 0 0 0 - - -;
#X obj -300 91 translateXYZ 0 0 0.41;
#X obj -92 93 translateXYZ 0 0 -0.18;
#X obj 118 112 translateXYZ 0 0 -0.8;
#X floatatom 425 30 5 0 0 0 - - -;
#X obj 561 85 translateXYZ 0 0 -2;
#X obj 341 105 translateXYZ 0 0 -1.43;
#X msg -155 121 0;
#X msg 61 109 0;
#X msg 263 148 0;
#X msg 482 146 0;
#X msg 682 160 0;
#X obj -303 121 GEMglPointSize 3;
#X obj -302 68 color 1 1 1;
#X obj -92 73 GEMglPointSize 2;
#X obj 118 79 GEMglPointSize 2;
#X obj 343 82 GEMglPointSize 2;
#X obj 561 111 GEMglPointSize 2;
#X obj 562 159 color 1 0.49 0.45;
#X obj -94 124 color 1 0.24 0.37;
#X obj 118 140 color 0.4 0.56 1;
#X obj 344 127 color 0 0.93 0.58;
#X obj -170 356 k_event -1.5 1.5;
#X connect 2 0 0 0;
#X connect 2 1 7 0;
#X connect 2 2 1 0;
#X connect 4 0 3 0;
#X connect 4 1 5 0;
#X connect 5 0 6 0;
#X connect 5 0 9 0;
#X connect 6 0 8 0;
#X connect 7 0 4 0;
#X connect 8 0 5 1;
#X connect 9 0 10 0;
#X connect 9 1 68 0;
#X connect 10 0 76 0;
#X connect 11 0 94 0;
#X connect 11 2 12 0;
#X connect 12 0 88 0;
#X connect 15 0 13 0;
#X connect 15 1 20 0;
#X connect 15 2 14 0;
#X connect 17 0 16 0;
#X connect 17 1 18 0;
#X connect 18 0 19 0;
#X connect 18 0 22 0;
#X connect 19 0 21 0;
#X connect 20 0 17 0;
#X connect 21 0 18 1;
#X connect 22 0 23 0;
#X connect 22 1 52 0;
#X connect 23 0 77 0;
#X connect 24 0 95 0;
#X connect 24 2 25 0;
#X connect 25 0 89 0;
#X connect 28 0 26 0;
#X connect 28 1 33 0;
#X connect 28 2 27 0;
#X connect 30 0 29 0;
#X connect 30 1 31 0;
#X connect 31 0 32 0;
#X connect 31 0 35 0;
#X connect 32 0 34 0;
#X connect 33 0 30 0;
#X connect 34 0 31 1;
#X connect 35 0 36 0;
#X connect 35 1 53 0;
#X connect 36 0 78 0;
#X connect 37 0 96 0;
#X connect 37 2 38 0;
#X connect 38 0 90 0;
#X connect 41 0 39 0;
#X connect 41 1 46 0;
#X connect 41 2 40 0;
#X connect 43 0 42 0;
#X connect 43 1 44 0;
#X connect 44 0 45 0;
#X connect 44 0 48 0;
#X connect 45 0 47 0;
#X connect 46 0 43 0;
#X connect 47 0 44 1;
#X connect 48 0 49 0;
#X connect 48 1 54 0;
#X connect 49 0 79 0;
#X connect 50 0 85 0;
#X connect 50 2 51 0;
#X connect 51 0 91 0;
#X connect 52 0 16 2;
#X connect 53 0 29 2;
#X connect 54 0 42 2;
#X connect 57 0 55 0;
#X connect 57 1 62 0;
#X connect 57 2 56 0;
#X connect 59 0 58 0;
#X connect 59 1 60 0;
#X connect 60 0 61 0;
#X connect 60 0 64 0;
#X connect 61 0 63 0;
#X connect 62 0 59 0;
#X connect 63 0 60 1;
#X connect 64 0 65 0;
#X connect 64 1 69 0;
#X connect 65 0 75 0;
#X connect 66 0 93 0;
#X connect 66 2 67 0;
#X connect 67 0 87 0;
#X connect 68 0 3 2;
#X connect 69 0 102 0;
#X connect 70 0 66 0;
#X connect 71 0 11 0;
#X connect 72 0 24 0;
#X connect 73 0 37 0;
#X connect 74 0 50 0;
#X connect 75 0 58 1;
#X connect 76 0 3 1;
#X connect 77 0 16 1;
#X connect 78 0 29 1;
#X connect 79 0 42 1;
#X connect 80 0 81 3;
#X connect 81 0 92 0;
#X connect 82 0 99 0;
#X connect 83 0 100 0;
#X connect 84 0 86 3;
#X connect 85 0 97 0;
#X connect 86 0 101 0;
#X connect 87 0 56 1;
#X connect 88 0 1 1;
#X connect 89 0 14 1;
#X connect 90 0 27 1;
#X connect 91 0 40 1;
#X connect 92 0 57 0;
#X connect 93 0 81 0;
#X connect 94 0 82 0;
#X connect 95 0 83 0;
#X connect 96 0 86 0;
#X connect 97 0 98 0;
#X connect 98 0 41 0;
#X connect 99 0 2 0;
#X connect 100 0 15 0;
#X connect 101 0 28 0;
#X connect 102 0 58 2;
#X restore -137 268 pd wave;
#N canvas 787 363 673 389 outline 0;
#X msg 166 155 draw line;
#X obj 166 130 loadbang;
#X obj 240 186 square 1.5;
#X msg 362 147 draw line;
#X obj 362 122 loadbang;
#X obj 436 178 square 1.5;
#X obj 240 131 rotateXYZ 0 0 0;
#X obj 436 123 rotateXYZ 90 0 0;
#X obj 240 98 translateXYZ 0 0 1;
#X obj 436 90 translateXYZ 0 -1.5 -0.5;
#X obj 436 60 gemhead 5;
#X obj 240 65 gemhead 5;
#X obj 240 157 color 0.4 0.4 0.47;
#X obj 436 149 color 0.4 0.4 0.47;
#X obj 50 122 GEMglPointSize 1;
#X obj 50 22 gemhead 200;
#X obj -69 114 loadbang;
#X obj 50 96 rotateXYZ 90 0 0;
#X obj 50 175 mesh_square 1;
#X msg -69 151 draw line \, grid 15;
#X obj 50 148 scale 1.5;
#X obj 50 233 mesh_square 1;
#X obj 50 202 rotateXYZ 0 0 90;
#X obj 50 45 color 0.2 0.2 0.2;
#X obj 50 71 translateXYZ 0 -1.51 -0.5;
#X connect 0 0 2 0;
#X connect 1 0 0 0;
#X connect 3 0 5 0;
#X connect 4 0 3 0;
#X connect 6 0 12 0;
#X connect 7 0 13 0;
#X connect 8 0 6 0;
#X connect 9 0 7 0;
#X connect 10 0 9 0;
#X connect 11 0 8 0;
#X connect 12 0 2 0;
#X connect 13 0 5 0;
#X connect 14 0 20 0;
#X connect 15 0 23 0;
#X connect 16 0 19 0;
#X connect 17 0 14 0;
#X connect 18 0 22 0;
#X connect 19 0 18 0;
#X connect 19 0 21 0;
#X connect 20 0 18 0;
#X connect 22 0 21 0;
#X connect 23 0 24 0;
#X connect 24 0 17 0;
#X restore -137 292 pd outline;
#X obj -329 111 metro 100;
#X obj -329 89 tgl 15 0 empty empty empty 17 7 0 10 -262144 -1 -1 1
1;
#X obj -169 -4 t b b b;
#X msg -329 189 530 \$1 10;
#N canvas 759 22 629 781 coordinates 0;
#X obj -59 56 inlet;
#X obj -53 718 outlet;
#X obj 45 66 atan;
#X msg 45 45 1;
#X obj 45 88 / 45;
#X obj 45 24 loadbang;
#X obj -59 82 unpack 0 0 0;
#X obj -20 127 *;
#X obj 20 127 *;
#X obj -28 234 *;
#X obj 2 235 *;
#X obj -84 227 t f f f;
#X obj -84 126 *;
#X obj -53 696 pack 0 0 0 0 0 0;
#X obj -84 383 f;
#X obj -38 395 f;
#X obj 4 382 f;
#X obj 37 617 line;
#X obj 68 643 line;
#X obj 101 666 line;
#X obj -57 521 pack 0 0 0 0 0 0;
#X obj -57 544 unpack f f f f f f;
#X obj -28 201 cos;
#X obj 2 202 sin;
#X obj 35 202 cos;
#X obj 65 203 sin;
#X obj -28 170 t f f f;
#X obj 35 171 t f f f;
#X floatatom -84 156 5 0 0 0 - - -;
#X floatatom -20 147 5 0 0 0 - - -;
#X floatatom 42 149 5 0 0 0 - - -;
#X obj -63 279 * 1;
#X obj -23 279 * 1;
#X obj 26 281 * 1;
#X floatatom -57 493 5 0 0 0 - - -;
#X floatatom -21 492 5 0 0 0 - - -;
#X floatatom 16 492 5 0 0 0 - - -;
#X obj -66 599 line;
#X obj -35 625 line;
#X obj -2 648 line;
#X msg -66 576 \$1 500;
#X msg -35 601 \$1 500;
#X msg -2 624 \$1 500;
#X msg 37 594 \$1 500;
#X msg 101 640 \$1 500;
#X msg 68 618 \$1 500;
#X connect 0 0 6 0;
#X connect 2 0 4 0;
#X connect 3 0 2 0;
#X connect 4 0 8 1;
#X connect 4 0 7 1;
#X connect 4 0 12 1;
#X connect 5 0 3 0;
#X connect 6 0 12 0;
#X connect 6 1 7 0;
#X connect 6 2 8 0;
#X connect 7 0 29 0;
#X connect 8 0 30 0;
#X connect 9 0 31 1;
#X connect 10 0 32 1;
#X connect 11 0 31 0;
#X connect 11 1 32 0;
#X connect 11 2 33 0;
#X connect 12 0 28 0;
#X connect 13 0 1 0;
#X connect 14 0 34 0;
#X connect 15 0 35 0;
#X connect 16 0 36 0;
#X connect 17 0 13 3;
#X connect 18 0 13 4;
#X connect 19 0 13 5;
#X connect 20 0 21 0;
#X connect 21 0 40 0;
#X connect 21 1 41 0;
#X connect 21 2 42 0;
#X connect 21 3 43 0;
#X connect 21 4 45 0;
#X connect 21 5 44 0;
#X connect 22 0 9 0;
#X connect 23 0 10 0;
#X connect 24 0 9 1;
#X connect 24 0 10 1;
#X connect 25 0 33 1;
#X connect 26 0 22 0;
#X connect 26 1 23 0;
#X connect 27 0 24 0;
#X connect 27 1 25 0;
#X connect 28 0 11 0;
#X connect 29 0 26 0;
#X connect 30 0 27 0;
#X connect 31 0 16 0;
#X connect 32 0 14 0;
#X connect 33 0 15 0;
#X connect 34 0 20 0;
#X connect 35 0 20 1;
#X connect 36 0 20 2;
#X connect 37 0 13 0;
#X connect 38 0 13 1;
#X connect 39 0 13 2;
#X connect 40 0 37 0;
#X connect 41 0 38 0;
#X connect 42 0 39 0;
#X connect 43 0 17 0;
#X connect 44 0 19 0;
#X connect 45 0 18 0;
#X restore -329 217 pd coordinates;
#X msg -329 248 view \$1 \$2 \$3 \$4 \$5 \$6 0 1 0;
#X obj -329 138 f;
#X obj -298 137 + 1;
#X obj -262 136 % 360;
#X obj -329 163 expr 360-$f1;
#X obj -257 328 gemmouse 1 1;
#X obj -257 356 expr $f1*8-4;
#X obj -257 408 pack f f;
#X obj -257 430 s mousePos;
#X obj -240 378 expr ($f1*-8)+4;
#X obj -174 408 s mouseLeft;
#X obj -329 303 loadbang;
#X msg -329 327 223;
#N canvas 549 242 804 519 slider 0;
#X obj -329 22 gemhead -1;
#X obj -329 46 color 1 0.24 0.37;
#X obj -260 14 loadbang;
#X obj -329 142 gemhead -1;
#X obj -329 166 color 1 0.24 0.37;
#X obj -260 134 loadbang;
#X obj -329 112 s a1;
#X obj -329 232 s a1_1;
#X obj -334 266 gemhead -1;
#X obj -265 258 loadbang;
#X obj -334 386 gemhead -1;
#X obj -265 378 loadbang;
#X obj -334 290 color 0.4 0.56 1;
#X obj -334 410 color 0.4 0.56 1;
#X obj -334 356 s a2;
#X obj -334 476 s a2_1;
#X obj 37 16 gemhead -1;
#X obj 106 8 loadbang;
#X obj 37 136 gemhead -1;
#X obj 106 128 loadbang;
#X obj 32 260 gemhead -1;
#X obj 101 252 loadbang;
#X obj 32 380 gemhead -1;
#X obj 101 372 loadbang;
#X obj 37 106 s a3;
#X obj 37 226 s a3_1;
#X obj 32 350 s a4;
#X obj 32 470 s a4_1;
#X msg 101 424 width 0.5 \, pos 1.5 -3.5 \, range 0 1 \, name Amp;
#X msg 101 304 width 0.5 \, pos 1.5 -3 \, range 0 1000 \, name Freq
;
#X msg 106 180 width 0.5 \, pos 1.5 -2.5 \, range 0 1 \, name Amp;
#X msg 106 60 width 0.5 \, pos 1.5 -2 \, range 0 1000 \, name Freq
;
#X msg -260 66 width 0.5 \, pos -1.5 -2 \, range 0 1000 \, name Freq
;
#X msg -260 186 width 0.5 \, pos -1.5 -2.5 \, range 0 1 \, name Amp
;
#X msg -265 310 width 0.5 \, pos -1.5 -3 \, range 0 1000 \, name Freq
;
#X msg -265 430 width 0.5 \, pos -1.5 -3.5 \, range 0 1 \, name Amp
;
#X obj 32 404 color 1 0.49 0.45;
#X obj 32 284 color 1 0.49 0.45;
#X obj 37 160 color 0 0.93 0.58;
#X obj 37 40 color 0 0.93 0.58;
#X obj -329 88 vj_hslider;
#X obj 37 82 vj_hslider;
#X obj -329 208 vj_hslider;
#X obj -334 332 vj_hslider;
#X obj -334 452 vj_hslider;
#X obj 37 202 vj_hslider;
#X obj 32 326 vj_hslider;
#X obj 32 446 vj_hslider;
#X connect 0 0 1 0;
#X connect 1 0 40 0;
#X connect 2 0 32 0;
#X connect 3 0 4 0;
#X connect 4 0 42 0;
#X connect 5 0 33 0;
#X connect 8 0 12 0;
#X connect 9 0 34 0;
#X connect 10 0 13 0;
#X connect 11 0 35 0;
#X connect 12 0 43 0;
#X connect 13 0 44 0;
#X connect 16 0 39 0;
#X connect 17 0 31 0;
#X connect 18 0 38 0;
#X connect 19 0 30 0;
#X connect 20 0 37 0;
#X connect 21 0 29 0;
#X connect 22 0 36 0;
#X connect 23 0 28 0;
#X connect 28 0 47 1;
#X connect 29 0 46 1;
#X connect 30 0 45 1;
#X connect 31 0 41 1;
#X connect 32 0 40 1;
#X connect 33 0 42 1;
#X connect 34 0 43 1;
#X connect 35 0 44 1;
#X connect 36 0 47 0;
#X connect 37 0 46 0;
#X connect 38 0 45 0;
#X connect 39 0 41 0;
#X connect 40 0 6 0;
#X connect 41 0 24 0;
#X connect 42 0 7 0;
#X connect 43 0 14 0;
#X connect 44 0 15 0;
#X connect 45 0 25 0;
#X connect 46 0 26 0;
#X connect 47 0 27 0;
#X restore -138 342 pd slider;
#X msg 77 393 1 \$1;
#X msg 128 393 2 \$1;
#X msg 172 393 3 \$1;
#X msg 223 393 4 \$1;
#X obj -45 259 color 0.33 0.27 0.41;
#X msg 131 309 0 \$1;
#X obj 78 365 r a1_1;
#X obj 125 364 r a2_1;
#X obj 171 364 r a3_1;
#X obj 218 363 r a4_1;
#X obj 132 281 r a0_1;
#X msg -87 56 destroy \, reset \, FSAA 8 \, color 0.13 0.13 0.13 \,
create \, 1;
#X msg -150 21 view 5.63751 1.11584 4.88164 0 0 0 0 1 0 \, perspec
-1 1 -1 1 2.61538 30;
#X connect 6 0 7 0;
#X connect 8 0 9 0;
#X connect 9 0 22 0;
#X connect 12 0 43 0;
#X connect 13 0 15 0;
#X connect 14 0 17 0;
#X connect 16 0 13 0;
#X connect 17 0 15 1;
#X connect 20 0 26 0;
#X connect 21 0 20 0;
#X connect 22 0 21 0;
#X connect 22 1 51 0;
#X connect 22 2 50 0;
#X connect 23 0 24 0;
#X connect 24 0 25 0;
#X connect 25 0 0 0;
#X connect 26 0 27 0;
#X connect 26 0 29 0;
#X connect 27 0 28 0;
#X connect 28 0 26 1;
#X connect 29 0 23 0;
#X connect 30 0 31 0;
#X connect 30 1 34 0;
#X connect 30 2 35 0;
#X connect 31 0 32 0;
#X connect 32 0 33 0;
#X connect 34 0 32 1;
#X connect 36 0 37 0;
#X connect 37 0 10 0;
#X connect 39 0 15 2;
#X connect 40 0 15 2;
#X connect 41 0 15 2;
#X connect 42 0 15 2;
#X connect 43 0 16 0;
#X connect 44 0 15 2;
#X connect 45 0 39 0;
#X connect 46 0 40 0;
#X connect 47 0 41 0;
#X connect 48 0 42 0;
#X connect 49 0 44 0;
#X connect 50 0 0 0;
#X connect 51 0 0 0;
