#N canvas 410 307 544 257 10;
#X obj 174 4 sel 0 1;
#X obj 174 -42 tgl 30 0 empty empty empty 17 7 0 10 -262144 -1 -1 0
1;
#X msg 174 27 destroy;
#X obj 174 82 gemwin;
#X obj 248 126 catch~ all;
#X obj 248 166 dac~;
#X msg 252 -6 \; pd dsp \$1;
#N canvas 986 308 450 300 choice-color 0;
#X obj 181 45 r check_color;
#X obj 182 66 unpack f f;
#X obj 182 98 coll colordata.txt;
#C restore;
#X obj 183 136 pack f f f f;
#X obj 185 172 s return_color;
#X connect 0 0 1 0;
#X connect 1 0 2 0;
#X connect 1 1 3 3;
#X connect 2 0 3 0;
#X connect 3 0 4 0;
#X restore 253 -36 pd choice-color;
#X obj -10 -33 piano 0;
#N canvas 616 273 824 497 shader&mouse 0;
#X obj 100 369 pix_texture;
#X obj 100 123 alpha;
#X obj 100 317 glsl_program;
#X obj 191 236 pack 0 0;
#X obj 212 202 t b f;
#X obj 212 154 change;
#X obj 191 125 change;
#X msg 191 262 link \$1 \$2;
#X floatatom 212 180 2 0 0 0 ID - -;
#X floatatom 191 148 2 0 0 0 ID - -;
#X obj 100 190 glsl_vertex;
#X obj 100 281 glsl_fragment;
#X obj 100 72 gemframebuffer;
#X obj 100 97 translateXYZ 0 0 -4;
#X obj 33 83 loadbang;
#X obj 33 132 t b b;
#X obj 33 109 bng 15 250 50 0 empty empty empty 17 7 0 10 -262144 -1
-1;
#X obj 172 10 loadbang;
#X obj 100 396 rectangle 8 4;
#X obj 100 38 gemhead 30;
#X msg 172 37 format RGBA \, color 0 0 0 0 \, dimen 500 500;
#X obj 197 73 s totex;
#X msg 60 156 open rect.vert;
#X msg 33 211 open rect.frag;
#X obj 144 128 tgl 15 0 empty empty empty 17 7 0 10 -262144 -1 -1 1
1;
#X obj 302 177 gemmouse 1 1;
#X obj 302 259 expr ($f1*8)-4;
#X obj 371 239 s mouseRight;
#X obj 329 333 v x;
#X obj 367 332 v y;
#X obj 319 284 expr ($f1*-8)+4;
#X obj 302 381 s mousePos;
#X obj 302 355 pack f f;
#X obj 302 309 t f f;
#X obj 340 310 t f f;
#X obj 336 219 s mouseLeft;
#X obj 353 198 s mouseMiddle;
#X obj 455 280 gemhead 100;
#X obj 454 325 translateXYZ;
#X obj 451 351 colorRGB 1 1 1 0.7;
#X obj 451 378 alpha;
#X obj 450 417 circle 0.2;
#X msg 527 236 1;
#X obj 527 211 loadbang;
#X obj 531 263 r mousePos;
#X obj 529 283 unpack f f;
#X obj 625 242 r mouseLeft;
#X obj 625 266 change;
#X obj 624 320 sel 1 0;
#X obj 621 379 line;
#X obj 620 407 * 0.7;
#X obj 576 417 > 0;
#X msg 459 252 0;
#X obj 621 293 tgl 15 0 empty empty empty 17 7 0 10 -262144 -1 -1 0
1;
#X msg 621 347 0 0 \, 1 1000;
#X msg 663 374 1 0 \, 0 300;
#X obj 448 96 gemhead;
#X obj 448 167 text2d;
#X msg 518 69 font Avenir_Next.ttc;
#X obj 518 45 loadbang;
#X obj 521 94 r text;
#X msg 521 119 text PITCH \$1 . VEL \$2;
#X msg 481 143 20;
#X connect 0 0 18 0;
#X connect 1 0 10 0;
#X connect 2 0 0 0;
#X connect 3 0 7 0;
#X connect 4 0 3 0;
#X connect 4 1 3 1;
#X connect 5 0 8 0;
#X connect 6 0 9 0;
#X connect 7 0 2 0;
#X connect 8 0 4 0;
#X connect 9 0 3 0;
#X connect 10 0 11 0;
#X connect 10 1 6 0;
#X connect 11 0 2 0;
#X connect 11 1 5 0;
#X connect 12 0 13 0;
#X connect 12 1 21 0;
#X connect 13 0 1 0;
#X connect 14 0 16 0;
#X connect 14 0 24 0;
#X connect 15 0 23 0;
#X connect 15 1 22 0;
#X connect 16 0 15 0;
#X connect 17 0 20 0;
#X connect 19 0 12 0;
#X connect 20 0 12 0;
#X connect 22 0 10 0;
#X connect 23 0 11 0;
#X connect 24 0 1 1;
#X connect 25 0 26 0;
#X connect 25 1 30 0;
#X connect 25 2 35 0;
#X connect 25 3 36 0;
#X connect 25 4 27 0;
#X connect 26 0 33 0;
#X connect 30 0 34 0;
#X connect 32 0 31 0;
#X connect 33 0 32 0;
#X connect 33 1 28 0;
#X connect 34 0 32 1;
#X connect 34 1 29 0;
#X connect 37 0 38 0;
#X connect 38 0 39 0;
#X connect 39 0 40 0;
#X connect 40 0 41 0;
#X connect 42 0 40 1;
#X connect 43 0 42 0;
#X connect 43 0 52 0;
#X connect 44 0 45 0;
#X connect 45 0 38 1;
#X connect 45 1 38 2;
#X connect 46 0 47 0;
#X connect 47 0 53 0;
#X connect 48 0 54 0;
#X connect 48 1 55 0;
#X connect 49 0 50 0;
#X connect 50 0 39 4;
#X connect 50 0 51 0;
#X connect 51 0 37 0;
#X connect 52 0 37 0;
#X connect 53 0 48 0;
#X connect 54 0 49 0;
#X connect 55 0 49 0;
#X connect 56 0 57 0;
#X connect 58 0 57 0;
#X connect 59 0 58 0;
#X connect 59 0 62 0;
#X connect 60 0 61 0;
#X connect 61 0 57 0;
#X connect 62 0 57 1;
#X restore 147 166 pd shader&mouse;
#X obj 44 166 piano 19;
#X obj -11 -10 piano 1;
#X obj -12 13 piano 2;
#X obj -12 36 piano 3;
#X obj -12 57 piano 4;
#X obj -12 79 piano 5;
#X obj -12 102 piano 6;
#X obj -12 123 piano 7;
#X obj -12 144 piano 8;
#X obj -12 164 piano 9;
#X obj 46 -31 piano 10;
#X obj 45 -8 piano 11;
#X obj 44 15 piano 12;
#X obj 44 38 piano 13;
#X obj 44 59 piano 14;
#X obj 44 81 piano 15;
#X obj 44 104 piano 16;
#X obj 44 125 piano 17;
#X obj 44 146 piano 18;
#X obj 105 -33 piano 20;
#X obj 105 -12 piano 21;
#X obj 105 9 piano 22;
#X obj 105 29 piano 23;
#X obj 106 52 piano 24;
#X obj 105 77 piano 25;
#X msg 193 54 reset \, color 0.2 0.2 0.2 \, dimen 500 500 \, create
\, 1;
#N canvas 578 162 805 596 control&play 0;
#X obj 532 592 s bang;
#X obj 532 531 metro 100;
#X obj 532 560 random 26;
#X obj 533 230 square 4;
#X msg 551 175 draw line \, width 10;
#X obj 529 122 gemhead 200;
#X obj 550 152 loadbang;
#X obj 248 207 gemhead 90;
#X obj 481 525 circle;
#X obj 252 301 t a a a;
#X obj 479 433 separator;
#X obj 479 464 colorRGB 0 0 0 0.8;
#X obj 477 491 alpha;
#X obj 327 417 separator;
#X obj 327 531 alpha;
#X obj 327 561 triangle 0.5;
#X obj 326 476 colorRGB 1 1 1 1;
#X obj 325 502 rotateXYZ 0 0 -90;
#X obj 161 378 separator;
#X obj 161 450 alpha;
#X obj 160 421 colorRGB 1 1 1 1;
#X obj 233 342 gate 2;
#X obj 215 300 tgl 15 0 empty empty empty 17 7 0 10 -262144 -1 -1 0
1;
#X obj 213 318 + 1;
#X obj 250 273 scale 0.2;
#X obj 249 246 translateXYZ 3.3 -0.05 0;
#X obj 313 448 translateXYZ 0.1 0 0;
#X obj 586 353 distance2d;
#X msg 644 318 3.3 -0.05;
#X obj 643 292 loadbang;
#X obj 584 262 r mousePos;
#X floatatom 587 378 5 0 0 0 - - -;
#X obj 588 403 < 0.2;
#X obj 623 436 tgl 15 0 empty empty empty 17 7 0 10 -262144 -1 -1 0
1;
#X obj 623 461 metro 200;
#X msg 622 488 0.5 \, 0 200;
#X obj 619 512 line;
#X obj 450 301 r mouseLeft;
#X obj 449 341 spigot;
#X obj 449 365 sel 1;
#X obj 449 387 f;
#X obj 474 387 + 1;
#X obj 502 386 % 2;
#X floatatom 449 411 5 0 0 0 - - -;
#X obj 161 471 translateXYZ -0.35 0 0;
#X obj 162 533 translateXYZ 0.7 0 0;
#X obj 161 506 rectangle 0.15 0.6;
#X obj 162 567 rectangle 0.15 0.6;
#X obj 139 272 loadbang;
#X msg 137 296 0;
#X connect 1 0 2 0;
#X connect 2 0 0 0;
#X connect 4 0 3 0;
#X connect 5 0 3 0;
#X connect 6 0 4 0;
#X connect 7 0 25 0;
#X connect 9 1 21 1;
#X connect 9 2 10 0;
#X connect 10 0 11 0;
#X connect 11 0 12 0;
#X connect 12 0 8 0;
#X connect 13 0 26 0;
#X connect 14 0 15 0;
#X connect 16 0 17 0;
#X connect 17 0 14 0;
#X connect 18 0 20 0;
#X connect 19 0 44 0;
#X connect 20 0 19 0;
#X connect 21 0 13 0;
#X connect 21 1 18 0;
#X connect 22 0 23 0;
#X connect 23 0 21 0;
#X connect 24 0 9 0;
#X connect 25 0 24 0;
#X connect 26 0 16 0;
#X connect 27 0 31 0;
#X connect 28 0 27 1;
#X connect 29 0 28 0;
#X connect 30 0 27 0;
#X connect 31 0 32 0;
#X connect 32 0 33 0;
#X connect 33 0 34 0;
#X connect 33 0 38 1;
#X connect 34 0 35 0;
#X connect 35 0 36 0;
#X connect 36 0 11 1;
#X connect 36 0 11 3;
#X connect 36 0 11 2;
#X connect 37 0 38 0;
#X connect 38 0 39 0;
#X connect 39 0 40 0;
#X connect 40 0 41 0;
#X connect 40 0 43 0;
#X connect 41 0 42 0;
#X connect 42 0 40 1;
#X connect 43 0 1 0;
#X connect 43 0 22 0;
#X connect 44 0 46 0;
#X connect 45 0 47 0;
#X connect 46 0 45 0;
#X connect 48 0 49 0;
#X connect 49 0 22 0;
#X restore 148 141 pd control&play;
#X connect 0 0 2 0;
#X connect 0 1 35 0;
#X connect 1 0 0 0;
#X connect 1 0 6 0;
#X connect 2 0 3 0;
#X connect 4 0 5 0;
#X connect 4 0 5 1;
#X connect 35 0 3 0;
