#N canvas 530 84 798 716 10;
#X obj 65 20 bng 15 250 50 0 empty empty empty 17 7 0 10 -262144 -1
-1;
#X obj 125 144 v \$0-pos;
#X obj 96 322 v \$0-size;
#X obj 80 428 v \$0-time;
#X obj 230 223 gemhead;
#X obj 230 556 translateXYZ;
#X obj 230 523 colorRGB 1 1 1;
#X obj 230 309 alpha;
#X obj 230 632 rectangle 1 4;
#X obj 28 135 s \$0-go;
#X obj 330 31 r \$0-go;
#X msg 330 146 1 \, 0 \$1;
#X obj 330 120 v \$0-time;
#X obj 413 278 osc~;
#X floatatom 413 256 5 0 0 0 - - -;
#X obj 413 362 throw~ all;
#X obj 330 174 line;
#X floatatom 312 258 5 0 0 0 - - -;
#X obj 80 401 * 200;
#X obj 175 258 loadbang;
#X obj 175 281 tgl 15 0 empty empty empty 17 7 0 10 -262144 -1 -1 1
1;
#X obj 294 285 v \$0-pos;
#X obj 267 609 v \$0-size;
#X obj 245 338 v \$0-dir;
#X obj 245 415 *;
#X obj 312 324 t f f;
#X obj 245 438 +;
#X obj 112 238 v \$0-speed;
#X obj 65 43 t b b b b b b;
#X obj 199 32 random 2;
#X obj 199 82 v \$0-dir;
#X obj 199 54 expr if($f1>0 \, 1 \, -1);
#X obj 230 257 t a b b b b;
#X obj 261 359 v \$0-speed;
#X obj 245 385 *;
#X obj 330 202 *;
#X obj 330 223 *;
#X obj 96 293 + 0.1;
#X floatatom -50 300 5 0 0 0 - - -;
#X obj -50 339 pack f \$1;
#X obj -50 367 s check_color;
#X obj 291 393 r return_color;
#X obj 291 443 route \$1;
#X msg 291 419 \$4 \$1 \$2 \$3;
#X obj 292 470 unpack f f f;
#X obj 413 160 v \$0-pos;
#X obj 125 119 k_range 0 25 -4 4;
#X obj 413 183 k_range -4 4 0 25;
#X obj 413 205 + 50;
#X obj 413 227 mtof;
#X obj 65 -32 r bang;
#X obj 65 -8 route \$1;
#X msg 384 90 1 0;
#X obj 413 306 *~;
#X obj 515 227 v \$0-size;
#X obj 330 56 t b b b b;
#X obj 313 555 r totex;
#X obj 230 584 pix_texture;
#X obj 112 184 randomF 0.5;
#X obj 112 208 + 0.3;
#X obj 283 -93 r mousePos;
#X obj 492 -22 k_range 0 25 -4 4;
#X floatatom 492 1 5 0 0 0 - - -;
#X obj 283 -70 unpack f f;
#X floatatom 282 -23 5 0 0 0 - - -;
#X obj 202 -39 spigot;
#X obj 202 -99 r mouseLeft;
#X obj 137 -7 spigot;
#X obj 253 184 invert;
#X obj 170 -31 tgl 15 0 empty empty empty 17 7 0 10 -262144 -1 -1 0
1;
#X obj 207 -12 loadbang;
#X msg 207 8 1;
#X obj 491 -73 init \$1;
#X floatatom 491 -49 5 0 0 0 - - -;
#X obj 500 -95 bng 15 250 50 0 empty empty empty 17 7 0 10 -262144
-1 -1;
#X obj 283 -45 expr if(abs($f1-$f2)< 0.3 \, 1 \, 0);
#X obj 80 352 random 10;
#X obj 80 375 + 5;
#X obj 125 81 init \$1;
#X obj 96 268 randomF 0.9;
#X obj 515 252 k_range 0.1 0.9 0.05 0.2;
#X obj 202 -70 metro 50;
#X obj 330 91 del 50;
#X obj 253 158 > 0.5;
#X obj 527 406 s text;
#X obj 517 354 pack f f;
#X obj 577 343 expr int($f1*100)/100;
#X obj 493 308 line~;
#X obj 413 335 *~;
#X obj 454 258 line~;
#X msg 454 236 \$1 50;
#X msg 493 286 \$1 50;
#X connect 0 0 28 0;
#X connect 4 0 32 0;
#X connect 5 0 57 0;
#X connect 6 0 5 0;
#X connect 7 0 6 0;
#X connect 10 0 55 0;
#X connect 11 0 16 0;
#X connect 12 0 11 0;
#X connect 13 0 53 0;
#X connect 14 0 13 0;
#X connect 16 0 35 0;
#X connect 16 0 35 1;
#X connect 17 0 25 0;
#X connect 17 0 90 0;
#X connect 18 0 3 0;
#X connect 19 0 20 0;
#X connect 20 0 7 1;
#X connect 21 0 26 1;
#X connect 22 0 8 1;
#X connect 23 0 34 0;
#X connect 24 0 26 0;
#X connect 25 0 6 4;
#X connect 25 1 24 1;
#X connect 26 0 5 1;
#X connect 28 0 9 0;
#X connect 28 1 76 0;
#X connect 28 2 79 0;
#X connect 28 3 58 0;
#X connect 28 4 78 0;
#X connect 28 5 29 0;
#X connect 29 0 31 0;
#X connect 31 0 30 0;
#X connect 32 0 7 0;
#X connect 32 1 23 0;
#X connect 32 2 33 0;
#X connect 32 3 22 0;
#X connect 32 4 21 0;
#X connect 33 0 34 1;
#X connect 34 0 24 0;
#X connect 35 0 36 0;
#X connect 35 0 36 1;
#X connect 36 0 17 0;
#X connect 36 0 83 0;
#X connect 37 0 2 0;
#X connect 38 0 39 0;
#X connect 39 0 40 0;
#X connect 41 0 43 0;
#X connect 42 0 44 0;
#X connect 43 0 42 0;
#X connect 44 0 6 1;
#X connect 44 1 6 2;
#X connect 44 2 6 3;
#X connect 45 0 47 0;
#X connect 46 0 1 0;
#X connect 47 0 48 0;
#X connect 48 0 49 0;
#X connect 48 0 85 0;
#X connect 49 0 14 0;
#X connect 50 0 51 0;
#X connect 51 0 0 0;
#X connect 52 0 16 0;
#X connect 53 0 88 0;
#X connect 54 0 80 0;
#X connect 55 0 82 0;
#X connect 55 1 52 0;
#X connect 55 2 45 0;
#X connect 55 3 54 0;
#X connect 56 0 57 1;
#X connect 57 0 8 0;
#X connect 58 0 59 0;
#X connect 59 0 27 0;
#X connect 60 0 63 0;
#X connect 61 0 62 0;
#X connect 62 0 75 1;
#X connect 63 0 75 0;
#X connect 64 0 65 1;
#X connect 65 0 67 0;
#X connect 66 0 81 0;
#X connect 67 0 0 0;
#X connect 68 0 69 0;
#X connect 69 0 67 1;
#X connect 70 0 71 0;
#X connect 71 0 69 0;
#X connect 72 0 73 0;
#X connect 73 0 61 0;
#X connect 74 0 72 0;
#X connect 75 0 64 0;
#X connect 76 0 77 0;
#X connect 77 0 18 0;
#X connect 78 0 46 0;
#X connect 78 0 38 0;
#X connect 79 0 37 0;
#X connect 80 0 86 0;
#X connect 80 0 91 0;
#X connect 81 0 65 0;
#X connect 82 0 12 0;
#X connect 83 0 68 0;
#X connect 85 0 84 0;
#X connect 86 0 85 1;
#X connect 87 0 88 1;
#X connect 88 0 15 0;
#X connect 89 0 53 1;
#X connect 90 0 89 0;
#X connect 91 0 87 0;
